<svg xmlns="http://www.w3.org/2000/svg" xml:space="preserve" id="svg1" width="4608" height="3072" version="1.1" viewBox="0 0 1219.2 812.8"><defs id="defs1"><style id="style1">.cls-1{fill:#0283c0}.cls-2{fill:#fff}.cls-3{fill:#ef483f}</style></defs><path id="rect1" d="M 0 0 L 0 812.8 L 1219.2 812.8 L 1219.2 0 L 0 0 z" style="fill:#b00020;fill-rule:evenodd;stroke:none;stroke-width:8.46667;stroke-linecap:round;stroke-linejoin:round;fill-opacity:1"/><path id="path1" d="M 1219.2,0 V 406.4 H 0 V 0 Z" style="fill:#008040;fill-opacity:1;fill-rule:evenodd;stroke:none;stroke-width:8.46668;stroke-linecap:round;stroke-linejoin:round"/><path id="path3" d="m 608.49249,101.60048 c -2.12759,0 -4.26283,0.82815 -6.05253,2.61784 -36.44928,36.44927 -49.61594,92.05755 -35.40417,139.43541 a 2.4002385,2.4002376 0 0 1 -3.76896,2.58706 c -23.49755,-18.22562 -52.8328,-28.40461 -84.29531,-28.40461 -0.0686,0 -0.28508,0.0383 -0.77786,0.0558 a 2.4002385,2.4002376 0 0 1 -0.10817,0.003 c -0.62304,-0.005 -1.05823,-0.0581 -1.32899,-0.0581 -2.78765,0 -4.87625,0.89094 -6.32866,2.34345 -1.45243,1.45253 -2.34057,3.5415 -2.34057,6.32925 0,41.39305 17.38614,76.16963 43.57751,102.361 a 2.4002385,2.4002376 0 0 1 -2.16788,4.05092 c -11.07017,-2.21406 -21.99016,-4.38055 -32.7404,-4.38055 -2.78771,0 -4.87629,0.88817 -6.32866,2.34055 -1.45239,1.45239 -2.34057,3.54153 -2.34057,6.32926 0,39.14161 17.43329,76.21968 43.57751,102.3639 a 2.4002385,2.4002376 0 0 1 -2.16788,4.05091 c -11.07026,-2.21402 -21.99024,-4.38286 -32.7404,-4.38286 -2.78765,0 -4.87625,0.89035 -6.32866,2.34287 -1.45243,1.45252 -2.34057,3.54151 -2.34057,6.32925 0,69.64933 52.26751,128.4447 119.75415,139.32961 a 2.4002385,2.4002376 0 0 1 2.01731,2.36961 v 101.84591 c 0,6.10878 1.99651,10.96454 5.38629,14.35433 3.3898,3.38979 8.24558,5.38571 14.35434,5.38571 1.52705,0 2.9786,-0.12725 4.3474,-0.36974 9.58059,-1.69714 15.39381,-8.67995 15.39381,-19.3703 V 589.61324 a 2.4002385,2.4002376 0 0 1 2.01732,-2.36962 c 67.48665,-10.88491 119.75472,-69.68028 119.75472,-139.3296 0,-2.78775 -0.88815,-4.87674 -2.34057,-6.32926 -1.45241,-1.45251 -3.54159,-2.34287 -6.32926,-2.34287 -10.75012,0 -21.67011,2.16884 -32.74038,4.38287 a 2.4002385,2.4002376 0 0 1 -2.16789,-4.05092 c 26.14421,-26.14422 43.5781,-63.22228 43.5781,-102.36389 0,-2.78773 -0.88817,-4.87687 -2.34057,-6.32926 -1.45239,-1.45239 -3.54153,-2.34056 -6.32926,-2.34056 -10.7502,0 -21.6702,2.1665 -32.74038,4.38055 a 2.4002385,2.4002376 0 0 1 -2.16789,-4.05091 c 26.19137,-26.19138 43.5781,-60.96796 43.5781,-102.361 0,-2.78776 -0.88815,-4.87673 -2.34057,-6.32925 -1.45241,-1.45252 -3.54159,-2.34346 -6.32926,-2.34346 -0.27075,0 -0.70595,0.0525 -1.32899,0.0581 a 2.4002385,2.4002376 0 0 1 -0.10578,-0.003 c -0.49277,-0.0175 -0.70926,-0.0558 -0.77785,-0.0558 -31.46252,0 -60.79948,10.17899 -84.29705,28.40461 a 2.4002385,2.4002376 0 0 1 -3.76895,-2.58706 c 14.21177,-47.37752 1.04451,-102.98579 -35.40478,-139.43507 -1.78969,-1.78969 -3.92492,-2.61784 -6.0525,-2.61784 -0.0614,0 -0.3437,0.0427 -0.84995,0.0971 a 2.4002385,2.4002376 0 0 1 -0.51393,0 c -0.50626,-0.0545 -0.78918,-0.0971 -0.85053,-0.0971 z m -274.58863,76.20043 c -1.5957,0 -3.19691,0.62096 -4.53925,1.96325 -27.33687,27.33695 -37.21178,69.04314 -26.55299,104.57655 a 1.8001792,1.8001785 0 0 1 -2.82715,1.94 c -17.62319,-13.66923 -39.62423,-21.30332 -63.22105,-21.30332 -0.0517,0 -0.21411,0.0287 -0.58367,0.0418 a 1.8001792,1.8001785 0 0 1 -0.0808,9e-4 c -0.46733,-0.004 -0.79339,-0.0436 -0.99646,-0.0436 -2.0908,0 -3.65746,0.66806 -4.74679,1.75745 -1.08933,1.0894 -1.7557,2.65598 -1.7557,4.7468 0,31.04478 13.03996,57.12778 32.68341,76.77133 a 1.8001792,1.8001785 0 0 1 -1.62606,3.03759 c -8.30258,-1.66052 -16.49222,-3.28527 -24.55486,-3.28527 -2.0908,0 -3.65746,0.66642 -4.74679,1.75572 -1.08922,1.08927 -1.7557,2.65599 -1.7557,4.74679 0,29.35623 13.07529,57.1649 32.68341,76.77308 a 1.8001792,1.8001785 0 0 1 -1.62606,3.03817 c -8.30269,-1.66051 -16.49222,-3.28757 -24.55486,-3.28757 -2.0908,0 -3.65746,0.66807 -4.74679,1.75745 -1.08933,1.08938 -1.7557,2.65654 -1.7557,4.74736 0,52.23701 39.20092,96.33322 89.81589,104.49691 a 1.8001792,1.8001785 0 0 1 1.51329,1.77721 v 76.38414 c 0,4.58158 1.497,8.22327 4.03927,10.76562 2.54228,2.54233 6.18452,4.03927 10.76618,4.03927 1.14536,0 2.23371,-0.0948 3.26026,-0.27673 7.18547,-1.27286 11.54521,-6.51039 11.54521,-14.52816 v -76.38414 a 1.8001792,1.8001785 0 0 1 1.51328,-1.77721 c 50.61498,-8.16369 89.81647,-52.2599 89.81647,-104.49691 0,-2.09082 -0.66649,-3.65798 -1.7557,-4.74736 -1.08945,-1.08938 -2.65669,-1.75745 -4.74738,-1.75745 -8.06262,0 -16.25227,1.62706 -24.55485,3.28757 a 1.8001792,1.8001785 0 0 1 -1.62607,-3.03817 c 19.60829,-19.60818 32.684,-47.41685 32.684,-76.77308 0,-2.0908 -0.66649,-3.65752 -1.7557,-4.74679 -1.08945,-1.0893 -2.65657,-1.75572 -4.74738,-1.75572 -8.06274,0 -16.25227,1.62475 -24.55485,3.28527 a 1.8001792,1.8001785 0 0 1 -1.62607,-3.03759 c 19.64361,-19.64355 32.684,-45.72655 32.684,-76.77133 0,-2.09082 -0.66649,-3.6574 -1.7557,-4.7468 -1.08945,-1.08939 -2.65669,-1.75745 -4.74738,-1.75745 -0.20306,0 -0.52923,0.0394 -0.99644,0.0436 a 1.8001792,1.8001785 0 0 1 -0.0796,-9e-4 c -0.36958,-0.013 -0.5317,-0.0418 -0.58311,-0.0418 -23.59697,0 -45.59961,7.63409 -63.2228,21.30332 a 1.8001792,1.8001785 0 0 1 -2.82715,-1.94 c 10.65892,-35.53341 0.78338,-77.2396 -26.55356,-104.57655 -1.34224,-1.34229 -2.94356,-1.96325 -4.53925,-1.96325 -0.0462,0 -0.25749,0.0319 -0.63717,0.0726 a 1.8001792,1.8001785 0 0 1 -0.38545,0 c -0.37968,-0.0409 -0.5922,-0.0726 -0.63833,-0.0726 z m 549.73014,0 c -1.59569,0 -3.1969,0.62096 -4.53924,1.96325 -27.33687,27.33695 -37.21179,69.04314 -26.553,104.57655 a 1.8001792,1.8001785 0 0 1 -2.82716,1.94 c -17.62318,-13.66923 -39.62421,-21.30332 -63.22103,-21.30332 -0.0517,0 -0.21412,0.0287 -0.58368,0.0418 a 1.8001792,1.8001785 0 0 1 -0.0808,9e-4 c -0.46733,-0.004 -0.79339,-0.0436 -0.99645,-0.0436 -2.09081,0 -3.65747,0.66806 -4.7468,1.75745 -1.08933,1.0894 -1.7557,2.65598 -1.7557,4.7468 0,31.04478 13.03995,57.12778 32.68342,76.77133 a 1.8001792,1.8001785 0 0 1 -1.62606,3.03759 c -8.30259,-1.66052 -16.49223,-3.28527 -24.55486,-3.28527 -2.09081,0 -3.65747,0.66642 -4.7468,1.75572 -1.08922,1.08927 -1.7557,2.65599 -1.7557,4.74679 0,29.35623 13.07529,57.1649 32.68342,76.77308 a 1.8001792,1.8001785 0 0 1 -1.62606,3.03817 c -8.3027,-1.66051 -16.49223,-3.28757 -24.55486,-3.28757 -2.09081,0 -3.65747,0.66807 -4.7468,1.75745 -1.08933,1.08938 -1.7557,2.65654 -1.7557,4.74736 0,52.23701 39.20092,96.33322 89.81588,104.49691 a 1.8001792,1.8001785 0 0 1 1.51329,1.77721 v 76.38414 c 0,4.58158 1.49701,8.22327 4.03927,10.76562 2.54227,2.54233 6.18454,4.03927 10.76619,4.03927 1.14534,0 2.23371,-0.0948 3.26025,-0.27673 7.1855,-1.27286 11.54518,-6.51039 11.54518,-14.52816 v -76.38414 a 1.8001792,1.8001785 0 0 1 1.51326,-1.77721 C 951.39848,533.86861 990.6,489.7724 990.6,437.53539 c 0,-2.09082 -0.66654,-3.65798 -1.75571,-4.74736 -1.08945,-1.08938 -2.65671,-1.75745 -4.74741,-1.75745 -8.06265,0 -16.25226,1.62706 -24.55485,3.28757 A 1.8001792,1.8001785 0 0 1 957.916,431.27998 C 977.52427,411.6718 990.6,383.86313 990.6,354.5069 c 0,-2.0908 -0.66654,-3.65752 -1.75571,-4.74679 -1.08945,-1.0893 -2.65662,-1.75572 -4.74741,-1.75572 -8.06274,0 -16.25226,1.62475 -24.55485,3.28527 a 1.8001792,1.8001785 0 0 1 -1.62603,-3.03759 c 19.64355,-19.64355 32.684,-45.72655 32.684,-76.77133 0,-2.09082 -0.66654,-3.6574 -1.75571,-4.7468 -1.08945,-1.08939 -2.65671,-1.75745 -4.74741,-1.75745 -0.20304,0 -0.5292,0.0394 -0.99639,0.0436 a 1.8001792,1.8001785 0 0 1 -0.0801,-9e-4 c -0.36954,-0.013 -0.53172,-0.0418 -0.58311,-0.0418 -23.59698,0 -45.59961,7.63409 -63.22276,21.30332 a 1.8001792,1.8001785 0 0 1 -2.82715,-1.94 c 10.65885,-35.53341 0.78336,-77.2396 -26.55356,-104.57655 -1.34226,-1.34229 -2.94363,-1.96325 -4.53933,-1.96325 -0.0459,0 -0.2574,0.0319 -0.6371,0.0726 a 1.8001792,1.8001785 0 0 1 -0.38544,0 c -0.37968,-0.0409 -0.59221,-0.0726 -0.63833,-0.0726 z M 576.8596,363.6392 c 11.07017,2.21405 21.98959,4.38287 32.7398,4.38287 10.75023,0 21.67022,-2.16882 32.7404,-4.38287 a 2.4002385,2.4002376 0 0 1 2.16846,4.05034 c -3.27403,3.274 -6.55139,6.82365 -9.72439,10.57665 -3.17302,3.75303 -6.24093,7.71004 -9.10175,11.79694 -2.86084,4.08691 -5.5134,8.30422 -7.85301,12.57651 -1.16978,2.13612 -2.26328,4.28614 -3.26433,6.4403 -1.00099,2.15407 -1.91006,4.31105 -2.71725,6.46354 a 2.4002385,2.4002376 0 0 1 -4.49566,0 c -1.61439,-4.30499 -3.63968,-8.63148 -5.97928,-12.90384 -2.3396,-4.27229 -4.99216,-8.4896 -7.85299,-12.57651 -5.72155,-8.17364 -12.28002,-15.82574 -18.82789,-22.37359 a 2.4002385,2.4002376 0 0 1 2.16789,-4.05034 z m -266.67984,10.69061 c 8.30271,1.66055 16.49224,3.28701 24.55485,3.28701 8.06275,0 16.25216,-1.62646 24.55488,-3.28701 a 1.8001792,1.8001785 0 0 1 1.62605,3.03761 c -2.45553,2.45549 -4.91343,5.11788 -7.29315,7.93262 -2.37982,2.81479 -4.68072,5.78254 -6.82632,8.84771 -2.14566,3.06518 -4.13509,6.22831 -5.88974,9.43255 -0.87728,1.60209 -1.69728,3.21429 -2.44811,4.82993 -0.75071,1.61554 -1.43277,3.23357 -2.03824,4.84795 a 1.8001792,1.8001785 0 0 1 -3.3713,0 c -1.21084,-3.22876 -2.72995,-6.47361 -4.48461,-9.67788 -1.75476,-3.20424 -3.74402,-6.36737 -5.88973,-9.43255 -4.29108,-6.13022 -9.20981,-11.86946 -14.12064,-16.78033 a 1.8001792,1.8001785 0 0 1 1.62606,-3.03761 z m 549.72957,0 c 8.3027,1.66055 16.49281,3.28701 24.55542,3.28701 8.06273,0 16.25218,-1.62646 24.55485,-3.28701 a 1.8001792,1.8001785 0 0 1 1.62612,3.03761 c -2.45556,2.45549 -4.91346,5.11788 -7.29314,7.93262 -2.37988,2.81479 -4.68081,5.78254 -6.8264,8.84771 -2.1456,3.06518 -4.13505,6.22831 -5.88969,9.43255 -0.87731,1.60209 -1.6973,3.21429 -2.44808,4.82993 -0.75078,1.61554 -1.4328,3.23357 -2.03832,4.84795 a 1.8001792,1.8001785 0 0 1 -3.37126,0 c -1.21083,-3.22876 -2.72994,-6.47361 -4.48461,-9.67788 -1.75476,-3.20424 -3.74404,-6.36737 -5.88976,-9.43255 -4.29106,-6.13022 -9.20978,-11.86946 -14.12062,-16.78033 a 1.8001792,1.8001785 0 0 1 1.62549,-3.03761 z m -549.72957,83.02791 c 8.30271,1.66053 16.49224,3.28526 24.55485,3.28526 8.06264,0 16.25216,-1.62473 24.55488,-3.28526 a 1.8001792,1.8001785 0 0 1 1.62605,3.0376 c -2.45541,2.45546 -4.91333,5.11782 -7.29315,7.93265 -2.37982,2.81481 -4.68072,5.78085 -6.82632,8.84594 -2.14554,3.06512 -4.13497,6.23001 -5.88974,9.4343 -0.87739,1.60218 -1.69728,3.21441 -2.44811,4.82992 -0.75059,1.61543 -1.43277,3.23346 -2.03824,4.84795 a 1.8001792,1.8001785 0 0 1 -3.3713,0 c -1.21084,-3.22874 -2.72995,-6.47363 -4.48461,-9.67787 -1.75476,-3.20429 -3.74402,-6.36918 -5.88973,-9.4343 -4.29108,-6.1302 -9.20981,-11.86769 -14.12064,-16.77859 a 1.8001792,1.8001785 0 0 1 1.62606,-3.0376 z m 549.72957,0 c 8.3027,1.66053 16.49281,3.28526 24.55542,3.28526 8.06264,0 16.25218,-1.62473 24.55485,-3.28526 a 1.8001792,1.8001785 0 0 1 1.62612,3.0376 c -2.45547,2.45546 -4.91337,5.11782 -7.29314,7.93265 -2.37988,2.81481 -4.68081,5.78085 -6.8264,8.84594 -2.14551,3.06512 -4.13496,6.23001 -5.88969,9.4343 -0.8774,1.60218 -1.6973,3.21441 -2.44808,4.82992 -0.7506,1.61543 -1.4328,3.23346 -2.03832,4.84795 a 1.8001792,1.8001785 0 0 1 -3.37126,0 c -1.21083,-3.22874 -2.72994,-6.47363 -4.48461,-9.67787 -1.75476,-3.20429 -3.74404,-6.36918 -5.88976,-9.4343 -4.29106,-6.1302 -9.20978,-11.86769 -14.12062,-16.77859 a 1.8001792,1.8001785 0 0 1 1.62549,-3.0376 z M 576.8596,474.34328 c 11.07025,2.21407 21.98968,4.38053 32.7398,4.38053 10.75015,0 21.67014,-2.16646 32.7404,-4.38053 a 2.4002385,2.4002376 0 0 1 2.16846,4.04974 c -3.27393,3.27394 -6.55131,6.82356 -9.72439,10.57667 -3.1731,3.7531 -6.24098,7.70839 -9.10175,11.79519 -2.86077,4.08681 -5.51336,8.30646 -7.85301,12.57885 -1.16985,2.13626 -2.26335,4.28569 -3.26433,6.43971 -1.00092,2.1539 -1.91001,4.31148 -2.71725,6.46413 a 2.4002385,2.4002376 0 0 1 -4.49566,0 c -1.61439,-4.30499 -3.63968,-8.63149 -5.97928,-12.90384 -2.33964,-4.27239 -4.99224,-8.49204 -7.85299,-12.57885 -5.72155,-8.17364 -12.28002,-15.82398 -18.82789,-22.37186 a 2.4002385,2.4002376 0 0 1 2.16789,-4.04974 z" style="color:#000;fill:#ffd080;stroke-width:.999998;stroke-linecap:round;stroke-linejoin:round;-inkscape-stroke:none;fill-opacity:1"/></svg>