<svg xmlns="http://www.w3.org/2000/svg" xml:space="preserve" id="svg1" width="4608" height="3072" version="1.1" viewBox="0 0 1219.2 812.8"><defs id="defs1"><style id="style1">.cls-1{fill:#0283c0}.cls-2{fill:#fff}.cls-3{fill:#ef483f}</style></defs><path id="rect1" d="M 0 0 L 0 812.8 L 1219.2 812.8 L 1219.2 0 L 0 0 z" style="fill:#000;fill-rule:evenodd;stroke:none;stroke-width:8.46667;stroke-linecap:round;stroke-linejoin:round;fill-opacity:1"/><path id="path1" d="M 0 0 L 0 812.8 L 356.25939 575.29357 A 304.8 304.8 0 0 1 304.8 406.4 A 304.8 304.8 0 0 1 609.6 101.6 A 304.8 304.8 0 0 1 825.12638 190.87362 L 753.28425 262.71575 A 203.2 203.2 0 0 0 609.6 203.2 A 203.2 203.2 0 0 0 406.4 406.4 A 203.2 203.2 0 0 0 441.12656 518.71563 L 1219.2 0 L 0 0 z M 441.12656 518.71563 L 356.25939 575.29357 A 304.8 304.8 0 0 0 609.6 711.2 A 304.8 304.8 0 0 0 824.57706 621.37706 L 752.73752 549.53752 A 203.2 203.2 0 0 1 609.6 609.6 A 203.2 203.2 0 0 1 441.12656 518.71563 z" style="fill:#800020;stroke-width:4.23333;stroke-linecap:round;stroke-linejoin:round;stroke-miterlimit:128;fill-opacity:1"/></svg>