<svg xmlns="http://www.w3.org/2000/svg" xml:space="preserve" id="svg1" width="4608" height="3072" version="1.1" viewBox="0 0 1219.2 812.8"><defs id="defs1"><style id="style1">.cls-1{fill:#0283c0}.cls-2{fill:#fff}.cls-3{fill:#ef483f}</style></defs><path id="rect1" d="M 0 0 L 0 812.8 L 1219.2 812.8 L 1219.2 0 L 0 0 z" style="fill:#000;fill-rule:evenodd;stroke:none;stroke-width:8.46667;stroke-linecap:round;stroke-linejoin:round;fill-opacity:1"/><path id="path1" d="M 0,0 V 812.79994 L 1219.2,0 Z" style="fill:#b00020;stroke-width:4.23333;stroke-linecap:round;stroke-linejoin:round;stroke-miterlimit:128;fill-opacity:1"/><path id="path8" d="m 237.06666,33.866665 -10.13823,31.201873 h -32.80731 l 26.54171,19.283564 -10.13787,31.201538 26.5417,-19.283559 26.5417,19.283559 -10.13785,-31.201538 26.5417,-19.283564 h -32.8073 z m -88.83487,20.777714 c -8.5695,4.167089 -16.83531,8.931839 -24.73617,14.258924 l 14.86662,45.133497 c -8.96939,7.1992 -17.12624,15.35605 -24.32544,24.32549 L 68.903303,123.49562 c -5.327085,7.90086 -10.091835,16.16667 -14.258924,24.73617 l 35.485542,31.69248 c -4.265114,10.7065 -7.346399,21.84757 -9.188804,33.2241 l -46.049862,9.59361 c -0.510405,4.76127 -0.85194,9.53925 -1.02459,14.32468 0.1728,4.78544 0.51414,9.56342 1.02459,14.3247 l 46.049862,9.59353 c 1.842405,11.3766 4.92369,22.51766 9.188804,33.22416 l -35.485542,31.69248 c 4.167089,8.5695 8.931839,16.83531 14.258924,24.73617 L 114.0368,335.77103 c 7.1992,8.96943 15.35605,17.1263 24.32544,24.32549 l -14.86662,45.13318 c 7.9008,5.32714 16.16667,10.09204 24.73617,14.25924 l 31.69248,-35.48554 c 10.7065,4.26513 21.84757,7.3464 33.2241,9.1888 l 9.59361,46.04986 c 4.76127,0.51041 9.53925,0.85196 14.32468,1.02459 4.78545,-0.1728 9.56342,-0.51414 14.3247,-1.02459 l 9.59359,-46.04986 c 11.37654,-1.8424 22.5176,-4.92367 33.22412,-9.1888 l 31.69248,35.48554 c 8.56948,-4.1672 16.83529,-8.9321 24.73615,-14.25924 l -14.86667,-45.13318 c 8.96943,-7.19919 17.1263,-15.35606 24.32549,-24.32549 l 45.13349,14.86667 c 5.3271,-7.90086 10.09184,-16.16667 14.25894,-24.73617 L 384.0034,294.20905 c 4.26513,-10.7065 7.3464,-21.84756 9.1888,-33.22416 l 46.04986,-9.59353 c 0.51041,-4.76128 0.85196,-9.53926 1.02459,-14.3247 -0.1728,-4.78543 -0.51414,-9.56341 -1.02459,-14.32468 l -45.96479,-9.576 c -1.76363,-11.45777 -4.78262,-22.68684 -9.0024,-33.48428 l 35.21408,-31.44991 c -4.1671,-8.5695 -8.93184,-16.83531 -14.25894,-24.73617 l -44.85029,14.77367 C 353.13161,129.22308 344.91023,121.0017 335.86405,113.7536 L 350.6377,68.903303 C 342.73684,63.576218 334.47103,58.811468 325.90155,54.644379 l -34.68384,71.223561 c 42.50404,20.60635 69.85022,63.6392 70.02671,111.19872 0,68.58123 -55.59653,124.17776 -124.17776,124.17776 -68.58122,0 -124.17775,-55.59653 -124.17775,-124.17776 0.17653,-47.55952 27.52266,-90.59237 70.02672,-111.19872 z M 254.20671,157.89941 c -8.7777,-0.0592 -17.13396,2.24636 -24.08538,7.09451 8.71217,-4.55462 23.43792,0.53067 35.00149,12.08709 4.40853,4.40858 3.89483,11.09611 0,15.96458 -7.54848,9.43557 -15.10432,17.93579 -22.75829,26.00876 l -5.41536,-6.05238 c -4.40858,-4.40859 -8.4,-7.56518 -3.99146,-11.97377 4.40858,-4.40857 0.4176,-7.56522 -3.99115,-11.97375 l -39.91211,39.91211 c 4.40853,4.40859 7.56522,8.4 11.97377,3.99147 4.40847,-4.40849 7.56484,-0.4176 11.97343,3.99114 l 5.97621,5.34715 c -17.77903,16.85125 -36.57856,33.47274 -57.62681,54.52105 l 15.96457,15.96492 c 21.33787,-21.33792 38.12886,-40.36086 55.21969,-58.35547 L 288.83509,304.8 c 4.40843,4.40847 11.55632,4.40857 15.96491,0 4.40859,-4.40859 4.40859,-11.55638 0,-15.96491 l -50.45585,-56.39173 c 8.28305,-7.8864 17.0295,-15.6616 26.74358,-23.43286 4.40853,-4.40858 11.34747,-4.61712 17.96032,1.99573 6.61286,6.61286 6.40431,13.55211 1.99574,17.96064 l 3.99114,3.99116 c 2.20437,2.20437 5.77803,2.20431 7.98229,0 l 15.9649,-15.96491 c 2.20427,-2.20432 2.20464,-5.7783 3.8e-4,-7.98262 l -3.99151,-3.99114 c -4.40859,4.40859 -11.34743,4.61712 -17.96028,-1.99574 -6.61284,-6.61285 -6.40427,-13.55178 -1.99578,-17.96032 l -7.98261,-7.98265 c -12.41637,-12.41457 -28.21617,-19.0824 -42.84561,-19.18124 z m -70.58623,7.6967 c -3.71345,-0.003 -7.42491,0.0374 -11.13109,0.11145 1.6657,3.88603 3.29958,7.92427 3.12538,12.18565 0.0374,5.65782 -1.02949,11.21238 -2.2848,16.65702 -1.03035,2.22586 -4.96986,-2.5056 -4.49205,1.85935 -0.34293,6.26901 -0.3088,12.61893 0.49494,18.89462 0.46346,4.11562 4.84719,6.51264 8.64032,6.34069 3.83236,-0.0267 7.81487,0.0762 11.46319,-1.04214 0.0426,-2.1034 -5.72751,-4.51269 -2.44016,-6.16842 2.15163,0.25973 7.78176,-1.56981 3.58218,-3.46405 -2.31445,-1.7199 -1.7553,-5.14944 -2.19829,-7.6736 -0.1338,-3.18865 -0.36693,-6.41115 -0.0891,-9.57633 2.43172,-0.83674 5.05615,2.06688 7.45417,2.77739 2.61815,1.03233 6.55728,2.49418 8.58102,-0.0676 1.67274,-4.40684 1.58955,-9.31499 1.78938,-14.01809 0.4512,-2.28816 -1.43098,-7.57268 2.27307,-7.11103 3.48849,1.56336 5.15147,5.30688 7.2182,8.30404 1.53717,1.45425 2.69967,6.17846 4.93509,5.47392 1.87866,-3.24997 2.6281,-7.23744 2.04672,-11.03908 -0.0634,-4.1617 -3.48651,-7.58182 -7.22609,-9.02581 -6.52107,-2.75238 -13.70005,-2.97147 -20.59962,-3.26939 -3.71365,-0.097 -7.42896,-0.1446 -11.14245,-0.1482 z" style="display:inline;fill:#000;fill-opacity:1;stroke:none;stroke-width:33.8667;stroke-linejoin:bevel;stroke-miterlimit:128;stroke-dasharray:none;stroke-opacity:1;paint-order:stroke fill markers"/></svg>