<svg xmlns="http://www.w3.org/2000/svg" xml:space="preserve" id="svg1" width="4608" height="3072" version="1.1" viewBox="0 0 1219.2 812.8"><defs id="defs1"><style id="style1">.cls-1{fill:#0283c0}.cls-2{fill:#fff}.cls-3{fill:#ef483f}</style></defs><path id="rect1" d="M 0,0 V 812.8 H 1219.2 V 0 Z" style="display:inline;fill:#000;fill-opacity:1;fill-rule:evenodd;stroke:none;stroke-width:8.46667;stroke-linecap:round;stroke-linejoin:round"/><path id="path2" d="m 406.39998,406.39997 v 406.4 H 1219.2 v -406.4 z" style="fill:#fff;stroke-width:4.23333;stroke-linecap:round;stroke-linejoin:round;stroke-miterlimit:128;fill-opacity:1"/><path id="rect2" d="m 406.4,0 50.43775,155.23083 H 620.05724 L 488.00949,251.16917 538.44724,406.4 H 1219.2 V 0 Z m 0,0 -50.43775,155.23083 H 192.74276 L 324.79051,251.16917 274.35276,406.4 406.4,310.46219 Z m 0,310.46219 V 406.4 h 132.04724 z m 332.82723,177.61758 c -8.79192,2.44685 -13.83761,14.50515 -7.44709,21.85551 4.46013,5.24984 11.30086,8.38099 18.1808,8.36797 3.13019,0.90584 9.08558,1.57249 3.37086,-1.95027 -6.58049,-4.67667 -15.57278,-9.98592 -15.26316,-19.20451 -0.43476,-2.78988 4.52232,-7.21157 1.15859,-9.0687 z m 59.45994,28.04066 -7.39387,0.0424 c 8.63116,3.03232 18.45843,5.42894 23.55257,13.82448 5.73482,8.52509 9.07653,19.01718 17.62683,25.36331 5.42343,7.13324 -7.12845,0.84815 -9.09557,-1.68775 -7.6443,-5.38378 -13.23119,-12.89811 -18.91202,-20.16983 -7.6336,-9.45938 -20.80117,-8.44446 -31.72003,-8.5261 -11.64467,-0.26217 -23.60018,1.57878 -35.01492,-1.3255 -4.28863,-1.62548 -8.1339,-4.1826 -12.17703,-6.31692 2.60163,6.68206 5.57611,14.47063 13.20229,16.63877 12.98357,4.25444 27.03646,1.53042 40.13244,4.92322 10.96173,5.04474 17.90291,15.675 27.48514,22.6813 13.81872,10.57852 31.75595,11.81347 48.45699,13.01471 6.05597,1.06295 -6.28924,2.16076 -8.24032,2.389 -13.04254,0.4847 -26.78707,0.14816 -38.89582,-5.23586 -14.67866,-6.6887 -27.50062,-19.0415 -44.48049,-19.36832 -15.65191,-0.69129 -31.2852,0.92826 -46.91858,1.53169 -4.65388,-4.16713 -9.30719,-8.33472 -13.96039,-12.5026 2.60958,7.29786 6.08393,14.85025 13.40332,18.526 10.93905,6.39616 23.91682,6.54613 36.1859,7.07141 18.87994,2.92045 35.85998,12.62092 54.5853,16.25947 20.95299,5.0498 43.19118,5.34952 63.92168,-0.93483 3.3915,-0.81809 9.80946,-2.577 10.16476,-6.24355 0.14173,0.14698 0.26367,0.24333 0.33486,0.21756 0.28959,-0.10481 4.79275,-6.62056 10.19628,-14.904 10.39782,5.90787 26.65717,8.27742 22.82754,16.6393 -14.12283,13.29515 -28.50715,21.62796 -45.96308,28.20964 -26.43493,-8.69906 -53.94882,-16.73337 -81.98673,-15.00218 -28.08972,-4.52896 -59.55115,0.41412 -80.7067,20.65094 -24.15608,14.10652 -57.44298,26.80365 -82.9939,9.09453 -17.87,-14.26366 -20.48092,-44.39062 -1.80816,-59.1876 14.64443,-14.05307 45.17864,-12.60773 53.52076,7.54838 8.5991,17.29116 -20.60294,19.25135 -20.11401,24.72148 17.79471,5.30212 35.85834,-16.42764 24.89667,-32.54943 -18.84707,-30.2409 -70.96059,-19.08865 -79.28405,14.488 -10.02531,28.41122 11.58063,62.19597 41.73698,64.68443 19.85012,2.95387 41.15812,-0.96074 57.78976,-12.46953 -13.80707,17.58083 -30.04388,34.30666 -53.65099,35.27589 -24.85233,4.92074 -19.47128,-38.32657 -43.06869,-21.11758 -17.35493,10.02125 -34.69307,19.87341 -54.40856,20.23856 -21.25159,19.8985 19.70771,18.97784 27.83809,5.55367 17.85489,-19.03356 41.73757,-8.46441 58.78918,5.2126 9.19496,3.81023 18.86761,7.13029 3.01222,8.58139 -20.29835,8.68303 -28.01758,-30.01999 -43.94719,-6.3252 -13.01234,15.26668 -26.06233,30.37222 -44.5301,37.34191 -13.39505,25.89084 24.91562,11.25356 28.08666,-4.11396 9.66285,-21.69685 33.705,-23.42592 53.18228,-15.29364 19.88232,3.95951 41.06232,3.99406 60.81334,-0.29352 20.02575,-9.45552 42.35377,-14.32432 60.58028,-27.73113 10.3111,-7.78777 21.43614,-16.79312 30.54698,-19.36522 7.28602,-18.1313 27.90993,8.33718 35.52599,17.78341 22.10497,25.99952 55.36873,50.06026 91.24301,39.88593 16.38824,-8.10725 34.31702,-0.30461 51.74775,-3.67471 23.79823,-2.31704 48.70828,-9.7998 72.15068,-1.80867 12.8327,6.45789 22.7933,45.72447 38.3697,28.36002 -16.6489,-10.96831 -22.2618,-36.15004 -42.1463,-42.04756 -21.8337,-2.81382 -43.90159,-4.80746 -65.94839,-5.98775 25.29601,-1.94071 50.40049,-10.39399 75.79589,-7.89771 15.9099,2.67729 29.6135,31.42526 44.7099,16.34681 -16.6183,-7.65209 -32.0171,-25.25254 -50.9426,-29.39149 -25.0851,0.53158 -50.12584,-2.96289 -75.21556,-1.63297 -15.13506,-8.16636 -2.06627,-25.82795 -5.54643,-39.06015 10.32043,-16.38603 16.52064,-42.06209 8.01347,-55.52064 7.79917,2.23522 39.46936,22.59718 22.10201,2.78019 -4.22182,-9.29063 -32.52158,-21.98598 -7.89306,-11.32024 11.68746,-0.72295 -15.27326,-12.84285 -21.0473,-13.30875 -11.41995,1.67407 -20.32824,2.14598 -33.04501,0.4594 -3.65923,5.28547 -10.54047,3.66346 -17.1881,2.30684 5.33396,-9.0252 9.05402,-16.37717 7.21662,-16.55971 -2.22921,-0.22147 -9.42151,7.25177 -16.65945,15.53342 -13.85839,-4.92865 -22.49619,4.12271 -10.943,12.99714 -3.59715,4.4031 -6.30499,7.81676 -6.75566,8.39897 -6.80738,-3.42388 -14.89641,2.6822 -21.53926,-1.94562 -7.77153,-5.99206 -8.63805,-16.82104 -14.79496,-24.12721 -9.2281,-13.03282 -24.84356,-20.91057 -40.80784,-20.62872 z" style="display:inline;fill:#ff8000;fill-opacity:1;stroke:none;stroke-width:4.23333;stroke-linecap:round;stroke-linejoin:round;stroke-miterlimit:128"/></svg>