<svg xmlns="http://www.w3.org/2000/svg" xml:space="preserve" id="svg1" width="4608" height="3072" version="1.1" viewBox="0 0 1219.2 812.8"><defs id="defs1"><style id="style1">.cls-1{fill:#0283c0}.cls-2{fill:#fff}.cls-3{fill:#ef483f}.st0{fill:#000}</style></defs><path id="rect1" d="M 0 0 L 0 812.8 L 1219.2 812.8 L 1219.2 0 L 0 0 z" style="fill:#203050;fill-rule:evenodd;stroke:none;stroke-width:8.46667;stroke-linecap:round;stroke-linejoin:round;fill-opacity:1"/><path id="path10" d="m 609.50952,101.6 c -3.22421,0 -43.05591,41.04432 -52.09916,53.68509 -15.73591,21.99601 -27.82396,50.21014 -31.11204,72.61651 -0.92079,6.27404 -1.22085,16.4673 -0.8046,27.44019 0.7573,19.95881 3.11373,29.99016 14.74793,62.79387 11.98309,33.78747 19.4751,66.67407 24.052,105.58192 1.04207,8.8583 2.1848,18.38903 2.5394,21.17777 l 0.64413,5.06947 h 42.03234 42.0323 l 0.64418,-5.06947 c 0.3546,-2.78874 1.49728,-12.31947 2.53935,-21.17777 4.57776,-38.91501 12.07183,-71.80736 24.05435,-105.58192 3.72472,-10.49869 8.50535,-25.26369 10.6226,-32.80965 3.71345,-13.23459 3.8457,-14.52028 3.8277,-36.38614 -0.018,-19.35905 -0.39735,-24.06083 -2.60217,-32.21199 -6.25091,-23.1117 -15.64257,-42.77831 -30.00982,-62.83572 C 652.41446,142.43957 612.49896,101.6 609.50952,101.6 Z m 170.08264,156.86255 c -15.18512,-0.10035 -30.71758,2.15717 -42.58579,6.55308 l -6.68097,2.47428 -0.80923,6.23447 c -1.39005,10.69353 -6.21541,27.84245 -16.18507,57.53373 -5.28786,15.74801 -11.2662,35.88088 -13.28526,44.73913 -3.44561,15.11672 -8.63294,47.79176 -10.46448,65.91456 l -0.81392,8.05532 21.53129,-0.0405 21.53125,-0.0405 5.42524,-5.39964 c 10.9278,-10.87668 30.28841,-21.62075 48.28541,-26.79607 12.73657,-3.66253 39.16361,-4.56483 52.91302,-1.80682 14.82503,2.97376 23.42779,6.56963 50.2551,21.00104 13.37265,7.19356 24.62659,13.07826 25.00774,13.07826 0.38115,0 0.68816,-18.92331 0.68366,-42.05326 -0.0113,-47.12487 -0.78007,-53.25977 -8.88075,-70.61662 -16.9146,-36.24175 -56.26305,-66.21913 -99.83349,-76.05814 -7.99668,-1.80581 -16.98268,-2.71409 -26.09375,-2.77425 z m -338.20494,0.21375 c -9.83358,0.018 -19.71645,0.69624 -25.70775,2.02779 -29.03427,6.45278 -53.2989,19.23758 -74.37685,39.18599 -12.25482,11.59804 -21.34981,23.7633 -27.64486,36.97678 -8.12538,17.05553 -8.28662,18.2987 -8.75529,68.06097 -0.2331,24.77034 -0.0558,45.03681 0.39555,45.03681 0.45094,0 11.73375,-5.87947 25.07292,-13.06665 37.70065,-20.31326 48.46646,-23.43702 77.16272,-22.39631 19.25165,0.69822 28.80519,2.90372 44.91587,10.3738 11.47552,5.32084 17.89585,9.52303 28.35409,18.55233 l 7.57395,6.53683 h 20.79644 c 15.84028,0 20.79606,-0.3546 20.78706,-1.49062 -0.027,-3.78185 -3.9157,-34.06373 -6.16471,-48.02031 -3.54826,-22.01958 -9.30457,-43.74447 -19.59881,-73.96758 -8.11373,-23.82126 -15.20141,-50.13145 -15.20141,-56.42911 0,-2.83594 -7.97454,-6.23011 -22.19631,-9.44594 -5.79357,-1.31013 -15.5788,-1.95269 -25.41238,-1.93478 z m 41.58351,228.27214 v 19.68484 19.68485 h 126.53879 126.5388 v -19.68485 -19.68484 h -126.5388 z m -75.23961,65.90295 c -21.16696,-1.29483 -37.9251,13.69509 -39.02787,34.90947 -0.58099,11.17652 2.49233,19.03158 11.53183,29.48428 9.74147,11.26436 21.81142,20.42244 35.85133,27.20065 12.32209,5.94886 22.0452,8.94253 34.91416,10.7505 17.47691,2.45538 42.81638,-1.32017 59.05454,-8.79944 l 8.40181,-3.86954 0.1071,-22.01494 c 0.12015,-24.90702 1.96259,-35.43535 9.64594,-55.12221 0.75319,-1.92987 -0.51759,-2.08593 -16.78969,-2.08593 -11.18862,0 -17.60359,0.44325 -17.60359,1.21855 0,0.67082 -2.17967,3.5638 -4.84619,6.42752 -6.51267,6.99449 -15.1822,10.65213 -25.36359,10.70163 -11.00739,0.0535 -19.35615,-4.10634 -28.15639,-14.02934 -8.82761,-9.9538 -16.59012,-14.09039 -27.71925,-14.7712 z m 403.5568,0 c -11.22327,0.68657 -18.87858,4.80408 -27.94482,15.02698 -8.77834,9.89825 -16.71225,13.7984 -28.01224,13.7759 -5.29654,-0.009 -9.63724,-0.81751 -13.40383,-2.48823 -6.31885,-2.80278 -15.05286,-10.13905 -16.15253,-13.56893 -0.68058,-2.12274 -2.02667,-2.29518 -18.12681,-2.29518 -9.56624,0 -17.39426,0.25785 -17.39426,0.57204 0,0.3141 1.31738,4.47492 2.9277,9.24596 5.31999,15.76193 7.22574,27.76676 7.24374,45.65998 0.009,9.18635 -0.3663,18.10697 -0.83947,19.82439 -0.81509,2.95943 -0.37305,3.34332 8.48785,7.35304 9.81549,4.44172 19.90365,7.39885 31.36789,9.19476 9.76113,1.52914 29.23906,0.3825 41.20443,-2.42541 21.03705,-4.93659 43.66998,-18.7487 58.14063,-35.48155 9.1647,-10.59755 12.16317,-18.3443 11.45982,-29.60983 -1.33459,-21.37652 -17.80144,-36.07812 -38.9581,-34.78392 z m -241.24345,10.4203 -4.28112,8.66456 c -23.36017,47.27872 -8.58393,103.2585 35.31178,133.7779 4.30834,2.99544 8.10274,5.46324 8.43439,5.48574 0.33165,0.0225 5.28475,-3.43926 11.00628,-7.69024 15.85405,-11.7792 27.39839,-26.17286 34.76998,-43.35085 6.41907,-14.95827 7.73991,-21.97241 7.79256,-41.38118 0.0558,-20.48077 -2.03814,-30.16612 -9.94127,-45.96468 l -4.46017,-8.91336 -39.31624,-0.3141 z" style="fill:#ffd080;fill-opacity:1;stroke-width:.999999"/></svg>