<svg xmlns="http://www.w3.org/2000/svg" xml:space="preserve" id="svg1" width="4608" height="3072" version="1.1" viewBox="0 0 1219.2 812.8"><defs id="defs1"><style id="style1">.cls-1{fill:#0283c0}.cls-2{fill:#fff}.cls-3{fill:#ef483f}</style></defs><path id="rect1" d="M 0 0 L 0 812.8 L 1219.2 812.8 L 1219.2 0 L 0 0 z" style="fill:#000;fill-rule:evenodd;stroke:none;stroke-width:8.46667;stroke-linecap:round;stroke-linejoin:round;fill-opacity:1"/><path id="path1" d="M 0 0 L 609.6 812.8 L 1219.2 0 L 0 0 z" style="fill:#ffd000;stroke-width:4.23333;stroke-linecap:round;stroke-linejoin:round;stroke-miterlimit:128;fill-opacity:1"/><path id="rect7" d="m 575.73333,101.6 10e-6,50.8 C 510.26919,152.4 457.2,205.46918 457.2,270.93333 c 0,65.46415 53.06919,118.53333 118.53334,118.53333 v 101.6 c -28.05606,0 -50.8,-22.74393 -50.8,-50.8 H 457.2 C 457.2,505.73082 510.26919,558.8 575.73334,558.8 l -10e-6,50.8 h 67.73334 l -10e-6,-50.8 C 708.93081,558.8 762,505.73082 762,440.26666 762,374.80251 708.93081,321.73333 643.46666,321.73333 v -101.6 c 28.05606,0 50.8,22.74393 50.8,50.8 H 762 C 762,205.46918 708.93081,152.4 643.46666,152.4 l 10e-6,-50.8 z m 10e-6,118.53333 v 101.6 c -28.05606,0 -50.8,-22.74393 -50.8,-50.8 0,-28.05607 22.74394,-50.8 50.8,-50.8 z m 67.73332,169.33333 c 28.05606,0 50.8,22.74393 50.8,50.8 0,28.05607 -22.74394,50.8 -50.8,50.8 z" style="fill:#008040;fill-opacity:1;stroke:none;stroke-width:67.7333;stroke-linecap:butt;stroke-linejoin:miter;stroke-miterlimit:128;stroke-dasharray:none;stroke-opacity:1"/></svg>