<svg xmlns="http://www.w3.org/2000/svg" xml:space="preserve" id="svg1" width="4608" height="3072" version="1.1" viewBox="0 0 1219.2 812.8"><defs id="defs1"><style id="style1">.cls-1{fill:#0283c0}.cls-2{fill:#fff}.cls-3{fill:#ef483f}</style></defs><path id="rect1" d="M 1219.2,0 V 812.8 H 0 V 0 Z" style="fill:#000;fill-opacity:1;fill-rule:evenodd;stroke:none;stroke-width:8.46667;stroke-linecap:round;stroke-linejoin:round"/><path id="path5" d="m 812.80103,101.59948 v 67.73437 h 87.56985 l -74.258,74.258 C 774.94348,175.52853 694.75235,135.48158 609.6,135.46667 459.96764,135.46665 338.66665,256.76764 338.66667,406.4 c 0.20352,34.71628 7.0773,69.06993 20.24734,101.19176 l -87.98068,87.98119 47.89475,47.89372 74.72413,-74.72464 C 444.5259,636.85039 524.52948,677.0623 609.6,677.33333 759.23236,677.33335 880.53335,556.03236 880.53333,406.4 c -0.0156,-34.83046 -6.747,-69.33119 -19.82566,-101.61292 l 87.56003,-87.56055 v 87.5745 H 1016 V 101.59948 Z M 609.6,203.2 c 67.2551,0.0292 130.13883,33.3341 167.95254,88.95219 L 652.74414,416.96111 585.01184,281.49393 412.6606,453.84517 C 408.71218,438.33192 406.61075,422.40645 406.4,406.4 c -2e-5,-112.22427 90.97573,-203.20002 203.2,-203.2 z m 197.40914,155.28561 c 3.8269,15.6847 5.77089,31.76959 5.79086,47.91439 2e-5,112.22427 -90.97573,203.20002 -203.2,203.2 -67.21618,-0.16021 -130.00395,-33.54953 -167.71741,-89.18887 L 566.45483,395.83785 634.1892,531.30659 Z" style="fill:#b00020;fill-opacity:1;stroke:none;stroke-width:67.7333;stroke-linecap:butt;stroke-linejoin:bevel;stroke-miterlimit:128;stroke-dasharray:none;stroke-opacity:1"/></svg>