<svg xmlns="http://www.w3.org/2000/svg" xml:space="preserve" id="svg1" width="4608" height="3072" version="1.1" viewBox="0 0 1219.2 812.8"><defs id="defs1"><style id="style1">.cls-1{fill:#0283c0}.cls-2{fill:#fff}.cls-3{fill:#ef483f}</style></defs><path id="rect1" d="M 0 0 L 0 812.8 L 1219.2 812.8 L 1219.2 0 L 0 0 z" style="fill:#000;fill-rule:evenodd;stroke:none;stroke-width:8.46667;stroke-linecap:round;stroke-linejoin:round;fill-opacity:1"/><path id="path4" d="M 307.2598 135.4677 C 249.27243 135.56359 191.83828 141.18585 135.46667 152.52867 C 246.13572 180.13975 342.51919 213.86475 430.24919 256.77554 C 340.18424 302.30789 252.21347 360.11832 168.36337 429.65078 C 143.60798 457.08191 133.17444 488.56684 135.88473 520.60802 C 137.54096 540.19274 144.06431 559.92886 155.11508 579.04993 C 181.61577 624.87761 234.63634 663.17558 301.46119 677.33333 C 404.80839 546.41759 502.80855 445.38706 609.6 365.97663 C 716.39145 445.38706 814.39161 546.41759 917.73881 677.33333 C 984.56366 663.17558 1037.5841 624.87761 1064.0849 579.04993 C 1075.1356 559.92886 1081.659 540.19274 1083.3153 520.60802 C 1086.0256 488.56684 1075.592 457.08191 1050.8366 429.65078 C 966.98654 360.11832 879.01575 302.30789 788.95081 256.77554 C 876.68081 213.86475 973.06428 180.13975 1083.7333 152.52867 C 930.14139 121.62363 768.66809 133.28702 609.6 183.37847 C 508.9134 151.67168 407.26671 135.30233 307.2598 135.4677 z" style="fill:#ffd000;fill-opacity:1;stroke-width:.413412"/></svg>