<svg xmlns="http://www.w3.org/2000/svg" xml:space="preserve" id="svg1" width="4608" height="3072" version="1.1" viewBox="0 0 1219.2 812.8"><defs id="defs1"><style id="style1">.cls-1{fill:#0283c0}.cls-2{fill:#fff}.cls-3{fill:#ef483f}</style></defs><path id="rect1" d="M 0 0 L 0 812.8 L 1219.2 812.8 L 1219.2 0 L 0 0 z" style="fill:#b00020;fill-rule:evenodd;stroke:none;stroke-width:8.46667;stroke-linecap:round;stroke-linejoin:round;fill-opacity:1"/><path id="path1" d="m 566.77471,73.140755 v 0.0016 l 0.016,0.01188 c -1.93177,0.06103 -4.65257,0.611304 -7.136,2.022616 -2.48587,1.426608 -7.34175,1.423851 -11.52333,1.757515 -4.18281,0.312141 -8.33217,1.568081 -11.06754,2.795695 -2.7308,1.242913 -4.81351,1.808783 -7.02748,3.462838 -2.21034,1.659292 -5.12495,3.837365 -9.00927,6.275069 -3.88489,2.433829 -5.52016,4.645841 -8.40827,6.674011 -2.88691,2.029695 -5.11924,1.310511 -10.25571,6.645581 -5.13275,5.34738 -10.78828,13.26422 -13.0023,21.17184 -2.21339,7.90762 -5.6192,19.95523 -2.61845,30.10255 0.65821,2.17975 1.85612,3.36958 2.48667,5.22449 1.31643,3.86469 -1.58665,3.98001 -4.33823,3.437 -2.7522,-0.5327 -14.62412,0.15199 -16.44138,-0.43873 -4.38909,-1.445 -7.85724,-5.1304 -14.19345,-5.26325 -6.33616,-0.12247 -7.77794,1.77297 -12.72118,3.07682 -2.96913,0.78147 -5.84523,0.5042 -8.49974,0.0165 l 0.11885,-0.15347 c 1.96574,-5.90944 0.23541,-11.66403 -2.64221,-14.86473 -2.87895,-3.20836 -9.22353,-3.67946 -15.48898,-1.66812 l -9.00255,11.94088 c -1.04144,-0.13979 -2.08482,-0.27507 -3.22823,-0.29404 -5.8534,-0.0919 -6.31775,-1.37729 -9.99112,-0.49868 -3.67308,0.87243 -4.36559,1.06287 -8.06979,3.26699 -1.85218,1.10209 -1.87516,3.46962 -3.70313,5.31595 -1.82765,1.84604 -7.20243,3.58819 -8.63824,3.66748 -2.86851,0.15298 -7.63641,0.15349 -11.79411,4.82813 -4.1586,4.66251 -3.92574,13.32327 -6.1774,16.8956 -2.25014,3.57411 -7.59043,2.78877 -8.8961,10.65414 -1.31029,7.90547 6.93456,11.978 6.30298,15.1138 -0.31832,1.56743 -0.91517,2.13394 -3.4029,2.51664 -2.48891,0.38553 -5.22085,-0.27393 -7.31945,1.07591 -5.26684,3.38653 -6.36821,-0.18452 -13.88029,4.15065 -6.98176,4.02235 -6.02882,11.12488 -8.18864,14.14435 -2.15831,3.01853 -8.29862,6.71069 -8.30596,13.21987 -0.0165,6.50847 3.32907,9.8587 6.94428,14.24874 1.22469,1.71352 2.08321,3.24687 3.04684,4.84983 l -28.51867,37.83025 c -4.67703,-0.0581 -9.24371,0.18645 -12.2716,0.34314 -4.72896,0.27544 -47.10111,-5.15479 -52.01956,-2.33526 -4.91847,2.822 -31.33971,49.63881 -31.18673,56.73297 0.1505,7.09511 10.38491,20.11477 15.12672,22.71696 4.74211,2.60528 7.20993,2.87929 10.90993,3.3538 8.12192,1.06854 15.3187,0.31066 23.36654,0.97823 4.73566,0.39214 8.3376,3.7774 12.40957,5.82549 1.87874,0.93494 11.48685,3.3422 14.44718,3.96978 8.08243,1.71129 12.22452,0.6191 18.66605,0.74156 6.44118,0.14391 14.01659,0.91165 18.04386,-0.61598 l -0.002,-0.0165 c 1.49947,-0.57459 5.1779,-3.32226 7.55354,-3.2303 2.37565,0.10102 13.15391,0.19569 18.71101,-2.52904 1.43273,-0.70188 2.73005,-1.93607 3.97443,-3.53984 A 270.93329,270.93329 0 0 0 338.66667,406.4 270.93329,270.93329 0 0 0 609.6,677.33333 270.93329,270.93329 0 0 0 880.53333,406.4 270.93329,270.93329 0 0 0 685.954,146.49803 c -2.84871,-2.73189 -5.75651,-5.2182 -9.95754,-7.22074 -6.56275,-3.13761 -12.16066,-3.48195 -21.94336,-3.15588 -8.05755,0.28734 -12.20102,0.68574 -14.61978,1.0542 a 270.93329,270.93329 0 0 0 -22.83116,-1.53686 c -1.43239,-1.66253 -2.38197,-5.27679 -2.40606,-7.24142 -0.0289,-1.99605 3.28873,-3.15709 3.03651,-6.08593 -0.27545,-2.92975 -4.09419,-4.53105 -7.06159,-5.72317 -2.9695,-1.18782 -6.4976,-3.41244 -7.33185,-5.08392 -1.34699,-2.64813 -2.66816,-6.55263 -3.63337,-9.38445 -0.68881,-2.04498 -1.08218,-4.459256 -2.62516,-6.023917 -0.61838,-0.630671 -1.88203,-1.136836 -2.40554,-2.183846 -0.81433,-1.625521 0.33367,-2.571203 0.9462,-3.965649 0.61229,-1.392962 -1.37871,-4.479252 -2.26343,-6.275069 -0.897,-1.787859 -4.64166,-3.019231 -7.81968,-4.148584 -3.17745,-1.126591 -8.07961,-4.289808 -11.45356,-5.156792 -3.37677,-0.884755 -4.87757,-1.30483 -6.80992,-1.225248 z M 704.08312,189.02515 A 237.06664,237.06664 0 0 1 846.66667,406.4 237.06664,237.06664 0 0 1 804.02069,541.91834 c -5.36709,-1.25979 -15.38179,-1.94702 -16.5747,-6.12314 -0.68881,-2.43077 -2.89274,-26.75207 -4.14238,-51.31883 -1.24906,-24.56651 -2.3241,-49.22291 -3.30316,-51.48471 -1.95927,-4.52686 -8.32442,-7.96206 -13.09377,-11.1802 -3.76433,-2.54095 -11.69612,-5.38554 -13.26844,-8.27856 -1.56437,-2.8961 -2.85616,-9.87165 -2.85306,-13.24932 0.0124,-3.37796 0.76623,-7.51468 -0.69711,-9.28419 -1.46335,-1.76642 -2.60471,-4.39637 -2.74247,-6.3624 -0.15298,-1.96541 -1.36263,-6.4857 -0.0615,-11.05049 1.29499,-4.55964 5.73739,-5.849 6.28386,-9.27747 0.548,-3.42757 -0.0913,-23.34962 -2.01383,-25.63616 -1.91647,-2.28687 -3.52224,-5.21852 -3.85041,-7.67499 -0.34595,-2.45526 -1.28282,-9.12641 0.47749,-12.3057 1.76336,-3.17468 2.5162,-5.65791 4.05918,-7.1081 1.52149,-1.44496 0.42442,-4.15369 0.0289,-5.60017 -0.38265,-1.44195 -2.40303,-1.83996 -3.01532,-3.62872 -0.8664,-2.51647 0.27732,-6.23572 -0.95653,-8.7173 -1.2919,-2.59299 -2.37604,-4.2072 -3.08354,-7.08277 -0.71634,-2.87466 -0.63841,-7.75832 -0.81597,-12.83384 -0.1839,-5.07548 -0.492,-8.59117 -1.38286,-12.74858 -1.43272,-6.64417 -7.27517,-9.27926 -11.3254,-13.3904 -1.25215,-1.27663 -0.64667,-6.49557 -1.26814,-8.31835 -1.02863,-3.06141 -5.04389,-4.2894 -6.70347,-6.80372 -2.08174,-3.15295 -0.82257,-7.25372 -1.57872,-10.79727 -0.99192,-4.57989 -3.48301,-9.71803 -6.73757,-14.25288 -3.2555,-4.53457 -7.72035,-10.84315 -11.70264,-13.01523 -0.0405,-1.88099 0.13407,-3.62735 0.38395,-5.3697 z M 411.9454,221.87276 a 270.93329,270.93329 0 0 0 -18.36477,22.14749 c -1.7419,-3.68301 -4.55359,-8.60356 -7.63623,-11.35073 -1.5005,-1.33627 -4.06293,-3.16624 -5.6379,-4.83485 l 1.7663,-2.26704 c 1.38393,0.21854 2.91253,0.40219 3.9548,-0.1788 4.36651,-2.43383 13.09204,-2.20765 16.65428,-2.85358 1.58617,-0.28903 5.32234,-0.35462 9.26352,-0.66249 z m 48.71899,0.92811 c -0.26318,0.57672 -0.54946,1.13942 -0.76791,1.72496 -0.93988,2.51951 -2.71851,4.64327 -3.71192,7.31893 -0.5388,1.4542 -0.56947,3.15815 -1.45728,4.49017 -2.85936,4.29355 -5.71333,9.62528 -6.9143,14.89211 -2.12462,9.30607 -3.37288,18.90649 -3.68453,28.47217 -0.15298,4.24861 0.34486,8.5666 0.0599,12.80387 -0.15298,2.41853 -1.78976,5.1729 -2.85512,6.9081 -0.5266,0.86946 -0.45916,5.58598 -0.72244,7.34477 -0.24493,1.75726 -2.48105,2.40074 -4.4235,1.14257 -3.23806,-2.08787 -7.23848,-5.51206 -10.3048,-10.15132 -3.06322,-4.63926 -8.9993,-15.31872 -9.95081,-17.60926 -0.68592,-1.65197 -1.54514,-4.21601 -2.34405,-6.19342 a 237.06664,237.06664 0 0 1 47.07672,-51.14365 z m -111.00201,57.35567 c 4.22637,-0.1454 8.3036,0.15163 9.85728,1.80764 2.92083,3.11461 3.55136,6.55805 4.73459,9.86452 a 270.93329,270.93329 0 0 0 -12.11192,31.53451 c -3.15114,-4.71666 -6.95878,-9.02578 -8.88111,-10.31875 -2.38406,-1.59847 -22.228,-1.34366 -27.31926,-2.54455 L 338.908,281.003 c 2.15224,-0.11339 6.528,-0.70105 10.75438,-0.84646 z m 30.36094,70.11665 c 2.342,11.03161 5.37105,24.82339 6.84712,29.15068 1.80316,5.28856 4.81158,18.81976 7.9866,23.61975 3.16914,4.80081 3.33997,9.31604 6.7908,12.81523 3.45052,3.501 6.45937,6.08004 10.43708,10.78177 1.35008,1.59191 4.71965,3.49146 11.54659,10.58386 6.82685,7.10059 12.60756,6.78408 16.37522,6.64817 3.76552,-0.15298 11.91026,-4.77979 16.16439,-6.73758 4.25629,-1.95926 7.37741,-6.37829 11.92847,-8.94984 4.66376,-2.63587 11.47619,5.19678 15.9706,1.61954 2.43383,-1.94092 2.82674,-4.51768 10.16217,-8.99221 7.3351,-4.47424 9.59825,-7.12491 10.58127,-9.36894 1.91952,-4.37995 -0.36658,-9.97442 0.5395,-14.35313 1.4664,-7.0801 5.28807,-9.64481 6.54999,-17.48782 0.45613,-2.83487 -1.35346,-18.71519 -0.5116,-19.65875 1.76032,-1.97152 7.67353,2.62714 9.91723,4.85397 2.24404,2.22874 8.63091,3.51391 9.87381,7.67705 1.23681,4.16288 4.33092,24.10138 7.03627,29.48244 2.69096,5.38613 9.84263,4.7417 14.50454,6.71845 4.6628,1.97156 8.67703,1.83002 10.33632,4.33152 1.66235,2.49811 0.12297,8.14603 0.15348,9.85521 0.0289,1.21232 0.59616,4.04642 0.12144,5.1077 -2.71233,6.19538 -15.38951,2.67954 -20.03392,6.17068 -4.64723,3.49062 -3.84456,11.93034 -3.6866,18.00355 0.24493,3.14804 -1.57793,6.28422 -3.87366,7.15306 -2.29607,0.87556 -9.63404,5.1409 -15.00529,7.43882 -5.37124,2.29603 -12.72389,6.91053 -14.50041,8.9023 -3.18783,3.57604 -2.11663,26.30498 -3.61786,29.69948 -0.83272,1.90422 -3.37793,3.78894 -4.3,4.82399 -1.84901,2.0725 1.54198,12.13642 0.7307,14.93087 -0.70097,2.46133 -1.3049,5.08372 -1.99677,7.52151 -0.66432,2.33281 -8.40921,13.56376 -21.96869,28.29543 l 0.002,0.0248 c -8.01225,8.70484 -16.55552,16.75201 -21.71547,22.83375 A 237.06664,237.06664 0 0 1 372.53333,406.4 237.06664,237.06664 0 0 1 380.02332,350.27319 Z M 803.1856,543.13326 a 237.06664,237.06664 0 0 1 -3.35793,4.64829 c 1.12233,-1.54747 2.27463,-3.07307 3.35793,-4.64829 z m -232.71086,59.19277 c 8.39468,0.7194 11.49464,5.00551 11.83907,11.23549 0.24493,4.67629 3.42182,9.89038 7.67292,14.20636 2.96749,3.00978 3.29006,8.71476 2.75745,14.37225 a 237.06664,237.06664 0 0 1 -50.9173,-8.95966 c 8.01999,-14.42527 21.52912,-31.4668 28.64786,-30.85444 z" style="display:inline;fill:#000;fill-opacity:1;stroke:none;stroke-width:67.7333;stroke-miterlimit:128"/><path id="path3531" d="m 569.13839,87.156954 0.001,0.0015 c -3.71728,-0.10061 -9.16445,1.577938 -11.25254,3.916557 -2.80424,3.148659 -2.28271,12.011509 -1.40405,16.100309 0.34595,1.67154 -0.21593,3.36617 0.21291,5.06067 0.53575,2.06644 0.70585,13.44794 0.40307,15.37633 -0.30595,1.95011 0.27389,3.97378 -0.12402,5.8446 -1.4603,7.04212 -1.82403,5.77093 -6.71432,8.53385 -1.05617,0.60003 -4.03319,0.3307 -4.69842,1.86448 -0.82966,1.89498 1.36013,5.55756 0.062,5.99654 -1.27966,0.4684 -2.48954,0.67137 -3.56929,0.1235 l 0.0372,-0.008 c -0.73475,-0.36121 -3.33542,-9.51868 -7.12515,-11.0696 -3.7894,-1.54907 -9.70076,1.85263 -8.3106,7.15563 0.75309,2.83483 4.58216,8.20419 7.27035,9.2754 3.81055,1.51539 10.08791,0.83778 15.43162,0.84388 5.34399,0.0124 8.7584,0.62985 14.0932,0.90537 5.33604,0.30596 7.17329,0.85819 13.30926,1.57458 6.13605,0.71331 8.12472,0.80221 9.74204,0.18345 4.05758,-1.54907 3.13703,-12.65454 7.44503,-15.56132 0.77758,-0.52351 1.69824,-1.11241 2.5187,-1.42162 1.67154,-0.62758 2.70096,-0.21411 5.2462,-3.31143 2.54095,-3.12235 -0.41311,-5.71234 -1.52136,-7.85378 -0.32739,-0.69496 -0.51884,-1.73125 -0.80357,-2.50579 -0.76839,-2.25013 1.45863,-3.60209 3.26027,-2.19935 1.70824,1.32864 4.86215,0.18337 5.76192,-1.91358 0.46227,-1.05312 -0.24516,-2.59013 -0.82062,-3.48557 -3.15815,-4.78264 -7.87702,-5.64535 -12.97027,-5.28443 -5.09296,0.35832 -9.48527,1.23646 -14.15056,1.34668 -1.91947,0.061 -5.78705,1.25241 -6.86986,-0.90588 -1.77561,-3.54327 1.99356,-4.64116 3.13211,-5.91747 1.13884,-1.27966 -0.33414,-2.27436 -1.92598,-3.65198 -1.6103,-1.37457 -2.69704,-1.68083 -1.68982,-5.21828 0.44083,-1.539923 4.84974,-2.191838 5.75314,-3.268537 0.90309,-1.077605 0.57226,-2.838423 0.54777,-3.697449 -0.0289,-2.048084 -5.24149,-5.950417 -8.80463,-6.673494 -0.44557,-0.0903 -0.94173,-0.141114 -1.47278,-0.155546 z M 421.60372,147.07888 v 5.1e-4 a 6.7419931,4.6484229 39.275198 0 0 -3.36465,1.62368 6.7419931,4.6484229 39.275198 0 0 2.93832,7.89461 6.7419931,4.6484229 39.275198 0 0 7.94577,0.0207 6.7419931,4.6484229 39.275198 0 0 -2.93625,-7.89461 6.7419931,4.6484229 39.275198 0 0 -4.58319,-1.64486 z m 239.15491,3.37757 v 5.2e-4 c -4.8597,-0.0924 -9.04155,1.79708 -7.70702,3.95221 2.84712,4.59667 11.78745,10.34635 17.90537,13.42244 v -0.002 c 2.36341,1.18782 1.96526,-3.83758 1.88567,-6.92929 -0.1839,-7.23733 -5.84697,-10.01097 -11.10371,-10.39885 -0.32863,-0.0248 -0.65633,-0.0371 -0.98031,-0.045 z M 454.7061,161.19378 c -0.65397,-0.0206 -1.27584,-0.0123 -1.86656,0.0331 -3.54173,0.24493 -6.08447,1.67349 -8.83667,5.07566 -3.66326,4.55045 -4.29422,-1.40994 -7.04246,-2.31614 -2.99709,-0.98578 -9.36372,3.48807 -12.00909,4.98419 -1.4358,0.81128 -3.73668,3.2607 -4.94595,4.61936 -1.42966,1.61031 -3.00316,6.12485 -1.68982,8.75554 0.27544,0.55719 0.50536,1.42722 0.82682,1.90479 1.11435,1.68049 7.95,-0.98887 8.99429,-1.57665 1.67459,-0.94903 4.56463,-0.86086 6.07301,-1.70273 1.10516,-0.62453 3.00791,-3.3185 3.57549,-4.61316 0.50821,-1.15723 0.7239,-2.61316 1.988,-3.33261 0.89396,-0.50206 5.88625,0.092 6.47557,0.67334 1.37762,1.39907 1.81132,2.70857 4.44934,2.64428 4.18314,-0.0919 5.86951,0.5484 9.61854,3.08354 0.48981,0.3307 2.97775,1.81902 4.15271,0.93121 1.17558,-0.8878 3.34224,-2.09033 4.88394,-2.33526 3.6238,-0.5694 4.45683,-0.51848 5.31647,0.0289 0.86026,0.5541 -1.28478,1.63178 -3.49022,2.6696 -2.20725,1.04091 -2.43719,3.66299 -1.23403,4.31292 10.46755,6.31751 29.18161,16.5045 49.69515,26.8888 20.51365,10.3837 39.52478,19.04894 43.9844,18.48931 5.4046,-0.67962 6.90633,-2.19213 10.56473,-6.19032 3.65806,-3.99635 -3.14255,-6.65752 4.24005,-10.69031 7.38165,-4.03156 14.04235,3.37996 17.71365,5.49786 3.67154,2.11542 5.02597,5.24865 9.54825,0.45785 4.52209,-4.78923 -12.41983,-11.26874 -11.70471,-13.49013 0.7164,-2.21925 13.41326,-0.062 22.82341,4.40851 9.41015,4.45924 24.76926,-1.12825 27.71769,-6.98045 2.94505,-5.85368 -18.64753,-31.78319 -25.34161,-31.07355 -6.69197,0.71021 -0.70941,12.67682 -5.09736,12.78061 -4.38666,0.0919 -7.19836,-8.89817 -28.52746,-15.00322 -21.32888,-6.10475 -94.73883,-3.4158 -115.65444,-1.91357 -5.95751,0.42858 -7.3725,-6.34842 -13.1408,-6.89519 -0.72096,-0.0614 -1.40637,-0.10671 -2.06033,-0.12609 z m -64.79915,3.03547 5.2e-4,0.001 c -0.31379,4.2e-4 -0.6084,0.0593 -0.81391,0.22996 -1.05617,0.78368 -1.01388,2.1522 -2.02416,4.01474 -1.02862,1.85829 0.41504,5.73766 0.0935,9.22217 -0.30637,3.48418 1.3409,10.01909 7.22798,10.15132 l 0.0248,-0.0248 c 0.52045,0.0289 2.49998,-0.15234 2.85512,-0.63304 1.696,-2.43078 0.70556,-6.73934 0.32608,-9.49916 -0.71639,-5.09185 -1.20963,-11.41996 -6.29006,-13.2023 -0.3006,-0.0957 -0.87678,-0.26076 -1.39991,-0.25993 z m -10.79056,11.39259 c -0.68508,-0.008 -1.31057,0.44303 -1.82727,1.09709 -0.9123,1.15108 -0.18243,2.54757 -0.3049,3.72897 -0.0919,1.18477 -0.60149,2.77414 -0.27698,4.42609 0.30926,1.6501 0.50011,3.87501 1.37873,5.54436 l 0.0243,0.002 c 0.79293,1.50928 5.3856,3.08542 6.04563,0.57568 0.7378,-2.77974 -2.02528,-12.83525 -3.35638,-14.39809 -0.58099,-0.68405 -1.14918,-0.96894 -1.68207,-0.97565 h -5.2e-4 z m -13.09945,1.1591 c -1.68894,-0.0553 -2.77293,0.9833 -3.00034,3.00033 -0.24493,2.33891 -0.0618,8.38244 0.0915,10.00404 l -0.0331,0.008 c 0.15298,1.61945 0.0618,1.82464 0.69246,4.86275 0.66436,3.1052 1.12937,6.52897 3.44165,7.23832 2.30831,0.71021 4.70679,-0.58205 5.49114,-2.77399 0.78373,-2.19505 -0.76578,-4.56501 -1.4087,-6.68228 -0.64288,-2.11542 -1.45073,-5.56641 -1.90686,-6.45026 -0.46842,-0.88471 -0.49268,-8.6967 -2.60811,-9.11365 -0.26513,-0.0528 -0.51938,-0.0837 -0.76068,-0.0915 z m 296.26512,10.93732 c -0.13648,5.7e-4 -0.27434,0.0331 -0.40876,0.10645 -2.87062,1.53019 -2.07768,2.34006 -2.0221,4.52789 0.0247,1.26443 1.29764,3.21342 1.92184,3.84834 0.94289,0.95824 0.66246,2.6358 1.91151,3.26647 4.38272,2.20593 1.37543,-11.76119 -1.40249,-11.74915 z m -307.23448,7.84345 c -0.46454,0.008 -1.02868,0.11469 -1.72186,0.34106 -3.16335,1.05617 -2.50092,2.64988 -2.36316,4.06177 0.0919,0.97637 1.18208,4.4618 2.08824,6.30504 0.91251,1.82897 0.98386,3.75817 3.88865,2.3735 0.66127,-0.27545 1.91869,-0.2454 2.76366,-2.69131 0.86026,-2.45832 -0.93514,-5.25666 -2.04949,-7.89254 -0.54767,-1.33936 -0.94699,-2.53235 -2.60604,-2.49701 z m 339.87899,25.66613 c -3.41598,-0.0821 -3.59091,4.11517 -4.66431,5.32061 -1.14577,1.28574 -5.518,2.34751 -5.39554,5.11183 0.13607,2.76354 2.73,3.3232 6.67401,4.36407 3.94246,1.04087 13.17722,0.55433 14.68955,-1.14463 2.22626,-2.49717 -1.43257,-6.70953 -3.21738,-7.90959 -1.78283,-1.20221 -3.23381,-4.93287 -7.35769,-5.66581 -0.25772,-0.0458 -0.50091,-0.0711 -0.72864,-0.0765 z m -350.4184,0.65836 c -1.66676,-0.0412 -2.88859,0.2866 -3.53673,1.69188 -0.86332,1.88579 -0.31456,3.09404 0.82423,5.59553 1.99911,4.50302 4.71113,5.23959 5.62343,7.04246 1.68989,3.33813 -2.87525,7.40312 -5.93452,3.05563 -1.16028,-1.6562 -1.31863,-5.35618 -2.63808,-7.65225 -3.21666,-5.52644 -5.92291,-7.289 -10.37663,-4.77283 -2.4828,1.40521 -4.68652,3.01887 -2.16731,7.69669 2.52567,4.67814 3.26917,5.06661 4.55373,6.99957 1.29194,1.93482 4.45053,3.69448 4.40645,6.27093 -0.0289,2.25624 -3.64422,3.42604 -5.19296,2.32699 -1.54907,-1.09904 -1.71533,-5.38362 -4.64727,-5.57433 -2.47972,-0.15298 -5.92745,2.64254 -6.97631,3.70365 -2.09398,2.14602 2.35091,8.07094 3.25406,9.83764 0.88472,1.76952 2.0457,12.69462 6.35155,12.18427 4.30952,-0.52655 5.08504,-5.23992 7.25589,-6.47764 2.17055,-1.2399 6.18628,0.83248 8.70644,-0.58188 2.51952,-1.42051 3.84771,-5.481 5.38882,-6.35413 1.54298,-0.87251 1.64136,-0.68229 3.58841,-1.78129 0.97049,-0.55109 2.41629,0.3061 4.33152,0.4625 1.91643,0.15298 4.96546,-1.82128 6.0048,-3.58221 l 0.0165,-0.002 c 1.21537,-2.06338 1.37956,-6.27859 0.21342,-11.23136 -1.14498,-4.95425 -5.5234,-7.51174 -6.81043,-8.78344 -1.2858,-1.27049 -1.3004,-5.33187 -3.90778,-6.91431 -2.60833,-1.58276 -5.21813,-2.88071 -6.51794,-3.02152 -0.64981,-0.0689 -1.25572,-0.12488 -1.81126,-0.13849 z m 189.93621,14.76189 10e-4,5.1e-4 c -1.25726,-0.0495 -2.27025,0.15093 -2.84427,0.79014 l -0.0124,0.004 c -3.06385,3.43524 2.75402,12.06556 3.68195,14.71125 0.97048,2.81953 -0.33399,7.51608 3.16001,9.27333 6.00221,3.01853 33.53599,14.16308 47.41519,12.12019 2.86547,-0.44698 0.6578,-11.51325 -0.0124,-14.02085 -2.47359,-9.50012 0.57925,-14.77168 -9.21804,-17.50487 -3.66483,-1.01947 -9.18193,-2.05516 -12.84676,-2.61845 -6.90152,-1.05925 -15.15364,-0.0165 -19.574,-0.79271 -3.03775,-0.5346 -6.98426,-1.85422 -9.75031,-1.96267 z m -33.51682,0.17931 c -3.06248,0.20947 -10.02902,5.10621 -10.65413,5.50613 -1.66967,1.07151 -5.41946,0.61806 -6.31951,2.67839 -1.58153,3.6134 4.95002,3.53632 2.08773,10.07639 -1.1113,2.54833 -6.1705,5.37014 -2.15181,8.42532 1.86868,1.40509 3.72236,2.00597 5.86838,1.0294 6.586,-2.99985 6.17344,-8.11754 7.27862,-14.97325 0.51774,-3.21851 3.95167,-5.97049 4.68551,-9.26042 1.18346,-2.70349 0.59723,-3.57717 -0.79479,-3.48196 z m 19.43758,10.64793 c -0.22968,-0.008 -0.47631,-0.004 -0.74569,0.002 -5.21605,0.12246 -6.67356,8.81627 -4.75837,13.55008 1.73888,4.2976 15.43111,10.72089 15.24403,3.53519 -0.061,-2.01077 -3.67334,-2.01072 -4.84105,-3.58635 v -0.002 c -0.53183,-3.52994 0.85494,-8.42586 -1.39164,-11.45511 -1.16527,-1.57245 -1.89887,-1.99673 -3.50728,-2.04329 z m 107.51281,1.05214 c -4.87067,0.0664 -4.26175,9.44906 1.21647,10.77143 4.76812,1.15108 5.08876,-0.45034 5.53816,-4.61109 0.24493,-2.42767 0.0923,-3.5072 -1.59783,-5.22035 l 0.004,-0.002 c -0.8878,-0.80513 -2.18491,-0.15154 -3.11712,-0.50694 -0.76456,-0.30513 -1.44515,-0.43859 -2.04329,-0.43047 z m 72.87618,2.55074 c -3.62294,-0.0775 -5.9143,1.79607 -5.75934,8.03104 0.0124,0.4476 -6.35827,1.96431 -6.63371,4.63693 -0.30019,2.67809 1.11459,4.39998 1.59215,5.02449 4.91141,6.46507 10.90494,-0.15502 13.26224,4.55528 0.24534,0.49901 0.0492,1.77248 0.0615,2.33578 0,0.11339 0.15391,2.11468 0.062,2.14354 -3.42023,1.30843 -6.01749,0.66695 -4.58783,6.14536 1.54541,5.90238 10.74492,6.3348 11.74295,9.26455 0.44817,1.30724 -2.38069,1.10046 -2.86132,2.21175 -0.82352,1.88555 0.27191,4.63992 0.71571,6.40943 1.60907,6.14636 8.571,5.58508 11.39362,9.85728 1.08375,1.63723 -1.25987,2.09757 -0.45165,3.71398 0.3773,0.73467 3.12528,-0.20534 3.84163,0.27544 1.57939,1.07241 2.08013,5.69769 3.10265,6.93756 1.02251,1.24295 1.87845,-0.27304 2.00091,-0.42582 0.55728,-0.63063 -0.15342,-2.13096 0.0915,-2.92385 0.52656,-1.83351 0.76091,-3.81903 0.31109,-5.40794 l 0.0248,0.008 c -0.43655,-1.59196 -2.91933,-1.76477 -3.45199,-3.29851 -0.55505,-1.53348 2.01401,-4.184 0.008,-6.50761 -1.28732,-1.4897 -3.38226,-2.35216 -3.9486,-3.50935 -0.19916,-0.4012 2.50782,-1.60149 2.69131,-1.81591 0.87548,-0.98457 0.77291,-4.69616 0.39636,-5.85338 -0.5927,-1.7352 -2.80777,-2.78416 -3.58841,-4.58732 -2.732,-6.32301 -4.98678,-11.85461 -8.49974,-17.91157 -1.07823,-1.85982 -4.78781,-4.35601 -5.06326,-5.13974 -0.13153,-0.37976 0.47185,-1.30121 0.68627,-1.57665 2.627,-3.94616 14.27615,3.6593 18.372,4.43384 2.54067,0.48371 3.21627,-0.21719 4.70721,-1.47226 3.17587,-2.6732 -1.73423,-6.93265 -3.87419,-8.47855 -4.91017,-3.55613 -10.53,-2.68954 -15.99799,-4.48965 -3.90571,-1.28443 -7.52933,-2.52393 -10.34717,-2.58434 z m -43.27281,3.96152 c -0.46264,-0.003 -0.89976,0.0506 -1.10795,0.29559 -0.69186,0.77454 -2.14138,2.65783 -2.4567,3.75688 -1.05925,3.72757 0.008,12.28601 3.82251,13.54336 2.20115,0.72554 11.64827,-3.28703 13.32839,0.0599 4.51374,9.02192 -5.79633,5.49918 -7.12102,6.98459 -0.45617,0.51126 -0.50405,1.63329 -0.47955,2.54868 0.0247,1.39598 0.0163,2.27251 0.99063,3.28765 0.97044,0.98578 2.9217,1.06242 4.23385,1.26142 12.29859,1.88583 16.6152,-7.95637 8.33593,-16.36024 -1.20923,-1.23066 -2.42644,-3.63225 -3.93568,-3.99717 l 0.004,0.0165 c -1.89194,0.27544 -3.66848,-0.0911 -5.48907,-0.45217 -6.06526,-1.14189 -2.10356,-11.05206 -8.86406,-10.89236 -0.31091,0.0124 -0.79879,-0.0483 -1.26142,-0.0512 z m -23.57324,11.01173 c -9.11392,0.0289 3.75646,20.81459 3.33468,4.34702 -0.0614,-1.35313 -0.0289,-2.57229 -1.2082,-4.05918 -0.81346,-0.19998 -1.51889,-0.28949 -2.12648,-0.28784 z m -149.37073,5.31027 c -0.63323,-0.0124 -1.26647,0.0368 -1.89859,0.16382 -4.42708,0.89085 -9.29982,9.38315 -4.59197,12.96406 2.21645,1.68684 8.05776,1.12349 10.60762,0.72244 5.70707,-0.897 12.6118,-10.83311 4.5961,-12.76821 -1.05616,0.0289 -2.06959,0.0931 -3.10678,-0.12093 -1.81392,-0.38554 -3.70669,-0.93017 -5.60638,-0.96118 z m -88.25611,1.80144 -5.2e-4,0.001 c -0.28946,-0.002 -0.5766,0.0123 -0.86041,0.0424 v -0.0243 c -0.75619,0.0919 -1.47768,0.30634 -2.1053,0.67076 -2.03275,1.14498 -0.39392,8.75544 -0.0599,11.78378 0.34265,3.02467 -7.32289,4.08851 -6.03219,11.95172 0.21442,1.40212 1.72878,3.32273 2.59519,4.19768 1.51843,1.54276 1.99821,3.71838 3.27266,5.64462 1.46335,2.21034 5.98473,3.63597 7.16184,5.98775 0.5541,1.11128 0.39654,2.99866 -1.32085,3.56257 -1.71133,0.57554 -2.42805,1.03147 -4.64726,2.08153 -2.21954,1.0531 -3.74106,2.5092 -5.18883,4.0659 -6.20607,6.65559 0.0929,20.0461 2.53576,27.23193 1.00108,2.93894 3.27235,9.14159 4.70049,10.52597 2.58689,2.50727 3.80781,-15.85813 3.99976,-18.18235 0.21441,-2.32052 1.03099,-4.45839 1.07383,-2.65462 0.0289,1.80625 1.61303,25.53531 2.55902,29.9315 1.93482,9.09694 3.12515,21.93424 9.5033,28.40602 0.0919,0.0919 1.58403,1.6428 1.59628,1.6428 2.62973,-0.061 2.65514,-22.51872 2.65514,-26.03872 0.001,-1.36538 0.002,-3.51273 0.0594,-4.33411 0.15298,-2.1491 0.84563,-0.80577 0.86093,-0.39842 0.061,1.84604 0.30605,3.71284 0.53279,5.48907 1.41441,11.42668 1.52854,21.28361 2.65513,31.02498 1.21843,3.57514 2.74316,6.64875 4.71134,10.91613 1.96541,4.26881 5.60458,9.18546 8.38037,10.80554 2.77364,1.6195 5.46127,3.93987 10.9523,0.83716 5.49158,-3.101 5.73819,-11.15877 11.53832,-17.85008 3.12969,-3.61216 12.27594,0.40545 15.37632,-1.973 1.91643,-1.46641 -0.8936,-10.27662 -0.33641,-12.96614 0.53574,-2.57464 3.97088,-2.78752 5.04361,-5.23327 1.32864,-3.03691 -0.9589,-6.39659 -2.07325,-8.61704 -0.47452,-0.90924 -0.42445,-2.519 -0.84388,-3.50935 -2.11543,-4.89396 -4.65501,-10.9512 -9.88725,-11.57449 -1.22762,-0.15297 -6.18314,-1.71365 -7.34891,-7.10447 -1.15723,-5.39084 0.12244,-17.11521 -6.64817,-20.5109 -4.57313,-2.29911 -8.82874,-6.51402 -12.88293,-10.11514 -2.34506,-2.08483 -5.05069,-6.45129 -7.73493,-7.80107 -6.39353,-3.21233 -12.15452,-8.4743 -12.37186,-16.82275 -0.24493,-8.96136 -5.65888,-17.42448 -8.61498,-21.62349 -2.95733,-4.19934 -5.29219,-5.21072 -7.75818,-7.71374 -0.94558,-0.9617 -3.02218,-1.73833 -5.04775,-1.75338 z m 231.39569,4.48552 c -0.42582,0.0539 -0.82738,0.18353 -1.19682,0.39739 -2.96039,1.79706 -9.95606,96.48677 -11.61532,100.77059 -1.66233,4.28601 -12.7191,10.58106 -13.89682,13.18111 -1.17863,2.59914 -0.4563,10.52855 -0.4563,10.52855 0,0 8.89797,3.79883 11.08872,4.31499 2.1889,0.51431 29.88647,3.51126 46.56719,3.25561 16.68096,-0.24493 32.87128,-2.51079 38.06279,-5.30768 5.19156,-2.79504 5.62196,-2.72745 6.33708,-1.99885 0.7164,0.72555 0.70391,1.7286 -5.11183,5.25653 -5.81455,3.52982 -22.25448,5.58646 -39.18779,5.84512 -8.41241,0.12246 -16.93646,-0.21379 -24.8946,-0.82269 -3.97982,-0.30925 -7.83011,-0.68453 -11.44013,-1.11621 -3.60999,-0.42858 -9.20051,-1.9553 -10.05314,-1.41955 -0.85106,0.53572 -1.79391,4.96256 -1.20612,6.2606 0.60003,1.29499 11.13107,3.99938 16.73954,5.78724 5.60823,1.78786 11.1211,3.42874 16.1923,4.90099 10.62433,3.08405 19.1016,5.32204 21.58317,6.8399 2.48282,1.51844 2.57083,2.46022 2.1606,3.18792 -0.48067,0.83881 -5.45207,-0.49312 -6.27559,-0.9462 -2.92975,-1.4756 -7.73318,-2.36375 -18.37614,-5.45703 -10.64206,-3.09048 -23.35212,-6.87017 -32.44815,-10.52856 -9.0955,-3.65897 -21.41841,-9.99118 -30.30667,-8.79998 -6.15985,0.82353 -10.45269,19.16282 -6.22856,27.24227 2.11236,4.0398 9.40091,17.98998 27.27275,20.26646 8.80034,1.12045 26.63448,3.22967 3.14089,3.1874 -4.5064,-0.008 -12.17464,-0.73412 -17.71158,-2.81895 -10.11302,-3.80744 -21.93511,-15.34531 -27.40866,-20.19153 -5.58584,-4.15249 -8.42279,7.3085 -7.90753,13.52837 0.27544,3.10945 14.75158,10.0966 20.1874,13.76506 5.43767,3.66824 2.88353,6.16246 -2.46755,2.61482 -5.34828,-3.55027 -13.47725,-4.50857 -22.23534,-4.78162 -5.02377,-0.15298 -32.55932,13.75299 -33.89043,15.54634 -1.33169,1.794 -2.31937,19.66385 -0.0289,23.45387 2.28992,3.78971 59.93157,31.5419 62.45665,35.93837 1.26131,2.1981 3.11642,22.499 8.0052,41.83001 4.87438,19.3355 12.80662,37.70251 14.62598,39.40741 3.64186,3.41899 5.65045,3.08035 8.33592,-0.63252 1.34394,-1.85829 2.0996,-5.44482 3.44114,-8.04395 1.34093,-2.59913 4.51467,-3.37198 2.78742,2.71043 -1.06821,3.76239 -6.65644,16.91631 -11.49025,28.15228 a 237.06664,237.06664 0 0 0 8.77259,0.51367 237.06664,237.06664 0 0 0 189.21636,-94.88103 c -4.88193,-2.89025 -14.94996,-8.95016 -15.69414,-10.93577 -0.93983,-2.50702 -5.20019,-95.11387 -7.89512,-99.91845 -2.69406,-4.80456 -17.66802,-17.27937 -20.19153,-18.21801 -2.52566,-0.93985 -4.95749,-0.73516 -6.54792,0.93328 -1.60416,1.67154 0.21542,8.56571 -1.50844,12.1114 -1.73278,3.54513 -23.6672,25.09015 -24.57059,23.95255 -0.90315,-1.13579 9.10455,-15.01413 10.81588,-19.34146 1.71132,-4.32514 -3.34163,-8.67292 -2.81689,-10.06192 0.52351,-1.38987 7.18671,-4.45719 11.45305,-8.8408 4.26639,-4.38576 1.13698,-12.49028 0.94413,-19.88664 -0.1839,-7.39603 -2.81636,-19.1695 -8.0884,-16.16904 -5.0994,2.90221 -9.97204,4.83856 -10.49031,3.75481 -0.51431,-1.08066 8.44621,-11.87263 10.67738,-17.58549 2.22869,-5.71296 8.38221,-14.9704 5.17385,-18.62574 -3.20742,-3.65467 -32.00899,-2.64914 -36.08772,-4.79454 -4.07841,-2.14606 -55.41752,-34.84407 -57.79441,-39.14076 -2.3787,-4.29636 -7.09601,-19.67497 -9.34981,-22.56555 -1.69298,-2.1675 -5.00995,-5.02421 -7.81141,-5.55935 l -0.008,0.0165 c -0.46842,-0.0915 -0.9217,-0.11557 -1.34876,-0.062 z m -104.22619,3.37808 c -2.2536,-0.10556 -4.18806,0.47054 -5.08445,2.52336 -0.37357,0.89395 -1.21054,1.44987 -0.46664,2.93161 1.91033,3.81726 8.79464,3.05242 11.46804,5.76605 0.72556,0.7378 0.7315,1.65168 1.15703,2.50579 1.00108,1.99605 3.70998,4.74407 5.6255,5.7087 2.89598,1.4603 24.79011,-1.75487 30.66066,-0.34933 1.73277,0.43167 8.63444,4.06067 9.09609,5.82341 0.24493,0.93374 0.83377,3.31106 1.37872,3.86333 2.00215,2.0297 11.12937,-0.68935 7.48999,-6.79958 -3.25855,-5.46538 -9.71694,-7.4239 -14.87972,-10.55388 -3.7912,-2.29912 -4.08437,-6.82874 -7.17424,-9.17928 -4.01869,-3.0553 -16.37682,0.76586 -18.7234,0.21497 -2.34506,-0.53575 -6.22211,0.52535 -9.93221,0.06 v 0.0124 c -2.21513,-0.28327 -6.85938,-2.35193 -10.61537,-2.5275 z m 162.48155,4.10415 c -0.99217,-0.0524 -2.2296,0.65463 -3.88658,2.5125 -0.82443,0.93065 -2.17206,1.63735 -3.22823,2.22209 1.12144,2.22585 19.12622,14.2757 20.83697,12.36307 1.711,-1.91462 -0.82954,-3.46778 -2.61431,-4.94337 -7.64097,-6.30771 -8.33495,-10.01206 -9.55032,-11.3254 -0.45576,-0.49249 -0.96223,-0.79759 -1.55753,-0.82889 z m -202.76695,17.96944 c -0.32162,8e-5 -0.64838,0.008 -0.98237,0.0202 -3.6189,0.0919 -6.94932,-0.0609 -5.35678,4.60695 0.34884,1.04396 0.8367,1.95804 1.88981,2.4846 1.46335,0.73474 12.4716,4.36578 13.19196,1.83245 0.9123,-3.20036 0.0291,-5.73668 -0.97359,-7.21041 -1.00107,-1.47255 -3.01009,-0.95537 -4.91184,-1.42989 v -0.008 c -0.97122,-0.22968 -1.89273,-0.29445 -2.85719,-0.29404 z m -17.7028,2.27118 c -1.53624,0.004 -4.40716,1.37669 -5.07152,1.89653 -0.81738,0.63982 -2.21373,1.67819 -2.64842,3.2153 l -0.0124,0.004 c -1.1021,3.8702 6.75064,1.37489 8.2951,-0.38551 0.47452,-0.53575 0.89409,-3.83431 0.24495,-4.48758 -0.16865,-0.17236 -0.45322,-0.24371 -0.80771,-0.24288 z m -231.19829,0.64854 0.002,0.002 c -1.97089,0.0247 -3.58877,0.20543 -4.66431,0.62012 -4.30095,1.6602 -12.16534,17.96552 -14.88385,23.81405 -2.7176,5.84848 -13.62814,28.73403 -13.72009,31.8239 -0.11174,3.08713 2.2409,6.15649 5.15214,8.64236 2.91169,2.48591 8.68083,3.86924 11.85612,0.30903 3.17559,-3.56088 2.7082,-12.74652 4.71341,-17.32608 l -0.008,-0.0289 c 2.0052,-4.57832 6.19625,-4.38971 9.35654,-8.34626 3.16182,-3.95746 8.47121,-9.84444 6.32209,-15.55305 -2.13994,-5.70954 -5.03554,-11.52621 -3.961,-12.27315 1.07728,-0.74485 2.4569,4.06667 11.8153,15.66571 1.62775,2.01835 4.74734,6.56681 15.13758,6.91895 7.16278,0.24781 9.41998,0.004 13.15734,1.08624 3.73616,1.08127 9.6104,4.54874 12.85761,5.93866 3.24816,1.40211 11.83893,2.24736 17.05064,2.03295 5.21114,-0.22638 9.89202,-0.82174 13.61622,-2.28203 3.72268,-1.45725 6.58458,-3.03134 11.83856,-2.90887 5.25402,0.10185 6.83448,2.78183 10.76316,3.55637 3.92749,0.77363 9.93218,-1.52464 9.84023,-4.65553 -0.13484,-5.19979 -0.45684,-10.0739 -2.71921,-13.86943 -2.26239,-3.79459 -3.22966,-10.2637 -7.61143,-13.02815 -4.38088,-2.76106 -21.40101,-2.21331 -24.81967,-3.26647 -0.2672,-0.0825 -0.7369,-0.1875 -1.06298,-0.27698 l -15.89826,20.41942 c -5.15205,2.77975 -10.21769,1.60406 -13.00024,-0.3855 -2.77973,-1.98381 -5.05528,-5.1687 -5.1909,-10.37922 l 9.97046,-13.22399 c -4.42288,0.008 -8.77047,0.22191 -10.38128,0.14521 -3.07485,-0.14102 -13.54795,-0.3553 -23.24096,-1.23404 -7.27003,-0.66353 -16.3738,-2.0073 -22.2865,-1.93683 z m 439.07243,4.50464 v 0.002 c -0.5654,-0.001 -1.06049,0.19387 -1.4826,0.71985 -1.12354,1.39907 1.22098,2.52594 3.67316,3.92534 2.45523,1.39597 5.35413,3.18494 8.03104,4.99453 l 0.004,-0.0124 c 2.85323,1.92871 6.16595,4.16399 9.34982,5.06895 2.40319,0.67962 4.83475,2.18346 7.2471,2.59984 0.55109,0.0919 4.09221,2.17679 4.65398,0.8971 0.56025,-1.2766 -4.15782,-3.94654 -5.00951,-4.4235 -4.15584,-2.32056 -8.27748,-4.02524 -11.41481,-7.46415 -0.64597,-0.70106 -2.05433,-2.82559 -2.75539,-3.41581 -0.43168,-0.35833 -1.88225,-0.0631 -3.13469,-0.18552 -2.35421,-0.24493 -3.94359,-0.93776 -5.78931,-1.65106 -1.29726,-0.49938 -2.43064,-1.0524 -3.37292,-1.05471 z m -153.35498,3.89226 c -0.36863,-0.008 -0.7327,-0.004 -0.80771,0.0553 -0.64287,0.72246 -2.4891,4.24682 -1.66863,5.88129 1.82155,3.64092 12.90862,12.34295 16.4822,15.97009 2.40934,2.44298 10.15616,10.75137 14.27407,8.42532 2.17665,-1.23067 5.52291,-2.68357 8.16125,-1.95802 2.54706,0.71026 3.41933,3.26862 5.23534,4.74545 2.14607,1.74486 8.61362,2.53215 11.35745,1.48518 1.67154,-0.62762 0.90219,-3.92628 1.50223,-5.29322 1.35927,-3.10791 6.23954,-4.3568 4.69842,-8.87697 -0.15297,-0.46838 -0.91511,-1.90936 -1.51515,-2.1053 -1.87354,-0.61533 -14.73559,-2.71187 -16.30701,-2.34146 -2.24094,0.5327 -3.63631,1.64596 -6.16655,1.69189 -3.8176,0.092 -1.02277,-5.77297 -2.56574,-7.33858 -4.06706,-4.12969 -7.64694,0.12143 -9.85728,-0.062 -2.21029,-0.1839 -6.83415,0.30655 -9.18135,-2.04793 l 0.004,0.062 c -3.75208,-3.80655 -7.09793,-8.40299 -12.81266,-8.26771 -0.092,0.008 -0.46455,-0.0166 -0.83302,-0.0248 z M 479.00797,339.309 c -0.6962,-0.008 -1.24426,0.16207 -1.59577,0.55656 l 0.004,0.008 c -0.24493,0.27544 0.3181,1.55857 0.30903,1.91978 0.21442,8.36193 7.43178,6.9338 11.18691,13.2302 2.18585,3.66021 6.81241,15.22389 8.44445,16.87856 0.0919,0.092 2.11212,0.0287 2.32027,-0.062 2.03584,-1.14803 3.21622,-2.60637 3.9889,-5.32888 0.40409,-1.40199 1.12208,-2.85657 1.70067,-4.17235 1.92868,-4.40324 -6.02374,-10.60999 -7.83931,-12.52275 -1.58853,-1.67153 -13.6461,-10.44958 -18.51929,-10.50479 z m 2.312,23.01514 c -0.3179,-0.004 -0.51986,0.002 -0.51986,0.002 l 0.002,0.002 c -2.02051,0.0614 -3.28203,0.3114 -3.78013,2.03502 -1.49395,5.24448 5.88579,6.41561 7.90081,8.96638 2.60523,3.29743 -1.09071,9.92409 3.41994,12.19047 3.38349,1.70214 6.74112,-1.07947 5.71283,-5.00538 -0.80518,-3.04306 -4.83434,-3.94066 -6.00687,-6.28386 -0.56944,-1.16637 -0.48272,-3.31118 -0.85007,-4.65346 -0.68881,-2.69101 -1.11797,-4.83882 -2.14354,-6.12004 -0.77833,-0.96203 -2.78152,-1.11618 -3.73518,-1.13326 z m 11.53418,47.97743 c -1.94631,0.033 -6.08073,4.15748 -7.93956,5.97276 -2.05114,2.00203 -3.65559,2.6135 -3.1471,3.86747 0.49596,1.25516 2.09618,0.15424 3.27267,-0.38138 3.36481,-1.49703 3.90592,-3.86389 6.63577,-6.1774 0.27544,-0.21442 3.30535,-2.181 1.70894,-3.15329 -0.14968,-0.0911 -0.32917,-0.13187 -0.53072,-0.12816 z m 272.96474,32.75717 c 0.41638,-0.061 0.76595,-0.029 1.05678,0.0935 0.1839,0.092 0.34231,0.24364 0.46457,0.37517 0.5541,0.48677 0.5938,0.99333 0.55397,2.0097 -0.12247,3.175 -1.01002,14.71617 -9.01133,28.13523 -8.00226,13.41911 -27.72622,43.48469 -28.26288,44.24639 -1.07456,1.52763 -2.34428,3.16139 -3.46077,2.90422 -1.096,-0.24493 -0.56425,-1.53378 -0.43873,-2.17971 0.12246,-0.64902 0.47549,-1.30525 1.69395,-3.37292 1.21842,-2.06949 24.84138,-37.80175 29.74392,-55.69996 4.76801,-17.41409 7.23284,-16.45904 7.66052,-16.51166 z M 541.18971,555.91335 c -4.46097,-0.0783 -7.65464,4.62928 -10.46242,8.40828 -3.33297,4.47515 -3.58204,7.49525 -6.81457,9.36273 -3.73797,2.16441 -4.73643,1.86759 -7.30188,1.59215 -2.56606,-0.26019 -4.71833,-0.34168 -5.26324,1.09709 -0.544,1.44619 1.21078,2.28486 3.43028,3.67782 2.22882,1.39506 3.32717,1.58178 2.01383,3.80131 -1.31577,2.22197 -4.42619,3.00884 -6.31796,4.36201 -6.94201,4.96374 -15.55724,14.12916 -3.75429,19.50527 6.03227,2.74548 11.86056,2.25295 14.93707,-3.04477 l -0.002,-0.004 c 3.07981,-5.29438 1.13729,-7.24759 4.44676,-9.70587 3.30878,-2.47238 10.84124,-1.67428 13.59039,-3.18947 2.77639,-1.52886 1.80666,-3.6985 -1.01596,-3.39255 -2.81896,0.31833 -4.32588,0.34281 -6.14743,-1.50637 -0.70411,-0.71351 0.54375,-1.08203 2.00711,-0.77566 1.4664,0.2907 3.90011,0.65916 6.55412,-0.52865 2.65122,-1.18812 5.9227,-5.79948 7.18096,-9.76737 1.25825,-3.96818 0.5829,-5.73351 0.46044,-10.83138 -0.0639,-2.50664 0.9522,-6.05909 -4.92632,-8.48682 -0.91856,-0.37894 -1.7887,-0.55854 -2.61482,-0.57309 z" style="display:inline;fill:#fff;fill-opacity:1;stroke:none;stroke-width:.287508;stroke-linecap:round;stroke-linejoin:miter;stroke-miterlimit:4;stroke-dasharray:none;stroke-opacity:1"/></svg>