<svg xmlns="http://www.w3.org/2000/svg" xml:space="preserve" width="4608" height="3072" viewBox="0 0 1219.2 812.8"><path d="M 0,812.8 V 0 h 1219.2 v 812.8 z" style="display:inline;fill:#b00020;fill-opacity:1;fill-rule:evenodd;stroke:none;stroke-width:8.46667;stroke-linecap:round;stroke-linejoin:round"/><path d="M 609.6 101.6 L 586.78951 171.80398 L 512.97282 171.80398 L 572.69166 215.19203 L 549.88116 285.39602 L 609.6 242.00797 L 669.31884 285.39602 L 646.50834 215.19203 L 706.22718 171.80398 L 632.41049 171.80398 L 609.6 101.6 z M 609.59948 156.39821 L 620.10737 188.73835 L 654.11149 188.73835 L 626.60155 208.72473 L 637.10943 241.06642 L 609.59948 221.07798 L 582.09005 241.06436 L 592.59742 208.72473 L 565.08799 188.73835 L 599.0916 188.73835 L 609.59948 156.39821 z M 609.6 304.8 C 671.49515 349.47668 732.91483 414.05987 726.43059 511.42305 C 724.42012 541.80902 716.27252 564.04892 704.98126 580.24727 L 557.937 438.8373 L 609.51112 388.93698 L 587.71555 365.40199 L 500.96425 362.35101 L 411.60433 455.19961 L 475.24799 518.84275 L 520.59355 474.96946 L 662.09499 613.4809 C 641.98538 621.11567 621.77202 621.45859 608.99177 619.39682 C 589.12624 616.19203 572.37564 600.0534 565.86107 592.37625 C 573.55228 584.11108 568.5193 576.31469 568.5193 576.31469 C 549.79637 572.53778 544.38139 583.36782 536.9171 596.4437 C 511.87628 593.6361 492.57753 605.47169 495.25194 629.70162 C 476.35664 644.6755 461.39175 648.66098 449.09662 661.57616 C 428.42791 683.28718 434.25827 696.77391 433.00148 711.2 C 441.80737 708.95414 459.17491 717.52394 481.1975 696.69753 C 493.96393 684.62453 502.55914 666.06415 516.12198 647.90826 C 542.7976 655.01148 549.40962 621.38193 547.45444 608.18458 C 549.14928 606.93791 550.88034 606.28598 552.67738 605.1119 C 581.39343 647.95217 648.46718 675.32389 699.12063 649.72468 L 754.23562 703.67488 C 758.03754 706.81606 763.36471 711.72259 768.53604 711.15452 C 784.14733 709.43973 801.08187 689.72259 800.59661 676.40988 C 800.49991 673.75661 798.61977 670.37436 794.34325 666.18569 L 739.65769 613.5951 C 823.86863 509.32721 757.70497 348.19446 609.6 304.8 z" style="fill:gold;fill-opacity:1;fill-rule:evenodd;stroke:none;stroke-width:.231066px;stroke-linecap:butt;stroke-linejoin:miter;stroke-opacity:1"/></svg>