<svg xmlns="http://www.w3.org/2000/svg" xml:space="preserve" id="svg1" width="4608" height="3072" version="1.1" viewBox="0 0 1219.2 812.8"><defs id="defs1"><style id="style1">.cls-1{fill:#0283c0}.cls-2{fill:#fff}.cls-3{fill:#ef483f}</style></defs><path id="rect1" d="M 1219.2,0 V 812.8 H 0 V 0 Z" style="fill:#000;fill-opacity:1;fill-rule:evenodd;stroke:none;stroke-width:8.46667;stroke-linecap:round;stroke-linejoin:round"/><path id="rect12" d="M 609.6,101.6 A 304.79995,304.79995 0 0 0 337.17528,270.93333 H 0 V 541.86667 H 337.1758 A 304.79995,304.79995 0 0 0 609.6,711.2 304.79995,304.79995 0 0 0 882.54458,541.86667 H 1219.2 V 270.93333 H 882.54458 A 304.79995,304.79995 0 0 0 609.6,101.6 Z m 0,67.73333 A 237.06662,237.06662 0 0 1 846.66667,406.4 237.06662,237.06662 0 0 1 609.6,643.46667 237.06662,237.06662 0 0 1 372.53333,406.4 237.06662,237.06662 0 0 1 609.6,169.33333 Z m 0,33.86667 A 203.19996,203.19996 0 0 0 406.4,406.4 203.19996,203.19996 0 0 0 609.6,609.6 203.19996,203.19996 0 0 0 812.8,406.4 203.19996,203.19996 0 0 0 609.6,203.2 Z" style="display:inline;fill:#404040;fill-opacity:1;stroke:none;stroke-width:59.2666;stroke-linecap:round;stroke-linejoin:round;stroke-miterlimit:128;stroke-dasharray:none;stroke-opacity:1"/><path id="path4" d="M 609.6,135.46667 A 270.93328,270.93328 0 0 0 359.06646,304.8 H 0 V 508 H 359.06646 A 270.93328,270.93328 0 0 0 609.6,677.33333 270.93328,270.93328 0 0 0 860.71284,508 H 1219.2 V 304.8 H 860.71284 A 270.93328,270.93328 0 0 0 609.6,135.46667 Z m 0,33.86666 A 237.06662,237.06662 0 0 1 846.66667,406.4 237.06662,237.06662 0 0 1 609.6,643.46667 237.06662,237.06662 0 0 1 372.53333,406.4 237.06662,237.06662 0 0 1 609.6,169.33333 Z M 609.6,254 c -52.81137,0 -95.62362,42.81224 -95.62362,95.62362 H 705.22362 C 705.22362,296.81224 662.41136,254 609.6,254 Z M 482.10184,365.56063 v 31.87454 h 254.99632 v -31.87454 z m 15.93753,47.81207 v 63.74908 h 31.87454 V 413.3727 Z m 47.81155,0 v 63.74908 h 31.87454 V 413.3727 Z m 47.81207,0 v 63.74908 h 31.87402 V 413.3727 Z m 47.81155,0 v 63.74908 h 31.87454 V 413.3727 Z m 47.81155,0 v 63.74908 h 31.87454 V 413.3727 Z m -207.18425,79.68609 v 31.87454 h 254.99632 v -31.87454 z" style="display:inline;fill:#fff;fill-opacity:1;stroke:none;stroke-width:59.2666;stroke-linecap:round;stroke-linejoin:round;stroke-miterlimit:128;stroke-dasharray:none;stroke-opacity:1"/></svg>