<svg xmlns="http://www.w3.org/2000/svg" xml:space="preserve" id="svg1" width="4608" height="3072" version="1.1" viewBox="0 0 1219.2 812.8"><defs id="defs1"><style id="style1">.cls-1{fill:#0283c0}.cls-2{fill:#fff}.cls-3{fill:#ef483f}</style></defs><path id="rect1" d="M 0 0 L 0 812.8 L 1219.2 812.8 L 1219.2 0 L 0 0 z" style="fill:#800020;fill-rule:evenodd;stroke:none;stroke-width:8.46667;stroke-linecap:round;stroke-linejoin:round;fill-opacity:1"/><path id="rect1616-6-1-1-2-8" d="M 727.34733 101.6 C 720.27311 103.27594 716.01407 110.38882 723.34706 123.33252 C 708.55478 105.21333 696.52181 121.24227 724.55474 142.65899 C 693.50051 130.15526 713.83125 155.76687 728.1261 155.80858 C 722.75138 156.045 719.59647 156.84762 718.07658 157.95057 C 709.41745 144.48776 704.22594 136.69237 706.34087 159.63935 C 703.76849 119.70251 685.26457 124.04947 691.1914 148.69015 C 681.5406 113.49008 662.21579 112.3548 671.18746 137.50582 C 654.34564 118.01605 652.58534 123.07337 645.2464 128.2423 C 636.56294 144.24832 655.6689 145.00722 667.34738 146.45204 C 631.02334 156.49057 670.40204 165.73299 688.55487 161.82475 C 674.42565 165.21392 658.62613 179.20042 698.4261 175.13711 C 681.13951 191.15882 712.20538 178.17519 724.60693 179.51256 C 725.17313 179.47176 725.73666 179.37188 726.2983 179.2211 C 725.65365 181.39788 727.69246 185.07371 732.11087 189.31454 C 725.63144 182.87698 699.71383 172.21092 715.68655 193.5024 C 706.96492 185.09875 667.44985 192.59404 699.53353 200.32162 C 675.56005 203.76947 676.78175 213.79491 679.52958 218.14276 C 685.69422 226.90562 695.32596 218.01092 699.60329 208.01986 C 696.19587 240.8484 716.87635 218.23003 719.04345 203.89195 C 716.636 229.15741 728.43898 213.43968 734.08698 195.62217 C 729.35548 216.54119 734.07442 209.97271 742.26219 200.31077 C 745.2024 206.63999 760.53778 216.81284 771.22993 219.51167 C 765.4826 218.20299 758.71419 218.33557 755.19886 219.88942 C 749.83197 215.23255 742.27377 211.05638 747.70268 220.73536 C 744.02616 214.7847 734.29111 209.54923 739.54504 219.73594 C 736.11262 213.78524 720.536 211.42611 733.18832 221.38804 C 717.52713 214.81519 713.69217 223.6625 724.81002 225.502 C 717.64015 225.5364 715.68037 229.01083 716.66892 232.36101 C 721.52143 236.32503 723.48973 230.37053 725.72418 228.10081 C 721.83988 240.97784 733.23916 231.64936 735.29827 227.38457 C 735.17897 232.20208 734.9463 237.45338 745.31523 226.55671 C 743.46259 230.29548 749.09922 229.81106 752.87549 225.08342 C 752.52156 227.28577 753.39689 227.70588 755.4991 226.57377 C 758.52881 229.07228 764.3444 232.15036 774.15068 235.81455 C 751.53371 242.50769 785.14541 244.64402 795.66203 251.33918 C 796.18752 251.55349 796.73712 251.71473 797.30741 251.82856 C 795.76136 253.49324 795.95272 257.69042 798.02467 263.44852 C 795.08343 254.8086 776.60702 233.76344 781.44532 259.92005 C 777.36981 248.52473 738.62998 237.72645 763.93838 258.87102 C 740.92444 251.33425 737.55865 260.85829 738.08621 265.97188 C 739.71085 276.55569 752.2981 272.85527 760.5758 265.79928 C 742.91355 293.70779 771.51922 282.59918 779.83457 270.71061 C 766.42879 292.28935 783.99983 283.43695 796.98908 269.97474 C 781.77045 288.67519 792.64364 281.59161 806.68875 275.92734 C 808.58859 283.77401 816.42111 296.45609 823.64895 302.63321 C 815.09595 295.66305 801.10133 291.64685 806.85463 302.90451 C 806.85472 303.73536 806.93196 304.76681 807.10887 306.04954 C 805.86093 299.17025 798.71011 290.7507 799.87831 302.14848 C 798.85768 295.35804 785.21691 287.48918 793.35571 301.37179 C 781.17663 289.54897 774.37229 296.38979 784.05137 302.15107 C 777.36313 299.57219 774.26885 302.09441 773.96464 305.5736 C 777.03369 311.03142 781.04258 306.20345 783.95267 304.90387 C 775.62915 315.47881 789.65175 310.94533 793.12782 307.72437 C 791.25581 312.16635 789.12045 316.97038 802.75772 310.60068 C 799.66618 313.40709 805.09095 315.00864 810.33503 311.98199 C 808.86933 314.46452 810.41088 314.91915 814.75544 313.81599 C 816.0255 315.28483 817.42777 316.84794 819.00789 318.53353 C 795.76653 314.49956 824.92728 331.31933 831.36838 341.98119 C 831.74383 342.40633 832.16478 342.79463 832.62515 343.1496 C 830.49919 343.95556 828.8017 347.80005 828.09467 353.87711 C 829.30583 344.8325 822.12171 317.78496 814.81228 343.36354 C 816.23392 331.34741 786.33486 304.49266 799.59512 334.65916 C 782.33271 317.70101 775.07799 324.74156 773.27425 329.55663 C 770.0182 339.75882 782.94208 342.02592 793.49885 339.37567 C 765.25081 356.54595 795.82637 359.27897 808.56718 352.31493 C 786.94913 365.70235 806.63092 365.56444 824.2608 359.26438 C 796.64278 371.84674 824.15062 366.19539 841.85352 370.57273 C 837.64585 373.22687 834.00276 384.56382 836.41871 403.55366 C 832.42888 378.52773 813.6688 381.59219 826.63171 419.46225 C 819.77164 397.45896 817.97046 406.64562 815.14353 422.39334 C 813.3161 421.95636 810.09481 422.42182 805.04027 424.25989 C 818.22702 418.75182 827.16682 387.31748 803.2874 410.74806 C 820.95311 380.24145 803.68339 370.04167 796.98029 392.43651 C 798.78171 377.67589 792.11613 372.73615 784.93865 373.89501 C 775.48418 382.84382 787.26878 388.44874 791.37288 393.63902 C 765.79199 382.28364 782.08033 408.17301 790.35072 413.5236 C 780.43205 412.01989 769.64776 410.17083 789.44484 434.35127 C 782.20687 429.56295 781.73563 441.28628 790.51351 450.29086 C 784.00981 448.38855 784.65686 452.85968 790.9972 463.51848 C 808.94225 467.09969 833.34096 489.44959 814.8252 463.31229 C 826.88583 477.60854 843.82617 487.60995 831.89392 465.18969 C 839.39835 477.60461 867.19406 490.58904 851.4364 461.56873 C 859.22429 469.1599 871.53589 473.69052 873.86397 463.23839 C 874.73197 458.1713 872.01083 448.44384 848.54459 454.43221 C 875.20924 435.01905 835.83332 443.21561 831.00561 454.31439 C 837.58055 428.53797 817.73972 448.30584 814.22782 456.73078 C 816.67973 451.12366 817.15035 446.94925 815.7192 445.18523 C 816.29613 445.10963 816.85563 444.98539 817.39455 444.80644 C 828.33503 438.8261 862.01448 438.93132 839.89499 430.74787 C 878.21501 419.27235 858.24934 412.39954 843.89784 414.67546 C 862.16493 411.33944 894.98632 387.73632 857.58176 392.36313 C 867.81311 386.56023 885.16712 378.54893 870.99955 367.08819 C 862.23602 365.12219 858.66786 361.1243 850.59821 385.56923 C 850.17652 377.3841 848.24195 372.52195 845.89824 370.74119 C 855.7259 365.13227 858.15977 361.77735 851.83586 360.21884 C 863.9606 356.84411 869.46123 346.47529 860.79242 346.97934 C 890.08943 336.02181 879.83768 332.20434 870.50759 328.52362 C 880.35206 328.05205 907.47817 313.85613 879.64657 310.82547 C 885.80956 308.40051 898.81941 309.4734 895.1588 296.99221 C 889.53974 292.38674 881.28927 293.30955 875.40651 306.97093 C 880.90079 284.25051 860.8341 284.39412 860.72576 319.62959 C 851.89744 287.38958 843.78072 319.04527 852.4012 330.42686 C 848.95953 326.30084 846.41004 324.28113 844.61046 323.74096 C 850.10445 308.71157 853.17767 299.86837 836.15878 315.44018 C 866.44917 289.21987 851.78025 277.1509 835.7185 296.7762 C 848.88593 279.61125 850.46429 266.98906 846.52404 264.19524 C 850.01856 262.11626 851.04234 259.01014 847.72345 259.18211 C 861.8558 253.99785 856.93374 252.12959 852.45494 250.32994 C 857.19397 250.13288 870.29188 243.38351 856.90739 241.84054 C 859.88064 240.69222 866.13805 241.24775 864.41442 235.23009 C 861.72441 232.99666 857.75083 233.4161 854.87805 239.97295 C 857.59142 229.05562 847.9342 229.06407 847.77461 246.02064 C 843.62431 230.47849 839.62176 245.68743 843.73558 251.19087 C 836.44692 242.33964 837.4055 253.33558 841.42254 259.06274 C 834.15668 249.58217 835.6875 260.2416 838.1845 267.10153 C 836.4161 268.78392 834.50919 271.08469 832.52748 274.1135 C 836.84313 253.78981 834.34916 250.95652 828.72409 249.19823 C 830.67441 243.86591 829.09072 240.00898 824.24788 242.76761 C 845.6163 219.95851 834.73225 221.08577 824.73519 221.92599 C 833.34463 217.13773 851.32679 192.39003 825.04421 202.01764 C 829.48596 197.11207 841.61784 192.30405 832.78224 182.74595 C 825.69814 181.11197 818.71797 185.59694 819.52931 200.44461 C 814.33721 177.6535 796.42355 186.68182 812.01193 218.29624 C 789.75093 193.32857 796.57199 225.28736 809.36145 231.6608 C 804.44081 229.49044 801.25802 228.81213 799.40547 229.12658 C 797.63684 213.22559 796.45326 203.93948 788.13846 225.4374 C 803.60245 188.51432 785.08845 184.20758 779.43563 208.91231 C 781.88487 196.40598 781.42492 187.11034 779.66042 181.42097 C 781.22986 179.69742 781.0248 178.76092 778.81965 178.56223 C 784.34093 176.07479 786.20095 170.74233 782.11402 171.61278 C 795.25041 164.26885 790.09482 163.19917 785.38772 162.12705 C 790.03631 161.18652 801.90363 152.45974 788.44283 153.04285 C 791.19748 151.44094 797.46376 151.00479 794.81092 145.33376 C 791.80163 143.55173 787.94507 144.59032 786.14426 151.51737 C 787.0987 140.30954 777.56307 141.83846 780.08468 158.60789 C 773.53065 143.91355 771.9819 159.56259 776.91382 164.34966 C 768.31782 156.75647 771.00134 167.46397 775.87306 172.48715 C 769.28939 166.24867 769.54928 170.67711 771.60717 175.9629 C 769.37311 177.90273 767.38186 182.51138 766.48861 190.02509 C 761.60866 171.07321 758.22184 168.70479 752.9804 169.26099 C 754.71397 159.87611 750.53685 153.03035 746.40509 159.16238 C 755.40265 129.2544 746.15232 135.08813 737.56893 140.27206 C 743.15248 132.16579 748.25286 102.02174 728.98754 122.29744 C 730.78468 115.93336 739.51654 106.24766 727.34733 101.6 z M 492.39217 107.73296 L 492.39217 107.73348 C 480.21042 112.34826 488.91522 122.05788 490.69511 128.42679 C 471.48482 108.09915 476.50358 138.25684 482.06515 146.37815 C 473.49582 141.17108 464.26186 135.31201 473.17835 165.24418 C 469.0632 159.10097 464.86744 165.93611 466.57566 175.32573 C 461.33606 174.75562 457.9417 177.11416 453.01059 196.05212 C 452.12067 188.38926 450.08099 183.75526 447.79902 181.87779 C 449.09277 178.38753 447.75679 176.17883 440.98032 182.37698 C 449.99241 168.00211 441.8594 162.80577 438.25697 173.46383 C 439.37287 166.39495 436.24984 163.90693 432.77823 164.34346 C 428.07977 168.48824 433.65313 171.38211 435.53931 173.94752 C 423.42844 168.05557 430.82358 180.78091 434.71093 183.49423 C 429.96592 182.60401 424.81054 181.53311 433.92338 193.4962 C 430.52323 191.07133 430.09823 196.70185 434.16781 201.18049 C 433.79762 201.05796 433.47806 200.98418 433.20198 200.95259 C 426.64222 195.24107 420.26099 204.93159 431.26515 231.40706 C 423.00869 209.8869 421.80051 219.16869 419.98883 235.06472 C 418.13715 234.74523 414.95216 235.41549 410.02562 237.57258 C 422.83228 231.2337 429.73989 199.29279 407.41131 224.20027 C 423.0853 192.62805 405.19581 183.552 399.942 206.32901 C 400.79356 191.48356 393.82561 186.97932 386.73712 188.59417 C 377.87565 198.12838 389.99505 202.969 394.42347 207.88654 C 368.1671 198.18802 386.08183 222.98441 394.67823 227.79591 C 384.6835 226.92869 373.8032 225.7724 395.10973 248.63909 C 390.27432 245.86739 388.67947 249.72015 390.61543 255.05782 C 384.98561 256.8009 382.48378 259.62694 386.74435 279.96224 C 383.66692 275.23088 380.76124 272.23227 378.29267 270.69045 C 381.75108 265.68812 386.98426 248.35811 377.45345 259.08341 C 381.87591 253.66198 383.63052 242.76421 375.71815 251.06478 C 380.22089 245.87341 377.33332 230.4146 372.06514 245.6155 C 373.13758 228.69209 363.50576 227.98522 365.41904 239.07016 C 363.03013 232.323 359.09786 231.61692 356.25267 233.64982 C 354.09652 239.52689 360.37846 239.42543 363.26051 240.78582 C 349.79919 241.35629 362.37183 249.03555 367.08405 249.57495 C 362.48634 251.04579 357.44113 252.55331 371.15977 258.74648 C 367.01314 258.22882 369.32403 263.38296 375.03861 265.38897 C 372.29061 265.87628 372.81072 267.25982 376.15999 269.67811 C 368.71579 267.40897 367.45398 281.5911 383.49235 302.61615 C 367.48382 282.94757 352.78221 294.97661 383.00143 321.27858 C 366.02492 305.661 369.07436 314.51315 374.52753 329.55715 C 372.72648 330.09223 370.17182 332.10477 366.7187 336.22185 C 375.36997 324.86358 367.33873 293.1868 358.42308 325.40288 C 358.41038 290.16723 338.34376 289.96874 343.77643 312.70391 C 337.93074 299.02671 329.68354 298.08221 324.05205 302.67248 C 320.35759 315.14375 333.37018 314.10552 339.52656 316.54709 C 311.68688 319.5026 338.77379 333.7719 348.61696 334.27004 C 339.27693 337.92557 329.0148 341.71503 358.28201 352.7516 C 349.61459 352.22416 355.08788 362.60796 367.20343 366.01538 C 360.87519 367.55684 363.30023 370.91811 373.11314 376.55376 C 370.76443 378.32793 368.81519 383.18498 368.37131 391.36939 C 360.36792 366.90282 356.7889 370.89072 348.0201 372.83306 C 333.82152 384.25549 351.15461 392.31316 361.37019 398.14366 C 323.97832 393.4159 356.73516 417.10841 374.99313 420.49371 C 360.64786 418.17908 340.66483 424.99702 378.95361 436.57594 C 356.81201 444.69966 390.49106 444.68563 401.41529 450.69549 C 401.95369 450.87587 402.51238 451.00124 403.08909 451.07841 C 401.65307 452.83853 402.11273 457.0143 404.54947 462.62809 C 401.06042 454.1937 381.27283 434.37268 387.77788 460.16674 C 382.98027 449.05503 343.62696 440.75206 370.2389 460.23702 C 346.78897 454.18533 344.04148 463.90558 344.89574 468.97499 C 347.19548 479.43336 359.52004 474.93642 367.32848 467.3663 C 351.49288 496.34281 379.32075 483.43516 386.86011 471.04102 C 374.86862 493.42714 391.83493 483.47195 403.934 469.20857 C 385.34749 495.29582 409.80678 473.01212 427.76149 469.47935 C 434.13067 458.83771 434.79069 454.36752 428.28187 456.25225 C 437.0841 447.27142 436.64332 435.5475 429.3924 440.31628 C 449.25494 416.18936 438.46659 418.00859 428.54387 419.48551 C 436.82872 414.15724 453.18651 388.31208 427.57493 399.59835 C 431.6931 394.41917 443.4931 388.84619 434.06291 379.8719 C 426.88861 378.69367 420.21022 383.6149 421.97166 398.38033 C 415.32926 375.96748 398.03145 386.12115 415.61442 416.67534 C 391.79857 393.18039 400.65361 424.63888 413.82539 430.18253 C 408.77549 428.33078 405.55534 427.8569 403.72678 428.2891 C 400.94252 412.53363 399.16708 403.34268 392.24738 425.32753 C 405.31282 387.49257 386.5609 384.37645 382.50327 409.39155 C 384.97074 390.40765 381.35802 379.06114 377.15734 376.39615 C 394.87211 372.06646 422.36403 377.79281 394.78004 365.13585 C 412.39108 371.48287 432.07104 371.67415 410.49949 358.2324 C 423.22538 365.22624 453.79275 362.5728 425.59624 345.32931 C 436.14579 348.00807 449.0756 345.7765 445.8472 335.56556 C 444.05653 330.74565 436.82117 323.68529 419.51289 340.59678 C 432.85485 310.46618 402.88343 337.24043 404.27248 349.26034 C 397.03241 323.66212 389.7745 350.68988 390.96115 359.73773 C 390.27053 353.65824 388.58366 349.80851 386.45962 348.9973 C 386.92112 348.64349 387.34326 348.2573 387.72 347.83303 C 394.18994 337.1886 423.39573 320.44722 400.14353 324.41844 C 407.01805 317.12468 410.86275 311.91539 412.59032 308.345 C 416.48737 310.66358 418.11863 310.68054 417.41225 307.87165 C 421.58531 312.25437 427.24295 312.24819 425.07225 308.684 C 436.34944 318.64144 435.66098 313.43083 435.12331 308.64163 C 437.54545 312.71195 449.71194 321.01738 444.72273 308.52535 C 447.14609 310.59297 449.62537 316.35498 454.11492 311.98561 C 454.80842 308.56244 452.55346 305.27064 445.40795 305.8573 C 456.32389 303.06172 451.73525 294.58031 436.70461 302.4849 C 448.44307 291.46465 433.12956 295.16325 430.22749 301.38884 C 434.57588 290.78548 425.33291 296.8444 422.18767 303.09106 C 427.06686 292.28677 418.54808 298.52196 413.66416 303.94424 C 412.9441 299.22127 402.47279 302.89226 395.5464 308.50572 C 402.79104 302.34807 410.65795 289.68733 412.57895 281.84585 C 426.60875 287.54803 437.46261 294.66115 422.29464 275.91959 C 435.24858 289.41811 452.79682 298.31849 439.44243 276.69577 C 447.72027 288.60892 476.30821 299.80295 458.71877 271.84232 C 466.97733 278.92059 479.55401 282.65476 481.20732 272.07538 C 481.74874 266.96325 478.40907 257.43013 455.37479 264.90476 C 480.74039 243.82855 441.97164 254.52247 437.86526 265.90677 C 442.77443 239.7633 424.24125 260.75834 421.27661 269.39028 C 423.36421 263.63767 423.56551 259.44116 422.02385 257.77238 C 422.59495 257.66011 423.14532 257.50071 423.67181 257.28765 C 434.20654 250.62091 467.82378 248.57558 445.22502 241.82142 C 453.28768 238.83353 458.66224 236.23308 462.01263 234.01827 C 465.63424 236.60779 467.22494 236.73512 466.76892 233.89735 C 470.54519 238.62499 476.18131 239.1089 474.32867 235.37013 C 484.69759 246.2668 484.46544 241.016 484.34615 236.1985 C 486.40524 240.46327 497.80401 249.79125 493.91972 236.91422 C 496.15416 239.18393 498.12195 245.13896 502.97447 241.17494 C 503.96301 237.82478 502.00429 234.34933 494.8344 234.3149 C 505.95224 232.47539 502.11779 223.62862 486.45661 230.20145 C 499.10893 220.23953 483.53179 222.59815 480.09938 228.54884 C 485.35331 218.36213 475.61776 223.5976 471.94122 229.54826 C 476.82043 220.84934 471.20533 223.34594 466.12194 227.32049 C 464.01603 224.54108 455.32329 223.92232 448.19021 225.52629 C 458.88925 222.85644 474.25203 212.72525 477.21015 206.40394 C 485.37163 216.08766 490.07196 222.66787 485.39725 201.73652 C 490.99751 219.57103 502.76059 235.32197 500.41855 210.03938 C 502.54076 224.38286 523.16636 247.07051 519.84734 214.22723 C 524.09758 224.22981 533.70532 233.15111 539.89366 224.40491 C 542.65326 220.06449 543.90233 210.04258 519.93829 206.53003 C 552.0428 198.88909 512.54824 191.28682 503.80387 199.66688 C 519.83421 178.41861 493.88776 189.01452 487.39092 195.43458 C 491.82083 191.20566 493.86917 187.53569 493.23036 185.35716 C 493.7916 185.50947 494.35512 185.61082 494.92121 185.65327 C 507.32636 184.34936 538.35756 197.41644 521.11444 181.3481 C 560.90328 185.51884 545.14133 171.49041 531.02133 168.06313 C 549.16352 172.02035 588.56687 162.88381 552.27017 152.74727 C 563.9525 151.33398 583.05979 150.62686 574.41972 134.59747 C 567.09483 129.40874 565.34896 124.34699 548.45438 143.79122 C 557.49416 118.66451 538.1661 119.7474 528.41994 154.92129 C 534.41354 130.29671 515.92161 125.89938 513.24102 165.82915 C 515.41811 142.88803 510.20498 150.669 501.50944 164.10833 C 499.99252 163.00131 496.84062 162.19041 491.46664 161.93947 C 505.76156 161.93647 526.16112 136.37986 495.07314 148.7997 C 523.164 127.45874 511.17436 111.39766 496.33301 129.47685 C 503.70103 116.55299 499.46184 109.428 492.39217 107.73296 z M 722.97706 165.46535 C 727.24635 167.59925 733.10549 169.29228 738.34615 169.46562 C 731.89517 169.52412 728.45288 170.29478 727.13339 171.47842 C 725.7024 169.48636 724.3104 167.46905 722.97706 165.46535 z M 496.58933 171.6102 C 495.25044 173.61048 493.85298 175.62406 492.41646 177.61241 C 491.10033 176.42513 487.66052 175.64507 481.20939 175.56913 C 486.45074 175.40992 492.3142 173.7327 496.58933 171.6102 z M 750.92936 190.95165 C 753.67192 192.90302 756.5908 194.70628 759.06788 196.3384 C 753.52103 195.27348 749.532 194.95762 746.77406 195.18602 C 748.1175 193.72639 749.49961 192.28957 750.92936 190.95165 z M 468.56778 197.02002 C 469.99422 198.36206 471.37193 199.80371 472.71171 201.2673 C 469.95439 201.03135 465.9654 201.33559 460.41531 202.38558 C 462.89683 200.76015 465.81993 198.96396 468.56778 197.02002 z M 438.5939 204.57511 C 438.84108 207.73052 439.29066 211.16558 440.01242 214.90471 C 439.19096 211.26937 438.08566 208.27847 436.85344 205.90836 C 437.41988 205.50285 438.00296 205.05548 438.5939 204.57511 z M 800.45192 238.03095 C 803.32772 241.8353 807.82437 245.94896 812.44292 248.42721 C 806.6263 245.61519 803.2087 244.79104 801.50302 245.27237 C 801.10634 242.84929 800.75558 240.42118 800.45192 238.03095 z M 418.9181 243.9665 C 418.60794 246.35592 418.25063 248.78331 417.84736 251.20534 C 416.14319 250.71903 412.72356 251.5341 406.89868 254.33073 C 411.52411 251.86484 416.03201 247.7632 418.9181 243.9665 z M 820.32977 271.83405 C 821.28129 273.4539 822.22369 275.02865 823.06862 276.47821 C 820.8647 274.8044 818.94046 273.48784 817.21885 272.42472 C 818.27339 272.17687 819.31123 271.98212 820.32977 271.83405 z M 398.94878 277.71638 C 399.96684 277.86722 401.00385 278.06464 402.05763 278.31531 C 400.33314 279.3738 398.40499 280.6849 396.19649 282.35279 C 397.04526 280.90564 397.99297 279.33348 398.94878 277.71638 z M 631.0943 326.01111 C 605.89271 329.73169 611.41253 332.84934 588.46486 343.75576 C 583.45968 344.85612 580.25757 347.25134 577.37716 349.67013 C 577.37016 352.88763 576.85916 360.25768 593.8175 354.09467 C 598.51599 351.56257 606.11034 346.19708 609.30131 346.49823 C 613.67298 346.91161 616.54908 348.87626 620.38952 349.96882 C 632.66711 354.9694 638.06879 355.31138 655.37188 368.89376 C 659.63646 368.17735 664.50705 367.5655 669.51779 365.60249 C 678.85385 366.88125 679.35555 368.68769 698.00132 372.80515 C 694.6514 335.22853 700.22197 339.79203 692.07559 332.68925 C 672.33033 327.3668 651.5564 327.22524 631.0943 326.01111 z M 575.90748 326.31393 C 574.31282 326.32093 572.70061 326.38861 571.07625 326.52115 C 556.37505 327.9095 543.51119 332.73694 529.5191 336.85954 C 522.91078 346.40844 524.37199 360.1576 523.64762 373.10126 C 549.64858 364.11246 567.73023 365.54938 573.06166 371.43159 C 583.23974 381.91127 611.4847 386.70449 614.63587 385.41265 C 619.27882 384.13788 615.99828 380.17185 597.95007 373.89397 C 608.6861 376.91183 622.75686 384.90582 628.98073 384.90622 C 644.9706 385.55269 616.42177 370.58909 605.61265 363.48841 C 614.23747 368.59166 625.53294 374.30665 633.8316 379.62799 C 642.76585 385.35687 649.35905 380.68283 645.80968 378.29526 C 631.41643 369.13006 623.55071 362.55493 612.42153 354.68481 C 635.17893 369.76114 646.77347 376.65823 653.17977 378.35003 C 658.60451 379.78263 661.34836 376.39117 660.138 374.78798 C 639.65942 357.29381 611.2252 346.79278 608.23161 348.61386 C 597.98919 355.97734 588.35104 357.21815 580.72373 357.38387 C 574.3135 356.84446 575.27217 352.22307 576.19584 349.69338 C 576.93771 346.20012 593.72647 337.50747 604.92845 333.31764 C 597.37047 329.15738 587.07006 326.26235 575.90748 326.31393 z M 693.6605 328.24146 C 692.35855 328.17836 691.41874 329.81485 691.36297 331.20924 C 694.55548 332.42415 697.229 334.31353 698.52687 336.60633 C 701.19187 340.1261 698.09941 361.55519 699.20332 373.97872 C 695.51668 374.8464 691.25397 373.44207 687.17253 372.292 C 687.90296 376.8819 694.66516 380.66694 700.08182 382.37718 C 710.07996 385.21232 718.74252 379.42227 717.85696 368.44676 C 716.68547 355.52848 710.85551 329.99541 709.47607 329.79279 C 704.32115 328.97253 699.04067 328.47721 693.6605 328.24146 z M 518.76678 328.93186 C 518.50493 328.92557 518.25088 328.92578 518.00662 328.93341 C 517.74608 328.94241 517.49628 328.95784 517.26042 328.98354 C 511.81127 330.3237 507.81794 334.67618 505.2472 338.30958 C 500.66145 344.71957 503.77109 365.86628 502.01949 379.74581 C 501.51568 382.39478 512.59507 383.56341 518.46034 383.06861 C 522.60252 381.18453 524.92814 378.17081 527.30787 375.03447 C 524.86043 375.45722 521.21907 376.4996 520.47572 374.01645 C 518.31209 364.06022 520.09121 345.18959 522.49007 338.79069 C 523.48415 336.573 524.89629 333.15865 526.79007 333.09905 C 527.87339 333.20457 528.73094 334.33366 529.22351 335.18988 C 529.90685 333.95314 529.86932 332.62084 529.15581 331.47951 C 528.38015 330.61251 522.69458 329.02618 518.76678 328.93186 z M 841.58429 332.18179 C 842.46694 336.86555 844.6635 342.54523 847.69813 346.81397 C 843.73893 341.71513 841.04408 339.46155 839.30174 339.13641 C 840.02508 336.78954 840.79222 334.45796 841.58429 332.18179 z M 377.53096 338.00573 C 378.31687 340.28408 379.07791 342.61715 379.79491 344.96602 C 378.05173 345.28588 375.35097 347.53242 371.37733 352.62137 C 374.42348 348.36086 376.63561 342.68707 377.53096 338.00573 z M 576.13486 375.38122 C 575.5614 377.59135 574.72662 381.11396 576.56481 381.72502 C 579.29437 382.63133 581.28779 381.38931 582.39546 379.00632 C 580.06038 378.24262 577.53295 376.84744 576.13486 375.38122 z M 583.37524 380.43724 C 583.25581 383.67002 581.96049 385.80345 584.99995 386.61464 C 588.90018 387.38466 588.81281 384.34037 589.80276 382.72651 C 587.32185 382.46979 585.2475 381.59328 583.37524 380.43724 z M 591.31533 382.88671 C 590.77411 384.58463 590.027 387.72439 593.29505 388.31325 C 597.05019 388.31325 597.34274 387.29504 598.25651 384.46594 C 595.95733 384.27791 593.26812 384.24263 591.31533 382.88671 z M 599.88483 384.87263 C 599.60213 386.1325 599.98186 388.14892 602.21647 389.05481 C 605.26064 389.79683 606.15955 387.82453 606.94745 385.91856 C 604.47782 385.94586 603.58361 385.93963 599.88483 384.87263 z M 813.50435 431.2083 C 813.04166 433.57318 812.52988 435.973 811.97214 438.36446 C 810.30256 437.77046 806.83763 438.36513 800.84569 440.78395 C 805.61974 438.61848 810.3808 434.81295 813.50435 431.2083 z M 405.34167 437.1082 C 408.45544 440.72127 413.20685 444.53961 417.975 446.71795 C 411.9896 444.28295 408.52647 443.67846 406.85527 444.26797 C 406.30403 441.87503 405.79795 439.47429 405.34167 437.1082 z M 756.76208 453.65035 C 756.34475 453.65635 755.91944 453.71092 755.49394 453.81209 C 751.27218 458.43981 757.12663 460.71544 759.27975 463.06217 C 746.60093 458.512 755.33219 470.36484 759.49059 472.64195 C 754.67712 472.26918 749.43666 471.76168 759.79187 482.67028 C 756.14887 480.62669 756.33673 486.27024 760.86777 490.28325 C 757.67903 489.59903 758.14742 491.72191 761.56695 496.61465 C 761.98076 496.36785 762.45652 496.01423 762.95291 495.61988 C 760.84106 499.18026 758.42606 504.44463 755.71046 511.87573 C 748.4705 488.23936 746.52166 523.47412 739.57398 534.55187 C 739.35314 535.10465 739.18943 535.68157 739.07478 536.28044 C 737.31047 534.67527 732.8985 534.9121 726.86106 537.13414 C 735.92133 533.97582 757.88897 514.43165 730.42363 519.73313 C 742.37163 515.36196 753.3838 474.67777 731.37138 501.38128 C 739.09316 477.20258 729.04679 473.76152 723.67366 474.35968 C 712.55734 476.15585 716.56088 489.31066 724.05503 497.92051 C 694.55062 479.66574 706.4821 509.52829 719.0574 518.1384 C 696.24985 504.28975 705.71465 522.6189 719.98706 536.10733 C 707.92974 526.49995 706.13035 527.09005 707.84568 532.21506 C 678.35985 516.78117 672.54556 527.33869 635.8077 546.2664 C 629.98552 544.22284 625.39183 544.09095 621.38274 544.66236 C 621.37487 544.19455 620.94999 543.74351 619.98851 543.29914 C 626.02666 542.81369 629.57704 538.41799 625.43521 537.86329 C 640.28248 535.36597 635.79015 532.62504 631.7201 530.03276 C 636.41439 530.7104 650.53308 526.4839 637.66237 522.50661 C 640.79669 521.92464 646.84439 523.62167 646.26081 517.39012 C 644.02895 514.70035 640.04637 514.38224 636.01286 520.29847 C 638.20739 515.50237 637.28796 512.56606 635.35243 512.51342 C 633.15884 512.45382 629.66089 516.098 627.91516 524.93643 C 626.70417 508.89726 619.9626 523.11059 622.9904 529.27622 C 617.4599 519.23642 616.37259 530.21972 619.26401 536.5874 C 613.18725 524.58014 613.45312 539.41833 615.20586 546.06124 C 612.99794 546.71926 610.89216 547.41689 608.77369 547.88645 C 606.31532 547.34086 603.87778 546.48834 601.26718 545.75067 C 606.10692 540.4633 612.66794 529.15824 601.86869 536.21171 C 607.56263 532.14012 612.12383 522.08525 602.30484 528.01997 C 608.01567 524.19139 609.29806 508.51833 600.21453 521.80433 C 605.70296 505.7563 596.59546 502.54912 595.52437 513.74642 C 595.09423 507.94799 592.63138 505.73123 589.96347 505.75569 C 589.3478 505.76169 588.72127 505.88585 588.10622 506.11381 C 584.47917 511.21924 590.5673 512.76807 592.99016 514.83628 C 579.85137 511.85755 589.96151 522.56302 594.3663 524.3189 C 589.54298 524.53272 584.27798 524.66482 595.88507 534.23716 C 592.02029 532.65055 592.89378 538.22877 597.87979 541.66254 C 595.53918 541.45183 595.32907 542.50416 596.84884 544.74453 C 592.68505 544.05709 587.8857 544.1081 581.73658 546.2664 C 557.17433 533.61169 546.45973 524.66996 533.24394 524.7442 C 526.32136 524.7821 518.71559 527.29731 508.07028 533.04757 C 506.19318 534.19312 504.58518 536.17948 503.27367 538.79915 C 501.80211 539.85856 500.57288 540.67557 498.57474 542.25889 C 512.88396 528.80875 522.39842 510.50471 499.55142 524.29358 C 512.15047 515.71864 524.1644 485.88552 494.6096 504.06122 C 502.12707 495.47163 506.16645 482.32807 495.05505 480.50194 C 489.68354 479.88926 479.62824 483.30288 487.28447 507.50236 C 465.34449 480.73951 476.24651 521.45287 488.1826 525.85627 C 460.73176 520.48066 482.64649 540.08484 491.69815 543.26761 C 485.66652 541.0292 481.255 540.7802 479.48649 542.38085 C 479.3734 541.78165 479.21128 541.20357 478.99195 540.6502 C 472.07429 529.55373 470.22144 494.31495 462.91748 517.93169 C 459.64865 508.91109 456.81704 503.09833 454.42291 499.63152 C 458.586 496.28836 459.45604 494.53723 456.35871 494.26906 C 461.87128 491.76237 463.71264 486.42302 459.62879 487.30772 C 472.73938 479.91809 467.58027 478.86687 462.86942 477.81115 C 467.51469 476.85441 479.35064 468.08603 465.89198 468.71609 C 468.641 467.10457 474.90641 466.64651 472.23371 460.98478 C 469.21822 459.21324 465.36475 460.2665 463.58824 467.19939 C 463.98864 462.29455 462.39026 459.83418 460.68092 460.02205 C 458.4832 460.2636 456.10257 464.88228 457.55398 474.31007 C 450.94855 459.63868 449.45358 475.29335 454.40224 480.0632 C 445.77971 472.50001 448.50164 483.19765 453.39093 488.20379 C 444.92917 480.24159 447.75469 489.72987 451.2014 496.11597 C 445.582 492.31911 443.68293 504.88437 445.8069 514.68021 C 441.23893 495.76507 414.53944 462.80651 421.5784 501.66654 C 414.88844 491.30155 405.46498 473.61336 394.25604 489.10245 C 392.70241 498.38476 388.71294 502.35099 414.85271 509.36788 C 386.93489 512.35906 396.81512 530.08188 434.56366 523.15308 C 408.51669 528.78576 412.82921 548.23245 451.84064 532.46414 C 429.13507 540.92322 438.88591 542.27215 455.58718 544.31148 C 455.23471 546.24864 455.91156 549.59153 458.13638 554.77234 C 451.58369 541.29845 418.05417 533.77786 444.05042 557.39285 C 434.02169 552.32696 426.15747 550.52767 420.71282 550.62014 C 418.88987 543.87792 411.88626 531.07837 412.40428 544.3337 C 411.83612 537.36557 405.54374 528.28922 405.59023 539.74638 C 405.23953 532.88886 392.435 523.72693 399.17512 538.33717 C 388.21235 525.38258 380.77031 531.52672 389.83874 538.20487 C 383.43537 534.98598 380.10869 537.19356 379.46521 540.62643 C 381.985 546.35756 386.44789 541.94436 389.47132 540.93494 C 380.15194 550.64707 394.55116 547.50291 398.32607 544.63652 C 396.02797 548.87462 393.43202 553.44746 407.62783 548.43888 C 404.2762 550.93018 409.51816 553.05394 415.03358 550.55347 C 414.58172 551.17147 414.36244 551.66361 414.35455 552.04744 C 409.15389 555.04903 412.20514 561.95985 425.18852 565.05905 C 409.5835 564.03497 404.78433 571.2958 406.41964 578.73677 C 416.36783 588.10566 421.56706 575.45105 426.77808 570.85508 C 416.34508 598.2777 442.5814 579.72895 447.71789 570.76516 C 446.71706 581.22895 445.405 592.61771 469.64265 570.49799 C 465.03637 578.34891 477.37419 578.15924 486.31812 568.45161 C 484.99599 574.10008 488.08951 574.2685 495.08348 570.27424 C 494.40702 574.11778 494.65421 577.80243 495.84519 580.93147 C 492.62152 579.46273 488.16104 578.08622 485.50215 577.99108 C 482.692 577.8905 481.91396 579.2174 486.79613 583.36439 C 481.27506 579.06213 470.32325 577.53454 478.79972 585.2604 C 473.50753 580.87338 458.0812 584.07076 473.41555 589.01676 C 456.44165 588.29293 455.93029 597.91888 466.99475 595.78276 C 460.28511 598.30472 459.65915 602.24297 461.75373 605.04059 C 467.68481 607.07193 467.45477 600.80584 468.75847 597.90201 C 469.60536 611.32273 477.04002 598.62081 477.48455 593.9069 C 479.05197 598.46485 480.66451 603.46788 486.58735 589.65135 C 486.15369 593.79985 491.26868 591.38798 493.16111 585.64436 C 493.71118 588.4051 495.16899 587.64734 497.56808 584.16021 C 499.08931 586.30917 501.208 588.00904 503.9465 589.03536 C 510.69286 591.53626 537.3619 591.16183 561.4634 585.66399 C 537.29235 604.70369 488.17366 605.76721 466.00101 642.88789 C 462.00539 664.87281 452.74084 668.91752 437.24876 683.47818 C 447.26195 690.93739 461.29658 680.09052 471.70299 668.71836 C 466.59159 688.13505 441.84423 698.37518 431.7907 711.2 C 459.33145 710.69213 463.43624 708.00744 503.23285 648.99604 C 557.7885 629.39363 581.65769 620.76516 608.77369 585.73634 C 635.88908 620.76354 659.75629 629.39402 714.31092 648.99604 C 754.10756 708.00743 758.21337 710.69263 785.75411 711.2 C 775.70059 698.37518 750.95574 688.13505 745.8444 668.71836 C 756.25077 680.09052 770.28284 690.93739 780.29604 683.47818 C 764.80401 668.91752 755.53887 664.87281 751.54327 642.88789 C 729.37062 605.76721 680.2556 604.70369 656.0845 585.66399 C 680.18603 591.16183 706.85141 591.53626 713.59779 589.03536 C 720.77841 586.34423 723.75681 579.07517 722.57037 570.9853 C 723.5384 571.64426 724.47567 571.38883 724.83741 569.67634 C 726.22877 584.64018 729.30149 580.37151 732.19407 576.51313 C 731.16808 581.13519 734.34049 595.50278 739.27115 582.98767 C 739.61963 586.15066 737.47536 592.04425 743.74478 591.92666 C 746.59812 589.90515 747.2124 585.96482 741.60125 581.51024 C 751.47591 586.93078 753.94704 577.61272 737.56893 573.10507 C 745.19164 573.09907 746.13992 571.35841 744.35043 569.79571 C 748.72777 570.63594 751.3791 568.77449 748.84266 564.42446 C 773.0203 586.60952 771.73885 575.21699 770.76639 564.75054 C 775.87857 573.72811 802.06485 592.34753 791.7062 564.89679 C 796.90475 569.5068 802.06941 582.17524 812.04294 572.83325 C 813.6984 565.39671 808.91902 558.12346 793.31127 559.10541 C 805.57741 556.21241 808.99586 549.89803 804.97154 546.66276 C 814.02351 547.83729 811.3071 544.22018 808.84107 540.82332 C 812.95868 543.17315 827.64537 544.41361 817.13514 535.99932 C 820.26473 536.60604 825.26723 540.40014 827.01567 534.3896 C 825.92847 531.07005 822.34185 529.31439 816.41425 533.34057 C 824.53131 525.53768 816.34917 520.41633 807.17502 534.68881 C 811.9459 519.3252 800.44965 530.07726 800.99917 536.92175 C 799.54604 525.55667 794.49564 535.37611 794.84399 542.35863 C 793.81706 531.24564 789.9206 539.1215 788.15654 546.02455 C 784.18443 547.0829 779.61104 548.80854 774.47004 551.38805 C 800.53016 527.84335 766.98095 535.27315 760.39183 548.7293 C 762.63065 543.55458 763.31612 540.21326 762.96893 538.27515 C 779.67554 536.28093 789.43049 534.95947 766.74803 526.43918 C 805.71656 542.31273 810.08196 522.8776 784.05033 517.17463 C 821.77997 524.20529 831.70809 506.50816 803.79848 503.44162 C 829.95717 496.49533 825.97789 492.51899 824.44942 483.23252 C 813.28249 467.71322 803.81098 485.37533 797.09295 495.7222 C 804.23719 456.88132 777.44799 489.76852 772.8288 508.67128 C 774.78904 499.74729 773.41087 488.52394 768.88847 489.46935 C 772.15487 485.22112 773.34327 481.49626 765.49074 485.35642 C 771.63815 482.00553 777.38935 472.57848 766.92063 477.27836 C 773.05521 474.17079 776.23608 458.7686 765.60236 470.85446 C 773.00386 455.591 764.35448 451.3031 761.92817 462.28754 C 762.22863 456.03289 759.68349 453.61513 756.76208 453.65035 z M 753.61292 539.45131 C 749.63756 542.49811 745.35143 547.24555 742.78619 552.10635 C 745.69249 545.98593 746.52877 542.39846 746.00666 540.6161 C 748.55142 540.17896 751.10188 539.79069 753.61292 539.45131 z M 464.93958 545.51244 C 467.44987 545.85862 469.99948 546.25437 472.54325 546.69841 C 472.01681 548.47965 472.84295 552.06963 475.7322 558.19694 C 473.17999 553.32898 468.90683 548.56994 464.93958 545.51244 z M 732.17288 562.3326 C 732.26028 562.4281 732.3524 562.50817 732.44056 562.60184 C 732.36786 562.60284 732.29681 562.60251 732.22352 562.60494 C 732.20342 562.51044 732.19558 562.43025 732.17288 562.3326 z M 736.58501 566.21867 C 737.25916 566.69863 737.93048 567.13465 738.59936 567.52143 C 736.84411 567.25671 735.03662 567.30584 733.59915 567.8811 C 734.91814 567.28003 735.89514 566.72558 736.58501 566.21867 z" style="display:inline;fill:#ffd080;fill-opacity:1;fill-rule:evenodd;stroke-width:5.02962;stroke-linecap:square;paint-order:fill markers stroke"/></svg>