<svg xmlns="http://www.w3.org/2000/svg" xml:space="preserve" id="svg1" width="4608" height="3072" version="1.1" viewBox="0 0 1219.2 812.8"><defs id="defs1"><style id="style1">.cls-1{fill:#0283c0}.cls-2{fill:#fff}.cls-3{fill:#ef483f}</style></defs><path id="rect1" d="M 0 0 L 0 812.8 L 1219.2 812.8 L 1219.2 0 L 0 0 z" style="fill:#000;fill-rule:evenodd;stroke:none;stroke-width:8.46667;stroke-linecap:round;stroke-linejoin:round;fill-opacity:1"/><path id="path23" d="M 602.46814 101.6 L 602.46814 140.89889 L 563.16924 140.89889 L 563.16924 155.16314 L 602.46814 155.16314 L 602.46814 206.39619 L 616.73135 206.39619 L 616.73135 155.16314 L 656.03386 155.16314 L 656.03386 140.89889 L 616.73135 140.89889 L 616.73135 101.6 L 602.46814 101.6 z M 563.10103 292.67774 L 563.10103 304.51681 L 656.0969 304.51681 L 656.0969 292.67774 L 563.10103 292.67774 z M 695.15137 307.1704 L 675.52362 319.34382 C 682.89194 339.44608 683.9793 353.23724 680.48508 362.7298 C 677.15878 371.76612 669.66016 376.27469 661.48055 378.32316 L 661.48055 434.49751 L 727.10652 434.38796 C 735.37669 380.84964 725.08315 337.46077 695.15137 307.1704 z M 563.10103 309.9015 L 563.10103 321.74057 L 656.0969 321.74057 L 656.0969 309.9015 L 563.10103 309.9015 z M 656.0969 343.1837 L 563.10103 541.6641 L 563.10103 567.86198 L 656.0969 369.3759 L 656.0969 343.1837 z M 563.07416 585.79577 L 563.07416 597.22711 L 654.00297 597.22711 L 654.00297 585.79577 L 563.07416 585.79577 z M 563.07416 602.66192 L 563.07416 614.08706 L 654.00297 614.08706 L 654.00297 602.66192 L 563.07416 602.66192 z M 602.46814 704.64639 L 602.46814 711.2 L 616.73135 711.2 L 616.73135 704.64639 L 602.46814 704.64639 z" style="color:#000;display:inline;fill:#ffd080;fill-opacity:1;stroke-width:1;stroke-linecap:round;stroke-linejoin:round;-inkscape-stroke:none"/><path id="path22" d="M 563.10103 211.78087 L 563.10103 287.29616 L 577.39421 287.29616 L 577.39421 211.78087 L 563.10103 211.78087 z M 582.77528 211.78087 L 582.77528 287.29616 L 597.0695 287.29616 L 597.0695 211.78087 L 582.77528 211.78087 z M 602.45315 211.78087 L 602.45315 287.29616 L 616.74633 287.29616 L 616.74633 211.78087 L 602.45315 211.78087 z M 622.12792 211.78087 L 622.12792 287.29616 L 636.4211 287.29616 L 636.4211 211.78087 L 622.12792 211.78087 z M 641.80579 211.78087 L 641.80579 287.29616 L 656.09897 287.29616 L 656.09897 211.78087 L 641.80579 211.78087 z M 563.10103 327.12267 L 563.10103 528.98477 L 577.39421 498.47862 L 577.39421 327.12267 L 563.10103 327.12267 z M 582.77528 327.12267 L 582.77528 486.99301 L 597.0695 456.4848 L 597.0695 327.12267 L 582.77528 327.12267 z M 602.45315 327.12267 L 602.45315 444.99351 L 616.74633 414.48788 L 616.74633 327.12267 L 602.45315 327.12267 z M 622.12792 327.12267 L 622.12792 403.00176 L 636.4211 372.49613 L 636.4211 327.12267 L 622.12792 327.12267 z M 641.80579 327.12267 L 641.80579 361.00329 L 656.09897 330.49662 L 656.09897 327.12267 L 641.80579 327.12267 z M 656.09897 382.05627 L 641.80579 412.5619 L 641.80579 580.41418 L 656.09897 580.41418 L 656.09897 437.19295 L 656.09897 382.05627 z M 636.4211 424.05422 L 622.12792 454.56037 L 622.12792 580.41418 L 636.4211 580.41418 L 636.4211 424.05422 z M 616.74633 466.04597 L 602.45315 496.55212 L 602.45315 580.41418 L 616.74633 580.41418 L 616.74633 466.04597 z M 597.0695 508.04237 L 582.77528 538.55059 L 582.77528 580.41418 L 597.0695 580.41418 L 597.0695 508.04237 z M 577.39421 550.03619 L 563.16097 580.41418 L 577.39421 580.41418 L 577.39421 550.03619 z M 563.10103 619.47175 L 563.10103 699.26481 L 577.39421 699.26481 L 577.39421 619.47175 L 563.10103 619.47175 z M 582.77528 619.47175 L 582.77528 699.26481 L 597.0695 699.26481 L 597.0695 619.47175 L 582.77528 619.47175 z M 602.45315 619.47175 L 602.45315 699.26481 L 616.74633 699.26481 L 616.74633 619.47175 L 602.45315 619.47175 z M 622.12792 619.47175 L 622.12792 699.26481 L 636.4211 699.26481 L 636.4211 619.47175 L 622.12792 619.47175 z M 641.80579 619.47175 L 641.80579 699.26481 L 656.09897 699.26481 L 656.09897 619.47175 L 641.80579 619.47175 z" style="color:#000;display:inline;fill:#b00020;fill-opacity:1;stroke-width:1;stroke-linecap:round;stroke-linejoin:round;-inkscape-stroke:none"/></svg>