<svg xmlns="http://www.w3.org/2000/svg" xml:space="preserve" id="svg1" width="4608" height="3072" version="1.1" viewBox="0 0 1219.2 812.8"><defs id="defs1"><style id="style1">.cls-1{fill:#0283c0}.cls-2{fill:#fff}.cls-3{fill:#ef483f}</style></defs><path id="rect1" d="M 1219.2,812.8 V 0 H 0 v 812.8 z" style="fill:#000;fill-opacity:1;fill-rule:evenodd;stroke:none;stroke-width:8.46667;stroke-linecap:round;stroke-linejoin:round"/><path id="path1" d="M 0,3e-5 V 812.79997 L 1219.2,3e-5 Z" style="fill:#b00020;fill-opacity:1;stroke-width:67.7333;stroke-miterlimit:128"/><path id="path2" d="M 1097.0927 0 L 0 731.39515 L 0 812.8 L 122.10986 812.8 L 1219.2 81.40485 L 1219.2 0 L 1097.0927 0 z" style="color:#000;fill:teal;stroke-miterlimit:128;-inkscape-stroke:none"/><path id="path3020" d="m 614.0084,608.13487 c 0.8477,-1.69551 0.678,-15.76841 0.678,-15.76841 l 0.1696,-7.12121 6.9516,0.16979 6.4431,13.73391 6.443,9.83415 c 0,0 25.4299,0.55648 36.2838,0.33936 16.9548,-0.33862 26.6192,-9.66407 26.6192,-9.66407 l 0.5084,-6.44305 55.2735,-0.33813 c 0,0 -0.3389,-2.3737 1.0172,-2.71281 1.3563,-0.33905 67.14201,-0.1688 67.14201,-0.1688 l 1.01727,-2.2042 c 0,0 11.02076,2e-4 13.73353,0.1699 2.71287,0.16974 5.93439,3.73024 8.13848,4.06938 2.20417,0.3389 7.62983,0.1698 7.62983,0.1698 l 0.16956,-9.32544 8.30794,-0.16955 c 0,0 0.33891,3.39106 1e-4,7.79947 14.58135,2.4e-4 122.08177,0.21851 127.33237,0.51033 3.0519,0.1697 6.2287,2.00753 7.6652,3.51866 1.5978,1.67925 2.58742,4.37952 2.67752,5.80688 4.57799,0.33891 5.59529,1.18691 8.13849,3.73023 2.5433,2.54335 2.0348,8.47772 2.0348,8.47772 0,0 38.9817,5.30147 42.3876,5.42629 11.1782,0.40564 7.6298,-4.74728 20.5156,-3.39082 6.8771,0.7231 73.9242,8.47868 75.6196,8.47875 1.6956,-10e-6 5.7227,0.76776 4.2388,5.08667 -5.976,17.39736 -7.5166,39.9479 -6.9509,46.79647 0.7311,8.85344 -27.2977,-4.06961 -62.5643,-14.58241 -35.2666,-10.51273 -74.2634,-25.09486 -74.2634,-25.09486 0,0 -3.9497,2.20163 -5.9342,6.95162 -2.02629,4.85324 -1.52579,10.6818 -1.52579,10.6818 0,0 12.88629,30.18065 16.27739,35.26729 3.3909,5.08677 -2.0346,5.42564 -2.0346,5.42564 l -23.05881,6.27318 c -2.3737,0.56699 -3.7857,-0.16973 -4.464,-2.59897 -1.0391,-3.72206 -1.5845,-18.42571 -4.29739,-22.49501 -2.71285,-4.0693 -14.75111,-18.14236 -14.75111,-18.14236 l -51.42936,-5e-4 0.0556,-21.13854 c 0,0 -0.16966,0.79216 -3.33265,0.33884 4.9e-4,54.45774 -45.99696,100.84414 -60.69893,108.45756 -3.91187,2.02646 -5.08658,-0.33893 -6.10391,-2.20426 -1.01704,-1.86525 -12.77214,-20.7969 -14.58184,-24.41573 -1.80795,-3.61642 -3.61621,-4.97272 1.80938,-8.58888 41.6344,-27.7587 40.46455,-74.83068 40.46455,-74.83068 0,0 -19.32879,-0.33914 -21.53294,-0.17001 -2.20415,0.16967 -9.48251,6.60158 -13.39437,6.61241 -15.73835,0.051 -18.48114,-7.63017 -30.34966,-7.79988 -5.42968,-0.0774 -62.90316,-4.9e-4 -62.90316,-4.9e-4 l -10e-5,-10.00365 -135.81,0.16783 -0.1699,-13.3947 c 0,0 3.5606,0.16975 4.4083,-1.52596 z m 351.06097,44.84552 -0.091,-17.06655 -35.09698,0.16918 c 1.39576,0.53986 -1.52567,16.61625 -1.52567,16.61625 z" style="fill:#fff;fill-opacity:1;stroke:none;stroke-width:.264583"/><path id="path4" d="M 210.17115 67.733333 L 176.54633 171.22056 L 67.733333 171.22056 L 155.76465 235.17944 L 122.13983 338.66667 L 210.17115 274.70778 L 298.20299 338.66667 L 264.57765 235.17944 L 352.60948 171.22056 L 243.79649 171.22056 L 210.17115 67.733333 z" style="fill:#ffd000;fill-opacity:1;stroke:none;stroke-width:135.467;stroke-miterlimit:128;stroke-dasharray:none;stroke-opacity:1"/></svg>