<svg xmlns="http://www.w3.org/2000/svg" xml:space="preserve" id="svg1" width="4608" height="3072" version="1.1" viewBox="0 0 1219.2 812.8"><defs id="defs1"><style id="style1">.cls-1{fill:#0283c0}.cls-2{fill:#fff}.cls-3{fill:#ef483f}</style></defs><path id="rect1" d="M 0 0 L 0 812.8 L 1219.2 812.8 L 1219.2 0 L 0 0 z" style="fill:#80e0d0;fill-rule:evenodd;stroke:none;stroke-width:8.46667;stroke-linecap:round;stroke-linejoin:round;fill-opacity:1"/><path id="path3" d="M 2432 391.40821 L 2432 780.13282 A 767.99993 767.99993 0 0 1 2968.9297 1152.1016 L 2747.2246 1280.1035 A 511.99998 511.99998 0 0 0 2432 1042.3145 L 2432 2029.6856 A 511.99998 511.99998 0 0 0 2747.2246 1791.8965 L 2968.9297 1919.8985 A 767.99993 767.99993 0 0 1 2432 2291.8672 L 2432 2678.8438 A 1152 1152 0 0 0 3456 1536 A 1152 1152 0 0 0 2432 391.40821 z M 2176 393.15625 A 1152 1152 0 0 0 1152 1536 A 1152 1152 0 0 0 2176 2678.8438 L 2176 2292.1153 A 767.99993 767.99993 0 0 1 1536 1536 A 767.99993 767.99993 0 0 1 2176 779.88478 L 2176 393.15625 z M 2176 1042.2539 A 511.99998 511.99998 0 0 0 1792 1536 A 511.99998 511.99998 0 0 0 2176 2029.7461 L 2176 1042.2539 z" style="fill:#fff;fill-opacity:1;stroke-width:512;stroke-miterlimit:128;paint-order:stroke fill markers" transform="scale(0.26458333)"/></svg>