<svg xmlns="http://www.w3.org/2000/svg" xml:space="preserve" id="svg1" width="4608" height="3072" version="1.1" viewBox="0 0 1219.2 812.8"><defs id="defs1"><style id="style1">.cls-1{fill:#0283c0}.cls-2{fill:#fff}.cls-3{fill:#ef483f}</style></defs><path id="rect1" d="M 0 0 L 0 812.8 L 1219.2 812.8 L 1219.2 0 L 0 0 z" style="fill:#b00020;fill-rule:evenodd;stroke:none;stroke-width:8.46667;stroke-linecap:round;stroke-linejoin:round;fill-opacity:1"/><path id="path2" d="M 609.6 101.6 C 441.26378 101.59999 304.79999 238.06378 304.8 406.4 C 304.79999 574.73622 441.26378 711.20001 609.6 711.2 C 777.93622 711.20001 914.40001 574.73622 914.4 406.4 C 914.40001 238.06378 777.93622 101.59999 609.6 101.6 z M 609.6 152.4 C 749.88019 152.39999 863.60001 266.11981 863.6 406.4 C 863.60001 546.68019 749.88019 660.40001 609.6 660.4 C 469.31981 660.40001 355.59999 546.68019 355.6 406.4 C 355.59999 266.11981 469.31981 152.39999 609.6 152.4 z M 609.6 169.33333 C 559.60098 169.54143 510.9477 185.55269 470.5966 215.07783 L 500.11521 255.70687 C 531.93842 232.58606 570.26441 220.13327 609.6 220.13333 L 609.6 169.33333 z M 748.91759 214.64633 L 719.0574 255.74511 C 750.8631 278.86771 774.5353 311.46292 786.68325 348.86191 L 834.99865 333.16364 C 819.53541 285.56149 789.40281 244.0746 748.91759 214.64633 z M 609.6 237.06667 L 609.6 287.86667 C 634.62812 287.87817 659.0104 295.81171 679.25311 310.5304 L 709.11227 269.43265 C 680.19064 248.40822 645.35594 237.07837 609.6 237.06667 z M 510.312 269.74167 C 481.43132 290.69834 459.90894 320.24296 448.81705 354.15823 L 497.14278 369.86063 C 504.92128 346.15231 519.98309 325.5032 540.18253 310.85493 L 510.312 269.74167 z M 609.6 304.8 C 553.48793 304.8 508 350.28793 508 406.4 C 508 462.51207 553.48793 508 609.6 508 C 665.71207 508 711.2 462.51207 711.2 406.4 C 711.2 350.28793 665.71207 304.8 609.6 304.8 z M 384.50418 333.26183 C 376.7043 356.86287 372.66465 381.54382 372.53333 406.4 C 372.66465 431.25618 376.7043 455.93713 384.50418 479.53817 L 432.45009 463.95979 C 426.40995 445.37039 423.33338 425.94607 423.33333 406.4 C 423.33338 386.85393 426.40995 367.42961 432.45009 348.84021 L 384.50418 333.26183 z M 609.60052 338.66563 L 630.47418 377.66739 L 674.01881 385.46743 L 643.3783 417.37349 L 649.41566 461.19717 L 609.6 441.91618 L 569.78848 461.20027 L 575.82428 417.37297 L 545.18326 385.46794 L 588.72634 377.66739 L 609.60052 338.66563 z M 770.59896 354.08795 L 722.28615 369.78621 C 726.14378 381.60851 728.11698 393.96425 728.13333 406.4 C 728.03533 418.82294 725.98489 431.15326 722.05722 442.93937 L 770.59896 458.71154 C 776.10413 441.81956 778.91667 424.16641 778.93333 406.4 C 778.91673 388.63342 776.10418 370.98008 770.59896 354.08795 z M 497.14278 442.93937 L 448.81705 458.64177 C 459.90894 492.55704 481.43132 522.10166 510.312 543.05833 L 540.18253 501.94507 C 519.98309 487.2968 504.92128 466.64769 497.14278 442.93937 z M 786.68325 463.93809 C 774.5353 501.33708 750.8631 533.93229 719.0574 557.05489 L 748.91759 598.15367 C 789.40281 568.7254 819.53541 527.23851 834.99865 479.63636 L 786.68325 463.93809 z M 679.01747 501.94507 C 658.87928 516.73212 634.58358 524.77787 609.6 524.93333 L 609.6 575.73333 C 645.35617 575.72163 680.19108 564.39155 709.11279 543.36683 L 679.01747 501.94507 z M 500.11521 557.09313 L 470.59608 597.72166 C 510.94727 627.24709 559.60074 643.25854 609.6 643.46667 L 609.6 592.66667 C 570.26441 592.66673 531.93842 580.21394 500.11521 557.09313 z" style="display:inline;fill:#000;stroke:none;stroke-width:67.7333;stroke-miterlimit:128;paint-order:stroke fill markers"/></svg>