<svg xmlns="http://www.w3.org/2000/svg" xml:space="preserve" id="svg1" width="4608" height="3072" version="1.1" viewBox="0 0 1219.2 812.8"><defs id="defs1"><style id="style1">.cls-1{fill:#0283c0}.cls-2{fill:#fff}.cls-3{fill:#ef483f}</style></defs><path id="rect1" d="M 0 0 L 0 812.8 L 1219.2 812.8 L 1219.2 0 L 0 0 z" style="fill:#b00020;fill-rule:evenodd;stroke:none;stroke-width:8.46667;stroke-linecap:round;stroke-linejoin:round;fill-opacity:1"/><path id="path2" fill="#ffe000" d="m 566.4871,101.61058 c -20.43148,-0.6915 -49.94694,32.72996 -56.31294,27.34496 10.05598,-7.48799 27.15447,-29.324957 3.9255,-14.97297 -9.78,2.59499 -25.66947,30.72895 -20.10898,9.04498 -11.72998,4.6605 -29.40146,37.85096 -18.88048,10.25549 -12.78298,1.008 -25.51497,32.19447 -21.89097,9.36449 -9.91949,10.91998 -35.40747,48.97644 -16.37098,15.90148 0.801,-13.24349 -14.90999,13.86448 -19.68148,5.94899 -9.92399,11.41499 -18.26698,37.54946 -26.45097,42.61496 7.96199,-12.79499 7.81799,-26.86347 -2.772,-11.29499 -6.34799,-10.35449 -23.60547,50.26494 -15.08998,14.15998 -10.03949,-8.46599 -13.34248,29.98946 -23.45247,37.64546 -12.81749,17.30998 -17.12248,43.58845 -32.48997,56.62193 -11.94448,14.78099 -0.045,45.52495 -2.93249,57.02844 -1.845,-14.04748 -10.82699,-25.92297 -6.80249,-3.873 -3.243,17.73898 10.56748,60.55043 8.72399,59.37443 -27.61047,-31.70246 18.66297,40.82246 6.17548,28.42497 -16.47298,-26.17947 -13.10998,-2.48999 -0.76799,9.48599 0.95699,1.215 -27.68997,-28.71747 -11.58448,-4.30499 7.69349,11.00699 27.16047,36.06445 4.43849,12.52948 -8.23799,2.775 26.96696,37.20596 26.90396,38.53496 -6.74248,-7.197 -31.24795,-24.07497 -13.74298,-3.9315 8.78849,9.91499 42.61046,39.09596 13.49998,17.59498 -25.32746,-10.54799 31.57197,33.27596 24.43498,30.67197 -10.72649,-8.62199 -32.31596,-16.10249 -11.11649,0.44849 4.7175,13.87048 38.02645,28.73698 36.50095,33.69447 -16.97547,-12.91499 -20.30097,-2.139 -2.49298,4.04099 16.75347,5.74799 22.27197,14.00548 2.30099,3.88949 -21.18148,-0.79799 22.79247,14.73149 29.66246,17.54849 15.76799,4.55999 37.38296,17.24698 8.83649,6.40649 -23.98797,-3.23399 18.49199,14.71798 24.22948,22.29447 23.26797,0.5145 -4.2,9.31949 18.68997,11.81849 21.19649,9.59549 42.42596,20.11198 66.67943,21.45747 13.29448,-1.60949 43.70395,6.78449 12.95098,6.021 -18.08848,2.193 -65.19592,2.14499 -56.81394,25.93947 19.88098,0.99899 57.96294,-17.37448 65.19743,-11.82598 -14.45998,2.26649 -36.06896,27.17996 -7.93498,18.87747 27.04496,-2.433 56.93692,-41.45395 80.3279,-22.19997 7.53299,21.74997 56.16294,38.47945 70.65741,17.10898 -6.55798,-18.17698 -55.89292,-3.621 -45.19494,-25.22997 29.74346,4.24649 58.32293,20.89497 88.5749,18.31947 -2.817,-28.51947 -48.66744,-17.84098 -70.88241,-24.51596 -39.51147,-5.70901 18.37497,-8.019 30.01196,-9.80849 20.54997,-10.317 48.98244,-15.11999 67.75792,-26.00097 -7.20449,-3.606 21.94197,-14.50949 28.12347,-21.76498 17.01748,-4.84049 -2.1885,-11.25298 18.68248,-16.06649 19.94697,-6.09149 25.34396,-18.91947 11.23348,-15.99897 13.32899,-5.30849 43.20896,-25.66047 26.66247,-24.27447 19.14598,-19.96798 29.83946,-48.22645 40.66195,-71.31742 -1.71749,-8.04899 14.11649,-27.96898 10.7625,-37.30496 13.86447,-34.36947 -25.62898,32.28447 -8.09549,-3.501 7.87348,-12.11698 22.82547,-50.58294 4.22999,-20.86948 5.72699,-14.04597 11.52448,-27.13796 4.96499,-33.89545 2.77049,-24.23397 3.25649,-51.88494 -5.05499,-73.79392 0.50999,-29.47197 -10.065,16.37248 -8.27249,-8.66999 2.148,-12.65398 -6.255,-42.95695 -6.34349,-12.98398 -6.054,42.15594 -1.7865,-45.19495 -11.53199,-29.69247 -7.49399,-15.23398 -14.07299,-44.47044 -29.67147,-53.31444 -13.59448,-19.67547 -7.50449,-3.13499 -5.133,8.17499 -5.49598,-19.96498 -27.32996,-50.91894 -39.92995,-53.60243 3.9015,10.36948 28.31247,56.48542 9.41099,26.03246 -9.16199,-12.39299 -17.65798,-37.87345 -32.70896,-39.29395 18.20548,31.73697 -15.56998,-16.60048 -28.61997,-16.09048 -8.39249,-9.03299 -41.86495,-32.40147 -19.37698,-6.558 -15.07198,-10.14449 -60.40793,-29.840957 -63.48142,-18.39148 14.23498,4.869 38.02046,23.43748 8.56349,10.3245 -25.68148,-13.83149 -53.27994,-1.87051 -79.60041,1.81499 10.15799,-8.18998 51.14695,-7.36499 46.60495,-16.77898 -21.10498,-1.173 -57.83694,15.64349 -68.64443,12.46049 10.91999,-2.16 46.59595,-20.216977 15.60448,-12.59999 -13.61397,4.18049 -71.66991,28.28697 -34.25845,5.919 2.41499,-2.71951 23.99097,-9.29999 8.50499,-10.41749 z m 79.58991,17.71947 c 21.26097,2.079 -24.02098,1.557 0,0 z m -28.70997,7.6155 c 6.294,4.26299 -34.72346,4.923 -3.6945,0.2835 l 3.6945,-0.285 z m -65.81393,5.19899 c 20.14798,7.17899 -26.87697,4.776 0,0 z m -22.18047,1.857 c 8.33399,11.12998 -24.89998,13.85698 -3.28499,0.9795 z m 143.85883,1.077 c 34.91246,7.00649 -31.26296,10.03498 0,0 z m -44.21095,0.005 c 21.26099,2.0805 -24.02097,1.55699 0,0 z m 71.38192,0.174 c 39.26996,16.88248 -29.59946,5.175 0,0 z m -113.24987,3.5955 c 26.13897,1.017 53.06994,1.73099 78.38091,8.10749 -11.75698,-1.098 -40.58096,6.03449 -11.80198,6.19049 16.82697,-1.8735 12.13348,15.39448 34.54496,11.62499 12.41099,1.41599 31.04696,2.844 8.37598,4.09948 -26.36847,2.688 20.01148,8.79 30.80997,12.99299 -13.84498,-4.06199 -42.28495,0.54151 -10.77898,5.43 27.43947,8.50649 36.95095,24.41547 64.32292,33.98995 32.00697,17.44799 -38.33396,-14.90997 -5.16899,6.555 10.89898,4.395 51.07494,30.65097 20.59948,14.47649 -28.73997,-7.143 44.00694,29.28746 5.09249,13.85097 3.68099,11.064 18.89847,15.159 0,11.6445 4.13999,9.92398 30.65397,23.24997 14.96698,23.03247 5.90999,10.91699 40.32895,36.96745 12.96749,20.58748 1.78499,9.75748 21.04047,23.68346 5.32948,17.03697 8.0805,11.67299 31.43397,52.93044 9.762,21.91198 -5.82149,-11.83348 -21.03448,-17.69998 -6.936,-0.3375 5.3355,25.25097 16.15349,51.41244 11.79599,77.31592 0.093,13.39498 1.7745,27.53996 -3.19349,6.07349 -5.184,11.75248 3.75449,54.15143 -10.42199,27.63146 -3.58049,17.22598 -14.89499,50.93094 -24.49048,55.70844 -9.61049,12.68099 -24.25946,38.37446 -41.65195,51.87744 -14.67448,15.81148 -28.36496,14.96098 -42.28495,29.41797 -23.87397,-0.765 -44.87545,26.89197 -65.29042,40.69495 2.16449,-3.294 32.53796,-32.88897 5.52299,-14.08499 -21.91947,25.16697 -59.86943,-5.98649 -78.53691,14.78849 -17.39998,-9.58499 -42.19195,-24.04197 -58.47293,-31.35597 3.75599,22.51648 -27.64497,-21.06597 -33.33296,-7.68298 -13.95298,-19.16098 -41.18095,-24.07648 -46.71145,-30.41397 -1.29,-6.45 -15.22498,-20.33548 -9.88498,-5.13899 -6.4875,-8.388 -13.791,-25.32897 -12.92549,-9.30899 -4.6875,-11.316 -15.46948,-36.65246 -14.61149,-19.10549 -12.40498,-20.21247 -17.21998,-49.42044 -24.73196,-67.82242 -4.35451,23.28897 -0.522,-50.37594 -7.6815,-11.50948 0.3285,-11.18699 -3.19949,-44.08945 -5.53499,-14.16448 -6.78,19.28997 -0.699,-28.16698 1.137,-36.69747 0.76499,-5.33549 -13.63499,21.42149 -5.871,0.55951 2.925,-6.78449 10.60649,-33.18297 0.5745,-23.84847 7.962,-14.51549 13.33499,-38.50046 -1.31699,-12.8625 -9.006,15.09299 8.98498,-25.64397 15.05998,-29.23196 21.46197,-34.04246 -34.10397,32.45547 -9.357,-0.87 10.25099,-11.53198 44.05946,-56.86193 12.72749,-29.29646 -0.15,0.072 32.24547,-38.09996 7.434,-19.52998 -20.69249,18.26998 10.94698,-13.96198 16.30348,-19.84348 9.26849,-13.39799 -23.99848,10.93499 -3.1995,-6.10949 11.40599,-9.76499 23.90997,-20.82897 5.38499,-13.66949 6.7725,-11.00248 44.59945,-22.10247 39.88196,-28.16546 -37.46996,11.82599 24.38996,-11.26349 31.94996,-19.61398 -15.32098,2.412 -32.71496,5.90249 -8.45999,-3.9435 20.07148,-10.45948 50.28594,-24.32247 63.80993,-30.72296 -13.82699,1.29 -36.91796,2.24249 -10.30199,-2.7375 11.72699,-1.98149 65.37592,-11.29499 27.08246,-11.87999 -43.39045,0.47101 70.91843,-6.53249 19.07249,-14.05048 1.91699,-2.65499 7.39498,-0.726 10.06048,-1.60049 z m -37.87495,1.6155 c 18.70947,9.11698 -27.36747,3.07199 0,0 z m -49.39194,0.0195 c 6.14699,18.25498 -25.35298,15.19798 0,0 z m 228.79323,2.1645 c 30.62097,15.99447 -6.85499,17.44048 0,0 z m -33.02996,5.58899 c 11.79298,-4.215 28.70396,11.30699 6.26399,6.37949 0.69151,0.4905 -15.52948,-6.59399 -6.26399,-6.37949 z m -177.45279,0.70799 c 14.83948,8.976 -25.91397,4.905 0,0 z m -38.44796,0.3285 c 4.49099,16.49998 -28.40997,26.18098 -7.6335,4.95301 l 4.611,-3.8445 z m 271.05569,4.32751 c 13.85698,1.14149 18.05997,27.29997 1.91999,8.65648 0.711,0.2145 -6.25049,-8.28599 -1.91999,-8.65499 z m -24.94047,4.79999 c 46.48794,14.83498 -35.31896,8.34448 0,0 z m -221.37425,0.34499 c 14.87998,5.4645 -34.42346,9.13799 -8.63699,0.71701 l 4.42199,-0.579 z m -46.87045,2.28001 c 5.57399,11.83648 -20.12398,26.41197 -6.42599,5.13749 l 3.3075,-3.6465 3.11849,-1.4895 z m 22.70248,8.08348 c 17.35048,2.9865 -31.60947,17.11198 -10.72949,1.6455 l 5.07749,-1.3455 z m 292.20716,0.8865 c 13.79249,0.60001 21.74097,24.62848 4.69199,8.10899 3.58501,1.79251 -8.69249,-7.31098 -4.69199,-8.10899 z m -25.46697,2.391 c 32.27996,7.5375 -8.69099,9.97199 -12.28199,3.25499 4.0065,-1.36199 7.971,-3.13499 12.28199,-3.25499 z m -308.83464,9.93749 c -1.431,23.55448 -17.41799,12.70499 0,0 z m 22.18947,0.8565 c 4.64849,10.76699 -33.19646,9.37199 -4.665,0.402 z m 310.66915,1.467 c 28.82696,2.619 -9.4905,16.40847 -5.604,0.879 z m 21.96297,2.63549 c 17.17498,7.8135 15.04498,29.32348 0.7095,6.81599 -0.282,-0.954 -4.6845,-6.40649 -0.7095,-6.81599 z m -370.71258,7.87799 c 10.64999,10.95449 -19.32897,28.16248 -5.42099,6.29549 l 2.97149,-4.43099 z m 23.56198,2.733 c 23.19597,-4.90499 -20.51998,18.30749 -14.23049,5.073 3.549,-3.9375 9.18899,-5.022 14.23049,-5.073 z m 338.1566,2.43 c 14.63549,-0.051 28.79547,21.60147 5.235,8.63099 -2.691,-0.9855 -15.65998,-7.9575 -5.235,-8.63099 z m -28.16546,2.796 c 18.42298,4.33649 5.11949,8.93699 0,0 z M 647.436,211.76496 c -14.43748,11.58298 6.46499,32.18245 3.006,6.07799 -0.546,-1.944 -0.5505,-5.2665 -3.006,-6.0765 z m 171.91781,0.288 c 19.22698,7.46249 8.11498,37.08295 0.46949,8.43149 1.42501,-0.882 -4.73999,-7.90499 -0.46949,-8.43149 z m -209.86026,0.18 c -13.94999,9.67948 10.30499,28.73097 3.2415,2.0925 l -1.347,-1.575 -1.8945,-0.519 z m -175.0498,0.28049 c 3.50549,9.438 -32.74346,15.67949 -10.01249,2.93251 l 5.55899,-2.10901 4.455,-0.8235 z m 142.85984,1.0305 c -13.46549,14.45698 10.42798,27.15147 2.78549,2.3895 l -1.1805,-1.7805 z m -170.03081,0.65101 c 6.7275,16.39198 -16.15349,20.19597 0,0 z m 137.09534,1.84199 c -10.63199,13.07098 11.95048,40.38746 5.091,8.62199 -1.04251,-2.89199 -1.49701,-7.494 -5.091,-8.62199 z m 137.91284,2.76 c -12.69598,7.23599 -1.79849,38.31146 3.8325,13.14748 -0.1575,-3.64499 1.293,-11.77199 -3.8325,-13.14898 z m 117.53537,0 c 40.08145,11.42248 0.447,20.48547 0,0 z m -406.72454,6.56249 c 1.335,14.13149 -19.88247,37.93196 -9.61199,10.63349 2.91301,-3.79949 6.396,-7.101 9.6135,-10.63349 z m 21.03748,4.02 c 7.425,9.82198 -32.84246,19.31097 -7.66799,3.65399 l 3.114,-1.99199 z m 99.48738,7.79549 c -1.30199,15.68098 4.104,56.86193 18.02998,64.74442 -2.63099,-21.72897 -10.89748,-45.80245 -18.02998,-64.74442 z m 199.98878,0 c -15.86849,8.17949 1.47749,34.50596 3.55199,8.66248 0.38551,-2.61 0.83551,-8.67598 -3.55199,-8.66248 z m 97.57488,0.15899 c 18.15598,-0.81749 28.94097,27.46498 5.92499,8.703 -0.40499,-0.9945 -11.31297,-7.88099 -5.92499,-8.703 z m 33.90147,10.34399 c 17.02047,4.005 9.11249,37.60196 0.11104,11.03099 -0.663,-2.9355 -5.325,-10.00799 -0.11104,-11.03099 z m -447.76899,0.4095 c 4.32,14.93548 -30.97496,29.67747 -10.40548,7.5315 3.13799,-2.904 6.20998,-6.135 10.40548,-7.5315 z m -22.41297,4.092 c 10.36499,7.68899 -16.16998,39.59996 -8.7,11.67299 1.74001,-4.092 3.129,-10.95749 8.7,-11.67299 z m 206.03376,3.903 c -6.42899,23.83947 2.62199,51.58344 3.3135,76.80441 4.42049,31.46546 3.6855,63.97342 11.09398,94.80738 11.01899,-15.48597 -2.10899,-52.86143 -1.18499,-76.47591 -3.9075,-31.62446 -3.918,-64.36042 -12.40049,-95.01289 z m -29.47497,0.25499 c -3.18299,14.09998 0.135,50.87545 12.71399,54.46494 -2.37899,-17.84998 -2.6655,-39.44545 -12.71399,-54.46494 z m -66.29692,4.467 c -3.63899,13.84349 9.17399,51.20244 19.69347,58.31994 0.27,-19.61849 -9.32698,-41.72396 -19.69347,-58.31994 z m 122.71036,0.4005 c -4.1115,25.37397 2.136,58.15943 0.9645,86.38039 1.9935,30.21147 -2.04,61.21794 3.26999,90.91941 9.66599,-24.31348 3.432,-56.59194 5.0715,-83.84541 -2.124,-30.70046 1.5,-63.17993 -6.76499,-92.73139 l -1.4085,-0.5895 z m 137.26334,4.85099 c -22.36497,22.00198 11.39398,22.03348 0,0 z m 90.27439,0.39451 c 17.75999,0.414 21.41998,27.17996 2.61,8.27248 -1.11,-1.125 -9.15599,-8.63999 -2.61,-8.27248 z m -192.16027,4.84198 c -8.11499,25.78648 -5.89199,55.99494 -9.58949,83.48691 2.01599,20.77647 -12.67049,67.47893 3.306,74.06092 2.04449,-51.05844 9.15149,-102.15439 8.17798,-153.32083 l -0.774,-3.13499 z m 221.90974,0.5175 c 10.46249,13.13699 -11.37898,30.58497 -4.1865,6.1725 0.87601,-1.9185 1.24501,-5.952 4.185,-6.1725 z m -483.11944,2.6925 c 7.89148,11.49149 -30.63447,33.01047 -10.39499,9.6495 3.05999,-3.21 5.77799,-8.5245 10.39499,-9.6495 z m -25.13397,0.78001 c 13.19098,14.49898 -6.1845,35.94446 -2.94,7.46549 0.822,-1.6245 -0.1395,-7.44749 2.94,-7.46549 z m 104.41488,9.15448 c -15.90149,9.75 22.66497,52.13394 10.47299,18.31348 -3.1695,-6.2505 -5.75399,-13.00498 -10.47149,-18.31497 z m 380.39656,4.2405 c 16.32298,-0.855 28.95746,27.46197 7.2675,9.97948 0.1035,-0.85049 -13.36499,-8.53048 -7.2675,-9.97948 z m -170.96981,1.60499 c -9.37349,25.24797 -7.74748,54.26844 -13.60948,80.90991 0.432,12.92698 -14.15398,57.97943 -2.589,53.60694 10.212,-42.90745 15.92249,-87.1574 19.31999,-131.12084 l -1.584,-2.76151 z m 102.76939,2.031 c -17.28148,8.946 -4.8195,43.58395 1.83599,11.99399 0.75001,-3.486 4.4325,-11.57099 -1.83599,-11.99399 z m 100.34088,2.62501 c 8.63399,8.97598 -2.13149,33.50845 -2.7825,8.58748 1.4535,-1.662 -0.477,-7.4175 2.7825,-8.58599 z m -496.64943,0.0225 c 2.814,14.98197 -31.58996,23.01896 -8.14348,4.10699 l 3.00749,-2.10451 z m -30.53546,9.10798 c 15.07048,11.40599 -2.4765,39.05395 -3.057,8.20499 l 1.1145,-5.49749 1.9425,-2.709 z m 506.39342,7.19999 c 14.14198,-0.045 24.01797,25.53297 5.26799,8.63999 -0.729,-1.23899 -9.56998,-6.49949 -5.26799,-8.63999 z m -535.32538,0.3375 c 4.57798,6.216 -3.17551,8.71349 0,0 z m 374.47156,4.344 c -11.99548,36.63296 -19.31997,74.90391 -26.70597,112.70537 16.34248,-5.343 14.38649,-46.45495 22.36798,-65.66392 1.05,-14.50049 15.26097,-34.95147 4.33799,-47.04145 z m -329.50461,2.62503 c 10.46998,11.71498 -28.53297,38.75995 -8.481,10.21798 2.4705,-3.65399 4.55399,-7.82698 8.47949,-10.21798 z m 80.32489,3.4665 c -8.18398,17.66998 24.03148,28.26747 0,0 z m 348.44511,1.78499 c -15.08248,6.08699 -18.11998,49.87044 -3.5925,17.67748 0.195,-4.2525 10.92899,-15.69748 3.5925,-17.67748 z m 88.6814,1.155 c 10.73999,26.71647 -11.57099,24.14247 0,0 z m -544.51888,2.691 c 14.15848,8.81848 7.83299,39.78295 -0.2205,11.94298 -0.4785,-3.75599 -2.877,-8.69698 0.2205,-11.94298 z m 522.5439,2.70299 c 21.09148,2.754 13.52699,32.08497 1.05599,7.17449 0.009,-1.176 -4.73998,-6.22049 -1.05599,-7.17449 z m 45.42745,5.1645 c 4.37099,5.69699 -4.4715,15.55048 0,0 z m -334.43662,3.55799 c -9.04799,21.88798 -1.7595,54.39744 11.15399,74.00091 -0.468,-24.31197 -2.385,-51.81743 -11.15399,-74.00091 z m -208.71725,3.513 c 2.97599,13.68898 -22.58548,28.88097 -7.44299,5.73899 l 4.14148,-4.21499 3.303,-1.5225 z m 527.24639,3.19049 c 10.18199,13.65599 -12.78748,29.71498 -2.781,4.308 l 1.38299,-3.20699 z m -78.09891,6.903 c -13.07249,2.27699 -39.04645,57.74243 -16.60348,31.81796 4.11299,-9.44849 20.74797,-21.64498 16.60348,-31.81796 z m -379.43057,0.005 c -10.22248,12.16198 23.84098,35.38796 8.77949,9.33148 -2.409,-3.51299 -4.62449,-7.53299 -8.77949,-9.33299 z m 433.729,0.75899 c 16.17299,3.087 18.84898,37.73397 4.3515,11.91299 -1.014,-3.28949 -5.595,-8.82599 -4.3515,-11.91299 z m -153.11982,2.763 c -5.65349,23.95197 -25.24797,53.45094 -20.85298,75.24742 11.166,-21.22648 28.00197,-50.95795 20.85298,-75.24742 z m -377.88557,0.099 c 14.54549,9.73499 6.003,36.44846 -1.11899,9.01949 1.01099,-2.00549 -1.6875,-7.14449 1.11899,-9.01949 z m 216.13925,5.05799 c -12.68398,10.491 13.91699,48.28795 5.5515,14.86049 -1.542,-4.67549 -1.1595,-11.60549 -5.54999,-14.86049 z m -194.93077,8.769 c 10.02599,14.40448 -21.03597,44.29194 -8.89649,10.76998 2.0445,-4.1055 3.7755,-9.67499 8.89649,-10.76998 z m 535.71239,3.22049 c 10.30049,11.37449 -16.56899,28.91997 -4.21951,5.7285 l 2.17501,-4.194 z m -26.58298,1.44601 c 17.29049,5.50348 13.40849,38.57395 1.779,9.61498 -0.015,-2.8245 -4.452,-6.98549 -1.779,-9.61498 z m -534.00838,3.17399 c 10.11899,12.23998 12.16048,53.92044 0.1155,19.74748 -1.1175,-6.54749 -0.312,-13.16999 -0.1155,-19.74748 z m 495.33993,2.2515 c -25.10847,22.18797 -43.38896,51.85494 -66.36592,76.49991 -11.04599,7.35449 -31.18497,48.09445 -36.89096,36.83846 9.32248,-12.67798 25.45647,-44.60995 3.58199,-18.81899 -5.35799,17.61899 -28.58247,23.20048 -11.57548,0.1575 -1.863,-11.50798 -21.60898,26.20197 -18.73948,1.52401 4.93799,-16.08599 -18.47548,14.82448 -16.49998,-7.9995 -5.40299,-2.8215 -21.04797,13.96799 -15.28498,-6.40799 -7.45499,-1.8075 -13.67248,18.96298 -15.50999,-3.5895 -19.29298,13.94399 24.56247,25.17897 38.78246,31.12197 32.23347,14.96249 60.98993,38.88146 76.73991,71.15692 21.63898,6.85799 -19.39948,-34.01696 11.87999,-35.81996 12.60448,-10.81349 54.04944,-33.28797 45.70345,-41.71945 -23.44797,12.63898 -43.04395,34.64245 -68.23043,42.53995 16.68448,-21.17998 42.65695,-37.11896 62.71043,-56.53794 11.70599,-6.07799 29.25897,-35.29646 5.673,-15.63598 -25.54497,20.63998 -48.76495,45.08095 -77.26642,61.53293 21.69298,-28.36797 50.32495,-51.52194 73.65891,-78.88491 13.8405,-7.39349 24.01498,-34.81496 2.94151,-13.59598 -29.84547,26.41496 -52.49994,60.61943 -85.51491,83.41641 5.625,-22.25698 35.62946,-48.78895 51.73495,-71.38942 10.92898,-17.67448 38.12545,-35.42246 38.47195,-54.38844 z m -454.53248,9.79048 c 0.018,13.94549 -10.00048,12.67049 0,0 z m 53.18244,2.07601 c 4.91699,22.48196 29.56797,41.84844 43.05745,62.21092 10.70999,16.62298 34.97246,35.56196 35.64296,52.62745 -32.65946,-23.10898 -55.91844,-56.92644 -85.58691,-83.49592 -12.50547,5.712 26.69247,36.13497 36.58346,49.37095 9.74699,13.28549 42.98696,37.08145 35.67896,46.82995 -30.20846,-21.45598 -55.65893,-49.28245 -86.3729,-69.79792 3.5775,20.03997 39.18146,36.67345 56.02794,54.74243 10.78348,6.48749 41.30095,36.80996 11.00398,21.93148 -8.49898,-10.15349 -37.82094,-18.37049 -14.91897,-1.2585 6.85949,7.57499 29.36396,10.96499 16.27498,23.00097 -12.79199,11.52899 -8.16899,38.72245 4.31399,12.87449 19.93948,-38.79446 57.89244,-63.20843 97.3064,-79.04841 18.91497,-7.002 -5.22,-35.68946 -3.69,-7.4745 -16.21348,-1.41899 -12.07799,-42.94044 -27.80997,-41.02644 3.093,8.75998 20.35197,47.97594 8.71499,41.54545 -12.44999,-17.90699 -23.99248,-65.01293 -37.52696,-65.68193 7.88849,25.40998 26.26047,51.40495 27.71247,76.43391 -17.72999,-20.93547 -26.11047,-50.51694 -44.35046,-70.07991 -2.75398,24.23246 24.58498,48.53844 33.64497,72.49941 -14.77798,-1.2135 -30.08847,-43.47445 -47.33695,-57.41393 -12.75898,3.1605 18.26848,33.81445 24.08697,46.43395 9.6765,9.44549 13.8675,33.19946 -1.431,11.77948 -26.11946,-31.11146 -50.73444,-63.50692 -76.78341,-94.63039 l -4.24049,-2.3715 z m 467.86296,5.23199 c 12.64499,13.07248 -17.06998,32.27996 -5.53199,6.19199 0.68549,-2.4345 2.12549,-6.56549 5.53199,-6.19199 z m -535.10338,1.2195 c 7.26299,13.88698 -20.17498,34.26596 -6.69299,6.95099 l 3.56999,-4.89 3.1245,-2.06099 z m 507.39242,2.1345 c 11.44498,4.08148 24.20847,34.21795 3.54299,17.06547 -2.91,-4.66949 -6.03299,-11.62949 -3.54299,-17.06547 z m -529.68239,15.02398 c 17.90247,9.04799 8.72549,30.36596 -1.9305,8.52299 -0.50101,-2.31 -2.1255,-7.9095 1.9305,-8.52299 z m 21.83547,3.75299 c 9.19499,7.6635 -8.84099,35.42245 -4.35,9.24449 0.87901,-2.907 0.6165,-7.99499 4.35,-9.24449 z m 537.28438,2.4975 c 1.05,15.25498 -23.86497,22.25247 -6.15749,4.2525 l 3.87299,-3.08551 z m -27.98247,2.595 c 12.81299,6.38549 8.3775,39.43195 0.582,11.86948 -0.48899,-3.1005 -4.956,-10.12049 -0.582,-11.86948 z m -532.71538,10.48798 c 15.16648,1.3335 21.04948,37.00646 5.53498,12.12299 -1.35898,-3.105 -7.42348,-8.80499 -5.53498,-12.12299 z m 28.01097,8.0565 c 9.07798,14.49298 -7.42499,38.87695 -3.633,8.22298 1.1565,-2.00999 0.69,-7.03498 3.633,-8.22298 z m 525.61888,3.07649 c 7.9605,13.37998 -24.17996,23.03697 -5.63998,3.723 l 3.22499,-2.682 z m -26.33247,0.9855 c 17.69999,8.22899 1.53301,39.26845 -0.32249,8.07599 0.4095,-2.27399 -2.028,-6.075 0.32249,-8.07599 z m -521.16239,12.77099 c 15.02249,0.603 25.00647,29.71796 5.87999,10.99948 -0.966,-1.8165 -10.48799,-9.02549 -5.87999,-10.99948 z m 29.94297,8.28148 c 9.10048,10.5375 -4.3935,42.02996 -4.8435,12.61499 0.88049,-4.1865 0.747,-10.24048 4.8435,-12.61499 z m 485.77294,0 c 9.63598,12.279 -5.47049,32.03097 -2.619,6.4245 0.687,-1.935 0.1845,-5.39999 2.619,-6.4245 z m 24.33447,3.5955 c 4.218,9.68399 -26.83947,31.09947 -10.87949,8.64899 2.82299,-3.29249 5.77649,-8.58899 10.87949,-8.64899 z m -532.18289,6.90749 c 13.52398,4.9545 15.58498,26.52147 21.79797,34.13396 -17.37298,-6.26249 -14.12248,-22.45497 -24.82947,-33.45746 z m 497.32293,9.06749 c 13.76249,9.64499 -4.5195,34.27946 -3.6015,7.60349 0.387,-1.7865 0.24,-7.54199 3.59999,-7.60349 z m 48.36294,1.719 c -4.32299,13.02899 -24.28947,23.35498 -5.91,4.75949 l 2.439,-2.33399 3.471,-2.4285 z m -513.9759,4.66499 c 16.77747,11.289 -3.3525,32.57097 -3.669,5.745 l 1.134,-4.0575 z m 490.49043,0.57001 c 7.28249,13.64548 -36.05546,28.06196 -9.55499,5.48099 l 5.27249,-3.7545 4.2825,-1.725 z m 5.00999,15.48748 c -4.61699,10.71298 -21.37197,15.58498 0,0 z m -42.77995,0.31799 c 12.18449,12.80999 -9.78448,39.89846 -3.97949,9.9015 l 1.71,-6.2805 z m -466.73496,7.278 c 20.32348,2.23799 17.51698,23.40447 0.47999,5.18999 -1.16998,-0.4755 -3.86548,-5.18999 -0.47999,-5.18999 z m 28.47746,1.4205 c 11.35949,12.16949 -4.42499,29.54697 -2.96998,3.74849 l 1.43098,-2.817 z m 462.13747,0.477 c 7.51799,12.59998 -33.59996,23.64446 -8.38498,4.88249 l 5.05949,-3.537 z m 19.16998,3.63599 c -6.02699,9.84748 -33.46796,30.40197 -12.52499,10.50299 4.038,-3.65249 7.881,-7.58999 12.52499,-10.50299 z m -53.72543,10.69649 c 4.07699,24.59997 -19.93798,23.18997 0,0 z m -439.642,2.43149 c 16.09798,4.59 15.40798,19.34998 -1.01699,5.802 -3.402,-0.537 -3.7365,-7.53599 1.01699,-5.802 z m 461.36647,2.625 c 9.37799,9.12149 -34.65446,12.63749 -5.33699,0.795 z m -434.3785,2.625 c 20.27098,18.84748 -7.674,25.19397 0,0 z m 397.95704,3.9405 c 4.62,14.83948 -11.63248,30.96296 -3.36449,7.11449 z M 386.9313,553.1831 c 16.47599,-0.663 23.54998,20.90248 3.726,7.07098 0.72749,0.96001 -9.41549,-7.07699 -3.726,-7.07098 z m 442.72899,1.6965 c 4.99349,11.26048 -37.26746,21.98997 -10.74448,4.53748 l 6.09599,-3.20249 z m -410.92153,1.31249 c 13.06949,8.60399 13.04249,31.21497 1.9215,6.56549 l -1.91999,-6.56549 z m 360.4871,9.58499 c -2.01451,10.12349 -13.2555,17.60398 -3.282,3.39 z m 11.43748,2.6205 c 5.25299,21.73497 -18.62698,27.10346 0,0 z m -382.35556,2.235 c 41.11945,10.37249 -12.54449,11.58748 0,0 z m 29.10297,0.93449 c 22.34247,17.07298 -5.865,27.93897 0,0 z m 374.65456,4.317 c 0.099,12.42449 -33.22496,9.80399 -5.06248,0.963 z m -360.08058,6.6885 c 10.67099,7.30798 13.07998,32.11945 -0.4095,9.17849 l -0.7845,-5.805 z m 373.12307,1.953 c -13.03948,12.02698 -20.75547,5.20198 0,0 z m -404.12053,1.86149 c 42.41845,10.93648 -24.07648,5.92049 0,0 z m 353.83458,0 c 7.575,12.68999 -20.87996,23.17948 -2.27399,1.8045 l 2.2755,-1.8045 z m -305.42065,7.87799 c 14.50499,8.30999 11.2605,28.13697 -0.35849,6.14549 0.20099,-0.462 -2.56199,-5.87099 0.36,-6.14549 z m 283.88518,0 c 7.82399,10.82998 -24.22647,22.60348 -4.37249,2.313 z m 39.66445,2.646 c -1.64999,12.67948 -31.66195,5.94749 -5.79149,1.041 z m -352.77558,2.60549 c 18.43947,-1.73549 23.81247,17.72999 2.31599,7.296 -3.345,-0.0555 -10.49698,-7.81649 -2.31599,-7.296 z m 45.18744,3.84 c 14.22748,2.865 21.00298,30.64197 3.7095,10.83148 -1.7745,-2.646 -6.9135,-7.80448 -3.7095,-10.82998 z m 247.33771,1.677 c 8.74649,12.53249 -24.62996,25.19997 -7.23599,5.64 l 4.0605,-4.0995 z m -24.62397,0.021 c -5.80199,13.96048 -19.64247,13.48949 -2.34749,1.3935 l 2.34749,-1.395 z m 57.05243,5.00999 c 29.43297,5.583 -36.71844,16.12499 -7.37248,0.62701 l 3.46199,-0.45601 z m -293.66815,5.2095 c 39.25495,7.263 -33.04496,4.899 0,0 z m 38.98045,2.9385 c 27.65997,11.53948 4.974,27.54747 0,0 z m 199.30627,0.37949 c 3.4305,12.99599 -36.77545,25.75948 -9.27749,4.0275 l 5.14049,-2.9295 z m 33.68996,2.07751 c 5.76749,13.38298 -34.47145,6.80999 -4.0245,0.55649 z m -51.93893,2.48099 c -11.91749,17.01898 -21.21449,15.20548 0,0 z m -204.40327,2.625 c 38.48245,5.82599 -32.58747,5.04599 0,0 z m 55.14294,2.62649 c 16.57347,8.4975 7.42498,25.34398 -2.4705,5.349 -2.406,-1.7595 -0.885,-6.597 2.4705,-5.349 z m 14.81248,5.3445 c 13.64399,0.1815 23.96847,29.91446 5.4135,11.83948 -1.15351,-1.92299 -10.6755,-9.21448 -5.4135,-11.83948 z m 159.73182,0.7995 c 14.48848,12.90748 -39.26696,4.34399 -8.799,1.07699 l 5.97899,-0.83549 z m -114.07188,1.251 c 13.17899,8.56349 28.28697,16.23448 36.10346,12.92098 -5.76749,30.66297 -35.61296,-2.79149 -36.10346,-12.92098 z m -87.51589,0.82499 c 29.15996,7.5255 -31.42797,5.676 -4.197,0.252 z m 15.89548,7.5345 c 47.97744,6.70349 -25.27198,11.13299 0,0 z m 149.92482,0.21899 c 42.22195,6.19049 -29.97896,11.0895 0,0 z m 25.12948,7.99499 c 12.24449,0.594 -6.21,3.86401 -3.55349,0.549 z m -146.80034,0.216 c 25.71148,-0.32549 -0.53399,14.68049 -2.796,0.28651 l 2.796,-0.285 z m 123.69887,2.37001 c 25.53147,2.16899 -28.06198,1.49099 0,0 z m -82.82542,18.30747 c -2.16149,12.86399 -18.06747,9.483 0,0 z m 94.5614,3.48149 c 14.40148,-4.40098 67.15342,16.52699 27.07797,10.4595 -6.01499,-2.1855 -32.44947,-5.217 -27.07797,-10.4595 z m -51.77244,0.0405 c 12.22498,14.826 -9.56549,22.03499 0,0 z m -86.2889,2.16 c -5.898,1.33051 -54.28194,15.62549 -49.27495,8.976 15.29549,-7.24049 32.61147,-8.43449 49.27495,-8.97749 z m 17.08498,7.896 c -3.339,9.46948 -38.27546,21.67797 -13.33499,6.62399 4.32,-2.442 8.6025,-5.0295 13.33499,-6.62399 z m 92.21689,9.90899 c 14.29199,-2.757 43.15045,15.11098 13.01998,7.97398 -2.15399,-0.084 -27.85946,-8.48248 -13.01998,-7.97398 z" style="fill:#ffd000;fill-opacity:1;stroke-width:1"/><path id="path5" d="m 614.86363,226.52493 c -31.51722,-0.57398 -62.80178,8.82102 -89.4271,25.70367 -11.02197,4.60649 -2.36402,13.74747 5.16597,5.23049 39.61341,-6.77848 81.46974,-2.3702 117.85966,15.14675 39.54142,18.68097 61.1219,60.66912 72.23688,100.93803 5.78697,19.80746 0.2786,43.11134 -17.52335,54.99432 -9.52048,6.48898 -25.14582,7.3997 -38.6773,5.8322 -17.68646,-1.845 -35.93224,-2.244 -51.44221,7.54198 -16.42196,-9.48598 -29.58466,-23.94 -44.22462,-35.94897 -9.59998,-11.69847 -29.60546,-18.89869 -31.13996,-34.68916 10.50447,-16.22547 28.24794,-26.58886 38.73891,-42.91482 -10.03348,-12.31798 -22.71715,-26.3312 -37.67212,-31.5632 -14.38047,9.58799 -31.5632,18.20694 -42.81018,31.25391 -9.42598,1.9485 -16.34398,-8.83008 -23.50496,-14.02008 l -28.56162,28.575 12.19518,15.23513 c -9.13498,10.97997 -20.02791,20.8366 -26.83789,33.48457 9.61047,13.21949 22.79226,23.51231 35.13274,34.13978 16.15046,14.68048 28.28872,-16.13805 43.09969,-21.24405 14.74346,11.06698 27.85623,24.21248 41.5527,36.54545 9.78148,11.61297 28.30654,20.90251 31.43703,34.93798 -14.58447,18.97947 -34.28277,33.22399 -50.79923,50.43646 -13.94546,9.36447 -25.44741,37.76342 -3.47246,44.50891 4.96349,1.09199 10.26345,1.6741 15.26593,0.48311 26.12544,-20.27096 44.7491,-48.6434 70.00155,-69.86086 24.74994,17.07147 44.11648,40.93052 68.78242,58.18948 13.86448,14.28297 41.09542,-5.04321 31.51494,-22.33817 -20.56946,-24.47095 -47.51249,-42.66747 -68.63244,-66.60291 -12.16047,-17.14347 15.78033,-9.33859 23.98982,-5.4206 33.77843,15.80847 78.33286,6.87256 101.59031,-22.81838 22.10095,-26.96544 17.30252,-63.79473 12.78003,-95.76567 -6.14999,-20.96845 -17.92949,-40.11017 -31.72946,-57.10813 -10.90798,-14.53648 -23.60844,-28.04525 -40.0679,-35.60074 -24.53695,-14.77496 -52.79246,-23.69867 -81.3119,-26.41815 -4.49905,-0.49613 -9.0066,-0.78133 -13.50906,-0.86333 z" style="color:#000;fill:#000;fill-opacity:1;stroke:none;stroke-width:1.00013;stroke-linecap:round;stroke-linejoin:round;stroke-dasharray:none"/><path id="path7" d="m 577.69962,245.5389 c -8.55837,0.23501 -21.29714,5.35844 -5.38049,4.9555 31.31244,0.8805 63.76034,7.19531 90.70028,23.78227 34.88843,24.67495 61.76376,63.07976 68.27374,105.70518 4.22999,23.36544 -9.15405,49.14729 -32.77299,55.59427 -9.37349,5.475 -29.27993,0.73227 -33.19043,6.33625 13.05597,4.49999 28.13995,2.50795 41.41492,-0.11104 17.29946,-4.2345 29.60093,-19.61707 33.04043,-36.59253 5.48999,4.91848 -16.09536,39.37479 -0.0815,21.87133 6.62699,-7.41748 11.45115,-26.56171 15.10663,-28.6122 3.15,4.58999 8.89942,-6.76968 7.16992,6.36879 6.26848,-9.55797 17.56206,-22.25263 11.59057,-38.2186 -4.263,-34.60042 -21.35699,-71.3425 -54.79491,-86.24647 -6.52649,-3.5595 -17.80513,-8.47522 -7.05015,1.69175 -0.585,7.36199 -16.54003,-10.57046 -14.42354,-6.98097 5.77198,10.46548 19.37204,9.03579 24.73453,18.50527 5.65199,13.08597 -16.19358,-15.25193 -7.4321,1.29004 4.96949,4.84199 9.01764,16.86019 -0.19534,6.00021 -2.571,-6.95698 -25.16675,-24.83283 -11.50628,-9.12036 5.901,4.37398 12.37498,22.56751 1.96501,8.70004 -28.24495,-38.47792 -78.01035,-53.20468 -123.85175,-54.68968 -0.95625,-0.19632 -2.09404,-0.26264 -3.31665,-0.22905 z m 176.62759,75.22156 c 13.64247,22.68895 7.24981,49.27032 5.57583,74.03676 l -2.42428,-22.88407 c -1.37099,-16.98896 -4.15055,-34.14872 -3.15155,-51.15269 z m -8.33147,2.29056 c 4.82907,0.45281 10.58835,21.85379 -0.44009,6.76935 1.251,11.55897 11.15952,34.12813 9.56803,50.84108 -0.3795,13.92298 -2.65957,-1.03695 -2.92657,-6.27345 -0.558,-16.37546 -9.78543,-31.28971 -9.17793,-47.59768 0.79763,-2.83246 1.86216,-3.8438 2.97656,-3.7393 z m -6.12927,18.76746 c 0.56304,-0.33069 1.68495,1.57177 3.38932,7.46001 3.54149,7.00348 4.45634,24.67185 -0.91215,7.15189 l -0.74647,-2.46439 c -2.05499,-4.84218 -2.66911,-11.59636 -1.7307,-12.14751 z m -6.30834,5.19212 c 1.59077,-0.0458 5.9325,9.21652 3.0347,13.11257 -1.425,-1.66049 -1.89581,-3.8893 -2.56031,-5.90079 v -0.002 c -1.35187,-5.2453 -1.19747,-7.1892 -0.47439,-7.21003 z m -267.41507,15.42289 c -10.84798,2.2425 -33.51424,19.58967 -28.13375,28.09015 3.12599,-0.8415 5.8709,-2.5768 8.57389,-4.28229 v 10e-4 c 5.5545,-5.6145 27.82034,-18.71352 19.55986,-23.80902 z m 299.58811,4.58345 c 0.9085,-1.1553 2.66445,13.77583 -0.0727,15.87171 -0.34499,-2.74799 -0.33779,-5.51964 -0.35579,-8.28263 -0.0832,-5.03099 0.12563,-7.20397 0.42847,-7.58908 z m -25.874,0.4866 c 0.92406,-1.89917 0.46347,26.43424 -0.8674,7.10248 0.36703,-4.6156 0.65414,-6.66421 0.8674,-7.10248 z m 8.47215,11.25687 c 0.89472,-0.78813 2.47513,16.1935 -0.15173,17.20825 -0.3255,-3.07199 -0.32413,-6.1652 -0.33313,-9.24769 -0.0352,-5.46112 0.18662,-7.69785 0.48486,-7.96056 z m -307.37194,16.0653 c -0.83564,0.0298 -1.67453,0.13788 -2.51612,0.33137 7.36799,9.37198 23.6851,28.97128 34.42057,25.89029 -7.61623,-9.54701 -19.36984,-26.66969 -31.90445,-26.22166 z m 278.608,12.80736 c -0.90452,2.37762 -1.99432,4.67846 -3.27132,6.874 1.27698,-2.19554 2.36682,-4.49637 3.27132,-6.874 z m 40.34347,3.40444 c -2.40052,0.80928 -5.59828,20.53032 1.25108,5.54094 l 0.15,-2.42079 c -0.33582,-2.48652 -0.84712,-3.30691 -1.40108,-3.12015 z m -48.00928,9.71045 c -0.82669,0.97759 -1.701,1.92117 -2.62251,2.82774 0.92161,-0.90667 1.79573,-1.85004 2.62251,-2.82774 z m 36.46056,8.03266 c -2.84821,-0.0879 -1.10229,8.67264 4.4102,3.86778 -2.001,-2.82562 -3.46079,-3.83849 -4.4102,-3.86778 z" style="color:#000;display:inline;fill:gray;stroke:none;stroke-width:1;stroke-linecap:round;stroke-linejoin:round;-inkscape-stroke:none"/></svg>