<svg xmlns="http://www.w3.org/2000/svg" xml:space="preserve" id="svg1" width="4608" height="3072" version="1.1" viewBox="0 0 1219.2 812.8"><defs id="defs1"><style id="style1">.cls-1{fill:#0283c0}.cls-2{fill:#fff}.cls-3{fill:#ef483f}</style></defs><path id="rect1" d="M 0 0 L 0 812.8 L 1219.2 812.8 L 1219.2 0 L 0 0 z" style="fill:#b00020;fill-rule:evenodd;stroke:none;stroke-width:8.46667;stroke-linecap:round;stroke-linejoin:round;fill-opacity:1"/><path id="path4" d="M 609.6 101.6 A 304.79999 304.79999 0 0 0 304.8 406.4 A 304.79999 304.79999 0 0 0 609.6 711.2 A 304.79999 304.79999 0 0 0 914.4 406.4 A 304.79999 304.79999 0 0 0 609.6 101.6 z M 609.6 152.4 A 253.99999 253.99999 0 0 1 863.6 406.4 A 253.99999 253.99999 0 0 1 609.6 660.4 A 253.99999 253.99999 0 0 1 355.6 406.4 A 253.99999 253.99999 0 0 1 609.6 152.4 z M 688.96828 203.20207 C 680.86532 203.11657 671.81452 205.49251 664.57856 203.60101 C 651.55409 212.93548 653.97622 243.7157 630.2313 231.81324 C 615.67084 229.46574 597.37544 239.98087 594.66344 219.85997 C 577.93101 200.58051 558.07993 223.4327 539.61047 225.55367 C 525.58253 230.02667 508.77611 232.07067 497.13555 241.04524 C 496.30398 241.68634 495.49924 242.36292 494.72329 243.07819 C 493.94752 243.79328 493.2006 244.54713 492.48622 245.34316 C 492.48922 247.84628 491.65588 249.33884 490.25638 250.21057 C 489.32338 250.79172 488.13867 251.09676 486.78217 251.24151 C 479.32145 252.03763 466.66375 247.97975 462.10254 258.27778 C 448.36711 273.76671 465.00931 292.30353 482.54574 283.50156 C 495.5297 284.48106 479.07317 302.35991 486.95116 310.77638 C 495.85513 331.87381 480.30661 349.1165 474.32764 368.22042 C 465.33668 390.45485 458.05678 414.98114 464.09725 438.98406 C 466.11625 461.53349 460.53339 485.32373 470.94335 506.55616 C 477.08282 525.67659 487.94615 546.72615 509.29708 551.51414 C 528.60501 560.58161 550.21097 562.47925 571.2349 563.49325 C 591.36483 571.91724 613.83358 574.72363 635.339 575.11063 C 653.00443 584.69559 657.18031 616.17007 683.9567 608.3701 C 710.49463 606.5716 732.05714 586.38899 741.8896 562.62457 C 750.49806 542.41964 768.93296 521.67617 759.5955 498.66775 C 749.08054 478.52582 749.15107 451.33796 730.30064 436.71753 C 711.38871 428.81257 687.3077 428.14366 668.36127 436.84362 C 653.14534 442.80459 656.2938 470.2156 635.53537 462.76814 C 613.02195 461.41064 595.87242 480.29241 574.89049 481.50291 C 560.35406 466.64995 570.11569 436.308 554.97026 418.40857 C 540.4878 405.96611 555.4145 386.11827 551.88053 369.31234 C 553.601 352.70141 550.22593 331.65329 563.3899 319.32935 C 579.74583 308.55939 609.31527 302.59347 605.5248 277.12055 C 605.4648 267.44184 611.34668 264.45186 618.85267 263.31468 C 620.72914 263.03038 622.70744 262.86153 624.71949 262.73332 C 630.75561 262.34866 637.09779 262.32684 641.92516 260.62699 C 663.25959 262.23646 656.61059 290.06102 670.66552 301.79398 C 679.98649 321.62841 704.18436 312.71714 704.01336 292.75371 C 711.22233 265.92779 707.8066 238.17907 704.8531 211.03518 C 700.9981 204.82521 695.26978 203.26957 688.96828 203.20207 z" style="display:inline;fill:#ffd000;fill-opacity:1;stroke:none;stroke-width:135.467;stroke-miterlimit:128;paint-order:stroke fill markers"/></svg>