<svg xmlns="http://www.w3.org/2000/svg" xml:space="preserve" id="svg1" width="4608" height="3072" version="1.1" viewBox="0 0 1219.2 812.8"><defs id="defs1"><style id="style1">.cls-1{fill:#0283c0}.cls-2{fill:#fff}.cls-3{fill:#ef483f}</style></defs><path id="rect1" d="M 0 0 L 0 812.8 L 1219.2 812.8 L 1219.2 0 L 0 0 z" style="fill:#b00020;fill-rule:evenodd;stroke:none;stroke-width:8.46667;stroke-linecap:round;stroke-linejoin:round;fill-opacity:1"/><path id="path2" d="m 713.94908,410.85356 c -38.78551,0 -70.5211,7.83431 -86.85761,21.07782 -2.037,1.6845 -5.56317,4.19076 -9.67617,7.09027 -23.74202,17.00251 -67.85734,48.54168 -68.09284,81.3347 -0.3135,3.486 -2.31141,33.38141 11.40009,48.19092 a 26.014538,26.014538 0 0 0 19.82516,8.46151 22.410033,22.410033 0 0 0 16.80754,-6.50426 c 8.93251,-9.24601 8.15005,-25.62259 7.48405,-38.82561 a 62.685092,62.685092 0 0 1 0,-13.67281 c 7.20901,-9.16802 22.87921,-22.72501 33.53521,-22.72501 a 6.112509,6.112509 0 1 0 0,-12.22174 c -17.78701,0 -37.33655,19.82344 -43.37106,27.42393 -3.525,4.42651 -3.17268,11.7542 -2.66418,21.78319 0.50999,10.02902 1.21546,24.32999 -3.91605,29.77497 a 9.8730145,9.8730145 0 0 1 -7.83596,2.66575 A 13.51652,13.51652 0 0 1 569.9313,560.24 c -8.77649,-9.44249 -8.8952,-31.34227 -8.1902,-39.17828 v -0.3899 c 0,-26.68201 42.54911,-57.12308 63.00012,-71.73758 4.42649,-3.1725 7.836,-5.64152 10.2645,-7.56001 14.02501,-11.44201 43.5269,-18.29736 78.94491,-18.29736 27.42452,0 49.87536,12.41998 63.97836,22.8405 17.70902,13.04701 73.6174,13.28138 79.76889,13.28138 a 6.112509,6.112509 0 1 0 0,-12.22409 h -0.58833 c -22.29303,0 -61.00053,-2.93805 -71.73604,-10.85207 -15.6705,-11.754 -40.70736,-25.26903 -71.42288,-25.26903 z m 143.43331,157.57511 c -8.03098,0.195 -78.98225,1.95897 -93.59675,5.52448 -9.82135,2.40957 -27.08982,-1.47105 -34.34524,-3.55794 4.0972,4.03822 9.03526,9.14663 13.61469,15.396 a 127.29018,127.29018 0 0 0 13.01241,1.20766 42.625563,42.625563 0 0 0 10.4614,-1.13558 c 11.24398,-2.74198 69.46234,-4.62298 90.93335,-5.13149 a 6.150009,6.150009 0 0 0 6.03295,-6.27015 6.1905092,6.1905092 0 0 0 -6.3469,-5.99422 z m -347.90252,2.5859 c -10.46101,0 -20.25666,9.67636 -28.13166,17.47337 l -1.52705,1.56735 a 116.43918,116.43918 0 0 0 -17.63073,21.50879 c -9.4035,15.67201 -5.68045,24.44687 -0.89994,29.14788 a 16.965025,16.965025 0 0 0 12.10471,5.09427 20.725531,20.725531 0 0 0 6.15002,-1.09684 20.21553,20.21553 0 0 0 4.66561,21.39175 22.096532,22.096532 0 0 0 15.98199,6.69884 25.662037,25.662037 0 0 0 6.97555,-1.01933 20.45103,20.45103 0 0 0 20.05928,23.82262 32.988049,32.988049 0 0 0 18.13923,-6.73914 18.688528,18.688528 0 0 0 3.91837,17.15944 15.162022,15.162022 0 0 0 11.75202,5.17257 c 18.21899,0 43.09706,-27.42659 50.34505,-45.21359 5.09401,-12.49801 1.84206,-19.23561 -1.80144,-22.64361 a 17.904026,17.904026 0 0 0 -12.57599,-4.97568 v -0.15736 a 21.627031,21.627031 0 0 0 -5.68261,0.82166 34.398051,34.398051 0 0 0 3.91991,-14.41619 22.488033,22.488033 0 0 0 -6.97477,-16.41608 18.963028,18.963028 0 0 0 -13.55579,-5.64153 25.975538,25.975538 0 0 0 -9.9118,2.15414 20.96103,20.96103 0 0 0 -7.36547,-15.00454 c -9.9135,-9.051 -21.3523,-6.07349 -31.3423,0 v -1.56734 a 17.160025,17.160025 0 0 0 -5.48728,-12.61552 15.867024,15.867024 0 0 0 -11.12491,-4.50593 z m 212.12223,8.9359 a 6.072009,6.072009 0 0 0 0.86353,0.85498 c -0.32723,-0.33154 -0.54873,-0.54063 -0.86353,-0.85498 z m -212.04472,3.20988 a 3.5250053,3.5250053 0 0 1 2.54712,1.1356 4.9365073,4.9365073 0 0 1 1.60534,3.91758 c 0,7.52251 -9.16715,20.05943 -18.37565,29.14944 l -2.23165,2.23397 c -4.8195,4.85701 -13.7913,13.94665 -19.5903,13.90615 a 4.3875065,4.3875065 0 0 1 -3.33003,-1.52703 c -3.17251,-3.09452 0.39327,-10.26464 2.78277,-14.22165 a 107.85916,107.85916 0 0 1 15.67039,-19.11901 l 1.60687,-1.56735 c 5.25002,-5.211 14.02463,-13.9077 19.31514,-13.9077 z m 33.28794,13.38603 c 0.20099,-0.003 0.3996,-4.9e-4 0.59609,0.009 2.0895,0.093 3.89389,0.85689 5.45239,2.27739 2.35049,2.154 7.16963,6.58186 -1.99989,17.98188 a 283.13741,283.13741 0 0 0 -10.10715,9.44284 151.03372,151.03372 0 0 0 -22.9591,28.16963 c -5.172,4.30951 -14.14291,9.67513 -20.88093,3.05565 v -0.15737 c -7.20899,-7.1295 6.30707,-26.8366 22.91957,-43.0951 12.06901,-11.81401 20.74502,-17.58744 26.97902,-17.68344 z m 31.71052,18.50509 a 6.3075093,6.3075093 0 0 1 4.74002,2.03709 10.225515,10.225515 0 0 1 3.3688,7.83442 c 0,11.98951 -16.88569,28.40573 -24.0947,35.26224 l -1.7247,1.68439 c -0.9,0.86251 -1.84102,1.8418 -2.85952,2.86029 -6.89549,6.97352 -18.45264,18.64851 -26.87515,18.64851 a 7.8360115,7.8360115 0 0 1 -5.64307,-2.54557 h 0.0387 c -7.83451,-7.64101 6.50417,-28.56169 24.09469,-45.9182 2.625,-2.58601 6.11236,-6.03326 9.91336,-9.32426 l 0.51005,-0.393 c 6.228,-5.328 13.20196,-10.14591 18.53146,-10.14591 z m 22.40951,35.53355 v 10e-4 a 5.5635082,5.5635082 0 0 1 3.91838,1.60535 c 0.89999,0.86249 0.93885,4.11449 -1.13715,9.24751 h 0.11864 c -6.7395,16.494 -28.48541,37.53109 -38.82791,37.53109 a 2.9385044,2.9385044 0 0 1 -2.42855,-0.9387 c -4.73999,-5.3685 3.2134,-20.21688 19.3159,-36.08389 7.20752,-7.09052 14.33973,-11.3629 19.04073,-11.3629 z" style="display:inline;stroke-width:1"/><path id="path3" d="m 417.70315,67.745153 c -23.00998,0 -35.54839,10.83991 -40.82438,16.950904 -3.25719,-2.502746 -7.07723,-4.1706 -11.12697,-4.858102 -11.12599,-1.879998 -22.93189,3.265224 -31.57688,13.739213 -9.17589,11.320702 -13.33602,25.894962 -11.51868,40.353612 -11.62299,7.33999 -22.4622,19.40638 -22.4622,38.94336 0.0337,12.86837 4.26052,25.37516 12.0401,35.62573 -28.99098,11.83199 -47.98005,38.0822 -48.99805,39.4932 -0.131,0.209 -0.21019,0.4168 -0.31419,0.6258 v 0.18293 c -0.17257,0.44212 -0.26952,0.91012 -0.2868,1.38441 v 0.31368 c 0.008,0.4643 0.0967,0.92369 0.26096,1.35806 7.78733,16.07545 20.86349,28.98576 37.03702,36.56727 -19.00525,5.76424 -38.75082,8.72036 -58.6109,8.77466 -5.88243,-0.44868 -5.88243,8.62493 0,8.17625 31.10697,0 52.9949,-6.63404 72.29688,-12.48503 14.02599,-4.231 26.11873,-7.83621 38.70772,-7.83621 26.11997,0 39.18029,13.06034 39.38829,13.37334 l 5.27462,5.17901 c 2.50091,-1.98014 4.94062,-3.84019 7.28844,-5.57382 v -61.32339 c 0.0331,-2.68316 4.04159,-2.68316 4.07469,0 v 58.34941 c 1.10185,-0.79435 2.2877,-1.65894 3.29127,-2.37763 2.12058,-1.49492 3.61443,-2.60636 4.98884,-3.65559 v -9.55911 c 2.00688,1.87177 4.15639,3.5845 6.42907,5.12269 2.44061,-1.40892 5.27444,-2.65171 8.29923,-3.80339 -6.21417,-3.68012 -11.30674,-8.98566 -14.72933,-15.34531 v -11.25823 l 18.75389,-0.83509 7.64915,23.94066 c 2.60562,-0.59359 5.33457,-1.10668 8.17366,-1.54771 l -7.30757,-22.83789 12.84987,-0.5736 12.39665,21.74854 c 2.25882,-0.0844 4.51238,-0.17467 6.8523,-0.17467 h 0.001 c 0.87233,0 1.72802,0.0384 2.58641,0.0703 l -12.59045,-22.1666 26.32811,-1.17564 18.54512,29.85399 -2.44688,1.07229 c 3.22387,1.5419 6.17043,3.20352 8.88267,4.90771 0.47624,-0.21525 0.95167,-0.4323 1.42627,-0.65113 h 0.20773 c 19.01101,-9.53782 35.66688,-23.17814 48.76499,-39.93606 0.12545,-0.20699 0.23034,-0.42576 0.31316,-0.65319 0.0853,-0.1309 0.1557,-0.27096 0.2098,-0.41755 l -0.0527,0.078 c 0.15636,-0.46262 0.23579,-0.94776 0.23513,-1.43609 v -0.21033 c -0.0426,-0.40544 -0.1483,-0.80174 -0.31316,-1.1746 -0.0628,-0.15608 -0.14194,-0.30505 -0.23616,-0.44442 0,-0.156 -0.15593,-0.33974 -0.25993,-0.46974 -17.28857,-19.6522 -40.26507,-33.43633 -65.74173,-39.43997 7.81485,-6.69874 12.37991,-16.42857 12.53671,-26.72033 0,-15.66998 -10.05605,-26.11777 -14.96705,-30.13976 1.49538,-3.5539 2.32781,-7.35144 2.45618,-11.205 -0.006,-11.91934 -5.48523,-23.17578 -14.86214,-30.53406 -7.00394,-5.546631 -15.39775,-9.06136 -24.26415,-10.1601 V 92.664046 C 453.30954,76.864719 436.10835,67.351665 417.70315,67.746187 Z m -0.23513,8.096664 0.0791,0.130224 c 13.45622,-0.27868 26.27972,5.703727 34.71209,16.193844 -6.12997,-0.115907 -12.25585,0.391755 -18.28312,1.515153 h -0.7059 c 0,0 -0.15713,-2.92e-4 -0.23513,0.129708 -0.25317,0.117494 -0.49009,0.267218 -0.70487,0.445451 -0.0925,0.04244 -0.17999,0.09495 -0.26096,0.156579 -2.12126,2.004642 -4.35396,3.887971 -6.68745,5.641004 -3.474,-8.722996 -9.89861,-13.685991 -18.2826,-13.685991 -8.44712,-0.273383 -16.49768,3.586153 -21.5744,10.343038 -0.83609,-2.139286 -1.9048,-4.180187 -3.18688,-6.085933 3.65699,-4.569996 14.18317,-14.783077 35.13015,-14.783077 z m -56.18727,11.74812 c 1.03,0.005 2.05232,0.09313 3.06132,0.266134 3.76001,0.588706 7.21123,2.429389 9.79475,5.22397 1.0135,1.138872 1.89021,2.392459 2.61224,3.735173 -1.66189,0.977673 -3.24289,2.086744 -4.72788,3.316596 -2.07763,1.96858 -3.6077,4.44355 -4.44004,7.18199 -7.13022,4.24613 -13.43841,9.74037 -18.62315,16.2202 -6.37696,1.30045 -12.58214,3.33399 -18.49189,6.06009 -0.60182,-11.19035 2.96165,-22.20714 10.003,-30.925243 l 0.12971,0.02635 c 5.897,-7.129993 13.47395,-11.141265 20.68194,-11.105265 z m 45.7662,7.109127 v 10e-4 c 6.425,0 9.61081,4.98801 11.22981,10.080006 -4.83041,2.78304 -10.40911,3.98875 -15.95768,3.44889 -4.11595,-0.66332 -7.96485,-2.46294 -11.11302,-5.19607 3.43009,-5.389127 9.45676,-8.559741 15.84089,-8.333859 z m 47.53612,5.615156 c 8.98499,0.444 19.37995,2.6118 26.95494,8.93279 7.51503,5.78227 11.94714,14.70426 12.01477,24.18612 -0.23922,5.64219 -2.41616,11.02944 -6.16396,15.25385 -4.65,-27.97297 -23.89965,-39.70121 -27.94765,-41.79021 -0.81679,-1.90351 -1.9665,-3.64611 -3.39514,-5.14594 -0.45465,-0.51136 -0.94342,-0.99133 -1.46296,-1.43661 z m -16.03726,1.69758 c 4.23421,0.50543 8.20113,2.33346 11.33625,5.22397 2.17139,2.51567 3.12652,5.859 2.61173,9.14207 -0.784,9.11499 -11.51865,29.87992 -30.08964,38.75991 -14.28598,6.844 -29.82707,5.22434 -46.17805,-5.01365 -2.01253,-7.33092 -2.95401,-14.91441 -2.79518,-22.5149 l 0.15709,0.0258 c 6.4,5.22399 16.58579,11.98812 27.31978,12.38012 6.80796,0.25069 13.41954,-2.30877 18.28416,-7.07812 14.05198,-13.24199 18.28286,-24.78725 19.35386,-30.92524 z m -57.77477,2.16834 c 4.9913,6.44086 12.23034,10.75978 20.26904,12.0928 1.37409,0.2084 2.76188,0.31342 4.15169,0.31419 8.09528,-0.30529 15.91219,-3.03533 22.43739,-7.83621 -3.54639,6.89719 -8.31702,13.09227 -14.07924,18.28312 -3.26559,3.25764 -7.74525,5.00034 -12.35377,4.80591 -11.49199,-0.392 -23.19395,-10.94399 -26.95495,-14.62598 0.261,-2.09 0.52284,-4.2059 0.88884,-6.3469 0.37939,-1.64809 1.18014,-3.16946 2.32389,-4.41524 h 0.0522 c 1.01899,-0.85229 2.11158,-1.6125 3.26492,-2.27169 z m 79.95016,13.58212 c 7.39199,5.95499 19.30166,19.27571 19.30166,43.59268 0,17.62999 -5.58982,30.40228 -16.19281,36.90628 -2.06907,0.27409 -4.11933,0.67517 -6.13916,1.20096 -0.10388,-0.0118 -0.20876,-0.0118 -0.31264,0 -3.61451,0.91319 -7.15149,2.10958 -10.57817,3.57807 l -1.48931,-0.34003 c -0.0777,-0.0131 -0.15696,-0.0131 -0.23461,0 -0.078,-0.0111 -0.15714,-0.0111 -0.23513,0 -0.392,0 -37.55889,-4.5172 -57.93187,-31.18517 -2.30684,-3.01388 -4.3352,-6.23103 -6.06009,-9.61182 7.46239,3.52432 15.59506,5.40368 23.84712,5.51078 l -0.0522,0.0522 c 7.42422,0.003 14.75378,-1.66613 21.44417,-4.88446 20.63398,-9.89899 33.22303,-32.1255 34.63303,-44.81948 z m -95.04743,0.73173 c -1.31469,11.70383 -0.31151,23.55199 2.95227,34.86816 0.0418,0.25066 0.11185,0.49578 0.20877,0.7307 2.44252,8.06513 6.30818,15.62826 11.4143,22.33197 16.24598,21.23498 41.16302,29.56721 54.48401,32.65021 -8.91797,5.24951 -17.29121,11.37373 -24.99589,18.28209 -1.19788,-0.47349 -2.47298,-0.72141 -3.76101,-0.73123 v -0.0791 c -1.23943,0.0238 -2.46626,0.25366 -3.63027,0.68006 -3.213,-3.86599 -16.53407,-17.86604 -43.28005,-22.75003 -13.50398,-21.31298 -17.99595,-40.71969 -13.26896,-57.61767 3.42022,-11.33815 10.38711,-21.28024 19.87683,-28.3652 z m -23.16655,15.17375 c -1.83072,3.48049 -3.30114,7.13888 -4.38836,10.9182 -4.96299,17.68298 -1.30605,37.34988 10.78694,58.53286 -2.821,-0.21 -5.7197,-0.36587 -8.77569,-0.36587 -6.73415,-0.002 -13.43477,0.94794 -19.90318,2.82102 -7.6435,-9.21247 -11.86926,-20.78291 -11.96206,-32.75304 l 0.20929,0.0258 c 0,-14.52199 7.12989,-25.85791 21.23488,-33.71991 4.07108,-2.24656 8.35897,-4.07557 12.79818,-5.4591 z m 152.71781,18.38803 c 6.62494,5.79983 10.55719,14.08064 10.86497,22.88026 l -0.0258,0.1049 c -0.23286,10.3808 -6.1397,19.79783 -15.38407,24.52615 -4.63954,-0.70919 -9.31241,-1.17989 -14.00018,-1.41025 6.373,-7.15699 11.72693,-18.5979 11.72693,-36.80189 v -2.11615 c 2.55511,-2.10952 4.8446,-4.52152 6.81819,-7.18302 z m -25.77982,54.01427 c 5.79298,0.003 11.57889,0.40488 17.31677,1.202 l -29.90618,37.03701 -12.97957,0.56999 17.94154,-37.97287 c 2.50807,-0.5334 5.06338,-0.81352 7.62744,-0.83613 z m 26.61491,2.82102 c 5.59749,1.22121 11.10411,2.82699 16.48065,4.80591 l -20.37291,29.0959 -24.31583,1.07228 z m -44.92387,1.25419 -16.58607,35.07796 -18.12602,0.80977 v -13.58315 c 10.37974,-9.14275 22.08284,-16.66269 34.71209,-22.30458 z m -112.88717,0.80977 h 1.72393 c 3.68752,0.002 7.37211,0.20755 11.03705,0.61495 l 13.04468,34.64491 h -18.23092 z m -8.44909,0.86919 -10e-4,0.001 7.40627,34.38963 H 317.95527 L 300.48089,223.8839 c 8.85342,-5.96784 18.82899,-10.07105 29.31914,-12.05973 z m 30.59813,1.21957 h 10e-4 c 21.46898,4.67499 32.36003,15.67138 35.23403,19.01537 v 14.15573 h -22.64513 z m 159.95303,3.84007 c 3.68059,1.6369 7.28039,3.44974 10.78694,5.43223 l -10.7611,19.22415 -17.83974,0.78393 z m 17.81286,9.74204 c 6.03695,3.94475 11.70977,8.42046 16.95091,13.37387 l -25.04809,1.12344 8.09718,-14.49627 z m -244.51685,2.11615 13.67668,17.47284 h -32.23007 c 5.60097,-6.41432 11.81492,-12.26637 18.55339,-17.47284 z m 261.4936,19.32802 c -4.53057,4.98041 -9.40941,9.63251 -14.59963,13.92112 l -9.69036,-12.85038 z m -34.26768,1.51516 13.18989,17.47283 c -5.05881,3.71425 -10.37408,7.06591 -15.906,10.02988 l -16.55972,-26.64075 z m -176.06832,4.75371 h 18.28312 l -13.39867,22.749 c -7.52207,0.3454 -14.98402,1.51036 -22.25342,3.47421 l 0.10542,-0.10491 z m -71.4096,0.0253 h 34.6599 l -14.60014,20.89589 c -8.01289,-5.5582 -14.83323,-12.66282 -20.05976,-20.89589 z m 99.40996,0.0269 h 23.1407 v 11.10009 c -3.62971,6.93069 -9.25127,12.61597 -16.14062,16.32355 l -0.0274,0.0274 c -6.58026,-2.50594 -13.4837,-4.06254 -20.50263,-4.62297 z m -54.72121,0.0258 h 10e-4 16.74317 l -19.40812,29.253 c -0.007,0.0696 -0.007,0.13969 0,0.20929 l -3.47421,1.0449 h -0.078 l -1.12293,-0.52297 c -3.53953,-1.31589 -6.97885,-2.88702 -10.29084,-4.70101 z m 77.57511,25.04809 v 11.72693 c -2.33908,-1.95959 -4.84768,-3.70745 -7.49619,-5.22294 v -0.0269 c 2.70544,-1.90754 5.21631,-4.07707 7.49619,-6.47712 z m 33.02899,44.04795 c 2.18201,2.63232 0.34752,6.61954 -3.07113,6.67505 -0.54367,0 -1.11205,0.069 -1.69085,0.1695 l 53.01485,52.1994 1.20199,1.14928 c 4.257,4.1 15.67088,14.99191 15.67088,23.1929 0.0477,1.97983 -0.76129,3.88395 -2.2195,5.22397 -1.90327,1.9847 -4.51223,3.13906 -7.26106,3.21272 -5.71999,0 -11.07506,-4.88506 -12.22406,-5.98206 -2.403,-2.455 -4.8059,-4.56981 -6.6859,-6.1898 -0.80999,-0.73 -1.49037,-1.3049 -1.90737,-1.7229 l -17.91674,-17.65732 -5.85132,5.77329 17.89141,17.62994 c 0.496,0.496 1.3057,1.20092 2.2717,2.06292 3.866,3.343 12.90318,11.2052 13.06018,17.16019 0.006,1.50952 -0.64206,2.94766 -1.77611,3.94395 -1.5131,1.69202 -3.68555,2.64477 -5.9552,2.61172 -4.25799,-0.20899 -8.56678,-4.25658 -9.87278,-5.79757 -1.22541,-1.60552 -2.56066,-3.12414 -3.99614,-4.54495 l -21.52168,-21.23539 -5.85132,5.77329 21.5222,21.23488 c 2.8961,2.50317 5.07684,5.72935 6.32002,9.34981 0.66846,2.78665 -0.35231,5.70694 -2.61121,7.47035 -4.07499,4.022 -10.16006,1.123 -12.22406,0 -1.00929,-1.71214 -2.22866,-3.29139 -3.62975,-4.70101 -5.01499,-4.90999 -17.83996,-19.14618 -17.96996,-19.30218 -1.52806,-1.67445 -4.11246,-1.82531 -5.82497,-0.34003 -1.71767,1.48182 -1.88248,4.0857 -0.36535,5.77226 0.548,0.575 13.06013,14.5487 18.28312,19.6417 2.03364,1.94786 3.41962,4.47358 3.9703,7.23521 0.4722,2.54593 -0.40772,5.15481 -2.32544,6.89467 -0.81057,0.76371 -1.88956,1.17704 -3.00292,1.15032 -2.6658,0 -8.89893,-1.91787 -20.54241,-13.44983 -1.25744,2.25802 -2.85934,4.60972 -4.63538,6.96185 10.15487,9.80711 18.45168,14.66867 25.22999,14.74071 3.291,0.0412 6.46127,-1.23805 8.80204,-3.55173 3.06485,-2.93515 4.8083,-6.98778 4.83175,-11.23135 1.40513,0.32401 2.84199,0.49041 4.28398,0.49609 4.09427,0.0682 8.04177,-1.52395 10.943,-4.41368 3.06778,-2.78702 4.93953,-6.65198 5.22397,-10.78694 1.45833,0.50675 2.97845,0.81408 4.5191,0.91364 h 0.75706 c 4.35216,-0.0702 8.49347,-1.88668 11.49284,-5.04104 2.74428,-2.58322 4.26324,-6.20979 4.17907,-9.97768 -0.0457,-1.0307 -0.19472,-2.0542 -0.44493,-3.05511 1.10233,0.21601 2.22101,0.33806 3.34398,0.36483 h 0.25993 c 4.93629,-0.0152 9.65287,-2.0429 13.06019,-5.61464 3.02146,-2.85251 4.70819,-6.8414 4.64984,-10.99623 0,-11.59699 -12.69367,-23.76903 -18.09967,-28.99203 l -0.0791,-0.0532 -1.12293,-1.09658 z m -172.44477,55.48189 c -8.93999,-0.187 -15.27412,1.00523 -15.94011,1.13223 -2.22924,0.42104 -3.68541,2.58159 -3.23908,4.80591 0.47103,2.19092 2.60438,3.60559 4.8059,3.18688 0.392,0 38.81288,-7.28663 60.07386,19.61534 1.26368,1.50341 2.6104,2.93501 4.03386,4.28811 0.57057,-1.35116 1.25537,-2.76687 2.18333,-4.31343 0.70519,-1.02456 1.4349,-2.03203 2.1885,-3.02152 -0.62755,-0.62876 -1.23573,-1.27657 -1.82367,-1.94252 H 308.5 c -15.21499,-19.29498 -37.35678,-23.44 -52.25676,-23.751 z" style="display:inline;fill:#fff;fill-opacity:1;stroke-width:.666666" transform="matrix(1.5000022,0,0,1.5000022,-0.05175621,-0.00172183)"/></svg>