<svg xmlns="http://www.w3.org/2000/svg" xml:space="preserve" id="svg1" width="4608" height="3072" version="1.1" viewBox="0 0 1219.2 812.8"><defs id="defs1"><style id="style1">.cls-1{fill:#0283c0}.cls-2{fill:#fff}.cls-3{fill:#ef483f}</style></defs><path id="rect1" d="M 0 0 L 0 812.8 L 1219.2 812.8 L 1219.2 0 L 0 0 z" style="fill:#b00020;fill-rule:evenodd;stroke:none;stroke-width:8.46667;stroke-linecap:round;stroke-linejoin:round;fill-opacity:1"/><path id="path1-3" d="M 67.733333,67.733333 157.35145,222.95555 H 95.955553 v 42.33334 H 180.62221 V 293.5111 H 95.955553 v 42.33334 h 84.666657 v 70.55555 h 56.44447 v -70.55555 h 84.66666 V 293.5111 h -84.66666 v -28.22221 h 84.66666 V 222.95555 H 260.33743 L 349.95554,67.733333 H 284.77865 L 208.84444,199.25588 132.91023,67.733333 Z m 391.083797,0 -18.18323,20.8902 -25.48681,-10.83741 14.24979,23.747047 -18.18324,20.89105 26.98804,-6.2115 14.24977,23.74703 2.43224,-27.58918 26.98801,-6.2115 -25.48681,-10.837407 z m 44.53045,77.092617 3.91621,27.41694 -24.86414,12.19736 27.28604,4.7482 3.91621,27.41434 12.94667,-24.48171 27.28343,4.74735 -19.2822,-19.87734 12.94668,-24.4843 -24.86671,12.19736 z m 15.42111,110.48338 -7.6085,26.63056 -27.67531,0.99305 22.97447,15.4633 -7.6085,26.6306 21.80919,-17.07131 22.97189,15.46245 -9.49726,-26.01479 21.80917,-17.0713 -27.67789,0.99305 z m -61.4209,78.66356 -17.29955,21.62489 -25.914,-9.7703 15.22044,23.13637 -17.29955,21.62574 26.70722,-7.326 15.22304,23.1364 1.28501,-27.66584 26.7055,-7.32511 -25.914,-9.7703 z" style="display:inline;fill:#ffe000;fill-opacity:1;stroke-width:8.712"/></svg>