<svg xmlns="http://www.w3.org/2000/svg" xml:space="preserve" id="svg1" width="4608" height="3072" version="1.1" viewBox="0 0 1219.2 812.8"><defs id="defs1"><style id="style1">.cls-1{fill:#0283c0}.cls-2{fill:#fff}.cls-3{fill:#ef483f}</style></defs><path id="rect1" d="M 0,0 V 812.8 H 1219.2 V 0 Z" style="fill:#904020;fill-opacity:1;fill-rule:evenodd;stroke:none;stroke-width:8.46667;stroke-linecap:round;stroke-linejoin:round"/><path id="path3" d="M 1024 239.99986 C 994.75886 240.41806 965.56531 242.5061 936.56247 246.25377 L 914.23826 378.57798 C 876.91567 385.27584 840.26138 395.27759 804.70961 408.4647 L 718.61716 304.30845 C 665.09556 327.92863 614.44675 357.58761 567.65883 392.70689 L 614.10024 517.42564 C 584.86082 541.86163 557.86167 568.86078 533.42576 598.10012 L 408.70701 551.65871 C 373.58765 598.44672 343.92867 649.09537 320.30857 702.61705 L 424.46482 788.70949 C 411.27763 824.26134 401.27588 860.91563 394.5781 898.23814 L 262.25388 920.56236 C 258.50621 949.56513 256.41817 978.75868 255.99997 1007.9999 C 256.41817 1037.2402 258.50621 1066.4344 262.25388 1095.4374 L 394.5781 1117.7616 C 401.27581 1155.0841 411.27755 1191.7398 424.46482 1227.2915 L 320.30857 1313.3827 C 343.92859 1366.9044 373.58757 1417.5544 408.70701 1464.3423 L 533.42576 1417.9009 C 557.86173 1447.14 584.86087 1474.1384 614.10024 1498.5741 L 567.65883 1623.2928 C 591.08938 1640.8801 615.49026 1657.0953 640.73305 1671.871 L 640.88409 1671.6092 C 671.80361 1689.6222 703.89896 1705.2209 736.79815 1718.6769 L 788.42315 1460.548 C 780.92638 1456.5901 773.42736 1452.6328 766.11326 1448.2941 L 765.37107 1449.6183 C 727.98419 1427.7329 693.11896 1401.1971 661.96091 1370.0389 C 565.94308 1274.0211 511.99995 1143.7892 511.99997 1007.9999 C 511.99994 872.20984 565.94307 741.97864 661.96091 645.9608 C 757.97882 549.94289 888.21002 495.99984 1024 495.99986 L 1024 496.11054 C 1024.5134 496.07299 1025.0268 496.03589 1025.5403 495.99986 C 1038.9863 496.06407 1052.3817 496.73064 1065.7109 497.91002 L 767.99997 1093.3332 L 989.86716 1093.3332 L 857.3906 1755.7147 A 767.99997 767.99997 0 0 0 859.98956 1756.2798 L 859.70961 1757.1079 C 913.45051 1769.1445 968.47026 1775.7482 1024 1775.9999 C 1053.1585 1775.9329 1082.2911 1774.2044 1111.2539 1770.8241 L 1133.6054 1638.3501 C 1171.3188 1631.8214 1208.3705 1621.9228 1244.3151 1608.7733 L 1329.8424 1712.246 C 1383.3872 1689.0623 1434.1163 1659.8521 1481.0455 1625.1808 L 1434.125 1499.1782 C 1463.512 1474.64 1490.6394 1447.5119 1515.1784 1418.1249 L 1641.1823 1465.0454 C 1675.8523 1418.1161 1705.0628 1367.387 1728.2461 1313.8423 L 1624.7734 1228.3137 C 1637.9228 1192.3695 1647.8214 1155.3183 1654.3502 1117.6053 L 1786.8242 1095.2538 C 1790.2045 1066.291 1791.9326 1037.1584 1792 1007.9999 C 1791.933 978.8405 1790.2045 949.70852 1786.8242 920.74595 L 1654.3502 898.39439 C 1647.8214 860.68178 1637.9228 823.62989 1624.7734 787.68606 L 1728.2461 702.15871 C 1705.0628 648.6145 1675.8523 597.88529 1641.1823 550.95559 L 1515.1784 597.87486 C 1490.6393 568.48777 1463.5119 541.36116 1434.125 516.82278 L 1481.0455 390.81887 C 1457.5827 373.48454 1433.1688 357.51521 1407.9297 342.98163 L 1407.8828 343.06236 C 1376.7837 325.08893 1344.5061 309.55835 1311.4297 296.18345 L 1259.8138 554.26679 C 1266.5034 557.75505 1273.2236 561.17911 1279.7708 564.96991 L 1279.9245 564.70298 C 1318.3538 586.8872 1354.119 614.04029 1386.039 645.9608 C 1482.0568 741.97864 1536 872.20985 1536 1007.9999 C 1536 1143.7891 1482.0568 1274.0211 1386.039 1370.0389 C 1290.0212 1466.0567 1159.7892 1519.9999 1024 1519.9999 C 1010.0704 1519.9055 996.1993 1519.1563 982.39971 1517.867 L 1280 922.66653 L 1058.1328 922.66653 L 1190.9466 258.60012 A 767.99997 767.99997 0 0 0 1185.9297 257.47382 L 1185.7955 257.74205 C 1132.8199 246.27661 1078.6516 240.02917 1024 239.99986 z" style="display:inline;fill:#ffd000;fill-opacity:1;stroke-width:2.82222;stroke-linecap:round;stroke-linejoin:round;stroke-miterlimit:128" transform="matrix(0.396875,0,0,0.396875,203.20001,6.3500558)"/></svg>