<svg xmlns="http://www.w3.org/2000/svg" xml:space="preserve" id="svg1" width="4608" height="3072" version="1.1" viewBox="0 0 1219.2 812.8"><defs id="defs1"><style id="style1">.cls-1{fill:#0283c0}.cls-2{fill:#fff}.cls-3{fill:#ef483f}</style></defs><path id="rect1" d="M 0 0 L 0 812.8 L 1219.2 812.8 L 1219.2 0 L 0 0 z" style="fill:#904020;fill-rule:evenodd;stroke:none;stroke-width:8.46667;stroke-linecap:round;stroke-linejoin:round;fill-opacity:1"/><path id="path8" d="M 609.6 101.6 A 135.46666 135.46667 0 0 0 474.13333 237.06667 A 135.46666 135.46667 0 0 0 504.21108 321.70905 A 135.46666 135.46666 0 0 0 474.13333 406.4 A 135.46666 135.46666 0 0 0 609.6 541.86667 A 135.46666 135.46666 0 0 0 660.69456 531.84247 A 67.73333 67.733334 0 0 1 677.33333 575.73333 A 67.73333 67.733334 0 0 1 609.6 643.46667 A 67.73333 67.733334 0 0 1 541.86667 575.73333 L 474.13333 575.73333 A 135.46666 135.46667 0 0 0 609.6 711.2 A 135.46666 135.46667 0 0 0 745.06667 575.73333 A 135.46666 135.46667 0 0 0 715.13361 491.29301 A 135.46666 135.46666 0 0 0 745.06667 406.4 A 135.46666 135.46666 0 0 0 609.6 270.93333 A 135.46666 135.46666 0 0 0 558.68011 281.17767 A 67.73333 67.733334 0 0 1 541.86667 237.06667 A 67.73333 67.733334 0 0 1 609.6 169.33333 A 67.73333 67.733334 0 0 1 677.33333 237.06667 L 745.06667 237.06667 A 135.46666 135.46667 0 0 0 609.6 101.6 z M 609.6 338.66667 A 67.73333 67.73333 0 0 1 677.33333 406.4 A 67.73333 67.73333 0 0 1 609.6 474.13333 A 67.73333 67.73333 0 0 1 541.86667 406.4 A 67.73333 67.73333 0 0 1 609.6 338.66667 z" style="fill:#ffd000;fill-opacity:1;stroke:none;stroke-width:135.467;stroke-linejoin:bevel;stroke-miterlimit:128;stroke-dasharray:none;stroke-opacity:1;paint-order:stroke fill markers"/></svg>