<svg xmlns="http://www.w3.org/2000/svg" xml:space="preserve" id="svg1" width="4608" height="3072" version="1.1" viewBox="0 0 1219.2 812.8"><defs id="defs1"><style id="style1">.cls-1{fill:#0283c0}.cls-2{fill:#fff}.cls-3{fill:#ef483f}</style></defs><path id="rect1" d="M 0 0 L 0 812.8 L 1219.2 812.8 L 1219.2 0 L 0 0 z" style="fill:#ffd000;fill-rule:evenodd;stroke:none;stroke-width:8.46667;stroke-linecap:round;stroke-linejoin:round;fill-opacity:1"/><path id="rect2" d="M 0,0 V 812.8 H 406.4 V 0 Z" style="display:inline;fill:#ff8000;fill-opacity:1;stroke-width:1.00012;stroke-linecap:round;stroke-linejoin:round;stroke-miterlimit:128"/><path id="path10" d="m 739.22705,284.87957 c -8.79194,2.44685 -13.83761,14.50551 -7.44707,21.85589 4.46015,5.24984 11.30093,8.3806 18.18089,8.36758 3.13019,0.90584 9.08579,1.57256 3.37105,-1.95022 -6.58049,-4.67667 -15.5727,-9.98553 -15.26308,-19.20414 -0.43476,-2.78988 4.52194,-7.21198 1.15821,-9.06911 z m 59.46011,28.04078 c -2.46459,0.0141 -4.92919,0.0282 -7.39379,0.0423 8.63118,3.03232 18.45837,5.42896 23.55253,13.82452 5.73484,8.52511 9.07647,19.01719 17.62679,25.36332 5.42343,7.13326 -7.12824,0.84832 -9.09536,-1.6876 -7.64432,-5.38378 -13.2316,-12.89811 -18.91245,-20.16985 -7.63362,-9.4594 -20.80067,-8.44466 -31.71955,-8.5263 -11.64469,-0.26217 -23.60027,1.57882 -35.01503,-1.32546 -4.28865,-1.62548 -8.13424,-4.18246 -12.17737,-6.3168 2.60163,6.68208 5.57609,14.47077 13.20229,16.63893 12.98359,4.25444 27.03683,1.53036 40.13283,4.92316 10.96175,5.04476 17.90259,15.67504 27.48484,22.68136 13.81874,10.57854 31.75609,11.81336 48.45717,13.0146 6.05597,1.06295 -6.28907,2.16076 -8.24015,2.389 -13.04256,0.4847 -26.78709,0.14798 -38.89586,-5.23604 -14.6787,-6.68872 -27.50059,-19.0415 -44.48048,-19.36832 -15.65195,-0.69129 -31.28516,0.92845 -46.91858,1.53188 -4.65388,-4.16713 -9.30743,-8.33464 -13.96063,-12.50252 2.60958,7.29788 6.08382,14.85011 13.40321,18.52588 10.93907,6.39616 23.91701,6.54612 36.18611,7.0714 18.87998,2.92047 35.86002,12.6209 54.58538,16.25945 20.95303,5.04982 43.19075,5.34955 63.92129,-0.93482 4.17,-1.00588 12.91811,-3.43356 9.34265,-9.08142 -1.31459,-3.47164 -2.62919,-6.94327 -3.9438,-10.4149 -6.80738,-3.42388 -14.89629,2.6819 -21.53914,-1.94594 -7.77155,-5.99208 -8.63793,-16.82083 -14.79484,-24.12702 -9.22812,-13.03284 -24.84374,-20.91064 -40.80806,-20.62879 z" style="fill:#800020;fill-opacity:1;fill-rule:evenodd;stroke:none;stroke-width:.264583;stroke-miterlimit:4;stroke-dasharray:none"/><path id="_72731584-7" d="m 910.18714,322.69261 c -4.81468,-0.47833 -32.77968,34.89073 -34.35791,36.92964 -1.57822,2.03891 4.29561,13.76169 5.10104,13.4702 0.80544,-0.2915 34.07156,-49.92152 29.25687,-50.39984 z" style="fill:gray;fill-opacity:1;fill-rule:evenodd;stroke:none;stroke-width:.264583;stroke-miterlimit:4;stroke-dasharray:none"/><path id="path7" d="m 893.75388,338.29562 c -14.70767,-5.374 -23.72252,4.97323 -9.27245,14.29253 6.79957,10.77057 34.32122,11.65273 29.47266,22.23943 -14.12287,13.29519 -28.50694,21.62819 -45.96291,28.20989 -26.43497,-8.69908 -53.94893,-16.73342 -81.9869,-15.00223 -28.08978,-4.52896 -59.55101,0.41394 -80.7066,20.6508 -24.15612,14.10656 -57.443,26.80377 -82.99398,9.09461 -17.87004,-14.26368 -20.48089,-44.39076 -1.80809,-59.18778 14.64447,-14.05309 45.17839,-12.60764 53.52053,7.54851 8.59912,17.2912 -20.60266,19.25142 -20.11373,24.72157 17.79475,5.30212 35.85814,-16.42746 24.89645,-32.54929 -18.84711,-30.24096 -70.96064,-19.08885 -79.28412,14.48788 -10.02533,28.41126 11.58083,62.19577 41.73724,64.68423 19.85016,2.95389 41.15769,-0.96043 57.78937,-12.46924 -13.80709,17.58085 -30.04339,34.30653 -53.65054,35.27576 -24.85239,4.92076 -19.47139,-38.3267 -43.06884,-21.11767 -17.35497,10.02127 -34.69333,19.87377 -54.40886,20.23892 -21.25163,19.89854 19.708,18.97763 27.8384,5.55342 17.85493,-19.0336 41.73753,-8.46456 58.78916,5.21247 9.19498,3.81023 18.86765,7.13062 3.01222,8.58172 -20.29839,8.68305 -28.01778,-30.02009 -43.94743,-6.32524 -13.01236,15.2667 -26.06203,30.37214 -44.52984,37.34185 -13.39507,25.8909 24.91547,11.25333 28.08651,-4.11423 9.66287,-21.69689 33.70501,-23.42596 53.18233,-15.29366 19.88236,3.95953 41.06204,3.99445 60.8131,-0.29315 20.02579,-9.45554 42.35424,-14.3244 60.58079,-27.73123 10.31112,-7.78779 21.43603,-16.79305 30.54689,-19.36517 7.28604,-18.13132 27.90996,8.33713 35.52604,17.78338 22.10501,25.99958 55.36819,50.06029 91.24255,39.88594 16.38826,-8.10727 34.31733,-0.30472 51.7481,-3.67482 23.79827,-2.31706 48.70827,-9.80002 72.15067,-1.80887 12.8329,6.45791 22.7934,45.72479 38.3698,28.36032 -16.6489,-10.96835 -22.262,-36.15009 -42.1465,-42.04761 -21.8339,-2.81382 -43.90135,-4.80735 -65.94819,-5.98764 25.29605,-1.94073 50.40009,-10.39392 75.79549,-7.89762 15.9099,2.67729 29.6138,31.42508 44.7102,16.34659 -16.6183,-7.65211 -32.017,-25.25235 -50.9425,-29.3913 -25.0851,0.53158 -50.12585,-2.96291 -75.21561,-1.63299 -15.1351,-8.16638 -2.06652,-25.82824 -5.54668,-39.06046 10.32045,-16.38607 16.52071,-42.06179 8.01352,-55.52038 7.79919,2.23524 39.46954,22.597 22.10215,2.77997 -4.22182,-9.29065 -32.52172,-21.98584 -7.89316,-11.32008 11.68748,-0.72295 -15.27333,-12.84317 -21.04737,-13.30907 -11.41997,1.67407 -20.32801,2.14647 -33.0448,0.45989 -5.45652,7.88147 -18.09495,0.41653 -26.40507,1.35005 z" style="display:inline;fill:silver;fill-opacity:1;fill-rule:evenodd;stroke:none;stroke-width:.264583;stroke-miterlimit:4;stroke-dasharray:none"/></svg>