<svg xmlns="http://www.w3.org/2000/svg" xml:space="preserve" id="svg1" width="4608" height="3072" version="1.1" viewBox="0 0 1219.2 812.8"><defs id="defs1"><style id="style1">.cls-1{fill:#0283c0}.cls-2{fill:#fff}.cls-3{fill:#ef483f}</style></defs><path id="rect1" d="M 0,0 V 812.8 H 1219.2 V 0 Z" style="fill:#702080;fill-opacity:1;fill-rule:evenodd;stroke:none;stroke-width:8.46667;stroke-linecap:round;stroke-linejoin:round"/><path id="rect2" d="M 541.86667 101.6 L 575.73333 135.46667 L 575.73333 415.47438 L 391.89804 309.33719 L 379.5019 263.0749 L 311.76857 380.39229 L 358.03138 367.99614 L 541.86667 474.13333 L 358.03138 580.27052 L 311.76857 567.8749 L 379.5019 685.19229 L 391.89804 638.92948 L 575.73333 532.79229 L 575.73333 677.33333 L 541.86667 711.2 L 677.33333 711.2 L 643.46667 677.33333 L 643.46667 532.79229 L 827.30196 638.92948 L 839.6981 685.19229 L 907.43143 567.8749 L 861.16862 580.27052 L 677.33333 474.13333 L 861.16862 367.99614 L 907.43143 380.39229 L 839.6981 263.0749 L 827.30196 309.33719 L 643.46667 415.47438 L 643.46667 304.8 L 677.33333 304.8 C 733.44536 304.79998 778.93334 259.31202 778.93333 203.2 C 778.93334 147.08799 733.44536 101.59998 677.33333 101.6 L 541.86667 101.6 z M 643.46667 169.33333 L 677.33333 169.33333 C 696.03734 169.33332 711.20001 184.496 711.2 203.2 C 711.20001 221.90401 696.03734 237.06666 677.33333 237.06667 L 643.46667 237.06667 L 643.46667 169.33333 z" style="fill:#ffd000;fill-opacity:1;stroke-width:33.8667;stroke-miterlimit:128;paint-order:stroke fill markers"/></svg>