<svg xmlns="http://www.w3.org/2000/svg" xml:space="preserve" id="svg1" width="4608" height="3072" version="1.1" viewBox="0 0 1219.2 812.8"><defs id="defs1"><style id="style1">.cls-1{fill:#0283c0}.cls-2{fill:#fff}.cls-3{fill:#ef483f}</style></defs><path id="rect1" d="M 0 0 L 0 812.8 L 1219.2 812.8 L 1219.2 0 L 0 0 z" style="fill:#404040;fill-rule:evenodd;stroke:none;stroke-width:8.46667;stroke-linecap:round;stroke-linejoin:round;fill-opacity:1"/><path id="text1" d="m 415.16949,101.6 c -7.86188,0 -15.27076,1.5412 -22.22552,4.62349 -6.95474,3.08228 -13.0021,7.29484 -18.14256,12.63747 -5.14047,5.23989 -9.22299,11.4047 -12.2468,18.49396 -3.02379,7.08925 -4.53564,14.64049 -4.53564,22.65443 0,8.01395 1.51185,15.5657 4.53564,22.65495 3.02381,7.08926 7.10633,13.30532 12.2468,18.64796 5.14046,5.23988 11.18782,9.40067 18.14256,12.48296 6.95476,3.08228 14.36364,4.624 22.22552,4.624 7.86189,0 15.26974,-1.54172 22.22448,-4.624 6.95476,-3.08229 13.00262,-7.24308 18.14308,-12.48296 5.24126,-5.34264 9.3739,-11.5587 12.3977,-18.64796 3.0238,-7.08925 4.53512,-14.641 4.53512,-22.65495 0,-8.01394 -1.51132,-15.56518 -4.53512,-22.65443 -3.0238,-7.08926 -7.15644,-13.25407 -12.3977,-18.49396 -5.14046,-5.34263 -11.18832,-9.55519 -18.14308,-12.63747 C 430.43923,103.1412 423.03138,101.6 415.16949,101.6 Z m 378.73192,0 c -7.86189,0 -15.27076,1.5412 -22.22551,4.62349 -6.95475,3.08228 -13.0021,7.29484 -18.14257,12.63747 -5.14047,5.23989 -9.22299,11.4047 -12.24679,18.49396 -3.0238,7.08925 -4.53564,14.64049 -4.53564,22.65443 0,8.01395 1.51184,15.5657 4.53564,22.65495 3.0238,7.08926 7.10632,13.30532 12.24679,18.64796 5.14047,5.23988 11.18782,9.40067 18.14257,12.48296 6.95475,3.08228 14.36362,4.624 22.22551,4.624 7.86189,0 15.27026,-1.54172 22.225,-4.624 6.95475,-3.08229 13.00211,-7.24308 18.14256,-12.48296 5.24126,-5.34264 9.37389,-11.5587 12.3977,-18.64796 3.02379,-7.08925 4.53512,-14.641 4.53512,-22.65495 0,-8.01394 -1.51133,-15.56518 -4.53512,-22.65443 -3.02381,-7.08926 -7.15644,-13.25407 -12.3977,-18.49396 -5.14045,-5.34263 -11.18781,-9.55519 -18.14256,-12.63747 C 809.17167,103.1412 801.7633,101.6 793.90141,101.6 Z m -654.80602,2.00349 c -1.00793,0 -1.86483,0.35981 -2.57039,1.07901 -0.70556,0.7192 -1.05833,1.59206 -1.05833,2.61947 v 105.41476 c 0,1.02742 0.35277,1.90079 1.05833,2.61999 0.70556,0.7192 1.56246,1.07901 2.57039,1.07901 h 41.275 c 7.86189,0 15.01819,-1.18192 21.46897,-3.54501 6.55157,-2.36308 12.34687,-5.85603 17.38654,-10.47946 5.44285,-5.13713 9.57598,-11.25071 12.3982,-18.33997 2.82221,-7.192 4.23282,-15.20605 4.23282,-24.04194 0,-8.83589 -1.41061,-16.79868 -4.23282,-23.88795 -2.82222,-7.08925 -6.95535,-13.2023 -12.3982,-18.33945 -10.07935,-9.45234 -23.03095,-14.17846 -38.85551,-14.17846 z m 118.68422,0 c -1.00793,0 -1.86432,0.35981 -2.56986,1.07901 -0.70555,0.7192 -1.05834,1.59206 -1.05834,2.61947 v 105.41476 c 0,1.02742 0.35279,1.90079 1.05834,2.61999 0.70554,0.7192 1.56193,1.07901 2.56986,1.07901 h 22.52783 c 1.00793,0 1.86431,-0.35981 2.56987,-1.07901 0.70556,-0.7192 1.05833,-1.59257 1.05833,-2.61999 v -24.96644 c 0,-1.02743 0.35277,-1.90131 1.05833,-2.62051 0.70555,-0.7192 1.56245,-1.07849 2.57039,-1.07849 h 3.32641 c 1.00793,0 2.06627,0.30804 3.175,0.9245 1.10873,0.51371 1.9651,1.18155 2.56987,2.00349 3.12459,4.52069 6.24898,8.99054 9.37359,13.40849 3.22539,4.41794 6.45154,8.78426 9.67693,13.09945 0.60476,0.82195 1.46114,1.54104 2.56987,2.1575 1.2095,0.51371 2.31796,0.77101 3.32589,0.77101 h 28.1218 c 1.00793,0 1.66287,-0.46284 1.96525,-1.38751 0.30239,-1.02743 0.15155,-1.95205 -0.4532,-2.774 -3.32619,-4.52067 -7.10602,-9.50358 -11.33936,-14.94895 -4.23331,-5.44539 -8.26523,-10.73682 -12.09538,-15.87397 -0.60477,-0.82194 -0.8062,-1.64353 -0.60462,-2.46548 0.30239,-0.92468 0.8566,-1.69555 1.66295,-2.31201 2.41905,-1.54115 4.58583,-3.44215 6.50089,-5.70249 1.91508,-2.36309 3.57826,-4.98267 4.98936,-7.85947 1.41111,-2.87681 2.46944,-5.90796 3.175,-9.09298 0.80635,-3.28778 1.20975,-6.5752 1.20975,-9.86297 0,-5.95909 -1.00824,-11.40431 -3.02411,-16.33595 -1.91507,-4.93166 -4.63607,-9.19547 -8.16384,-12.79147 -3.42697,-3.59602 -7.6097,-6.37037 -12.54859,-8.32249 -4.93887,-2.05485 -10.33181,-3.0825 -16.17782,-3.0825 z m 233.74026,0 c -1.00793,0 -1.86431,0.35981 -2.56987,1.07901 -0.70556,0.7192 -1.05833,1.59206 -1.05833,2.61947 v 105.41476 c 0,1.02742 0.35277,1.90079 1.05833,2.61999 0.70556,0.7192 1.56194,1.07901 2.56987,1.07901 H 514.35 c 1.00794,0 1.86483,-0.35981 2.57039,-1.07901 0.70556,-0.7192 1.05833,-1.59257 1.05833,-2.61999 v -22.96294 c 0,-1.02742 0.35277,-1.90131 1.05833,-2.62051 0.70555,-0.71919 1.56194,-1.07849 2.56987,-1.07849 h 13.15372 c 7.35792,0 13.75804,-1.02765 19.2009,-3.0825 5.54364,-2.15761 10.12976,-5.03448 13.75833,-8.63048 3.72936,-3.69876 6.50149,-8.0138 8.31577,-12.94546 1.81428,-5.03441 2.72128,-10.42836 2.72128,-16.18196 0,-5.7536 -1.10844,-11.14755 -3.32589,-16.18196 -2.11666,-5.03439 -5.04013,-9.45249 -8.76949,-13.25397 -3.62856,-3.8015 -7.96212,-6.78088 -13.00179,-8.93847 -4.93888,-2.1576 -10.23057,-3.2365 -15.875,-3.2365 z m 498.17321,0 c -1.008,0 -1.8653,0.35981 -2.5709,1.07901 -0.7055,0.7192 -1.05834,1.59206 -1.05834,2.61947 v 105.41476 c 0,1.02742 0.35284,1.90079 1.05834,2.61999 0.7056,0.7192 1.5629,1.07901 2.5709,1.07901 h 22.52682 c 1.008,0 1.8648,-0.35981 2.5704,-1.07901 0.7055,-0.7192 1.0583,-1.59257 1.0583,-2.61999 v -24.96644 c 0,-1.02743 0.3528,-1.90131 1.0583,-2.62051 0.7056,-0.7192 1.562,-1.07849 2.5699,-1.07849 h 3.3264 c 1.0079,0 2.0663,0.30804 3.175,0.9245 1.1087,0.51371 1.9656,1.18155 2.5704,2.00349 3.1246,4.52069 6.2494,8.99054 9.3741,13.40849 3.2253,4.41794 6.4506,8.78426 9.6759,13.09945 0.6048,0.82195 1.4617,1.54104 2.5704,2.1575 1.2096,0.51371 2.318,0.77101 3.3259,0.77101 h 28.1218 c 1.0079,0 1.6633,-0.46284 1.9657,-1.38751 0.3024,-1.02743 0.1505,-1.95205 -0.4542,-2.774 -3.3262,-4.52067 -7.1061,-9.50358 -11.3394,-14.94895 -4.2333,-5.44539 -8.2647,-10.73682 -12.0948,-15.87397 -0.6048,-0.82194 -0.8068,-1.64353 -0.6052,-2.46548 0.3024,-0.92468 0.8571,-1.69555 1.6635,-2.31201 2.4189,-1.54115 4.5859,-3.44215 6.5009,-5.70249 1.9151,-2.36309 3.5783,-4.98267 4.9894,-7.85947 1.4111,-2.87681 2.4695,-5.90796 3.175,-9.09298 0.8063,-3.28778 1.2097,-6.5752 1.2097,-9.86297 0,-5.95909 -1.0082,-11.40431 -3.0241,-16.33595 -1.915,-4.93166 -4.6367,-9.19547 -8.1644,-12.79147 -3.427,-3.59602 -7.6097,-6.37037 -12.5485,-8.32249 -4.9388,-2.05485 -10.3313,-3.0825 -16.1774,-3.0825 z m -357.11257,0.154 c -1.00793,0 -1.66235,0.51355 -1.96474,1.54099 -0.30238,0.92468 -0.20166,1.84982 0.30231,2.77451 6.24918,10.788 12.49849,21.26788 18.74769,31.43942 6.34999,10.17155 12.54867,20.5484 18.59628,31.13092 0.50396,0.82194 0.90737,1.95208 1.20975,3.39049 0.40318,1.33566 0.6041,2.51706 0.6041,3.54448 v 35.13843 c 0,1.02742 0.35278,1.90079 1.05833,2.61999 0.70556,0.7192 1.56246,1.07901 2.57038,1.07901 h 22.83014 c 1.00792,0 1.8643,-0.35981 2.56986,-1.07901 0.70556,-0.7192 1.05834,-1.59257 1.05834,-2.61999 v -35.29242 c 0,-1.02742 0.20196,-2.20882 0.60513,-3.54449 0.40318,-1.33566 0.85666,-2.4658 1.36064,-3.39049 l 37.79718,-62.41634 c 0.80634,-1.43841 0.95821,-2.5173 0.45423,-3.2365 -0.40318,-0.71921 -1.10925,-1.079 -2.11718,-1.079 h -27.21436 c -1.00794,0 -2.06628,0.30855 -3.175,0.92501 -1.00793,0.61646 -1.76359,1.38678 -2.26756,2.31148 l -18.44487,32.98042 c -0.50397,0.82195 -1.10932,1.233 -1.81488,1.233 -0.70555,0 -1.31038,-0.41105 -1.81436,-1.233 l -18.59628,-32.98042 c -0.50397,-0.9247 -1.31024,-1.69502 -2.41897,-2.31148 -1.00794,-0.61646 -2.01618,-0.92501 -3.02411,-0.92501 z m 237.82321,0 c -1.00793,0 -1.86535,0.35979 -2.5709,1.079 -0.70555,0.7192 -1.05834,1.59205 -1.05834,2.61948 v 62.41686 c 0,7.29474 1.15906,13.92186 3.47731,19.88096 2.31824,5.95908 5.59451,11.04449 9.82782,15.25695 4.23333,4.21245 9.32306,7.50039 15.26987,9.86348 5.94683,2.26033 12.5489,3.39049 19.80603,3.39049 7.25713,0 13.85923,-1.13016 19.80603,-3.39049 5.94689,-2.36309 11.03709,-5.65103 15.27038,-9.86348 4.2333,-4.21246 7.4584,-9.29787 9.6759,-15.25695 2.31819,-5.9591 3.4773,-12.58622 3.4773,-19.88096 v -62.41686 c 0,-1.02743 -0.35273,-1.90028 -1.05833,-2.61948 -0.7055,-0.71921 -1.56187,-1.079 -2.56987,-1.079 h -22.82961 c -1.0079,0 -1.86479,0.35979 -2.57039,1.079 -0.7055,0.7192 -1.05833,1.59205 -1.05833,2.61948 v 62.41686 c 0,4.00698 -0.65496,7.34564 -1.96526,10.01696 -1.2096,2.56857 -2.72191,4.62386 -4.53615,6.165 -1.81428,1.43842 -3.77962,2.46552 -5.89628,3.08198 -2.11666,0.61644 -4.0319,0.92501 -5.74539,0.92501 -1.7135,0 -3.62822,-0.30857 -5.74487,-0.92501 -2.11667,-0.61646 -4.13261,-1.64356 -6.04769,-3.08198 -1.81429,-1.54114 -3.37623,-3.59643 -4.68654,-6.165 -1.20952,-2.67132 -1.81487,-6.00998 -1.81487,-10.01696 v -62.41686 c 0,-1.02743 -0.35279,-1.90028 -1.05834,-2.61948 -0.70555,-0.71921 -1.56245,-1.079 -2.57038,-1.079 z m -455.23423,27.27844 c 3.72937,0 7.25715,0.82212 10.58333,2.466 3.32618,1.54114 6.24862,3.64715 8.76846,6.31847 2.51983,2.56858 4.48569,5.65099 5.8968,9.24698 1.41112,3.49326 2.11667,7.14048 2.11667,10.94197 0,3.90424 -0.70555,7.60271 -2.11667,11.09596 -1.41111,3.49326 -3.37697,6.57619 -5.8968,9.2475 -2.51984,2.67132 -5.44228,4.82859 -8.76846,6.47248 -3.32618,1.54113 -6.85396,2.31148 -10.58333,2.31148 -3.72935,0 -7.25766,-0.77035 -10.58385,-2.31148 -3.32618,-1.64389 -6.24915,-3.80116 -8.76897,-6.47248 -2.41905,-2.67131 -4.33377,-5.75424 -5.74487,-9.2475 -1.41111,-3.49325 -2.11719,-7.19172 -2.11719,-11.09596 0,-3.80149 0.70608,-7.44871 2.11719,-10.94197 1.4111,-3.59599 3.32582,-6.6784 5.74487,-9.24698 2.51982,-2.67132 5.44279,-4.77733 8.76897,-6.31847 3.32619,-1.64388 6.8545,-2.466 10.58385,-2.466 z m 378.73192,0 c 3.72936,0 7.25715,0.82212 10.58334,2.466 3.32617,1.54114 6.24862,3.64715 8.76845,6.31847 2.51984,2.56858 4.48569,5.65099 5.8968,9.24698 1.41112,3.49326 2.11667,7.14048 2.11667,10.94197 0,3.90424 -0.70555,7.60271 -2.11667,11.09596 -1.41111,3.49326 -3.37696,6.57619 -5.8968,9.2475 -2.51983,2.67132 -5.44228,4.82859 -8.76845,6.47248 -3.32619,1.54113 -6.85398,2.31148 -10.58334,2.31148 -3.72935,0 -7.25766,-0.77035 -10.58385,-2.31148 -3.32617,-1.64389 -6.24912,-3.80116 -8.76897,-6.47248 -2.41904,-2.67131 -4.33376,-5.75424 -5.74487,-9.2475 -1.4111,-3.49325 -2.11667,-7.19172 -2.11667,-11.09596 0,-3.80149 0.70557,-7.44871 2.11667,-10.94197 1.41111,-3.59599 3.32583,-6.6784 5.74487,-9.24698 2.51985,-2.67132 5.4428,-4.77733 8.76897,-6.31847 3.32619,-1.64388 6.8545,-2.466 10.58385,-2.466 z m -506.33705,0.92449 h 16.02641 c 2.11666,0 3.88055,0.46282 5.29167,1.38751 1.5119,0.82194 2.67044,1.90032 3.47679,3.23598 0.90714,1.23292 1.5125,2.56912 1.81487,4.00751 0.40318,1.33566 0.60462,2.51704 0.60462,3.54448 0,1.95211 -0.35277,3.64709 -1.05833,5.08548 -0.70554,1.43842 -1.61255,2.67105 -2.72129,3.69848 -1.10871,0.92468 -2.3184,1.6443 -3.62871,2.15801 -1.31032,0.41097 -2.5701,0.6165 -3.77962,0.6165 h -16.02641 c -1.00794,0 -1.86484,-0.35982 -2.57039,-1.079 -0.70556,-0.7192 -1.05833,-1.59257 -1.05833,-2.62 v -16.33595 c 0,-1.02744 0.35277,-1.90029 1.05833,-2.61948 0.70555,-0.7192 1.56245,-1.07952 2.57039,-1.07952 z m 234.04256,0 h 14.21205 c 2.11666,0 3.98128,0.41157 5.59398,1.23351 1.6127,0.71921 2.97371,1.69457 4.08244,2.92747 1.10872,1.23293 1.91448,2.6711 2.41845,4.31499 0.60476,1.54113 0.90744,3.13411 0.90744,4.778 0,3.18504 -0.907,6.06191 -2.72128,8.63048 -1.71349,2.46583 -4.4851,3.69848 -8.31525,3.69848 h -16.17783 c -1.00793,0 -1.86432,-0.3598 -2.56987,-1.079 -0.70556,-0.71921 -1.05833,-1.59205 -1.05833,-2.61948 v -18.18545 c 0,-1.02744 0.35277,-1.90029 1.05833,-2.61948 0.70555,-0.7192 1.56194,-1.07952 2.56987,-1.07952 z m 497.86988,0 h 16.0269 c 2.1167,0 3.8805,0.46282 5.2917,1.38751 1.5118,0.82194 2.6705,1.90032 3.4768,3.23598 0.9071,1.23292 1.5125,2.56912 1.8149,4.00751 0.4031,1.33566 0.604,2.51704 0.604,3.54448 0,1.95211 -0.3527,3.64709 -1.0583,5.08548 -0.7056,1.43842 -1.612,2.67105 -2.7207,3.69848 -1.1087,0.92468 -2.3189,1.6443 -3.6293,2.15801 -1.3103,0.41097 -2.5696,0.6165 -3.7791,0.6165 h -16.0269 c -1.0079,0 -1.8643,-0.35982 -2.5699,-1.079 -0.7055,-0.7192 -1.0583,-1.59257 -1.0583,-2.62 v -16.33595 c 0,-1.02744 0.3528,-1.90029 1.0583,-2.61948 0.7056,-0.7192 1.562,-1.07952 2.5699,-1.07952 z m -850.44577,0.30851 h 11.33936 c 2.8222,0 5.69506,0.35979 8.61807,1.079 3.02381,0.71919 5.7448,2.10612 8.16385,4.16099 2.51983,1.9521 4.53579,4.77773 6.04769,8.47648 1.6127,3.596 2.41897,8.32161 2.41897,14.17795 0,5.85635 -0.80627,10.63371 -2.41897,14.33246 -1.5119,3.59599 -3.47723,6.42161 -5.89628,8.47648 -2.41904,1.95211 -5.14004,3.28779 -8.16384,4.00699 -3.02381,0.71921 -5.94729,1.07901 -8.76949,1.07901 h -11.33936 c -1.00795,0 -1.86431,-0.3598 -2.56987,-1.07901 -0.70554,-0.7192 -1.05834,-1.59206 -1.05834,-2.61948 v -48.39239 c 0,-1.02742 0.3528,-1.90029 1.05834,-2.61948 0.70556,-0.71921 1.56192,-1.079 2.56987,-1.079 z m 345.54531,123.59969 c -8.06347,0 -15.62266,1.54121 -22.6782,4.62349 -7.05553,3.08228 -13.25423,7.29483 -18.59628,12.63747 -5.24126,5.23988 -9.42451,11.40419 -12.54911,18.49344 -3.02379,7.08927 -4.53615,14.64153 -4.53615,22.65547 0,8.01394 1.51236,15.56517 4.53615,22.65443 3.1246,7.08925 7.30785,13.25409 12.54911,18.49396 5.34205,5.2399 11.54075,9.40119 18.59628,12.48348 7.05554,3.08227 14.61473,4.62297 22.6782,4.62297 7.35793,0 14.31278,-1.23265 20.86436,-3.69848 6.55158,-2.56857 12.34738,-6.06205 17.38705,-10.47998 5.14048,-4.41795 9.32371,-9.65813 12.54911,-15.71997 3.22539,-6.06182 5.19072,-12.63667 5.89628,-19.72593 0.30237,-2.67132 0.45372,-5.24068 0.45372,-7.70651 0,-2.56856 -0.10076,-4.72584 -0.30231,-6.47247 -0.10078,-1.13016 -0.55481,-2.00354 -1.36115,-2.62 -0.70556,-0.7192 -1.56194,-1.07848 -2.56987,-1.07848 h -52.00975 c -1.00793,0 -1.86432,0.35928 -2.56987,1.07848 -0.70556,0.7192 -1.05833,1.59258 -1.05833,2.62 v 18.33997 c 0,1.02741 0.35277,1.90027 1.05833,2.61947 0.70555,0.7192 1.56194,1.07901 2.56987,1.07901 h 17.38705 c 1.00794,0 1.7135,0.3598 2.11667,1.079 0.40318,0.61646 0.35256,1.33556 -0.15141,2.15749 -2.21747,3.28778 -5.19103,5.65108 -8.92039,7.08949 -3.72935,1.4384 -7.5092,2.15749 -11.33936,2.15749 -3.83015,0 -7.45866,-0.77034 -10.88564,-2.31148 -3.32617,-1.64389 -6.24863,-3.75042 -8.76845,-6.319 -2.51984,-2.67131 -4.53579,-5.75371 -6.0477,-9.24698 -1.41111,-3.49325 -2.11666,-7.19173 -2.11666,-11.09596 0,-3.80149 0.70555,-7.44923 2.11666,-10.94249 1.51191,-3.59599 3.52786,-6.73017 6.0477,-9.40149 2.51982,-2.67131 5.44228,-4.77683 8.76845,-6.31796 3.42698,-1.64389 7.05549,-2.466 10.88564,-2.466 5.34206,0 9.92819,1.18193 13.75834,3.545 3.93094,2.36309 7.45924,5.49624 10.58385,9.40046 0.70555,0.82195 1.56193,1.33602 2.56987,1.54151 1.00792,0.10273 1.91545,-0.10326 2.72179,-0.61702 l 18.14256,-11.86645 c 0.80635,-0.5137 1.30996,-1.28457 1.51154,-2.31201 0.30239,-1.13017 0.20166,-2.10604 -0.30231,-2.92798 -5.14046,-8.1167 -11.84275,-14.48703 -20.10781,-19.11047 -8.16428,-4.62342 -17.79054,-6.93497 -28.87783,-6.93497 z m -356.35602,1.85001 c -1.00795,0 -1.86431,0.35929 -2.56987,1.07849 -0.70554,0.7192 -1.05834,1.59256 -1.05834,2.61999 v 105.41424 c 0,1.02744 0.3528,1.90028 1.05834,2.61948 0.70556,0.71919 1.56192,1.079 2.56987,1.079 h 22.83013 c 1.00795,0 1.86483,-0.35981 2.57038,-1.079 0.70556,-0.7192 1.05834,-1.59204 1.05834,-2.61948 v -34.05942 c 0,-1.02743 0.35278,-1.90078 1.05833,-2.61999 0.70556,-0.71919 1.56194,-1.07901 2.56987,-1.07901 h 40.82128 c 1.00795,0 1.86535,-0.35982 2.5709,-1.079 0.70556,-0.71921 1.05834,-1.59204 1.05834,-2.61948 v -21.57594 c 0,-1.02742 -0.35278,-1.90081 -1.05834,-2.62 -0.70555,-0.71921 -1.56295,-1.079 -2.5709,-1.079 h -40.82128 c -1.00793,0 -1.86431,-0.3598 -2.56987,-1.07901 -0.70555,-0.71918 -1.05833,-1.59205 -1.05833,-2.61947 v -6.47299 c 0,-1.02743 0.35278,-1.90081 1.05833,-2.62 0.70556,-0.7192 1.56194,-1.079 2.56987,-1.079 h 46.86897 c 1.00793,0 1.86536,-0.35928 2.57091,-1.07849 0.70554,-0.71921 1.05833,-1.59257 1.05833,-2.62 v -21.11344 c 0,-1.02743 -0.35279,-1.90079 -1.05833,-2.61999 -0.70555,-0.7192 -1.56298,-1.07849 -2.57091,-1.07849 z m 98.57693,0 c -1.10872,0 -2.01625,0.35929 -2.7218,1.07849 -0.60477,0.7192 -0.90744,1.59256 -0.90744,2.61999 v 105.41424 c 0,1.02744 0.30267,1.90028 0.90744,2.61948 0.70555,0.71919 1.61308,1.079 2.7218,1.079 h 75.44397 c 1.00793,0 1.86431,-0.35981 2.56987,-1.079 0.70555,-0.7192 1.05833,-1.59204 1.05833,-2.61948 v -20.95996 c 0,-1.02744 -0.35278,-1.90027 -1.05833,-2.61948 -0.70556,-0.71919 -1.56194,-1.079 -2.56987,-1.079 h -45.50885 c -1.10873,0 -2.01572,-0.3593 -2.72128,-1.07849 -0.60476,-0.7192 -0.90692,-1.59308 -0.90692,-2.62051 v -77.0568 c 0,-1.02743 -0.35279,-1.90079 -1.05834,-2.61999 -0.70556,-0.7192 -1.56194,-1.07849 -2.56987,-1.07849 z m 387.6523,0 c -1.10873,0 -2.01625,0.35929 -2.7218,1.07849 -0.60476,0.7192 -0.9064,1.59256 -0.9064,2.61999 v 105.41424 c 0,1.02744 0.30164,1.90028 0.9064,2.61948 0.70555,0.71919 1.61307,1.079 2.7218,1.079 h 22.52783 c 1.00794,0 1.86432,-0.35981 2.56987,-1.079 0.70555,-0.7192 1.05833,-1.59204 1.05833,-2.61948 v -32.98041 c 0,-1.02743 0.30215,-1.9008 0.90692,-2.62 0.70555,-0.7192 1.61308,-1.079 2.7218,-1.079 h 31.14487 c 1.00794,0 1.86482,0.3598 2.57038,1.079 0.70555,0.7192 1.05834,1.59257 1.05834,2.62 v 32.98041 c 0,1.02744 0.30268,1.90028 0.90743,2.61948 0.70556,0.71919 1.61203,1.079 2.72077,1.079 h 22.67872 c 1.00794,0 1.86482,-0.35981 2.57038,-1.079 0.70556,-0.7192 1.05834,-1.59204 1.05834,-2.61948 V 261.41711 c 0,-1.02743 -0.35278,-1.90079 -1.05834,-2.61999 -0.70556,-0.7192 -1.56244,-1.07849 -2.57038,-1.07849 h -22.67872 c -1.10874,0 -2.01521,0.35929 -2.72077,1.07849 -0.60475,0.7192 -0.90743,1.59256 -0.90743,2.61999 v 36.52491 c 0,1.02743 -0.35279,1.90078 -1.05834,2.61999 -0.70556,0.71919 -1.56244,1.07901 -2.57038,1.07901 H 674.2343 c -1.10872,0 -2.01625,-0.35982 -2.7218,-1.07901 -0.60477,-0.71921 -0.90692,-1.59256 -0.90692,-2.61999 v -36.52491 c 0,-1.02743 -0.35278,-1.90079 -1.05833,-2.61999 -0.70555,-0.7192 -1.56193,-1.07849 -2.56987,-1.07849 z m 118.83564,0 c -1.00793,0 -1.86484,0.35929 -2.57038,1.07849 -0.70556,0.7192 -1.05834,1.59256 -1.05834,2.61999 v 105.41424 c 0,1.02744 0.35278,1.90028 1.05834,2.61948 0.70554,0.71919 1.56245,1.079 2.57038,1.079 h 76.95603 c 1.00794,0 1.86483,-0.35981 2.57038,-1.079 0.70556,-0.7192 1.05834,-1.59204 1.05834,-2.61948 V 345.5634 c 0,-1.02743 -0.35278,-1.9008 -1.05834,-2.62 -0.70555,-0.71919 -1.56244,-1.079 -2.57038,-1.079 h -47.02039 c -1.00793,0 -1.86431,-0.35981 -2.56987,-1.079 -0.70555,-0.7192 -1.05833,-1.59204 -1.05833,-2.61948 v -5.85597 c 0,-1.02742 0.35278,-1.90132 1.05833,-2.62052 0.70556,-0.7192 1.56194,-1.07848 2.56987,-1.07848 h 40.9727 c 1.00794,0 1.86482,-0.35981 2.57038,-1.07901 0.70555,-0.7192 1.05834,-1.59205 1.05834,-2.61948 v -21.26795 c 0,-1.02743 -0.35279,-1.90131 -1.05834,-2.62051 -0.70556,-0.7192 -1.56244,-1.07849 -2.57038,-1.07849 h -40.9727 c -1.00793,0 -1.86431,-0.35981 -2.56987,-1.079 -0.70555,-0.71921 -1.05833,-1.59205 -1.05833,-2.61948 v -6.47299 c 0,-1.02742 0.35278,-1.90079 1.05833,-2.61999 0.70556,-0.7192 1.56194,-1.07901 2.56987,-1.07901 h 47.02039 c 1.00794,0 1.86483,-0.35929 2.57038,-1.07849 0.70556,-0.71919 1.05834,-1.59255 1.05834,-2.61999 v -20.95945 c 0,-1.02743 -0.35278,-1.90079 -1.05834,-2.61999 -0.70555,-0.7192 -1.56244,-1.07849 -2.57038,-1.07849 z m 103.56577,0 c -1.00794,0 -1.86534,0.35929 -2.5709,1.07849 -0.70555,0.7192 -1.05833,1.59256 -1.05833,2.61999 v 105.41424 c 0,1.02744 0.35278,1.90028 1.05833,2.61948 0.70556,0.71919 1.56296,1.079 2.5709,1.079 h 22.52679 c 1.00795,0 1.86536,-0.35981 2.57091,-1.079 0.70556,-0.7192 1.05833,-1.59204 1.05833,-2.61948 V 341.8644 c 0,-1.02744 0.35278,-1.90028 1.05833,-2.61948 0.70556,-0.71919 1.56194,-1.079 2.56987,-1.079 h 3.3259 c 1.00793,0 2.06627,0.30856 3.175,0.92501 1.10873,0.51373 1.96562,1.18155 2.57038,2.00349 3.12459,4.52069 6.24951,8.98952 9.37411,13.40745 3.2254,4.41795 6.45051,8.78478 9.67589,13.09998 0.60476,0.82194 1.46217,1.54156 2.57091,2.15801 1.2095,0.51371 2.31789,0.76997 3.32589,0.76997 h 28.12128 c 1.0079,0 1.66337,-0.4623 1.96577,-1.38699 0.3024,-1.02742 0.15108,-1.95205 -0.45372,-2.77399 -3.32619,-4.52069 -7.10648,-9.50411 -11.33987,-14.94948 -4.2333,-5.44537 -8.26467,-10.73578 -12.09487,-15.87293 -0.6047,-0.82195 -0.80621,-1.64458 -0.60461,-2.46652 0.30239,-0.92468 0.85664,-1.69502 1.66294,-2.31148 2.4191,-1.54114 4.58632,-3.44164 6.50141,-5.70198 1.9151,-2.3631 3.57827,-4.9837 4.98936,-7.8605 1.4111,-2.8768 2.46941,-5.90744 3.175,-9.09247 0.8064,-3.28778 1.20923,-6.5752 1.20923,-9.86296 0,-5.9591 -1.00779,-11.40481 -3.02359,-16.33647 -1.91509,-4.93166 -4.63666,-9.19547 -8.16435,-12.79147 -3.427,-3.596 -7.61031,-6.37039 -12.54911,-8.32249 -4.93892,-2.05487 -10.33077,-3.08147 -16.17679,-3.08147 z m 108.5541,0 c -1.008,0 -1.86427,0.35929 -2.56987,1.07849 -0.7055,0.7192 -1.05833,1.59256 -1.05833,2.61999 v 105.41424 c 0,1.02744 0.35283,1.90028 1.05833,2.61948 0.7056,0.71919 1.56187,1.079 2.56987,1.079 h 76.95604 c 1.0079,0 1.8648,-0.35981 2.5704,-1.079 0.7054,-0.7192 1.0578,-1.59204 1.0578,-2.61948 V 345.5634 c 0,-1.02743 -0.3524,-1.9008 -1.0578,-2.62 -0.7056,-0.71919 -1.5625,-1.079 -2.5704,-1.079 h -47.0199 c -1.0079,0 -1.8648,-0.35981 -2.5704,-1.079 -0.7055,-0.7192 -1.0583,-1.59204 -1.0583,-2.61948 v -5.85597 c 0,-1.02742 0.3528,-1.90132 1.0583,-2.62052 0.7056,-0.7192 1.5625,-1.07848 2.5704,-1.07848 h 40.9722 c 1.0079,0 1.8653,-0.35981 2.5709,-1.07901 0.7056,-0.7192 1.0583,-1.59205 1.0583,-2.61948 v -21.26795 c 0,-1.02743 -0.3527,-1.90131 -1.0583,-2.62051 -0.7056,-0.7192 -1.563,-1.07849 -2.5709,-1.07849 h -40.9722 c -1.0079,0 -1.8648,-0.35981 -2.5704,-1.079 -0.7055,-0.71921 -1.0583,-1.59205 -1.0583,-2.61948 v -6.47299 c 0,-1.02742 0.3528,-1.90079 1.0583,-2.61999 0.7056,-0.7192 1.5625,-1.07901 2.5704,-1.07901 h 47.0199 c 1.0079,0 1.8648,-0.35929 2.5704,-1.07849 0.7054,-0.71919 1.0578,-1.59255 1.0578,-2.61999 v -20.95945 c 0,-1.02743 -0.3524,-1.90079 -1.0578,-2.61999 -0.7056,-0.7192 -1.5625,-1.07849 -2.5704,-1.07849 z m -587.8282,0.154 c -1.10873,0 -2.16707,0.3593 -3.175,1.07849 -0.90715,0.61646 -1.56259,1.3868 -1.96577,2.31148 L 338.5907,365.59835 c -0.40318,0.82195 -0.55399,1.54104 -0.4532,2.15749 0.10078,0.61646 0.35285,1.13004 0.75603,1.541 0.30237,0.41097 0.75589,0.71951 1.36064,0.925 0.50397,0.20549 1.00757,0.30799 1.51153,0.30799 h 26.00513 c 1.00793,0 1.96556,-0.30803 2.8727,-0.92449 1.00794,-0.71919 1.71348,-1.54132 2.11666,-2.466 l 4.23334,-9.24646 c 0.40317,-0.92469 1.05811,-1.69556 1.96525,-2.312 1.00794,-0.71921 2.06628,-1.07901 3.175,-1.07901 h 31.9009 c 1.00793,0 1.96607,0.3598 2.87321,1.07901 1.00792,0.61644 1.76359,1.38731 2.26756,2.312 l 4.08192,9.24646 c 0.50397,0.92468 1.20953,1.74681 2.11667,2.466 1.00792,0.61646 2.06627,0.92449 3.175,0.92449 h 25.85371 c 1.6127,0 2.67103,-0.51357 3.175,-1.54099 0.60475,-1.02743 0.70549,-2.00382 0.30231,-2.9285 L 413.73289,261.2626 c -0.40317,-0.92468 -1.10873,-1.69502 -2.11667,-2.31148 -0.90714,-0.71919 -1.86526,-1.07849 -2.87321,-1.07849 z m 509.05833,28.20241 h 16.02641 c 2.11666,0 3.88056,0.46232 5.29167,1.387 1.51191,0.82195 2.67096,1.90083 3.47731,3.23649 0.90714,1.23292 1.51198,2.56857 1.81436,4.00699 0.40318,1.33566 0.60461,2.51758 0.60461,3.54501 0,1.9521 -0.35278,3.64705 -1.05833,5.08547 -0.70556,1.4384 -1.61254,2.67158 -2.72128,3.699 -1.10873,0.92469 -2.3184,1.64377 -3.62872,2.15749 -1.31031,0.41097 -2.5701,0.61599 -3.77962,0.61599 h -16.02641 c -1.00793,0 -1.86431,-0.35928 -2.56987,-1.07849 -0.70555,-0.7192 -1.05833,-1.59257 -1.05833,-2.62 v -16.33595 c 0,-1.02742 0.35278,-1.90079 1.05833,-2.61999 0.70556,-0.7192 1.56194,-1.07901 2.56987,-1.07901 z m -498.62641,18.80247 c 0.50396,0 0.95747,0.46179 1.36064,1.38648 1.20953,2.97955 2.51992,6.21622 3.93103,9.70948 1.41111,3.39052 2.62079,6.37043 3.62872,8.93899 0.50398,0.92469 0.50398,1.74628 0,2.46549 -0.40316,0.61644 -1.10874,0.925 -2.11667,0.925 h -13.45603 c -1.10874,0 -1.8644,-0.30856 -2.26756,-0.925 -0.40318,-0.71921 -0.40318,-1.5408 0,-2.46549 l 7.55923,-18.64847 c 0.40317,-0.92469 0.85667,-1.38648 1.36064,-1.38648 z M 609.6,440.26666 c -9.52184,0.004 -17.23963,7.68901 -17.24391,17.1695 V 568.6242 l -21.66121,-21.56716 c -6.73812,-6.71306 -17.66708,-6.71306 -24.40523,0 -6.74235,6.70891 -6.74235,17.59091 0,24.29981 l 51.10748,50.88682 c 3.23842,3.21747 7.62795,5.0222 12.20287,5.01778 4.57493,0.004 8.96443,-1.80031 12.20287,-5.01778 l 51.10748,-50.88682 c 6.74234,-6.7089 6.74234,-17.5909 0,-24.29981 -6.73816,-6.71306 -17.66708,-6.71306 -24.40523,0 L 626.84391,568.6242 V 457.43616 c -0.004,-9.4805 -7.72204,-17.16517 -17.24391,-17.1695 z M 428.50459,625.97574 c -9.52184,0.004 -17.23968,7.68847 -17.2439,17.16898 v 25.44237 c 0,23.33491 19.36119,42.61291 42.79738,42.61291 h 311.08386 c 23.43633,0 42.79738,-19.27829 42.79738,-42.61291 v -25.44237 c -0.004,-9.48051 -7.72205,-17.16465 -17.2439,-17.16898 -9.52189,0.004 -17.23968,7.68847 -17.24391,17.16898 v 25.44237 c 0,4.76953 -3.51927,8.27392 -8.30957,8.27392 H 454.05807 c -4.78967,0 -8.30957,-3.50469 -8.30957,-8.27392 v -25.44237 c -0.004,-9.48051 -7.72202,-17.16465 -17.24391,-17.16898 z" style="font-size:135.467px;line-height:1;font-family:Heavitas;-inkscape-font-specification:Heavitas;text-align:center;letter-spacing:0;word-spacing:0;text-orientation:upright;text-anchor:middle;fill:#fff;fill-opacity:1;stroke-width:1.00012;stroke-linecap:round;stroke-linejoin:round;stroke-miterlimit:128"/></svg>