<svg xmlns="http://www.w3.org/2000/svg" xml:space="preserve" id="svg1" width="4608" height="3072" version="1.1" viewBox="0 0 1219.2 812.8"><defs id="defs1"><style id="style1">.cls-1{fill:#0283c0}.cls-2{fill:#fff}.cls-3{fill:#ef483f}</style></defs><path id="rect1" d="M 0,812.8 V 0 h 1219.2 v 812.8 z" style="fill:#000;fill-opacity:1;fill-rule:evenodd;stroke:none;stroke-width:8.46667;stroke-linecap:round;stroke-linejoin:round"/><path id="path1" d="M 304.8 101.6 L 364.66818 233.31031 L 388.61556 209.36293 L 568.71826 389.46615 L 440.26667 389.46615 L 440.26667 355.6 L 304.8 406.4 L 440.26667 457.2 L 440.26667 423.33333 L 568.71877 423.33333 L 388.61556 603.43655 L 364.66818 579.48969 L 304.8 711.2 L 436.51031 651.3313 L 412.56293 627.38444 L 592.66615 447.28123 L 592.66615 575.73333 L 558.8 575.73333 L 609.6 711.2 L 660.4 575.73333 L 626.53333 575.73333 L 626.53333 447.28071 L 806.63707 627.38444 L 782.68969 651.33182 L 914.4 711.2 L 854.53182 579.48969 L 830.58444 603.43655 L 650.48123 423.33333 L 778.93333 423.33333 L 778.93333 457.2 L 914.4 406.4 L 778.93333 355.6 L 778.93333 389.46615 L 650.48174 389.46615 L 830.58444 209.36293 L 854.5313 233.31031 L 914.4 101.6 L 782.68969 161.46818 L 806.63655 185.41556 L 626.53333 365.51877 L 626.53333 237.06667 L 660.4 237.06667 L 609.6 101.6 L 558.8 237.06667 L 592.66615 237.06667 L 592.66615 365.51826 L 412.56345 185.41556 L 436.51031 161.46818 L 304.8 101.6 z" style="color:#000;fill:#ffd000;stroke-miterlimit:128;-inkscape-stroke:none;paint-order:stroke fill markers"/></svg>