<svg xmlns="http://www.w3.org/2000/svg" xml:space="preserve" id="svg1" width="4608" height="3072" version="1.1" viewBox="0 0 1219.2 812.8"><defs id="defs1"><style id="style1">.cls-1{fill:#0283c0}.cls-2{fill:#fff}.cls-3{fill:#ef483f}</style></defs><path id="rect1" d="M 0 0 L 0 812.8 L 1219.2 812.8 L 1219.2 0 L 0 0 z" style="fill:#000;fill-rule:evenodd;stroke:none;stroke-width:8.46667;stroke-linecap:round;stroke-linejoin:round;fill-opacity:1"/><path id="path10" d="m 304.80001,101.60001 25.40031,50.80062 H 487.68 l 6.33821,2.51611 -26.65789,-53.31673 z m 447.03968,0 -30.95625,61.91343 30.95531,-11.11281 h 137.16092 l 25.40032,-50.80062 z M 381.00001,254 457.2,406.40001 h -91.44002 v 20.31969 h 243.84001 v 9.2e-4 l 243.83994,-9.2e-4 V 406.40001 H 762 L 838.19999,254 h -48.17938 l -56.0589,38.9939 9.18177,9.1855 c 4.38127,4.37708 6.79865,10.20581 6.79865,16.40737 0,6.19738 -2.41738,12.02133 -6.79865,16.40271 -4.37268,4.37697 -10.20457,6.79028 -16.40179,6.79028 -2.33837,0 -4.63569,-0.34628 -6.80981,-1.01203 -0.49,5.39616 -2.82013,10.41981 -6.69913,14.2996 -4.51685,4.51611 -10.46808,6.77726 -16.40366,6.77726 -3.94873,0 -7.8903,-1.02026 -11.42162,-3.0175 -0.85796,4.52965 -3.04576,8.6923 -6.38287,12.02532 -4.37283,4.38127 -10.19598,6.79029 -16.39806,6.79029 -3.08213,0 -6.06685,-0.60041 -8.83296,-1.73478 -5.81452,5.23993 -14.47063,8.40414 -23.71762,8.40414 -4.25383,0 -8.45466,-0.68997 -12.31368,-1.95617 -2.1545,0.86875 -4.70132,1.63782 -7.43768,2.27427 l -0.72461,1.45016 -0.56275,-1.12738 c -3.34992,0.69116 -7.01953,1.12738 -10.86258,1.12738 -11.68011,0 -24.88469,-4.00455 -35.13925,-16.78967 -1.49993,0.29534 -3.03836,0.44741 -4.60344,0.44741 -6.19802,0 -12.02135,-2.40815 -16.40273,-6.78935 -4.17126,-4.16413 -6.3913,-9.53874 -6.71958,-15.00931 -1.87813,0.49305 -3.82617,0.7646 -5.81548,0.7646 -6.19856,0 -12.02517,-2.41704 -16.40643,-6.79402 -4.35266,-4.35634 -6.76101,-10.13924 -6.79028,-16.29574 -1.33516,0.23797 -2.6992,0.37857 -4.0844,0.37857 -6.19799,0 -12.02614,-2.41693 -16.40737,-6.79399 -4.3771,-4.37711 -6.79307,-10.20578 -6.79307,-16.40737 0,-6.19727 2.41639,-12.01721 6.79771,-16.40273 l 0.15156,-0.15156 -38.88972,-32.23711 z m -15.24003,294.63969 v 20.32063 H 538.4797 l 71.12029,142.23967 71.11938,-142.23967 h 172.72056 v -20.3197 H 690.87968 609.59999 v -9.3e-4 z" style="display:inline;fill:#b00020;fill-opacity:1;stroke-width:50.8;stroke-linecap:round;stroke-linejoin:round;paint-order:stroke markers fill"/><path id="path9" d="m 571.53907,153.28738 c -11.31253,0.19274 -21.81219,4.22687 -31.2229,7.83023 -9.05434,3.46115 -17.61924,6.70727 -25.55937,6.06226 -11.05524,-0.93303 -21.50803,-2.32668 -27.0768,-4.61987 h -152.4 l 40.64,81.28 h 76.22046 l 41.23718,34.17962 c 0.1476,0.13176 0.26629,0.26761 0.39811,0.40308 l 2.56046,-2.56046 c 4.3807,-4.38135 10.20478,-6.78968 16.40211,-6.78968 6.20222,0 12.02995,2.40833 16.40706,6.78968 3.08642,3.09135 5.17029,6.89661 6.14909,11.04366 l 1.47525,-1.47526 c 4.38133,-4.37711 10.20967,-6.794 16.40706,-6.794 6.19727,0 12.02562,2.41689 16.40272,6.794 4.05186,4.04816 6.39447,9.32935 6.72765,15.00498 1.87824,-0.48941 3.82615,-0.7646 5.81546,-0.7646 6.19738,0 12.02569,2.41698 16.40272,6.79833 4.38134,4.38138 6.79338,10.20048 6.79338,16.40273 0,1.92766 -0.26283,3.81036 -0.71499,5.63066 16.11027,12.12434 12.63777,21.83619 7.96478,30.05584 -1.47551,2.60189 -2.41698,4.3771 -2.09661,5.46634 0.20991,0.69076 1.50446,3.2589 9.30486,7.36078 3.10716,1.22895 6.66199,1.88702 10.29952,1.88702 5.48638,0 10.72383,-1.54136 14.47912,-4.08533 l -18.4119,-18.40818 c -2.15347,-2.15407 -2.15347,-5.65512 0,-7.81285 2.15705,-2.15345 5.6594,-2.15345 7.81285,0 l 20.08126,20.08063 c 2.30115,2.2889 5.34657,3.55451 8.58924,3.55451 h 0.008 c 3.2427,0 6.29118,-1.2534 8.58924,-3.55451 2.28462,-2.2981 3.55513,-5.34727 3.55513,-8.59421 0,-3.23048 -1.24872,-6.26329 -3.5297,-8.56444 l -32.745,-32.7521 c -2.15224,-2.15768 -2.15224,-5.65994 0,-7.80914 2.15833,-2.15345 5.65568,-2.15345 7.80913,0 l 32.7025,32.70312 c 0.008,0.008 0.0161,0.007 0.0161,0.0161 0.01,0 0.0162,0.0162 0.0248,0.0254 l 9.19387,9.18951 c 2.29626,2.2889 5.34654,3.55514 8.58924,3.55514 3.24267,0 6.2918,-1.26196 8.58986,-3.55514 2.2932,-2.29746 3.5632,-5.34726 3.5632,-8.59358 0,-3.2427 -1.26207,-6.29185 -3.5632,-8.58925 -0.01,-0.01 -0.0162,-0.0162 -0.0254,-0.0335 l -49.94982,-49.95231 c -2.15833,-2.15773 -2.15833,-5.65996 0,-7.80913 2.15712,-2.15346 5.65508,-2.15346 7.80728,0 l 54.89774,54.89215 c 2.29682,2.28947 5.35027,3.55079 8.59296,3.55079 3.24634,0 6.29306,-1.24911 8.5942,-3.55079 2.28463,-2.30114 3.55018,-5.3509 3.55018,-8.58986 0,-3.24637 -1.2619,-6.29612 -3.55018,-8.59358 l -13.85589,-13.85652 h -0.01 l -27.76265,-27.76637 -5.31813,-5.31441 -50.20592,-50.21522 c -7.85406,2.10031 -15.90488,11.89367 -23.71019,21.40024 -10.65676,12.97926 -21.68693,26.40273 -36.257,26.40273 -3.09868,0 -6.21787,-0.62923 -9.27199,-1.87833 -4.16716,-1.70129 -7.13062,-4.96857 -8.57313,-9.45308 -6.05825,-18.86842 16.96588,-56.24386 19.60811,-60.43971 4.86581,-7.72231 12.56856,-17.93151 23.30772,-26.50505 -8.2818,-5.08734 -17.27878,-8.10444 -26.86285,-8.91419 -1.64796,-0.1418 -3.27964,-0.1925 -4.89521,-0.16495 h -6.2e-4 z m 78.438,3.26554 c -31.8144,0 -51.64216,23.94055 -60.63009,38.20542 -11.19547,17.77549 -21.4665,41.75295 -18.44168,51.17269 0.54738,1.70983 1.39447,2.26092 2.22499,2.60263 1.75132,0.71518 3.41559,1.05917 5.09674,1.05917 9.34593,0 18.68761,-11.36778 27.72109,-22.36205 10.06069,-12.2469 20.46329,-24.90981 33.79516,-25.79749 0.11904,-0.01 0.25121,-0.0131 0.37021,-0.0131 1.4503,0 2.86382,0.57871 3.90425,1.61851 l 52.19155,52.19217 c 0.004,0.006 0.004,0.006 0.0131,0.008 l 29.81027,29.81275 56.91375,-41.21298 h 60.33492 l 40.63993,-81.27906 h -132.08 c -5.73721,1.81224 -30.46114,12.87859 -41.55839,12.87859 -7.98146,0 -16.22579,-3.98249 -24.956,-8.19485 -10.37738,-5.00968 -22.12286,-10.69082 -35.34854,-10.69082 z M 512.73894,280.11747 c -3.24271,0 -6.29202,1.26138 -8.58986,3.55885 l -10.52897,10.52588 c -2.28894,2.30113 -3.55513,5.34655 -3.55513,8.58924 0,3.25063 1.2619,6.301 3.55513,8.5942 2.30094,2.29744 5.34721,3.55948 8.59419,3.55948 3.24249,0 6.29603,-1.25839 8.58924,-3.55948 l 10.52898,-10.52959 c 2.28894,-2.29747 3.55575,-5.34653 3.55575,-8.58924 0,-3.24636 -1.25827,-6.293 -3.55575,-8.59049 -2.29381,-2.29318 -5.34316,-3.55885 -8.59358,-3.55885 z m 40.44156,9.56284 c -3.24666,2.5e-4 -6.29574,1.26276 -8.59296,3.55574 l -23.68228,23.686 c -2.29322,2.29748 -3.55885,5.34661 -3.55885,8.59297 0,3.24269 1.26137,6.29249 3.55885,8.59358 2.29789,2.28526 5.34803,3.55079 8.59483,3.55079 3.24206,0 6.29114,-1.25698 8.58923,-3.55078 l 3.93279,-3.94085 c 0.008,0 0.0125,-0.007 0.0161,-0.007 l 19.74763,-19.75693 c 2.28162,-2.2981 3.54273,-5.33471 3.54273,-8.57375 0,-3.24205 -1.26212,-6.29667 -3.55514,-8.58987 -2.29724,-2.29358 -5.35138,-3.5586 -8.59296,-3.55885 z m 28.94707,21.04801 v 6.2e-4 c -3.25122,0 -6.30223,1.25697 -8.59544,3.55017 l -3.9117,3.91667 c -0.0126,0.008 -0.025,0.0245 -0.0372,0.0409 l -19.74763,19.7526 c -4.71803,4.74682 -4.71838,12.44055 0.0124,17.16732 2.29745,2.28447 5.34716,3.55017 8.58986,3.55017 3.24634,0 6.2961,-1.2663 8.59296,-3.55017 l 23.68165,-23.68972 c 2.29299,-2.29747 3.55948,-5.34797 3.55948,-8.59049 0,-3.24204 -1.26193,-6.29543 -3.55513,-8.58924 -2.29687,-2.29302 -5.35086,-3.55885 -8.58924,-3.55885 z m 17.22809,27.64358 c -0.27155,0.31245 -0.53432,0.62422 -0.82599,0.91592 l -23.686,23.68476 c -0.48085,0.48085 -0.99065,0.93772 -1.50441,1.36488 10.13123,11.08075 22.69879,11.6643 31.40398,10.20526 -2.51105,-2.33452 -4.08484,-4.75116 -4.85737,-7.37754 -1.68115,-5.67564 0.95719,-10.32897 3.0826,-14.0562 2.82347,-4.96816 4.66052,-8.22687 -3.61281,-14.73708 z M 702.38069,449.58 c -5.22743,0 -10.15313,1.00509 -14.77739,3.01563 -4.62429,2.01057 -8.64519,4.75887 -12.06314,8.24383 -3.41794,3.41794 -6.1322,7.43886 -8.14276,12.06315 -2.01055,4.62427 -3.01562,9.54995 -3.01562,14.77739 0,5.22745 1.00507,10.15372 3.01562,14.77801 2.01056,4.62426 4.72482,8.67864 8.14276,12.16361 3.41795,3.41791 7.43884,6.13221 12.06314,8.14275 4.62426,2.01057 9.54996,3.01563 14.77739,3.01563 5.22744,0 10.15375,-1.00506 14.77802,-3.01563 4.62426,-2.01054 8.64519,-4.72484 12.06313,-8.14275 3.48496,-3.48497 6.23267,-7.53935 8.24322,-12.16361 2.01057,-4.62429 3.01625,-9.55056 3.01625,-14.77801 0,-5.22744 -1.00568,-10.15312 -3.01625,-14.77739 -2.01055,-4.62429 -4.75826,-8.64521 -8.24322,-12.06315 -3.41794,-3.48496 -7.43887,-6.23326 -12.06313,-8.24383 -4.62427,-2.01054 -9.55058,-3.01563 -14.77802,-3.01563 z m -152.4,0.10044 c -5.36147,0 -10.38809,1.00568 -15.07938,3.01624 -4.6913,2.01054 -8.81255,4.75826 -12.36452,8.24322 -3.48495,3.41795 -6.26673,7.43888 -8.3443,12.06315 -2.01057,4.62428 -3.01562,9.54993 -3.01562,14.77739 0,5.22744 1.00505,10.15374 3.01562,14.77801 2.07757,4.62428 4.85935,8.64519 8.3443,12.06314 3.55197,3.41791 7.67322,6.13222 12.36452,8.14276 4.69129,2.01056 9.71791,3.01562 15.07938,3.01562 4.89234,0 9.51644,-0.80381 13.87265,-2.41225 4.3562,-1.67548 8.20993,-3.95437 11.56084,-6.83617 3.41794,-2.8818 6.19908,-6.29955 8.34368,-10.25364 2.14461,-3.95407 3.45188,-8.24315 3.921,-12.86743 0.20106,-1.74248 0.30138,-3.41823 0.30138,-5.02667 0,-1.67547 -0.0668,-3.08308 -0.20092,-4.22238 -0.067,-0.73721 -0.3686,-1.3063 -0.90475,-1.70842 -0.46914,-0.46911 -1.03888,-0.70383 -1.70904,-0.70383 h -34.58146 c -0.6702,0 -1.23993,0.23472 -1.70905,0.70383 -0.46914,0.46913 -0.70382,1.03822 -0.70382,1.70842 v 11.9633 c 0,0.67018 0.23468,1.23991 0.70382,1.70904 0.46912,0.46914 1.03885,0.70321 1.70905,0.70321 h 11.56023 c 0.67019,0 1.13959,0.23472 1.40766,0.70384 0.26808,0.40212 0.23465,0.87152 -0.10044,1.40767 -1.47442,2.14458 -3.45173,3.68595 -5.93142,4.62421 -2.47968,0.93827 -4.9927,1.40705 -7.5394,1.40705 -2.5467,0 -4.95938,-0.50286 -7.238,-1.50813 -2.21163,-1.07229 -4.15488,-2.44584 -5.83035,-4.1213 -1.67547,-1.74249 -3.01618,-3.75325 -4.02145,-6.03188 -0.93827,-2.27862 -1.40767,-4.69132 -1.40767,-7.238 0,-2.47968 0.4694,-4.85894 1.40767,-7.13756 1.00527,-2.34565 2.34598,-4.38922 4.02145,-6.13171 1.67547,-1.74247 3.61872,-3.11666 5.83035,-4.12193 2.27862,-1.07229 4.6913,-1.60857 7.238,-1.60857 3.55198,0 6.60126,0.77099 9.14797,2.31241 2.61372,1.54141 4.95952,3.58564 7.03709,6.13234 0.46912,0.53614 1.03885,0.87116 1.70905,1.00521 0.67018,0.067 1.27335,-0.0672 1.8095,-0.40245 l 12.06314,-7.7403 c 0.53615,-0.33509 0.87118,-0.83795 1.00522,-1.50813 0.20106,-0.73719 0.13412,-1.37382 -0.20093,-1.90997 -3.41793,-5.29444 -7.87483,-9.44977 -13.37034,-12.4656 -5.4285,-3.01581 -11.82865,-4.52374 -19.2007,-4.52374 z m 236.14001,0.10044 c -5.36147,0 -10.38809,1.00569 -15.0794,3.01626 -4.69128,2.01052 -8.81314,4.72482 -12.36513,8.14275 -3.48494,3.41795 -6.23204,7.43888 -8.2426,12.06315 -2.01056,4.62428 -3.01625,9.54993 -3.01625,14.77739 0,5.22744 1.00569,10.15373 3.01625,14.77801 2.01056,4.62428 4.75766,8.64519 8.2426,12.06314 3.55199,3.41791 7.67385,6.13222 12.36513,8.14276 4.69131,2.01056 9.71793,3.01562 15.0794,3.01562 4.28918,0 8.2098,-0.50222 11.76176,-1.5075 3.55198,-1.00529 6.76909,-2.4129 9.65088,-4.22238 2.94882,-1.8095 5.59559,-3.98749 7.94123,-6.53417 2.34565,-2.61373 4.49018,-5.49581 6.43372,-8.64567 0.33511,-0.60316 0.40257,-1.17292 0.20154,-1.70906 -0.20106,-0.60316 -0.60359,-1.0385 -1.20676,-1.30658 l -14.27509,-5.62942 c -0.67018,-0.26806 -1.34023,-0.26806 -2.01042,0 -0.60317,0.26809 -1.07195,0.66998 -1.40705,1.20613 -1.74247,2.81476 -4.12172,5.12714 -7.13755,6.93663 -2.94881,1.74247 -6.26623,2.61379 -9.95226,2.61379 -2.54669,0 -4.95937,-0.53629 -7.23801,-1.60859 -2.2116,-1.07229 -4.15549,-2.47988 -5.83096,-4.22237 -1.67546,-1.74246 -2.98214,-3.75326 -3.92038,-6.03188 -0.93827,-2.34565 -1.40705,-4.79178 -1.40705,-7.33846 0,-2.47968 0.46878,-4.89237 1.40705,-7.23801 0.93824,-2.34565 2.24492,-4.38923 3.92038,-6.13172 1.67547,-1.80948 3.61936,-3.25053 5.83096,-4.32283 2.27864,-1.0723 4.69132,-1.60859 7.23801,-1.60859 3.88709,0 7.20451,0.83789 9.95226,2.51334 2.74776,1.60843 5.09354,3.95423 7.03709,7.03709 0.33508,0.53614 0.83733,0.93805 1.50751,1.20612 0.67019,0.26808 1.34024,0.26808 2.01042,0 l 14.27509,-5.62942 c 0.60317,-0.26807 1.0057,-0.70404 1.20676,-1.30721 0.20103,-0.60315 0.13353,-1.1729 -0.20154,-1.70904 -1.94354,-3.08285 -4.08807,-5.89743 -6.43372,-8.44413 -2.27863,-2.61372 -4.85851,-4.82514 -7.7403,-6.63465 -2.8818,-1.80949 -6.09889,-3.2171 -9.65089,-4.22237 -3.55195,-1.00528 -7.53945,-1.50813 -11.96268,-1.50813 z m -160.24138,0.10044 c -3.21689,0 -6.53432,0.36908 -9.95226,1.10629 -3.41795,0.67017 -6.53412,1.90934 -9.34889,3.71883 -2.74777,1.74248 -5.02667,4.12233 -6.83617,7.13818 -1.8095,3.01583 -2.71426,6.83548 -2.71426,11.45976 0,3.14987 0.46942,5.89757 1.40768,8.24322 1.00527,2.27865 2.31193,4.25595 3.92037,5.93142 1.60845,1.67547 3.41796,3.04901 5.4285,4.12131 2.07757,1.07229 4.15524,1.97704 6.2328,2.71424 2.07757,0.6702 4.08834,1.20647 6.03189,1.60859 2.01055,0.33509 3.75258,0.63667 5.22697,0.90475 1.54142,0.33509 3.04935,0.60323 4.52375,0.80429 1.47441,0.20106 2.74762,0.46921 3.81992,0.8043 1.1393,0.33509 2.04408,0.77043 2.71426,1.30658 0.6702,0.46913 1.00582,1.1398 1.00582,2.01105 0,1.67546 -0.77098,2.94868 -2.31242,3.81991 -1.54141,0.80421 -3.78628,1.20613 -6.73508,1.20613 -3.08284,0 -6.40029,-0.67006 -9.95226,-2.01042 -3.55198,-1.34039 -7.13756,-3.18331 -10.75656,-5.52896 -0.53615,-0.33509 -1.13933,-0.43541 -1.80951,-0.30138 -0.6702,0.1341 -1.20645,0.46906 -1.60857,1.00521 l -7.74093,11.15839 c -0.40212,0.53614 -0.56931,1.17275 -0.50229,1.90996 0.067,0.67018 0.36858,1.20647 0.90475,1.60859 1.87651,1.5414 3.92071,3.01591 6.13233,4.42329 2.27862,1.34037 4.72475,2.51265 7.33847,3.51792 2.61371,1.00529 5.42831,1.77627 8.44414,2.31242 3.01584,0.60318 6.26636,0.90475 9.75134,0.90475 4.28919,0 8.17633,-0.43533 11.6613,-1.30659 3.55198,-0.93824 6.56784,-2.34586 9.04751,-4.22238 2.54671,-1.87652 4.52341,-4.25576 5.93081,-7.13754 1.40738,-2.9488 2.11149,-6.43407 2.11149,-10.45518 0,-4.28918 -0.8713,-7.84068 -2.61379,-10.65547 -1.67546,-2.8818 -3.78656,-5.19415 -6.33326,-6.93663 -2.47968,-1.80948 -5.16049,-3.14958 -8.04229,-4.02084 -2.8818,-0.93825 -5.5292,-1.64236 -7.94184,-2.1115 -0.46914,-0.067 -1.5417,-0.23422 -3.21718,-0.5023 -1.67545,-0.3351 -3.41746,-0.77106 -5.22696,-1.3072 -1.8095,-0.53615 -3.41836,-1.17275 -4.82575,-1.90996 -1.40739,-0.7372 -2.11089,-1.57445 -2.11089,-2.51272 0,-0.93825 0.26816,-1.67581 0.80429,-2.21196 0.60316,-0.53615 1.34011,-0.90461 2.21135,-1.10567 0.87124,-0.26806 1.77598,-0.40245 2.71424,-0.40245 1.00527,-0.067 1.87662,-0.10044 2.61381,-0.10044 2.47969,0 5.19393,0.4694 8.14275,1.40767 2.94881,0.87124 6.13248,2.37917 9.55042,4.52375 0.53615,0.40212 1.13933,0.53589 1.8095,0.40184 0.67019,-0.1341 1.20647,-0.46907 1.60859,-1.00521 l 7.84077,-11.15839 c 0.40212,-0.53614 0.56992,-1.13931 0.5029,-1.8095 -0.067,-0.67017 -0.3686,-1.23992 -0.90475,-1.70905 -4.08811,-3.14984 -8.37781,-5.52909 -12.86804,-7.13754 -4.42324,-1.67547 -9.44922,-2.51334 -15.07877,-2.51334 z m -193.01334,1.00521 c -0.67018,0 -1.2399,0.23469 -1.70904,0.70383 -0.46913,0.46912 -0.70384,1.03886 -0.70384,1.70905 v 68.76107 c 0,0.6702 0.23471,1.23992 0.70384,1.70904 0.46914,0.46914 1.03886,0.70383 1.70904,0.70383 h 14.97832 c 0.67018,0 1.2399,-0.23469 1.70904,-0.70383 0.46912,-0.46912 0.70383,-1.03884 0.70383,-1.70904 v -35.98912 c 0,-0.67019 0.20064,-1.03866 0.60275,-1.10567 0.46913,-0.1341 0.9051,0.0666 1.30721,0.60275 l 26.23778,36.89387 c 0.4021,0.53615 0.97183,1.00557 1.70904,1.40767 0.73721,0.40212 1.4407,0.60337 2.11087,0.60337 h 14.87786 c 0.67017,0 1.23992,-0.23469 1.70905,-0.70383 0.46914,-0.46912 0.70382,-1.03884 0.70382,-1.70904 v -68.76107 c 0,-0.67019 -0.23468,-1.23992 -0.70382,-1.70905 -0.46913,-0.46914 -1.03888,-0.70383 -1.70905,-0.70383 h -14.87786 c -0.67017,0 -1.23991,0.23469 -1.70904,0.70383 -0.46914,0.46913 -0.70383,1.03886 -0.70383,1.70905 v 35.98912 c 0,0.67017 -0.2341,1.03866 -0.70321,1.10566 -0.40212,0.067 -0.80463,-0.16772 -1.20675,-0.70383 L 451.7653,452.79649 c -0.40211,-0.53615 -0.97185,-0.97148 -1.70904,-1.30658 -0.73721,-0.40211 -1.44134,-0.60338 -2.11151,-0.60338 z m -33.47579,0.10044 c -0.73721,0 -1.34036,0.2347 -1.8095,0.70384 -0.40212,0.46912 -0.60337,1.03884 -0.60337,1.70904 v 68.66061 c 0,0.67019 0.20125,1.23993 0.60337,1.70904 0.46914,0.46913 1.07229,0.70384 1.8095,0.70384 h 15.17923 c 0.67018,0 1.2399,-0.23471 1.70904,-0.70384 0.46913,-0.46911 0.70384,-1.03885 0.70384,-1.70904 v -68.66054 c 0,-0.6702 -0.23471,-1.23992 -0.70384,-1.70904 -0.46914,-0.46914 -1.03886,-0.70383 -1.70904,-0.70383 z m 302.9905,17.79365 c 2.47969,0 4.82549,0.53628 7.0371,1.60858 2.21159,1.00526 4.1555,2.37883 5.83095,4.1213 1.67547,1.67548 2.98215,3.68623 3.92038,6.03188 0.93827,2.27861 1.40767,4.65788 1.40767,7.13754 0,2.54672 -0.4694,4.9594 -1.40767,7.23802 -0.93823,2.27862 -2.24491,4.28878 -3.92038,6.03126 -1.67545,1.74248 -3.61936,3.15008 -5.83095,4.22237 -2.21161,1.00527 -4.55741,1.50813 -7.0371,1.50813 -2.47967,0 -4.82487,-0.50286 -7.03647,-1.50813 -2.21162,-1.07229 -4.1555,-2.47989 -5.83096,-4.22237 -1.60844,-1.74248 -2.88165,-3.75264 -3.81992,-6.03126 -0.93824,-2.27862 -1.40767,-4.6913 -1.40767,-7.23802 0,-2.47966 0.46943,-4.85893 1.40767,-7.13754 0.93827,-2.34565 2.21148,-4.3564 3.81992,-6.03188 1.67546,-1.74247 3.61934,-3.11604 5.83096,-4.1213 2.2116,-1.0723 4.5568,-1.60858 7.03647,-1.60858 z" style="display:inline;fill:#fff;fill-opacity:1;stroke-width:50.8;stroke-linecap:round;stroke-linejoin:round;paint-order:stroke markers fill"/></svg>