<svg xmlns="http://www.w3.org/2000/svg" xml:space="preserve" id="svg1" width="4608" height="3072" version="1.1" viewBox="0 0 1219.2 812.8"><defs id="defs1"><style id="style1">.cls-1{fill:#0283c0}.cls-2{fill:#fff}.cls-3{fill:#ef483f}</style></defs><path id="rect1" d="M 0 0 L 0 812.8 L 1219.2 812.8 L 1219.2 0 L 0 0 z" style="fill:#000;fill-rule:evenodd;stroke:none;stroke-width:8.46667;stroke-linecap:round;stroke-linejoin:round;fill-opacity:1"/><path id="path2" fill="#fff" d="M 609.59998,101.60001 C 441.26399,101.60001 304.8,238.064 304.8,406.4 304.8,574.736 441.26399,711.2 609.59998,711.2 777.936,711.2 914.4,574.736 914.4,406.4 914.4,238.06399 777.936,101.6 609.59998,101.60001 Z m 0,30.48 a 276,276 0 0 1 45.72,3.81601 v 57.14399 H 594.36 v 61.716 a 151.404,151.404 0 0 0 -48.36001,13.1175 l -15.8595,-27.46952 52.7925,-30.47998 -40.19551,-69.621 a 274.875,274.875 0 0 1 66.8625,-8.223 z m 76.2,10.7355 c 36.60001,10.563 70.05753,28.533 98.63552,52.19701 l -28.563,49.47298 -52.79252,-30.47999 -30.84299,53.42099 a 151.425,151.425 0 0 0 -47.39701,-12.67049 v -31.23599 h 60.96 z m -172.8795,6.8055 28.374,49.14451 -52.79249,30.47999 31.2195,54.07799 a 153.267,153.267 0 0 0 -33.825,34.059 l -27.0555,-15.62101 30.48,-52.79249 -69.831,-40.31699 c 26.5725,-25.55251 58.28549,-45.792 93.43049,-59.031 z M 807.348,216.29302 c 25.6545,26.67899 45.95249,58.53899 59.19,93.85198 l -50.5245,29.17051 -30.48,-52.794 -52.5945,30.366 a 153.26849,153.26849 0 0 0 -34.32002,-34.191 l 15.621,-27.0525 52.79103,30.477 z m -409.13702,15.26999 49.473,28.5615 -30.47998,52.79249 53.421,30.843 a 151.4265,151.4265 0 0 0 -12.6705,47.4 H 426.72 v -60.95999 h -80.7075 c 10.563,-36.60151 28.5345,-70.05901 52.2,-98.63851 z M 594.36,285.4265 v 21.56101 a 100.584,100.584 0 0 0 -22.25251,6.10499 l -10.78198,-18.675 a 121.0905,121.0905 0 0 1 33.03449,-8.991 z m 30.47999,0 a 121.08899,121.08899 0 0 1 32.055,8.56951 l -10.78801,18.68849 a 100.584,100.584 0 0 0 -21.267,-5.70301 z m 58.4385,23.83801 a 122.62799,122.62799 0 0 1 23.0805,22.96649 l -18.6735,10.78351 a 100.584,100.584 0 0 0 -15.18,-15.09001 z m -148.20451,0.648 10.80301,18.71399 a 100.584,100.584 0 0 0 -14.751,14.868 l -18.6645,-10.77449 a 122.62799,122.62799 0 0 1 22.61249,-22.8075 z M 774.378,328.16001 804.85801,380.9525 875.808,339.98751 A 274.87649,274.87649 0 0 1 883.92,406.4 c 0,15.5805 -1.32001,30.85051 -3.8145,45.72 H 822.96 V 391.16 H 761.24249 A 151.41449,151.41449 0 0 0 748.31551,343.2065 Z M 721.75798,358.538 a 121.07999,121.07999 0 0 1 8.81402,32.622 h -21.55502 a 100.584,100.584 0 0 0 -5.9265,-21.84299 z m -224.56199,0.56101 18.68701,10.7895 A 100.584,100.584 0 0 0 510.1845,391.16 H 488.625 a 121.092,121.092 0 0 1 8.57099,-32.06099 z m -158.103,1.58099 h 57.14699 v 60.96001 h 61.71451 a 151.40549,151.40549 0 0 0 12.426,46.83449 l -27.999,16.167 -30.48,-52.7925 -68.81099,39.726 A 274.92149,274.92149 0 0 1 335.27999,406.4 c 0,-15.579 1.31701,-30.84899 3.813,-45.72 z m 149.53199,60.96001 h 21.5595 a 100.584,100.584 0 0 0 5.4945,20.682 L 496.96199,453.128 a 121.0785,121.0785 0 0 1 -8.33701,-31.48799 z m 220.3875,0 H 730.572 a 121.0875,121.0875 0 0 1 -8.56952,32.05949 L 703.31398,442.91 a 100.584,100.584 0 0 0 5.6985,-21.26999 z m 52.23001,0 h 31.2375 V 482.6 h 80.703 c -10.563,36.6015 -28.53,70.0605 -52.194,98.64 L 771.51301,552.6755 801.993,499.88151 748.57201,469.04 a 151.41449,151.41449 0 0 0 12.67048,-47.39999 z M 530.74198,468.8195 a 100.584,100.584 0 0 0 15.9525,16.05451 l -10.7745,18.66299 a 122.62349,122.62349 0 0 1 -23.832,-23.94599 z m 157.32901,0.486 18.6645,10.77601 a 122.62799,122.62799 0 0 1 -24.303,24.10049 l -10.773,-18.65999 a 100.584,100.584 0 0 0 16.4115,-16.21501 z m -287.32499,4.17901 30.48,52.79249 54.309,-31.356 a 153.25949,153.25949 0 0 0 35.04449,35.181 L 504.9585,557.1575 452.16599,526.6775 411.852,596.507 C 385.91699,569.537 365.44651,537.2765 352.2225,501.5 Z m 332.55448,21.93449 27.05701,15.621 -30.48001,52.7925 69.82651,40.317 c -27.075,26.0355 -59.481,46.572 -95.4255,59.79 l -28.8135,-49.905 52.7925,-30.48 -30.4995,-52.83 a 153.2625,153.2625 0 0 0 35.54249,-35.3055 z m -160.21199,4.695 a 100.584,100.584 0 0 0 21.2715,5.7 v 21.5595 a 121.1055,121.1055 0 0 1 -32.06101,-8.571 z m 72.00599,0.3555 10.818,18.73501 a 121.07999,121.07999 0 0 1 -31.0725,8.16899 v -21.56099 a 100.584,100.584 0 0 0 20.2545,-5.34301 z m -98.1345,44.901 a 151.42799,151.42799 0 0 0 47.4015,12.6705 v 31.2375 h -60.9615 v 80.70749 c -36.603,-10.5615 -70.05899,-28.53599 -98.63849,-52.2 l 28.563,-49.4745 52.7925,30.48 z m 124.30501,0.4245 15.35849,26.601 -52.7925,30.48 40.4955,70.1415 a 274.94999,274.94999 0 0 1 -64.72499,7.701 c -15.579,0 -30.84901,-1.32 -45.72,-3.81451 V 619.7585 h 60.95999 V 558.041 a 151.413,151.413 0 0 0 46.425,-12.246 z" style="display:inline;stroke-width:1"/></svg>