<svg xmlns="http://www.w3.org/2000/svg" xml:space="preserve" id="svg1" width="4608" height="3072" version="1.1" viewBox="0 0 1219.2 812.8"><defs id="defs1"><style id="style1">.cls-1{fill:#0283c0}.cls-2{fill:#fff}.cls-3{fill:#ef483f}</style></defs><path id="rect1" d="M 0 0 L 0 812.8 L 1219.2 812.8 L 1219.2 0 L 0 0 z" style="fill:#000;fill-rule:evenodd;stroke:none;stroke-width:8.46667;stroke-linecap:round;stroke-linejoin:round;fill-opacity:1"/><path id="path9" d="m 601.09599,101.6 v 7.81034 h 17.00796 V 101.6 Z m -46.93026,14.22876 v 90.02311 h 17.04084 v -90.02311 z m 23.45613,0 v 90.02311 h 17.04083 v -90.02311 z m 23.45925,0 v 90.02311 h 17.03772 v -90.02311 z m 23.45613,0 v 90.02311 h 17.0377 v -90.02311 z m 23.45613,0 v 90.02311 h 17.04084 v -90.02311 z m -93.82764,137.5017 v 240.64209 l 17.04084,-36.37051 V 253.33046 Z m 23.45613,0 v 190.57859 l 17.04083,-36.37051 V 253.33046 Z m 23.45925,0 v 140.50961 l 17.03772,-36.36423 V 253.33046 Z m 23.45613,0 v 90.44689 l 17.0377,-36.36423 v -54.08266 z m 23.45613,0 v 40.38338 l 17.04084,-36.37051 v -4.01287 z m 17.0377,65.49543 -17.0377,36.36426 v 200.09651 h 17.04084 V 384.55788 a 3.2086895,3.2086895 0 0 1 -0.003,-0.008 z m -23.45613,50.0635 -17.0377,36.36425 v 150.03302 h 17.0377 z m -23.45611,50.06349 -17.03772,36.36425 v 99.96952 h 17.03772 z m -23.45614,50.06351 -17.04083,36.37051 v 49.89977 h 17.04083 z m -23.45612,50.06349 -16.96408,36.20678 h 16.96408 z m -17.04084,82.76655 v 95.1248 h 17.04084 v -95.1248 z m 23.45613,0 v 95.1248 h 17.04083 v -95.1248 z m 23.45925,0 v 95.1248 h 17.03772 v -95.1248 z m 23.45613,0 v 95.1248 h 17.0377 v -95.1248 z m 23.45613,0 v 95.1248 h 17.04084 v -95.1248 z M 601.09599,703.38964 V 711.2 h 17.00796 v -7.81036 z" style="color:#000;display:inline;fill:#c0a060;stroke-width:1;stroke-linecap:round;stroke-linejoin:round;-inkscape-stroke:none;fill-opacity:1"/><path id="path6" d="m 554.16573,212.26795 v 14.11519 h 110.86534 v -14.11519 z m 157.4259,17.28054 -23.39975,14.50605 c 8.78479,23.96563 10.08057,40.40954 5.91476,51.72646 -3.96541,10.77258 -12.90596,16.14735 -22.65715,18.58945 v 66.96414 l 78.23512,-0.13006 c 9.85933,-63.82334 -2.41218,-115.54595 -38.09298,-151.65608 z m -157.4259,3.25071 v 14.11519 H 665.03107 V 232.7992 Z m 110.86534,39.67686 -110.86534,236.62291 v 31.22498 L 665.03107,303.70337 Z M 554.13596,561.7051 v 13.62404 h 108.3995 V 561.7051 Z m 0,20.10199 v 13.62406 h 108.3995 v -13.62406 z" style="color:#000;display:inline;fill:#fff;stroke-width:1;stroke-linecap:round;stroke-linejoin:round;-inkscape-stroke:none"/></svg>