<svg xmlns="http://www.w3.org/2000/svg" xml:space="preserve" id="svg1" width="4608" height="3072" version="1.1" viewBox="0 0 1219.2 812.8"><defs id="defs1"><style id="style1">.cls-1{fill:#0283c0}.cls-2{fill:#fff}.cls-3{fill:#ef483f}</style></defs><path id="rect1" d="M 0 0 L 0 812.8 L 1219.2 812.8 L 1219.2 0 L 0 0 z" style="fill:#702080;fill-rule:evenodd;stroke:none;stroke-width:8.46667;stroke-linecap:round;stroke-linejoin:round;fill-opacity:1"/><path id="path11" d="m 541.86667,101.6 33.86666,33.86667 V 203.2 H 508 L 474.13333,169.33333 V 304.8 L 508,270.93333 h 67.73333 v 70.87785 c 11.18114,-1.99278 22.50978,-3.04463 33.86667,-3.14451 11.35009,0.0198 22.67868,0.99062 33.86667,2.90215 V 270.93333 H 711.2 L 745.06667,304.8 V 169.33333 L 711.2,203.2 H 643.46667 V 135.46667 L 677.33333,101.6 Z M 609.6,372.53333 c -11.38958,0.14047 -22.73595,1.42979 -33.86667,3.84835 V 508 H 444.11501 c -2.41856,11.13072 -3.70787,22.47709 -3.84834,33.86667 0.14047,11.38958 1.42978,22.73595 3.84834,33.86666 h 331.37822 c 2.28137,-11.14467 3.43389,-22.49089 3.4401,-33.86666 -0.006,-11.37577 -1.15873,-22.722 -3.4401,-33.86667 H 643.46667 V 375.97343 C 632.322,373.69207 620.97577,372.53954 609.6,372.53333 Z m 67.73333,14.18932 v 87.41068 h 87.41069 c -17.08045,-39.11109 -48.2996,-70.33023 -87.41069,-87.41068 z m -135.46666,0.13952 c -39.03337,17.07561 -70.19556,48.23779 -87.27116,87.27116 h 87.27116 z M 609.6,423.33333 c 9.352,0 16.93333,7.58134 16.93333,16.93334 0,9.352 -7.58133,16.93333 -16.93333,16.93333 -9.352,0 -16.93333,-7.58133 -16.93333,-16.93333 0,-9.352 7.58133,-16.93334 16.93333,-16.93334 z m -101.6,101.6 c 9.352,0 16.93333,7.58133 16.93333,16.93334 C 524.93332,551.21867 517.352,558.8 508,558.8 c -9.352,0 -16.93332,-7.58133 -16.93333,-16.93333 0,-9.352 7.58132,-16.93334 16.93333,-16.93334 z m 101.6,0 c 9.352,0 16.93333,7.58134 16.93333,16.93334 0,9.352 -7.58133,16.93333 -16.93333,16.93333 -9.352,0 -16.93333,-7.58133 -16.93333,-16.93333 0,-9.352 7.58133,-16.93334 16.93333,-16.93334 z m 101.6,0 c 9.352,0 16.93334,7.58134 16.93333,16.93334 0,9.352 -7.58134,16.93333 -16.93333,16.93333 -9.35201,1e-5 -16.93332,-7.58132 -16.93333,-16.93333 0,-9.35201 7.58132,-16.93334 16.93333,-16.93334 z M 454.59551,609.6 c 26.90432,61.64569 87.7436,101.52369 155.00449,101.6 67.31155,-0.0209 128.21941,-39.90794 155.14402,-101.6 z" style="display:inline;fill:#ffd000;stroke-width:4.23333;stroke-miterlimit:128"/></svg>