<svg xmlns="http://www.w3.org/2000/svg" xml:space="preserve" id="svg1" width="4608" height="3072" version="1.1" viewBox="0 0 1219.2 812.8"><defs id="defs1"><style id="style1">.cls-1{fill:#0283c0}.cls-2{fill:#fff}.cls-3{fill:#ef483f}</style></defs><path id="rect1" d="M 0 0 L 0 812.8 L 1219.2 812.8 L 1219.2 0 L 0 0 z" style="fill:#0080c0;fill-rule:evenodd;stroke:none;stroke-width:8.46667;stroke-linecap:round;stroke-linejoin:round;fill-opacity:1"/><path id="path2" d="M 609.59999,1.2966707e-5 V 101.60001 H 1219.2 V 1.2966707e-5 Z m 0,101.599997033293 H 1.5700063e-5 v 101.6 H 609.59999 Z m 0,101.6 V 304.8 H 1219.2 V 203.20001 Z m 0,101.59999 H 1.5700063e-5 V 406.40001 H 609.59999 Z m 0,101.60001 V 508 H 1219.2 V 406.40001 Z m 0,101.59999 H 1.5700063e-5 V 609.59999 H 609.59999 Z m 0,101.59999 V 711.2 H 1219.2 V 609.59999 Z m 0,101.60001 H 1.5700063e-5 V 812.79999 H 609.59999 Z" style="display:inline;fill:#a0e0ff;fill-opacity:1;stroke-width:16.9333;paint-order:stroke fill markers"/><path id="path3" d="M 237.06674,67.733354 V 135.46671 H 372.53345 V 474.13348 H 440.2668 V 135.46671 H 575.73351 V 67.733354 Z" style="display:inline;fill:#fff;fill-opacity:1;stroke-width:11.2889;paint-order:stroke fill markers" transform="matrix(1.4999995,0,0,1.4999995,1.5700063e-5,1.2966707e-5)"/></svg>