<svg xmlns="http://www.w3.org/2000/svg" xml:space="preserve" id="svg1" width="4608" height="3072" version="1.1" viewBox="0 0 1219.2 812.8"><defs id="defs1"><style id="style1">.cls-1{fill:#0283c0}.cls-2{fill:#fff}.cls-3{fill:#ef483f}</style></defs><path id="rect1" d="M 0 0 L 0 812.8 L 1219.2 812.8 L 1219.2 0 L 0 0 z" style="fill:#000;fill-rule:evenodd;stroke:none;stroke-width:8.46667;stroke-linecap:round;stroke-linejoin:round;fill-opacity:1"/><path id="path1" d="M 0 0 L 0 812.8 L 1219.2 0 L 0 0 z" style="fill:#00d040;stroke-width:33.8667;stroke-linejoin:bevel;stroke-miterlimit:128;fill-opacity:1"/><path id="path1-8" d="M 609.6,101.6 304.8,406.4 609.6,711.2 914.4,406.4 Z m 0,95.7895 80.55787,80.55788 -80.55839,80.55839 -80.55787,-80.55788 z M 738.05262,325.84213 818.6105,406.4 738.05211,486.95839 657.49423,406.40052 Z m -256.90576,5.1e-4 80.55839,80.55788 -80.55787,80.55735 L 400.5895,406.4 Z M 609.59948,454.29475 690.15736,534.85314 609.6,615.4105 529.04213,534.85262 Z" style="color:#000;fill:#fff;fill-opacity:1;stroke-miterlimit:128;-inkscape-stroke:none;paint-order:stroke fill markers"/></svg>