<svg xmlns="http://www.w3.org/2000/svg" xml:space="preserve" id="svg1" width="4608" height="3072" version="1.1" viewBox="0 0 1219.2 812.8"><defs id="defs1"><path id="rect1056" d="M293.80286 272.58966H319.258705V310.419872H293.80286z"/><path id="rect1050" d="M222.73865 266.22571H270.114806V320.31938H222.73865z"/><path id="rect1044" d="M139.30003 246.42671H197.636338V295.217077H139.30003z"/><path id="rect1038" d="M131.1683 203.64674H193.040141V277.539394H131.1683z"/><path id="rect1032" d="M81.67083 193.04015H145.31044V248.548031H81.67083z"/><path id="rect1026" d="M83.085045 274.35742H127.279221V313.248293H83.085045z"/><path id="rect1020" d="M3.5355339 269.05414H69.2964669V322.440702H3.5355339z"/><path id="rect1014" d="M14.142136 226.27417H93.338097V289.206673H14.142136z"/><path id="rect1008" d="M11.313708 171.82695H47.729708V223.445743H11.313708z"/><path id="rect1002" d="M3.1819806 132.22897H106.0660206V234.75945H3.1819806z"/><linearGradient id="linearGradient3288"><stop id="stop3286" offset="0" style="stop-color:#000;stop-opacity:1"/></linearGradient><linearGradient id="linearGradient1364"><stop id="stop1362" offset="0" style="stop-color:#fff;stop-opacity:1"/></linearGradient><filter id="a" width="1.0034896" height="1.0028084" x="-0.0017447922" y="-0.0014042149" color-interpolation-filters="sRGB"><feGaussianBlur id="feGaussianBlur1" stdDeviation=".364"/></filter><style id="style1">.cls-1{fill:#0283c0}.cls-2{fill:#fff}.cls-3{fill:#ef483f}</style></defs><path id="rect1" d="M 0 0 L 0 812.8 L 1219.2 812.8 L 1219.2 0 L 0 0 z" style="fill:#000;fill-rule:evenodd;stroke:none;stroke-width:8.46667;stroke-linecap:round;stroke-linejoin:round;fill-opacity:1"/><path id="path1" d="M 0,0 V 812.79994 L 1219.1999,0 Z" style="display:inline;fill:#ffd000;fill-opacity:1;stroke:none;stroke-width:16.9333;stroke-miterlimit:128;paint-order:stroke fill markers"/><path id="rect840-0" d="M 609.60155,101.60103 V 406.40051 H 820.91527 V 101.60103 Z m 0,304.79948 -211.31372,5.3e-4 V 543.93218 C 426.53752,640.45737 562.02313,706.62105 609.60155,711.2 Z" style="display:inline;mix-blend-mode:normal;fill:#2060c0;fill-opacity:1;stroke-width:9.91743;stroke-linecap:round;stroke-linejoin:round;paint-order:markers fill stroke"/><path id="rect840" d="m 398.28835,101.60103 v 304.79948 h 211.3132 V 101.60103 Z m 211.3132,304.79948 V 711.2 c 47.57843,-4.57895 183.06454,-70.74263 211.31423,-167.26782 V 406.40104 Z" style="display:inline;mix-blend-mode:normal;fill:silver;fill-opacity:1;stroke-width:9.91743;stroke-linecap:round;stroke-linejoin:round;paint-order:markers fill stroke"/><path id="rect900" d="m 461.10303,101.6 359.46761,403.2312 v 39.40092 c -8.92096,39.6473 -53.5529,82.59041 -53.5529,82.59041 L 398.28417,213.85628 V 101.6 Z" style="display:inline;mix-blend-mode:normal;fill:#b00020;fill-opacity:1;stroke-width:10;stroke-linecap:round;stroke-linejoin:round;paint-order:markers fill stroke"/><path id="path856" d="m 714.26907,127.87127 c -2.84468,0.0159 -5.51065,1.26122 -7.85069,3.66489 -7.08084,6.95973 -3.01774,14.94416 2.53008,18.26555 l 0.14108,7.64501 c -0.90164,1.23335 -2.26633,0.9635 -3.38378,0.43202 -1.14632,-0.54521 -3.33687,-4.3282 -4.97127,-9.06767 -1.66942,-4.84103 -5.17995,-8.49151 -6.84298,-9.12967 -1.927,-0.73946 -7.22651,1.31794 -14.611,5.67045 -15.84462,9.33898 -23.39665,11.62694 -30.35423,9.20151 -10.02449,-3.49457 -9.35622,1.66589 1.74512,8.67389 0.97325,0.61438 3.37982,-0.6747 3.99044,0.13694 0.61065,0.8117 0.12501,3.0271 1.05577,3.35639 1.86157,0.65853 5.27928,0.29099 6.15724,0.0615 0.87857,-0.22975 1.78199,-0.93868 2.53007,-0.64802 1.81071,1.91174 -0.18223,3.35922 1.90634,4.81004 2.11256,0.50423 6.35667,-1.1172 7.24401,-0.79168 2.08182,1.33048 1.16615,3.59051 3.50004,4.56613 2.04026,0.33835 6.85554,-0.96128 7.79282,-0.75086 1.87455,0.42084 0.41951,2.88981 3.09902,3.03444 3.38074,0.18892 5.50149,-1.14211 8.37883,-3.20911 0.74983,0.18434 0.73659,3.31128 2.37556,3.57911 1.63898,0.26782 7.27329,0.22731 10.79573,-1.90582 l 0.34416,39.25961 2.72903,1.48726 4.76923,-0.1478 2.59571,-1.25471 -0.69145,-38.93302 c 3.84801,0.6391 7.04441,2.58625 10.99778,0.32556 0.76593,-1.1228 1.03936,-2.75007 2.14303,-2.68769 1.10373,0.0625 2.76767,1.46665 3.71605,1.87172 1.99645,0.85268 3.37703,1.69503 6.03736,0.68213 1.25385,-0.47742 0.90257,-1.88603 1.36425,-2.21124 0.4617,-0.32519 1.7339,0.4343 6.08542,0.41497 2.03532,-0.009 3.38708,-1.62122 3.55173,-2.11512 0.16421,-0.49404 0.50715,-1.71818 1.21026,-2.16007 0.70311,-0.44188 1.76636,-0.10094 3.06441,0.20929 2.29859,0.54947 6.47555,0.70953 6.04407,-2.46187 -0.11742,-0.86288 -0.0794,-1.05256 0.69971,-1.33325 0.77903,-0.28067 2.02672,-0.0732 2.85202,0.2434 1.87379,0.2187 4.53693,0.74875 6.4213,-0.12352 1.12357,-0.45138 -0.17799,-2.08202 0.99789,-2.74969 1.17587,-0.66769 3.27602,-0.41208 4.38114,-1.20664 1.10512,-0.79457 2.8424,-2.24997 3.75377,-3.08199 0.9114,-0.83202 1.69566,-1.66061 2.2903,-2.44068 0.59464,-0.78006 1.00067,-1.51104 1.15549,-2.14974 0.15474,-0.63871 0.0581,-1.1863 -0.34986,-1.59421 -0.32802,-0.32803 -3.11102,0.12667 -6.18463,1.0082 -7.17332,2.05728 -12.92064,0.34768 -29.35635,-8.72505 -7.27778,-4.01742 -14.38017,-6.8639 -15.78405,-6.32519 -1.40387,0.53871 -5.02274,4.65781 -6.5133,9.24595 -1.51018,4.64855 -3.51207,9.01774 -4.61831,9.64024 -2.79454,1.57246 -3.42772,0.94407 -4.32637,-0.65475 l -0.0176,-7.59385 c 6.15627,-3.72536 11.36128,-12.67573 2.30736,-19.80499 -2.36491,-1.50714 -4.68475,-2.24006 -6.89725,-2.22831 z m -210.2125,48.31746 -21.05453,16.49047 -27.31048,-5.56865 3.75378,26.47848 -18.47795,20.86746 24.80832,9.98855 8.83253,26.4361 21.05453,-16.48995 27.31048,5.56866 -3.75377,-26.479 18.47793,-20.86747 -24.8083,-9.98854 z m 225.01262,6.88123 c -3.00256,0.19633 -4.76581,1.81812 -5.0431,2.98587 -0.43121,1.8162 2.17726,4.88092 4.86173,5.82807 5.51348,1.59493 9.83495,-6.14393 9.88673,3.23288 -0.009,7.67936 -5.61672,14.99776 -12.12226,19.18126 -2.85221,1.83417 -5.81521,2.57473 -6.17069,3.58273 l 7.58662,5.25549 c 1.48342,-0.65361 4.85871,-3.14192 8.3168,-6.9696 5.48791,-6.07446 7.82692,-12.14698 7.82692,-19.64066 0,-0.5959 -1.74081,-5.99782 -3.74707,-8.25893 -2.06774,-2.33043 -5.01182,-4.09185 -7.99123,-4.84725 -1.26716,-0.32127 -2.40358,-0.41529 -3.40445,-0.34985 z m -29.79869,0.86714 c -4.15781,0.0407 -9.30348,1.67539 -11.53934,4.99194 -3.97491,5.89609 -3.31975,15.84055 1.26503,23.36033 1.93453,3.17295 8.1629,8.86656 14.04203,12.45144 5.87915,3.58488 14.01277,7.43055 17.53898,10.49394 5.53508,4.80854 6.79711,7.70482 6.79185,14.26166 -0.004,5.6129 -1.29022,9.27625 -4.92684,14.03532 -2.30113,3.01139 -4.57667,4.76016 -4.80952,5.86269 l 7.19233,4.93974 c 1.69746,-1.23005 3.68407,-3.43991 6.30813,-6.88019 3.65103,-4.78673 6.80817,-8.44629 7.37785,-16.32202 1.1114,-15.36465 -5.67115,-22.46608 -24.97884,-31.68127 -16.75416,-7.99642 -23.24044,-15.06133 -23.24044,-23.63421 10e-6,-7.12618 1.28648,-6.43372 4.52892,-4.6762 3.24246,1.75753 11.00323,-0.21216 10.52855,-4.44986 -0.20768,-1.85399 -2.84485,-2.78503 -6.07869,-2.75331 z m 1.91977,44.04693 c -1.56076,0.61667 -4.33334,2.95356 -6.40374,6.63731 -8.26044,14.69746 -6.18033,29.47359 15.81454,45.76052 13.83099,10.24166 14.1367,14.44209 14.13144,19.76416 -0.004,3.3514 -1.50901,8.56298 -3.34915,11.58069 -1.54381,2.53175 -2.77724,4.30679 -3.2706,5.41002 l 6.46213,5.6875 c 1.23599,-0.5223 3.29871,-2.80473 5.14233,-6.49005 7.41812,-14.82852 5.95169,-28.88819 -4.77232,-37.13158 -3.18988,-2.45198 -10.4436,-7.56379 -15.24868,-12.09487 -7.67138,-7.23394 -8.57106,-9.70432 -8.57106,-15.9179 2e-5,-4.64316 1.3943,-8.96324 4.05914,-12.56771 1.95294,-2.64151 4.05757,-4.33772 4.74803,-5.29012 z m 14.25186,6.23526 -3.08768,0.0972 -1.42781,1.57509 -2e-5,28.29647 2.10635,2.00193 3.0489,0.0191 1.71876,-2.02106 1e-5,-28.29645 z m -10.56266,45.08976 c -5.14788,5.22682 -11.75717,8.91306 -12.06439,21.90306 -0.30721,12.99001 10.99412,24.4295 17.60461,29.39769 6.61051,4.9682 8.54605,4.22836 10.21953,8.60155 0.73509,5.10617 -0.53397,9.20035 -0.80564,18.58801 0.84431,0.85432 3.37835,-2.11061 6.29421,-5.09117 5.47253,-5.59398 5.80225,-18.53731 0.39428,-22.92832 -1.80868,-1.46855 -6.17761,-5.49221 -13.00024,-12.30053 -6.82266,-6.80831 -9.6746,-10.2017 -9.84591,-16.00006 -0.17132,-5.79838 4.3075,-11.09012 7.41866,-16.16077 z m 8.44392,7.39232 -1.14516,1.71359 10e-6,25.41291 1.64951,1.5937 2.25258,-0.0387 1.28106,-1.88465 -0.0579,-25.08322 -1.61127,-1.61643 z m -86.06142,37.66333 c -8.16828,-0.37786 -15.09106,3.78375 -15.09106,3.78375 0,0 -12.66322,-6.88103 -25.52661,0.78807 -12.86338,7.66906 -7.91631,25.36383 -7.91631,25.36383 0,0 -2.72779,2.92825 -4.98574,7.51271 -2.25802,4.58446 -4.04629,10.82521 -2.1668,17.45113 3.75897,13.25186 20.70829,13.79348 20.70829,13.79348 0,0 1.85625,3.80496 5.39141,7.53183 3.53515,3.72691 8.74946,7.37548 15.46624,7.0621 13.43352,-0.62673 16.15986,-8.81429 20.46335,-14.97478 7.9364,-3.89174 16.41514,-4.2847 20.81112,-17.38034 4.39604,-13.09565 -8.49508,-23.42545 -8.49508,-23.42545 0,0 4.54067,-14.19344 -7.28121,-23.36032 -3.69435,-2.86467 -7.66475,-3.97425 -11.3776,-4.14601 z m 77.27437,4.73304 c -13.54835,10.32746 2.30782,31.60489 4.64208,28.92433 1.5776,-1.68477 -4.6403,-15.90585 1.59422,-23.78873 z m 8.59947,6.04821 -0.82734,0.93846 v 26.99111 h 4.20645 c 1e-5,-8.99697 0.15503,-18.0329 0.15503,-27.02987 l -1.28416,-0.87076 z m 29.40388,108.82798 -21.05452,16.49047 -27.31101,-5.56865 3.75379,26.4785 -18.47795,20.86746 24.80831,9.98852 8.83253,26.43613 21.05453,-16.48995 27.31099,5.56864 -3.75377,-26.47901 18.47795,-20.86744 -24.80831,-9.98854 z m -252.68432,15.22595 c -16.02308,-0.17351 -29.24301,15.40763 -55.07209,13.56765 l 1.61334,93.00156 c 46.95778,-6.88972 104.31905,-3.95915 146.59156,-0.91157 l -2.16834,-92.9194 c -30.78968,-0.16396 -46.73036,-22.97026 -73.43634,-6.08438 -6.53483,-4.78767 -12.18711,-6.59603 -17.52813,-6.65386 z" style="display:inline;mix-blend-mode:normal;fill:silver;fill-opacity:1;stroke-width:6.23302;stroke-linecap:round;stroke-linejoin:round;paint-order:markers fill stroke"/><path id="path873" d="m 504.05657,176.18873 -12.63127,48.13763 21.46433,-21.70152 -4.41678,-13.2178 z m -12.63127,48.13763 27.79417,9.15448 9.23923,-10.43347 9.23922,-10.43399 z m 0,0 -16.81706,46.55479 10.52701,-8.24499 10.52751,-8.24497 13.65499,2.78433 13.6555,2.78432 z m 0,0 -50.4579,10.13013 12.40389,4.99453 12.40441,4.99401 z m 0,0 -35.73373,-37.21582 1.87688,13.23899 1.87689,13.2395 z M 627.26197,324.3647 c -8.1683,-0.37786 -15.09106,3.78375 -15.09106,3.78375 l 0.23823,35.52496 26.23042,-35.16272 c -3.69434,-2.86465 -7.66473,-3.97424 -11.37759,-4.14599 z m -14.85283,39.30871 41.8207,13.0173 c 5.41817,-13.28152 -8.30907,-24.81969 -8.30907,-24.81969 z m 0,0 0.73225,43.97819 c 13.43354,-0.62675 16.15986,-8.81429 20.46334,-14.9748 z m 0,0 -40.83369,15.59077 c 3.75897,13.25187 20.70829,13.79348 20.70829,13.79348 z m 0,0 -25.76484,-34.73691 c -12.86341,7.6691 -7.91632,25.36383 -7.91632,25.36383 z m 130.13056,80.30053 -12.6318,48.13763 21.46432,-21.70152 -4.41627,-13.2178 z m -12.6318,48.13763 27.7947,9.15448 9.23869,-10.43347 9.23925,-10.43399 z m 0,0 -16.81706,46.55478 10.52753,-8.24498 10.52701,-8.24498 13.65549,2.78433 13.6555,2.78434 z m 0,0 -50.4579,10.13013 12.40442,4.99452 12.40389,4.99402 z m 0,0 -35.73374,-37.21583 1.87689,13.23899 1.87689,13.23951 z" style="display:inline;mix-blend-mode:normal;fill:#858584;fill-opacity:1;stroke:none;stroke-width:6.23302;stroke-linecap:round;stroke-linejoin:round;paint-order:markers fill stroke"/><path id="rect959" d="m 525.02222,462.29633 c -5.03658,0.0727 -9.71601,2.30995 -14.642,8.30596 v 76.79376 c 18.84889,-9.29855 26.94144,0.59887 65.38412,10.75128 l 0.43873,-80.96251 c -24.10706,-2.55973 -38.23134,-14.38457 -50.1685,-14.87454 -0.33914,-0.014 -0.67658,-0.0188 -1.01235,-0.014 z m -34.98909,1.09708 c -0.33576,-0.005 -0.6732,4e-5 -1.01234,0.014 -11.93716,0.48996 -26.06145,12.31483 -50.16851,14.87454 l 0.43874,80.96251 c 38.44268,-10.15238 46.53523,-20.04984 65.38411,-10.75128 v -76.79377 c -4.926,-5.99599 -9.60543,-8.23324 -14.642,-8.30596 z" style="display:inline;mix-blend-mode:normal;fill:#fff;fill-opacity:1;stroke-width:10;stroke-linecap:round;stroke-linejoin:round;paint-order:markers fill stroke"/><path id="path1080" d="m 467.92436,-395.67681 a 1.9652031,1.8950174 0 0 0 -1.96527,1.89492 1.9652031,1.8950174 0 0 0 1.96527,1.89492 1.9652031,1.8950174 0 0 0 1.96528,-1.89492 1.9652031,1.8950174 0 0 0 -1.96528,-1.89492 z m -52.49863,1.89492 a 1.9652031,1.8950174 0 0 0 -1.96527,1.89492 1.9652031,1.8950174 0 0 0 1.96527,1.89492 1.9652031,1.8950174 0 0 0 1.96435,-1.89492 1.9652031,1.8950174 0 0 0 -1.96435,-1.89492 z M 143.84121,138.30553 v 0.81369 h 0.37769 c 0.75586,0 1.28859,0.45543 1.59869,1.36635 l 6.16335,17.03669 h 1.51168 l 5.40705,-14.85573 c 0.17443,-0.44576 0.41658,-0.91144 0.72668,-1.39597 0.94967,-1.43417 1.89965,-2.15134 2.84932,-2.15134 h 0.34899 v -0.0287 h 1.52464 c 0.13567,0 0.27071,0.0391 0.40638,0.11664 0.407,0.23257 0.61097,0.55203 0.61097,0.95903 v 15.49539 c 0,0.13566 -0.0289,0.27071 -0.087,0.40638 -0.21319,0.44576 -0.52332,0.66929 -0.93033,0.66929 h -1.5413 v 0.785 h 7.41305 v -0.785 h -1.51168 c -0.13567,0 -0.2614,-0.0298 -0.37768,-0.0879 -0.42639,-0.19381 -0.63967,-0.52259 -0.63967,-0.98773 V 140.1662 c 0,-0.13567 0.0289,-0.26141 0.087,-0.37769 0.17444,-0.46514 0.48457,-0.69798 0.93033,-0.69798 h 1.51168 v -0.785 h -7.39639 -6.45402 v 0.81369 h 0.72668 c 0.89153,0 1.44382,0.26172 1.65701,0.785 l 0.087,0.58135 c 0,0.44576 -0.21235,1.25045 -0.63874,2.41331 l -4.59335,12.50073 -5.37835,-14.85573 c -0.0969,-0.31007 -0.14534,-0.57181 -0.14534,-0.78499 0,-0.42639 0.20304,-0.63967 0.61004,-0.63967 h 1.30802 v -0.81369 z m 27.93873,0 v 0.785 h 1.54037 c 0.13567,0 0.27165,0.0391 0.40732,0.11664 0.40698,0.23257 0.61004,0.55203 0.61004,0.95903 v 15.49539 c 0,0.13566 -0.0289,0.27071 -0.087,0.40638 -0.2132,0.44576 -0.52333,0.66929 -0.93034,0.66929 h -1.54037 v 0.785 h 7.41305 v -0.785 h -1.51167 c -0.13567,0 -0.26233,-0.0298 -0.37862,-0.0879 -0.42638,-0.19381 -0.63874,-0.52259 -0.63874,-0.98773 V 140.1662 c 0,-0.13567 0.0289,-0.26141 0.087,-0.37769 0.17443,-0.46514 0.48457,-0.69798 0.93034,-0.69798 h 1.51167 v -0.785 z m -79.383909,0.44526 v 0.78315 h 0.363802 c 0.727339,0 1.240129,0.43797 1.538523,1.3145 l 5.930074,16.39333 h 1.45521 l 5.20339,-14.29475 c 0.16785,-0.42894 0.40051,-0.87696 0.69891,-1.3432 0.91384,-1.38008 1.8281,-2.06988 2.74194,-2.06988 h 0.33511 v -0.0278 h 1.46724 c 0.13054,0 0.26102,0.0365 0.39157,0.11108 0.39165,0.2238 0.58783,0.53221 0.58783,0.92386 v 14.91034 c 0,0.13055 -0.0283,0.26103 -0.0842,0.39158 -0.20515,0.42895 -0.50352,0.64336 -0.89516,0.64336 h -1.48298 v 0.75538 h 7.13349 v -0.75538 h -1.45429 c -0.13054,0 -0.2519,-0.0283 -0.3638,-0.0842 -0.4103,-0.1865 -0.61559,-0.5031 -0.61559,-0.9507 v -14.91034 c 0,-0.13055 0.0283,-0.25191 0.0842,-0.3638 0.16784,-0.4476 0.46621,-0.67114 0.89515,-0.67114 h 1.45429 v -0.75538 h -7.11775 -6.20964 v 0.78315 h 0.69891 c 0.85789,0 1.38984,0.25183 1.59499,0.75538 l 0.0833,0.55912 c 0,0.42894 -0.2053,1.20268 -0.61559,2.32167 l -4.41932,12.02955 -5.175623,-14.29568 c -0.09325,-0.29839 -0.139782,-0.54929 -0.139782,-0.75445 0,-0.41029 0.19618,-0.61559 0.587823,-0.61559 h 1.258035 v -0.78315 z m -88.0142655,0.17126 v 0.7202 h 1.4135529 c 0.124444,0 0.2486154,0.0353 0.3730594,0.10645 0.3733329,0.21334 0.5600521,0.50609 0.5600521,0.87942 v 14.21422 c 0,0.12444 -0.027203,0.24861 -0.080536,0.37306 -0.1955552,0.40889 -0.4792425,0.61282 -0.8525751,0.61282 H 4.3817655 v 0.72019 h 6.8002355 v -0.72019 H 9.7952935 c -0.124444,0 -0.2404732,-0.0263 -0.3471397,-0.0796 -0.3911104,-0.17778 -0.5868975,-0.4796 -0.5868975,-0.90626 v -14.21422 c 0,-0.12444 0.027203,-0.23954 0.080536,-0.34621 0.1599996,-0.42667 0.4446126,-0.63966 0.8535008,-0.63966 h 1.3867079 v -0.7202 z M -26.88858,169.03063 v 0.77482 h 1.520009 c 0.133782,0 0.267049,0.0374 0.400831,0.11386 0.401345,0.22934 0.602635,0.54473 0.602635,0.94607 v 15.2797 c 0,0.13379 -0.02876,0.26798 -0.08609,0.40176 -0.210229,0.43957 -0.51603,0.6591 -0.917375,0.6591 h -1.520009 v 0.77389 h 7.3103 v -0.77389 h -1.490387 c -0.133782,0 -0.258389,-0.0288 -0.373059,-0.0861 -0.420458,-0.19112 -0.630406,-0.51609 -0.630406,-0.97477 v -15.2797 c 0,-0.13378 0.02876,-0.25746 0.08609,-0.37213 0.172005,-0.45869 0.477807,-0.6878 0.917374,-0.6878 h 1.490387 v -0.77482 z m 8.846972,0 v 0.77482 h 1.519083 c 0.133782,0 0.267974,0.0374 0.401756,0.11386 0.401346,0.22934 0.601709,0.54473 0.601709,0.94607 v 15.2797 c 0,0.13379 -0.02876,0.26798 -0.08609,0.40176 -0.210226,0.43957 -0.51603,0.6591 -0.917374,0.6591 h -1.519083 v 0.77389 h 7.310299 v -0.77389 h -1.490387 c -0.133779,0 -0.258389,-0.0288 -0.373059,-0.0861 -0.420457,-0.19112 -0.630406,-0.51609 -0.630406,-0.97477 v -15.2797 c 0,-0.13378 0.02876,-0.25746 0.08609,-0.37213 0.172005,-0.45869 0.477808,-0.6878 0.917374,-0.6878 h 1.490387 v -0.77482 z m 99.84386,0.42027 v 0.79981 h 0.371209 c 0.742284,0 1.265466,0.44772 1.569997,1.34228 l 6.052265,16.72935 h 1.484832 l 5.310775,-14.5882 c 0.171297,-0.43776 0.409196,-0.89515 0.713719,-1.37097 0.932617,-1.40842 1.86487,-2.11246 2.797481,-2.11246 h 0.34251 v -0.0287 h 1.49687 c 0.13323,0 0.26669,0.0387 0.3999,0.11478 0.3997,0.2284 0.59986,0.54175 0.59986,0.94145 V 186.495 c 0,0.13323 -0.029,0.26669 -0.0861,0.3999 -0.20936,0.43776 -0.51398,0.65726 -0.91367,0.65726 h -1.5126 v 0.77018 h 7.27975 v -0.77018 h -1.48483 c -0.13324,0 -0.25701,-0.029 -0.37121,-0.0861 -0.41872,-0.19034 -0.62763,-0.51428 -0.62763,-0.97107 v -15.21675 c 0,-0.13324 0.0281,-0.25701 0.0852,-0.37121 0.1713,-0.45679 0.47592,-0.68502 0.91368,-0.68502 h 1.48483 v -0.77112 h -7.26402 -6.338305 v 0.79981 h 0.713719 c 0.875521,0 1.418033,0.25722 1.627391,0.77112 l 0.08609,0.57116 c 0,0.43775 -0.209835,1.2269 -0.628554,2.36888 l -4.510965,12.27671 -5.281152,-14.58913 c -0.09517,-0.30453 -0.142559,-0.56175 -0.142559,-0.77111 0,-0.41873 0.199239,-0.62763 0.598932,-0.62763 h 1.28488 v -0.79981 z m 27.436998,0 v 0.77112 h 1.51353 c 0.13323,0 0.26574,0.0387 0.39898,0.11478 0.39969,0.2284 0.59986,0.54175 0.59986,0.94145 V 186.495 c 0,0.13323 -0.029,0.26669 -0.0861,0.3999 -0.20936,0.43776 -0.51305,0.65726 -0.91274,0.65726 h -1.51353 v 0.77018 h 7.27975 v -0.77018 h -1.48391 c -0.13323,0 -0.25701,-0.029 -0.3712,-0.0861 -0.41873,-0.19034 -0.62856,-0.51428 -0.62856,-0.97107 v -15.21675 c 0,-0.13324 0.029,-0.25701 0.0861,-0.37121 0.17131,-0.45679 0.47592,-0.68502 0.91367,-0.68502 h 1.48391 v -0.77112 z m 8.80994,0 v 0.77112 h 1.51353 c 0.13324,0 0.26667,0.0387 0.39991,0.11478 0.39969,0.2284 0.59893,0.54175 0.59893,0.94145 V 186.495 c 0,0.13323 -0.0281,0.26669 -0.0852,0.3999 -0.20936,0.43776 -0.51398,0.65726 -0.91367,0.65726 h -1.51353 v 0.77018 h 7.28068 v -0.77018 h -1.48483 c -0.13324,0 -0.25701,-0.029 -0.37121,-0.0861 -0.41873,-0.19034 -0.62763,-0.51428 -0.62763,-0.97107 v -15.21675 c 0,-0.13324 0.0281,-0.25701 0.0852,-0.37121 0.17129,-0.45679 0.4759,-0.68502 0.91367,-0.68502 h 1.48483 v -0.77112 z m 31.84058,0.35547 v 0.7776 h 1.52649 c 0.13441,0 0.2692,0.0389 0.40361,0.11571 0.40323,0.23042 0.60449,0.54654 0.60449,0.94977 v 15.35191 c 0,0.13441 -0.0285,0.2692 -0.0861,0.40361 -0.21121,0.44163 -0.51877,0.66188 -0.922,0.66188 h -1.52649 v 0.77759 h 7.34455 v -0.77759 h -1.49779 c -0.1344,0 -0.25878,-0.0285 -0.37398,-0.0861 -0.42244,-0.19201 -0.63411,-0.51856 -0.63411,-0.9794 v -15.35191 c 0,-0.1344 0.0294,-0.25877 0.087,-0.37398 0.17282,-0.46084 0.47945,-0.6915 0.92108,-0.6915 h 1.49779 v -0.7776 z m 9.72362,0 v 0.7202 h 0.77759 c 0.49924,0 1.01754,0.46041 1.55519,1.38208 l 4.69518,7.60468 -3.65839,5.41445 c -1.40172,2.07377 -2.79335,3.11037 -4.17586,3.11037 h -0.461 v 0.80629 h 6.39385 v -0.80629 h -0.7202 c -0.40323,0 -0.67188,-0.12436 -0.80629,-0.37398 -0.096,-0.13442 -0.14349,-0.30718 -0.14349,-0.5184 0.0192,-0.71046 0.38374,-1.59423 1.09419,-2.65029 l 2.90857,-4.26288 3.86019,6.36608 c 0.11521,0.19202 0.17218,0.44168 0.17218,0.7489 0,0.46082 -0.16327,0.69057 -0.4897,0.69057 h -1.29599 v 0.80629 h 6.74007 v -0.71927 h -1.03679 c -0.11521,0 -0.28798,-0.0769 -0.5184,-0.2305 -0.49924,-0.36483 -0.86376,-0.73978 -1.09418,-1.12381 -3.37944,-5.53002 -5.07956,-8.29525 -5.09879,-8.29525 l 3.22608,-4.75165 0.17311,-0.2305 c 1.34411,-1.92015 2.61138,-2.8808 3.80188,-2.8808 h 0.60448 v -0.80629 h -6.39385 v 0.80629 h 0.7202 c 0.46084,0 0.74848,0.17277 0.86368,0.5184 l 0.0287,0.51839 c -0.0768,0.78727 -0.46032,1.68052 -1.15158,2.679 l -2.33278,3.45658 -3.62969,-5.76066 c -0.096,-0.13442 -0.17289,-0.2787 -0.2305,-0.43231 l -0.11479,-0.51839 c 0,-0.30723 0.18227,-0.46101 0.5471,-0.46101 h 1.29598 v -0.80629 z m -137.164623,0.0704 v 0.74982 h 1.471873 c 0.129577,0 0.259219,0.037 0.388796,0.11108 0.388731,0.22214 0.583195,0.52772 0.583195,0.91645 v 14.79926 c 0,0.12958 -0.02778,0.25923 -0.08331,0.3888 -0.203619,0.42576 -0.499948,0.63874 -0.888677,0.63874 h -1.471873 v 0.74982 h 7.080725 v -0.74982 h -1.444101 c -0.129578,0 -0.24996,-0.0278 -0.361026,-0.0833 -0.40724,-0.18511 -0.610966,-0.49995 -0.610966,-0.94422 v -14.79926 c 0,-0.12958 0.02778,-0.24996 0.08331,-0.36102 0.1666,-0.44427 0.462924,-0.66651 0.888678,-0.66651 h 1.444101 v -0.74982 z m 8.56926,0 v 0.74982 h 1.470947 c 0.129575,0 0.259219,0.037 0.388796,0.11108 0.388732,0.22214 0.583195,0.52772 0.583195,0.91645 v 14.79926 c 0,0.12958 -0.02778,0.25923 -0.08331,0.3888 -0.203621,0.42576 -0.499948,0.63874 -0.888677,0.63874 h -1.470947 v 0.74982 h 7.079799 v -0.74982 h -1.44318 c -0.129577,0 -0.249959,-0.0278 -0.361025,-0.0833 -0.407242,-0.18511 -0.610966,-0.49995 -0.610966,-0.94422 v -14.79926 c 0,-0.12958 0.02778,-0.24996 0.08331,-0.36102 0.166599,-0.44427 0.462927,-0.66651 0.888678,-0.66651 h 1.443176 v -0.74982 z m 8.568334,0 v 0.74982 h 1.471872 c 0.129577,0 0.258294,0.037 0.387871,0.11108 0.388729,0.22214 0.583195,0.52772 0.583195,0.91645 v 14.79926 c 0,0.12958 -0.02778,0.25923 -0.08331,0.3888 -0.203621,0.42576 -0.499021,0.63874 -0.887752,0.63874 h -1.471872 v 0.74982 h 7.080724 v -0.74982 h -1.444101 c -0.129577,0 -0.249959,-0.0278 -0.361025,-0.0833 -0.407243,-0.18511 -0.610966,-0.49995 -0.610966,-0.94422 v -14.79926 c 0,-0.12958 0.02778,-0.24996 0.08331,-0.36102 0.1666,-0.44427 0.462925,-0.66651 0.888678,-0.66651 h 1.444101 v -0.74982 z m 88.547469,37.40685 v 0.70539 h 0.76186 c 0.48943,0 0.99756,0.45167 1.52464,1.35523 l 4.60261,7.45471 -3.58619,5.30892 c -1.37416,2.03302 -2.73812,3.04928 -4.09347,3.04928 h -0.45174 v 0.79055 h 6.26795 v -0.79055 h -0.70539 c -0.39531,0 -0.65971,-0.12279 -0.79148,-0.36751 -0.0941,-0.13177 -0.1407,-0.30115 -0.1407,-0.50821 0.0188,-0.6965 0.37639,-1.5622 1.07289,-2.59753 l 2.8521,-4.17864 3.78336,6.24019 c 0.11294,0.18824 0.1694,0.43289 0.1694,0.73408 0,0.45178 -0.1595,0.67762 -0.47951,0.67762 h -1.271 v 0.79055 h 6.60769 v -0.70631 h -1.01735 c -0.11294,0 -0.28232,-0.0753 -0.50821,-0.22588 -0.48943,-0.35765 -0.847,-0.72417 -1.07289,-1.10066 -3.31305,-5.42138 -4.97904,-8.13233 -4.99789,-8.13233 l 3.16314,-4.65907 0.1694,-0.22588 c 1.3177,-1.8824 2.55979,-2.8234 3.72689,-2.8234 h 0.59338 v -0.79055 h -6.26888 v 0.79055 h 0.70631 c 0.45178,0 0.73408,0.16938 0.84702,0.50821 l 0.0278,0.50822 c -0.0753,0.77177 -0.45169,1.64736 -1.12937,2.62622 l -2.28741,3.38809 -3.55749,-5.64681 c -0.0941,-0.13177 -0.1694,-0.27338 -0.22587,-0.42397 l -0.11294,-0.50822 c 0,-0.30118 0.17925,-0.45174 0.53691,-0.45174 h 1.27007 v -0.79055 z m -158.933517,0.0685 v 0.77944 h 1.531117 c 0.134825,0 0.269709,0.0387 0.404534,0.11572 0.404473,0.23113 0.606337,0.549 0.606337,0.95347 v 15.39912 c 0,0.13483 -0.02831,0.26972 -0.08609,0.40454 -0.211868,0.44298 -0.520306,0.66465 -0.924781,0.66465 h -1.531117 v 0.77945 h 7.366767 v -0.77945 h -1.50242 c -0.134825,0 -0.259347,-0.0292 -0.374911,-0.087 -0.423736,-0.19261 -0.63596,-0.51992 -0.63596,-0.98218 v -15.39912 c 0,-0.13482 0.02923,-0.26027 0.08702,-0.37583 0.173347,-0.46226 0.480858,-0.69336 0.923855,-0.69336 h 1.50242 v -0.77944 z m 8.79976,0 v 0.80814 h 0.375837 c 0.751165,0 1.28034,0.45276 1.588511,1.35801 l 6.125396,16.93024 h 1.502421 l 5.3737223,-14.76316 c 0.1733468,-0.44299 0.4138799,-0.90519 0.7220506,-1.38671 0.9437731,-1.42529 1.8879613,-2.13838 2.8317344,-2.13838 h 0.346214 v -0.80814 h -6.4132905 v 0.80814 h 0.7220506 c 0.885991,0 1.4349631,0.26033 1.6468308,0.78037 l 0.086091,0.57764 c 0,0.443 -0.2112989,1.24286 -0.6350343,2.39851 l -4.5646559,12.42297 -5.345026,-14.76316 c -0.0963,-0.30817 -0.14441,-0.5685 -0.14441,-0.78037 0,-0.42373 0.201865,-0.63596 0.606337,-0.63596 h 1.300617 v -0.80814 z m 47.904355,0.66836 v 0.72946 h 0.338808 c 0.677724,0 1.155879,0.40888 1.433918,1.22563 l 5.525539,15.27415 h 1.356159 l 4.847922,-13.31998 c 0.156398,-0.39969 0.373655,-0.8162 0.651697,-1.25063 0.851499,-1.28595 1.703447,-1.92917 2.554948,-1.92917 h 0.311963 v -0.72946 h -5.786588 v 0.72946 h 0.651697 c 0.799366,0 1.294605,0.23434 1.485758,0.70353 l 0.07869,0.5221 c 0,0.39968 -0.191632,1.12074 -0.573937,2.16337 l -4.118466,11.20845 -4.822002,-13.31998 c -0.08689,-0.27804 -0.130524,-0.51239 -0.130524,-0.70354 0,-0.38231 0.182162,-0.57393 0.547092,-0.57393 h 1.173795 v -0.72946 z" style="font-style:normal;font-variant:normal;font-weight:700;font-stretch:normal;font-size:26.6667px;line-height:1.25;font-family:Caslon;-inkscape-font-specification:&quot;Caslon Bold&quot;;letter-spacing:0;word-spacing:0;white-space:pre;display:inline;mix-blend-mode:normal;fill:#000;fill-opacity:1;stroke-width:.150735" transform="matrix(0.55823812,0,0,0.55823812,468.02806,405.71814)"/></svg>