<svg xmlns="http://www.w3.org/2000/svg" xml:space="preserve" id="svg1" width="4608" height="3072" version="1.1" viewBox="0 0 1219.2 812.8"><defs id="defs1"><style id="style1">.cls-1{fill:#0283c0}.cls-2{fill:#fff}.cls-3{fill:#ef483f}</style></defs><path id="rect1" d="M 1219.2,0 V 812.8 H 0 V 0 Z" style="fill:#103070;fill-opacity:1;fill-rule:evenodd;stroke:none;stroke-width:8.46667;stroke-linecap:round;stroke-linejoin:round"/><path id="path3" d="M 2304,384 A 1152,1152 0 0 0 1152,1536 1152,1152 0 0 0 2304,2688 1152,1152 0 0 0 3456,1536 1152,1152 0 0 0 2304,384 Z" style="fill:#fff;fill-opacity:1;stroke-width:512;stroke-miterlimit:128;paint-order:stroke fill markers" transform="scale(0.26458333)"/><path id="rect4" d="M 457.2,237.06667 V 304.8 L 558.8,406.4 457.2,508 v 67.73333 H 762 v -101.6 H 728.13333 L 694.26666,508 H 552.99053 L 654.58898,406.4 552.99053,304.8 h 141.27613 l 33.86667,33.86667 H 762 v -101.6 z" style="fill:#000;fill-opacity:1;stroke:none;stroke-width:67.7333;stroke-linecap:butt;stroke-linejoin:miter;stroke-miterlimit:128;stroke-dasharray:none;stroke-opacity:1;paint-order:stroke fill markers"/></svg>