<svg xmlns="http://www.w3.org/2000/svg" xml:space="preserve" id="svg1" width="4608" height="3072" version="1.1" viewBox="0 0 1219.2 812.8"><defs id="defs1"><style id="style1">.cls-1{fill:#0283c0}.cls-2{fill:#fff}.cls-3{fill:#ef483f}</style></defs><path id="rect1" d="M 0 0 L 0 812.8 L 1219.2 812.8 L 1219.2 0 L 0 0 z" style="fill:#b00020;fill-rule:evenodd;stroke:none;stroke-width:8.46667;stroke-linecap:round;stroke-linejoin:round;fill-opacity:1"/><path id="rect1-5" d="m 609.59994,101.59968 c -17.48143,40.34187 -29.43549,59.73313 -34.96559,84.15137 -11.983,52.91186 12.97837,96.10889 12.97837,96.10889 l 0.012,0.009 h -7.77862 v 175.42092 l -119.54483,-120.60525 71.61715,-70.98693 -28.70082,-28.95429 -58.69225,0.77206 -41.62802,41.26061 -14.3876,-14.51785 -42.21171,41.83966 14.38759,14.51785 -39.85833,39.50954 57.40391,57.91318 39.86303,-39.51188 149.6479,150.97109 -106.18278,107.09898 42.22337,41.86057 76.06343,-76.7401 v 109.48257 h 59.43402 v -109.5291 l 76.0797,76.75174 42.2094,-41.83963 -106.14089,-107.08269 157.53817,-158.93812 -3.25331,-3.22072 c 26.40955,2.97059 52.5183,-0.35915 63.36639,-13.12723 14.3383,-16.87618 15.59389,-47.36552 1.53712,-69.05683 -41.75703,-64.43673 -128.84949,-72.78955 -169.78168,-72.9403 -13.64411,-0.0504 -22.13603,0.80689 -22.13603,0.80689 0,0 203.2364,80.03224 93.43458,121.09128 l -5.39273,-5.33925 -127.46072,128.56527 V 281.86924 h -7.77399 l 0.0135,-0.009 c 0,0 24.95689,-43.19702 12.97375,-96.10887 -5.5302,-24.41869 -17.41159,-43.80811 -34.89345,-84.15138 z" style="fill:#ffd000;fill-opacity:1;stroke:none;stroke-width:33.8667;stroke-linecap:square;stroke-miterlimit:128;paint-order:stroke fill markers"/></svg>