<svg xmlns="http://www.w3.org/2000/svg" xml:space="preserve" id="svg1" width="4608" height="3072" version="1.1" viewBox="0 0 1219.2 812.8"><defs id="defs1"><style id="style1">.cls-1{fill:#0283c0}.cls-2{fill:#fff}.cls-3{fill:#ef483f}</style></defs><path id="rect1" d="M 1219.2,0 V 812.8 H 0 V 0 Z" style="fill:#000;fill-opacity:1;fill-rule:evenodd;stroke:none;stroke-width:8.46667;stroke-linecap:round;stroke-linejoin:round"/><path id="path2" d="m 609.6,101.6 c -149.63234,1e-5 -270.93332,121.30099 -270.93333,270.93333 0.25832,81.96891 37.6124,159.41409 101.6,210.64451 V 609.6 h -101.6 v 101.6 h 203.2 V 527.07635 C 480.37394,500.23932 440.52584,439.62666 440.26667,372.53333 440.26668,279.01312 516.07979,203.20001 609.6,203.2 c 93.52021,1e-5 169.33332,75.81312 169.33333,169.33333 -0.25917,67.09333 -40.10727,127.70599 -101.6,154.54302 V 711.2 h 203.2 V 609.6 h -101.6 v -26.42216 c 63.9876,-51.23042 101.34168,-128.6756 101.6,-210.64451 C 880.53332,222.90099 759.23234,101.60001 609.6,101.6 Z" style="fill:#103070;fill-opacity:1;stroke:none;stroke-width:33.8667;stroke-miterlimit:128;paint-order:stroke fill markers"/></svg>