<svg xmlns="http://www.w3.org/2000/svg" xml:space="preserve" id="svg1" width="4608" height="3072" version="1.1" viewBox="0 0 1219.2 812.8"><defs id="defs1"><style id="style1">.cls-1{fill:#0283c0}.cls-2{fill:#fff}.cls-3{fill:#ef483f}</style></defs><path id="rect1" d="M 0,0 V 812.8 H 1219.2 V 0 Z" style="fill:#fff;fill-opacity:1;fill-rule:evenodd;stroke:none;stroke-width:8.46667;stroke-linecap:round;stroke-linejoin:round"/><path id="path3" d="M 609.6 101.6 C 584.54744 101.72353 559.60551 104.93535 535.3389 111.16272 L 609.6 203.2 L 683.60375 111.45211 C 659.4328 105.14805 634.57839 101.83918 609.6 101.6 z M 734.92155 128.74356 L 667.94838 211.7757 C 699.8844 221.35115 729.28067 238.71215 753.28425 262.71575 C 791.39155 300.82307 812.8 352.5081 812.8 406.4 C 812.8 460.29187 791.39155 511.97694 753.28425 550.08425 C 729.28067 574.08784 699.88441 591.44885 667.94838 601.0243 L 734.92207 684.05644 C 754.70822 675.15185 773.5318 664.24157 790.98996 651.34371 L 772.36836 601.33642 C 784.03162 591.59753 794.79752 580.83162 804.53642 569.16836 L 854.54422 587.78996 C 868.30417 569.16462 879.89682 549.03173 889.09767 527.78122 L 848.03196 493.83704 C 853.25061 479.5717 857.17914 464.867 859.77026 449.89967 L 912.34586 441.02889 C 913.68742 429.53432 914.37325 417.97257 914.4 406.4 C 914.3734 394.82741 913.68742 383.26569 912.34586 371.77111 L 859.77026 362.90033 C 857.17914 347.93303 853.25061 333.22828 848.03196 318.96296 L 889.09767 285.0193 C 879.89682 263.76879 868.30417 243.6359 854.54422 225.01056 L 804.53642 243.63164 C 794.79748 231.96856 784.03158 221.20284 772.36836 211.4641 L 790.98996 161.45629 C 773.53167 148.55835 754.70784 137.64818 734.92155 128.74356 z M 484.45725 128.99936 C 464.68441 138.06642 445.89333 149.14226 428.48961 162.2056 L 446.92104 211.70336 C 435.3166 221.40143 424.60144 232.1166 414.90336 243.72104 L 365.4056 225.28961 C 351.46755 243.85868 339.69678 263.95966 330.32247 285.2012 L 371.65948 319.36914 C 366.4258 333.47884 362.45641 348.02584 359.79819 362.83832 L 307.28202 371.69824 C 305.79466 383.20879 304.96597 394.79494 304.8 406.4 C 304.96597 418.00504 305.79466 429.59122 307.28202 441.10176 L 359.79819 449.96168 C 362.45638 464.77435 366.42577 479.3215 371.65948 493.43138 L 330.32247 527.5988 C 339.69674 548.84051 351.46752 568.94168 365.4056 587.51091 L 414.90336 569.07948 C 424.60146 580.6837 435.31662 591.39874 446.92104 601.09664 L 428.48961 650.5944 C 445.89333 663.65774 464.68441 674.73356 484.45725 683.80064 L 551.24697 601.02326 C 519.3127 591.44753 489.91819 574.0867 465.91575 550.08425 C 427.80843 511.97694 406.39999 460.29191 406.4 406.4 C 406.39999 352.5081 427.80844 300.82306 465.91575 262.71575 C 489.91808 238.71341 519.31236 221.3525 551.24646 211.77674 L 484.45725 128.99936 z M 609.6 237.06667 L 571.58217 354.07348 L 448.55453 354.07348 L 548.08593 426.38689 L 510.06861 543.39319 L 609.6 471.07926 L 709.13191 543.39319 L 671.11407 426.38689 L 770.64547 354.07348 L 647.61783 354.07348 L 609.6 237.06667 z M 609.6 609.6 L 535.3389 701.63728 C 559.60551 707.86467 584.5474 711.07645 609.6 711.2 C 634.57839 710.9608 659.4328 707.65195 683.60375 701.34789 L 609.6 609.6 z" style="display:inline;fill:#b00020;fill-opacity:1;stroke-width:1.12007;stroke-linecap:round;stroke-linejoin:round;stroke-miterlimit:128"/></svg>