<svg xmlns="http://www.w3.org/2000/svg" xml:space="preserve" id="svg1" width="4608" height="3072" version="1.1" viewBox="0 0 1219.2 812.8"><path id="rect1" d="M 0,0 V 812.8 H 1219.2 V 0 Z" style="display:inline;fill:#000;fill-opacity:1;fill-rule:evenodd;stroke:none;stroke-width:8.46667;stroke-linecap:round;stroke-linejoin:round"/><path id="path1" d="M 0,0 C 963.88253,413.88051 789.34474,712.89658 1219.2,812.79999 V 0 Z" style="fill:#b00020;fill-opacity:1;stroke-width:67.7333;stroke-linecap:round;stroke-linejoin:round;stroke-miterlimit:128"/><defs id="defs1"><style id="style1">.cls-1{fill:#0283c0}.cls-2{fill:#fff}.cls-3{fill:#ef483f}</style></defs><path id="path4" d="M -3.0849391e-4,7.6708028e-6 V 45.155611 C 57.612868,45.459278 117.26313,67.075517 172.9981,88.95109 208.19743,362.09389 554.75563,497.4363 804.93161,541.86725 h 7.86895 v -2.66237 C 631.62004,476.11271 531.25664,148.85971 373.11495,59.884788 332.25022,37.651142 250.4253,28.629378 215.84583,70.570452 c 0.0374,1.031614 28.04228,28.83238 27.67621,29.240624 C 166.8818,59.533742 83.671905,24.389457 -3.0849391e-4,7.6708028e-6 Z" style="display:inline;fill:green;fill-opacity:1;stroke-width:.596973" transform="matrix(1.4999984,0,0,1.4999984,4.6274037e-4,-1.1506192e-5)"/><path id="path5" d="M -3.0849391e-4,7.6708028e-6 V 45.155611 C 57.61281,45.459278 117.26319,67.075539 172.9981,88.95109 208.1974,362.09362 554.75588,497.43635 804.93161,541.86725 h 7.86895 C 526.23037,475.26497 642.58809,275.92037 -3.0849391e-4,7.6708028e-6 Z" style="display:inline;fill:#20a020;fill-opacity:1;stroke-width:.596973" transform="matrix(1.4999984,0,0,1.4999984,4.6274037e-4,-1.1506192e-5)"/></svg>