<svg xmlns="http://www.w3.org/2000/svg" xml:space="preserve" id="svg1" width="4608" height="3072" version="1.1" viewBox="0 0 1219.2 812.8"><defs id="defs1"><style id="style1">.cls-1{fill:#0283c0}.cls-2{fill:#fff}.cls-3{fill:#ef483f}</style></defs><path id="rect1" d="M 1219.2,2.5119996e-6 V 812.8 H 0 V 2.5119996e-6 Z" style="display:inline;fill:#ffd000;fill-opacity:1;fill-rule:evenodd;stroke:none;stroke-width:8.46667;stroke-linecap:round;stroke-linejoin:round"/><path id="path2" d="M 0,541.86668 V 2.5119996e-6 H 1219.2 V 541.86668 Z" style="display:inline;fill:#000;fill-opacity:1;fill-rule:evenodd;stroke:none;stroke-width:8.46666;stroke-linecap:round;stroke-linejoin:round"/><path id="path3" d="M 0,270.93336 V 0 h 1219.2 v 270.93336 z" style="fill:#ff8000;fill-opacity:1;fill-rule:evenodd;stroke:none;stroke-width:8.46668;stroke-linecap:round;stroke-linejoin:round"/><path id="path4" d="m 609.60001,101.6 c -74.92692,75.68723 -172.41655,87.38445 -265.64275,85.40711 40.6646,342.67661 33.3063,416.71605 263.1855,524.19289 l 0.003,-0.003 c 0.84932,-0.33203 1.61169,-0.67819 2.45478,-1.01119 0.84306,0.333 1.60544,0.67916 2.45477,1.01119 l 0.003,0.003 C 841.93637,603.72308 834.57814,529.68372 875.24274,187.00711 782.01654,188.98445 684.52691,177.28723 609.6,101.6 Z" style="color:#000;fill:silver;stroke-linecap:round;stroke-linejoin:round;-inkscape-stroke:none;fill-opacity:1"/><path id="path7" d="M 609.59948 147.01945 C 540.98199 202.83992 459.09645 218.57106 382.02733 220.75397 C 399.31399 368.60861 409.68742 463.0779 435.73413 523.9861 C 462.9973 587.73895 506.58536 625.30366 609.59948 674.71489 C 712.6139 625.30337 756.20371 587.7392 783.46691 523.9861 C 809.51351 463.07788 819.88499 368.60861 837.17164 220.75397 C 760.1023 218.57105 678.21708 202.84033 609.59948 147.01945 z M 558.23208 236.73335 C 561.70535 236.67622 565.99035 237.58769 571.32688 239.46394 C 579.48877 242.33473 580.03101 242.40404 595.17452 242.51181 C 611.85409 242.62866 613.86431 243.00082 627.05372 248.42825 C 635.72327 251.99502 647.71873 257.96576 653.20457 261.44554 C 657.50365 264.17484 673.10413 279.57247 673.10413 281.09034 C 673.10413 281.51753 674.25924 283.76742 675.67452 286.089 C 682.78337 297.75403 684.47065 318.16678 679.83137 336.37327 C 678.46543 341.73186 676.83675 347.11431 676.21351 348.33223 C 675.59028 349.55015 673.3717 354.13365 671.28254 358.51713 C 664.42036 372.92314 660.20433 378.27921 652.80201 381.9927 C 649.34169 383.72871 647.42888 383.96742 636.41955 384.04012 C 627.99149 384.09595 621.51835 383.639 616.42852 382.62884 C 612.28784 381.80823 603.52122 380.73784 596.94599 380.25224 C 590.37078 379.76531 580.77 378.98284 575.61138 378.51281 C 564.63189 377.51043 545.27758 378.57528 536.82615 380.64498 C 530.5223 382.18881 518.96364 387.57454 511.24063 392.56829 C 505.38732 396.3519 503.02523 397.14555 500.99061 396.00684 C 497.6004 394.10853 501.2491 379.06813 507.25431 370.19601 C 513.31145 361.24726 523.92114 352.07018 532.95817 347.96067 C 541.52126 344.06799 548.67202 342.93574 563.48705 343.12531 C 571.41782 343.22788 583.88351 343.69884 591.18975 344.17537 C 610.17921 345.41534 619.06584 343.86935 628.38335 337.70704 C 629.84407 336.73973 631.62016 335.67064 632.3304 335.33044 C 634.59354 334.24757 642.79756 325.58521 644.47642 322.50796 C 645.7372 320.19676 646.09441 317.58812 646.09441 310.6844 C 646.09441 302.16803 645.98518 301.67058 643.29097 297.84022 C 639.41516 292.32711 636.32965 289.62529 630.25042 286.41818 C 624.04526 283.14356 616.65989 282.63828 612.775 285.22083 C 606.4426 289.43294 605.29224 290.26377 604.46905 291.22719 C 602.70319 293.29428 593.33768 298.79188 586.33785 301.87046 C 579.18095 305.01782 571.80712 306.54901 568.99731 305.47128 C 567.79239 305.00775 568.19789 304.4243 571.0778 302.47404 C 580.17585 296.31564 598.71694 278.78024 598.71694 276.33662 C 598.71694 273.53332 593.95315 274.53177 587.87523 278.60883 C 582.88018 281.96135 582.25147 282.18499 582.57219 280.50743 C 583.04482 278.03007 581.13097 277.32928 577.00457 278.46931 C 575.21926 278.96271 573.56771 279.17816 573.33658 278.94835 C 572.80943 278.41857 577.68664 276.85787 582.335 276.06584 C 584.28264 275.73473 586.27572 275.16463 586.76263 274.79976 C 587.24955 274.4349 589.93984 273.47909 592.74056 272.67535 C 598.40816 271.04974 599.10154 269.64215 595.4205 267.22968 C 594.09352 266.35975 592.59864 265.31712 592.09874 264.912 C 589.18121 262.54629 580.02343 256.20452 579.52483 256.20452 C 579.19893 256.20452 578.30343 255.65392 577.53477 254.98134 C 572.95524 250.97181 568.28446 253.81955 565.03838 262.59689 C 563.49976 266.75706 562.96314 270.11093 562.91654 275.87205 C 562.84124 284.87802 561.66107 284.86897 559.39273 275.84363 C 557.63057 268.83604 557.6023 260.62209 559.32142 254.95705 C 561.26643 248.54154 561.08681 247.34666 558.17833 247.34666 C 553.2755 247.34666 550.73832 253.5445 550.56174 265.94966 C 550.50329 270.09161 550.75423 275.87056 551.11778 278.79332 L 551.77976 284.10927 L 549.51271 279.23619 C 544.97996 269.49672 543.56846 258.85611 546.02765 252.96906 C 546.75866 251.21878 547.35625 248.11859 547.35625 246.07749 C 547.35625 243.10798 547.88819 241.85357 550.01242 239.81895 C 552.099 237.81939 554.75826 236.79217 558.23156 236.73387 L 558.23208 236.73335 z M 574.70859 386.11132 L 574.71014 386.11132 C 581.95146 386.19052 589.59531 386.69535 595.61739 387.60166 A 937.77367 937.77367 0 0 0 612.88662 390.02736 C 617.026 390.55453 624.39844 391.53348 629.26753 392.20087 C 634.13793 392.86958 641.11153 393.66154 644.7653 393.96148 C 655.87201 394.87687 661.65929 396.17552 667.28537 399.01647 C 675.71084 403.27011 678.33501 405.70691 681.33567 412.0627 C 685.22315 420.2973 685.18817 427.35596 681.22147 435.41528 C 678.0663 441.82679 676.23725 442.84719 669.85679 441.7565 C 665.66417 441.03977 653.95857 437.16409 650.9644 435.5021 C 645.14488 432.26902 619.96414 425.59032 604.47266 423.16745 C 600.0892 422.48189 591.71828 421.46646 585.87018 420.91074 C 564.28387 418.85922 536.89602 423.10614 519.4608 431.2083 C 514.61508 433.46108 505.03787 439.23505 503.96407 440.55295 C 503.185 441.5099 497.89498 444.00045 496.70302 443.97445 C 496.0694 443.95887 494.85266 443.5382 493.99569 443.03962 C 492.02342 441.89052 489.0934 436.14218 489.29468 433.8128 C 489.53617 430.99003 492.69887 422.8161 494.18947 421.15672 C 494.93995 420.32183 496.33956 418.1462 497.30298 416.31929 C 499.32854 412.47338 508.30342 402.79463 512.81934 399.58233 C 516.1498 397.21402 522.70817 394.52522 530.52989 392.31921 C 535.05229 391.04415 538.46206 390.36118 556.21153 387.17223 C 560.62876 386.37889 567.46728 386.03332 574.70859 386.11132 z M 747.9931 404.44921 C 749.66156 404.38688 751.63792 404.58151 754.29711 404.58151 C 762.21747 404.58151 764.36221 404.879 766.72013 406.30595 C 771.58274 409.24819 771.11188 410.27737 764.9223 410.23077 C 757.48884 410.17363 755.06705 411.47222 751.72879 417.30993 C 749.00596 422.06995 748.93207 422.48431 749.03077 432.47696 C 749.11776 441.41661 749.47195 443.73563 751.76238 450.3446 C 753.20881 454.52164 754.89195 461.48007 755.50221 465.80774 C 756.52147 473.03606 756.45764 474.34327 754.71776 481.88583 C 752.58056 491.15527 748.90348 498.57619 741.72062 508.12351 C 739.04845 511.67467 736.86148 514.99319 736.86148 515.49567 C 736.86148 517.15376 721.90771 532.33377 717.60994 535.03969 C 708.66898 540.66446 699.52523 542.13168 678.41544 541.32665 C 665.46368 540.83196 648.5021 538.33229 645.50013 536.47681 C 645.08205 536.21714 641.85706 535.21379 638.33313 534.24388 C 632.53438 532.64808 618.67634 527.60647 614.21367 525.46922 C 606.6802 521.86219 581.81219 520.61038 569.62518 523.22543 C 562.98764 524.6511 549.93518 528.92894 545.1414 531.24923 C 532.39866 537.42063 517.72075 540.57732 509.91203 538.82706 C 496.9044 535.91081 490.25758 525.44794 492.85054 511.9703 C 494.28401 504.52384 498.12117 497.49672 502.10217 495.03232 C 504.31596 493.66118 509.07066 492.44461 517.63765 491.05788 C 524.42712 489.95942 531.29466 488.51284 532.89822 487.84154 C 534.50179 487.17155 539.50621 485.80969 544.01951 484.8164 C 548.53413 483.82311 555.13638 482.01185 558.69406 480.79132 C 566.97281 477.95168 580.39877 477.08272 594.28931 478.48501 C 603.92493 479.45882 614.0367 481.50276 615.98566 482.8713 C 616.47255 483.2141 618.46616 484.02715 620.41381 484.67894 C 628.21732 487.29009 640.8819 493.12273 649.87868 498.24762 C 669.15378 509.22838 674.5635 511.30835 685.58193 511.97702 C 692.78688 512.4146 698.35961 511.49689 700.9474 509.44539 A 8101.6559 8101.6559 0 0 1 708.66372 503.36307 C 712.39411 500.42476 717.31379 496.13222 719.59639 493.82102 C 724.49148 488.86495 730.10493 479.55365 731.2086 474.56121 C 731.63966 472.6123 731.98995 460.85254 731.98995 448.43051 C 731.98995 426.8546 732.08618 425.56287 734.12728 419.64467 C 735.69577 415.09756 737.39008 412.26687 740.4933 409.01431 C 743.28753 405.37612 745.21189 404.55439 747.9931 404.44921 z M 581.89161 431.32768 C 600.22405 431.39649 604.75493 431.68066 611.11464 433.16736 C 635.05626 438.76357 659.90379 446.77776 671.77398 452.73102 C 680.95645 457.33656 687.60972 465.43264 688.68354 473.30496 C 689.64305 480.34891 684.45069 492.63704 679.20505 495.7377 C 676.42123 497.3815 669.26172 497.49677 666.01826 495.94906 C 664.80033 495.36867 662.40972 493.99525 660.70489 492.89808 C 656.73172 490.34018 641.34165 482.78923 635.0248 480.29626 C 627.03823 477.1476 607.781 470.92715 597.83121 468.28356 C 584.8807 464.84272 574.96842 464.81416 562.61785 468.18228 C 554.28586 470.45453 536.6259 476.9684 534.51466 478.54857 C 532.51509 480.04437 515.03425 483.86194 510.17816 483.86194 C 501.53715 483.86194 498.39881 481.15993 494.62821 470.46999 C 493.39082 466.95905 493.43754 466.56331 495.60851 462.1227 C 498.97272 455.24495 510.11604 445.67135 518.3818 442.55645 A 158.91456 158.91456 0 0 0 524.7752 439.98141 C 526.23595 439.33999 530.22081 438.1705 533.63048 437.38364 C 537.04015 436.5968 541.82085 435.39569 544.2567 434.71403 C 554.84144 431.75492 560.45466 431.24968 581.89161 431.32768 z" style="color:#000;fill:#fff;stroke-linecap:round;stroke-linejoin:round;-inkscape-stroke:none"/></svg>