<svg xmlns="http://www.w3.org/2000/svg" xml:space="preserve" id="svg1" width="4608" height="3072" version="1.1" viewBox="0 0 1219.2 812.8"><path id="rect1" d="M 0 0 L 0 812.8 L 1219.2 812.8 L 1219.2 0 L 0 0 z" style="fill:#000;stroke-width:33.8667;stroke-miterlimit:128;paint-order:stroke fill markers;fill-opacity:1"/><defs id="defs1"><style id="style1">.cls-1{fill:#0283c0}.cls-2{fill:#fff}.cls-3{fill:#ef483f}</style></defs><path id="path1" d="M 5.1676432e-4,0 V 208.33044 L 319.7195,312.21298 l -0.002,-0.002 H 541.168 L 314.33275,0 Z M 541.168,312.21143 609.6,406.4 V 101.6 Z M 609.6,101.6 678.032,312.21143 904.86725,0 H 609.6 Z M 678.032,312.21143 609.6,406.4 v 0.001 l 5.2e-4,-5.1e-4 179.15599,246.58701 -68.43149,-210.61091 -110.72399,-35.9761 289.87792,-94.18702 0.003,-0.002 z m 221.44695,0.002 -179.15393,130.16312 498.87448,162.09294 V 208.33044 Z M 609.6,406.40103 h -5.2e-4 L 430.44349,652.98753 609.6,522.82287 Z m 0,116.42184 V 812.8 H 904.86725 L 788.75702,652.98857 Z m -5.2e-4,-116.42184 5.2e-4,-10e-4 -289.87895,-94.18598 179.15393,130.1626 -5.2e-4,0.001 z M 498.87446,442.37765 5.1676432e-4,604.47111 V 812.8 H 314.33275 L 430.44298,652.98805 Z" style="display:inline;fill:#b00020;fill-opacity:1;stroke-width:1"/></svg>