<svg xmlns="http://www.w3.org/2000/svg" xml:space="preserve" id="svg1" width="4608" height="3072" version="1.1" viewBox="0 0 1219.2 812.8"><defs id="defs1"><style id="style1">.cls-1{fill:#0283c0}.cls-2{fill:#fff}.cls-3{fill:#ef483f}</style></defs><path id="rect1" d="M 0 0 L 0 812.8 L 1219.2 812.8 L 1219.2 0 L 0 0 z" style="fill:#b00020;fill-rule:evenodd;stroke:none;stroke-width:8.46667;stroke-linecap:round;stroke-linejoin:round;fill-opacity:1"/><path id="path1" d="M 609.6 101.6 A 304.79999 304.79999 0 0 0 304.8 406.4 A 304.79999 304.79999 0 0 0 609.6 711.2 A 304.79999 304.79999 0 0 0 914.4 406.4 A 304.79999 304.79999 0 0 0 609.6 101.6 z" style="fill:#fff;stroke-width:33.8667;stroke-linecap:round;stroke-linejoin:round;stroke-miterlimit:128;paint-order:stroke fill markers"/><path id="path1432" d="M 509.29863 169.34935 C 505.56149 169.05069 499.14742 172.9277 481.46519 182.22815 L 459.2252 193.92615 L 432.4165 221.02889 C 408.52666 245.18069 405.54767 248.74258 405.05641 253.7442 C 404.75366 256.83127 403.88819 265.53391 403.13457 273.08307 L 401.76411 286.80885 L 410.84469 299.98376 L 419.92579 313.15866 L 420.45547 347.5054 C 421.6705 426.24085 435.45511 468.57446 476.98949 521.1284 C 507.56043 559.81015 540.72998 588.18332 586.23398 614.57541 C 613.72035 630.51738 616.46927 631.54098 625.70806 629.27477 C 632.64542 627.57303 636.00234 628.10991 648.96401 632.99444 C 670.48916 641.10626 689.50534 644.7298 701.86259 643.07393 C 725.74598 639.87353 762.36233 620.81178 780.55029 602.11053 L 780.55029 602.11157 C 796.08561 586.13783 811.54319 558.52716 815.713 539.303 C 818.4997 526.4555 817.79649 493.86131 814.39267 478.01475 C 813.0569 471.79761 811.16951 461.20036 810.19861 454.46528 C 808.11813 440.03296 799.69797 410.41088 793.2291 394.76608 C 789.24463 385.12969 788.00641 383.26486 783.68653 380.39332 C 779.15256 377.37933 778.70324 376.55754 778.49873 370.90294 C 778.19423 362.48322 775.47357 357.82352 757.96304 335.7299 C 742.5373 316.26744 732.60801 306.47707 713.98123 292.3682 C 706.47558 286.68314 703.72815 285.43263 700.99959 286.46055 C 697.00262 287.96635 697.34187 288.20952 694.92502 282.11301 C 693.55496 278.65681 691.80165 276.69628 688.31509 274.72225 C 678.30472 269.05433 651.30466 263.13105 632.69626 262.52041 C 614.17651 261.9127 613.39855 261.70666 599.78199 253.8119 C 581.14754 243.00802 571.53712 238.96967 552.84016 234.08649 L 537.14654 229.98803 L 528.4618 219.90544 L 519.77654 209.82285 L 521.85652 202.98244 C 525.76988 190.11466 525.25209 187.2262 517.20306 177.03674 C 513.4927 172.33974 512.20529 169.58165 509.29863 169.34935 z M 508.91829 180.528 C 509.98472 180.71845 511.15922 181.94964 513.35678 184.38513 C 517.58326 189.0693 517.76721 190.00854 515.84552 197.14766 C 514.70522 201.38586 512.91663 205.52895 511.87108 206.35485 C 510.28012 207.61161 511.27777 209.51228 517.99371 218.01408 C 522.40677 223.60067 525.77032 228.36712 525.46767 228.6062 C 524.9972 228.97776 503.46199 231.87223 501.22264 231.86492 C 500.7921 231.86292 500.35891 229.27924 500.2599 226.12212 L 500.08007 220.3819 L 496.77278 223.07062 C 494.95407 224.54982 488.57267 231.07102 482.59277 237.56276 L 471.72004 249.36617 L 471.68852 267.53819 C 471.65702 285.26799 471.80264 285.92462 477.64165 294.51122 C 480.93352 299.35172 483.98762 305.0546 484.42831 307.18435 C 484.86906 309.31406 484.22526 321.92395 482.99739 335.20641 C 480.15976 365.91259 480.70425 379.35351 485.85975 405.99796 C 493.98491 447.98192 505.68768 478.28762 523.85175 504.38265 C 540.56603 528.39492 578.98476 565.00534 614.46224 590.72828 C 623.01734 596.93116 630.52981 602.66172 631.15631 603.46291 C 632.77205 605.52943 622.42701 600.87088 611.2061 594.47896 L 611.21075 594.47948 C 578.55776 575.87893 537.74495 537.12809 514.39289 502.55382 C 494.89747 473.68956 484.68514 447.92822 477.07992 408.42933 C 471.22437 378.01775 470.21916 361.64933 472.45437 333.10783 C 473.68435 317.40526 473.69752 305.00299 472.48589 302.84198 C 471.3578 300.82833 466.3447 293.42063 461.34548 286.38045 L 452.25612 273.5802 L 452.26645 255.34049 L 452.2773 237.10129 L 476.86805 211.80154 C 490.39326 197.88695 503.10974 184.88815 505.12679 182.91545 C 506.89329 181.18785 507.85186 180.33755 508.91829 180.528 z M 524.51114 236.6331 C 536.91042 236.73665 554.6096 240.13602 569.75075 245.47184 C 592.42574 253.46267 620.66125 272.61324 634.35766 289.29139 C 642.35083 299.02466 642.45167 299.26472 642.09827 307.76364 C 641.75529 316.02487 641.43129 316.58053 634.14476 321.43774 C 628.69407 325.07126 623.278 326.8629 614.96143 327.78361 C 585.56618 331.03787 539.33371 309.69203 512.69842 280.56789 C 502.89858 269.85238 495.7721 257.65534 499.30337 257.64267 C 500.23997 257.63867 505.89201 263.82201 511.86385 271.38188 C 530.54972 295.03663 553.02325 308.69103 586.88614 316.96412 C 602.53763 320.78792 608.28465 321.32874 615.55416 319.66214 C 646.97476 312.45853 637.86813 288.44451 594.07278 263.01599 C 570.27799 249.20021 537.39719 239.88835 520.8049 242.26635 C 512.55815 243.44907 507.34042 242.21273 507.33699 239.07533 C 507.33639 238.36308 512.82985 237.33689 519.54451 236.79485 C 521.0766 236.67118 522.73981 236.61831 524.51114 236.6331 z M 493.30219 239.67736 C 496.2173 239.75405 499.52194 241.5185 503.17756 244.96128 C 510.40074 251.76379 509.65383 253.86707 500.85625 251.49834 C 494.29003 249.73061 492.57491 249.94941 490.65015 252.79956 C 488.51661 255.95917 488.19027 255.90382 486.45403 252.08952 C 484.1169 246.95536 484.58316 244.49218 488.48388 241.3646 C 489.94435 240.19326 491.55312 239.63134 493.30219 239.67736 z M 442.99053 242.84202 C 443.9607 242.65576 444.58694 242.64446 444.75321 242.85494 C 445.69268 244.04421 444.64544 271.05569 443.62305 271.99012 C 443.3259 272.26067 435.6871 275.0231 426.64683 278.12721 C 417.60682 281.23114 409.82927 283.28848 409.36364 282.69902 C 408.59885 281.73092 410.6176 261.21857 411.97175 256.1978 C 412.56177 254.01062 436.19933 244.14589 442.99053 242.84202 z M 529.22299 248.61893 L 534.05681 248.92382 L 530.76295 252.98301 C 528.95121 255.21563 527.09591 257.47677 526.63969 258.00751 C 526.18329 258.53853 525.30693 257.69362 524.69149 256.12959 C 524.07615 254.56547 523.09898 252.68644 522.52004 251.95361 C 520.84902 249.8383 523.96811 248.28671 529.22299 248.61893 z M 546.85086 252.20889 C 547.30505 252.17199 547.74881 252.19291 548.18669 252.27039 C 550.28855 252.64228 552.25024 254.32088 554.52688 257.20291 L 559.02479 262.89765 L 552.51511 271.70331 C 546.44172 279.91895 542.81925 284.50522 540.09261 287.43103 C 539.46956 288.10037 537.79484 288.24172 536.37191 287.74574 C 534.94892 287.24972 531.25582 284.37651 528.16466 281.36112 C 521.73056 275.08487 521.33465 276.32855 534.39684 261.78144 C 539.99131 255.55096 543.67149 252.46721 546.85086 252.20889 z M 562.92688 254.39687 L 576.07336 260.50813 C 592.46622 268.12799 596.03557 270.51461 591.52358 270.84032 C 589.74914 270.96772 583.50632 270.17236 577.65053 269.07091 L 567.00363 267.06845 L 564.965 260.73292 L 562.92688 254.39687 z M 491.93793 267.44621 C 493.59459 267.34931 495.58026 269.57761 499.12044 274.05924 L 505.37277 281.974 L 501.80296 286.27193 C 499.83956 288.6359 497.86409 291.16158 497.41357 291.88451 C 495.84186 294.4064 493.87266 293.27951 488.94122 287.03674 L 488.9407 287.03674 C 484.21276 281.05158 484.10692 280.46385 486.72895 274.78374 C 488.9533 269.96497 490.28127 267.54311 491.93793 267.44621 z M 631.36766 269.14791 C 641.08734 268.9335 671.15527 276.10315 684.82228 282.38328 L 689.98476 284.75523 L 690.27983 301.04829 C 690.44223 310.0095 690.26578 317.5682 689.88554 317.84572 C 689.50624 318.12327 680.19158 313.70609 669.18603 308.02978 L 649.17588 297.70948 L 638.09283 284.3227 C 629.41177 273.83752 627.34508 270.67155 628.55492 269.71584 C 629.00574 269.3597 629.97914 269.17854 631.36766 269.14791 z M 562.67625 275.74906 L 580.57593 279.01088 C 590.42085 280.80503 598.86901 282.77086 599.34946 283.37909 C 599.8298 283.98726 599.76031 286.66704 599.19702 289.33428 C 598.17397 294.1651 598.12715 294.17396 587.08303 291.61889 C 573.22977 288.41386 572.26867 291.34883 584.66974 298.98795 C 593.41122 304.37273 594.11141 305.71594 590.07406 309.35424 C 589.1544 310.18377 584.11619 309.74 578.87888 308.36877 L 578.87836 308.36877 C 568.7576 305.71904 552.15421 298.87363 550.37002 296.61497 C 549.78153 295.86989 552.30982 290.87006 555.98829 285.50454 L 562.67625 275.74906 z M 512.41833 289.85363 C 513.01207 289.76754 513.48649 289.89433 513.79396 290.28357 C 514.73423 291.47395 517.43702 294.2342 519.80031 296.41757 C 524.62142 300.87186 525.55997 299.94929 507.91008 308.11039 L 507.90957 308.11039 C 500.32888 311.61564 499.54635 311.42205 498.82847 305.86195 C 498.26407 301.48488 508.26219 290.45623 512.41833 289.85363 z M 708.46115 297.15602 C 709.37133 297.15302 714.81756 301.13397 720.56377 306.00303 C 728.78192 312.96668 735.25758 320.23106 750.90972 340.04539 L 770.80825 365.23507 L 770.29097 376.33672 C 769.77657 387.37416 766.84951 403.06351 765.01842 404.59546 C 764.49121 405.03656 763.59493 404.21531 763.02681 402.77076 L 763.02733 402.77076 C 762.45882 401.32622 757.17327 392.8483 751.28076 383.93109 C 741.2068 368.68557 726.69667 351.62753 709.79027 335.15422 C 705.32889 330.80701 705.15368 329.83608 705.96053 313.88058 C 706.42565 304.68533 707.55098 297.15927 708.46115 297.15602 z M 617.57522 298.34355 C 618.56518 298.21062 619.69305 298.59403 621.4308 299.24272 C 624.0586 300.2237 626.86457 301.83322 627.6666 302.81976 C 629.7142 305.33805 623.02161 310.21745 614.34803 312.52976 C 610.39975 313.58228 607.02417 313.77718 606.84616 312.96333 C 606.66871 312.14933 608.80148 308.32811 611.58748 304.47134 C 614.65799 300.22052 615.92531 298.5651 617.57522 298.34355 z M 534.66969 308.80751 C 535.09616 308.96711 542.31496 312.68467 550.71109 317.06902 C 559.10729 321.45327 567.88766 325.91689 570.22359 326.98779 L 574.47088 328.93496 L 561.38175 339.27438 L 548.29263 349.61432 L 543.12912 340.73321 C 540.28894 335.84886 537.32217 331.69894 536.53624 331.51103 C 533.54527 330.79573 532.97173 336.11482 535.01902 345.58097 L 537.14292 355.40208 L 530.88956 358.31456 C 527.44994 359.91641 524.22104 361.12792 523.7148 361.00691 C 523.20859 360.88581 521.76718 357.29593 520.51138 353.02961 C 518.11577 344.89076 515.37333 340.27053 513.71541 341.58018 C 513.17484 342.00718 512.45735 346.81603 512.12068 352.26635 C 511.78258 357.71659 511.02368 362.55857 510.43138 363.02642 C 509.83904 363.4943 507.36099 363.29835 504.92422 362.59079 C 499.72703 361.08148 499.8664 362.25975 502.14299 339.01755 C 503.54092 324.74523 504.10369 323.12241 508.37465 321.04294 C 510.95688 319.78567 517.75503 316.45313 523.48174 313.63719 C 529.20844 310.8213 534.24311 308.64784 534.66969 308.80751 z M 467.62314 309.42607 C 468.02491 309.93469 467.513 319.93822 466.48677 331.65624 C 463.84287 361.81214 464.99778 387.21898 470.09224 410.962 C 474.05426 429.42747 474.15753 431.74232 471.12628 434.13681 C 469.27412 435.59991 465.52265 436.99439 462.78932 437.23533 L 462.78829 437.23533 C 454.0585 438.00495 447.68833 434.66976 440.49508 425.56369 C 434.90047 418.48139 433.53964 415.32968 430.34066 402.04523 C 426.19358 384.8235 425.01218 361.97024 427.14757 340.28827 L 428.58004 325.74187 L 447.73649 317.12173 C 458.27245 312.3807 467.22141 308.91749 467.62314 309.42607 z M 650.82487 311.42492 L 665.35319 320.37476 C 686.00161 333.09465 685.86994 332.91291 681.41577 342.59459 C 677.41204 351.29732 666.33821 369.09839 663.27424 371.75664 C 662.0582 372.81144 659.91183 371.9555 656.95267 369.23483 L 656.95215 369.23431 C 654.48794 366.96862 645.33816 358.71935 636.61902 350.90261 C 627.89984 343.0859 620.76529 336.3002 620.76469 335.82343 C 620.76518 335.34673 624.02094 333.93533 628.00198 332.68719 C 637.13773 329.8229 644.04531 324.40366 647.85348 317.11346 L 650.82487 311.42492 z M 588.96353 333.87678 L 597.4209 340.79884 C 602.07249 344.60594 607.88627 349.31584 610.34052 351.26538 C 618.53346 357.77329 646.75693 385.37669 647.71964 387.82336 C 649.04505 391.19171 642.4405 397.35263 615.16607 418.19049 C 600.13132 429.67712 590.72777 435.95797 589.1351 435.57703 C 585.66856 434.74802 569.39295 409.30019 557.36288 385.89944 L 547.93865 367.56774 L 568.45109 350.72226 L 588.96353 333.87678 z M 701.97317 348.63557 C 703.36795 348.97017 713.77185 361.26586 728.50695 379.99334 C 757.33011 416.62586 759.99923 421.6482 755.34304 430.47812 C 749.47195 441.61199 740.64016 454.25064 736.16127 457.92812 L 731.56827 461.69998 L 704.28208 426.10784 C 689.2749 406.53241 676.9773 390.26303 676.95403 389.95398 C 676.93303 389.64423 680.76104 383.24534 685.46514 375.73314 C 690.16926 368.22093 695.29172 358.9268 696.84842 355.07962 C 698.74024 350.40436 700.43957 348.26747 701.97317 348.63557 z M 527.14353 376.07524 C 530.11936 375.96656 532.2507 376.12733 532.63467 376.68295 C 533.36673 377.7403 539.09724 388.33734 545.37136 400.23035 C 551.64542 412.1234 559.9096 427.06941 563.73613 433.44331 C 571.85317 446.964 572.11078 446.41602 554.58734 452.91809 C 541.51745 457.76762 529.56569 459.79437 526.52652 457.67697 C 524.12706 456.00518 513.85657 432.19416 510.18075 419.7811 C 508.13524 412.87357 502.90956 388.28504 501.9275 380.94626 C 501.68705 379.15286 518.21608 376.40128 527.14353 376.07524 z M 784.14283 393.07833 C 785.26799 393.34748 798.43859 439.86222 800.45553 450.69032 C 802.12337 459.6439 796.49754 488.27867 793.7531 484.80452 C 793.5326 484.52522 789.46711 472.62509 784.71903 458.36014 L 776.08648 432.42373 L 779.66766 412.64406 C 781.63724 401.76521 783.65108 392.96073 784.14283 393.07833 z M 663.30732 404.31537 L 675.7231 420.11493 C 695.76557 445.62042 716.84504 476.1836 716.31028 478.96095 C 715.63096 482.48935 662.68742 522.60663 659.66464 521.88339 C 657.6005 521.38943 601.42885 456.61568 601.43977 454.74175 C 601.44177 454.41275 606.60376 451.15306 612.91091 447.49878 C 623.96109 441.09643 655.74983 414.69671 660.85785 407.68003 L 663.30732 404.31537 z M 502.43962 441.05111 C 503.88699 441.39726 510.03368 459.95852 508.9772 460.79306 C 508.43239 461.22349 506.54525 456.91143 504.78366 451.2107 C 503.02194 445.51006 501.9674 440.93818 502.43962 441.05111 z M 768.11125 449.8144 C 769.92226 449.35212 786.63069 496.12998 786.65431 501.72855 C 786.67181 506.05257 774.24933 528.44906 769.36337 532.90081 C 767.17211 534.89747 766.77849 534.2858 755.25933 510.97915 C 748.74187 497.7925 743.409 486.53024 743.40837 485.95173 C 743.40749 484.24564 766.69601 450.17581 768.11125 449.8144 z M 583.70081 464.07968 C 583.94476 464.10418 595.23534 477.04136 608.79075 492.83245 C 622.34614 508.62346 635.67864 523.74869 638.41891 526.44435 C 642.38182 530.34276 643.03711 531.63346 641.62182 532.75146 C 640.31562 533.78309 637.89366 532.13424 632.5154 526.55132 C 626.49278 520.29957 623.20383 518.26218 614.04211 515.10861 C 600.03103 510.28582 588.7832 503.84073 570.66594 490.2538 C 556.7007 479.78067 556.22297 479.57101 547.66115 480.14847 C 542.85218 480.47257 537.87917 479.76566 536.61014 478.57906 C 534.62011 476.71713 535.47772 476.27964 542.84904 475.39579 C 547.54952 474.83218 558.5647 472.04643 567.32661 469.20495 C 576.08856 466.36344 583.45682 464.05703 583.70081 464.07968 z M 518.54509 482.30803 C 518.93686 482.25485 519.85212 482.7295 521.3134 483.52242 C 524.427 485.2119 527.55599 489.07708 535.04124 500.47901 C 543.98071 514.09612 570.89805 545.6744 575.42586 547.85493 C 576.22145 548.23829 576.31471 548.99281 575.63308 549.53132 C 574.95121 550.06991 572.39977 549.16877 569.96314 547.52937 C 564.34636 543.75014 525.60255 496.74455 520.84883 487.94179 C 518.69408 483.95168 517.89215 482.39665 518.54509 482.30803 z M 807.18432 483.32812 C 808.68433 483.6868 811.1653 505.06497 811.18201 517.7746 C 811.19951 530.48653 809.32882 544.64954 807.6861 544.2567 C 807.10081 544.11775 804.9038 535.55268 802.80371 525.22531 C 799.28769 507.93589 799.27174 505.52313 802.60269 494.7729 C 804.59217 488.3515 806.65389 483.20125 807.18432 483.32812 z M 729.51671 500.08575 C 730.37435 500.27055 744.56669 525.69691 752.01663 540.39699 C 755.82302 547.90776 753.70463 551.36056 749.48293 544.52697 L 749.48242 544.52645 C 746.88626 540.32433 746.06187 540.14771 737.35344 541.92299 C 725.74977 544.28892 719.94382 544.05848 703.42993 540.57734 C 694.61345 538.7187 688.51066 538.55028 684.58354 540.05696 C 681.38927 541.28238 678.09183 541.76312 677.25582 541.12511 C 675.8135 540.02415 727.28249 499.60646 729.51671 500.08575 z M 792.44724 528.05872 C 794.58906 528.57105 801.08537 557.60293 799.36258 558.96381 C 799.04303 559.21651 797.20871 554.15087 795.28634 547.70714 L 791.79095 535.99106 L 788.07903 540.31327 C 786.03739 542.69036 782.66117 546.70821 780.57613 549.24141 C 777.86635 552.53375 776.7582 553.13788 776.69058 551.35963 C 776.58173 548.49394 790.68525 527.63736 792.44724 528.05872 z M 660.50645 547.12784 C 660.85259 547.15936 661.08462 547.25559 661.21235 547.4131 C 661.66815 547.97538 670.32819 556.45807 680.45717 566.26414 C 697.38238 582.64986 701.05954 586.93764 697.58843 586.23967 C 696.88003 586.09722 687.72468 578.82783 677.24342 570.08562 C 660.21706 555.88418 657.78872 554.31265 654.45101 555.33923 C 652.39637 555.97123 643.83909 558.62908 635.43512 561.24533 C 627.03113 563.86176 619.71632 565.44714 619.18029 564.76863 C 618.64437 564.08984 624.9157 560.65481 633.11639 557.13447 C 650.07016 549.85655 658.08348 546.90723 660.50645 547.12784 z M 761.96124 564.43325 C 764.92162 564.18301 766.22471 567.57243 769.51634 574.29311 C 772.38572 580.15166 774.0625 586.01899 773.0877 586.78899 C 772.92635 586.91499 770.93871 583.63988 768.67039 579.50778 C 766.40209 575.37568 763.84719 571.82639 762.99322 571.62041 C 762.13943 571.41461 755.54935 575.6061 748.34915 580.93508 C 733.86567 591.6544 729.53421 593.95918 727.85841 591.83778 C 727.17173 590.96859 733.63501 584.96272 744.46102 576.41081 C 754.38281 568.57319 759.00088 564.68349 761.96124 564.43325 z M 709.7174 596.71448 C 710.50228 596.67976 711.2172 596.71599 711.83769 596.83179 C 714.39655 597.30933 717.35042 599.69551 720.82163 604.08974 C 726.62768 611.43969 725.20844 611.97736 717.21152 605.45762 L 717.21152 605.45865 C 712.12158 601.30895 711.27748 601.26865 699.84824 604.63906 C 689.11131 607.80523 688.21089 607.80332 691.37227 604.61839 C 695.30289 600.65982 704.22327 596.95752 709.7174 596.71448 z" style="fill:#000;stroke-width:.264582;stroke:none"/></svg>