<svg xmlns="http://www.w3.org/2000/svg" xml:space="preserve" id="svg1" width="4608" height="3072" version="1.1" viewBox="0 0 1219.2 812.8"><defs id="defs1"><style id="style1">.cls-1{fill:#0283c0}.cls-2{fill:#fff}.cls-3{fill:#ef483f}</style></defs><path id="rect1-3" d="M 0,1.305e-6 V 812.8 H 1219.2 V 1.305e-6 Z" style="fill:#ffd000;fill-opacity:1;stroke-width:33.8667;stroke-miterlimit:128;paint-order:stroke fill markers"/><path id="path1" fill="#e00000" d="M 609.59999,1.0145e-5 V 812.79975 l 295.26732,2.4e-4 L 314.33268,1.0145e-5 H 3.6576e-4 V 208.33038 L 1219.1996,604.46962 V 208.33038 L 3.6576e-4,604.47113 V 812.79975 H 314.33286 L 904.86731,1.0145e-5 Z" style="display:inline;fill:#b00020;fill-opacity:1;stroke-width:1"/><path id="path3" d="M 609.6 101.6 L 541.168 312.21143 L 319.71795 312.21143 L 498.87498 442.37662 L 430.44298 652.98805 L 609.6 522.82287 L 788.75702 652.98857 L 720.32502 442.37662 L 899.48205 312.21143 L 678.032 312.21143 L 609.6 101.6 z M 609.6 169.33333 L 662.82466 333.14246 L 835.06376 333.14246 L 695.71981 434.38175 L 748.94447 598.19088 L 609.6 496.95106 L 470.25553 598.19088 L 523.48019 434.38175 L 384.13624 333.14246 L 556.37534 333.14246 L 609.6 169.33333 z" style="fill:#600000;fill-opacity:1;stroke-width:33.8667;stroke-linecap:round;stroke-linejoin:round;stroke-miterlimit:128;paint-order:stroke fill markers"/></svg>