<svg xmlns="http://www.w3.org/2000/svg" xml:space="preserve" id="svg1" width="4608" height="3072" version="1.1" viewBox="0 0 1219.2 812.8"><defs id="defs1"><style id="style1">.cls-1{fill:#0283c0}.cls-2{fill:#fff}.cls-3{fill:#ef483f}</style></defs><path id="rect1" d="M 1219.2,0 V 812.8 H 0 V 0 Z" style="fill:#b00020;fill-opacity:1;fill-rule:evenodd;stroke:none;stroke-width:8.46667;stroke-linecap:round;stroke-linejoin:round"/><path id="path1" d="M 609.6,101.60001 A 304.80002,304.80002 0 0 0 304.8,406.4 304.80002,304.80002 0 0 0 609.6,711.2 304.80002,304.80002 0 0 0 914.4,406.4 304.80002,304.80002 0 0 0 609.6,101.60001 Z" style="fill:#fff;fill-opacity:1;stroke-width:1.00012;stroke-linecap:round;stroke-linejoin:round;stroke-miterlimit:128;paint-order:stroke fill markers"/><path id="path5" d="M 456.25794 203.20413 C 455.18561 203.29273 454.27859 204.7247 452.37911 207.19459 C 400.80844 274.25406 400.87576 373.48931 452.54344 441.73789 L 456.32615 446.73242 L 463.11075 439.05589 C 491.2732 407.20267 531.65424 384.3893 573.05236 376.90413 L 573.05236 271.77256 C 565.96056 270.30542 556.83949 268.12259 551.52344 266.46022 C 517.58462 255.84629 486.26234 235.77527 463.67661 210.17063 C 459.77639 205.74963 458.03734 203.59397 456.73078 203.24961 C 456.56746 203.20656 456.41113 203.19148 456.25794 203.20413 z M 762.94206 203.20413 C 762.78887 203.19148 762.63254 203.20656 762.46922 203.24961 C 761.16266 203.59397 759.4236 205.74963 755.52339 210.17063 C 732.93766 235.77527 701.61538 255.84629 667.67656 266.46022 C 662.36026 268.12267 653.23852 270.30543 646.14661 271.77256 L 646.14661 376.90361 C 687.54511 384.38858 727.92654 407.20239 756.08925 439.05589 L 762.87385 446.73242 L 766.65656 441.73789 C 818.32423 373.48931 818.39156 274.25406 766.82089 207.19459 C 764.92141 204.7247 764.0144 203.29273 762.94206 203.20413 z M 609.6 226.4637 C 607.63449 226.479 605.62979 226.71791 603.61484 227.34788 C 598.46983 228.95803 594.70528 232.34569 592.21812 237.59945 L 589.98673 242.31803 L 589.98673 451.88921 L 589.98673 661.46092 L 592.23827 666.226 C 595.71549 673.57222 602.64772 677.28904 609.6 677.33333 C 616.55228 677.28903 623.48451 673.57222 626.96173 666.226 L 629.21327 661.46092 L 629.21327 451.88921 L 629.21327 242.31803 L 626.98188 237.59945 C 624.49472 232.34569 620.73018 228.95803 615.58516 227.34788 C 613.57022 226.71791 611.56551 226.47898 609.6 226.4637 z" style="color:#000;fill:#000;stroke-linecap:round;stroke-linejoin:round;-inkscape-stroke:none;paint-order:stroke fill markers"/></svg>