<svg xmlns="http://www.w3.org/2000/svg" xml:space="preserve" id="svg1" width="4608" height="3072" version="1.1" viewBox="0 0 1219.2 812.8"><defs id="defs1"><style id="style1">.cls-1{fill:#0283c0}.cls-2{fill:#fff}.cls-3{fill:#ef483f}</style></defs><path id="rect1" d="M 0,0 V 812.8 H 1219.2 V 0 Z" style="fill:#fff;fill-opacity:1;fill-rule:evenodd;stroke:none;stroke-width:8.46667;stroke-linecap:round;stroke-linejoin:round"/><path id="path1" d="M 609.6 101.6 A 304.79999 304.79999 0 0 0 304.8 406.4 A 304.79999 304.79999 0 0 0 609.6 711.2 A 304.79999 304.79999 0 0 0 914.4 406.4 A 304.79999 304.79999 0 0 0 609.6 101.6 z M 609.6 135.46667 A 270.93332 270.93332 0 0 1 880.53333 406.4 A 270.93332 270.93332 0 0 1 609.6 677.33333 A 270.93332 270.93332 0 0 1 338.66667 406.4 A 270.93332 270.93332 0 0 1 609.6 135.46667 z M 485.63961 372.53333 L 476.56471 406.4 L 742.63477 406.4 L 733.56039 372.53333 L 485.63961 372.53333 z" style="display:inline;fill:#b00020;fill-opacity:1;stroke-width:.264583;stroke-linecap:round;stroke-miterlimit:128"/><path id="rect3" d="M 592.0698 203.2 L 510.3983 508 L 449.34156 508 L 440.26667 541.86667 L 536.38535 541.86667 L 609.6 268.6265 L 682.81465 541.86667 L 717.87608 541.86667 L 778.93333 541.86667 L 769.85844 508 L 708.8017 508 L 627.1302 203.2 L 592.0698 203.2 z" style="fill:#000;fill-opacity:1;stroke:none;stroke-width:33.8667;stroke-miterlimit:128;stroke-dasharray:none;stroke-opacity:1;paint-order:stroke fill markers"/></svg>