<svg xmlns="http://www.w3.org/2000/svg" xml:space="preserve" id="svg1" width="4608" height="3072" version="1.1" viewBox="0 0 1219.2 812.8"><defs id="defs1"><style id="style1">.cls-1{fill:#0283c0}.cls-2{fill:#fff}.cls-3{fill:#ef483f}</style></defs><path id="rect1" d="M 1219.2,0 V 812.8 H 0 V 0 Z" style="fill:#fff;fill-opacity:1;fill-rule:evenodd;stroke:none;stroke-width:8.46667;stroke-linecap:round;stroke-linejoin:round"/><path id="path4" d="M 541.86667 101.6 L 541.86667 169.33333 L 584.2 169.33333 L 584.2 338.66667 L 635 338.66667 L 635 169.33333 L 694.26667 169.33333 L 694.26667 135.46667 C 675.5627 135.46667 660.4 120.30397 660.4 101.6 L 541.86667 101.6 z M 508 338.66667 L 448.73333 397.93333 L 508 457.2 L 508 423.33333 L 558.8 423.33333 C 572.82802 423.33333 584.2 434.70532 584.2 448.73333 C 584.2 490.81739 618.31594 524.93333 660.4 524.93333 L 745.06667 525.709 L 745.06667 474.909 L 660.4 474.13333 C 646.37198 474.13333 635 462.76135 635 448.73333 C 635 406.64928 600.88406 372.53333 558.8 372.53333 L 508 372.53333 L 508 338.66667 z M 711.2 338.66667 L 711.2 372.53333 L 660.4 372.53333 C 647.46475 372.57737 634.87372 375.94425 623.72885 382.1405 C 635.88437 393.99663 644.83603 409.1169 649.11283 426.0572 C 652.50912 424.33687 656.32506 423.33333 660.4 423.33333 L 711.2 423.33333 L 711.2 457.2 L 770.46667 397.93333 L 711.2 338.66667 z M 570.08872 471.40844 C 566.69205 473.12924 562.87556 474.13333 558.8 474.13333 L 474.13333 474.13333 L 474.13333 524.93333 L 558.8 524.93333 C 571.75662 524.92518 584.37459 521.58068 595.54814 515.39696 C 583.35459 503.52993 574.37447 488.38328 570.08872 471.40844 z M 609.6 541.86667 L 588.58371 606.54644 L 520.57598 606.54644 L 575.59536 646.52074 L 554.5801 711.2 L 609.6 671.2257 L 664.6199 711.2 L 643.60464 646.52074 L 698.62402 606.54644 L 630.61577 606.54644 L 609.6 541.86667 z" style="fill:#b00020;stroke-width:33.8667;stroke-miterlimit:128;paint-order:stroke fill markers;fill-opacity:1"/></svg>