<svg xmlns="http://www.w3.org/2000/svg" xml:space="preserve" id="svg1" width="4608" height="3072" version="1.1" viewBox="0 0 1219.2 812.8"><defs id="defs1"><style id="style1">.cls-1{fill:#0283c0}.cls-2{fill:#fff}.cls-3{fill:#ef483f}</style></defs><path id="rect1" d="M 0 0 L 0 812.8 L 1219.2 812.8 L 1219.2 0 L 0 0 z" style="fill:#b00020;fill-rule:evenodd;stroke:none;stroke-width:8.46667;stroke-linecap:round;stroke-linejoin:round;fill-opacity:1"/><path id="path2" fill="#fff" d="m 631.08583,101.59999 a 415.30893,415.30893 0 0 1 91.61987,117.61484 c 28.87797,55.36193 45.08994,118.99484 35.64295,180.71976 -3.02999,19.79996 -8.87698,39.64494 -20.78996,55.75042 -1.46101,1.97399 -3.111,3.7875 -4.731,5.628 l -104.49885,-123.44234 66.6449,-48.42294 -42.45743,-56.46592 -55.15493,-3.942 -37.34095,28.13997 -10.80599,-12.76498 h -12.47698 l -16.74448,13.95597 v 10.83299 l 8.55149,11.68798 -57.24892,43.13544 -6.126,28.01397 44.21095,56.03092 h 22.32297 l 58.69492,-42.64494 93.47687,127.75333 a 212.97421,212.97421 0 0 1 -18.12147,5.83799 c -62.66843,17.12697 -131.65783,9.91198 -189.42575,-19.80898 l -23.52446,37.14295 c 7.03498,5.8425 14.38497,11.30999 21.98696,16.39049 l -12.38849,17.34447 -27.54895,3.71699 -67.47741,107.40283 c 5.061,14.32496 14.59647,27.03296 26.93246,35.90246 14.96399,10.76097 33.99145,15.71547 52.30493,13.61847 L 509.1375,596.5153 501.39751,563.70586 509.397,552.25487 c 13.33798,6.279 27.17546,11.50049 41.37144,15.47551 39.26995,10.99496 81.03889,12.7755 121.17583,5.57392 19.70098,-3.53542 39.22795,-9.48294 57.22193,-18.21593 l 67.1399,91.75786 a 40.448945,40.448945 0 0 0 22.75947,2.35497 40.454945,40.454945 0 0 0 20.35498,-10.45497 40.391945,40.391945 0 0 0 10.72953,-17.532 40.406945,40.406945 0 0 0 0.65092,-20.54689 l -71.10437,-83.99542 c 22.86447,-27.17546 35.11195,-62.60541 38.33995,-98.12537 3.84449,-42.34493 -4.3245,-85.34838 -20.58298,-124.63782 -16.25697,-39.28945 -40.42944,-74.9954 -68.5619,-106.88085 a 501.97282,501.97282 0 0 0 -97.80587,-85.42789 z" style="stroke-width:1"/></svg>