<svg xmlns="http://www.w3.org/2000/svg" xml:space="preserve" id="svg1" width="4608" height="3072" version="1.1" viewBox="0 0 1219.2 812.8"><defs id="defs1"><style id="style1">.cls-1{fill:#0283c0}.cls-2{fill:#fff}.cls-3{fill:#ef483f}</style></defs><path id="rect1" d="M 1219.2,812.8 V 0 H 0 v 812.8 z" style="fill:#004060;fill-opacity:1;fill-rule:evenodd;stroke:none;stroke-width:8.46667;stroke-linecap:round;stroke-linejoin:round"/><path id="path1" d="M 609.6 67.733333 L 541.86667 338.66667 L 270.93333 406.4 L 541.86667 474.13333 L 609.6 745.06667 L 677.33333 474.13333 L 948.26667 406.4 L 677.33333 338.66667 L 609.6 67.733333 z M 609.6 137.55284 L 663.36933 352.63067 L 609.6 406.4 L 878.44716 406.4 L 878.44922 406.40052 L 663.36984 460.16984 L 663.36933 460.16984 L 609.6 406.4 L 609.6 675.24612 L 609.59948 675.24819 L 555.83016 460.16984 L 609.6 406.4 L 340.75388 406.4 L 555.83016 352.63067 L 609.6 406.4 L 609.6 137.55284 z M 653.49086 173.47933 L 658.05441 191.73403 A 220.13332 220.13332 0 0 1 824.26597 357.94559 L 842.52067 362.50914 A 237.06665 237.06665 0 0 0 653.49086 173.47933 z M 565.58253 173.98215 A 237.06665 237.06665 0 0 0 377.18215 362.38357 L 395.46165 357.81382 A 220.13332 220.13332 0 0 1 561.01278 192.26165 L 565.58253 173.98215 z M 842.52067 450.29189 L 824.26597 454.85544 A 220.13332 220.13332 0 0 1 658.05441 621.06597 L 653.49086 639.32067 A 237.06665 237.06665 0 0 0 842.52067 450.29189 z M 377.18215 450.41747 A 237.06665 237.06665 0 0 0 565.58253 638.81734 L 561.01227 620.53835 A 220.13332 220.13332 0 0 1 395.46165 454.98722 L 377.18215 450.41747 z" style="fill:#e06020;stroke-width:101.6;stroke-miterlimit:128;fill-opacity:1"/></svg>