<svg xmlns="http://www.w3.org/2000/svg" xml:space="preserve" id="svg1" width="4608" height="3072" version="1.1" viewBox="0 0 1219.2 812.8"><defs id="defs1"><style id="style1">.cls-1{fill:#0283c0}.cls-2{fill:#fff}.cls-3{fill:#ef483f}</style></defs><path id="rect1" d="M 0 0 L 0 812.8 L 1219.2 812.8 L 1219.2 0 L 0 0 z" style="fill:#b00020;fill-rule:evenodd;stroke:none;stroke-width:8.46667;stroke-linecap:round;stroke-linejoin:round;fill-opacity:1"/><path id="path2" d="m 568.72296,705.95695 c -1.19167,-2.85124 -2.16585,-6.21462 -2.16585,-7.47423 0,-3.13021 -2.86671,-2.89768 -4.01585,0.32499 -1.78998,5.0217 -3.68544,6.53019 -5.89826,4.69365 -1.50768,-1.25182 -2.0437,-6.13099 -2.0437,-18.62501 0,-15.18651 -0.38442,-17.6523 -3.73684,-23.95741 -2.05532,-3.86569 -3.74708,-8.10581 -3.75965,-9.422 -0.0152,-1.83679 -0.31059,-1.94055 -1.25873,-0.44529 -0.67955,1.07167 -1.84612,1.77845 -2.59291,1.57139 -0.74669,-0.2065 -4.33885,2.40719 -7.98233,5.80798 -5.01913,4.68518 -9.00372,6.8083 -16.44198,8.76156 -5.39952,1.41782 -11.16277,3.30094 -12.80684,4.18464 -1.64367,0.88453 -9.21732,2.29439 -16.82903,3.13467 -12.67946,1.40004 -13.90955,1.30645 -14.67472,-1.10357 -1.23403,-3.89062 4.16924,-10.4964 14.78346,-18.07106 5.17205,-3.69099 10.32372,-7.81961 11.44828,-9.17474 1.12462,-1.35597 4.3834,-3.44106 7.24179,-4.63549 2.85861,-1.19353 5.95744,-3.2113 6.88626,-4.48157 0.9286,-1.26945 6.71507,-4.79963 12.85842,-7.84273 l 11.16956,-5.53263 0.45917,-7.16249 0.45913,-7.16257 -6.03406,3.80961 c -4.57704,2.88966 -8.01926,3.80939 -14.25621,3.80939 -7.57945,0 -8.29743,-0.3004 -9.18454,-3.83455 -0.73443,-2.9241 -0.0152,-4.81257 2.98578,-7.95568 l 3.94828,-4.12136 -3.76164,-2.01334 c -2.65926,-1.42307 -3.76178,-3.25376 -3.76178,-6.24555 0,-2.71883 -0.78206,-4.23195 -2.18817,-4.23195 -1.20408,0 -3.78887,-2.35566 -5.74489,-5.23461 -3.32311,-4.89084 -3.70321,-5.0626 -5.78642,-2.61604 -1.22697,1.44069 -3.69622,5.06947 -5.48904,8.06517 -3.7724,6.30353 -11.98761,10.77856 -20.02325,10.90724 -3.08037,0.051 -5.60285,0.71186 -5.60524,1.47073 -0.003,0.75924 -1.73187,-0.24032 -3.84143,-2.223 -3.22506,-3.02994 -3.6804,-4.44204 -2.85574,-8.85599 0.54041,-2.88838 1.62417,-6.03001 2.41012,-6.9815 1.00808,-1.22182 -0.1413,-2.24851 -3.90862,-3.49201 -7.03029,-2.32034 -14.23006,-8.49737 -14.23006,-12.20842 0,-3.60886 2.00733,-5.58155 9.6428,-9.47693 l 5.8605,-2.98968 -5.11993,-0.74689 c -6.97029,-1.01695 -10.4607,-7.62749 -7.11055,-13.46525 2.06321,-3.59523 1.96739,-4.27546 -1.26762,-8.99738 -2.32859,-3.39853 -3.49982,-7.24809 -3.49982,-11.50331 v -6.39533 h -9.16553 c -9.85887,0 -19.23428,-4.13678 -19.23428,-8.48679 0,-3.62507 4.75868,-10.66957 7.73309,-11.4473 4.10649,-1.07352 3.38309,-3.14856 -3.99621,-11.45795 -5.1743,-5.8266 -6.72626,-8.74952 -6.72626,-12.66805 0,-6.01608 1.02914,-6.84556 8.88094,-7.15857 l 5.92288,-0.23667 -0.84744,-6.18827 c -0.97456,-7.10668 1.32931,-12.61543 5.27506,-12.61543 1.47595,0 5.83721,1.59609 9.6917,3.54829 7.74029,3.91906 10.04404,2.88814 5.90991,-2.64437 -4.50855,-6.03365 -6.55592,-6.64273 -14.66764,-4.36448 -12.16102,3.41587 -21.40742,4.08328 -25.86885,1.86743 -8.47527,-4.20926 -13.7274,-9.01154 -13.7274,-12.55134 0,-3.36038 7.43737,-11.26807 10.59786,-11.26807 0.76973,0 0.33156,-2.52273 -0.97455,-5.60581 -2.39055,-5.64296 -3.17826,-18.42753 -1.3205,-21.43343 0.63712,-1.03293 4.04984,-1.29062 9.42757,-0.71478 7.84905,0.8404 8.61751,0.63716 11.19046,-2.96462 1.52003,-2.12711 2.52843,-3.99394 2.24209,-4.14825 -0.28557,-0.15909 -5.229,-1.84782 -10.98374,-3.76347 -10.91406,-3.63304 -20.17884,-10.69873 -20.17884,-15.38955 0,-1.43368 -0.67221,-3.02406 -1.49534,-3.53221 -2.76289,-1.70738 -1.52704,-6.63683 2.29124,-9.13888 2.86086,-1.8747 5.78011,-2.27494 11.94867,-1.63843 l 8.16285,0.84221 -5.02491,-4.74923 c -4.18055,-3.95127 -5.33336,-6.50795 -6.85938,-15.21336 -1.00984,-5.75527 -1.60299,-13.15489 -1.31884,-16.44362 0.4431,-5.12987 1.0557,-6.0423 4.32022,-6.42285 2.52742,-0.29517 6.13435,1.33655 10.74703,4.85837 3.81856,2.91592 7.62241,5.30174 8.45302,5.30174 0.82971,0 2.12751,1.10343 2.88225,2.45215 1.49526,2.67352 4.75531,1.56433 4.75531,-1.61903 0,-1.08932 2.76201,-4.47569 6.13806,-7.52593 4.44197,-4.01357 6.58959,-5.09424 7.77247,-3.91113 0.89859,0.89869 2.17268,1.63494 2.83036,1.63494 2.29503,0 1.16868,-3.15267 -2.40175,-6.72355 -2.80243,-2.80269 -4.70183,-3.43634 -8.59464,-2.8675 -5.93848,0.86691 -7.44725,-0.10631 -9.6335,-6.23601 -1.31355,-3.68174 -1.16166,-5.64759 0.75207,-9.71658 3.37179,-7.16824 8.5891,-7.55191 14.41162,-1.05928 4.33926,4.8382 4.42858,4.86399 4.91638,1.41771 0.75564,-5.33154 -4.78776,-10.21547 -12.94603,-11.40775 -11.54926,-1.6879 -28.65583,-14.58572 -28.65583,-21.60551 0,-4.78575 3.94219,-6.35391 15.32102,-6.09456 l 7.09985,0.15897 v -7.50571 c 0,-9.85968 6.0584,-24.03433 10.27268,-24.03433 1.62944,0 4.63159,2.13177 6.67046,4.73738 l 3.7072,4.73723 5.50512,-5.83768 c 5.36395,-5.68784 5.56308,-5.76142 7.75909,-2.86874 1.23932,1.63318 2.9258,4.81882 3.74732,7.07984 1.7663,4.86154 5.0812,5.37951 6.46782,1.0117 0.63562,-2.00397 -0.4482,-5.83635 -3.06693,-10.8377 -11.63594,-22.22698 -11.57365,-22.049 -10.77355,-30.79696 1.0593,-11.57794 5.19106,-19.45988 10.22695,-19.50756 5.10631,-0.0513 16.28362,14.33429 16.28362,20.95288 0,4.50422 0.90739,5.12832 5.10931,3.51567 3.38732,-1.29947 2.9232,-4.0259 -1.37171,-8.06184 -5.16902,-4.85643 -5.07865,-12.18111 0.20134,-16.335 4.62402,-3.63744 9.8901,-4.00538 12.49002,-0.87218 1.01513,1.22349 2.47569,1.83722 3.24416,1.36301 1.6119,-0.99756 0.0734,-14.08865 -1.91054,-16.21969 -3.68818,-3.96765 0.97276,-24.13801 7.11623,-30.80114 1.93686,-2.10058 3.52151,-4.58438 3.52151,-5.51999 0,-2.2827 5.7389,-1.05753 9.03884,1.92825 2.4513,2.21862 3.11931,2.08848 8.89311,-1.73205 9.15164,-6.05688 11.09997,-4.21585 11.64672,11.00503 0.29794,8.32743 -0.15908,12.6338 -1.51295,14.04346 -3.24854,3.39826 -5.84711,10.2551 -3.88624,10.2551 2.25073,0 11.69312,-7.25504 11.69312,-8.98438 0,-0.74686 1.84982,-4.47086 4.11063,-8.27526 3.15535,-5.31039 6.19419,-7.9784 13.0788,-11.48341 12.15069,-6.18593 16.20217,-7.16525 22.47495,-5.4332 7.1035,1.96157 7.80917,4.65579 3.0884,11.79019 l -3.93231,5.94242 h 6.81542 c 5.27208,0 7.65948,0.84397 10.54226,3.72713 2.99661,2.99678 3.42315,4.29459 2.17727,6.62293 -1.8283,3.41655 -9.41431,9.08324 -12.15972,9.08324 -1.05747,0 0.224,2.09786 2.84655,4.662 4.93297,4.82322 6.08815,9.86327 2.97425,12.97737 -2.86178,2.862 -30.12432,2.36465 -36.02227,-0.65693 -2.631,-1.34887 -5.12009,-2.91217 -5.53112,-3.4761 -0.41155,-0.56319 -2.91418,-2.28534 -5.56269,-3.82564 -4.60458,-2.67806 -5.05228,-2.68757 -10.23394,-0.2153 l -5.4188,2.58429 3.88144,3.05338 c 2.82076,2.21899 3.88152,4.44399 3.88152,8.14252 0,6.81036 -5.1904,10.38974 -13.2074,9.10757 -5.09255,-0.81393 -6.21464,-0.36546 -10.73849,4.30326 -3.31513,3.42064 -5.94528,4.92881 -7.65121,4.38728 -1.70538,-0.54193 -3.21416,0.32315 -4.38741,2.51612 -0.98336,1.83765 -3.04237,4.68748 -4.57527,6.33319 -2.84523,3.05412 -3.81088,8.40771 -1.51656,8.40771 0.69935,0 4.56624,-3.32545 8.59464,-7.38972 8.53707,-8.61355 22.73511,-16.52815 29.65,-16.52815 2.65806,0 8.81154,1.26774 13.67444,2.81646 4.86287,1.54844 13.07792,3.22399 18.25575,3.72187 12.69198,1.22004 19.94086,6.71821 17.44256,13.22938 -0.86503,2.25216 -6.9441,5.86669 -11.16208,6.63596 -1.234,0.22413 -5.26894,1.0734 -8.96835,1.88613 -3.69949,0.81218 -9.37723,1.50599 -12.61733,1.54314 -5.32948,0.0512 -5.6268,0.25801 -3.1202,2.09115 4.17928,3.0562 1.8669,6.58177 -7.01654,10.69788 -5.82996,2.70131 -9.403,3.4333 -13.85115,2.83775 -4.77618,-0.63937 -5.46294,-0.46432 -3.37883,0.86164 3.37337,2.14591 3.29498,3.27236 -0.53165,7.63964 -1.73186,1.9757 -3.6989,5.01744 -4.37265,6.75958 -0.89324,2.311 -3.88173,3.88638 -11.05244,5.82747 -5.40499,1.46366 -9.82735,2.93034 -9.82735,3.26015 0,0.33012 1.09282,2.71459 2.43013,5.29938 2.37747,4.59815 2.34219,4.77504 -1.63664,8.1976 -3.29739,2.83659 -3.72533,3.90845 -2.26396,5.66966 1.72486,2.07896 1.43005,8.44638 -0.69348,14.91913 -0.90573,2.75915 -0.41157,2.95074 6.39824,2.48333 6.4194,-0.4416 8.01359,0.0512 12.26103,3.85629 l 4.88233,4.36269 -5.44056,6.02259 -5.4405,6.02275 4.6724,1.3401 c 5.25056,1.50603 7.46779,5.67866 5.63401,10.60359 -1.49538,4.01437 -12.77373,11.42204 -15.15266,9.95168 -0.94102,-0.58076 -5.43843,-1.333 -9.9937,-1.67022 -4.55521,-0.33749 -10.83069,-1.49192 -13.94583,-2.56455 -5.50867,-1.89837 -5.74942,-1.83089 -8.80788,2.46462 l -3.14442,4.41625 5.03109,-0.87217 c 3.63786,-0.63056 6.0177,-0.10631 8.59375,1.92531 3.18539,2.5008 3.41877,3.4143 2.20305,8.61958 -0.89146,3.81459 -2.53101,6.33795 -4.75579,7.31731 -2.41615,1.0629 -3.1656,2.35743 -2.5971,4.48458 0.43935,1.64374 0.80853,4.29457 0.81914,5.8895 0.0152,2.47317 0.70957,2.19532 4.70265,-1.8899 2.5753,-2.63426 6.10665,-5.07287 7.84734,-5.41897 15.90195,-3.16199 23.56546,-0.9799 22.94988,6.53303 -0.43056,5.26265 -8.74738,14.76169 -14.75795,16.85706 -3.49857,1.22005 -4.03092,1.94004 -2.65766,3.59491 3.96945,4.78352 -7.20625,18.36106 -16.94278,20.58392 -2.2608,0.51557 -5.96024,1.36473 -8.22105,1.88646 -5.83299,1.34544 -7.84735,3.33612 -7.84735,7.75571 0,2.9969 0.39911,3.45457 1.7937,2.05941 0.98688,-0.98697 3.65974,-1.7939 5.94046,-1.7939 5.48976,0 9.83487,7.54866 7.40949,12.8722 -1.46884,3.22384 -3.56439,4.21942 -11.34739,5.39069 -3.64935,0.54924 -5.19229,7.1345 -3.80565,16.24229 0.96398,6.33476 1.06991,6.44832 2.59948,2.79016 0.87568,-2.09712 5.52891,-6.8044 10.33866,-10.46021 4.80974,-3.65584 9.08316,-7.09217 9.49663,-7.6363 1.59237,-2.09501 7.61933,4.78299 8.19792,9.35493 0.78383,6.19581 -2.50873,14.01787 -6.95471,16.52178 -3.39686,1.91301 -3.33086,1.98667 2.48919,2.77451 5.36814,0.72726 6.40993,0.30915 10.19817,-4.08719 5.06784,-5.88117 7.82244,-6.14334 11.77296,-1.12111 7.62109,9.68946 10.01047,16.56433 9.49547,27.32098 -0.27167,5.68693 -1.20751,11.67224 -2.07958,13.30079 -1.66307,3.10605 -1.79301,9.62989 -0.17659,8.62871 0.517,-0.31949 2.43468,0.46428 4.26067,1.74434 2.69315,1.88653 3.13589,3.21513 2.34591,7.03814 -0.53459,2.59204 -2.00132,5.51905 -3.25704,6.50457 -3.5665,2.79918 -1.14404,11.69911 4.93487,18.13571 l 5.1808,5.48519 -3.02845,-8.22185 c -3.89975,-10.58715 -3.8311,-18.19926 0.24544,-27.22016 4.05199,-8.96634 9.18058,-11.07545 13.41823,-5.51837 1.50598,1.97381 3.29805,4.28195 3.98422,5.12908 1.67545,2.06752 0.97632,18.9726 -0.93214,22.53698 -1.70185,3.18189 -2.36973,8.96296 -2.03476,17.63672 0.2137,5.55631 0.3566,5.71838 2.95879,3.36346 1.50412,-1.36126 5.15756,-2.47394 8.12031,-2.47394 4.26043,0 5.61926,0.70309 6.49865,3.36349 l 1.11222,3.36338 0.90395,-3.6491 c 0.6532,-2.63959 3.72096,-5.07533 11.08736,-8.80511 10.12231,-5.12496 10.21564,-5.14088 15.49783,-2.62177 2.92268,1.39305 6.60093,4.17055 8.17379,6.1702 l 2.85971,3.63592 5.36727,-5.21306 c 7.48138,-7.26647 10.56291,-7.34879 20.63453,-0.55076 6.88263,4.64541 9.20467,9.21777 7.46527,14.69863 -0.92862,2.927 -0.59315,3.06914 5.09656,2.15916 4.25044,-0.67961 6.09092,-0.43798 6.09092,0.79982 0,0.97641 0.67224,1.35774 1.49528,0.85101 0.82275,-0.50826 1.49535,-2.5191 1.49535,-4.46889 0,-2.48242 -0.96392,-3.68812 -3.21309,-4.0225 -4.84346,-0.72067 -8.65902,-7.03729 -7.71485,-12.77348 0.66344,-4.03789 1.59589,-4.97189 5.73068,-5.74766 7.98382,-1.49724 10.90325,0.26808 13.2967,8.04823 1.56411,5.08505 2.18404,5.96043 2.25951,3.19355 0.051,-2.09662 0.84392,-4.55237 1.74955,-5.45718 1.56769,-1.56789 0.1766,-8.56684 -3.07814,-15.39608 -0.58585,-1.23419 -1.21646,-6.6148 -1.4,-11.95901 -0.26805,-7.78683 0.44519,-11.41785 3.58818,-18.28333 2.15716,-4.71185 4.59386,-8.98211 5.41472,-9.48935 2.371,-1.46537 7.20754,3.87296 10.55164,11.64701 1.69301,3.93604 3.51775,7.15646 4.05481,7.15646 0.53683,0 0.7111,2.77941 0.38815,6.17641 -0.40938,4.28896 -0.0734,5.86082 1.08218,5.14383 2.30564,-1.42483 2.10067,-11.50808 -0.30764,-15.09836 -5.61002,-8.36523 -1.15102,-29.55963 7.62696,-36.25578 l 4.91121,-3.74635 3.68802,3.46493 c 2.02831,1.90579 3.68795,4.2745 3.68795,5.26378 0,3.67643 3.90299,5.35518 8.05374,3.46384 4.78625,-2.18098 5.04361,-5.22045 0.56312,-6.64284 -6.45241,-2.04824 -14.59528,-9.86854 -14.59528,-14.01745 0,-4.71254 6.37231,-9.04121 13.3095,-9.04121 5.5935,0 5.77531,-1.39661 0.93216,-7.1519 -6.65388,-7.90836 -8.96021,-18.59461 -4.3913,-20.34797 1.30641,-0.50166 2.9889,-0.53315 3.7367,-0.0734 0.74857,0.46284 2.09218,0.38815 2.9875,-0.15911 0.92149,-0.57051 -1.70012,-2.90628 -6.04098,-5.38592 -13.14571,-7.50852 -13.24986,-15.15402 -0.26262,-19.33737 7.91991,-2.55126 8.16261,-2.85528 5.08547,-6.3708 -1.54295,-1.76377 -4.04706,-5.89648 -5.56388,-9.18525 -1.51647,-3.28859 -3.33508,-7.15308 -4.04053,-8.58764 -0.91446,-1.85931 -0.38155,-3.5091 1.85472,-5.74571 2.50924,-2.50938 4.19962,-2.93827 8.44353,-2.14198 2.91845,0.54706 6.26671,1.95586 7.44039,3.12961 1.17405,1.17411 2.82287,2.13423 3.66503,2.13423 0.84204,0 3.44945,1.3666 5.79466,3.03651 l 4.26366,3.03628 1.76369,-3.41012 c 2.33381,-4.51137 8.96164,-10.01575 12.14099,-10.08305 2.90306,-0.0734 10.1655,8.74851 10.1655,12.33172 0,1.31364 -0.61808,2.76791 -1.37174,3.23406 -0.82265,0.50826 -0.76972,3.02621 0.1413,6.30278 1.72302,6.23887 1.24641,9.53944 -3.24239,22.48437 -2.11976,6.11258 -2.7629,10.08924 -1.88568,11.65704 1.09636,1.95875 1.75482,1.50783 3.7222,-2.55069 1.31532,-2.71157 3.1697,-7.86501 4.12162,-11.45211 1.13512,-4.27532 2.72245,-6.78145 4.60957,-7.27496 3.53119,-0.92338 3.5347,-0.68694 -0.1062,-7.48799 -1.64358,-3.06803 -2.98942,-8.19956 -2.98942,-11.40337 0,-7.07898 -4.15681,-14.19619 -10.45815,-17.9059 -4.29971,-2.53126 -4.90298,-2.56203 -7.32089,-0.37422 -8.37325,7.57835 -19.13967,-3.72574 -13.53089,-14.20664 1.51463,-2.83111 1.19867,-2.9028 -8.43084,-1.91602 -8.83103,0.90398 -10.76308,0.61078 -16.47014,-2.50731 -11.06092,-6.04269 -12.07605,-15.20696 -2.14056,-19.32271 5.39015,-2.23291 5.46345,-2.5866 1.42641,-6.88352 -3.23941,-3.44831 -6.14293,-13.07072 -4.91212,-16.27849 0.93569,-2.43752 10.96914,-5.68799 15.53785,-5.03369 3.34426,0.47826 3.58468,0.0732 3.27546,-5.46231 -0.4167,-7.44831 2.68058,-11.94715 7.37744,-10.71891 1.84451,0.48188 4.19997,0.17667 5.23436,-0.68329 2.63808,-2.18954 5.00107,-0.29664 5.00107,4.00539 0,3.41091 5.25037,11.13446 7.56913,11.13446 0.57704,0 1.39466,-1.80337 1.81697,-4.0077 0.58217,-3.04386 -0.27532,-5.04886 -3.56265,-8.33672 -2.38069,-2.3809 -4.32865,-4.81481 -4.32865,-5.40851 0,-1.96672 -9.81347,-4.66839 -17.29527,-4.76161 -9.7583,-0.12375 -20.27266,-5.18041 -26.04134,-12.52968 -6.24411,-7.95476 -5.51005,-11.46567 2.97902,-14.24962 3.6994,-1.213 6.94105,-2.32509 7.20361,-2.47061 1.58183,-0.87745 -3.96284,-6.54324 -6.44205,-6.58259 -7.44867,-0.12375 -12.72177,-11.69525 -7.64112,-16.77639 3.41827,-3.41853 2.96663,-4.57168 -1.36462,-3.48439 -3.61245,0.90571 -7.1507,3.2854 -12.76619,8.58249 -1.51301,1.42658 -5.05863,2.46933 -8.37002,2.46142 -3.16032,-0.008 -9.16945,0.46799 -13.35356,1.05578 -7.0188,0.987 -7.84194,0.77156 -10.64087,-2.78783 -2.74548,-3.49038 -3.73719,-3.77381 -10.43602,-2.98036 -10.59907,1.25536 -17.25999,-2.29925 -16.6195,-8.86923 0.30762,-3.14695 1.60126,-5.3048 3.85156,-6.42011 5.35032,-2.65178 5.40049,-3.24906 0.48551,-5.7906 -9.57634,-4.95269 -3.50716,-12.15769 13.40086,-15.90901 5.40041,-1.1988 8.94011,-2.79617 9.20242,-4.15404 0.61809,-3.20204 15.03297,-3.81862 20.70426,-0.8863 4.3066,2.22711 4.38493,2.19812 4.38493,-1.61553 0,-4.75084 3.10891,-8.09541 7.74054,-8.32685 2.58849,-0.12389 2.79659,-0.34786 0.81914,-0.86338 -1.45828,-0.37936 -5.59079,0.73274 -9.18374,2.4724 -5.19458,2.51486 -8.63242,3.05249 -16.78071,2.62413 -5.63489,-0.29513 -11.92792,-1.48304 -13.98309,-2.63989 -2.05531,-1.15647 -5.74032,-2.78943 -8.18887,-3.62901 -8.14186,-2.79156 -8.62132,-14.2327 -0.59685,-14.2327 3.61295,0 3.54391,-0.56832 -0.8562,-7.0436 -2.64302,-3.88981 -3.28319,-6.09921 -2.29949,-7.93751 2.20693,-4.12387 9.77504,-6.44283 17.88994,-5.48168 l 7.3435,0.87048 -0.87393,-7.76827 c -0.48039,-4.27231 -1.44235,-8.49593 -2.13685,-9.38561 -0.72715,-0.93047 -0.41669,-2.77728 0.73443,-4.35003 1.92307,-2.63021 2.25447,-2.60853 8.83861,0.5793 4.20503,2.03569 10.04861,7.06973 15.16607,13.06517 7.60933,8.91442 8.32535,10.37439 8.32535,16.97497 0,6.22921 0.63196,7.75392 4.59882,11.09196 7.62891,6.41983 8.39527,5.5254 9.81485,-11.45228 1.16163,-13.90343 1.56944,-15.36354 4.39713,-15.76752 2.10141,-0.30027 5.37112,1.87464 10.04088,6.67939 l 6.92466,7.12459 4.44345,-4.25754 c 4.71579,-4.51846 8.51557,-4.43988 10.04751,0.20799 0.48039,1.45661 1.80697,4.76235 2.94796,7.34431 1.60654,3.63692 1.73539,6.48515 0.56681,12.64332 -1.37529,7.25115 -6.79167,17.75633 -9.16811,17.78122 -1.59238,0.015 -4.18609,8.84646 -2.84265,9.67697 0.67958,0.42037 1.57649,-0.54416 1.99507,-2.14108 0.94279,-3.6085 7.61946,-5.43926 12.20898,-3.34792 3.79111,1.72678 5.52015,8.35526 3.56137,13.65077 -0.95504,2.58152 -0.46939,3.4676 2.52425,4.60589 4.40298,1.67376 5.02777,8.04615 1.46535,14.93668 -3.84603,7.43804 -5.68578,18.78171 -3.65996,22.56729 1.56944,2.93107 1.94022,3.03522 3.14552,0.88103 0.75207,-1.34358 1.77333,-7.00066 2.26996,-12.57162 1.44059,-16.1667 7.8216,-25.98731 21.27164,-32.74257 2.99216,-1.50248 7.61459,4.77417 7.61459,10.34049 0,7.33492 -4.46881,19.74472 -10.10709,28.06677 -9.03361,13.33365 -9.31349,14.03001 -9.12281,22.69906 0.12389,5.70479 0.80676,8.59542 2.02846,8.59542 1.4159,0 1.47948,-1.57498 0.27379,-6.84169 -1.33646,-5.84211 -1.14223,-7.64393 1.32934,-12.33258 5.10769,-9.69183 8.51958,-12.56231 12.93513,-10.88345 2.12132,0.80692 4.91648,2.97925 6.21126,4.82817 l 2.35432,3.3615 3.44938,-4.01451 c 5.584,-6.49931 12.49265,-4.42211 15.23594,4.58077 1.16875,3.83744 2.57829,4.14204 6.91364,1.49541 4.43682,-2.70923 7.60945,1.77394 5.77717,8.16355 -0.7235,2.52708 -0.99571,5.11541 -0.60196,5.75173 0.39399,0.63572 -0.051,4.74498 -0.97628,9.13002 -1.29757,6.11937 -3.05311,9.27639 -7.54752,13.57874 -3.22089,3.0831 -5.15512,5.60572 -4.29834,5.60572 3.41137,0 7.53663,6.10484 7.53663,11.1532 0,6.3038 -4.73488,11.26974 -10.74508,11.26974 h -4.20247 l 3.08685,3.08711 c 2.41862,2.41882 2.86051,4.11768 2.04111,7.84785 -0.57556,2.61849 -2.23832,5.59652 -3.69641,6.61793 -2.45377,1.71969 -2.27213,2.23557 2.44303,6.95111 2.80152,2.8018 5.09373,6.12058 5.09373,7.37498 0,1.89948 1.54653,1.67384 9.25172,-1.34534 5.08852,-1.9944 9.71534,-3.62616 10.28184,-3.62616 1.21819,0 4.08082,6.95518 4.61416,11.21149 0.55581,4.43636 -1.53418,11.22627 -4.91749,15.97849 l -2.99178,4.2021 h 4.30031 c 2.36521,0 5.4681,0.85452 6.89564,1.89798 2.39777,1.75321 2.41895,2.32015 0.27683,7.44527 -4.86134,11.63577 -18.23405,20.55393 -30.82029,20.55393 -6.22631,0 -9.02349,0.70454 -10.8601,2.73385 -3.46819,3.83255 -3.19891,4.13853 3.13142,3.5592 6.78624,-0.62175 10.0899,3.34246 8.56685,10.27765 -0.95157,4.33223 -2.54678,5.21417 -11.18256,6.18109 -2.5235,0.28257 -3.88638,1.46721 -4.19725,3.65041 l -0.46062,3.23183 8.68147,-3.57014 c 11.33866,-4.66271 23.74821,-4.98444 25.12344,-0.65181 1.32579,4.17509 -0.31574,8.78254 -5.4636,15.335 -4.90862,6.24877 -4.69112,7.77334 1.32407,9.28326 7.38403,1.85329 8.17691,5.90572 2.48046,12.67619 -7.95084,9.44992 -24.20369,13.20287 -35.93949,8.29896 -6.66612,-2.78556 -10.11907,-2.8386 -12.31776,-0.18868 -1.33642,1.61024 -0.87215,2.59842 2.15632,4.58274 3.19807,2.0956 3.69483,3.28187 2.89662,6.91597 -0.60192,2.73794 -0.35659,4.3864 0.64957,4.3864 0.88799,0 1.61365,-0.67232 1.61365,-1.4954 0,-0.8228 1.84973,-1.51841 4.11057,-1.54494 2.26085,-0.0369 6.80095,-1.3506 10.08941,-2.93897 10.30565,-4.97839 12.04553,-3.49528 8.76834,7.47419 -1.1052,3.69987 -2.01699,6.89517 -2.02599,7.10076 -0.006,0.20499 1.89846,0.37422 4.23843,0.37422 6.33876,0 13.68221,4.15464 13.68221,7.74075 0,1.67022 -1.98503,5.97844 -4.41111,9.57346 -3.85457,5.71203 -4.13727,6.81006 -2.24208,8.70562 3.62533,3.62541 2.46384,7.78161 -3.43625,12.29554 -5.08492,3.89024 -6.56907,4.25455 -15.99119,3.92486 -9.63607,-0.33748 -18.60635,-2.73665 -27.72955,-7.4176 -4.9912,-2.56076 -5.97894,-2.434 -5.97894,0.76807 0,1.48659 -0.98691,4.00981 -2.19462,5.60573 -4.33638,5.73371 -2.98852,7.13257 5.86881,6.09158 18.35441,-2.15756 27.3879,11.6719 12.61488,19.31217 -4.35178,2.25056 -4.76582,2.18647 -9.57159,-1.47957 -4.97628,-3.79578 -12.69649,-5.21679 -12.69649,-2.33692 0,0.82274 0.90388,1.4954 2.01047,1.4954 6.39284,0 9.28403,12.38013 4.00664,17.15638 -2.43732,2.20597 -3.67382,2.3839 -7.10004,1.02229 -2.28175,-0.90754 -5.49376,-1.50073 -7.13792,-1.31887 -1.72127,0.1902 -2.83085,-0.46288 -2.61583,-1.53786 0.61072,-3.05426 -4.52211,-2.13297 -10.41051,1.8687 -3.02455,2.05533 -6.9512,3.73707 -8.72581,3.73707 -1.77477,0 -5.22518,1.68084 -7.66784,3.73717 -5.31845,4.47578 -2.88201,4.76388 6.04122,0.71478 3.58356,-1.62612 9.05549,-2.95683 12.15985,-2.95683 13.7562,0 32.89235,10.04385 32.89235,17.26386 0,4.71183 -3.45227,6.33652 -15.85054,7.4598 -14.46619,1.31006 -14.54979,1.37893 -8.73834,7.19105 5.72355,5.72398 6.47245,9.36091 2.54168,12.34497 -6.97238,5.29322 -29.7998,-0.57418 -35.67572,-9.16973 -5.20867,-7.61992 -10.78341,-12.667 -13.991,-12.667 -4.38322,0 -16.76131,5.8015 -15.77692,7.39439 0.43942,0.71188 2.18842,0.93048 3.88592,0.48701 3.61707,-0.94636 10.01441,2.12737 11.94751,5.73946 1.96668,3.67532 -1.03629,10.99358 -5.48974,13.37704 -4.51866,2.41855 -7.4251,1.01704 -11.78922,-5.6871 -1.64358,-2.52564 -4.67088,-4.93097 -6.72626,-5.3451 -4.49937,-0.90576 -5.65391,-0.0888 -3.26342,2.29647 0.97278,0.97282 1.76883,3.36045 1.76883,5.30541 0,6.94443 6.72328,15.19585 12.43832,15.26556 2.94135,0.0369 9.55747,5.95163 32.63827,29.18298 16.35384,16.46079 20.0683,21.70083 17.32645,24.44298 -2.89971,2.8998 -10.83439,1.92627 -22.5553,-2.7674 -6.15922,-2.46653 -12.09544,-4.49572 -13.19176,-4.50932 -1.09628,-0.0152 -6.3398,-4.37917 -11.65237,-9.7012 -8.48391,-8.4988 -19.45158,-15.68665 -23.93564,-15.68665 -0.81915,0 -2.50725,2.43261 -3.74935,5.40573 -1.82475,4.36728 -1.99193,7.74189 -0.87032,17.5647 0.76261,6.68733 1.84551,13.3443 2.40537,14.79314 0.55945,1.44951 0.56458,5.65322 0.0152,9.34292 -1.22346,8.16266 -5.37575,9.27567 -8.29647,2.22389 -2.41332,-5.8269 -4.17786,-5.69308 -4.76313,0.3618 -0.7362,7.62206 -4.82669,7.09885 -10.15161,-1.29773 -4.33938,-6.84321 -4.51695,-7.7867 -4.51695,-24.01721 0,-15.66554 0.3268,-17.58454 4.48416,-26.38596 2.46635,-5.22028 4.48417,-9.90054 4.48417,-10.40014 0,-0.49946 -2.35998,-1.35069 -5.24449,-1.89276 -2.88442,-0.54191 -6.97236,-2.34326 -9.08442,-4.00471 l -3.8398,-3.02068 -4.47692,5.43182 c -5.57732,6.76679 -12.04318,7.34836 -18.60052,1.67203 -2.3886,-2.06731 -5.01552,-3.55169 -5.83779,-3.29851 -0.82264,0.25237 -4.7468,1.3666 -8.72186,2.47357 -3.97501,1.10707 -7.57506,2.91946 -8.00002,4.02734 -0.42546,1.10697 1.60653,6.6107 4.51278,12.22873 4.88176,9.43412 5.17203,10.72053 3.79854,16.83401 -0.81742,3.64066 -1.35058,9.6473 -1.18289,13.34802 0.17629,3.7008 -0.2101,11.43766 -0.83857,17.19269 -1.63304,14.96381 -5.13685,18.44541 -9.07592,9.01716 z m 5.09972,-135.40776 c -3.50056,-4.15193 -6.51699,-8.58602 -6.70311,-9.85354 -0.18505,-1.26761 -0.79093,-2.74725 -1.34344,-3.28851 -1.49185,-1.46196 -0.30398,7.67686 1.28168,9.85349 0.74855,1.02761 0.8933,1.86852 0.32274,1.86852 -0.57045,0 -0.0369,1.00994 1.20569,2.24226 1.23413,1.23415 2.88053,2.24238 3.66065,2.24238 0.78036,0 2.25587,1.00808 3.27933,2.24225 1.02396,1.23412 2.49096,2.2423 3.2614,2.2423 0.76978,0 -1.46354,-3.39702 -4.96416,-7.54915 z m 204.9635,-213.03552 c -1.09105,-4.5506 -1.56773,-12.05078 -1.1175,-17.6417 0.6781,-8.4388 1.52001,-10.62865 6.37211,-16.55006 6.89261,-8.41193 5.09639,-8.89939 -3.18198,-0.86337 -5.03451,4.88677 -6.28492,7.23929 -6.94062,13.0567 -1.10869,9.83271 0.23515,22.58706 3.03621,28.81817 3.17559,7.06573 4.2259,3.15758 1.83252,-6.81957 z m -301.9553,-72.78171 c 0.86336,-1.02759 2.93698,-3.69362 4.60781,-5.92397 1.81419,-2.42166 5.09802,-4.4418 8.15154,-5.01474 2.81245,-0.52799 5.82818,-1.82052 6.70168,-2.87313 2.42426,-2.92132 -5.59324,-4.5328 -8.75737,-1.76031 -1.3417,1.1759 -3.936,2.59368 -5.76428,3.15072 -3.7498,1.14228 -9.38098,8.28816 -9.38098,11.90423 0,2.8511 2.25946,3.11403 4.4416,0.51705 z" style="fill:#000;stroke-width:.495152"/></svg>
