<svg xmlns="http://www.w3.org/2000/svg" xml:space="preserve" id="svg1" width="4608" height="3072" version="1.1" viewBox="0 0 1219.2 812.8"><defs id="defs1"><style id="style1">.cls-1{fill:#0283c0}.cls-2{fill:#fff}.cls-3{fill:#ef483f}</style></defs><path id="rect1" d="M 0 0 L 0 812.8 L 1219.2 812.8 L 1219.2 0 L 0 0 z" style="fill:#000;fill-rule:evenodd;stroke:none;stroke-width:8.46667;stroke-linecap:round;stroke-linejoin:round;fill-opacity:1"/><path id="path1" d="M 589.86262,101.7134 C 524.94728,100.24469 461.47296,113.16843 409.36141,133.0789 826.34345,69.655405 920.94114,392.72783 809.70833,552.43983 724.7167,462.66722 609.83539,343.53168 561.6568,301.56375 l 82.2477,-82.48705 -27.18452,-25.34933 -107.72464,-7.43643 -154.10666,143.9334 86.66005,85.90207 74.14895,-68.96261 c 67.97925,70.68741 168.41294,175.80692 244.21365,255.48797 -69.71404,48.67287 -175.86415,53.49596 -308.83567,-31.24583 l 7.66786,-11.66531 -33.92677,-30.34417 -10.47642,9.11203 -21.23217,-18.87035 -25.53285,23.25081 16.99531,21.2242 c -21.16161,17.81842 -75.88278,65.42278 -83.55624,76.53468 -32.71601,40.83881 28.91985,93.39067 59.39576,59.89844 11.9698,-9.46414 44.20025,-59.86675 65.62741,-91.06449 54.61968,57.4386 129.02312,97.54219 229.12533,95.72425 15.60894,-0.28474 84.03764,-3.12039 152.46295,-52.36625 26.55751,28.02422 45.90638,48.56276 50.44329,53.69073 17.09004,19.32325 69.55587,-26.35932 52.07112,-46.53357 -4.36207,-5.03124 -23.45602,-25.69422 -50.76253,-54.83977 11.57496,-13.54997 22.7218,-28.92932 33.13682,-46.40591 61.33309,-102.94143 43.69129,-257.5308 -66.20184,-364.2579 -67.1385,-65.21202 -152.98742,-90.89161 -236.45007,-92.77996 z" style="fill:#d00000;fill-opacity:1;stroke-width:.264583"/></svg>