<svg xmlns="http://www.w3.org/2000/svg" xml:space="preserve" id="svg1" width="4608" height="3072" version="1.1" viewBox="0 0 1219.2 812.8"><defs id="defs1"><style id="style1">.cls-1{fill:#0283c0}.cls-2{fill:#fff}.cls-3{fill:#ef483f}</style></defs><path id="rect1" d="M 0 0 L 0 812.8 L 1219.2 812.8 L 1219.2 0 L 0 0 z" style="fill:#b00020;fill-rule:evenodd;stroke:none;stroke-width:8.46667;stroke-linecap:round;stroke-linejoin:round;fill-opacity:1"/><path id="path2" d="M 609.59999,101.59999 A 304.79998,304.79998 0 0 0 304.79998,406.4 304.79998,304.79998 0 0 0 609.59999,711.20001 304.79998,304.79998 0 0 0 914.40002,406.4 304.79998,304.79998 0 0 0 609.59999,101.59999 Z" style="fill:#fff;fill-opacity:1;stroke:none;stroke-width:1.00012;stroke-miterlimit:128"/><path id="path1" d="m 596.44175,186.34227 c -43.2769,-0.97914 -85.59311,7.63668 -120.33414,20.91033 277.98804,-42.28233 341.05316,173.09928 266.89795,279.57396 -56.6611,-59.84842 -133.24864,-139.2721 -165.36769,-167.25073 l 54.8318,-54.99137 -18.12301,-16.89955 -71.81642,-4.95762 -102.73779,95.9556 57.77338,57.26805 49.43263,-45.97508 c 45.3195,47.12495 112.27529,117.20463 162.8091,170.32533 -46.47602,32.44857 -117.24277,35.66396 -205.89044,-20.83056 l 5.1119,-7.77687 -22.61785,-20.22945 -6.98429,6.07469 -14.15478,-12.58025 -17.02188,15.50055 11.33018,14.14947 c -14.10772,11.87895 -50.5885,43.61519 -55.70414,51.02312 -21.81067,27.22587 19.2799,62.26044 39.59718,39.93229 7.97986,-6.30943 29.46683,-39.91117 43.75159,-60.70965 36.41313,38.29239 86.01543,65.02812 152.75022,63.81615 10.40597,-0.18982 56.0251,-2.08026 101.64198,-34.91083 17.70499,18.68281 30.60425,32.37517 33.62886,35.79382 11.39334,12.88217 46.37058,-17.57287 34.71408,-31.02238 -2.90804,-3.35415 -15.63734,-17.12948 -33.84169,-36.55985 7.71665,-9.0333 15.14785,-19.2862 22.09121,-30.93726 40.88871,-68.62762 29.12754,-171.68721 -44.13456,-242.83861 -44.75899,-43.47468 -101.9916,-60.59441 -157.63338,-61.8533 z" style="fill:#000;fill-opacity:1;stroke:none;stroke-width:.264583"/></svg>