<svg xmlns="http://www.w3.org/2000/svg" xml:space="preserve" id="svg1" width="4608" height="3072" version="1.1" viewBox="0 0 1219.2 812.8"><defs id="defs1"><style id="style1">.cls-1{fill:#0283c0}.cls-2{fill:#fff}.cls-3{fill:#ef483f}</style></defs><path id="rect1" d="M 0 0 L 0 812.8 L 1219.2 812.8 L 1219.2 0 L 0 0 z" style="fill:#000;fill-rule:evenodd;stroke:none;stroke-width:8.46667;stroke-linecap:round;stroke-linejoin:round;fill-opacity:1"/><path id="path2" fill="#e00000" d="m 399.31824,101.60001 c -28.49398,22.473 83.745,150.888 83.745,150.888 L 367.00075,189.70702 c -11.466,31.39049 107.376,104.87248 107.376,104.87248 l -131.69999,-22.473 c -11.81401,33.53101 137.26049,63.495 137.26049,63.495 l -97.995,32.81701 c 7.299,28.179 113.979,0.35699 113.979,0.35699 l -81.66,56.71651 c 9.0345,27.10949 112.239,-33.53101 112.239,-33.53101 l -54.324,70.53901 c 23.835,16.39499 83.79,-56.49901 83.79,-56.49901 l -36.12001,74.1555 c 16.953,12.612 71.99401,-65.832 71.99401,-65.832 l 15.62699,60.75 c -87.91499,-41.022 -49.41299,55.0245 -49.41299,55.0245 0,0 -81.4545,48.3015 -77.154,41.4915 4.299,-6.81 -2.58001,-9.711 -2.58001,-9.711 0,0 -0.945,-1.308 -8.69999,1.419 l -2.358,-5.202 21.37649,-4.5405 -10.56449,-19.674 -15.51301,11.82 -157.76098,-278.23199 138.62698,289.11299 -18.67349,8.8275 8.84549,16.395 18.91951,-14.8815 1.932,3.108 c -17.4525,9.648 0.1575,19.215 0.1575,19.215 -6.2655,8.8275 7.986,15.765 7.986,15.765 -3.441,8.574 11.79299,10.0875 11.79299,10.0875 0,0 2.835,-2.079 5.5575,-4.05 l 7.22101,11.6175 2.21099,11.8545 13.26751,5.55 1.476,-13.62 -9.09151,-7.0635 -6.47699,-14.295 c 1.596,-1.041 3.099,-1.98 4.2645,-2.604 5.652,-3.027 -2.21101,-11.856 -2.21101,-11.856 l 0.98251,-5.547 76.52549,-43.575 19.30351,0.4425 c -37.989,-60.66599 32.049,-42.01799 27.69449,-35.49 19.1115,52.437 -21.8925,74.196 -21.8925,74.196 l 20.49,1.65 c 0,0 0.4905,27.495 -21.17999,41.283 l 21.17999,1.5675 c 0,0 0.4905,27.4935 -21.87,41.3655 l 19.413,-4.2585 16.95301,48.933 16.95449,-48.933 19.4115,4.2585 c -22.3605,-13.872 -21.8685,-41.3655 -21.8685,-41.3655 l 21.18,-1.5675 c -21.6705,-13.788 -21.18,-41.2815 -21.18,-41.2815 l 20.49001,-1.65 c 0,0 -41.00551,-21.7605 -21.8925,-74.19599 -4.35451,-6.5295 65.68349,-25.17751 27.69449,35.48999 l 19.305,-0.444 76.524,43.575 0.981,5.547 c 0,0 -7.8615,8.829 -2.211,11.856 0.9075,0.486 2.0325,1.1745 3.225,1.932 -6.318,8.8395 -11.085,16.3605 -11.901,19.9155 -2.7795,12.1275 12.1635,10.701 12.1635,10.701 l 14.8635,-19.995 0.078,0.057 c 0,0 15.23399,-1.51349 11.7945,-10.089 0,0 14.25,-6.93599 7.986,-15.76499 0,0 9.2205,-4.9875 7.7895,-11.391 l 17.95049,-24.147 c 0,0 -30.57749,-18.192 -34.40099,-40.665 -3.822,-22.473 9.73049,-49.2255 47.259,-52.7925 37.53,-3.567 54.55499,44.589 54.55499,44.589 0,0 -2.7795,-56.361 -60.1155,-58.857 -57.33599,-2.4975 -69.498,57.072 -65.67599,69.915 3.82349,12.84 2.43299,16.764 23.283,41.37748 l 13.89899,-3.20998 c 0,0 -4.41599,5.27999 -10.61699,12.92999 -16.10401,-7.33051 -17.63851,-5.115 -17.63851,-5.115 0,0 -6.87899,2.90099 -2.57999,9.711 4.3005,6.81 -77.154,-41.4915 -77.154,-41.4915 0,0 38.5035,-96.04499 -49.413,-55.02449 l 15.627,-60.75 c 0,0 55.041,78.44399 71.99399,65.832 l -36.11999,-74.1555 c 0,0 59.955,72.894 83.79,56.499 l -54.324,-70.539 c 0,0 103.2045,60.6405 112.23899,33.531 l -81.65999,-56.7165 c 0,0 106.67999,27.822 113.97749,-0.357 L 776.47224,335.6015 c 0,0 149.07599,-29.96399 137.2605,-63.495 l -131.70001,22.473 c 0,0 118.84351,-73.482 107.376,-104.87249 l -116.06249,62.781 c 0,0 112.24049,-128.41501 83.745,-150.88801 l -119.19,125.562 c 0,0 2.085,-18.90599 -5.211,-19.263 0,0 -5.7075,17.2515 -50.427,60.13049 0,0 -24.5715,38.844 13.023,44.89801 0,0 -18.675,65.328 -55.28699,-5.2965 l 15.72599,3.15299 -10.197,-32.66399 12.654,4.03499 -10.6875,-29.259 13.635,4.29001 -5.4045,-12.8655 -1.3515,-1.63951 c 0,0 0.492,-26.86199 -5.03699,-31.02449 0,0 21.501,6.30601 21.00899,-6.936 l -10.935,-0.756 -27.15,-18.54 c 0,0 -14.25299,-6.55799 -21.13349,4.1625 0,0 -20.39251,0.126 -14.742,23.20501 0,0 11.17949,-10.341 23.71199,-2.14501 12.53101,8.199 15.234,28.755 15.234,28.755 0,0 -17.44499,-17.4015 -25.431,-11.72851 0,0 27.618,18.81301 6.51001,79.95751 -36.61051,70.62451 -55.28551,5.2965 -55.28551,5.2965 37.5945,-6.05401 13.023,-44.89801 13.023,-44.89801 -44.7195,-42.87899 -50.427,-60.13049 -50.427,-60.13049 -7.29749,0.35701 -5.21249,19.263 -5.21249,19.263 z m 220.28701,88.932 6.39,2.58601 c 0,0 -5.10001,4.72799 0.7965,6.87299 5.89799,2.14501 6.696,-3.216 6.696,-3.216 l 10.44299,7.3785 0.49201,0.882 -0.738,1.4505 -7.24801,-3.21599 c 0,0 -21.807,7.37849 -16.83149,-12.73801 z m -46.071,10.404 -1.5975,3.7845 c 0,0 13.8825,31.4025 27.2745,20.43 13.39049,-10.971 29.48549,1.7655 29.48549,1.7655 0,0 -3.195,-15.7635 -26.9055,-10.215 -23.71199,5.55001 -28.25699,-15.765 -28.25699,-15.765 z" style="fill:#b00020;fill-opacity:1;stroke-width:1"/></svg>