<svg xmlns="http://www.w3.org/2000/svg" xml:space="preserve" id="svg1" width="4608" height="3072" version="1.1" viewBox="0 0 1219.2 812.8"><defs id="defs1"><style id="style1">.cls-1{fill:#0283c0}.cls-2{fill:#fff}.cls-3{fill:#ef483f}</style></defs><path id="rect1" d="M 0 0 L 0 812.8 L 1219.2 812.8 L 1219.2 0 L 0 0 z" style="fill:#b00020;fill-rule:evenodd;stroke:none;stroke-width:8.46667;stroke-linecap:round;stroke-linejoin:round;fill-opacity:1"/><path id="path3" d="M 2304 384 A 1152 1152 0 0 0 1152 1536 A 1152 1152 0 0 0 2304 2688 A 1152 1152 0 0 0 3456 1536 A 1152 1152 0 0 0 2304 384 z" style="fill:#fff;stroke-width:512;stroke-miterlimit:128;paint-order:stroke fill markers;fill-opacity:1" transform="scale(0.26458333)"/><path id="path8" d="M 609.6 169.33333 L 515.01404 263.91929 L 515.01353 263.91877 L 467.11929 311.81353 L 561.70577 406.4 L 515.01404 453.09172 L 420.42808 358.50525 L 372.53333 406.4 L 467.11929 500.98647 L 515.01353 548.88071 L 562.90828 500.98647 L 609.6 454.29423 L 656.29121 500.98544 L 561.70577 595.57192 L 609.6 643.46615 L 752.08019 500.98544 L 657.49475 406.4 L 704.18596 359.70879 L 798.77192 454.29423 L 846.66667 406.39948 L 704.18544 263.91981 L 656.29121 311.81456 L 609.6 358.50525 L 562.90828 311.81353 L 657.49475 217.22808 L 609.6 169.33333 z" style="color:#000;fill:#000;stroke-miterlimit:128;-inkscape-stroke:none;paint-order:stroke fill markers;stroke:none;fill-opacity:1"/></svg>