<svg xmlns="http://www.w3.org/2000/svg" xml:space="preserve" id="svg1" width="4608" height="3072" version="1.1" viewBox="0 0 1219.2 812.8"><defs id="defs1"><style id="style1">.cls-1{fill:#0283c0}.cls-2{fill:#fff}.cls-3{fill:#ef483f}</style></defs><path id="rect1" d="M 0 0 L 0 812.8 L 1219.2 812.8 L 1219.2 0 L 0 0 z" style="fill:#000;fill-rule:evenodd;stroke:none;stroke-width:8.46667;stroke-linecap:round;stroke-linejoin:round;fill-opacity:1"/><path id="path10" d="m 739.22723,284.87977 c -8.79193,2.44685 -13.83762,14.50514 -7.44709,21.85551 4.46014,5.24984 11.30085,8.38099 18.1808,8.36797 3.13019,0.90584 9.08559,1.5725 3.37086,-1.95027 -6.58049,-4.67667 -15.57278,-9.98591 -15.26316,-19.20451 -0.43476,-2.78988 4.52232,-7.21157 1.15859,-9.0687 z m 59.45994,28.04066 -7.39387,0.0424 c 8.63117,3.03232 18.45842,5.42893 23.55257,13.82448 5.73483,8.5251 9.07652,19.01718 17.62683,25.36331 5.42343,7.13325 -7.12845,0.84816 -9.09557,-1.68775 -7.64431,-5.38378 -13.23118,-12.8981 -18.91202,-20.16983 -7.63361,-9.45939 -20.80116,-8.44446 -31.72003,-8.5261 -11.64468,-0.26217 -23.60017,1.57878 -35.01492,-1.3255 -4.28864,-1.62548 -8.1339,-4.18259 -12.17703,-6.31692 2.60163,6.68207 5.5761,14.47062 13.20229,16.63877 12.98358,4.25444 27.03645,1.53042 40.13244,4.92322 10.96174,5.04475 17.9029,15.67499 27.48514,22.6813 13.81873,10.57853 31.75593,11.81347 48.45699,13.01471 6.05597,1.06295 -6.28924,2.16076 -8.24032,2.389 -13.04255,0.4847 -26.78706,0.14816 -38.89582,-5.23586 -14.67868,-6.68871 -27.50061,-19.0415 -44.48049,-19.36832 -15.65193,-0.69129 -31.28518,0.92826 -46.91858,1.53169 -4.65388,-4.16713 -9.30719,-8.33472 -13.96039,-12.5026 2.60958,7.29787 6.08393,14.85024 13.40332,18.526 10.93906,6.39616 23.91681,6.54613 36.1859,7.07141 18.87996,2.92046 35.85996,12.62092 54.5853,16.25947 20.95301,5.04981 43.19116,5.34953 63.92168,-0.93483 3.3915,-0.81809 9.80946,-2.577 10.16476,-6.24355 0.14174,0.14698 0.26367,0.24333 0.33486,0.21756 0.80544,-0.2915 34.07181,-49.9217 29.25713,-50.40002 -4.81459,-0.47832 -32.77896,34.88945 -34.35811,36.92953 -6.80738,-3.42388 -14.89641,2.68221 -21.53926,-1.94562 -7.77154,-5.99207 -8.63805,-16.82103 -14.79496,-24.12721 -9.22811,-13.03283 -24.84354,-20.91057 -40.80784,-20.62872 z" style="display:inline;fill:silver;fill-opacity:1;fill-rule:evenodd;stroke:none;stroke-width:.264583;stroke-miterlimit:4;stroke-dasharray:none"/><path id="rect2" d="M 0 0 L 0 812.8 L 406.4 812.8 L 406.4 0 L 0 0 z M 953.20383 336.48592 C 941.78387 338.15999 932.8756 338.6319 920.15882 336.94532 C 914.70231 344.82679 902.06383 337.36211 893.75372 338.29563 C 879.04606 332.92164 870.03136 343.26901 884.48141 352.5883 C 891.28098 363.35886 918.80259 364.24108 913.95403 374.82777 C 899.83118 388.12294 885.4469 396.45572 867.99095 403.03741 C 841.556 394.33834 814.04216 386.30404 786.00422 388.03523 C 757.91447 383.50627 726.45309 388.44933 705.29752 408.68617 C 681.14142 422.79271 647.85457 435.48984 622.30362 417.7807 C 604.4336 403.51703 601.82268 373.3901 620.49546 358.5931 C 635.13991 344.54002 665.67409 345.98535 674.01622 366.14148 C 682.61533 383.43266 653.41328 385.39282 653.90221 390.86296 C 671.69694 396.16508 689.76056 374.43534 678.79888 358.31353 C 659.95179 328.0726 607.8383 339.22484 599.51483 372.80153 C 589.48951 401.21277 611.09543 434.9975 641.25181 437.48596 C 661.10195 440.43984 682.40991 436.52523 699.04157 425.01643 C 685.23449 442.59727 668.99771 459.32309 645.39058 460.29232 C 620.53822 465.21307 625.91932 421.96573 602.32189 439.17474 C 584.96694 449.196 567.62884 459.04815 547.91333 459.4133 C 526.66172 479.31182 567.62103 478.39116 575.75142 464.96697 C 593.60633 445.93339 617.48898 456.50255 634.5406 470.17957 C 643.73557 473.9898 653.40823 477.30986 637.55282 478.76096 C 617.25445 487.444 609.53526 448.74094 593.60563 472.43576 C 580.59328 487.70245 567.54332 502.80797 549.07553 509.77767 C 535.68047 535.66854 573.99115 521.03125 577.16219 505.66371 C 586.82505 483.96684 610.86717 482.23778 630.34447 490.37007 C 650.22681 494.32959 671.40677 494.36414 691.15781 490.07655 C 711.18358 480.62102 733.51156 475.75224 751.73809 462.34542 C 762.0492 454.55764 773.17422 445.55231 782.28507 442.9802 C 789.5711 424.84889 810.19499 451.31737 817.81106 460.76361 C 839.91605 486.76316 873.17975 510.82388 909.05407 500.64954 C 925.44232 492.54228 943.37107 500.34493 960.80182 496.97483 C 984.60007 494.65778 1009.5101 487.17502 1032.9525 495.16616 C 1045.7853 501.62406 1055.7458 540.89064 1071.3222 523.52618 C 1054.6733 512.55785 1049.0604 487.37614 1029.1759 481.47862 C 1007.3421 478.6648 985.27433 476.67116 963.22751 475.49087 C 988.52354 473.55015 1013.628 465.09687 1039.0234 467.59316 C 1054.9333 470.27045 1068.6369 499.01844 1083.7333 483.93997 C 1067.115 476.28787 1051.7162 458.68743 1032.7907 454.54848 C 1007.7056 455.08006 982.66488 451.58559 957.57514 452.91551 C 942.44006 444.74914 955.50887 427.08757 952.02871 413.85536 C 962.34915 397.46931 968.54936 371.79329 960.04218 358.33472 C 967.84136 360.56995 999.51156 380.93192 982.14419 361.11491 C 977.92237 351.82427 949.62259 339.12892 974.25113 349.79467 C 985.9386 349.07172 958.97787 336.95182 953.20383 336.48592 z" style="display:inline;fill:#800020;fill-opacity:1;stroke-width:1.00012;stroke-linecap:round;stroke-linejoin:round;stroke-miterlimit:128"/></svg>