<svg xmlns="http://www.w3.org/2000/svg" xml:space="preserve" id="svg1" width="4608" height="3072" version="1.1" viewBox="0 0 1219.2 812.8"><defs id="defs1"><style id="style1">.cls-1{fill:#0283c0}.cls-2{fill:#fff}.cls-3{fill:#ef483f}</style></defs><path id="rect1" d="M 0 0 L 0 812.8 L 1219.2 812.8 L 1219.2 0 L 0 0 z" style="fill:#000;fill-rule:evenodd;stroke:none;stroke-width:8.46667;stroke-linecap:round;stroke-linejoin:round;fill-opacity:1"/><path id="path2" d="M 609.6 101.6 C 441.26376 101.59996 304.79994 238.06376 304.8 406.4 C 304.79996 574.73623 441.26377 711.20004 609.6 711.2 C 777.93624 711.20006 914.40004 574.73624 914.4 406.4 C 914.40006 238.06374 777.93626 101.59994 609.6 101.6 z M 609.6 135.46667 L 663.5688 317.02871 L 634.02435 317.02871 L 693.23469 446.66989 L 665.10669 322.46249 L 716.41519 322.54517 L 747.97502 385.32325 L 753.79068 322.45835 L 853.15619 322.68728 L 814.95387 354.10862 L 837.98141 456.90803 L 804.13128 454.67457 L 786.5401 378.60841 L 780.72289 456.48687 L 749.79558 456.48687 L 715.02509 385.84983 L 729.16169 456.48687 L 707.65345 456.48687 L 707.65345 464.62745 L 752.43728 617.9013 L 607.72725 507.30547 L 463.39704 619.125 L 507.67134 469.16774 L 507.80776 456.94937 L 485.38329 454.67922 L 456.08379 391.28723 L 443.82562 456.49152 L 406.34832 456.49152 L 426.25564 365.99006 L 369.49786 322.24286 L 463.75929 324.2753 L 488.24048 384.04219 L 505.05238 322.46145 L 549.31479 322.46145 L 539.22497 365.93219 L 565.9453 365.93219 L 584.93949 317.02923 L 554.29175 317.02923 L 609.6 135.46667 z M 612.43755 354.18045 L 592.20158 394.90923 L 630.5181 394.90923 L 612.43755 354.18045 z M 532.48119 394.90768 L 517.8516 456.48842 L 523.798 456.48842 L 549.87755 402.03386 L 549.87755 394.90768 L 532.48119 394.90768 z M 578.07118 427.51447 L 563.7568 456.49152 L 658.56807 456.49152 L 646.74967 427.51447 L 578.07118 427.51447 z" style="display:inline;fill:#fff;fill-opacity:1;stroke:none;stroke-width:1"/></svg>