<svg xmlns="http://www.w3.org/2000/svg" xml:space="preserve" id="svg1" width="4608" height="3072" version="1.1" viewBox="0 0 1219.2 812.8"><defs id="defs1"><style id="style1">.cls-1{fill:#0283c0}.cls-2{fill:#fff}.cls-3{fill:#ef483f}</style></defs><path id="rect1" d="M 1219.2,0 V 812.8 H 0 V 0 Z" style="fill:#000;fill-opacity:1;fill-rule:evenodd;stroke:none;stroke-width:8.46667;stroke-linecap:round;stroke-linejoin:round"/><path id="path16" d="M 76.2 50.8 L 203.2 135.46667 L 1016 135.46667 L 1143 50.8 L 76.2 50.8 z M 279.4 186.26667 L 413.5329 275.6886 A 237.06666 237.06665 0 0 1 523.15721 186.26667 L 279.4 186.26667 z M 697.43857 186.26667 A 237.06666 237.06665 0 0 1 806.06708 275.42195 L 939.8 186.26667 L 697.43857 186.26667 z M 609.6 203.2 C 497.37617 203.19999 406.39999 294.17617 406.4 406.4 C 406.39999 518.62383 497.37617 609.60001 609.6 609.6 C 721.82383 609.60001 812.80001 518.62383 812.8 406.4 C 812.80001 294.17617 721.82383 203.19999 609.6 203.2 z M 609.6 237.06667 C 703.11986 237.06666 778.93334 312.88014 778.93333 406.4 C 778.93334 499.91986 703.11986 575.73334 609.6 575.73333 C 516.08014 575.73334 440.26666 499.91986 440.26667 406.4 C 440.26666 312.88014 516.08014 237.06666 609.6 237.06667 z M 609.6 279.4 A 76.199997 76.200005 0 0 0 533.4 355.6 L 685.8 355.6 A 76.199997 76.200005 0 0 0 609.6 279.4 z M 508 368.3 L 508 393.7 L 711.2 393.7 L 711.2 368.3 L 508 368.3 z M 520.7 406.4 L 520.7 457.2 L 546.1 457.2 L 546.1 406.4 L 520.7 406.4 z M 558.8 406.4 L 558.8 457.2 L 584.2 457.2 L 584.2 406.4 L 558.8 406.4 z M 596.9 406.4 L 596.9 457.2 L 622.3 457.2 L 622.3 406.4 L 596.9 406.4 z M 635 406.4 L 635 457.2 L 660.4 457.2 L 660.4 406.4 L 635 406.4 z M 673.1 406.4 L 673.1 457.2 L 698.5 457.2 L 698.5 406.4 L 673.1 406.4 z M 508 469.9 L 508 495.3 L 711.2 495.3 L 711.2 469.9 L 508 469.9 z M 413.5329 537.1114 L 279.4 626.53333 L 523.15721 626.53333 A 237.06666 237.06665 0 0 1 413.5329 537.1114 z M 806.06708 537.37805 A 237.06666 237.06665 0 0 1 697.43857 626.53333 L 939.8 626.53333 L 806.06708 537.37805 z M 203.2 677.33333 L 76.2 762 L 1143 762 L 1016 677.33333 L 203.2 677.33333 z" style="fill:#ffd000;fill-opacity:1;stroke-width:33.8667;stroke-miterlimit:128;paint-order:stroke fill markers"/></svg>