<svg xmlns="http://www.w3.org/2000/svg" xml:space="preserve" id="svg1" width="4608" height="3072" version="1.1" viewBox="0 0 1219.2 812.8"><defs id="defs1"><style id="style1">.cls-1{fill:#0283c0}.cls-2{fill:#fff}.cls-3{fill:#ef483f}</style></defs><path id="rect1" d="M 1219.2,812.8 V 0 H 0 v 812.8 z" style="fill:#ffd000;fill-opacity:1;fill-rule:evenodd;stroke:none;stroke-width:8.46667;stroke-linecap:round;stroke-linejoin:round"/><path id="path1" d="M 609.6,67.733333 541.86667,338.66667 270.93333,406.4 541.86667,474.13333 609.6,745.06667 677.33333,474.13333 948.26667,406.4 677.33333,338.66667 Z m 0,69.819507 53.76933,215.07783 L 609.6,406.4 h 268.84716 l 0.002,5.2e-4 -215.07938,53.76932 h -5.1e-4 L 609.6,406.4 v 268.84612 l -5.2e-4,0.002 L 555.83016,460.16984 609.6,406.4 H 340.75388 L 555.83016,352.63067 609.6,406.4 Z m 43.89086,35.92649 4.56355,18.2547 a 220.13332,220.13332 0 0 1 166.21156,166.21156 l 18.2547,4.56355 A 237.06665,237.06665 0 0 0 653.49086,173.47933 Z m -87.90833,0.50282 A 237.06665,237.06665 0 0 0 377.18215,362.38357 l 18.2795,-4.56975 A 220.13332,220.13332 0 0 1 561.01278,192.26165 Z m 276.93814,276.30974 -18.2547,4.56355 A 220.13332,220.13332 0 0 1 658.05441,621.06597 l -4.56355,18.2547 A 237.06665,237.06665 0 0 0 842.52067,450.29189 Z m -465.33852,0.12558 a 237.06665,237.06665 0 0 0 188.40038,188.39987 l -4.57026,-18.27899 A 220.13332,220.13332 0 0 1 395.46165,454.98722 Z" style="fill:#000;stroke-width:101.6;stroke-miterlimit:128;fill-opacity:1"/></svg>