<svg xmlns="http://www.w3.org/2000/svg" xml:space="preserve" id="svg1" width="4608" height="3072" version="1.1" viewBox="0 0 1219.2 812.8"><defs id="defs1"><style id="style1">.cls-1{fill:#0283c0}.cls-2{fill:#fff}.cls-3{fill:#ef483f}</style></defs><path id="rect1" d="M 0 0 L 0 812.8 L 1219.2 812.8 L 1219.2 0 L 0 0 z" style="fill:#fff;fill-rule:evenodd;stroke:none;stroke-width:8.46667;stroke-linecap:round;stroke-linejoin:round;fill-opacity:1"/><path id="path2" fill="#c00020" d="m 621.36548,708.81731 c -20.23184,-7.07781 -22.26671,-21.81758 -15.2302,-36.06642 -9.82403,-15.02661 -27.55903,-25.01349 -21.27204,-44.27071 -24.07851,-11.4033 -49.1275,-13.33704 -76.36225,-17.34269 -27.64386,-4.69451 -50.94465,-35.70421 -47.9406,-63.18201 -5.77793,-35.35023 30.97914,-43.42069 47.06409,-64.03256 15.19699,-7.36017 20.35787,-20.64919 7.68639,-30.53315 2.60169,-17.69202 7.7806,-34.10328 28.76731,-21.48329 23.67256,-3.97093 -12.49404,-34.61684 14.60291,-31.28374 18.9365,-5.25437 35.85963,-22.03635 39.80807,-36.89211 4.63011,26.7537 10.13114,-25.58009 -9.76999,-6.1392 -5.51973,-23.89096 20.53501,-39.63279 27.59007,-59.73343 8.02033,-18.58129 63.21731,-0.188 35.88222,9.76484 13.73252,29.94208 15.56845,-23.9553 31.11268,-25.73907 5.39374,-11.87142 -0.71717,-13.28844 15.00425,-16.49064 -5.82449,-4.77999 -23.44327,-18.04535 -5.87171,-20.03857 13.43299,-11.15338 -35.68148,-41.87785 -4.77425,-48.22877 16.53979,-3.29833 -7.31196,-19.70709 10.44939,-21.58349 -21.74354,-21.16944 -39.8947,-43.45081 -70.70381,-53.05936 -18.06238,-12.97722 20.47514,-0.34221 28.16434,-7.98186 19.07016,5.32672 58.51098,-0.83832 65.80965,8.63128 -12.37537,1.85896 -44.88974,0.31587 -14.20682,9.28907 17.19763,8.02183 46.18073,40.84309 52.83727,13.44502 17.82465,15.28371 47.50326,30.0684 67.23932,49.10107 23.60961,2.12406 -8.7444,23.46165 15.08136,32.92584 -7.07603,-14.28059 18.53132,7.67016 24.64017,13.62088 23.3837,25.81688 17.71774,65.92944 37.93893,91.29241 7.63986,10.17726 2.86769,52.14935 0.23438,44.18858 -6.10121,-13.1162 -3.85977,16.38336 -13.59157,-2.10136 -13.10687,-12.33512 -7.123,31.97186 -9.68171,41.19501 -4.3182,17.05746 6.89029,52.03634 -6.27846,59.34581 -16.3803,-6.7927 -16.22248,-39.57849 -33.31178,-22.62397 -20.36736,-7.51201 -36.53625,20.86678 -53.02015,20.34334 -11.01077,6.71519 -43.65405,-9.42575 -21.62788,12.3091 20.43278,22.5317 19.45809,-17.70287 38.63575,-5.16098 14.14853,10.6513 -11.92771,47.27652 -25.10445,60.45108 -12.89248,18.41718 -28.93876,25.9242 -36.73118,2.23884 -12.66769,-5.81592 -34.10543,-43.17964 -42.25888,-30.35223 12.04088,24.72641 33.31208,43.38858 54.75213,56.27149 15.14742,-2.17892 44.15428,-31.68533 28.82749,0.53946 -8.94834,27.95165 -35.74906,45.34572 -46.67095,71.33751 11.50468,29.30075 -29.55484,41.04171 -46.80935,56.58776 -21.88908,8.4944 -47.44024,18.48086 -70.91014,11.44122 z m 17.14835,-206.54767 c 14.75477,-13.99745 68.10341,11.97921 64.37617,-29.12374 -6.49741,-20.23902 -43.63069,13.98454 -47.06239,-21.18875 -20.99336,-3.11592 6.3538,26.173 -16.50275,17.36079 -2.77264,-13.81221 -25.84205,-44.85879 -35.56033,-35.79661 12.77127,13.85716 32.11226,33.13808 3.50592,38.60234 23.79748,-9.30923 -11.75686,-28.52842 -18.85931,-37.7106 -24.49613,3.31502 -40.04537,30.82739 -60.66525,37.4402 19.2322,12.61832 69.31209,-16.48276 66.6261,18.71336 9.7272,2.47115 39.30255,30.43834 44.14184,11.70301 z m 14.14288,-21.88769 c 14.52551,-3.7464 6.38519,5.92746 0,0 z m -65.30012,-22.93669 c 8.74793,-18.04288 1.02322,19.26268 0,0 z m 94.51378,-17.06256 c 8.1922,-1.2758 48.04161,-8.11113 28.11757,-16.76832 -17.99009,0.68289 -14.58183,-32.03078 -22.84416,-6.66504 -4.20939,10.48059 -17.24636,-11.44965 -20.43899,10.56157 -8.77767,14.10782 1.53405,23.92343 15.16558,12.87179 z m 81.57755,-9.23188 c -0.12547,-18.11612 -13.25062,-25.30312 -24.12577,-32.75346 10.69389,-33.5914 -26.9934,12.67031 -0.43204,18.86804 11.21991,5.51448 5.49794,31.12562 24.55781,13.88542 z M 616.00512,379.8849 c 17.1787,-0.71027 19.57914,-20.9477 21.6084,-28.03382 28.80742,-16.01136 -16.60975,6.38576 -9.52848,-18.40677 10.07576,-14.32636 1.98886,-24.18887 -4.90654,-5.03114 -7.75072,17.72248 1.95383,46.26353 -24.80729,50.60863 5.15627,0.64784 14.04455,7.42842 17.63391,0.8631 z M 710.5099,260.77512 c -18.26112,-16.03801 8.9982,18.31179 10e-4,-0.001 z m 41.89353,405.58221 c 5.48679,-11.16775 44.3593,-40.28821 20.97378,-12.66509 -2.52269,4.24663 -34.23088,34.53275 -20.97378,12.66509 z M 367.08729,590.20268 C 329.02072,536.97974 305.40461,472.62521 305.7584,406.67836 c -3.85713,-16.37022 5.14165,-61.39378 5.62627,-21.1337 5.75067,31.77689 7.51968,64.56128 18.92568,95.08411 4.70738,37.00395 27.85183,67.59069 49.25776,96.66044 -5.1837,6.6049 0.98165,37.74735 -12.48082,12.91347 z m 517.4948,-121.53891 c 6.89047,-16.28499 6.54385,11.30244 0,0 z M 910.51747,412.66 c 8.43474,-15.25246 0.58646,15.52835 0,0 z M 548.33662,390.93785 c 9.07964,-13.15371 6.66747,-21.42442 2.86623,-37.8337 14.9893,-6.56772 15.1023,29.17807 14.36352,39.8105 -3.10911,2.35917 -19.81581,4.66209 -17.22975,-1.9768 z m 362.01446,1.97762 c -3.50449,-16.42143 10.42338,5.52337 0,0 z M 535.01817,376.22014 c 22.83083,-38.40665 7.47103,27.78252 0,0 z M 320.84973,352.18478 c 1.79681,-22.14661 1.79603,22.15192 0,0 z m 95.37568,-37.8907 c -11.57781,-18.63668 24.26086,-18.16519 1.99963,-33.52159 -4.00559,-14.47044 -12.3867,-14.76765 -6.9363,-0.99513 -12.4334,6.28183 -0.21805,35.51986 -18.33577,13.54071 8.3243,-16.13404 -16.15135,-11.36864 -25.67808,-14.70958 -11.15489,6.82678 -21.58307,-12.48551 -27.73155,10.03118 6.39551,-18.26595 16.03634,-43.79211 17.39661,-58.92499 -22.39462,22.58001 3.33878,-14.33992 9.40691,-21.65306 26.42179,-32.27139 56.328,-67.24156 97.66906,-79.16197 26.19148,-3.57164 44.42927,-10.68288 68.58544,-12.55065 23.33228,3.86267 40.8043,-21.889621 60.00767,-12.78809 30.0003,-1.75835 8.055,7.58131 12.18671,9.47268 13.53821,5.38349 -9.16763,1.55401 0.91613,11.54767 -22.28488,13.16976 -53.36945,6.1594 -72.39034,28.22332 -20.11456,10.60261 19.36136,-4.76146 19.46041,6.09442 -14.49243,15.32376 -36.39008,9.34933 -48.34055,17.27937 22.69601,10.97063 0.84688,10.32463 -5.09597,22.04006 11.60828,-9.33745 35.32082,-5.55564 18.88707,11.25007 -12.75857,7.11132 -19.99177,28.6541 -31.95351,29.78917 8.61368,-19.35635 -29.2247,19.25814 -15.42061,-5.67656 6.62912,-15.69662 6.2762,-19.59389 21.96403,-13.17041 2.61004,-10.2854 18.99953,-18.81542 -4.03926,-15.39563 -12.94529,6.64007 -18.13182,5.09595 -8.33845,-7.0465 -22.46542,-29.81198 -47.92813,24.54815 -56.71388,34.77231 13.78387,2.38812 57.62641,-25.33318 36.30533,4.40222 -15.76667,11.90975 10.1509,14.8313 -10.7936,27.37191 -8.14317,15.89844 -25.76701,44.20529 -33.01713,49.77907 z M 519.38829,161.46103 c -0.72074,-14.69382 -10.44994,14.98449 0,0 z m 13.67521,149.63336 c -13.14945,-31.53713 37.63863,4.88623 2.69915,0.95919 z m -53.79095,-25.76617 c 4.32106,-35.83688 50.28217,-39.53759 59.86183,-72.38291 6.53936,-6.3054 32.93886,0.21723 9.33008,-9.35526 -20.05956,6.70654 -1.40861,-38.03683 -14.62274,-5.95359 -11.43288,12.84103 6.29418,-28.91815 16.17976,-31.60014 16.47219,-11.91171 8.57619,19.97283 2.80758,3.17864 -9.39052,6.78238 -12.40463,38.49069 1.16921,13.03508 7.50612,5.35351 18.59921,18.73258 20.39098,32.54492 30.41922,17.28858 -13.08222,43.61308 -25.57654,58.89888 -11.95315,12.72323 -44.19437,-1.13689 -61.27068,15.03731 -7.18424,3.78764 -9.46406,8.07193 -8.26948,-3.40293 z m -155.91652,3.28248 c 5.71563,-24.71841 17.28781,-14.12942 0,0 z m 341.81868,-29.06971 c -6.06551,-15.12094 4.5659,-26.07418 2.66006,-3.1829 4.43274,9.7206 12.13885,23.07883 -0.84815,8.28543 l -1.81042,-5.10253 z m -56.10836,-3.49167 c -4.66665,-13.37807 14.02284,-16.50267 8.61614,-4.2758 4.77068,12.88195 -3.28306,-4.16933 -5.74354,10.02879 z m 33.96092,-24.59675 c 1.0582,-14.71068 8.33524,9.16273 0,0 z m 14.88337,-21.92231 c 13.48474,-20.31094 17.92169,9.74676 0,0 z M 521.35196,184.8071 c -2.21547,-16.08836 19.89998,1.39074 3.15253,3.89822 l -3.15403,-3.89822 z m 297.18052,-7.83972 c -11.71943,-11.35881 -13.53766,-17.8819 0.30828,-2.80344 10.94797,10.21812 19.41344,23.65467 2.38589,5.6068 z M 665.71285,165.33799 c -8.01404,-17.86858 20.74153,22.16471 0,0 z m 130.30194,-5.42714 c -10.00076,-11.65328 19.15599,8.77846 0,0 z m -16.89502,-11.6294 c -7.63263,-13.17391 15.4684,16.19403 0,0 z" style="stroke-width:1;fill:#b00020;fill-opacity:1"/></svg>