<svg xmlns="http://www.w3.org/2000/svg" xml:space="preserve" id="svg1" width="4608" height="3072" version="1.1" viewBox="0 0 1219.2 812.8"><defs id="defs1"><style id="style1">.cls-1{fill:#0283c0}.cls-2{fill:#fff}.cls-3{fill:#ef483f}</style></defs><path id="rect1-8" d="M 0,0 V 812.8 H 1219.2 V 0 Z" style="fill:#000;fill-opacity:1;fill-rule:evenodd;stroke:none;stroke-width:8.46667;stroke-linecap:round;stroke-linejoin:round"/><path id="path1" d="M 390.48624 101.85735 A 16.935026 16.935026 0 0 0 382.94355 105.23854 C 374.37913 111.99324 371.68035 123.18666 372.19899 131.77128 C 372.71762 140.35592 375.35239 148.21756 378.87093 156.42559 C 385.90114 172.82563 397.09029 190.45791 408.99002 207.4199 L 370.96289 186.85164 A 16.935026 16.935026 0 0 0 347.00208 195.93533 C 343.66603 205.06843 345.54005 214.07521 348.59578 221.19322 C 351.65151 228.31122 356.06957 234.51145 361.23842 240.64268 C 370.32123 251.4166 381.98818 261.84265 394.06845 271.62683 L 342.78321 262.87491 A 16.935026 16.935026 0 0 0 323.96265 273.93935 C 323.81782 274.35042 323.75221 274.77582 323.63089 275.19147 L 318.89268 266.83591 A 16.935026 16.935026 0 0 0 288.89451 282.50989 L 412.45699 540.20682 L 410.21475 541.26774 A 16.935026 16.935026 0 0 0 402.54907 564.61722 L 410.90257 580.10154 A 16.935026 16.935026 0 0 0 427.84365 588.69947 C 427.85755 588.76037 427.85086 588.83227 427.86536 588.89274 C 429.33249 594.99272 432.46701 598.81775 435.10367 601.50954 C 435.8532 602.27474 436.5776 602.84139 437.31646 603.48461 C 437.90884 605.38255 438.67623 607.15064 439.69151 608.59954 C 443.43938 613.94818 447.63722 615.9541 450.86137 617.33803 C 455.71839 619.42285 459.1455 619.92618 460.93776 620.12287 L 461.83796 624.95307 A 16.935026 16.935026 0 0 0 471.94949 637.46858 L 484.48051 642.71116 A 16.935026 16.935026 0 0 0 507.84962 628.91407 L 509.24437 616.05077 A 16.935026 16.935026 0 0 0 502.79877 600.85531 L 498.09001 597.19714 C 499.46546 594.54115 500.46477 591.79463 500.5741 589.41777 C 500.68146 587.08378 500.43499 585.21071 500.07439 583.53906 L 557.14842 551.04078 L 570.68971 551.35136 A 16.935026 16.935026 0 0 0 575.16231 550.64443 C 571.63568 554.32844 568.62111 556.02136 568.62111 556.02136 A 16.935026 16.935026 0 0 0 575.00986 587.77756 C 573.2101 591.32164 570.66521 594.7913 566.81656 597.24003 A 16.935026 16.935026 0 0 0 574.6564 628.41384 L 574.79127 628.42417 C 572.92177 631.85725 570.29815 635.22277 566.32822 637.68562 A 16.935026 16.935026 0 0 0 578.88301 668.61345 L 582.51587 667.8166 L 593.59943 699.81103 A 16.935026 16.935026 0 0 0 625.59954 699.81103 L 636.68569 667.8166 L 640.31647 668.61345 A 16.935026 16.935026 0 0 0 652.87333 637.68562 C 648.9035 635.22283 646.27751 631.85712 644.40821 628.42417 L 644.54515 628.41384 A 16.935026 16.935026 0 0 0 652.38499 597.24003 C 648.54383 594.79607 646.00255 591.33522 644.20306 587.79875 A 16.935026 16.935026 0 0 0 650.58199 556.02136 C 650.58199 556.02136 647.25261 554.23044 643.46873 550.0858 A 16.935026 16.935026 0 0 0 648.5139 551.35343 L 662.05468 551.04078 L 719.1251 583.53906 C 718.7646 585.21039 718.51973 587.08276 718.62694 589.41622 C 718.69444 590.88646 719.05558 592.50712 719.64238 594.15805 C 719.29427 594.71168 718.80168 595.3622 718.47242 595.9042 C 716.14709 599.73182 714.18075 602.29271 712.76941 608.44141 A 16.935026 16.935026 0 0 0 712.76735 608.44555 C 711.38915 614.4589 712.03697 622.07204 715.71497 627.79527 C 719.39298 633.51852 724.64417 636.26316 728.55088 637.59984 C 736.36429 640.2732 742.36916 639.19148 742.36916 639.19148 A 16.935026 16.935026 0 0 0 754.34982 632.43737 L 758.37283 627.02529 L 744.88838 617.18197 A 16.935026 16.935026 0 0 0 756.54659 620.35542 C 756.54659 620.35542 761.89117 620.10617 768.33966 617.33803 C 771.56391 615.95396 775.76035 613.94744 779.50798 608.59954 C 780.52349 607.15039 781.29044 605.38293 781.88302 603.48461 C 782.62237 602.84104 783.34784 602.27372 784.09788 601.50799 C 786.73452 598.8162 789.86698 594.99209 791.33413 588.89274 C 791.57385 587.89615 791.60595 586.78801 791.68553 585.70533 C 794.00251 582.99301 796.38776 579.28512 797.43763 574.47863 L 811.45331 555.62707 A 16.935026 16.935026 0 0 0 806.52131 530.97069 C 806.52131 530.97069 800.66611 527.4609 794.33963 521.73043 C 788.01418 516.00088 782.75028 508.2787 782.06854 504.2793 C 781.00459 498.02336 782.35482 491.19743 786.49825 485.77758 C 790.64166 480.35775 797.66624 475.44052 811.60938 474.11525 C 821.94622 473.1328 829.08303 478.88016 835.65597 487.39661 C 842.22891 495.91306 845.56648 505.01362 845.56648 505.01362 A 16.935026 16.935026 0 0 0 878.44354 498.53546 C 878.44354 498.53546 877.7619 481.65857 868.31237 464.34788 C 861.17723 451.27694 847.56383 437.40928 827.30092 430.77732 C 827.43255 430.44226 827.61072 430.12707 827.72467 429.78514 A 16.935026 16.935026 0 0 0 821.31834 410.52378 L 805.14827 399.29087 C 811.75479 399.5201 818.27036 399.38275 824.51763 398.61546 C 831.00515 397.81869 837.31628 396.46039 843.57021 393.11141 C 849.82416 389.76242 856.37257 383.27405 858.57395 374.77351 A 16.935026 16.935026 0 0 0 847.5586 354.47087 L 809.65601 341.77914 C 814.4118 340.37476 819.06515 339.0973 823.88666 337.52358 C 841.4216 331.80025 858.74052 325.18206 872.54674 316.74604 C 879.44985 312.52804 885.64491 307.96413 890.56838 301.23071 C 895.49184 294.49728 898.61728 283.53416 895.23631 273.93935 A 16.935026 16.935026 0 0 0 876.41782 262.87491 L 825.13258 271.62683 C 837.21294 261.84264 848.88034 251.41666 857.96313 240.64268 C 863.13197 234.51142 867.54961 228.31135 870.60526 221.19322 C 873.6609 214.07508 875.53386 205.06836 872.19741 195.93533 A 16.935026 16.935026 0 0 0 848.23608 186.85164 L 810.21308 207.4199 C 822.11268 190.45817 833.30005 172.82542 840.3301 156.42559 C 843.84862 148.21752 846.48357 140.35605 847.00205 131.77128 C 847.52054 123.18653 844.82049 111.99299 836.25593 105.23854 A 16.935026 16.935026 0 0 0 813.4904 106.87513 L 719.43154 205.96107 C 716.49337 203.87257 713.05043 202.20644 709.10762 202.01351 A 16.935026 16.935026 0 0 0 692.20529 213.60763 C 692.20529 213.60763 692.63217 212.66298 691.87508 214.06652 C 691.11799 215.47005 689.53086 218.15215 686.59943 222.19316 C 681.43648 229.31034 671.68916 240.92011 655.49436 256.98431 L 651.20315 246.76943 L 651.20315 246.76737 C 651.16225 244.58257 651.03948 241.82478 650.84968 238.91772 C 652.42673 238.29788 654.05403 237.51194 655.75377 236.40211 C 661.92122 232.37513 666.60634 222.94664 666.32212 215.29694 A 16.935026 16.935026 0 0 0 650.56856 199.03126 L 644.82627 198.6349 L 622.98058 183.71695 A 16.935026 16.935026 0 0 0 620.50786 182.31807 C 620.50786 182.31807 614.75294 179.49732 607.03116 178.97461 C 601.17292 178.57804 592.21867 180.33161 585.1896 185.9318 C 582.16028 186.72449 578.73313 187.92473 575.1406 190.31035 C 572.20078 192.26254 569.57071 195.28984 567.40413 198.91396 A 16.935026 16.935026 0 0 0 542.36741 205.76573 L 540.85743 209.33968 A 16.935026 16.935026 0 0 0 540.9706 222.77142 C 540.9706 222.77142 544.63891 231.55702 551.33379 239.98845 C 554.68124 244.20417 558.73156 248.86227 566.03728 252.07609 C 570.69755 254.12615 577.32032 254.25809 583.45121 252.68328 C 584.40794 253.91947 585.6944 255.86902 586.8572 259.23431 C 589.43317 266.68947 591.37668 280.94613 582.84969 306.32394 C 582.36962 307.22863 581.93819 307.8784 581.4689 308.71501 C 583.03111 302.9297 583.144 297.22911 582.48641 292.4607 C 580.42853 277.53838 572.85754 266.66383 572.85754 266.66383 A 16.935026 16.935026 0 0 0 570.26545 263.49399 C 549.70705 243.7817 538.46446 230.27517 532.6016 222.19316 C 529.67017 218.15215 528.08305 215.47005 527.32595 214.06652 C 526.56886 212.66298 526.99626 213.60712 526.99626 213.60712 A 16.935026 16.935026 0 0 0 510.09393 202.01351 C 506.15119 202.2064 502.70791 203.87256 499.76949 205.96107 L 405.71115 106.87513 A 16.935026 16.935026 0 0 0 390.48624 101.85735 z M 639.53512 206.88866 C 639.85872 206.81876 639.77762 206.95344 639.40232 206.95894 C 639.40032 206.95897 639.39811 206.95892 639.39611 206.95894 C 639.41871 206.95294 639.51556 206.89286 639.53512 206.88866 z M 347.43357 317.17392 C 361.11597 325.39665 378.09136 331.90204 395.31437 337.52358 C 400.1362 339.09741 404.78894 340.37467 409.54503 341.77914 L 371.64036 354.47242 A 16.935026 16.935026 0 0 0 369.40226 355.91781 L 347.43357 317.17392 z M 393.48658 398.39274 C 393.88854 398.44694 394.27855 398.56593 394.68185 398.61546 C 400.92919 399.38273 407.44618 399.5201 414.05276 399.29087 L 399.66398 409.28716 L 393.48658 398.39274 z M 456.27913 439.36905 L 448.82428 449.05063 A 16.935026 16.935026 0 0 0 452.64266 473.3339 C 459.23565 477.86891 467.28529 479.08955 473.92404 478.37132 C 480.29738 477.68181 485.81753 475.5716 491.05478 472.9825 A 16.935026 16.935026 0 0 0 497.15415 489.64453 C 503.97654 494.71998 512.73474 494.77911 518.76162 493.19935 C 519.36007 501.66112 520.98236 509.36837 522.75776 515.58972 C 515.82274 519.66745 509.68951 523.33882 497.04666 530.4963 C 494.70529 531.82183 493.11735 532.61434 490.83619 533.88679 L 482.72867 518.78901 A 16.935026 16.935026 0 0 0 458.4609 512.98264 L 421.5722 447.9277 C 424.60741 447.82125 427.58286 447.48429 430.5608 446.97478 C 438.9512 445.53924 447.60481 442.6585 456.27913 439.36905 z M 728.56276 473.16027 C 729.57827 473.65547 730.65588 474.04541 731.69901 474.49403 C 729.40245 480.08073 727.72908 485.56627 726.68949 490.66617 C 724.91895 499.352 723.87483 505.82904 726.49829 514.64456 A 16.935026 16.935026 0 0 0 726.49984 514.64662 C 728.41043 521.06275 729.85194 527.77974 735.81659 537.95528 C 731.23022 535.4584 727.30476 533.4121 722.15437 530.4963 C 709.51152 523.33882 703.37829 519.66745 696.44328 515.58972 C 698.21878 509.36843 699.84293 501.6611 700.44148 493.19935 C 706.46831 494.77863 715.22516 494.71949 722.04688 489.64453 A 16.935026 16.935026 0 0 0 728.56276 473.16027 z M 582.02959 493.80913 C 582.1154 493.81984 582.19668 493.83823 582.28229 493.84944 A 16.935026 16.935026 0 0 0 581.35935 496.34955 C 581.52912 495.47422 581.74522 494.61845 582.02959 493.80913 z M 578.30682 510.61121 C 579.83746 510.70601 581.2068 510.9222 582.75203 511.24786 C 584.34201 516.55199 585.15727 521.18166 585.28107 525.16588 C 580.95987 518.20622 579.18968 513.61796 578.30682 510.61121 z M 640.89473 510.61121 C 640.01226 513.61771 638.24271 518.20566 633.91996 525.16794 C 634.04383 521.18345 634.85855 516.55249 636.44901 511.24786 C 637.99443 510.92205 639.36377 510.70606 640.89473 510.61121 z" style="color:#000;fill:#b00020;stroke-linecap:round;stroke-linejoin:round;-inkscape-stroke:none;paint-order:stroke fill markers;fill-opacity:1"/><path id="path3" d="m 393.42938,118.53335 c -26.91098,21.2245 79.0925,142.50532 79.0925,142.50532 L 362.90731,201.74552 c -10.829,29.64658 101.41066,99.04624 101.41066,99.04624 l -124.38332,-21.2245 c -11.15768,31.66817 129.63491,59.9675 129.63491,59.9675 l -92.55084,30.99384 c 6.8935,26.6135 107.64684,0.33715 107.64684,0.33715 l -77.12334,53.5656 c 8.53259,25.6034 106.0035,-31.66818 106.0035,-31.66818 l -51.306,66.62018 c 22.51084,15.48415 79.135,-53.36018 79.135,-53.36018 l -34.11334,70.03575 c 16.01117,11.91133 67.99434,-62.17467 67.99434,-62.17467 l 14.75883,57.375 c -83.03083,-38.743 -46.66783,51.96759 -46.66783,51.96759 0,0 -76.92925,45.61808 -72.86766,39.18641 4.06016,-6.43166 -2.43668,-9.1715 -2.43668,-9.1715 0,0 -0.8925,-1.23533 -8.21666,1.34017 l -2.227,-4.913 20.18891,-4.28825 -9.97757,-18.581 L 453.15888,537.963 304.1624,275.18835 435.08788,548.2395 l -17.63607,8.33709 8.35407,15.48415 17.86843,-14.05475 1.82466,2.93534 c -16.48291,9.112 0.14875,18.14751 0.14875,18.14751 -5.91741,8.33708 7.54234,14.88915 7.54234,14.88915 -3.24984,8.09767 11.13782,9.52709 11.13782,9.52709 0,0 2.6775,-1.96349 5.24875,-3.825 l 6.81984,10.97208 2.08816,11.19592 12.53043,5.24166 1.394,-12.86333 -8.58643,-6.67107 -6.11716,-13.50085 c 1.50734,-0.98316 2.92684,-1.87 4.02759,-2.45933 5.338,-2.85883 -2.08818,-11.19733 -2.08818,-11.19733 l 0.92793,-5.23884 72.27407,-41.15416 18.23109,0.41791 c -35.8785,-57.29565 30.2685,-39.68364 26.15591,-33.51833 18.04975,49.52383 -20.67625,70.074 -20.67625,70.074 l 19.35167,1.55833 c 0,0 0.46325,25.9675 -20.00333,38.9895 l 20.00333,1.48042 c 0,0 0.46325,25.96608 -20.655,39.06742 l 18.3345,-4.02192 16.01117,46.2145 16.01258,-46.2145 18.33308,4.02192 c -21.11825,-13.10133 -20.65358,-39.06741 -20.65358,-39.06741 l 20.00333,-1.48042 c -20.46658,-13.022 -20.00333,-38.98808 -20.00333,-38.98808 l 19.35167,-1.55833 c 0,0 -38.72742,-20.55159 -20.67625,-70.07399 -4.11259,-6.16675 62.03441,-23.77876 26.15591,33.51832 l 18.2325,-0.41933 72.27266,41.15416 0.9265,5.23884 c 0,0 -7.42475,8.3385 -2.08816,11.19733 0.85708,0.459 1.91958,1.10925 3.04583,1.82467 -5.967,8.34841 -10.46917,15.45158 -11.23983,18.80908 -2.62509,11.45375 11.48775,10.1065 11.48775,10.1065 l 14.03775,-18.88417 0.0737,0.0538 c 0,0 14.38766,-1.42941 11.13925,-9.5285 0,0 13.45834,-6.55066 7.54234,-14.88916 0,0 8.70825,-4.71042 7.35675,-10.75817 l 16.95324,-22.8055 c 0,0 -28.87874,-17.18133 -32.48983,-38.40583 -3.60966,-21.2245 9.18991,-46.49075 44.6335,-49.85958 35.445,-3.36884 51.52416,42.11183 51.52416,42.11183 0,0 -2.62508,-53.22983 -56.77575,-55.58717 -54.15066,-2.35875 -65.637,53.90134 -62.02732,66.03084 3.61107,12.12666 2.29782,15.83266 21.9895,39.07873 l 13.12682,-3.03165 c 0,0 -4.17066,4.98666 -10.02716,12.21166 -15.20934,-6.92326 -16.65859,-4.83084 -16.65859,-4.83084 0,0 -6.49682,2.73983 -2.43666,9.1715 4.06159,6.43167 -72.86766,-39.18641 -72.86766,-39.18641 0,0 36.36441,-90.70916 -46.66783,-51.96758 l 14.75883,-57.375 c 0,0 51.98316,74.08599 67.99432,62.17467 l -34.11332,-70.03575 c 0,0 56.62416,68.84433 79.135,53.36017 l -51.306,-66.62017 c 0,0 97.47091,57.27158 106.00349,31.66817 l -77.12333,-53.56559 c 0,0 100.75333,26.27634 107.64541,-0.33716 l -92.55082,-30.99384 c 0,0 140.79399,-28.29933 129.63491,-59.9675 l -124.38334,21.2245 c 0,0 112.24109,-69.39967 101.41067,-99.04624 l -109.61462,59.2932 c 0,0 106.00491,-121.28084 79.0925,-142.50534 L 713.20221,237.11967 c 0,0 1.96917,-17.85565 -4.9215,-18.19283 0,0 -5.39042,16.29308 -47.6255,56.78991 0,0 -23.20641,36.686 12.2995,42.40367 0,0 -17.6375,61.69867 -52.21549,-5.00225 l 14.85233,2.97783 -9.6305,-30.84934 11.951,3.81084 -10.09375,-27.6335 12.8775,4.05167 -5.10425,-12.15075 -1.27642,-1.54842 c 0,0 0.46467,-25.36966 -4.75716,-29.30091 0,0 20.3065,5.95568 19.84183,-6.55067 l -10.3275,-0.714 -25.64167,-17.51 c 0,0 -13.46116,-6.19365 -19.95941,3.93125 0,0 -19.25959,0.119 -13.923,21.91585 0,0 10.55841,-9.7665 22.39466,-2.02585 11.83484,7.7435 14.38767,27.1575 14.38767,27.1575 0,0 -16.47583,-16.43475 -24.01817,-11.07692 0,0 26.08367,17.76784 6.14834,75.51542 -34.57659,66.70093 -52.21409,5.00225 -52.21409,5.00225 35.50592,-5.71767 12.2995,-42.40367 12.2995,-42.40367 -42.23508,-40.49683 -47.6255,-56.78991 -47.6255,-56.78991 -6.89207,0.33718 -4.92291,18.19283 -4.92291,18.19283 z m 208.04884,83.99133 6.035,2.44234 c 0,0 -4.81667,4.46533 0.75225,6.49116 5.57033,2.02584 6.324,-3.03733 6.324,-3.03733 l 9.86283,6.96858 0.46467,0.833 -0.697,1.36992 -6.84534,-3.03733 c 0,0 -20.5955,6.96858 -15.89641,-12.03034 z m -43.5115,9.826 -1.50875,3.57425 c 0,0 13.11125,29.65792 25.75925,19.295 12.64658,-10.3615 27.84741,1.66742 27.84741,1.66742 0,0 -3.0175,-14.88775 -25.41075,-9.6475 -22.39466,5.24167 -26.68716,-14.88917 -26.68716,-14.88917 z" style="color:#000;display:inline;fill:#fff;stroke-linecap:round;stroke-linejoin:round;-inkscape-stroke:none;paint-order:stroke fill markers;fill-opacity:1"/></svg>