<svg xmlns="http://www.w3.org/2000/svg" xml:space="preserve" id="svg1" width="4608" height="3072" version="1.1" viewBox="0 0 1219.2 812.8"><defs id="defs1"><style id="style1">.cls-1{fill:#0283c0}.cls-2{fill:#fff}.cls-3{fill:#ef483f}</style></defs><path id="rect1" d="M 0 0 L 0 812.8 L 1219.2 812.8 L 1219.2 0 L 0 0 z" style="fill:#000;fill-rule:evenodd;stroke:none;stroke-width:8.46667;stroke-linecap:round;stroke-linejoin:round;fill-opacity:1"/><path id="path4" d="M 898.93376 101.61395 C 842.65304 103.06291 795.68805 150.02954 794.23783 206.31144 C 794.22103 206.98176 794.23186 207.62385 794.23886 208.25964 L 775.44466 227.05436 C 775.59091 200.95354 765.74207 174.8081 745.87179 154.93783 C 745.72284 154.78888 745.56549 154.64394 745.41548 154.49393 L 753.0698 146.8391 C 756.79766 143.11123 756.79766 137.06737 753.0698 133.3407 C 749.34194 129.61168 743.29797 129.61162 739.57139 133.3407 L 717.97375 154.93886 C 680.80257 192.11007 678.67118 251.23765 711.5514 290.94607 L 684.72771 317.77078 C 686.04214 287.64447 675.23407 257.08373 652.28008 234.13093 C 652.13128 233.98213 651.97358 233.83384 651.82326 233.68651 L 659.47809 226.0322 C 663.20596 222.30432 663.20592 216.26163 659.47809 212.5338 C 655.75025 208.80596 649.70687 208.80645 645.98021 212.53431 L 624.38256 234.13145 C 602.98284 255.53178 592.23757 283.54232 591.9401 311.64713 L 703.93223 424.1922 C 733.37572 423.98522 761.03223 412.45741 781.87476 391.61486 L 803.47292 370.01721 C 807.20073 366.28931 807.20075 360.24598 803.47292 356.51932 C 799.74507 352.79151 793.70118 352.79149 789.97452 356.51932 L 782.32072 364.17415 C 782.17297 364.02412 782.02456 363.86556 781.87631 363.71733 C 766.81498 348.65597 747.90399 338.28129 727.19076 333.71761 C 717.65383 331.61618 707.94056 330.79857 698.29174 331.21648 L 725.06117 304.44653 C 743.69912 319.88177 766.60512 327.61319 789.527 327.61204 C 815.43133 327.61104 841.3469 317.74734 861.06837 298.0247 L 882.66499 276.42654 C 886.39285 272.69869 886.39282 266.65582 882.66499 262.92917 C 878.93242 259.19777 872.88873 259.19768 869.1609 262.92814 L 869.16193 262.92504 L 861.5071 270.57935 C 861.3583 270.42931 861.21145 270.27129 861.0632 270.12305 C 841.59178 250.65045 815.64417 240.29452 789.04331 240.45406 L 807.73829 221.75907 C 808.01926 221.76507 808.29007 221.77406 808.577 221.77406 C 808.94237 221.77406 809.31351 221.77307 809.68856 221.75907 C 865.97042 220.31128 912.93583 173.34311 914.3845 117.06572 C 914.4286 115.37027 914.36186 113.77129 914.30026 112.358 C 914.27926 111.89842 914.26124 111.43696 914.24704 110.97617 C 914.0804 105.95415 910.04875 101.92003 905.02641 101.75245 L 903.64924 101.69767 C 902.23478 101.63797 900.63393 101.57088 898.93376 101.61395 z M 493.85203 369.26118 C 490.04761 381.1361 487.99913 393.63393 487.99915 406.46201 C 487.99915 435.72392 498.27376 463.4045 517.11056 485.39053 L 488.55829 513.94331 C 489.03574 509.35936 489.28435 504.72588 489.28435 500.05268 C 489.28435 464.86863 475.58298 431.7908 450.70376 406.9116 C 450.55246 406.76029 450.39849 406.61837 450.24642 406.46925 L 457.90177 398.8139 C 461.62962 395.08606 461.6296 389.04212 457.90177 385.3155 C 454.17393 381.58763 448.13104 381.58763 444.4044 385.3155 L 422.81399 406.91418 C 397.93476 431.79339 384.23492 464.87073 384.23494 500.05475 C 384.23492 532.03724 395.55962 562.27778 416.30741 586.20453 L 307.59673 694.90642 C 303.86891 698.63425 303.86891 704.67597 307.59673 708.40379 C 309.45888 710.26712 311.90322 711.2 314.34515 711.2 C 316.78714 711.2 319.23023 710.26831 321.09358 708.40379 L 429.80167 599.69673 C 453.72716 620.44456 483.96777 631.76816 515.95145 631.76816 C 551.1355 631.76816 584.2119 618.067 609.08995 593.19015 L 630.68812 571.5925 C 634.41598 567.86464 634.41596 561.82194 630.68812 558.0941 C 626.96029 554.36627 620.91687 554.36626 617.19023 558.0941 L 609.53437 565.75255 C 609.38542 565.60125 609.24268 565.44639 609.0915 565.29521 C 580.65944 536.86315 541.02002 523.39273 502.03551 527.46703 L 530.61412 498.88893 C 552.60131 517.72579 580.28076 528.0013 609.54264 528.00136 C 622.16733 528.00135 634.47881 526.03492 646.18536 522.34796 L 493.85203 369.26118 z" style="display:inline;fill:#ffd080;fill-opacity:1;stroke:none;stroke-width:.413413"/><path id="path1" d="M 315.71406 101.6 C 309.7022 101.60045 304.82864 106.47378 304.82791 112.48564 L 304.82791 150.8001 C 304.82755 153.67819 305.96687 156.43934 307.9967 158.47973 L 488.27976 339.65472 L 675.76134 528.06441 L 724.36457 576.90794 L 717.97891 583.44604 C 714.95343 586.54352 711.95735 589.7988 709.49881 592.63566 C 708.19315 594.14223 707.05608 595.55521 706.19255 596.66487 C 705.76079 597.2197 705.39899 597.69452 705.10735 598.08856 C 704.81572 598.48261 705.28748 597.48955 704.01077 599.71895 C 695.06323 615.34314 694.97979 635.14689 703.94515 650.56804 C 707.75969 657.12963 712.29473 661.26227 716.81413 665.89941 C 716.84733 665.93301 716.88073 665.96641 716.91438 665.99966 L 724.90407 674.08754 C 729.73862 678.98132 732.80552 681.97446 737.17568 684.24661 C 740.69684 686.07739 745.96369 686.74805 750.03587 686.45112 C 761.71783 685.59927 771.86156 675.44162 772.70012 663.75535 L 772.70012 663.75483 L 772.70012 663.75432 L 772.70012 663.7538 L 772.70012 663.75328 L 772.70012 663.75277 C 772.84667 661.71043 773.02782 659.91866 772.71511 657.40742 C 772.40214 654.89621 771.32521 652.21392 770.35298 650.46779 C 767.74848 645.79021 764.44161 642.5461 758.3134 636.27847 C 755.39613 633.29491 752.65382 630.34025 750.63377 628.04229 C 749.6162 626.88472 748.79857 625.91251 748.26595 625.23574 C 748.11895 625.04889 748.25895 625.26375 748.1564 625.14375 C 748.33331 624.75059 748.74247 624.09148 750.06533 623.01985 C 758.03156 616.5665 768.6749 614.23474 778.20521 616.73703 C 782.34022 617.82273 784.52467 618.65927 788.46815 621.69642 C 792.62069 624.89452 798.6477 630.6691 809.22037 641.18309 L 809.22347 641.18309 L 827.16656 659.02334 L 827.05184 659.71477 C 826.30315 664.23238 825.89877 668.50612 827.11799 673.12842 C 828.33764 677.75171 831.23762 681.53839 834.04832 684.29001 C 839.69648 689.81939 846.03221 691.98266 853.72722 691.24101 C 857.97243 702.67542 868.89739 710.52108 881.26766 711.14729 C 883.61915 711.26624 885.72833 711.17069 887.54996 710.98296 C 889.37154 710.79527 890.14129 710.92206 892.98839 709.85228 C 902.65215 706.22162 910.22056 698.38099 913.06985 688.70938 C 915.8698 679.20525 914.09775 668.7011 908.2996 660.75347 C 906.0474 657.66637 903.63926 655.55886 900.64528 653.42988 C 899.01313 652.26929 897.488 651.41107 896.11378 650.73496 C 895.32754 650.34814 894.81448 650.04468 894.03897 649.74174 L 894.07049 649.0963 C 894.23325 645.67805 894.20729 642.14951 892.81682 638.36827 C 891.42633 634.58705 888.92559 631.72411 886.65492 629.55175 C 882.92289 625.98117 879.14024 624.41796 874.46859 623.40381 C 870.60627 622.56536 867.21661 622.5725 863.39691 623.54747 C 863.20181 623.40167 863.29568 623.51907 862.39232 622.71858 C 859.68837 620.3222 854.54537 615.17915 845.12929 605.62195 C 829.7337 589.99551 824.71116 584.16616 823.5394 581.82185 C 816.49278 567.72413 818.31692 555.26463 829.79845 542.17931 C 838.84592 531.86805 843.28205 520.31783 843.30098 506.92461 C 843.31598 497.01413 840.45082 487.17928 835.08494 479.05241 C 833.17048 476.15288 831.52726 474.52951 828.78559 471.52729 C 826.0439 468.5251 822.71102 465.03312 819.40011 461.76355 C 816.14014 458.54424 812.90065 455.47752 810.14228 453.03591 C 808.76215 451.81424 807.538 450.77168 806.39419 449.88158 C 805.8425 449.4523 805.58686 449.30513 805.22992 449.06923 C 805.48769 449.29492 805.56813 449.32156 806.23554 450.01077 C 806.5131 450.29741 807.39317 451.42395 807.39258 451.42309 C 807.3923 451.42267 808.28519 452.99597 808.28503 452.99561 C 808.28501 452.99557 808.37513 453.30535 808.40234 453.39713 C 807.34418 450.81835 805.33719 448.74367 802.79493 447.60059 C 802.64478 447.53749 802.61084 447.49582 801.84821 447.24454 C 801.65753 447.18174 801.41891 447.10031 800.93767 446.98615 C 800.69706 446.92905 800.39566 446.85893 799.9274 446.7934 C 799.8936 446.7884 799.81262 446.7922 799.76669 446.7872 C 797.01929 446.10413 794.82812 446.02305 792.50305 446.06941 C 789.3479 446.13231 786.94328 445.82791 782.27473 448.00676 C 773.92397 451.90416 768.07717 461.71666 768.07715 471.27356 C 768.07715 474.82495 769.37167 480.34078 771.60096 483.92705 C 774.26403 488.21108 777.89236 492.10037 783.96455 498.33444 C 787.47636 501.93983 789.97171 504.45145 791.40957 506.20011 C 792.87607 507.98358 792.60539 508.00707 792.60382 507.61863 L 792.60382 507.62173 C 792.60282 507.19132 792.87826 507.22606 791.46073 508.94516 C 790.04642 510.66035 787.57838 513.12649 784.09374 516.67957 L 778.1308 522.76344 L 733.03433 477.44424 L 539.18983 282.64321 L 362.22957 104.80911 C 360.18654 102.75524 357.40917 101.60033 354.51221 101.6 L 315.71406 101.6 z M 805.22992 449.06923 L 805.22992 449.06871 C 805.00588 448.92066 804.59817 448.62162 804.49973 448.55867 C 804.43603 448.51787 804.39817 448.49257 804.48785 448.55247 C 804.55115 448.59437 804.62958 448.54347 805.2294 449.06923 L 805.22992 449.06923 z" style="display:inline;fill:#fff;fill-opacity:1;stroke:none;stroke-width:1"/></svg>