<svg xmlns="http://www.w3.org/2000/svg" xml:space="preserve" id="svg1" width="4608" height="3072" version="1.1" viewBox="0 0 1219.2 812.8"><defs id="defs1"><style id="style1">.cls-1{fill:#0283c0}.cls-2{fill:#fff}.cls-3{fill:#ef483f}</style></defs><path id="rect1" d="M 0,0 V 812.8 H 1219.2 V 0 Z" style="fill:#d0c030;fill-opacity:1;fill-rule:evenodd;stroke:none;stroke-width:8.46667;stroke-linecap:round;stroke-linejoin:round"/><path id="rect2" d="M 541.86667 0 L 541.86667 113.20808 C 462.95391 141.10825 406.39999 216.33234 406.4 304.8 C 406.56716 341.39655 416.60267 376.22462 434.25463 406.4 C 416.60267 436.57538 406.56716 471.40345 406.4 508 C 406.39999 596.46766 462.95391 671.69175 541.86667 699.59192 L 541.86667 812.8 L 558.8 812.8 L 558.8 704.79832 C 575.03668 708.97736 592.05879 711.2 609.6 711.2 C 627.14143 711.2 644.16365 708.97694 660.40052 704.79781 L 660.40052 812.8 L 677.33333 812.8 L 677.33333 699.59192 C 756.24609 671.69175 812.80001 596.46766 812.8 508 C 812.69449 471.41875 802.72194 436.59338 785.13761 406.4 C 802.72194 376.20662 812.69449 341.38125 812.8 304.8 C 812.80001 216.33234 756.24609 141.10825 677.33333 113.20808 L 677.33333 0 L 660.40052 0 L 660.40052 108.00219 C 644.16365 103.82306 627.14143 101.6 609.6 101.6 C 592.05879 101.6 575.03668 103.82264 558.8 108.00168 L 558.8 0 L 541.86667 0 z M 609.6 118.53333 C 627.21931 118.53333 644.24509 121.03265 660.40052 125.60422 L 660.4 328.84763 C 704.86417 341.45203 741.63513 369.6218 765.6096 406.4 C 741.63513 443.1782 704.86417 471.34797 660.4 483.95237 L 660.40052 687.19578 C 644.24509 691.76735 627.21931 694.26667 609.6 694.26667 C 591.98086 694.26667 574.95528 691.76726 558.8 687.19578 L 558.8 483.57255 C 514.49482 471.01335 477.82884 442.99299 453.84672 406.4 C 477.82884 369.80701 514.49482 341.78665 558.8 329.22745 L 558.8 125.60422 C 574.95528 121.03274 591.98086 118.53333 609.6 118.53333 z M 541.86667 131.29018 L 541.86667 317.34859 C 501.7309 331.53822 468.18815 357.4965 444.50672 390.51311 C 431.00126 364.65313 423.40456 335.43195 423.33333 304.8 C 423.33333 225.83296 472.49784 158.39219 541.86667 131.29018 z M 677.33333 131.29018 C 746.70216 158.39219 795.86667 225.83296 795.86667 304.8 C 795.85793 335.39848 788.33068 364.59831 774.90826 390.46195 C 751.21707 357.30717 717.59071 331.23994 677.33333 317.00701 L 677.33333 131.29018 z M 444.50672 422.28689 C 468.18815 455.3035 501.7309 481.26178 541.86667 495.45141 L 541.86667 681.50982 C 472.49784 654.40781 423.33333 586.96704 423.33333 508 C 423.40456 477.36805 431.00126 448.14687 444.50672 422.28689 z M 774.90826 422.33805 C 788.33068 448.20169 795.85793 477.40152 795.86667 508 C 795.86667 586.96704 746.70216 654.40781 677.33333 681.50982 L 677.33333 495.79299 C 717.59071 481.56006 751.21707 455.49283 774.90826 422.33805 z" style="fill:#000;fill-opacity:1;stroke:none;stroke-width:67.7333;stroke-miterlimit:128;paint-order:stroke fill markers"/></svg>