<svg xmlns="http://www.w3.org/2000/svg" xml:space="preserve" id="svg1" width="4608" height="3072" version="1.1" viewBox="0 0 1219.2 812.8"><defs id="defs1"><style id="style1">.cls-1{fill:#0283c0}.cls-2{fill:#fff}.cls-3{fill:#ef483f}</style></defs><path id="rect1" d="M 1219.2,0 V 812.8 H 0 V 0 Z" style="fill:#2060c0;fill-opacity:1;fill-rule:evenodd;stroke:none;stroke-width:8.46667;stroke-linecap:round;stroke-linejoin:round"/><path id="path12" d="M 610.38807 101.6 C 592.66665 118.53331 541.86661 135.46666 508 135.46667 C 474.13339 135.46668 439.98603 135.46665 423.33333 118.53333 L 372.53333 169.33333 C 372.53333 169.33333 406.4 203.20035 406.4 270.93333 C 406.4 338.66636 372.53335 338.66721 372.53333 440.26667 C 372.53332 541.86614 406.40098 609.60047 609.6 711.2 C 812.79896 609.60047 846.66662 541.86614 846.66667 440.26667 C 846.66672 338.6672 812.8 338.66636 812.8 270.93333 C 812.8 203.20035 846.66667 169.33333 846.66667 169.33333 L 795.7566 118.53333 C 778.9333 135.46665 745.0666 135.46666 711.2 135.46667 C 677.3334 135.46668 626.53328 118.53331 610.38807 101.6 z M 609.6 237.06667 C 712.47195 237.06666 795.86668 320.4614 795.86667 423.33333 C 795.86668 526.20528 712.47195 609.60001 609.6 609.6 C 506.72805 609.60001 423.33332 526.20528 423.33333 423.33333 C 423.33332 320.4614 506.72805 237.06666 609.6 237.06667 z M 609.6 287.86667 L 569.78744 368.53564 L 480.76342 381.47181 L 545.18171 444.26384 L 529.97489 532.92819 L 609.6 491.06667 L 689.22511 532.92819 L 674.01829 444.26384 L 738.43658 381.47181 L 649.41256 368.53564 L 609.6 287.86667 z" style="display:inline;fill:#ffe0c0;fill-opacity:1;stroke:none;stroke-width:.529167;stroke-linejoin:bevel;stroke-miterlimit:128;paint-order:stroke fill markers"/></svg>