<svg xmlns="http://www.w3.org/2000/svg" xml:space="preserve" id="svg1" width="4608" height="3072" version="1.1" viewBox="0 0 1219.2 812.8"><defs id="defs1"><style id="style1">.cls-1{fill:#0283c0}.cls-2{fill:#fff}.cls-3{fill:#ef483f}</style></defs><path id="rect1" d="M 0,0 V 812.8 H 1219.2 V 0 Z" style="display:inline;fill:#fff;fill-opacity:1;fill-rule:evenodd;stroke:none;stroke-width:8.46667;stroke-linecap:round;stroke-linejoin:round"/><path id="path2" fill="#e00000" d="M 3.6576e-4,-6.15985e-6 0,507.99997 H 101.59943 L 101.5998,-6.15985e-6 Z m 203.20037424,0 L 203.20037,507.99997 H 304.79981 L 304.80018,-6.15985e-6 Z m 203.19888,0 L 406.39925,507.99997 H 508.00019 L 508.00056,-6.15985e-6 Z m 203.20038,0 L 609.59963,507.99997 H 711.19907 L 711.19944,-6.15985e-6 Z m 203.20038,0 L 812.80001,507.99997 H 914.39945 L 914.39982,-6.15985e-6 Z m 203.19892,0 -4e-4,507.99997615985 h 101.6009 l 4e-4,-507.99997615985 z" paint-order="stroke fill markers" style="display:inline;stroke-width:1;fill:#b00020;fill-opacity:1"/><path id="path3" d="M 453.78938 67.750948 C 440.97586 67.363562 427.80333 73.441829 418.51434 82.800857 C 404.25613 101.88956 382.45496 93.321315 365.38026 84.078988 C 339.41478 73.718255 315.10156 92.925267 292.40655 102.90162 C 261.75687 119.39345 227.49362 131.2971 201.75259 155.4273 C 181.85988 172.85995 171.3433 199.58272 173.89932 225.90022 C 172.36162 236.29387 182.35554 254.60197 183.06776 233.51733 C 187.63853 250.98742 197.41183 268.2634 192.07704 286.8595 C 190.19507 304.59472 183.50979 321.35721 179.95064 338.66687 L -0.00024384015 338.66687 L 0.00010066961 541.867 L 812.80024 541.867 L 812.7999 338.66687 L 483.62772 338.66687 C 500.53006 330.18956 511.66104 312.89195 513.36683 293.81549 C 514.83233 282.80281 510.25374 264.31509 524.67399 278.42314 C 551.52774 294.99979 588.88142 299.46777 614.72918 278.54338 C 641.16535 257.59828 643.64669 218.53368 634.38071 188.35968 C 632.13731 176.64323 622.10395 172.98048 627.7296 187.75334 C 634.39853 216.34523 627.26307 252.39535 599.11566 266.80145 C 570.04752 278.14919 535.78503 263.97736 517.82892 239.77156 C 542.25574 256.18155 578.06427 265.02247 602.80639 244.38213 C 628.47558 221.23295 620.01485 176.7508 593.09776 158.0156 C 583.01699 150.90184 564.52424 138.53262 555.0787 143.56652 C 575.01038 152.67665 596.39895 166.00985 600.63253 189.38391 C 606.81467 208.99403 596.26579 235.85772 573.18372 236.34128 C 550.65464 239.48692 523.93542 227.02253 517.12199 204.46448 C 515.04158 176.08917 499.72154 150.61858 495.92465 122.68854 C 505.13191 103.89518 490.14336 86.658973 475.55 76.119435 C 469.03679 70.543555 461.47752 67.983375 453.78938 67.750948 z M 433.03577 207.29394 C 445.68489 223.74565 470.9298 221.13457 481.23648 240.0072 C 491.72056 259.37398 497.7152 283.49008 491.5542 305.14091 C 487.84409 323.24613 469.41055 318.61746 458.11057 320.27798 C 457.5666 325.58366 457.71011 333.0748 459.42522 338.66687 L 431.32873 338.66687 C 427.48235 332.49708 421.18302 291.07483 420.5435 259.13783 C 419.90398 227.20083 424.81031 220.06619 433.03577 207.29394 z M 328.36716 279.8818 C 334.99026 279.70965 339.70047 283.91215 335.06271 294.28644 C 333.00288 309.0132 325.99119 323.82514 324.0067 338.66687 L 288.53047 338.66687 C 287.21383 335.53211 285.59563 332.48709 283.60949 329.9115 C 276.19795 307.27838 296.13835 289.89784 315.98583 284.52785 C 319.7308 281.66312 324.39332 279.98509 328.36716 279.8818 z M 380.65892 281.36215 C 382.96865 281.43075 384.64998 284.35265 384.52501 291.98856 C 387.06033 307.47605 389.70674 323.01997 389.96413 338.66687 L 363.8589 338.66687 C 359.03642 324.79534 361.28617 309.54499 369.32662 296.17986 C 371.21444 289.05895 376.80937 281.24777 380.65892 281.36215 z M 244.83698 295.96179 C 250.11464 297.387 248.95027 319.61368 246.59123 326.79713 C 244.97159 330.74999 244.10508 334.77904 243.90405 338.66687 L 227.96806 338.66687 C 228.88565 326.30241 229.87172 313.69793 237.2178 302.7979 C 240.60291 297.32287 243.07776 295.48672 244.83698 295.96179 z M 169.33285 372.53287 L 186.11013 424.22484 L 240.6319 424.22484 L 196.51708 456.28802 L 213.3009 507.99996 L 169.33285 476.04496 L 125.36617 507.99996 L 142.14896 456.28802 L 98.03483 424.22484 L 152.55694 424.22484 L 169.33285 372.53287 z M 406.4 372.53287 L 423.17694 424.22484 L 477.69802 424.22484 L 433.58285 456.28802 L 450.36702 507.99996 L 406.4 476.04496 L 362.43298 507.99996 L 379.21611 456.28802 L 335.10095 424.22484 L 389.62306 424.22484 L 406.4 372.53287 z M 643.46715 372.53287 L 660.24306 424.22484 L 714.76483 424.22484 L 670.65001 456.28802 L 687.43383 507.99996 L 643.46715 476.04496 L 599.4991 507.99996 L 616.28292 456.28802 L 572.1681 424.22484 L 626.68987 424.22484 L 643.46715 372.53287 z" style="display:inline;fill:#103070;fill-opacity:1;stroke-width:.666667" transform="matrix(1.4999991,0,0,1.4999991,3.6576e-4,-6.1598501e-6)"/></svg>