<svg xmlns="http://www.w3.org/2000/svg" xml:space="preserve" id="svg1" width="4608" height="3072" version="1.1" viewBox="0 0 1219.2 812.8"><defs id="defs1"><style id="style1">.cls-1{fill:#0283c0}.cls-2{fill:#fff}.cls-3{fill:#ef483f}</style></defs><path id="rect1" d="M 0 0 L 0 812.8 L 1219.2 812.8 L 1219.2 0 L 0 0 z" style="fill:#00a0ff;fill-rule:evenodd;stroke:none;stroke-width:8.46667;stroke-linecap:round;stroke-linejoin:round;fill-opacity:1"/><path id="path2" fill="#fff" d="m 497.8395,101.6 c -20.319,13.755 -42.2145,52.197 -42.2145,52.197 a 627.66,627.66 0 0 1 62.13,19.368 l 22.4145,-14.6805 A 402.885,402.885 0 0 1 571.92,139.7255 C 571.8945,139.7 531.609,111.9755 497.8395,101.6 Z m 214.9485,40.641 c 0,0 -54.015,0.4575 -109.3725,27.051 a 356.0565,356.0565 0 0 0 -40.983,23.202 380.721,380.721 0 0 1 9.3975,4.9275 c 4.3695,2.3745 9.0045,5.0805 13.8435,7.989 a 240.9195,240.9195 0 0 1 39.954,30.684 C 656.832,222.8735 718.338,202.946 740.9055,196.367 730.7445,172.0475 712.788,142.241 712.788,142.241 Z m -336.8685,40.6395 c 0,0 29.5035,35.802 37.02,70.3575 7.5195,34.557 8.307,61.7355 3.6975,112.5225 22.7835,-26.01 51.549,-47.181 88.035,-68.2365 l 5.6895,-3.303 c 28.1175,-16.344 38.571,-22.44 63.678,-34.62 a 1377.615,1377.615 0 0 1 10.8975,-5.22 216.8775,216.8775 0 0 0 -32.487,-21.273 C 488.277,198.2225 407.3145,182.8805 375.9195,182.8805 Z m 467.361,40.6395 c 0,0 -22.3785,0 -38.748,1.7655 -24.1305,2.541 -53.4165,10.1595 -75.858,16.7895 -44.526,13.1955 -88.0485,30.378 -136.9695,54.09 -23.646,11.493 -33.0195,16.9545 -60.96,33.1845 l -5.715,3.39 c -41.8455,24.1305 -72.5025,50.8005 -93.7125,81.6615 -23.28,33.7695 -35.0775,73.2795 -35.0775,117.273 0,51.7395 19.9515,97.917 56.1855,130.0095 36.525,32.397 87.4005,49.5165 147.015,49.5165 59.385,0 110.349,-18.186 147.3195,-52.6155 36.0045,-33.465 55.8795,-80.505 55.8795,-132.45 0,-31.749 -7.86,-59.688 -15.4545,-86.637 -15.99,-56.757 -29.796,-105.78 31.38,-183.045 5.3475,-6.744 24.7155,-32.9325 24.7155,-32.9325 z" style="fill:#fff;fill-opacity:1;stroke-width:1"/></svg>