<svg xmlns="http://www.w3.org/2000/svg" xml:space="preserve" id="svg1" width="4608" height="3072" version="1.1" viewBox="0 0 1219.2 812.8"><defs id="defs1"><style id="style1">.cls-1{fill:#0283c0}.cls-2{fill:#fff}.cls-3{fill:#ef483f}</style></defs><path id="rect1" d="M 0 0 L 0 812.8 L 1219.2 812.8 L 1219.2 0 L 0 0 z" style="fill:#ffd000;fill-rule:evenodd;stroke:none;stroke-width:8.46667;stroke-linecap:round;stroke-linejoin:round;fill-opacity:1"/><path id="path2" fill="#194619" d="m 611.4105,512.27005 a 0.12600002,0.12600002 0 0 0 -0.0495,0.0135 c -0.6165,0.279 -3.8595,4.5045 -7.515,9.825 -5.1675,7.5285 -7.9635,10.413 -10.362,10.7355 -1.8105,0.243 -3.852,0.987 -4.542,1.6515 -2.256,2.1735 -3.261,1.317 -4.17,-3.7155 -0.492,-2.7255 -1.485,-6.144 -2.229,-7.596 -2.2365,-4.368 -7.875,-11.364 -8.5875,-10.653 -0.366,0.366 0.0375,1.5105 0.9075,2.559 2.055,2.475 1.359,15.6165 -0.867,16.35 -0.9075,0.3 -1.65,-0.342 -1.65,-1.404 0,-1.0605 -0.89251,-2.646 -1.98301,-3.5505 -1.623,-1.347 -1.9815,-1.26 -1.9815,0.495 0,1.179 -0.8925,2.148 -1.9815,2.148 -1.188,0 -1.9815,-1.2345 -1.9815,-3.0555 0,-4.2 -2.5485,-6.63 -4.914,-4.665 -1.4175,1.176 -2.919,0.4095 -7.0185,-3.5925 -5.5125,-5.3835 -5.985,-5.1705 -4.005,1.734 1.032,3.597 0.8295,4.509 -1.2375,5.616 -3.27,1.7505 -3.9645,1.6575 -3.9645,-0.495 0,-1.446 -9.1725,-8.754 -10.983,-8.754 -0.252,0 -0.183,1.704 0.1245,3.798 0.81,5.5275 -1.9215,6.321 -6.606,1.941 l -4.0455,-3.7575 0.825,4.2945 0.8265,4.293 -3.882,-1.9815 c -5.28,-2.73 -5.55,-2.592 -5.0775,2.313 0.36,3.7455 1.425,4.833 8.34,8.5455 13.512,7.2525 36.2475,13.998 52.80601,15.69 l 7.6365,0.783 1.5705,0.165 c 25.065,1.7715 51.798,-0.741 73.77751,-13.5825 -0.9495,-0.0315 -1.2795,-0.936 -0.783,-2.2305 0.708,-1.845 0.222,-2.1 -3.2625,-1.4025 -5.73,1.146 -6.438,-0.9285 -2.3535,-7.101 l 3.4695,-5.244 -9.24901,4.665 c -5.1,2.568 -9.765,4.524 -10.3215,4.3755 -0.555,-0.147 -2.355,0.2115 -4.0455,0.786 -1.6905,0.573 -3.399,0.771 -3.7575,0.4125 -0.963,-0.9615 4.1385,-10.4565 8.3805,-15.6075 4.287,-5.2035 2.1945,-3.8175 -9.66,6.36 -7.3245,6.2865 -13.053,9.66 -16.4325,9.66 -1.6245,0 -1.6065,-10.068 0.0405,-15.813 0.7155,-2.49 1.101,-4.7205 0.8265,-4.995 a 0.04350001,0.04350001 0 0 0 -0.033,-0.0135 z m -183.48302,11.073 c -0.774,0 -1.674,4.4385 -3.0135,13.335 -1.3425,8.919 -2.90551,17.0445 -3.46801,18.084 -0.735,1.3605 -1.995,-0.0105 -4.5,-4.9545 -1.917,-3.78 -4.6215,-8.7375 -5.988,-10.983 l -2.4765,-4.0455 -1.1145,7.02 -1.1145,7.0185 -5.2845,-7.2255 -5.286,-7.185 -0.66,5.781 -0.66,5.7795 -5.739,-4.7895 c -3.1575,-2.643 -5.928,-4.788 -6.1515,-4.788 -0.2235,0 0.426,2.766 1.4445,6.15 3.2445,10.782 2.6385,12.015 -3.303,6.648 -2.8425,-2.568 -6.426,-5.3265 -7.968,-6.1515 -2.58,-1.38 -2.76,-1.248 -1.9815,1.8585 0.465,1.854 0.4545,3.384 -0.042,3.384 -0.495,0 -4.4055,-3.3645 -8.7105,-7.4715 -8.325,-7.9395 -8.667,-7.7925 -6.5235,3.51 0.7305,3.849 1.1685,7.2105 0.9495,7.4295 -0.219,0.2205 -3.3375,-0.5175 -6.936,-1.6095 -3.60001,-1.092 -8.83951,-2.499 -11.64301,-3.138 l -5.1195,-1.155 3.468,3.591 c 1.8945,1.98 3.426,3.9405 3.426,4.377 0,0.435 -5.2065,-0.606 -11.559,-2.3535 -13.9245,-3.831 -13.986,-3.8385 -12.2625,-0.6195 1.524,2.847 1.125,3.222 -4.5825,4.6245 l -3.9645,0.99 6.606,2.601 c 9.735,3.8385 10.176,5.04 1.899,5.079 -7.4505,0.036 -19.557,4.353 -15.771,5.6145 1.0905,0.363 7.332,1.3695 13.872,2.229 6.54,0.861 14.8635,2.277 18.495,3.1395 l 6.6075,1.5675 -6.276,0.372 c -3.45,0.222 -6.276,1.05 -6.276,1.8165 0,1.28851 -2.79,0.9855 -9.5775,-1.032 -1.5225,-0.4515 -2.3115,0.015 -2.3115,1.404 0,1.80751 -1.26,2.00701 -8.754,1.23901 -8.517,-0.87301 -8.7225,-0.82801 -7.845,1.9395 1.0425,3.279 1.11,3.261 -9.246,1.4865 a 1928.2653,1928.2653 0 0 0 -12.4695,-2.106 l -4.62451,-0.7425 3.71701,3.9225 3.756,3.9225 -5.0775,1.2795 -5.03701,1.2795 3.96301,1.6095 c 5.16,2.1 14.478,3.7845 28.4055,5.121 l 11.2305,1.0725 -4.626,2.1465 -4.623,2.106 4.7475,0.1245 c 2.6025,0.06 11.223,-1.077 19.158,-2.52 19.605,-3.5625 22.96501,-3.375 14.409,0.744 -8.262,3.9795 -6.243,3.9795 11.22901,0 7.6305,-1.737 14.124,-2.9235 14.409,-2.6415 0.285,0.282 -0.264,1.4355 -1.197,2.559 -1.3965,1.6845 -1.3905,1.899 0.1245,1.362 3.984,-1.4115 25.3605,-7.308 26.4645,-7.308 2.802,0 0.7005,2.595 -5.1195,6.4005 -3.4515,2.2575 -5.5245,4.1205 -4.6245,4.128 3.5865,0.0345 27.816,-8.4075 34.02,-11.8485 3.633,-2.0145 8.38951,-4.053 10.56901,-4.542 2.1795,-0.489 5.004,-1.191 6.276,-1.5675 1.6785,-0.4995 2.3115,0.0405 2.313,2.022 0,1.503 0.237,2.766 0.5355,2.766 0.3,0 5.205,-0.8925 10.9005,-1.9815 11.682,-2.235 14.9865,-2.448 14.9865,-0.9495 0,1.7685 -7.998,5.85 -17.7525,9.0825 l -9.3315,3.0975 7.8855,-0.867 c 4.335,-0.4725 17.415,-2.7675 29.0655,-5.121 11.652,-2.352 21.4125,-4.0755 21.675,-3.8385 0.2655,0.237 -1.4805,1.596 -3.8805,3.0555 l -4.3755,2.6835 10.4865,0.372 c 11.36401,0.426 11.41501,0.195 -1.404,5.7375 -2.907,1.257 -4.5285,2.5605 -3.5925,2.8905 1.479,0.5205 12.30451,-0.9735 22.75051,-3.138 3.0645,-0.6345 2.97,-0.3945 -1.3215,3.345 -4.5375,3.9525 -4.563,4.053 -1.3215,4.0875 1.815,0.0195 7.9695,-0.852 13.665,-1.941 13.419,-2.568 19.365,-2.58 19.365,-0.042 0,1.068 -1.635,2.7975 -3.6345,3.882 -4.464,2.421 -2.925,2.5245 8.67,0.537 4.974,-0.8535 10.101,-1.158 11.3955,-0.6615 2.1855,0.8385 2.208,1.1385 0.2475,4.128 l -2.1045,3.2205 6.234,-1.899 c 3.444,-1.044 6.423,-1.89 6.6045,-1.899 0.183,-0.007 0.33,1.1895 0.33,2.643 0,3.471 0.23101,3.417 8.67151,-1.9815 8.3325,-5.331 9.825,-5.631 9.825,-1.983 0,3.156 0.024,3.1335 4.7085,0.702 2.028,-1.0515 4.191,-1.6065 4.788,-1.2375 2.451,1.515 0.705,4.569 -5.862,10.2795 -5.661,4.923 -6.4005,6.0435 -4.0875,6.069 5.067,0.0585 19.7865,-5.16 22.2525,-7.8855 1.323,-1.461 3.5595,-2.6415 4.9965,-2.6415 1.437,0 4.635,-1.284 7.101,-2.808 6.234,-3.8535 8.9205,-2.541 7.845,3.798 l -0.867,4.9545 3.0135,-3.345 c 1.653,-1.839 4.011,-4.812 5.244,-6.606 l 2.271,-3.261 0.0405,3.18 0.0825,3.2205 3.2205,-3.015 c 3.37501,-3.1695 6.02701,-2.745 6.02701,0.9495 0,1.737 0.447,1.569 2.0655,-0.7425 1.9845,-2.835 2.136,-2.844 5.532,-0.6195 3.33,2.1825 3.4425,2.1945 2.601,0 -1.0875,-2.832 1.3335,-3.0075 4.872,-0.33 1.8045,1.365 3.0225,1.524 4.212,0.537 1.1325,-0.942 3.198,-0.9675 6.399,-0.0825 3.2025,0.8835 4.7055,0.843 4.7055,-0.084 0,-1.2855 7.686,-0.7125 15.525,1.1565 2.43,0.5805 2.826,0.312 2.1045,-1.569 -0.795,-2.076 -0.2145,-2.2275 5.616,-1.4025 3.567,0.504 7.677,1.2645 9.1245,1.692 2.394,0.705 2.445,0.582 0.66,-1.569 -1.7925,-2.16 -1.74,-2.2875 0.7845,-1.485 2.748,0.87 22.43401,4.788 24.07051,4.788 0.4725,0 -1.44,-1.635 -4.2525,-3.633 -5.955,-4.23 -4.575,-4.929 6.3165,-3.2205 6.6585,1.044 7.704,0.876 8.835,-1.239 1.2315,-2.301 1.5255,-2.2845 7.4325,0.2475 4.5135,1.935 6.399,2.2095 7.101,1.074 0.675,-1.092 3.1755,-0.24 8.505,2.808 6.963,3.984 7.473,4.0875 6.6465,1.485 -1.0365,-3.2655 0.84,-3.741 3.261,-0.825 1.23,1.482 2.136,1.6095 3.4275,0.537 0.96,-0.795 3.0045,-1.038 4.5825,-0.537 1.821,0.5775 3.27,0.297 3.9645,-0.825 0.8475,-1.374 1.98601,-0.9435 4.99501,1.9395 2.5845,2.4765 4.047,3.1365 4.4175,2.0235 0.4335,-1.2975 1.839,-1.1475 6.1515,0.5775 7.011,2.805 7.2795,2.793 6.441,-0.4125 -0.78,-2.9805 0.042,-3.231 4.9545,-1.3635 2.4255,0.9225 4.173,0.8445 5.9865,-0.288 2.0145,-1.257 2.94,-1.2705 4.2105,0 2.1795,2.178 3.717,2.0415 3.717,-0.33 0,-1.566 0.678,-1.6545 3.51,-0.5775 2.433,0.924 3.8175,0.885 4.416,-0.084 1.284,-2.0745 28.86451,-2.4525 30.13951,-0.4125 2.5035,4.0035 18.12,7.755 16.68,4.005 -0.8805,-2.295 19.131,-7.4625 27.951,-7.2255 5.154,0.1395 8.151,-0.696 12.882,-3.468 3.39,-1.986 6.1515,-3.7995 6.1515,-4.0455 0,-0.2475 -2.229,0.348 -4.9545,1.32 -3.324,1.1865 -11.2605,1.7505 -24.1125,1.695 l -19.155,-0.084 9.9075,-1.8165 c 5.4495,-0.987 13.476,-3.0645 17.8365,-4.6245 8.373,-2.9925 23.496,-10.5225 22.707,-11.3115 -0.255,-0.2565 -8.91,1.3275 -19.1985,3.51 -10.2885,2.1795 -20.037,3.93 -21.675,3.921 -1.953,-0.0105 1.707,-2.79 10.611,-8.0925 7.4715,-4.4475 13.3815,-8.292 13.128,-8.5455 -0.2535,-0.255 -4.5825,0.705 -9.6195,2.145 -13.695,3.918 -15.135,3.315 -6.276,-2.5995 7.086,-4.73251 13.7535,-10.61101 12.015,-10.61101 -0.381,0 -6.795,1.7925 -14.244,4.005 -7.449,2.2125 -13.785,3.7605 -14.1195,3.4275 -0.333,-0.333 0.3795,-2.1675 1.611,-4.047 2.796,-4.266 2.0205,-4.257 -4.1295,-0.0825 -2.6775,1.8165 -5.679,3.303 -6.6885,3.303 -1.0095,0 -5.4225,1.803 -9.78451,4.00501 -17.4825,4.443 -35.238,6.753 -53.0955,6.3585 -6.9705,-0.555 -18.8835,-7.55701 -22.83001,-8.01001 -0.381,-1.4535 -6.663,1.61101 -7.887,1.61101 -1.2225,0 -3.261,-1.31101 -4.5405,-2.89051 l -2.313,-2.8905 -4.0455,2.8905 c -5.151,3.66751 -5.247,3.63451 -6.3165,-1.239 l -0.867,-4.0875 -2.4375,3.9645 c -3.492,5.74351 -5.2425,6.37051 -5.2425,1.899 0,-2.091 -0.948,-6.963 -2.106,-10.86 l -2.106,-7.101 -3.261,6.525 c -1.8,3.582 -4.122,7.3575 -5.16,8.421 -1.6515,1.692 -1.9005,1.59 -1.9005,-0.99 0,-2.535 -0.483,-2.8245 -3.5085,-2.0655 -3.087,0.7755 -3.3945,0.5505 -2.4765,-1.65 0.5745,-1.38 2.124,-5.295 3.468,-8.712 l 2.4765,-6.1935 -8.6295,6.0285 c -4.7445,3.315 -8.9445,5.754 -9.2895,5.409 -0.345,-0.345 0.0165,-2.3145 0.7845,-4.335 1.155,-3.033 -0.135,-2.2005 -7.4715,4.665 l -35.59051,19.94101 -26.052,11.931 c -3.276,1.932 -8.823,5.1405 -13.128,6.0705 -8.74951,1.887 -17.01151,2.307 -41.94751,2.2695 -27.9255,-0.042 -33.1695,-0.4065 -52.06201,-3.7155 -11.553,-2.0235 -26.514,-5.055 -33.2775,-6.771 -28.97101,-7.35 -57.79501,-26.05801 -70.64101,-45.87001 -4.818,-7.4295 -4.9305,-7.536 -7.2675,-4.9545 -2.3565,2.6055 -2.4,2.604 -6.1095,-0.948 -3.57,-3.42 -3.7155,-3.4305 -3.7155,-0.744 0,1.5465 -0.522,3.117 -1.155,3.51 -0.636,0.39 -1.578,-4.473 -2.1075,-10.818 -0.741,-8.898 -1.3725,-13.335 -2.145,-13.335 z" style="stroke-width:1;fill:#205020;fill-opacity:1"/><path id="path4" d="m 473.83798,101.59999 c -17.274,3.912 -6.111,46.35301 3.8355,20.91 18.4515,4.3905 31.25251,34.35601 1.8615,30.52051 -19.47,1.674 -58.49551,-17.223 -65.14201,-1.4835 12.54001,8.3625 52.69501,-7.719 62.44501,15.36 21.69001,7.482 46.30051,-6.087 69.46051,0.004 44.86501,1.9335 89.41651,33.87 95.85001,80.12701 8.91301,28.467 -29.595,3.4095 -45.459,6.9285 -34.36201,-3.4845 -78.79801,3.15 -93.93451,38.80501 -13.00501,19.7025 10.185,37.4865 7.3815,53.154 -28.71301,12.73201 -45.63751,50.06701 -31.04251,79.03351 19.45501,23.46451 -28.7265,33.32401 -32.5635,55.88701 -20.4915,32.68951 -4.9785,76.53001 26.4225,95.85001 39.12601,25.85251 88.03501,30.35701 133.71002,31.92301 50.24551,1.14 102.55201,-18.213 132.28052,-60.33901 12.594,-4.569 29.8575,22.3485 46.8345,26.895 28.81201,17.28001 66.56701,18.44851 94.84802,-0.6615 17.157,-11.844 37.7865,-31.32 33.42,-53.8755 -27.1155,-7.4595 -35.0415,36.8805 -64.08601,34.0725 -31.6995,6.57 -56.73451,-17.0115 -78.48001,-36.231 -17.082,-12.324 3.573,-36.70801 -4.614,-55.38301 -2.7675,-20.97 -11.367,-40.87351 -23.877,-57.58801 -5.7225,-28.0095 2.49,-60.45451 -20.373,-83.16601 -16.24801,-16.9605 -33.43051,-30.747 -30.17251,-56.33551 -9.147,-56.73 -49.04401,-112.13401 -106.62301,-126.28051 -28.70701,-0.276 -52.06501,-17.37451 -77.08501,-25.99051 -11.86951,-3.3555 -22.82701,-9.4125 -34.89751,-12.135 z m 0.207,3.882 c 23.55751,10.2015 50.14651,13.284 70.48951,30.88651 a 906.84012,906.84012 0 0 1 24.864,9.15 c -6.441,9.0345 10.32301,4.7445 0.297,0.1125 15.27301,5.874 30.18751,12.105 44.29051,18.5865 -10.695,14.34 7.473,13.6125 1.188,0.5505 1.848,0.855 3.7095,1.7055 5.5275,2.568 7.3485,18.18 -0.228,33.795 19.668,40.54501 5.181,-5.74501 8.32801,15.9285 17.02201,5.7735 10.8345,8.085 22.53,21.978 4.0545,22.9455 -16.75051,15.714 0.462,36.657 13.902,38.3655 2.826,-9.0345 -7.9725,-53.403 1.983,-23.223 5.97,13.698 -8.2425,32.96401 8.2155,35.16751 -0.765,6.759 -3.8055,5.556 -7.548,3.0675 3.3015,11.16 -16.3605,42.225 -13.4595,30.708 6.627,-9.345 7.3335,-21.2805 12.744,-31.194 -5.4,-3.7095 -12.03,-9.207 -15.75,1.8255 -15.30901,14.145 -1.0125,25.215 -8.2485,40.9035 -10.40851,-6.2205 -25.55101,-4.221 -10.03801,-11.04 -9.639,-0.978 14.20951,-16.29 8.83501,-29.4375 8.115,-17.12551 -3.8385,-44.22451 -11.73451,-57.28201 -12.6975,-43.61251 -56.6265,-69.47251 -99.96301,-72.79201 -4.9695,5.7525 -17.8785,-9.249 -12.9975,1.407 -12.0555,-2.217 -40.38001,5.799 -41.78551,1.845 12.42751,-2.637 14.72401,-9.051 12.71101,-9.9525 31.4205,-10.155 -17.17951,-29.64751 -26.19151,-41.55301 -2.124,-2.61 -0.876,-6.405 1.9245,-7.935 z m 203.23803,184.00953 c 0.237,0.1635 0.483,0.33 0.7155,0.486 a 6.4020009,6.4020009 0 0 0 -0.411,-1.0605 c -0.1065,0.189 -0.201,0.384 -0.3045,0.5745 z M 467.81098,114.81049 c 1.6005,9.915 -6.2385,10.8105 0,0 z m 4.335,3.8805 c 3.969,9.867 -8.7915,10.92 0,0 z m 39.88201,2.601 c -3.4095,15.03451 24.3345,13.89151 4.587,2.9385 -1.6065,-0.858 -3.099,-1.8915 -4.587,-2.9385 z m 20.85,15.81301 c -1.716,8.115 9.4575,1.236 0,0 z m 24.69,4.5 c -17.61,1.248 6.483,16.338 2.5665,7.71 13.82251,11.9985 2.325,-3.1575 -2.5665,-7.71 z m 28.39951,1.845 c 12.99,-0.225 13.6095,12.057 -1.3245,4.182 -3.303,-0.0435 -8.073,-4.4505 -1.4355,-3.963 a 23.040003,23.040003 0 0 1 2.76,-0.2205 z m -38.68051,7.404 c -15.3855,12.798 11.892,14.643 0,0 z m 28.19851,2.064 c -8.31601,3.942 5.5515,7.647 0,0 z m 4.914,1.8585 c -8.88301,17.73 25.83,6.195 2.532,6.471 -1.4025,-2.0085 -0.207,-4.9665 -2.532,-6.471 z m -25.51501,0.7845 c -6.573,4.203 8.1675,1.3335 0,0 z m 7.803,0.66 c -5.04,7.7265 9.69901,2.796 0,0 z m 8.34,0.042 c -7.5855,9.081 8.92051,11.2455 0,0 z m 26.13451,4.623 c -2.9295,3.753 5.028,1.962 0,0 z m 8.298,1.3635 c -2.895,7.626 8.0715,4.257 0,0 z m -10.281,2.8485 c -8.2305,4.6755 8.745,4.194 0,0 z m 29.397,1.6095 c 13.518,8.6955 38.76001,36.978 35.55451,42.47401 C 649.66951,193.8665 633.249,183.35 624.576,166.7075 Z m -22.212,3.84 c -6.165,1.767 3.63,3.4035 0,0 z m -1.941,4.83 c -3.0825,3.009 4.8675,2.2095 0,0 z m 13.9545,4.005 c -3.675,5.925 4.902,2.16 0,0 z m 2.271,6.5655 c -6.321,4.161 4.521,1.974 0,0 z m 13.5825,17.175 c -7.278,4.84951 6.9945,2.75701 0,0 z m 6.03,9.28951 c -7.4175,2.565 4.839,3.213 0,0 z m 5.2005,0.2475 c -5.3925,5.526 7.62901,2.649 0,0 z m 14.49151,6.441 c -5.61,6.855 8.637,4.6395 0,0 z m -8.835,2.724 c -2.66101,4.335 6.69,8.052 0,0 z m -4.99501,0.249 c -4.428,7.251 7.19551,7.533 0,0 z m 18.99001,2.187 c -1.449,5.739 6.5415,4.6425 0,0 z m -3.84,1.3215 c -6.783,3.999 6.9165,4.3635 0,0 z m -2.9295,4.6245 c -2.3715,10.743 8.037,10.41 0,0 z m -2.85,5.1195 c -6.04951,7.089 7.7115,8.205 0,0 z m -49.79101,25.9275 c 10.98,2.466 32.4375,7.2945 34.9995,15.468 -11.0955,-5.685 -40.8975,-14.9205 -17.5545,2.9265 22.503,26.86501 -25.17,10.98001 -39.0795,9.84301 -11.62201,-1.179 -18.82501,-0.351 -23.51101,-1.482 -15.8025,15.3825 -17.025,-16.24651 -20.913,-22.37701 16.278,-10.4025 12.69,21.61501 32.34,19.27201 17.34601,9.285 36.82051,-11.06701 33.72001,-23.65051 z m -15.813,2.808 c 8.997,7.4355 -55.39351,3.9105 -16.62001,0.6945 5.53501,-0.3405 11.07451,-0.6225 16.62001,-0.6945 z m 20.52,6.4815 c -2.9295,3.753 5.028,1.962 0,0 z m -60.73351,1.281 c -7.98,4.92 7.3755,4.0995 0,0 z m 115.77002,0.2055 c -10.041,5.967 9.588,7.6005 0,0 z m 6.4395,2.436 c -5.838,5.85901 4.692,4.8165 0,0 z m -68.41201,0.1245 c -4.329,5.69701 10.074,2.0475 0,0 z m -63.21001,0.081 c -4.311,10.14301 -21.048,24.10351 -7.218,6.24751 2.0235,-2.44501 4.14,-5.07451 7.218,-6.24751 z m 12.7995,3.7575 c -8.175,3.00751 6.351,6.38551 0,0 z m 110.97752,1.32 c -8.316,3.94201 5.5515,7.64851 0,0 z m -63.91051,0.042 c 2.3295,7.04551 9.3,-0.2715 0,0 z m 21.51,2.64301 c -5.2905,3.2535 7.4475,2.499 0,0 z m -10.4055,0.5775 c -5.3685,7.548 9.576,0.639 0,0 z m -96.36151,1.611 c -2.088,28.578 51.4755,0.78 24.9555,26.7645 -16.0275,-7.674 -24.183,4.506 -24.369,20.295 -13.7715,-13.44 -6.87,-31.8615 -0.5865,-47.0595 z m 83.02651,0.4125 c -5.7645,3.411 5.607,3.1935 0,0 z m -43.59751,1.32 c -5.8905,5.067 5.022,2.943 0,0 z m 51.52501,0.1245 c -3.4485,4.905 6.996,2.385 0,0 z m 13.542,1.734 c -4.68,5.3085 7.2,2.352 0,0 z m 72.49951,7.3905 c 8.157,13.221 -18.1215,44.313 -5.2875,14.061 1.4235,-4.7895 2.3025,-9.9 5.2875,-14.061 z m -120.38702,0.4395 a 46.755006,46.755006 0 0 1 7.01251,0.4695 c 18.57,2.6025 61.2915,-1.137 60.795,20.2455 -18.036,18.7035 -51.3795,17.121 -74.01301,9.255 -24.7815,-13.275 -15.24,-29.7345 6.2055,-29.97 z m -56.154,0.882 c -8.5485,6.3555 8.3235,6.786 0,0 z m 24.606,5.2845 c -12.177,11.403 9.603,4.86 0,0 z m -19.074,1.3215 c -9.945,3.8565 4.116,6.303 0,0 z m 8.34,0 c -5.766,3.411 5.6055,3.192 0,0 z m -16.6395,1.815 c -6.225,2.9775 4.02,5.421 0,0 z m -1.197,6.111 c -5.9145,6.9 7.6725,7.383 0,0 z m 15.813,3.9645 c 10.9095,7.3365 35.4765,36.7455 10.3275,13.7295 -4.17,-3.81 -9.636,-7.6425 -10.3275,-13.7295 z m 125.63552,3.0555 c -5.26501,5.292 7.0395,5.235 0,0 z m 63.621,3.5505 c 6.564,9.189 23.05501,30.8355 15.54601,37.23751 -11.86501,-28.00201 -33.45751,29.91 -34.49551,-3.8835 -8.718,-14.79301 -19.2225,-33.74851 2.286,-15.32251 8.7285,-1.26 20.319,8.9445 16.3305,-9.6585 l -0.0585,-4.578 z m -63.0435,3.963 c -5.62051,2.7195 5.112,2.4315 0,0 z m 21.717,1.8165 c 14.463,11.1 -28.28101,34.86601 -13.242,9.936 -1.3755,-8.172 7.7175,-9.1215 13.242,-9.936 z m -117.42002,1.2795 c 22.98451,1.4055 22.09501,12.2115 3.489,17.85 -0.9405,13.53001 24.92251,23.17951 16.56601,30.84301 30.12,-6.6315 -9.37501,14.7675 -16.87501,1.179 -5.292,10.7775 -31.3455,7.851 -17.628,-4.959 -8.3325,-19.58101 25.1115,-0.846 26.199,2.436 3.951,-18.624 -45.975,-22.20451 -36.5265,-31.56001 12.5295,7.2975 32.709,0.855 24.7755,-15.789 z m 116.96552,1.1565 c -10.665,1.608 3.519,7.1145 0,0 z m -50.12251,2.8905 c -1.485,2.271 -2.382,4.815 -2.7825,7.4325 -0.0255,-0.015 -0.039,-0.027 -0.066,-0.042 -2.802,1.6575 -1.548,2.442 -0.171,2.46 -0.456,12.46651 9.858,25.26001 23.4075,17.77201 -8.532,11.433 -42.7425,14.1795 -41.9115,5.925 a 23.755503,23.755503 0 0 0 4.155,-1.6605 c -4.5795,5.001 7.749,9.327 7.914,-3.8535 -1.9905,0.5235 -3.573,1.11 -4.8345,1.7205 9.087,-8.46451 -6,-23.17951 -9.798,-24.25051 8.3025,0.036 16.59,-1.9875 24.087,-5.505 z m -59.57701,0.7845 c -8.175,3.0075 6.351,6.3855 0,0 z m 101.31752,0.123 c -6.8805,8.3385 12.042,6.123 0,0 z m -94.79252,1.1985 c -5.8905,5.0655 5.02201,2.9415 0,0 z m 83.93552,1.815 c -2.37,11.82 -42.45901,18.59401 -16.23451,8.982 5.652,-2.568 10.41,-6.747 16.23451,-8.9805 z m 66.6765,0.8265 c -5.7645,3.411 5.60701,3.192 0,0 z m -40.296,0.414 c 18.477,13.527 -0.018,27.78301 -8.0025,10.0395 1.8405,-3.9375 5.661,-6.4425 8.0025,-10.0395 z m -69.36001,2.229 c -5.7645,3.411 5.607,3.192 0,0 z m 52.18501,2.6415 c -6.6555,3.1905 6.33,2.3145 0,0 z m -46.61101,1.3215 c -6.321,4.1625 4.5195,1.974 0,0 z m 109.36802,0 c -9.35701,9.231 10.755,9.2325 0,0 z m -23.90551,0.2895 c -12.669,3.6855 5.502,8.3925 0,0 z m 19.1565,0.2055 c -6.225,2.9775 4.02001,5.421 0,0 z m -10.4445,2.19 c -3.675,5.922 4.9005,2.1585 0,0 z m -188.72102,0.783 c 21.555,7.21201 -12.27,11.38951 0,0 z m 184.17902,0.4545 c -4.794,2.976 5.172,5.415 0,0 z m -139.01252,0.9495 c 10.23001,4.3005 56.24101,5.60401 22.72951,6.56101 -7.86,-0.405 -16.47001,-1.23451 -22.72951,-6.56101 z m -16.2255,1.734 c -10.8885,5.14651 8.211,9.84751 0,0 z m -37.7355,1.32 c 5.016,3.34051 -5.3445,4.20001 0,0 z m 187.56452,1.5705 c -7.395,9.82051 7.9125,5.51701 0,0 z m 8.4645,0 c -1.953,3.90751 2.118,3.44851 0,0 z m -150.28352,0.2475 c -6.6,5.43001 6.966,5.57551 0,0 z m -26.67,2.93101 c -9.1575,8.691 -44.37601,43.98 -23.3895,14.973 6.2325,-6.99 14.355,-12.384 23.388,-14.973 z m 188.18402,1.941 c 1.314,14.2515 7.57501,34.11 -2.352,45.294 2.007,-15.027 0.246,-30.276 2.352,-45.294 z m -64.2615,1.1625 c 11.4075,0.12 42.2085,16.2435 28.8915,14.64 -9.855,-5.6595 -22.503,-6.327 -30.8955,-14.4405 0.57,-0.144 1.2435,-0.207 2.004,-0.1995 z m -36.14851,0.24 c -11.9355,7.9725 12.78,4.1595 0,0 z m 8.628,1.611 c -6.1635,1.767 3.63,3.4035 0,0 z m -132.90002,2.355 c 2.9475,10.182 -9.129,40.461 13.38001,27.333 14.469,-6.441 28.9155,-5.526 18.546,10.0695 -4.305,14.3205 4.332,27.51 -13.542,14.697 -9.12,-12.7845 -17.44951,-3.102 -23.54701,2.067 -12.7575,-25.092 8.016,29.68951 -5.9895,6.15 -8.0595,-19.431 -7.7595,-47.1525 11.1525,-60.318 z m 154.28253,1.359 c 3.132,11.862 21.645,32.805 -2.56951,27.2265 -11.0115,-1.7475 -29.2515,-24.5055 -27.441,-9.732 -18.06,-16.1775 31.75051,-3.5355 30.01051,-17.4945 z m -102.51002,1.1175 c -5.6205,2.718 5.112,2.4315 0,0 z m -0.7425,5.2845 c -11.358,3.09 12.0705,0.771 0,0 z m 11.643,0 c -12.381,2.151 2.0595,6.39 0,0 z m -71.13751,4.4175 c -6.165,1.7655 3.63,3.402 0,0 z m 156.14552,0.33 c -7.4475,8.7795 11.69401,3.669 0,0 z m -96.90001,1.941 c -9.18,0.3195 -2.709,5.169 1.1805,1.041 z m 152.38952,2.064 c 11.9325,5.253 19.461,43.695 30.66301,16.3755 3.9,-18.6075 10.9455,-11.406 4.071,2.361 -1.968,11.1345 -22.83001,45.03301 -19.70101,14.9835 -11.658,1.8105 -45.9495,14.7855 -25.56,-8.3445 4.6755,-7.908 8.289,-16.4595 10.527,-25.3755 z m -46.2405,0.495 c -7.11001,3.705 5.034,3.897 0,0 z m 37.4475,0 c 11.0715,19.854 -24.0525,33.927 -21.816,12.303 6.495,-5.397 16.014,-5.982 21.816,-12.303 z m -57.43051,0.042 c -2.9295,3.7515 5.028,1.9605 0,0 z m 10.941,2.6415 c 0.519,7.2 9.58501,0.327 0,0 z m -73.90801,1.911 a 65.428509,65.428509 0 0 1 7.84501,0.27 327.60004,327.60004 0 0 1 8.922,-0.117 c 31.755,-0.3135 65.46451,5.4195 90.89401,25.743 -11.5545,30.51001 -46.52851,20.82001 -69.85801,14.298 -23.616,-7.836 -58.22251,7.64401 -74.75551,-8.3085 -6.798,-23.076 17.664,-31.437 36.9525,-31.8855 z m 116.51552,2.301 c -8.9805,5.0055 6.0915,4.4025 0,0 z m -199.49703,1.0305 c -5.6205,2.7195 5.112,2.433 0,0 z m 167.79003,0 c -5.76601,3.411 5.6055,3.1935 0,0 z m 24.648,4.1295 c -18.6405,5.859 12.3135,6.87 0,0 z m -171.05102,0.123 c -8.70151,9.1545 13.923,2.3595 0,0 z m -25.55701,1.116 c -5.178,12.5925 13.581,11.9655 0,0 z m 16.041,2.412 c -1.2045,-0.007 -2.6715,0.135 -4.44,0.4785 3.24,13.8 16.08901,-0.408 4.44,-0.48 z m 22.56301,0.2295 c -14.706,9.7575 13.545,9 0,0 z m -30.46951,2.5605 c -5.766,3.4095 5.6055,3.192 0,0 z m 214.85553,1.32 c -0.5715,5.295 6.7875,1.3725 0,0 z m -194.91452,1.323 c -14.01001,1.1865 5.175,10.1775 0,0 z m 191.44502,3.963 c -6.396,8.31 3.954,6.036 0,0 z m -7.389,0.0405 c -23.181,4.458 14.3685,7.167 0,0 z m -177.24302,0.207 c -7.3575,9.6495 8.175,11.5185 0,0 z m -23.57551,1.569 c -6.225,2.976 4.02,5.4195 0,0 z m 214.81503,0.825 c -5.622,2.7195 5.1105,2.433 0,0 z m -198.05252,0.6195 c -3.801,4.53 6.4695,2.7645 0,0 z m -7.7625,6.1515 c 1.359,15.22501 26.1285,31.53001 24.423,38.23951 -14.1345,-7.1505 -23.181,-22.6935 -24.423,-38.23951 z m 226.00353,2.808 c 11.175,5.319 8.58,32.44651 3.339,9.45 -1.4085,-2.9895 -3.9345,-5.868 -3.339,-9.45 z m -20.76751,1.446 c 0.2715,14.38201 -33.468,36.78151 -10.5765,12.66001 3.4935,-4.24501 6.7065,-8.73451 10.5765,-12.66001 z m 39.55201,2.97 c 10.725,17.91301 20.7945,43.67401 11.46,62.09701 -8.6295,-9.033 8.2875,-13.989 -7.5,-13.407 -21.36,-15.8655 -1.5,-30.6 -3.96,-48.69001 z m -67.62751,0.5385 c 1.9845,19.78051 -2.55,42.44701 -28.0905,32.50501 -15.11101,-3.726 -28.47451,13.53 -35.68501,23.6595 7.0545,7.317 37.99501,10.047 12.273,10.815 -11.985,-0.522 -47.484,-0.138 -42.4395,-1.767 34.9785,-5.544 -6.0735,-27.8325 -11.88451,-32.7195 13.09051,-11.7165 29.67001,17.025 27.07501,-0.1125 11.7555,1.23 26.892,-10.473 31.065,-8.352 -17.1525,25.953 18.71401,-15.3 31.23901,-9.27 30.2895,13.332 -11.529,-6.5355 16.4475,-14.75851 z m -146.85452,4.3755 c 6.9,11.31901 34.4355,23.58301 31.524,28.49701 -15.4305,-4.695 -36.762,-0.042 -22.485,17.9505 17.25,18.636 -30.525,-7.6035 -9.339,-2.0655 5.709,-24.8595 -18.0825,8.0145 -20.052,-13.29 16.605,7.848 29.682,-7.836 17.2125,-23.5005 -1.5675,-2.8575 -1.1085,-7.56301 3.1395,-7.59001 z m 45.45601,0.909 c 11.334,3.66001 36.75,30.23401 10.968,21.97501 -8.8545,0.3495 -21.23401,-3.144 -23.79601,-8.04 0.8955,0.987 5.5155,0.2325 1.515,-2.0445 -1.302,0.771 -1.7025,1.347 -1.65,1.755 -1.287,-2.934 0.954,-6.345 9.53101,-9.7245 z m -44.05351,5.28451 c -6.321,4.161 4.521,1.974 0,0 z m 51.23701,0 c -5.889,5.0655 5.0235,2.943 0,0 z m 167.00402,1.8165 c -6.225,2.9775 4.02,5.421 0,0 z m -175.50902,2.148 c -7.09351,2.157 4.8495,2.988 0,0 z m 10.3635,1.815 c -6.2265,2.9775 4.02,5.421 0,0 z m -51.40351,0.867 c -3.675,5.925 4.902,2.16 0,0 z m 5.286,0 c -3.675,5.925 4.9005,2.16 0,0 z m 116.09702,0.207 c -1.9695,12.3825 22.332,-0.366 0,0 z m 89.59201,1.611 c -11.49,10.164 10.239,8.742 0,0 z m -166.26602,0.108 a 19.440003,19.440003 0 0 0 -1.812,0.18 c -2.3685,6.9945 9.51,-0.525 1.812,-0.18 z m 139.50001,0.8955 c 26.14801,1.4535 1.1175,49.215 -5.745,39.2355 -0.7275,-12.771 -10.47,-27.45 -0.1875,-38.877 2.22,-0.345 4.1895,-0.4545 5.9325,-0.3585 z m 31.80301,0.069 c -5.3925,5.5275 7.629,2.6505 0,0 z m -98.01451,2.3955 c -12.56101,8.025 18.333,8.2155 0,0 z m -163.78353,0.909 c 5.0745,10.257 -27.4005,7.2645 -3.543,1.1775 1.083,-0.663 2.355,-0.804 3.543,-1.1775 z m 132.11702,0.33 c 3.8625,3.2505 -5.8755,3.7575 0,0 z m -84.34801,0.0405 c -5.8905,5.0655 5.022,2.9415 0,0 z m 106.35451,1.32 c -6.375,4.0575 6.69751,3.732 0,0 z m 28.40401,0 c -5.7645,3.411 5.607,3.1935 0,0 z m 42.8145,0.414 c -6.4305,3.2235 3.5115,4.0845 0,0 z m -49.9155,0.0825 c -4.224,4.929 6.2445,3.537 0,0 z m 87.94051,1.569 c -2.541,11.982 14.277,6.564 0,0 z m -53.05351,0.5775 c -1.2195,9.204 -19.656,6.24 -16.7745,18.3705 -5.517,6.1455 -32.2605,20.46 -13.53,6.1545 1.365,-15.0015 15.927,-25.053 30.3045,-24.525 z m -204.40953,1.074 c -9.1725,10.668 -33.27,30.426 -28.44,38.133 12.5715,-3.663 46.51651,2.8815 30.4665,-19.617 4.08751,-17.466 11.49001,-10.641 12.84001,-0.273 -0.075,-0.111 -0.1215,-0.2055 -0.21,-0.3255 -4.1775,1.998 -0.948,3.7425 0.42,3.045 0.162,7.176 -2.691,15.129 -11.3055,17.8275 -8.83501,9.0975 -2.56951,40.32151 -21.87001,21.39301 2.796,-16.18351 -13.641,2.919 -20.298,-10.51501 -0.513,16.39501 -9.171,7.90051 -5.886,0.8655 -6.822,2.30551 -4.695,10.62451 -3.03,17.45401 -0.4305,-0.4275 -0.99,-0.882 -1.86,-1.392 -6.3675,4.389 0.762,5.2875 2.3685,3.552 1.2015,5.307 1.3965,9.0405 -4.7685,6.9075 -5.88,-14.3475 0.5265,-54.58951 14.901,-41.65501 9.744,-13.842 19.4055,-30.237 36.672,-35.4 z m 252.96304,1.569 c -2.6655,13.707 13.335,13.329 0,0 z m -29.80801,0.2475 c -16.905,7.38 0.0225,14.7 0,0 z m 6.31501,1.0725 c -5.70001,4.5105 5.598,5.0895 0,0 z m -110.89502,0.33 c -23.898,2.6325 -1.47,14.0205 0,0 z m 130.71302,0.9915 c -5.7645,3.411 5.607,3.1935 0,0 z m -39.38701,0.1245 c 6.8535,10.7055 -10.515,4.347 0,0 z m -27.6615,4.5 c -6.582,10.4445 6.051,9.099 0,0 z m 43.515,0.7425 c -9.2175,3.321 3.57301,7.551 0,0 z m 19.40551,0.579 c 0.405,13.8495 -0.642,44.92801 -7.695,46.26301 4.29,-15.06451 7.137,-30.59101 7.695,-46.26301 z m 17.01,0 c -13.6545,11.1495 8.1885,9.2895 0,0 z m -144.13502,0.444 a 3.5790005,3.5790005 0 0 0 -0.864,0.1755 c -13.371,8.979 1.4475,6.12 5.0655,3.4335 -0.081,-2.2245 -2.1645,-3.7665 -4.2,-3.609 z m 54.09001,1.125 c -6.3675,11.913 -57.37051,15.2595 -22.52101,8.325 7.70851,-2.1975 15.10201,-5.325 22.51951,-8.325 z m -162.79502,0.4125 c -5.292,2.9235 8.802,4.7355 0,0 z m 87.52801,0.495 c -4.2255,4.9305 6.2445,3.5385 0,0 z m 122.99251,1.074 c -7.365,4.71 5.904,7.299 0,0 z m -166.92002,0.123 c 11.517,2.916 57.76951,17.019 24.285,9.7425 -8.502,-2.0415 -16.875,-5.025 -24.285,-9.7425 z m 177.11853,1.611 c -12.78451,1.2645 -0.375,9.621 0,0 z m -223.03053,1.155 c -6.60001,5.43 6.966,5.577 0,0 z m 109.45051,3.51 c -2.9295,3.753 5.028,1.962 0,0 z m -75.80101,0.579 c -3.801,4.53 6.4695,2.763 0,0 z m 182.19602,0.7005 c -5.7645,3.411 5.60701,3.1935 0,0 z m -36.8685,2.685 c -1.6815,14.9175 13.1505,19.575 19.179,7.551 17.625,-1.7715 -3.1065,28.91701 -10.005,10.3965 -9.711,-2.7555 -28.3515,-10.131 -9.174,-17.9475 z m -159.07652,1.2795 c 42.75,22.26 93.51001,22.011 139.58552,11.7795 19.2225,-0.924 45.696,22.20151 17.568,33.82351 -25.614,25.137 -64.94251,29.9295 -99.23101,27.099 -28.76251,-3.0915 -60.65101,-11.1 -78.94801,-35.2605 -7.38001,-15.78751 10.1145,-29.18401 21.0255,-37.44151 z m 99.99601,6.8535 c -1.9515,3.9075 2.1195,3.4485 0,0 z m -18.867,2.559 c -3.915,2.265 6.0315,0.03 0,0 z m 96.32101,1.155 c -5.7015,4.512 5.5965,5.091 0,0 z m -250.52703,1.5705 c -1.953,3.9075 2.118,3.45 0,0 z m 262.62303,0.702 c 1.908,3.033 3.858,6.405 5.8425,9.753 -1.011,-0.4035 -2.703,-0.7755 -5.553,-1.041 -5.229,5.1495 4.6335,4.212 6.42,2.5005 8.20201,13.64701 17.36551,25.83601 29.52901,10.38001 0.48,15.933 -14.865,31.242 -23.538,42.717 1.3995,-11.8395 3.6825,-39.453 -15.44101,-24.366 -19.779,-2.5425 -42.489,10.8195 -35.472,29.718 -5.5695,-0.948 -9.453,3.87 -10.179,9.0945 -0.405,-0.399 -1.404,-0.7695 -3.2985,-1.014 -3.426,4.0035 1.785,3.369 3.1725,2.07 -0.318,5.787 3.342,11.63551 13.086,10.43251 19.194,4.5525 -19.11,12.2385 -24.7605,17.592 -29.75101,10.926 27.537,-29.79451 -8.46001,-27.76801 -17.9835,4.3515 -30.6,-17.133 -7.395,-13.965 13.92001,-4.557 26.49001,-10.215 37.37251,-18.576 -0.51,2.5875 5.601,1.416 1.665,-1.2975 a 85.162511,85.162511 0 0 0 13.6785,-13.887 c 9.855,-7.017 22.9995,-14.4375 18.465,-23.56651 1.44,-2.856 4.7325,-5.262 4.866,-8.775 z m -234.25953,0.0825 c -15.321,3.756 2.313,8.574 0,0 z m 283.10254,0.372 c 4.773,13.614 -18.477,24.07201 -2.574,5.7705 0.6825,-1.9605 0.399,-4.6155 2.574,-5.7705 z m -274.92754,0.825 c -4.245,11.322 16.45501,6.729 0,0 z m -33.0705,1.734 c -5.838,5.859 4.6905,4.8165 0,0 z m 13.212,0 c -5.7645,3.411 5.607,3.1935 0,0 z m 13.005,2.973 c -7.011,3.9 5.274,3.843 0,0 z m -18.951,0.99 c -6.6555,3.1905 6.33,2.3145 0,0 z m 4.6245,1.446 c -3.45,4.905 6.9945,2.385 0,0 z m 18.495,2.5185 c -5.7,4.51051 5.598,5.08951 0,0 z m 3.9645,1.32 c -5.7,4.51051 5.598,5.08951 0,0 z m -5.9445,6.60601 c -7.9815,4.92 7.374,4.101 0,0 z m 7.8855,0.99 c -7.1115,4.2825 7.1295,3.363 0,0 z m 224.76303,0.3315 c -7.11,3.705 5.034,3.897 0,0 z m -7.68,2.643 c -9.225,14.205 7.923,13.362 0,0 z m 13.7505,0.66 c -10.4895,3.213 6.51001,8.1525 0,0 z m -259.14003,0.4455 c 1.3935,11.535 27.009,34.659 16.143,32.433 -9.207,-8.163 -15.5175,-20.055 -16.143,-32.433 z m 445.09506,5.5005 c 18.765,5.673 -5.787,9.951 0,0 z m -207.54903,0.0405 c -12.8235,3.858 6.8895,12.0555 0,0 z m 17.382,1.2795 c -5.6205,2.7195 5.112,2.433 0,0 z m 17.17501,0 c -5.7645,3.411 5.607,3.1935 0,0 z m -237.52204,0.042 c 7.45501,5.427 12.58201,32.397 11.13001,10.1805 7.0455,15.183 51.6555,19.296 15.747,23.3055 -20.043,8.373 -37.06501,-3.7125 -27.84601,-24.8715 1.5,-3.636 -4.788,-7.266 0.969,-8.6145 z m 405.43506,3.9225 c 18.99,9.321 2.1885,15.8655 0,0 z m -161.14202,1.32 c -8.532,2.754 3.6345,3.54 0,0 z m -37.98301,0.249 c -1.9515,3.9075 2.118,3.4485 0,0 z m -13.707,1.0725 c -5.6205,2.7195 5.112,2.433 0,0 z m 209.28003,2.643 c 19.044,9.834 2.715,18.789 0,0 z m -165.68102,1.32 c -12.44251,7.9455 13.767,10.575 0,0 z m -12.67501,0.207 c -4.395,18.1185 -36.7455,39.8655 -42.183,37.587 16.11,-9.9735 29.8905,-23.2665 42.183,-37.587 z m 32.62951,1.3065 c 10.785,-0.027 21.867,1.68 30.1635,6.579 -11.5275,8.1375 3.6075,14.76 0.27,0.165 7.8885,4.7595 13.1925,12.4575 13.1745,24.405 11.72551,4.9755 36.19501,-10.0815 29.08501,12.5535 -15.312,3.79501 -27.35551,-3.615 -39.82501,-13.2345 -8.802,2.5875 -32.88,-19.0905 -37.092,-30.3705 a 105.10501,105.10501 0 0 1 4.224,-0.096 z m 142.54952,2.4105 c 13.518,7.0695 5.4255,25.5555 0,0 z m -395.03105,1.362 c -5.70001,4.5105 5.598,5.0895 0,0 z m 256.43103,1.32 c -0.1755,12.3435 18.432,11.559 2.4225,1.026 z m 8.9595,0 c -8.22,6.2205 16.326,7.872 0,0 z m 124.97402,0.165 c 14.952,14.6625 -1.0485,21.57 0,0 z m -114.44702,0.165 c -6.8235,3.5325 5.181,3.2565 0,0 z m -277.36204,4.956 c -3.837,4.6155 6.45901,3.2115 0,0 z m 17.29951,0.288 c -5.394,5.526 7.629,2.6505 0,0 z m 369.43205,1.404 c 12.927,15.612 0.438,16.7445 0,0 z m -113.74502,2.271 c -2.655,12.243 17.421,10.923 0,0 z m -243.83853,0.0405 c -5.2905,3.2535 7.4475,2.499 0,0 z m -23.1615,1.281 c -5.23801,3.114 6.663,1.083 0,0 z m 154.16402,0 c -8.817,3.645 5.6895,3.4575 0,0 z m 220.09803,0.0825 c 11.6145,5.148 4.7895,30.1515 0,0 z m -362.28905,1.239 c -6.6555,3.189 6.33,2.313 0,0 z m 149.33402,0 c -8.046,2.151 4.5345,4.9785 0,0 z m -115.07252,0.75 a 0.38850005,0.38850005 0 0 1 0.213,0.075 c 14.235,13.2 37.08301,6.972 54.79501,8.7285 -4.7535,2.5905 4.89,2.043 1.6605,0.1905 1.545,0.204 3.063,0.453 4.5105,0.816 -2.373,6.477 -21.5655,4.005 -8.214,11.412 -8.4645,7.65301 -36.89251,8.59801 -12.4455,17.13901 28.947,22.782 -27.02551,11.3655 -25.15951,4.3995 -5.4495,11.6325 -13.3575,1.284 -19.239,-2.6325 28.23901,4.6515 20.4675,-28.31701 -0.54,-35.30251 -3.777,-2.142 2.979,-4.9905 4.419,-4.824 z m 231.04503,0.0345 c -3.4935,12.57 15.63,3.336 0,0 z m 92.73001,0.5355 c 13.76851,15.987 -6.393,24.1425 0,0 z m -202.22102,0.1245 c -10.9275,5.037 0.9345,5.505 0,0 z m -22.5,2.973 c -6.16501,1.7655 3.63,3.402 0,0 z m 218.11502,0.2475 c 10.44601,13.6305 -4.4865,21.5925 -2.7945,2.748 l 1.053,-1.725 z m -7.5135,1.9395 c 10.11,14.445 -7.533,28.43401 0,0 z m -364.47755,0.6195 c 12.21301,5.4495 15.98401,40.30651 -1.011,18.612 -12.7905,-1.1895 -13.0755,-11.19 -26.67,-12.4335 4.032,-4.995 30.132,-6.537 11.91,-1.512 4.8105,1.806 13.5435,0.525 15.771,-4.665 z m 163.66053,0.0825 c -7.365,4.044 5.9835,2.7405 0,0 z m -19.48801,0.66 c -7.416,2.5665 4.8405,3.2145 0,0 z m 192.31353,1.281 c 8.514,11.115 -10.1295,31.51801 -2.52,8.2575 0.975,-2.448 -0.48,-6.645 2.52,-8.2575 z m 19.5285,0.207 c 11.943,13.818 -11.022,27.96151 -2.721,4.242 l 0.738,-2.712 z m -10.86,0.165 c 13.0755,6.7875 -9.495,31.35451 -2.8095,8.4285 0.291,-2.805 -0.7065,-7.065 2.8095,-8.4285 z m -274.96804,0.33 c -16.335,4.0455 12.28501,7.452 0,0 z m 63.33451,0.6195 c -5.7645,3.4095 5.607,3.192 0,0 z m -53.55,2.3115 c -7.11001,4.281 7.1295,3.363 0,0 z m -65.47951,0.9495 c 14.2305,3.8175 45.609,8.4705 46.3125,16.71601 -15.525,-5.20201 -32.2095,-7.99801 -46.3125,-16.71601 z m 136.69951,0 c -10.2645,1.0095 1.32,7.5075 0,0 z m -10.3215,0.702 c -7.0935,2.157 4.8495,2.988 0,0 z m -46.9425,0.33 c -9.681,2.5125 7.0875,2.508 0,0 z m -27.16651,1.032 c -2.9295,3.753 5.028,1.962 0,0 z m 256.18354,0 c 0.0255,13.2 -30.06151,-3.345 -11.9385,7.7535 5.0955,1.89 20.172,1.152 11.9385,-7.7535 z m -327.65105,0.084 c -4.1445,8.613 12.66001,3.5445 0,0 z m 163.82553,0.123 c -1.953,3.909 2.118,3.45 0,0 z m -86.37152,1.0725 c -5.766,3.411 5.607,3.1935 0,0 z m 13.74751,0.495 c -6.225,2.9775 4.02,5.421 0,0 z m -81.12751,3.4695 c -5.76451,3.411 5.607,3.192 0,0 z m 73.40701,1.32 c -10.06951,3.213 7.3695,4.7355 0,0 z m -59.53501,0.2085 c 6.5775,5.28 -9.5775,3.3495 0,0 z m 68.65951,3.798 c -2.9295,3.75151 5.028,1.9605 0,0 z m 83.11051,2.8485 c -1.9515,3.90751 2.1195,3.44851 0,0 z m -19.69501,0.41251 c -13.065,10.908 -49.746,4.8735 -52.7505,3.135 17.547,-1.6695 35.34,0.084 52.752,-3.135 z m 27.25051,3.468 c -7.83,2.511 4.728,5.349 0,0 z m -100.20302,1.1565 c -6.645,6.5595 8.92501,5.808 0,0 z m 88.80752,0.99 c -7.11,4.281 7.1295,3.363 0,0 z m -79.31101,4.2945 c -5.238,3.114 6.663,1.0815 0,0 z m 68.12251,0 c -5.76451,3.4095 5.607,3.192 0,0 z m 9.825,0.123 c -10.926,5.037 0.936,5.5065 0,0 z m -71.88001,2.52 c -6.906,6.069 5.187,9.6015 0,0 z m -13.2525,1.32 c -6.99301,5.7555 9.57,2.61 0,0 z m 85.65601,59.082 c -0.15,-0.003 -0.366,0.1755 -0.7515,0.4005 l -5.955,3.41401 c 0.255,0.942 0.759,1.8945 0.855,2.8305 -5.955,14.136 -11.84401,28.3005 -17.84251,42.417 -0.885,1.7445 -2.4675,3.6555 -4.65,3.393 h -3.087 v 3.8025 h 20.05501 v -3.8025 c -1.61551,-0.1095 -3.29701,0.24 -4.86901,-0.2145 -1.713,-0.861 -2.505,-3.198 -1.8705,-4.971 2.1555,-5.328 4.3215,-10.6545 6.48151,-15.9825 h 14.3595 c 2.2725,6.63 4.6335,13.239 6.849,19.878 0.2955,0.771 -0.3375,1.4835 -1.131,1.29 h -3.648 v 3.8025 c 14.034,-0.018 28.0665,0.039 42.099,-0.027 7.0125,-0.2175 13.86,-3.078 18.99751,-7.845 5.3625,-4.761 8.9295,-11.6325 9.198,-18.846 0.354,-3.9855 -0.3045,-8.0325 -1.5315,-11.826 -1.8645,-5.5125 -5.3475,-10.839 -10.7355,-13.4205 -3.67051,-1.8645 -7.87051,-2.1405 -11.91451,-2.0175 h -28.485 v 3.726 c 1.812,0.0615 3.6555,-0.1215 5.4495,0.0915 1.1445,0.396 1.722,1.605 1.527,2.76 -0.0105,13.9185 0.021,27.8355 -0.015,41.751 -0.147,1.2045 -1.29,2.169 -2.5155,1.932 a 37.800005,37.800005 0 0 1 -3.285,-0.081 c -2.0235,0.1815 -4.4265,-0.345 -5.502,-2.238 -5.961,-16.488 -11.8185,-33.0165 -17.739,-49.52101 -0.114,-0.507 -0.195,-0.693 -0.345,-0.696 z m -356.88905,1.497 a 33.975005,33.975005 0 0 0 -2.205,0.003 c -6.969,0.14701 -14.046,2.81251 -18.7665,8.06251 -6.006,6.6225 -8.415,16.05 -7.1025,24.816 1.164,8.787 6.558,17.2095 14.706,21.012 5.805,2.688 12.4995,3.105 18.729,1.893 7.5555,-1.5105 14.268,-6.6885 17.58,-13.656 2.4975,-5.01 3.4425,-10.695 3.0255,-16.26 -0.4395,-8.316 -4.53,-16.53 -11.4015,-21.363 -4.242,-3 -9.411,-4.3455 -14.565,-4.50601 z m 482.28006,0 a 33.975005,33.975005 0 0 0 -2.205,0.003 c -6.9705,0.14701 -14.0475,2.81251 -18.768,8.06251 -6.006,6.6225 -8.415,16.05 -7.1025,24.816 1.1595,8.745 6.5025,17.124 14.5845,20.9565 5.8335,2.736 12.579,3.168 18.8505,1.95 7.55551,-1.512 14.26801,-6.69 17.58001,-13.6575 2.4975,-5.01 3.4425,-10.695 3.0255,-16.26 -0.4395,-8.316 -4.53,-16.53 -11.4015,-21.363 -4.24201,-3 -9.41101,-4.3455 -14.56501,-4.50601 z m -230.42553,0.77401 c -1.125,-0.021 -2.2485,-0.006 -3.3495,0.005 h -22.6965 v 3.726 c 1.809,0.0615 3.6525,-0.12 5.442,0.09 1.215,0.369 1.716,1.665 1.5345,2.8365 -0.0105,13.8915 0.021,27.786 -0.015,41.676 -0.147,1.2 -1.287,2.1735 -2.5155,1.9305 h -4.446 v 3.723 h 21.7995 v -3.723 c -1.809,-0.057 -3.645,0.1185 -5.4375,-0.09 -1.2045,-0.342 -1.6215,-1.632 -1.461,-2.76 v -22.359 h 7.23 c 4.7505,8.259 9.411,16.575 14.2155,24.798 1.4595,2.517 4.233,4.3125 7.20001,4.1355 h 45.915 c 1.515,-5.706 3.027,-11.4135 4.5405,-17.121 h -3.378 c -1.632,4.0245 -3.372,8.37 -7.086,10.9335 -2.385,1.749 -5.43,2.1405 -8.31,1.9875 -2.9475,-0.03 -5.9025,0.06 -8.8455,-0.045 -1.716,-0.426 -1.875,-2.493 -1.788,-3.9525 v -19.545 c 2.712,0.054 5.436,-0.1155 8.139,0.0915 2.3175,0.5145 4.3725,2.181 5.4705,4.2735 0.7725,1.494 0.552,3.213 0.5805,4.83 h 3.249 v -21.72 h -3.249 c 0.051,1.9365 0.135,4.074 -1.191,5.655 -1.4835,2.058 -4.005,3.294 -6.5475,3.066 h -6.45 c 0.024,-5.199 -0.0495,-10.4025 0.036,-15.597 0.15,-1.2285 0.8535,-2.8245 2.3445,-2.637 3.8295,0.0555 7.6665,-0.111 11.49,0.084 3.5955,0.2955 6.591,2.7675 8.475,5.715 1.563,2.2995 2.583,4.902 3.687,7.4385 h 3.33 l -3.8355,-17.439 h -40.4295 v 3.726 c 1.8075,0.0615 3.651,-0.12 5.439,0.09 1.149,0.39 1.7355,1.602 1.536,2.763 -0.0105,13.917 0.0195,27.834 -0.015,41.7495 -0.147,1.272 -1.3845,2.196 -2.649,1.9305 h -4.311 c 0.2625,1.0065 -1.122,0.426 -1.6605,0.324 -2.2755,-0.594 -4.0005,-2.376 -5.01301,-4.44 l -12.579,-21.4455 c 3.645,-0.627 7.197,-2.754 8.7585,-6.219 1.062,-2.2095 1.365,-4.689 1.2285,-7.116 0.105,-3.5625 -1.608,-7.206 -4.71,-9.0675 -2.8965,-1.842 -6.297,-2.235 -9.672,-2.2995 z m -336.08854,0.005 v 3.726 c 1.8135,0.0615 3.657,-0.1215 5.451,0.0915 1.143,0.396 1.7205,1.605 1.527,2.76 -0.0105,13.917 0.021,27.8355 -0.015,41.751 -0.147,1.2045 -1.29,2.1675 -2.5155,1.9305 h -4.4475 v 3.723 c 8.2455,-0.03 16.494,0.06 24.7365,-0.045 7.2825,-0.267 14.34,-3.4395 19.506,-8.5545 5.0175,-4.7535 8.229,-11.442 8.445,-18.381 0.303,-3.9015 -0.3495,-7.8525 -1.551,-11.5635 -1.8645,-5.5125 -5.3475,-10.839 -10.7355,-13.4205 -3.6705,-1.8645 -7.8705,-2.1405 -11.9145,-2.0175 z m 117.36001,0 v 3.726 c 1.7835,0.06 3.5985,-0.12 5.361,0.09 1.122,0.3495 1.821,1.47 1.617,2.6325 -0.021,12.6165 0.0405,25.236 -0.03,37.8525 -0.2445,2.115 -1.014,4.551 -3.0225,5.6085 -1.5675,0.5445 -3.282,0.15 -4.9095,0.27 -1.0815,-0.2835 -1.2225,0.375 -1.0755,1.32 v 2.4825 h 20.53051 v -3.8025 c -1.6185,-0.102 -3.297,0.222 -4.8735,-0.201 -2.3025,-1.1205 -3.30751,-3.9 -3.29401,-6.333 v -35.178 l 29.53501,45.5145 h 6.297 c 0.0195,-14.7885 -0.039,-29.58 0.0285,-44.367 0.2505,-2.067 0.915,-4.527 2.934,-5.5335 1.641,-0.555 3.4305,-0.156 5.133,-0.2775 1.1865,0.3705 0.819,-0.8115 0.861,-1.584 -0.1545,-0.675 0.3195,-1.9755 -0.264,-2.22 h -20.1855 v 3.804 c 1.701,0.117 3.483,-0.264 5.13,0.261 2.295,1.101 2.9715,3.9315 2.955,6.27 v 33.876 l -29.142,-44.211 z m 57.88501,0 -0.1815,0.543 c -1.6455,4.932 -3.285,9.864 -4.935,14.796 l 3.696,0.144 c 0.5475,-3.4455 2.394,-6.708 5.319,-8.67 2.655,-1.851 5.988,-2.523 9.0855,-2.5275 1.3905,0.06 2.811,-0.144 4.182,0.105 1.701,0.876 1.362,3.0915 1.398,4.683 -0.0105,13.086 0.0225,26.172 -0.015,39.255 -0.147,1.2 -1.287,2.1735 -2.5155,1.9305 h -4.446 v 3.7245 h 21.87901 v -3.7245 c -1.836,-0.06 -3.6975,0.12 -5.51701,-0.09 -1.203,-0.342 -1.6215,-1.632 -1.461,-2.76 0.018,-13.434 -0.033,-26.8695 0.0255,-40.3005 0.075,-1.2975 0.8325,-3.0645 2.41501,-2.8275 2.895,0.105 5.832,-0.252 8.697,0.282 5.037,1.113 9.462,5.0445 10.7175,10.1145 -0.0465,1.1325 1.014,0.7305 1.7775,0.741 0.57,-0.2115 2.271,0.363 1.779,-0.585 -1.62,-4.944 -3.24,-9.888 -4.857,-14.8335 z m 79.88851,0 -0.18,0.543 c -1.6455,4.932 -3.2865,9.864 -4.935,14.796 l 3.696,0.144 c 0.5475,-3.4455 2.394,-6.708 5.319,-8.67 2.655,-1.851 5.9865,-2.523 9.084,-2.5275 1.3905,0.06 2.8125,-0.144 4.1835,0.105 1.6995,0.876 1.362,3.0915 1.398,4.683 -0.0105,13.086 0.021,26.172 -0.015,39.255 -0.147,1.2 -1.287,2.1735 -2.5155,1.9305 h -4.446 v 3.7245 h 21.87901 v -3.7245 c -1.836,-0.06 -3.6975,0.12 -5.517,-0.09 -1.203,-0.342 -1.6215,-1.632 -1.4595,-2.76 0.0165,-13.434 -0.0345,-26.8695 0.0255,-40.3005 0.075,-1.2975 0.831,-3.0645 2.4135,-2.8275 2.895,0.105 5.832,-0.252 8.697,0.282 5.0355,1.113 9.462,5.0445 10.7175,10.1145 -0.0465,1.1325 1.014,0.7305 1.7775,0.741 0.57,-0.2115 2.271,0.363 1.779,-0.585 l -4.8585,-14.8335 z m 344.50505,0 v 3.726 c 1.7835,0.06 3.6,-0.12 5.3625,0.09 1.1205,0.3495 1.8195,1.47 1.6155,2.6325 -0.021,12.6165 0.0405,25.236 -0.03,37.8525 -0.2445,2.115 -1.0125,4.551 -3.0225,5.6085 -1.5675,0.5445 -3.282,0.15 -4.9095,0.27 -1.08,-0.2835 -1.2225,0.375 -1.0755,1.32 v 2.4825 h 20.5305 v -3.8025 c -1.617,-0.102 -3.297,0.222 -4.8735,-0.201 -2.301,-1.1205 -3.3075,-3.9 -3.294,-6.333 v -35.178 l 29.535,45.5145 h 6.297 c 0.0195,-14.7885 -0.0375,-29.58 0.03,-44.367 0.2505,-2.067 0.915,-4.527 2.9325,-5.5335 1.641,-0.555 3.432,-0.156 5.13451,-0.2775 1.185,0.3705 0.8175,-0.8115 0.8595,-1.584 -0.153,-0.675 0.321,-1.9755 -0.264,-2.22 h -20.18551 v 3.804 c 1.7025,0.117 3.483,-0.264 5.13,0.261 2.295,1.101 2.973,3.9315 2.955,6.27 v 33.876 l -29.1405,-44.211 z m 73.86001,0 v 3.726 c 1.812,0.063 3.657,-0.123 5.4495,0.093 1.1385,0.3975 1.722,1.602 1.5255,2.76 -0.0195,12.5745 0.039,25.1505 -0.03,37.725 -0.2715,2.0205 -0.9345,4.32 -2.7405,5.493 -1.4565,0.7185 -3.1515,0.2445 -4.713,0.3825 -0.807,-0.007 -1.836,-0.2385 -1.473,0.924 v 2.88 h 20.4495 v -3.804 c -1.6485,-0.1125 -3.3705,0.255 -4.965,-0.2505 -2.43,-1.2495 -3.237,-4.257 -3.12,-6.807 v -32.844 c 5.7405,14.568 11.4765,29.1375 17.22,43.7055 h 5.604 c 5.655,-14.868 11.3145,-29.7345 16.971,-44.601 -0.009,12.9675 0.018,25.935 -0.0135,38.8995 -0.255,1.1805 -1.3155,2.235 -2.598,1.977 h -4.443 v 3.7245 h 60.80701 c 1.5165,-5.706 3.03,-11.415 4.54205,-17.1225 h -3.37805 c -1.6305,4.0245 -3.372,8.37 -7.086,10.9335 -2.385,1.749 -5.43,2.1405 -8.31,1.9875 -2.9475,-0.03 -5.9025,0.06 -8.844,-0.045 -1.7175,-0.426 -1.875,-2.493 -1.788,-3.9525 v -19.545 c 2.7105,0.054 5.4345,-0.1155 8.1375,0.0915 2.3175,0.5145 4.3725,2.181 5.4705,4.2735 0.7725,1.494 0.552,3.213 0.5805,4.83 h 3.249 v -21.72 h -3.249 c 0.051,1.938 0.135,4.074 -1.191,5.655 -1.4835,2.058 -4.005,3.294 -6.5475,3.066 h -6.45 c 0.024,-5.199 -0.0495,-10.4025 0.036,-15.597 0.15,-1.2285 0.8535,-2.8245 2.3445,-2.637 3.8295,0.0555 7.668,-0.111 11.49,0.084 3.5955,0.2955 6.591,2.7675 8.475,5.715 1.563,2.2995 2.583,4.902 3.6885,7.4385 h 3.32855 l -3.83555,-17.439 h -53.77351 c -5.874,15.36 -11.7435,30.723 -17.616,46.0845 -6.0525,-15.3615 -12.1035,-30.7245 -18.159,-46.0845 z m -590.30858,2.457 c 5.5845,-0.09 10.86,3.213 13.713,7.9275 3.915,6.372 4.923,14.157 4.185,21.4965 -0.6885,6.2685 -3.063,12.6705 -7.8705,16.9395 -3.447,3.0195 -8.2035,4.068 -12.708,3.3675 -4.722,-0.6495 -8.6745,-3.93 -11.0745,-7.926 -4.116,-6.585 -4.935,-14.793 -3.984,-22.2975 0.609,-4.3875 2.0625,-8.655 4.509,-12.2925 2.3955,-3.708 6.309,-6.528 10.755,-7.047 a 21.351003,21.351003 0 0 1 2.475,-0.168 z m 482.28006,0 c 5.583,-0.09 10.8585,3.213 13.71301,7.9275 3.912,6.372 4.92,14.157 4.185,21.4965 -0.69,6.2685 -3.0645,12.6705 -7.87201,16.9395 -3.447,3.0195 -8.2035,4.068 -12.708,3.3675 -4.722,-0.6495 -8.6745,-3.93 -11.073,-7.926 -4.1175,-6.585 -4.938,-14.793 -3.987,-22.2975 0.6105,-4.3875 2.064,-8.655 4.512,-12.2925 2.394,-3.708 6.3075,-6.528 10.755,-7.047 a 21.349503,21.349503 0 0 1 2.475,-0.168 z m 168.03603,1.2345 c 0.144,-0.008 0.2955,0.005 0.45,0.0345 h 3.7065 c 1.809,0.06 3.651,-0.1215 5.4405,0.09 1.1475,0.39 1.734,1.602 1.5345,2.763 -0.0105,13.9155 0.021,27.834 -0.015,41.7495 -0.147,1.272 -1.3845,2.196 -2.6475,1.9305 -2.94,-0.0285 -5.8845,0.0555 -8.8185,-0.0405 -1.2795,-0.2685 -1.7235,-1.653 -1.5555,-2.811 0.009,-13.9095 -0.0165,-27.8205 0.0135,-41.73 0.153,-0.987 0.879,-1.935 1.89,-1.986 z m -716.7196,0.51 c 0.1725,-0.0285 0.357,-0.03 0.555,0 h 11.0205 c 4.227,-0.102 8.295,2.0775 10.815,5.43 2.0655,2.5725 3.3945,5.664 4.17,8.766 1.3995,5.679 1.503,11.8125 -0.597,17.34 -2.04,5.2905 -5.7945,10.206 -11.052,12.591 -3.1245,1.449 -6.618,1.5375 -9.9975,1.4535 -1.725,-0.063 -3.4815,0.126 -5.1885,-0.0945 -1.7865,-0.7515 -1.6395,-2.9595 -1.6095,-4.566 0.0165,-12.6975 -0.0345,-25.3965 0.0255,-38.0925 0.0675,-1.1355 0.6525,-2.6295 1.86,-2.8275 z m 308.15704,0 h 8.3115 c 2.9085,0.0255 6.1755,0.8745 7.938,3.36 1.377,2.058 0.708,4.6095 0.6135,6.9 -0.387,2.667 -2.0475,5.2965 -4.731,6.108 -2.9175,0.984 -6.045,0.462 -9.063,0.5955 h -3.069 z m 155.38952,0 c 0.171,-0.0285 0.3555,-0.03 0.555,0 h 11.019 c 4.2285,-0.102 8.295,2.0775 10.815,5.43 2.06551,2.5725 3.39451,5.664 4.17001,8.766 1.3995,5.679 1.503,11.8125 -0.597,17.34 -2.04,5.2905 -5.79451,10.206 -11.05201,12.591 -3.1245,1.449 -6.618,1.5375 -9.996,1.4535 -1.725,-0.063 -3.483,0.126 -5.19,-0.0945 -1.7865,-0.7515 -1.641,-2.9595 -1.6095,-4.566 0.0165,-12.6975 -0.0345,-25.3965 0.0255,-38.0925 0.0675,-1.1355 0.654,-2.6295 1.86,-2.8275 z m -42.9675,5.664 5.2275,15.423 h -11.5815 z" style="stroke-width:1"/></svg>