<svg xmlns="http://www.w3.org/2000/svg" xml:space="preserve" id="svg1" width="4608" height="3072" version="1.1" viewBox="0 0 1219.2 812.8"><defs id="defs1"><style id="style1">.cls-1{fill:#0283c0}.cls-2{fill:#fff}.cls-3{fill:#ef483f}</style></defs><path id="rect1" d="M 1219.2,0 V 812.8 H 0 V 0 Z" style="fill:#b00020;fill-opacity:1;fill-rule:evenodd;stroke:none;stroke-width:8.46667;stroke-linecap:round;stroke-linejoin:round"/><path id="rect2" d="M 491.06667 101.6 L 491.06667 135.46667 L 457.2 135.46667 L 457.2 169.33333 L 491.06667 169.33333 L 491.06667 643.46667 L 457.2 643.46667 L 457.2 677.33333 L 491.06667 677.33333 L 491.06667 711.2 L 524.93333 711.2 L 524.93333 677.33333 L 541.86667 677.33333 L 541.86667 711.2 L 575.73333 711.2 L 575.73333 677.33333 L 592.66667 677.33333 L 592.66667 711.2 L 626.53333 711.2 L 626.53333 677.33333 L 643.46667 677.33333 L 643.46667 711.2 L 677.33333 711.2 L 677.33333 677.33333 L 694.26667 677.33333 L 694.26667 711.2 L 728.13333 711.2 L 728.13333 677.33333 L 762 677.33333 L 762 643.46667 L 728.13333 643.46667 L 728.13333 169.33333 L 762 169.33333 L 762 135.46667 L 728.13333 135.46667 L 728.13333 101.6 L 694.26667 101.6 L 694.26667 135.46667 L 677.33333 135.46667 L 677.33333 101.6 L 643.46667 101.6 L 643.46667 135.46667 L 626.53333 135.46667 L 626.53333 101.6 L 592.66667 101.6 L 592.66667 135.46667 L 575.73333 135.46667 L 575.73333 101.6 L 541.86667 101.6 L 541.86667 135.46667 L 524.93333 135.46667 L 524.93333 101.6 L 491.06667 101.6 z M 524.93333 169.33333 L 541.86667 169.33333 L 541.86667 643.46667 L 524.93333 643.46667 L 524.93333 169.33333 z M 575.73333 169.33333 L 592.66667 169.33333 L 592.66667 643.46667 L 575.73333 643.46667 L 575.73333 169.33333 z M 626.53333 169.33333 L 643.46667 169.33333 L 643.46667 643.46667 L 626.53333 643.46667 L 626.53333 169.33333 z M 677.33333 169.33333 L 694.26667 169.33333 L 694.26667 643.46667 L 677.33333 643.46667 L 677.33333 169.33333 z" style="fill:#fff;fill-opacity:1;stroke-width:33.8667;stroke-miterlimit:128"/></svg>