<svg xmlns="http://www.w3.org/2000/svg" xml:space="preserve" id="svg1" width="4608" height="3072" version="1.1" viewBox="0 0 1219.2 812.8"><defs id="defs1"><style id="style1">.cls-1{fill:#0283c0}.cls-2{fill:#fff}.cls-3{fill:#ef483f}</style></defs><path id="rect1-6" d="M 0,0 V 812.8 H 1219.2 V 0 Z" style="fill:#000;fill-opacity:1;fill-rule:evenodd;stroke:none;stroke-width:8.46667;stroke-linecap:round;stroke-linejoin:round"/><path id="path1" d="M 0,0 609.6,812.8 1219.2,0 Z" style="fill:#b00020;fill-opacity:1;stroke-width:4.23333;stroke-linecap:round;stroke-linejoin:round;stroke-miterlimit:128"/><path id="path2" fill="#fff" d="m 522.67516,67.733333 c -15.80366,10.698336 -32.8335,40.597657 -32.8335,40.597657 a 488.18,488.18 0 0 1 48.32334,15.064 l 17.4335,-11.41816 a 313.355,313.355 0 0 1 24.69484,-14.590336 c -0.0199,-0.01986 -31.353,-21.583325 -57.61818,-29.653161 z m 167.18218,31.609661 c 0,0 -42.01168,0.355836 -85.0675,21.039676 a 276.93284,276.93284 0 0 0 -31.87568,18.046 296.11634,296.11634 0 0 1 7.30918,3.8325 c 3.3985,1.84682 7.0035,3.9515 10.76716,6.21366 a 187.38184,187.38184 0 0 1 31.07534,23.86534 C 646.336,162.05717 694.174,146.55799 711.7265,141.44099 703.8235,122.52583 689.85734,99.342994 689.85734,99.342994 Z M 427.8485,130.95149 c 0,0 22.94716,27.846 28.79334,54.7225 5.8485,26.87768 6.461,48.0165 2.87582,87.5175 17.7205,-20.23 40.09368,-36.69632 68.47168,-53.07282 l 4.42516,-2.569 c 21.86916,-12.712 29.99966,-17.45334 49.52734,-26.92668 a 1071.4784,1071.4784 0 0 1 8.47582,-4.06 A 168.6825,168.6825 0 0 0 565.15,170.01733 C 515.23766,142.88417 452.26684,130.95149 427.8485,130.95149 Z m 363.503,31.6085 c 0,0 -17.4055,0 -30.13734,1.37318 -18.76816,1.97632 -41.54616,7.90182 -59.00066,13.0585 -34.63134,10.26316 -68.48216,23.62732 -106.53184,42.07 -18.39132,8.939 -25.68182,13.18682 -47.41332,25.81016 l -4.445,2.63666 c -32.5465,18.76818 -56.39084,39.5115 -72.8875,63.5145 -18.10668,26.26518 -27.2825,56.99518 -27.2825,91.21234 0,40.24184 15.51782,76.15766 43.69982,101.1185 28.40834,25.19766 67.97818,38.51284 114.345,38.51284 46.18834,0 85.827,-14.14468 114.58184,-40.92318 28.0035,-26.02832 43.46184,-62.615 43.46184,-103.01666 0,-24.69366 -6.11334,-46.424 -12.02018,-67.38434 -12.43666,-44.14432 -23.17466,-82.27332 24.40668,-142.36832 4.15916,-5.24534 19.22316,-25.61418 19.22316,-25.61418 z" style="fill:#fff;fill-opacity:1;stroke-width:1"/></svg>