<svg xmlns="http://www.w3.org/2000/svg" xml:space="preserve" id="svg1" width="4608" height="3072" version="1.1" viewBox="0 0 1219.2 812.8"><path id="rect1" d="M 0,0 V 812.8 H 1219.2 V 0 Z" style="display:inline;fill:#b00020;fill-opacity:1;fill-rule:evenodd;stroke:none;stroke-width:8.46667;stroke-linecap:round;stroke-linejoin:round"/><defs id="defs1"><style id="style1">.fil0{fill:#156698}.cls-1{fill:#0283c0}.cls-2{fill:#fff}.cls-3{fill:#ef483f}</style></defs><path id="path1" d="m 609.6,101.6 c -10.009,0.0251 -19.7129,6.09349 -31.49839,17.81818 -52.72063,52.44865 -94.32479,128.65104 -129.98528,238.08313 l -4.50545,13.82648 -5.11948,-2.11498 c -34.51152,-14.25597 -87.69856,-23.73574 -123.68993,-22.04609 -33.87392,1.59024 -41.71188,22.73609 -31.80179,85.79749 23.11373,147.08126 144.55386,261.70657 293.69917,277.21862 v 5.2e-4 c 6.84394,0.71177 19.92741,1.03754 32.90115,1.01562 12.97373,0.0219 26.05721,-0.30385 32.90114,-1.01562 v -5.2e-4 c 149.14532,-15.51205 270.58544,-130.13736 293.69918,-277.21862 9.91008,-63.0614 2.07212,-84.20725 -31.80179,-85.79749 -35.99137,-1.68965 -89.17842,7.79012 -123.68994,22.04609 l -5.11948,2.11498 -4.50545,-13.82648 C 735.42317,248.06922 693.81902,171.86683 641.09839,119.41818 629.31289,107.69349 619.60899,101.62511 609.6,101.6 Z m 0,83.67216 c 7.15835,3.64671 38.70848,52.96776 55.30283,87.14389 18.22298,37.53035 52.81118,129.43415 49.63392,131.88163 -0.15629,0.12051 -4.18804,3.08681 -8.95974,6.59201 -37.48803,27.53814 -75.02217,71.64563 -94.14113,110.62841 -0.83199,1.69639 -1.35123,2.52765 -1.83588,2.90681 -0.48465,-0.37916 -1.0039,-1.21042 -1.83589,-2.90681 -19.11895,-38.98278 -56.65309,-83.09027 -94.14113,-110.62841 -4.7717,-3.5052 -8.80344,-6.4715 -8.95974,-6.59201 -3.17726,-2.44748 31.41095,-94.35128 49.63393,-131.88163 16.59434,-34.17613 48.14447,-83.49718 55.30283,-87.14389 z M 350.61924,416.41905 c 0.70321,-0.0327 1.69802,0.12457 3.04275,0.2729 96.48762,10.64258 184.8711,85.83863 212.0257,180.39034 4.04666,14.09035 9.02798,38.37556 9.02798,44.01412 0,0.97413 0.0495,0.9782 -9.03728,-0.68483 -110.92193,-20.30065 -195.57362,-104.21204 -215.0576,-213.17675 -1.59272,-8.90726 -2.11115,-10.71761 -0.002,-10.81578 z m 517.96151,0 h 5.2e-4 c 2.10915,0.0981 1.59065,1.90852 -0.002,10.81578 -19.48397,108.96471 -104.13567,192.8761 -215.0576,213.17675 -9.08677,1.66303 -9.03727,1.65896 -9.03727,0.68483 0,-5.63856 4.98131,-29.92377 9.02797,-44.01412 27.1546,-94.55171 115.53808,-169.74776 212.02571,-180.39034 1.34472,-0.14833 2.33953,-0.3056 3.04274,-0.2729 z" style="fill:#fff;fill-opacity:1;stroke-width:.999999"/></svg>