<svg xmlns="http://www.w3.org/2000/svg" xml:space="preserve" id="svg1" width="4608" height="3072" version="1.1" viewBox="0 0 1219.2 812.8"><defs id="defs1"><style id="style1">.cls-1{fill:#0283c0}.cls-2{fill:#fff}.cls-3{fill:#ef483f}</style></defs><path id="rect1" d="M 0 0 L 0 812.8 L 1219.2 812.8 L 1219.2 0 L 0 0 z" style="fill:#000;fill-rule:evenodd;stroke:none;stroke-width:8.46667;stroke-linecap:round;stroke-linejoin:round;fill-opacity:1"/><path id="path14" d="m 554.10694,101.65389 c -6.73518,-1.720564 -129.15656,37.63762 -193.80178,128.51093 10.73346,18.95161 -18.63227,49.78766 -31.41371,38.44933 -11.97004,15.2915 -38.94214,32.74295 -14.86583,57.27095 30.30707,22.28233 41.98349,39.67634 61.27082,22.86716 13.06652,-13.88194 24.71893,-24.12112 11.3817,-34.1846 2.04272,-4.62956 13.71866,-18.92321 16.78872,-22.46213 8.12891,-9.37039 10.69943,-11.76105 18.75189,-15.46137 16.08389,-7.39102 25.7833,4.0654 33.8787,10.05744 10.36103,8.27258 20.72208,16.54532 31.08306,24.81793 3.95177,-6.59782 8.39017,-13.85305 13.45172,-21.95877 3.58147,-5.73542 7.08999,-11.38238 7.57232,-12.17934 1.27361,-2.10448 1.27008,-1.80075 1.99027,-2.67797 0.72016,-0.87714 1.52339,-1.82529 2.51144,-2.82123 2.35925,-2.37813 5.10136,-4.21387 7.99516,-5.68272 -14.75118,-11.52766 -29.51954,-23.03372 -44.26681,-34.56639 6.84455,-12.33509 7.06571,-21.63484 -10.20303,-29.4699 -19.79322,-12.80391 7.15711,-29.21845 21.78064,-43.3344 l 65.84769,-56.28588 c 0.6307,-0.47675 0.69605,-0.77435 0.24703,-0.88904 z m 28.50034,119.85131 c -4.10396,-0.0755 -8.59089,1.07334 -11.92536,3.21308 -1.17163,0.75188 -4.34029,3.7822 -7.6815,7.71404 -3.34127,3.93186 -7.09239,8.8541 -10.46014,13.82114 -5.07566,7.48595 -6.87364,12.0184 -7.23235,17.49498 l -0.0768,1.17249 -1.23519,-0.30435 c 1.06782,0.26357 1.21159,0.41659 2.13817,0.80308 0.92661,0.38647 2.14851,0.91324 3.59411,1.54498 2.8911,1.26346 6.67519,2.9524 10.66767,4.76888 7.94838,3.61637 16.95078,7.65774 19.87481,8.92523 1.46479,0.63494 2.88239,1.21647 3.95188,1.63018 0.22419,0.0869 0.34801,0.12705 0.53746,0.1975 0.26288,-0.2482 0.49741,-0.45229 0.87974,-0.88284 1.14119,-1.2852 2.65366,-3.26021 4.25313,-5.56968 3.19896,-4.61905 6.80003,-10.63281 9.23422,-15.7115 5.87825,-12.26444 6.97329,-22.61002 5.02987,-26.41944 -2.28944,-4.48783 -9.78109,-9.94689 -17.63126,-11.90447 -1.22593,-0.30569 -2.55059,-0.46819 -3.91859,-0.4933 z m 51.24981,26.18559 c -0.49187,-0.0105 -0.97407,5.4e-4 -1.44741,0.0311 -1.26226,0.0808 -2.45866,0.30201 -3.60492,0.65827 -4.58504,1.42493 -8.80694,5.15562 -12.89804,12.00431 -1.52497,2.55307 -6.46829,10.22879 -11.19508,17.41217 -2.34638,3.56582 -4.45457,6.83851 -5.94757,9.21718 -0.20137,0.32081 -0.28583,0.46977 -0.46389,0.75661 1.70077,0.62235 4.63808,1.72921 6.99383,2.6369 2.20504,0.84968 7.48918,2.49661 11.27173,3.49033 4.17029,1.09559 7.12715,2.0333 9.57187,3.25414 2.44476,1.22083 4.32799,2.80229 5.88563,4.70151 3.05076,3.71987 4.30194,8.33306 3.92246,12.87325 9.24427,-14.86102 15.71588,-25.64123 18.90599,-32.29888 3.82306,-7.97841 4.17979,-11.32183 3.55305,-15.74713 -0.87706,-6.19329 -5.51579,-12.20039 -12.60762,-15.63328 -4.58548,-2.21973 -8.49705,-3.28692 -11.94003,-3.35635 z m -100.16473,24.7281 c -6.68377,0.0135 -9.20172,1.09659 -14.23081,6.16599 -1.19195,1.20147 -2.86399,3.30863 -3.11549,3.7242 -0.67749,1.11936 -4.05332,6.54713 -7.64046,12.29163 -10.45175,16.73764 -18.47527,30.15832 -24.12174,40.35212 -5.64654,10.19383 -8.91806,17.33812 -9.7926,20.67864 -1.23965,4.73502 -0.64309,7.94637 2.42784,12.39774 2.24017,3.24734 19.13677,27.64658 21.62577,31.22786 4.37533,6.29567 16.24507,23.43381 18.41036,26.5844 1.25138,1.8208 3.82671,5.55859 5.71756,8.29641 1.89369,2.74192 4.69006,6.79722 6.21864,9.01815 1.51997,2.20846 5.6533,8.1915 9.17612,13.27828 8.1746,11.80357 10.68027,15.43407 14.07824,20.41845 l 2.74612,4.03165 c 0.38582,0.5649 0.58025,1.23848 0.55527,1.92213 l -0.25634,6.88152 c -0.15128,4.07318 -1.23823,19.48439 -2.43324,34.76774 -1.19359,15.26531 -2.60149,33.30776 -3.12789,40.09034 -0.52657,6.78544 -1.27531,16.39238 -1.66269,21.35164 -0.38635,4.9456 -1.45848,19.04103 -2.38059,31.30375 -0.92238,12.26687 -2.0898,27.6378 -2.59586,34.1691 -0.50518,6.52016 -1.24474,16.23831 -1.64487,21.58241 -0.40076,5.35199 -1.16047,15.38592 -1.68593,22.30262 -0.90153,11.86646 -1.39246,18.43581 -3.07136,41.03437 -0.38713,5.21094 -1.13481,15.56641 -1.66268,22.99961 -0.52849,7.44137 -1.27864,17.79593 -1.6681,23.02361 -0.50524,6.78123 -1.03906,14.41922 -1.44509,20.58107 -0.20304,3.08095 -0.37618,5.79446 -0.49639,7.84104 -0.0668,1.13357 -0.0716,1.39244 -0.1029,2.0646 h 78.08664 78.14785 c -0.0169,-1.47044 -0.19829,-6.24759 -0.44528,-10.84812 -0.47552,-8.85735 -1.73874,-34.84764 -3.08997,-63.61189 -0.39828,-8.47907 -1.14691,-24.28016 -1.665,-35.10851 -1.76958,-36.98466 -2.36645,-49.59089 -3.31375,-69.98774 -0.52111,-11.22052 -1.26581,-27.23357 -1.65649,-35.58319 -0.68391,-14.61626 -1.8211,-39.54935 -3.30524,-72.59913 -0.18711,-4.16689 -0.30862,-7.66129 -0.48634,-12.05544 -0.1901,-4.6998 -0.4333,-10.246 -0.52042,-12.89415 l -0.30432,-9.24894 c -0.0365,-1.07026 0.46442,-2.08776 1.3351,-2.71125 l 3.78926,-2.70815 c 1.94666,-1.39234 3.88848,-2.96647 5.81204,-4.67907 -11.62921,-9.28534 -23.2586,-18.57075 -34.8878,-27.85602 0.21138,1.63292 0.80405,3.05612 0.16961,4.76348 -0.0732,0.18128 -0.16147,0.39302 -0.37793,0.70859 -0.1413,0.20611 -0.41459,0.4983 -0.81314,0.7876 -0.21158,0.15358 -0.39805,0.31185 -0.75195,0.44373 -1.02047,0.38028 -2.63036,-0.0416 -3.26962,-0.60249 -0.63928,-0.56097 -0.77615,-0.97659 -0.89213,-1.26387 -0.30155,-1.54019 -0.48183,-2.98369 -0.85884,-4.53037 -4.22279,-20.223 -7.18034,-29.43551 -13.66238,-42.65602 -4.29406,-8.75792 -7.67952,-14.2035 -12.84614,-20.69337 -15.24223,-19.14591 -36.11252,-30.7897 -59.59033,-33.31183 -2.66315,-0.28631 -6.66335,-0.39858 -8.07725,-0.29271 -1.02763,0.077 -1.95512,0.10867 -2.73139,0.0935 -1.16219,-0.0225 -1.61104,-0.14879 -2.02279,-0.30667 -0.22573,-0.0865 -0.52714,-0.19436 -0.97732,-0.57617 -0.45016,-0.3818 -1.14613,-1.30542 -1.14613,-2.4712 0,-1.14274 0.15109,-1.45563 2.46034,-4.29417 1.09725,-1.34866 2.59057,-3.14028 4.23455,-5.07092 1.59384,-1.87172 3.04633,-3.6811 4.06649,-5.03841 l 3.75362,-4.91991 c 0.82632,-0.32307 1.73276,-0.25601 2.61678,-0.26562 0.92452,-0.007 2.18261,-0.006 3.70947,0.009 3.05379,0.0289 7.16564,0.10028 11.61481,0.206 17.20131,0.4089 25.39021,0.62597 29.55589,0.3578 4.16572,-0.26815 3.86657,-0.57734 6.78936,-2.34806 2.80837,-1.70139 6.616,-4.73282 9.8251,-7.73724 3.20913,-3.00452 5.93875,-6.32914 6.40836,-7.2765 0.28498,-0.57484 0.60982,-2.05284 0.59092,-3.51202 -0.0189,-1.45919 -0.37572,-2.93958 -0.69079,-3.54609 -0.87534,-1.6848 -1.8462,-2.75333 -3.69789,-3.83725 -1.8517,-1.0839 -4.65522,-2.08523 -8.76803,-3.05358 -5.42881,-1.27817 -6.90451,-1.76727 -19.17162,-6.46099 -15.2881,-5.84971 -22.70122,-9.01541 -42.90771,-18.32439 -5.61121,-2.58509 -8.83785,-3.97861 -11.16022,-4.67522 -2.32231,-0.6966 -3.80464,-0.80059 -6.69799,-0.79457 z m 145.71863,14.9526 c -0.5993,-0.0167 -1.20686,0.0995 -2.47817,0.33376 -4.74269,0.87387 -5.37739,1.33603 -8.94227,6.3162 -4.05457,5.6642 -9.68681,14.29908 -16.7624,25.71704 -10.04651,16.21236 -11.17967,17.99993 -17.11706,26.98945 -3.47392,5.25955 -5.39768,8.41871 -6.3224,10.5577 -0.92475,2.139 -1.01345,3.17737 -0.90065,5.44265 0.19201,3.8574 0.59063,4.76689 3.22161,7.37716 1.7806,1.7667 4.61689,3.14987 10.25336,4.4181 7.15612,1.61019 8.53361,1.40623 13.70033,-2.10257 1.49103,-1.01261 4.64386,-3.93898 8.36918,-7.91772 3.72535,-3.97869 8.15656,-9.06589 12.83143,-14.7125 9.34986,-11.29311 19.68497,-24.83596 27.4626,-36.3274 1.02111,-1.50869 1.10903,-3.81389 -0.6234,-7.36867 -1.73247,-3.55468 -5.27464,-7.90304 -10.39819,-12.2142 -5.24553,-4.41378 -6.621,-5.23579 -9.86926,-6.03739 -1.23433,-0.30459 -1.82542,-0.45499 -2.42471,-0.47161 z m 36.7487,41.93732 c -0.77303,-0.0119 -1.51589,0.0442 -2.24659,0.1727 -1.46146,0.25709 -2.87423,0.80721 -4.38556,1.68903 -3.02272,1.76367 -6.398,5.04991 -10.31301,10.24485 -1.96261,2.60421 -4.49963,5.8439 -5.80274,7.39807 -1.08434,1.29314 -5.14223,6.38304 -8.80985,11.06573 -3.70416,4.72954 -8.853,11.12145 -11.54046,14.31986 -4.92881,5.86612 -7.17141,9.86104 -7.93862,13.28911 -0.34321,1.53384 -0.31071,1.93538 -0.21606,2.23036 0.0945,0.29488 0.54411,1.03578 1.89346,2.51222 3.93023,4.30032 10.44258,8.82924 13.93656,10.05356 2.0514,0.71883 2.78265,0.79339 5.06162,-0.29584 2.27897,-1.08923 5.81455,-3.72833 11.31354,-8.43966 8.09247,-6.93322 16.96497,-15.33057 24.18991,-22.71927 7.22486,-7.38859 12.98568,-14.22775 14.12236,-16.30779 2.15068,-3.93579 1.31779,-9.5424 -1.97553,-14.65364 -3.29332,-5.1113 -8.88243,-9.3287 -14.86044,-10.32539 -0.85204,-0.14205 -1.65553,-0.22183 -2.42859,-0.2339 z m -89.85401,1.12061 c -0.65405,0.60102 -1.18179,1.18608 -1.87257,1.79203 -4.33509,3.80254 -9.12044,7.35065 -13.15668,9.27371 l -3.49341,1.66578 c -0.43799,0.20833 -0.91758,0.31396 -1.40249,0.30977 l -8.60617,-0.0704 c -4.77838,-0.0399 -13.15586,-0.21338 -18.70542,-0.38411 l -8.14384,-0.22459 c -0.0973,0.49343 0.64165,0.91572 0.62804,1.18718 0.0243,-0.0342 0.34216,0.41882 1.03619,1.13066 0.83679,0.85828 1.94009,1.91474 3.07137,2.94436 1.13128,1.02963 2.29692,2.03997 3.25181,2.81193 0.95487,0.77194 1.9757,1.38299 1.65958,1.23753 1.05537,0.48542 3.18656,1.47164 4.75728,2.20324 2.89042,1.34629 5.22222,2.04931 8.64101,2.59276 0.43648,0.0694 5.17465,0.30301 9.03987,0.26022 l 5.94525,-0.0651 0.58157,-0.55605 c 1.99495,-1.90095 3.74763,-4.42045 8.79202,-13.0552 1.67926,-2.87447 4.99824,-8.21413 7.97659,-13.05371 z m -8.82921,31.33626 c -0.44594,0.49229 -0.90513,1.21432 -1.37229,1.6596 l -0.002,0.002 -0.57075,0.54445 c -1.74482,1.66788 -4.05824,2.61045 -6.47185,2.63689 l -3.59411,0.0379 c 6.44887,4.96373 12.42834,10.68323 17.68783,17.28979 5.52057,6.9344 9.4655,13.29887 13.94352,22.43196 5.30891,10.82783 8.53971,20.80475 11.76581,34.24266 2.02845,1.61959 4.05695,3.23915 6.08541,4.85874 h 7.7e-4 c 1.85147,1.47828 3.70271,2.95685 5.55418,4.43512 50.26547,40.13391 98.70115,72.9457 148.9667,113.07961 17.67509,3.13712 45.65959,-27.43461 33.03518,-45.50187 -46.77453,-36.5335 -93.54922,-73.06754 -140.33714,-109.58402 -0.21698,-0.16936 -0.43431,-0.33946 -0.65129,-0.50879 -1.08078,-0.84356 -2.1609,-1.68803 -3.24173,-2.53158 -2.96264,2.40139 -5.64747,4.41367 -8.37229,5.71602 -1.57299,0.75181 -3.6638,1.64504 -6.35413,1.74785 -2.6904,0.10279 -4.69506,-0.61491 -5.95689,-1.05707 -6.9231,-2.42595 -12.59617,-6.90699 -17.81328,-12.61536 -1.70828,-1.86916 -2.57455,-1.79489 -3.93097,-6.02347 -0.33444,-1.04215 -0.5702,-3.0506 -0.48867,-4.22059 0.0818,-1.17001 0.25593,-1.99499 0.48015,-2.99703 0.29982,-1.33991 1.08356,-2.62398 1.60074,-3.92478 -2.33315,1.46701 -4.83968,2.82341 -8.04007,3.31297 -4.08881,0.6255 -7.33576,-0.13694 -11.12536,-0.98969 -6.41514,-1.44342 -11.26153,-3.37206 -14.86583,-6.94813 -1.5372,-1.52511 -3.32232,-3.37396 -4.54279,-6.16752 -1.22045,-2.79363 -1.37102,-5.27133 -1.48147,-7.48946 -0.0201,-0.40341 0.0833,-0.97758 0.0936,-1.43733 z m 102.48487,26.97162 c -0.0458,0.0419 -0.0725,0.0641 -0.11852,0.10605 -4.00312,3.67473 -8.35863,7.52844 -12.0717,10.71105 -0.15072,0.12915 -0.25153,0.20948 -0.39959,0.33611 4.2051,3.28205 8.40784,6.567 12.61302,9.84911 0.61944,-6.31748 0.63825,-12.815 0.086,-19.78264 -0.0376,-0.47154 -0.0717,-0.77133 -0.1092,-1.21973 z" style="color:#000;display:inline;fill:#b00020;fill-opacity:1;stroke:none;stroke-width:1.00013;stroke-linecap:round;stroke-linejoin:round;stroke-dasharray:none;paint-order:stroke fill markers"/></svg>