<svg xmlns="http://www.w3.org/2000/svg" xml:space="preserve" id="svg1" width="4608" height="3072" version="1.1" viewBox="0 0 1219.2 812.8"><defs id="defs1"><style id="style1">.cls-1{fill:#0283c0}.cls-2{fill:#fff}.cls-3{fill:#ef483f}</style></defs><path id="rect1" d="M 0 0 L 0 812.8 L 1219.2 812.8 L 1219.2 0 L 0 0 z" style="fill:#103070;stroke-width:4.23333;stroke-linecap:round;stroke-linejoin:round;stroke-miterlimit:128;paint-order:stroke fill markers;fill-opacity:1"/><path id="path1" d="M 575.73333 135.46667 A 237.06664 237.06667 0 0 1 375.60136 369.27668 A 237.06665 237.06665 0 0 1 442.39574 239.19522 L 394.62294 191.42294 A 304.79996 304.79996 0 0 0 304.8 406.4 A 304.79996 304.79996 0 0 0 609.6 711.2 A 304.79996 304.79996 0 0 0 825.12638 621.92638 L 777.23163 574.03163 A 237.06665 237.06665 0 0 1 646.69799 640.54488 A 237.06664 237.06667 0 0 1 880.53333 440.26667 L 880.53333 372.53333 A 304.80002 304.80005 0 0 0 578.11355 640.98878 A 237.06665 237.06665 0 0 1 467.80039 596.09385 L 825.12586 238.76837 L 777.23163 190.87414 L 419.90615 548.19961 A 237.06665 237.06665 0 0 1 375.01122 437.88645 A 304.80002 304.80005 0 0 0 643.46667 135.46667 L 575.73333 135.46667 z" style="fill:#fff;fill-opacity:1;stroke-width:4.23333;stroke-linecap:round;stroke-linejoin:round;stroke-miterlimit:128;paint-order:stroke fill markers"/></svg>