<svg xmlns="http://www.w3.org/2000/svg" xml:space="preserve" id="svg1" width="4608" height="3072" version="1.1" viewBox="0 0 1219.2 812.8"><defs id="defs1"><style id="style1">.cls-1{fill:#0283c0}.cls-2{fill:#fff}.cls-3{fill:#ef483f}</style></defs><path id="rect1" d="M 0 0 L 0 812.8 L 1219.2 812.8 L 1219.2 0 L 0 0 z" style="fill:#904020;fill-rule:evenodd;stroke:none;stroke-width:8.46667;stroke-linecap:round;stroke-linejoin:round;fill-opacity:1"/><path id="path1" d="M 844.61149 99.544828 L 761.56902 182.5873 C 716.77025 152.02516 663.83057 135.61028 609.6 135.46667 L 609.6 237.06667 C 703.12012 237.06666 778.93332 312.87987 778.93333 406.4 C 778.65386 433.51217 771.86797 460.16091 759.14643 484.10482 L 476.18747 201.14586 L 541.86667 135.46667 L 338.66667 135.46667 L 338.66667 338.66667 L 404.34535 272.98799 L 687.3043 555.94643 C 663.36055 568.66789 636.712 575.45378 609.6 575.73333 C 516.07988 575.73334 440.26668 499.92013 440.26667 406.4 L 338.66667 406.4 C 338.81023 460.63097 355.22529 513.57106 385.78782 558.37005 L 302.74586 641.41201 L 374.58799 713.25414 L 457.62995 630.21218 C 502.42894 660.77471 555.36903 677.18977 609.6 677.33333 C 663.8074 677.14042 716.71077 660.69123 761.47032 630.11244 L 844.61201 713.25414 L 916.45362 641.41201 L 833.31244 558.27083 C 863.89132 513.51114 880.34052 460.60758 880.53333 406.4 C 880.38977 352.16903 863.97471 299.22894 833.41218 254.42995 L 916.45517 171.38695 L 844.61149 99.544828 z" style="fill:#ffd000;fill-opacity:1;stroke-width:33.8667;stroke-miterlimit:128"/></svg>