<svg xmlns="http://www.w3.org/2000/svg" xml:space="preserve" id="svg1" width="4608" height="3072" version="1.1" viewBox="0 0 1219.2 812.8"><defs id="defs1"><style id="style1">.cls-1{fill:#0283c0}.cls-2{fill:#fff}.cls-3{fill:#ef483f}</style></defs><path id="rect1" d="M 0,0 V 812.8 H 1219.2 V 0 Z" style="display:inline;fill:#b00020;fill-opacity:1;fill-rule:evenodd;stroke:none;stroke-width:8.46667;stroke-linecap:round;stroke-linejoin:round"/><path id="path3" d="M 1024 239.99986 C 994.75886 240.41806 965.56545 242.5061 936.56247 246.25377 L 914.23826 378.57798 C 876.91546 385.27584 840.26166 395.27745 804.70961 408.4647 L 718.61716 304.30845 C 665.09514 327.92877 614.4471 357.58733 567.65883 392.70689 L 614.10024 517.42564 C 584.86068 541.86177 557.86188 568.86057 533.42576 598.10012 L 408.70701 551.65871 C 373.58744 598.447 343.92888 649.09502 320.30857 702.61705 L 424.46482 788.70949 C 411.27756 824.26155 401.27595 860.91535 394.5781 898.23814 L 262.25388 920.56236 C 258.50621 949.56534 256.41817 978.75875 255.99997 1007.9999 C 256.41817 1037.2409 258.50621 1066.4344 262.25388 1095.4374 L 394.5781 1117.7616 C 401.27588 1155.0848 411.27748 1191.7391 424.46482 1227.2915 L 320.30857 1313.3827 C 343.9288 1366.9051 373.58736 1417.5537 408.70701 1464.3423 L 533.42576 1417.9009 C 557.86194 1447.14 584.86073 1474.1384 614.10024 1498.5741 L 567.65883 1623.2928 C 614.4471 1658.4124 665.09514 1688.0709 718.61716 1711.6913 L 804.70961 1607.535 C 840.26166 1620.7223 876.91546 1630.7238 914.23826 1637.4217 L 936.56247 1769.746 C 965.56545 1773.4936 994.75886 1775.5817 1024 1775.9999 C 1053.1592 1775.9329 1082.2911 1774.2044 1111.2539 1770.8241 L 1133.6054 1638.3501 C 1171.3188 1631.8214 1208.3705 1621.9228 1244.3151 1608.7733 L 1329.8424 1712.246 C 1383.3872 1689.0623 1434.1156 1659.8521 1481.0455 1625.1808 L 1434.125 1499.1782 C 1463.5127 1474.6393 1490.6394 1447.5126 1515.1784 1418.1249 L 1641.1823 1465.0454 C 1675.853 1418.1154 1705.0628 1367.387 1728.2461 1313.8423 L 1624.7734 1228.3137 C 1637.9228 1192.3695 1647.8214 1155.3183 1654.3502 1117.6053 L 1786.8242 1095.2538 C 1790.2045 1066.291 1791.9326 1037.1591 1792 1007.9999 C 1791.933 978.84057 1790.2045 949.70873 1786.8242 920.74595 L 1654.3502 898.39439 C 1647.8214 860.6815 1637.9228 823.63017 1624.7734 787.68606 L 1728.2461 702.15871 C 1705.0628 648.61408 1675.853 597.88564 1641.1823 550.95559 L 1515.1784 597.87486 C 1490.6393 568.48756 1463.5126 541.36137 1434.125 516.82278 L 1481.0455 390.81887 C 1434.1156 356.14765 1383.3871 326.93743 1329.8424 303.75377 L 1244.3151 407.22642 C 1208.3705 394.07735 1171.3188 384.17915 1133.6054 377.6509 L 1111.2539 245.17564 C 1082.2911 241.79535 1053.1592 240.0673 1024 239.99986 z M 1024 495.99986 C 1159.7907 495.99984 1290.0205 549.94226 1386.039 645.9608 C 1482.0575 741.97934 1536 872.20915 1536 1007.9999 C 1536 1143.7905 1482.0575 1274.0204 1386.039 1370.0389 C 1290.0205 1466.0574 1159.7906 1519.9999 1024 1519.9999 C 888.20926 1519.9999 757.97946 1466.0574 661.96091 1370.0389 C 565.94238 1274.0204 511.99995 1143.7906 511.99997 1007.9999 C 511.99994 872.20914 565.94237 741.97934 661.96091 645.9608 C 757.97945 549.94226 888.20925 495.99984 1024 495.99986 z M 767.99997 666.66653 L 767.99997 837.33319 L 1280 837.33319 L 1194.6666 666.66653 L 767.99997 666.66653 z M 938.66664 922.66653 L 938.66664 1434.6665 L 1109.3333 1434.6665 L 1109.3333 922.66653 L 938.66664 922.66653 z" style="display:inline;fill:#fff;fill-opacity:1;stroke-width:2.82222;stroke-linecap:round;stroke-linejoin:round;stroke-miterlimit:128" transform="matrix(0.396875,0,0,0.396875,203.20001,6.3500558)"/></svg>