<svg xmlns="http://www.w3.org/2000/svg" xml:space="preserve" id="svg1" width="4608" height="3072" version="1.1" viewBox="0 0 1219.2 812.8"><defs id="defs1"><style id="style1">.cls-1{fill:#0283c0}.cls-2{fill:#fff}.cls-3{fill:#ef483f}</style></defs><path id="rect1" d="M 0 0 L 0 812.8 L 1219.2 812.8 L 1219.2 0 L 0 0 z" style="fill:#000;fill-rule:evenodd;stroke:none;stroke-width:8.46667;stroke-linecap:round;stroke-linejoin:round;fill-opacity:1"/><path id="path1-7" d="m 637.83309,101.60118 a 6.335856,6.335856 0 0 0 -6.45701,6.45698 l 0.3106,16.04914 a 6.335856,6.335856 0 0 0 1.8526,4.35788 l 57.26468,57.26522 28.5988,28.59876 L 584.65489,344.79815 373.71955,133.8607 a 6.335856,6.335856 0 0 0 -4.48086,-1.8562 h -65.44558 a 6.335856,6.335856 0 0 0 -6.33399,6.33655 v 65.44663 a 6.335856,6.335856 0 0 0 1.85622,4.48086 L 509.04976,418.00141 285.07177,634.86664 a 6.335856,6.335856 0 0 0 -0.0734,9.02891 l 65.44663,65.44871 a 6.335856,6.335856 0 0 0 9.03201,-0.0729 l 216.8652,-223.9785 50.16177,50.16126 c 0.015,0.0153 0.023,0.0344 0.038,0.0496 3.1539,3.15309 7.5059,4.11505 11.60299,3.98425 l -6.14329,6.14329 -28.50989,-14.41255 a 6.335856,6.335856 0 0 0 -8.7948,3.44061 l -14.59969,39.14283 a 6.335856,6.335856 0 0 0 2.81739,7.72769 l 57.49569,32.49671 a 6.335856,6.335856 0 0 0 7.5965,-1.03766 l 38.23688,-38.23642 42.56328,42.55915 46.70979,46.71393 c -1.4152,2.48297 -2.78469,4.95924 -3.8752,7.34735 -2.7079,5.93007 -4.42769,11.5153 -4.7615,16.83566 -0.3337,5.32043 0.88491,10.815 4.7672,14.69678 3.88221,3.88173 9.37279,5.09758 14.6932,4.76352 5.32029,-0.33407 10.90869,-2.05237 16.83869,-4.76043 11.86,-5.41608 25.0955,-14.94708 37.66129,-27.51303 12.56609,-12.56617 22.09409,-25.80115 27.50989,-37.66126 2.708,-5.93008 4.4277,-11.51833 4.7615,-16.83877 0.3338,-5.3204 -0.8853,-10.8119 -4.7677,-14.69366 -3.1021,-3.10195 -7.4029,-4.57252 -11.77029,-4.77801 -8.43351,-0.39666 -17.4666,3.05022 -27.14719,8.60464 l -11.06039,-11.06031 a 6.3352223,6.3352223 0 0 0 -0.017,-0.0262 6.3352223,6.3352223 0 0 0 -0.015,-0.006 l -11.82904,-11.83219 a 6.3352223,6.3352223 0 0 0 -0.017,-0.0238 6.3352223,6.3352223 0 0 0 -0.015,-0.006 l -11.82621,-11.82562 a 6.3352223,6.3352223 0 0 0 -0.02,-0.0326 6.3352223,6.3352223 0 0 0 -0.018,-0.009 l -11.823,-11.82305 a 6.3352223,6.3352223 0 0 0 -0.02,-0.0285 6.3352223,6.3352223 0 0 0 -0.018,-0.006 l -11.82619,-11.82872 a 6.3352223,6.3352223 0 0 0 -0.02,-0.0295 6.3352223,6.3352223 0 0 0 -0.018,-0.006 L 759.0516,539.64992 a 6.3352223,6.3352223 0 0 0 -0.015,-0.0202 6.3352223,6.3352223 0 0 0 -0.012,-0.006 l -11.8381,-11.8354 a 6.3352223,6.3352223 0 0 0 -0.012,-0.0176 6.3352223,6.3352223 0 0 0 -0.012,-0.003 l -6.9644,-6.96805 38.24259,-38.24262 a 6.335856,6.335856 0 0 0 1.0377,-7.59643 l -32.49335,-57.50078 a 6.335856,6.335856 0 0 0 -3.34559,-2.83497 h -5e-4 a 6.335856,6.335856 0 0 0 -4.38421,0.017 l -39.14278,14.60015 a 6.335856,6.335856 0 0 0 -3.44059,8.7948 l 14.41298,28.51246 -6.15619,6.1557 c 0.1143,-3.56786 -0.6939,-7.28306 -2.9616,-10.27895 a 6.3352223,6.3352223 0 0 0 -1.0139,-1.32965 l -51.40818,-51.40769 130.46955,-134.74883 74.40938,74.40938 a 6.335856,6.335856 0 0 0 8.9612,0 l 70.81577,-70.81787 a 6.335856,6.335856 0 0 0 0,-8.95914 l -75.69607,-75.69666 8.04859,-8.31266 a 6.335856,6.335856 0 0 0 -0.069,-8.88783 L 817.66882,127.86 a 6.335856,6.335856 0 0 0 -4.4282,-1.85571 6.335856,6.335856 0 0 0 -4.4576,1.78232 l -8.3158,8.05222 -29.88599,-29.88602 a 6.335856,6.335856 0 0 0 -4.35839,-1.85312 z" style="display:inline;fill:#fff;fill-opacity:1;stroke:none;stroke-width:.999997"/><path id="path4" d="M 644.16947 114.39767 L 644.30434 121.31301 L 699.76297 176.77061 L 858.90365 335.91025 L 920.76085 274.05046 L 763.42524 116.71794 L 644.16947 114.39767 z M 813.11729 141.22652 L 809.4276 144.79943 L 849.54556 184.9174 L 853.11692 181.22821 L 813.11729 141.22652 z M 310.12991 144.67489 L 310.12991 201.16292 L 624.23167 515.26312 C 624.79105 513.57376 625.36604 511.88397 626.1592 510.13889 C 629.63075 502.5009 635.35812 494.25183 642.6817 486.18634 L 336.12832 179.63296 C 333.65441 177.15897 333.65441 173.14784 336.12832 170.67382 C 337.31583 169.48596 338.92644 168.81881 340.60608 168.81812 C 342.2868 168.81797 343.89868 169.48519 345.08695 170.67382 L 651.73748 477.3259 C 657.6789 471.94917 663.75475 467.17791 669.66352 463.77221 C 673.40803 461.61396 677.03522 459.84337 680.59463 458.65573 L 366.6169 144.67489 L 310.12991 144.67489 z M 728.36329 223.28973 L 703.04132 247.80813 L 596.67986 350.79254 L 643.5509 397.66358 L 766.86689 270.30546 L 771.05423 265.98066 L 728.36329 223.28973 z M 746.9849 417.45979 L 767.74642 454.1976 L 746.98541 417.45979 L 746.9849 417.45979 z M 738.61641 428.40434 L 711.17675 438.63938 L 724.46121 464.92718 C 725.69587 467.36939 725.22302 470.32895 723.28867 472.26471 L 684.98403 510.56832 L 684.98403 510.57142 L 708.74744 534.33379 L 766.07934 476.99983 L 738.61641 428.40434 z M 514.94893 429.92828 L 298.5146 639.49017 L 354.84966 695.82885 L 564.41516 479.39399 L 514.94893 429.92828 z M 690.46948 469.69536 C 687.92299 469.56885 682.29166 471.12117 675.99336 474.75138 C 669.70125 478.37803 662.61908 483.84195 655.97236 490.48531 C 655.96836 490.49231 655.96438 490.49969 655.96048 490.50649 C 655.95548 490.50849 655.95149 490.5107 655.94549 490.5127 C 647.36623 499.09328 640.95411 508.2073 637.69234 515.38353 C 636.06107 518.97256 635.25591 522.07605 635.13694 524.05638 C 635.02051 525.99495 635.39712 526.42716 635.48886 526.52083 L 635.5085 526.53995 L 635.51728 526.55236 C 635.60768 526.64136 636.03848 527.02337 637.9869 526.90634 C 639.96728 526.7874 643.07076 525.98273 646.65975 524.35146 C 653.83774 521.0889 662.95329 514.67449 671.53575 506.09211 C 680.11816 497.50964 686.53052 488.39616 689.79304 481.21817 C 691.42431 477.62916 692.22843 474.52723 692.3474 472.54687 C 692.46635 470.56649 692.06825 470.13657 691.98774 470.05606 L 691.98464 470.05606 C 691.94894 470.02026 691.75878 469.76141 690.47103 469.69691 L 690.47052 469.69691 L 690.46948 469.69536 z M 676.02282 519.53056 L 637.71921 557.83468 C 635.7832 559.76868 632.82422 560.24115 630.38219 559.00619 L 604.09439 545.72173 L 593.85833 573.16191 L 642.45329 600.62535 L 699.78623 543.29294 L 676.02282 519.53056 z M 731.24787 529.76921 L 695.21493 565.80267 L 697.69902 568.28676 L 733.73196 532.2533 L 731.24787 529.76921 z M 742.69368 541.21193 L 706.65712 577.24487 L 709.56289 580.15012 L 745.59583 544.11511 L 742.69368 541.21193 z M 754.55498 553.07632 L 718.52203 589.10978 L 721.42367 592.01193 L 757.45661 555.97588 L 754.55498 553.07632 z M 782.77341 563.36613 C 782.77641 563.37113 782.78044 563.3761 782.78374 563.3806 C 782.78074 563.3756 782.77671 563.37063 782.77341 563.36613 z M 766.41575 564.93658 L 730.38281 600.97004 L 733.28496 603.8727 L 769.321 567.83976 L 766.41575 564.93658 z M 794.62643 575.21605 L 794.62643 575.21657 C 794.62943 575.22057 794.63118 575.22455 794.63418 575.22845 C 794.63218 575.22445 794.62947 575.22045 794.62747 575.21605 L 794.62643 575.21605 z M 794.63677 575.23259 C 794.63977 575.23759 794.64359 575.24331 794.64659 575.24861 L 794.6471 575.24861 C 794.6441 575.24361 794.64007 575.23789 794.63677 575.23259 z M 778.28273 576.79735 L 742.24668 612.83391 L 745.14573 615.73348 L 781.18177 579.70002 L 778.28273 576.79735 z M 806.47377 587.07373 L 806.47325 587.07424 C 806.47825 587.07624 806.48222 587.07844 806.48772 587.08044 C 806.48872 587.08244 806.49089 587.08413 806.49289 587.08613 C 806.49189 587.08413 806.48976 587.08244 806.48876 587.08044 C 806.48376 587.07844 806.47979 587.07624 806.47429 587.07424 L 806.47377 587.07373 z M 806.50013 587.0975 C 806.50113 587.0985 806.50183 587.0996 806.50271 587.1006 C 806.50196 587.0996 806.50114 587.0985 806.50064 587.0975 L 806.50013 587.0975 z M 806.50271 587.1006 C 806.50346 587.1016 806.50428 587.1027 806.50478 587.1037 L 806.50529 587.1037 C 806.50479 587.1027 806.50358 587.1016 806.50271 587.1006 z M 790.1404 588.65864 L 754.10746 624.69469 L 757.00961 627.59735 L 793.04565 591.56389 L 790.1404 588.65864 z M 802.00428 600.52355 L 765.97082 636.55856 L 768.8709 639.45864 L 804.90591 603.4257 L 802.00428 600.52355 z M 813.86557 612.38381 L 777.83263 648.42037 L 781.38073 651.96847 L 792.81776 640.53093 C 794.86788 638.24842 796.90104 635.96038 799.15225 633.70912 C 800.58323 632.27811 802.08259 631.16899 803.53597 629.81272 L 817.41316 615.93501 L 813.86557 612.38381 z M 855.97824 614.07931 C 851.83554 613.88447 844.05735 616.18711 835.41877 621.18172 C 828.14385 625.38801 820.2054 631.62484 812.46824 638.79822 L 801.98671 649.27923 C 793.43208 658.88302 786.85572 668.555 783.16615 676.63467 C 780.89653 681.60479 779.7149 685.96961 779.52451 689.00446 C 779.33411 692.03932 779.96879 693.30698 780.60558 693.94369 C 781.24235 694.58039 782.51074 695.21327 785.54585 695.02269 C 788.58097 694.83213 792.94491 693.65289 797.91512 691.38312 C 807.8555 686.84371 820.21566 678.09973 831.87842 666.43684 C 843.54147 654.77379 852.28649 642.4098 856.82574 632.46941 C 859.09533 627.49924 860.27492 623.13813 860.46531 620.10323 C 860.65571 617.06843 860.02259 615.8002 859.38579 615.16348 L 859.38579 615.16038 C 858.90968 614.68434 858.08286 614.17838 855.97824 614.07931 z" style="display:inline;fill:#b00020;fill-opacity:1;stroke:none;stroke-width:.999997"/></svg>