<svg xmlns="http://www.w3.org/2000/svg" xml:space="preserve" id="svg1" width="4608" height="3072" version="1.1" viewBox="0 0 1219.2 812.8"><defs id="defs1"><style id="style1">.cls-1{fill:#0283c0}.cls-2{fill:#fff}.cls-3{fill:#ef483f}</style></defs><path id="rect1" d="M 0 0 L 0 812.8 L 1219.2 812.8 L 1219.2 0 L 0 0 z" style="fill:#b00020;fill-rule:evenodd;stroke:none;stroke-width:8.46667;stroke-linecap:round;stroke-linejoin:round;fill-opacity:1"/><path id="path8" d="M 609.6 101.6 L 594.39266 148.40283 L 545.18171 148.40283 L 584.99427 177.32819 L 569.78744 224.13051 L 609.6 195.20514 L 649.41256 224.13051 L 634.20573 177.32819 L 674.01829 148.40283 L 624.80734 148.40283 L 609.6 101.6 z M 476.34767 132.76657 C 463.49344 139.01721 451.0947 146.16434 439.24347 154.15493 L 461.5434 221.85519 C 448.0893 232.65398 435.85398 244.8893 425.05519 258.3434 L 357.35493 236.04347 C 349.36434 247.8947 342.21721 260.29344 335.96657 273.14767 L 389.19485 320.68637 C 382.79719 336.74613 378.17528 353.45775 375.41171 370.5226 L 306.33686 384.91294 C 305.57155 392.05491 305.05895 399.22182 304.8 406.4 C 305.05895 413.57818 305.57155 420.74509 306.33686 427.88706 L 375.41171 442.2774 C 378.17528 459.34225 382.79719 476.05387 389.19485 492.11363 L 335.96657 539.65233 C 342.21721 552.50656 349.36434 564.9053 357.35493 576.75653 L 425.05519 554.4566 C 435.85398 567.9107 448.0893 580.14602 461.5434 590.94481 L 439.24347 658.64455 C 451.09468 666.63531 463.49343 673.78262 476.34767 680.03343 L 523.88637 626.80515 C 539.94613 633.20281 556.65775 637.82472 573.7226 640.58829 L 588.11294 709.66314 C 595.25491 710.42845 602.42182 710.94105 609.6 711.2 C 616.77818 710.94105 623.94509 710.42845 631.08706 709.66314 L 645.4774 640.58829 C 662.54225 637.82472 679.25387 633.20281 695.31363 626.80515 L 742.85233 680.03343 C 755.70657 673.78262 768.10532 666.63531 779.95653 658.64455 L 757.6566 590.94481 C 771.1107 580.14602 783.34602 567.9107 794.14481 554.4566 L 861.84507 576.75653 C 869.83566 564.9053 876.98279 552.50656 883.23343 539.65233 L 830.00515 492.11363 C 836.40281 476.05387 841.02472 459.34225 843.78829 442.2774 L 912.86314 427.88706 C 913.62845 420.74509 914.14105 413.57818 914.4 406.4 C 914.14105 399.22182 913.62845 392.05491 912.86314 384.91294 L 843.91593 370.54896 C 841.27045 353.36233 836.74201 336.5187 830.41236 320.32257 L 883.23343 273.14767 C 876.98279 260.29344 869.83566 247.8947 861.84507 236.04347 L 794.56959 258.20388 C 783.69747 244.63461 771.36539 232.30253 757.79612 221.43041 L 779.95653 154.15493 C 768.1053 146.16434 755.70656 139.01721 742.85233 132.76657 L 690.82657 239.60191 C 754.58261 270.51145 795.6019 335.06075 795.86667 406.4 C 795.86666 509.27184 712.47184 592.66666 609.6 592.66667 C 506.72816 592.66666 423.33334 509.27184 423.33333 406.4 C 423.5981 335.06075 464.61739 270.51145 528.37343 239.60191 L 476.34767 132.76657 z M 635.31006 287.64911 C 622.14353 287.56017 609.60911 291.01866 599.18203 298.29084 C 612.25021 291.45896 634.33889 299.08699 651.68425 316.42151 C 658.29705 323.03438 657.52645 333.06571 651.68425 340.36837 C 640.36153 354.52177 629.02775 367.27206 617.5468 379.38149 L 609.42378 370.30298 C 602.81089 363.69012 596.82376 358.95521 603.43655 352.34232 C 610.04945 345.72944 604.06273 340.9945 597.44984 334.38166 L 537.58166 394.24984 C 544.19452 400.86272 548.92952 406.84988 555.54232 400.23707 C 562.15501 393.62431 566.88957 399.61098 573.50246 406.22378 L 582.46677 414.24448 C 555.79823 439.52138 527.59899 464.45359 496.02657 496.02605 L 519.97343 519.97343 C 551.98026 487.9666 577.16671 459.43214 602.803 432.44027 L 687.25262 508 C 693.86532 514.61274 704.58711 514.6129 711.2 508 C 717.81289 501.38716 717.81289 490.66544 711.2 484.05262 L 635.51625 399.46502 C 647.94084 387.63546 661.06045 375.97266 675.63163 364.31575 C 682.24441 357.70292 692.65282 357.39009 702.5721 367.30936 C 712.49138 377.22868 712.1786 387.63752 705.56572 394.25035 L 711.55243 400.23707 C 714.85893 403.54357 720.21948 403.54354 723.52586 400.23707 L 747.47324 376.28969 C 750.77962 372.98322 750.78015 367.62224 747.47375 364.31575 L 741.48652 358.32903 C 734.87364 364.9419 724.46533 365.25475 714.54605 355.33542 C 704.62677 345.41615 704.93965 335.00779 711.55243 328.39494 L 699.57849 316.421 C 680.95396 297.79911 657.25426 287.79734 635.31006 287.64911 z M 529.43073 299.19414 C 523.86054 299.18834 518.29339 299.24761 512.73408 299.36106 C 515.23267 305.19006 517.68346 311.24743 517.42216 317.63953 C 517.48096 326.12626 515.87795 334.45809 513.99498 342.62508 C 512.44941 345.96386 506.54016 338.86666 507.25689 345.41406 C 506.74266 354.81758 506.79366 364.34247 507.99897 373.756 C 508.6943 379.92941 515.26977 383.52497 520.95942 383.26705 C 526.708 383.22405 532.68175 383.38144 538.15423 381.70383 C 538.21903 378.54875 529.56299 374.93476 534.49399 372.45117 C 537.72147 372.84068 546.16667 370.09647 539.86731 367.2551 C 536.3956 364.67526 537.23432 359.53093 536.56983 355.74469 C 536.36896 350.96173 536.01983 346.12797 536.43651 341.3802 C 540.08405 340.1251 544.02074 344.48055 547.61774 345.54635 C 551.54493 347.09483 557.45371 349.28758 560.4893 345.44506 C 562.9984 338.83481 562.87358 331.47253 563.17338 324.41792 C 563.85008 320.98568 561.02689 313.05886 566.58299 313.75139 C 571.81568 316.09644 574.31014 321.71169 577.41023 326.20748 C 579.71603 328.38881 581.45979 335.47509 584.81288 334.41835 C 587.63088 329.54338 588.75508 323.56216 587.88298 317.85967 C 587.78798 311.6171 582.65324 306.48693 577.04385 304.32096 C 567.26226 300.19241 556.49373 299.86374 546.14444 299.41687 C 540.57394 299.27104 535.00093 299.19994 529.43073 299.19414 z" style="display:inline;fill:#000;fill-opacity:1;stroke:none;stroke-width:33.8667;stroke-linejoin:bevel;stroke-miterlimit:128;stroke-dasharray:none;stroke-opacity:1;paint-order:stroke fill markers"/></svg>