<svg xmlns="http://www.w3.org/2000/svg" xml:space="preserve" id="svg1" width="4608" height="3072" version="1.1" viewBox="0 0 1219.2 812.8"><defs id="defs1"><style id="style1">.cls-1{fill:#0283c0}.cls-2{fill:#fff}.cls-3{fill:#ef483f}</style></defs><path id="rect1" d="M 0 0 L 0 812.8 L 1219.2 812.8 L 1219.2 0 L 0 0 z" style="fill:#d0d0d0;fill-rule:evenodd;stroke:none;stroke-width:8.46667;stroke-linecap:round;stroke-linejoin:round;fill-opacity:1"/><path id="path1" d="M 609.6 101.6 A 304.79999 304.80002 0 0 0 304.8 406.4 A 304.79999 304.80002 0 0 0 609.6 711.2 A 304.79999 304.80002 0 0 0 914.4 406.4 A 304.79999 304.80002 0 0 0 609.6 101.6 z M 609.6 135.46667 A 135.46666 135.46667 0 0 0 474.13333 270.93333 A 135.46666 135.46667 0 0 0 609.6 406.4 A 135.46666 135.46667 0 0 1 745.06667 541.86667 A 135.46666 135.46667 0 0 1 609.6 677.33333 A 270.93332 270.93334 0 0 1 338.66667 406.4 A 270.93332 270.93334 0 0 1 609.6 135.46667 z" style="fill:#b00020;fill-opacity:1;stroke-width:33.8667;stroke-miterlimit:128"/></svg>