<svg xmlns="http://www.w3.org/2000/svg" xml:space="preserve" id="svg1" width="4608" height="3072" version="1.1" viewBox="0 0 1219.2 812.8"><defs id="defs1"><style id="style1">.cls-1{fill:#0283c0}.cls-2{fill:#fff}.cls-3{fill:#ef483f}</style></defs><path id="rect1" d="M 0,0 V 812.8 H 1219.2 V 0 Z" style="fill:#702080;fill-opacity:1;fill-rule:evenodd;stroke:none;stroke-width:8.46667;stroke-linecap:round;stroke-linejoin:round"/><path id="path1" d="M 0 0 L 0 157.19454 L 359.33104 304.08997 A 270.9333 270.9333 0 0 1 395.93656 240.87367 L 85.013932 0 L 0 0 z M 294.75875 0 L 444.07315 192.73656 A 270.9333 270.9333 0 0 1 507.28945 156.13104 L 443.46285 0 L 294.75875 0 z M 554.18168 0 L 573.01154 138.08356 A 270.9333 270.9333 0 0 1 609.6 135.46667 A 270.9333 270.9333 0 0 1 646.1988 138.01018 L 665.01832 0 L 554.18168 0 z M 775.73715 0 L 712.11157 155.63908 A 270.9333 270.9333 0 0 1 775.47773 192.28284 L 924.44021 0 L 775.73715 0 z M 1134.1861 0 L 823.71716 240.52227 A 270.9333 270.9333 0 0 1 860.36092 303.88843 L 1219.2 157.19402 L 1219.2 0 L 1134.1861 0 z M 609.6 203.2 A 203.19998 203.19998 0 0 0 406.4 406.4 L 474.13333 406.4 A 135.46665 135.46665 0 0 1 609.6 270.93333 A 135.46665 135.46665 0 0 1 745.06667 406.4 L 812.8 406.4 A 203.19998 203.19998 0 0 0 609.6 203.2 z M 0 323.27277 L 0 406.4 L 338.66667 406.4 A 270.9333 270.9333 0 0 1 341.28304 369.81154 L 0 323.27277 z M 1219.2 323.27277 L 877.98982 369.8012 A 270.9333 270.9333 0 0 1 880.53333 406.4 L 1219.2 406.4 L 1219.2 323.27277 z" style="fill:#ffd000;fill-opacity:1;stroke:none;stroke-width:33.8667;stroke-miterlimit:128"/><path id="path3" d="m 2304,1152 c -212.0768,0 -384,171.9232 -384,384 v 384 H 384 l 1343.9998,575.9999 384,1343.9999 h 384 l 384,-1343.9999 L 4224,1920 H 2688 v -384 c 0,-212.0768 -171.9232,-384 -384,-384 z" style="fill:#ffd000;fill-opacity:1;stroke:none;stroke-width:192;stroke-miterlimit:128" transform="matrix(0.17638889,0,0,0.17638889,203.2,135.46666)"/></svg>