<svg xmlns="http://www.w3.org/2000/svg" xml:space="preserve" id="svg1" width="4608" height="3072" version="1.1" viewBox="0 0 1219.2 812.8"><defs id="defs1"><style id="style1">.cls-1{fill:#0283c0}.cls-2{fill:#fff}.cls-3{fill:#ef483f}</style></defs><path id="rect1" d="M 0,0 -6.4086945e-5,812.79996 H 1219.1999 L 1219.2,0 Z" style="fill:#103070;fill-opacity:1;fill-rule:evenodd;stroke:none;stroke-width:8.46667;stroke-linecap:round;stroke-linejoin:round"/><path id="path57" d="M 387.97115 101.6 L 163.52284 643.46667 L 135.46667 711.2 L 208.78054 711.2 L 1010.4189 711.2 L 1083.7328 711.2 L 1083.7333 711.2 L 1055.6772 643.46667 L 1055.6766 643.46667 L 859.2845 169.33333 L 831.22833 101.6 L 757.91446 101.6 L 461.28502 101.6 L 387.97167 101.6 L 387.97115 101.6 z M 433.22885 169.33333 L 785.97063 169.33333 L 982.36278 643.46667 L 236.83671 643.46667 L 433.22885 169.33333 z M 478.48707 237.06667 L 450.4309 304.8 L 768.76858 304.8 L 740.71241 237.06667 L 478.48707 237.06667 z M 422.37474 372.53333 L 394.31857 440.26667 L 824.88092 440.26667 L 796.82475 372.53333 L 422.37474 372.53333 z M 366.26292 508 L 338.20675 575.73333 L 880.99274 575.73333 L 852.93657 508 L 366.26292 508 z" style="fill:#ffd000;fill-opacity:1;stroke:none;stroke-width:96.7618;stroke-linecap:butt;stroke-linejoin:miter;stroke-miterlimit:128;stroke-dasharray:none;stroke-opacity:1;paint-order:normal"/></svg>