<svg xmlns="http://www.w3.org/2000/svg" xml:space="preserve" id="svg1" width="4608" height="3072" version="1.1" viewBox="0 0 1219.2 812.8"><defs id="defs1"><style id="style1">.cls-1{fill:#0283c0}.cls-2{fill:#fff}.cls-3{fill:#ef483f}</style></defs><path id="rect1" d="M 0 0 L 0 812.8 L 1219.2 812.8 L 1219.2 0 L 0 0 z" style="fill:#fff;fill-rule:evenodd;stroke:none;stroke-width:8.46667;stroke-linecap:round;stroke-linejoin:round;fill-opacity:1"/><path id="path1" d="M 0,0 V 270.93333 H 1219.2 V 0 Z" style="display:inline;fill:#103070;fill-opacity:1;fill-rule:evenodd;stroke:none;stroke-width:8.46667;stroke-linecap:round;stroke-linejoin:round"/><path id="path6" d="M -6.3086945e-5,541.86663 V 812.79996 H 1219.1999 V 541.86663 Z" style="display:inline;fill:#b00020;fill-opacity:1;fill-rule:evenodd;stroke:none;stroke-width:8.46667;stroke-linecap:round;stroke-linejoin:round"/><path id="path3" d="M 609.6 101.6 L 541.168 312.21143 L 319.71795 312.21143 L 498.87498 442.37662 L 430.44298 652.98805 L 609.6 522.82287 L 788.75702 652.98857 L 720.32502 442.37662 L 899.48205 312.21143 L 678.032 312.21143 L 609.6 101.6 z" style="fill:#ffd000;stroke-width:33.8667;stroke-linecap:round;stroke-linejoin:round;stroke-miterlimit:128;paint-order:stroke fill markers;fill-opacity:1"/><path id="path4" d="M 609.6 169.33333 L 556.37534 333.14246 L 384.13624 333.14246 L 523.48019 434.38175 L 470.25553 598.19088 L 609.6 496.95106 L 748.94447 598.19088 L 695.71981 434.38175 L 835.06376 333.14246 L 662.82466 333.14246 L 609.6 169.33333 z" style="fill:#b00020;stroke-width:33.8667;stroke-linecap:round;stroke-linejoin:round;stroke-miterlimit:128;paint-order:stroke fill markers;fill-opacity:1"/></svg>