<svg xmlns="http://www.w3.org/2000/svg" xml:space="preserve" id="svg1" width="4608" height="3072" version="1.1" viewBox="0 0 1219.2 812.8"><defs id="defs1"><style id="style1">.cls-1{fill:#0283c0}.cls-2{fill:#fff}.cls-3{fill:#ef483f}</style></defs><path id="rect1" d="M 0 0 L 0 812.8 L 1219.2 812.8 L 1219.2 0 L 0 0 z" style="fill:#b00020;fill-rule:evenodd;stroke:none;stroke-width:8.46667;stroke-linecap:round;stroke-linejoin:round;fill-opacity:1"/><path id="path1" d="M 237.31988 67.742118 C 215.59206 73.337108 193.97067 81.915003 173.9439 93.412903 C 129.26806 119.06408 92.782789 156.64923 79.201367 195.58186 C 65.351615 235.28116 62.891961 274.04467 78.235018 305.5891 C 87.081534 323.77877 100.9048 338.87766 118.29614 349.71405 L 97.021468 384.76514 L 134.53081 406.39845 L 157.13408 365.27538 C 162.65801 366.47076 168.2514 367.32168 173.88086 367.82354 C 200.81702 370.23019 229.92537 363.44347 258.58318 351.94699 L 290.04948 406.4 L 327.55933 384.76514 L 277.00945 297.29296 C 264.78464 301.80126 252.54473 305.51757 240.3166 308.28247 L 255.80816 281.47429 L 270.6765 281.47429 L 290.99619 246.31778 L 276.12475 246.31778 L 298.28102 207.98317 L 257.64474 207.98317 L 235.49002 246.31623 L 222.5182 246.31675 L 264.19834 170.48417 L 316.33573 200.55365 L 344.08236 152.54263 L 260.33501 104.23808 C 233.80551 121.21775 213.62997 112.62589 188.21538 101.37107 L 177.25378 120.33271 L 194.63566 130.35948 L 112.45774 272.55287 C 103.48449 246.45003 110.82813 207.13647 127.68781 172.84371 C 145.94088 135.71273 180.24244 95.806283 230.41488 70.966728 L 237.31988 67.742118 z M 160.49976 111.94149 C 143.00337 130.15785 129.51688 149.93274 120.08983 169.10957 C 102.52982 204.82753 94.166646 245.38775 104.45099 275.30464 L 104.57605 275.66793 L 108.8533 285.19913 L 108.02751 283.65039 L 108.02751 283.81058 L 109.16801 285.77946 C 116.22891 297.97121 127.36785 306.89583 140.70769 312.78401 L 122.69122 342.47212 C 106.62683 332.44191 93.970605 318.58455 85.84954 301.88648 C 71.855502 273.11556 73.807378 236.74604 87.195194 198.37084 C 98.014435 167.35631 125.50342 135.95437 160.49976 111.94149 z M 191.82602 112.04277 C 202.0281 116.45559 212.05508 120.45933 222.81431 121.79515 C 234.67419 123.26763 247.33163 121.2061 260.36344 114.02922 L 332.51149 155.6427 L 313.23824 188.99415 L 260.94118 158.83217 L 212.85677 246.31675 L 190.95114 246.31778 L 248.42773 151.61348 L 188.8262 117.23264 L 191.82602 112.04277 z M 225.11287 147.93826 L 236.69821 154.62105 L 181.04631 246.31778 L 168.25898 246.3183 L 225.11287 147.93826 z M 116.41305 281.36629 C 116.45285 281.45009 116.4535 281.44869 116.4947 281.53579 L 159.68896 281.5084 L 145.12448 305.5059 C 132.5914 300.18435 122.70789 292.26445 116.4947 281.5363 L 116.4947 281.53579 L 116.46111 281.47274 L 116.41305 281.36629 z M 215.17188 281.47274 L 196.47896 313.81909 C 192.73574 313.89409 189.0638 313.86289 185.4755 313.71108 L 203.1907 281.48049 L 215.17188 281.47274 z M 193.52617 281.48669 L 131.27519 394.74593 L 108.75202 381.75758 L 169.59792 281.50168 L 193.52617 281.48669 z M 273.13888 307.51508 L 315.98846 381.66559 L 293.14851 394.83947 L 262.24239 341.35694 L 255.43144 344.08907 C 227.5437 355.27663 199.62717 361.62293 174.63482 359.38995 L 174.63275 359.38995 C 170.19846 358.99512 165.79695 358.31548 161.42891 357.46087 L 180.92384 321.99275 L 185.11738 322.17 C 188.90043 322.33005 192.74735 322.36134 196.64846 322.28317 L 196.79109 322.2811 L 196.93165 322.27335 C 210.68291 321.53559 227.66872 319.71401 242.12476 316.55432 L 242.15421 316.54605 L 242.18367 316.54037 C 252.53755 314.19922 262.85351 311.06199 273.13888 307.51508 z M 0 541.86667 L 0 812.8 L 1219.2 812.8 L 1219.2 541.86667 L 0 541.86667 z" style="display:inline;fill:#ffd000;fill-opacity:1;fill-rule:evenodd;stroke:none;stroke-width:8.46667;stroke-linecap:round;stroke-linejoin:round"/></svg>