<svg xmlns="http://www.w3.org/2000/svg" xml:space="preserve" id="svg1" width="4608" height="3072" version="1.1" viewBox="0 0 1219.2 812.8"><defs id="defs1"><style id="style1">.cls-1{fill:#0283c0}.cls-2{fill:#fff}.cls-3{fill:#ef483f}</style></defs><path id="rect1" d="M 0 0 L 0 812.8 L 1219.2 812.8 L 1219.2 0 L 0 0 z" style="fill:#b00020;fill-rule:evenodd;stroke:none;stroke-width:8.46667;stroke-linecap:round;stroke-linejoin:round;fill-opacity:1"/><path id="path4" d="M 609.6 101.6 L 520.32638 190.87362 L 394.07362 190.87362 L 394.07362 317.12638 L 304.8 406.4 L 394.07362 495.67362 L 394.07362 621.92586 L 520.32586 621.92586 L 609.6 711.2 L 698.87414 621.92586 L 825.12586 621.92586 L 825.12586 495.67414 L 914.4 406.4 L 825.12586 317.12586 L 825.12586 190.87362 L 698.87362 190.87362 L 609.6 101.6 z M 609.6 220.13333 A 186.26665 186.26665 0 0 1 795.86667 406.4 A 186.26665 186.26665 0 0 1 609.6 592.66667 A 186.26665 186.26665 0 0 1 423.33333 406.4 A 186.26665 186.26665 0 0 1 609.6 220.13333 z M 609.6 270.93333 A 135.46666 135.46666 0 0 0 474.13333 406.4 A 135.46666 135.46666 0 0 0 609.6 541.86667 A 135.46666 135.46666 0 0 0 745.06667 406.4 A 135.46666 135.46666 0 0 0 609.6 270.93333 z" style="fill:#fff;fill-opacity:1;stroke:none;stroke-width:.79375;stroke-linecap:round;stroke-linejoin:round;stroke-miterlimit:128;paint-order:stroke fill markers"/></svg>