<svg xmlns="http://www.w3.org/2000/svg" xml:space="preserve" id="svg1" width="4608" height="3072" version="1.1" viewBox="0 0 1219.2 812.8"><defs id="defs1"><style id="style1">.cls-1{fill:#0283c0}.cls-2{fill:#fff}.cls-3{fill:#ef483f}.st0{fill:#000}</style></defs><path id="rect1" d="M 0 0 L 0 812.8 L 1219.2 812.8 L 1219.2 0 L 0 0 z" style="fill:#ffd000;fill-rule:evenodd;stroke:none;stroke-width:8.46667;stroke-linecap:round;stroke-linejoin:round;fill-opacity:1"/><path id="path1" d="m 401.15625,101.60001 c -12.60309,4.5492 -12.46746,25.73889 -22.98771,35.28697 -16.84222,25.73423 -29.7968,52.89472 -30.67099,84.58781 -4.12871,35.18316 -12.28554,-9.28307 -13.99293,-21.47541 -1.21179,-34.07179 -31.88388,-6.41958 -26.86502,13.73324 -3.55464,31.78113 22.29004,55.26208 30.571,83.73825 8.90049,28.67754 -14.49406,-0.69753 -12.86045,-14.35647 -19.59621,-29.23353 -24.79788,25.11502 -14.07356,37.06749 19.46437,29.02743 51.27472,50.13835 61.36056,84.98778 -8.46511,-0.0442 -26.35145,-25.71793 -41.62611,-30.08186 -12.21851,20.37277 13.66775,54.04573 33.90489,66.47883 32.75836,13.36476 65.66303,28.01068 85.26837,58.72041 -12.52147,0.47792 -37.87427,-13.15154 -50.57749,-25.2496 -31.91794,-22.3197 -9.39666,27.45126 3.23546,35.73655 28.13902,31.63527 75.18035,20.25577 110.93269,35.18001 36.62883,19.95163 -14.03059,10.47804 -26.85261,3.20756 -27.41363,7.53531 14.54058,48.05527 33.12278,49.22797 22.69219,-3.05577 43.27621,14.53365 62.03493,7.87779 -7.33046,9.21148 -19.65978,13.62223 -19.9321,26.20072 -11.29762,22.8854 -37.75526,47.77042 -27.27663,78.6316 17.32095,2.41709 21.47614,-39.5208 37.15972,-51.54878 7.77098,-10.10872 25.49257,-20.93056 30.93067,-28.43623 2.54135,-4.814 5.08868,-5.88755 7.63828,-5.17873 2.54963,-0.70882 5.09695,0.36473 7.63829,5.17873 5.43812,7.50567 23.15967,18.32751 30.93066,28.43623 15.68358,12.02798 19.83876,53.96587 37.15971,51.54878 10.47864,-30.86118 -15.979,-55.7462 -27.27661,-78.6316 -0.27233,-12.57849 -12.60167,-16.98924 -19.9321,-26.20072 18.75872,6.65586 39.34273,-10.93356 62.03493,-7.87779 18.58217,-1.1727 60.53642,-41.69266 33.12277,-49.22797 -12.822,7.27048 -63.48143,16.74407 -26.85261,-3.20756 35.75235,-14.92424 82.79366,-3.54474 110.93269,-35.18001 12.63212,-8.28529 35.15339,-58.05625 3.23546,-35.73655 -12.7032,12.09806 -38.05602,25.72752 -50.5775,25.2496 19.60533,-30.70973 52.51005,-45.35565 85.26839,-58.72041 20.23716,-12.4331 46.12341,-46.10606 33.90489,-66.47883 -15.27468,4.36393 -33.161,30.0376 -41.62613,30.08186 10.08584,-34.84943 41.89619,-55.96035 61.36058,-84.98778 10.72429,-11.95247 5.52264,-66.30102 -14.07356,-37.06749 1.6336,13.65894 -21.76095,43.03401 -12.86045,14.35647 8.28093,-28.47617 34.12562,-51.95712 30.57098,-83.73825 5.01887,-20.15282 -25.65322,-47.80503 -26.86501,-13.73324 -1.70739,12.19234 -9.86423,56.65857 -13.99294,21.47541 -0.87418,-31.69309 -13.82877,-58.85358 -30.67097,-84.58781 -10.52025,-9.54808 -10.38462,-30.73777 -22.98773,-35.28697 -20.78322,14.60258 -16.07403,55.10973 -1.13404,74.01249 11.86536,13.10011 45.82385,46.71065 34.20874,55.92369 -3.77927,-16.03593 -28.56132,-39.90423 -27.46032,-8.75295 -5.96032,31.0223 12.93646,56.47302 32.64761,78.4316 10.33765,14.39617 -2.04999,47.12013 -8.54367,15.10681 -1.79884,-13.80861 -12.11405,-31.70782 -19.62746,-10.7102 -17.39015,23.53879 -18.25096,54.61184 -4.61755,78.41533 5.3893,13.54025 -8.89297,51.05901 -17.6462,43.26477 15.79631,-19.95791 0.34532,-48.68041 -19.95769,-22.34202 -24.49987,20.15544 -31.25136,50.64995 -34.84746,80.03769 3.76492,20.80012 -36.7675,31.88856 -17.45087,5.02528 4.91832,-13.40234 39.73363,-63.7945 2.6262,-48.59546 -26.55471,16.13151 -47.91015,40.92421 -54.01373,71.35451 -4.59394,10.18263 -13.52512,61.29376 -10.62958,24.39231 -1.10137,-14.92052 24.15773,-57.53807 -8.95912,-39.6309 -25.49852,8.793 -35.47367,50.07733 -53.0386,58.47314 -17.5649,-8.39581 -27.54082,-49.68014 -53.03935,-58.47314 -33.11684,-17.90717 -7.85698,24.71038 -8.95838,39.6309 2.89557,36.90145 -6.03561,-14.20968 -10.62957,-24.39231 -6.1036,-30.4303 -27.45899,-55.223 -54.01374,-71.35451 -37.10741,-15.19904 -2.29212,35.19312 2.6262,48.59546 19.31663,26.86328 -21.21577,15.77484 -17.45086,-5.02528 -3.59609,-29.38774 -10.34761,-59.88225 -34.84746,-80.03769 -20.30302,-26.33839 -35.754,2.38411 -19.95769,22.34202 -8.75321,7.79424 -23.0355,-29.72452 -17.64619,-43.26477 13.63339,-23.80349 12.77258,-54.87654 -4.61755,-78.41533 -7.51344,-20.99762 -17.82864,-3.09841 -19.62747,10.7102 -6.49367,32.01332 -18.88133,-0.71064 -8.54367,-15.10681 19.71115,-21.95858 38.60792,-47.4093 32.64761,-78.4316 1.101,-31.15128 -23.68104,-7.28298 -27.46032,8.75295 -11.61511,-9.21304 22.34337,-42.82358 34.20874,-55.92369 14.93999,-18.90276 19.6492,-59.40991 -1.13405,-74.01249 z m 208.44375,0 -18.89883,58.21115 h -61.15903 l 49.47836,35.97685 -18.89885,58.21191 49.47835,-35.97685 49.47834,35.97685 -18.89884,-58.21191 49.47836,-35.97685 H 628.49884 Z M 457.20008,253.99992 v 45.71966 h 60.95982 v -45.71966 z m 0,76.19995 v 93.93219 c 2.15944,3.80488 4.14338,7.68797 5.80199,11.70237 2.42551,-2.41862 6.02164,-3.6559 9.33662,-3.59125 3.90727,0.0762 7.98193,1.23114 13.02866,3.29826 0.30713,0.12615 0.60388,0.27622 0.88755,0.44879 5.82864,3.54083 11.39562,7.52991 16.66486,11.86827 v -26.21854 h 45.72044 v 30.47952 h -40.77192 c 9.73479,8.83293 18.12597,19.05155 24.46517,30.48029 h 16.30675 v 4.86559 c 3.26422,0.76807 6.69692,2.19764 10.8505,4.43772 7.97232,2.96849 14.24755,8.33102 19.62901,14.52624 v -23.82955 h 60.96059 v 23.82955 c 5.38586,-6.20147 11.6666,-11.56874 19.64995,-14.53554 4.14344,-2.23332 7.57113,-3.66058 10.82955,-4.42764 v -4.86637 h 16.30754 c 6.33887,-11.42876 14.72876,-21.64736 24.46283,-30.48029 H 670.5598 v -30.47952 h 45.72044 v 26.217 c 5.26831,-4.3377 10.83466,-8.32636 16.66254,-11.86673 0.28465,-0.17271 0.58246,-0.32277 0.89065,-0.44879 5.04669,-2.06712 9.11829,-3.22206 13.02556,-3.29826 3.31472,-0.0647 6.91111,1.17302 9.33662,3.59125 1.65944,-4.01653 3.64369,-7.90185 5.8043,-11.70857 V 375.91952 L 670.5598,330.19987 v 45.71965 l -91.44009,-45.71965 v 45.71965 H 518.1599 v -45.71965 z m 121.91963,91.44009 h 60.96059 v 30.47952 h -60.96059 z m -105.2222,59.18628 c 0.14656,1.12162 0.40238,2.27506 0.53873,3.38972 0.0779,0.63261 0.0602,1.27333 -0.0527,1.90065 -0.56794,3.13775 0.41405,5.67228 2.47272,8.13051 1.75582,2.09655 4.30285,3.63606 6.41045,4.47647 -0.61704,-1.35564 -1.20866,-2.74088 -2.83626,-5.00434 -0.33616,-0.46782 -0.6071,-0.9792 -0.80537,-1.52007 -0.653,-1.77941 -3.25287,-6.67056 -5.72755,-11.37294 z m 271.40575,0 c -2.47468,4.70238 -5.07454,9.59353 -5.72755,11.37294 -0.19827,0.54087 -0.46921,1.05225 -0.80537,1.52007 -1.6276,2.26346 -2.21922,3.6487 -2.83626,5.00434 2.1076,-0.84041 4.65152,-2.37992 6.40735,-4.47647 2.05867,-2.45823 3.04377,-4.99276 2.47582,-8.13051 -0.11281,-0.62732 -0.13065,-1.26804 -0.0526,-1.90065 0.13635,-1.11466 0.39217,-2.2681 0.53873,-3.38972 z m -160.91334,32.25383 c 2.49553,3.45576 4.84552,6.9806 7.03445,10.44586 6.77994,10.73322 13.02677,20.23345 18.17563,24.60314 5.1489,-4.36969 11.39647,-13.86992 18.17641,-24.60314 2.18898,-3.46537 4.53917,-6.98992 7.03443,-10.44586 z m 7.52668,45.15767 5.82289,5.84461 5.82444,5.84459 -4.66715,4.89738 -4.66715,4.89738 7.18793,6.99104 7.18794,6.99181 0.9945,-0.94489 0.99451,0.94489 7.18793,-6.99181 7.18794,-6.99104 -4.66717,-4.89738 -4.66715,-4.89738 5.82445,-5.84459 5.82289,-5.84461 4.05479,3.70521 c 2.23001,2.03766 5.83066,4.57293 8.00106,5.63375 6.39943,3.12783 10.19428,11.3233 10.33813,22.32886 0.0717,5.49072 -0.43832,9.98311 -1.13327,9.98311 -0.69493,0 -4.32319,-2.90577 -8.0623,-6.45697 l -6.79801,-6.45697 -7.52436,7.31816 -7.52434,7.31893 14.74328,14.41616 14.74405,14.41539 -4.12919,3.77263 -4.12921,3.77265 -14.64948,-14.24797 -14.64949,-14.24874 -0.96506,0.93329 -0.96506,-0.93329 -14.64948,14.24874 -14.64948,14.24797 -4.12921,-3.77265 -4.1292,-3.77263 14.74406,-14.41539 14.74327,-14.41616 -7.52434,-7.31893 -7.52435,-7.31816 -6.79802,6.45697 c -3.7391,3.5512 -7.36737,6.45697 -8.06231,6.45697 -0.69494,0 -1.20495,-4.49239 -1.13325,-9.98311 0.14384,-11.00556 3.93868,-19.20103 10.33812,-22.32886 2.17039,-1.06082 5.77103,-3.59609 8.00105,-5.63375 z" style="display:inline;fill:#000;stroke-width:8.81945"/></svg>