<svg xmlns="http://www.w3.org/2000/svg" xml:space="preserve" id="svg1" width="512" height="512" version="1.1" viewBox="0 0 135.46666 135.46667"><style id="style1" type="text/css">.st0{fill:#000}</style><path id="path1" d="m 17.483851,14.082008 c -3.803998,0 -6.609816,-0.33535 -10.1278719,1.439309 -2.512494,1.26754 -4.569151,3.298684 -5.860624,5.807917 -1.81121702,3.519423 -1.46971702,6.337403 -1.46971702,10.103545 v 18.828599 c 0,3.766142 -0.341695,6.583907 1.46971702,10.103545 1.291775,2.510353 3.349872,4.540992 5.860624,5.807917 3.5181309,1.774861 6.3238739,1.43931 10.1278719,1.43931 h 19.017127 c 3.803999,0 6.609742,0.335551 10.127872,-1.43931 2.510753,-1.266925 4.568849,-3.297564 5.860624,-5.807917 1.811411,-3.519638 1.469717,-6.337403 1.469717,-10.103545 V 31.432779 c 0,-3.766142 0.341498,-6.584123 -1.469717,-10.103545 -1.291472,-2.509231 -3.34813,-4.540377 -5.860624,-5.807917 -3.518056,-1.774659 -6.323873,-1.439309 -10.127872,-1.439309 z m 0,13.180829 h 19.017127 c 3.803999,0 4.802412,0.337199 4.190214,0.02838 v -0.0021 c 0.04356,0.02198 0.06602,0.04956 0.07704,0.07095 -0.330642,-0.64248 0.01017,0.306495 0.01017,4.072637 v 18.828598 c 0,3.766142 -0.340973,4.715467 -0.01017,4.072637 -0.01071,0.02081 -0.03173,0.04607 -0.07704,0.06893 0.612271,-0.308885 -0.386215,0.02635 -4.190214,0.02635 H 17.483851 c -3.803998,0 -4.802486,-0.335238 -4.190214,-0.02635 -0.04531,-0.02286 -0.06632,-0.04812 -0.07704,-0.06893 0.330838,0.64283 -0.01018,-0.306495 -0.01018,-4.072637 V 31.432779 c 0,-3.766142 0.340779,-4.715116 0.01018,-4.072637 0.01071,-0.0208 0.03376,-0.04728 0.07501,-0.06893 -0.612199,0.308822 0.38824,-0.02838 4.192238,-0.02838 z m 57.053409,0.267589 a 6.5908201,6.5908201 0 0 0 -6.590414,6.592443 6.5908201,6.5908201 0 0 0 6.590414,6.590414 h 54.33899 a 6.5908201,6.5908201 0 0 0 6.59042,-6.590414 6.5908201,6.5908201 0 0 0 -6.59042,-6.592443 z m 0,26.898867 a 6.5908201,6.5908201 0 0 0 -6.590414,6.592443 6.5908201,6.5908201 0 0 0 6.590414,6.590414 h 54.33899 a 6.5908201,6.5908201 0 0 0 6.59042,-6.590414 6.5908201,6.5908201 0 0 0 -6.59042,-6.592443 z M 6.6160531,81.328163 A 6.5908201,6.5908201 0 0 0 0.02563808,87.918571 6.5908201,6.5908201 0 0 0 6.6160531,94.511016 H 128.87625 a 6.5908201,6.5908201 0 0 0 6.59042,-6.592445 6.5908201,6.5908201 0 0 0 -6.59042,-6.590408 z m 0,26.898857 a 6.5908201,6.5908201 0 0 0 -6.59041502,6.59042 6.5908201,6.5908201 0 0 0 6.59041502,6.59244 H 74.53726 a 6.5908201,6.5908201 0 0 0 6.592439,-6.59244 6.5908201,6.5908201 0 0 0 -6.592439,-6.59042 z" style="color:#000;fill:#fff;stroke-width:1;stroke-linecap:round;-inkscape-stroke:none;paint-order:stroke fill markers"/></svg>