<svg xmlns="http://www.w3.org/2000/svg" xml:space="preserve" width="512" height="512" viewBox="0 0 135.46666 135.46667"><path d="m 11.500178,19.122408 c 0,5.03369 1.96787,9.76774 5.51854,13.33267 l 51.342983,51.343447 0.29964,0.29931 0.299309,-0.29931 8.042663,-8.042663 0.299309,-0.29931 -0.299309,-0.29964 -16.977286,-16.977084 9.625531,-9.625531 16.991176,16.962863 0.299641,0.299641 0.299309,-0.299641 8.042663,-8.042331 0.299309,-0.299641 -0.299309,-0.29931 L 43.941363,5.5185477 C 40.376432,1.9536077 35.642046,-2.2984776e-6 30.608368,-2.2984776e-6 c -5.03369,0 -9.76774,1.9536099984776 -13.33267,5.5185499984776 l -0.25698,0.27086 c -3.56493,3.56493 -5.51854,8.2993103 -5.51854,13.3330003 z m 64.268539,72.083005 0.299309,0.299309 8.741493,8.741158 0.29931,0.31387 0.313861,-0.31387 26.32336,-26.323362 0.29932,-0.29964 -0.29932,-0.299309 -8.74116,-8.741162 -0.31386,-0.313532 -0.29931,0.313532 -26.323694,26.323366 z m 16.305059,16.276457 0.29931,0.29964 26.802134,26.8304 c 0.78428,0.78429 1.9535,1.06962 2.98019,0.68461 1.11226,-0.41353 1.81108,-1.42593 1.81108,-2.59523 -0.0141,-0.0287 -0.0142,-0.043 -0.0142,-0.0572 v -46.772 c -0.0143,-0.727388 -0.2994,-1.411491 -0.8126,-1.924841 l -0.0142,-0.01455 -0.0145,-0.01422 -3.85783,-3.07382 -0.29964,-0.270867 -0.28508,0.285083 -8.20735,8.235697 -0.29931,0.29964 0.29931,0.29964 4.38567,4.385821 c 1.82613,1.826195 3.56418,6.527997 -1.3e-4,10.393717 -3.56431,3.86572 -8.61806,1.51864 -10.26511,-0.12848 l -4.38566,-4.38582 -0.299642,-0.29964 -0.29931,0.29964 -7.223772,7.22348 z" style="fill:#fff;fill-opacity:1;stroke-width:.222809"/></svg>