<svg xmlns="http://www.w3.org/2000/svg" xml:space="preserve" width="512" height="512" viewBox="0 0 135.46666 135.46667"><path d="M 70.958729,4.999999e-7 C 49.582695,4.999999e-7 32.253968,17.124659 32.253968,38.249262 c 0,4.672313 0.847736,9.149201 2.399502,13.288181 C 32.833751,51.184282 30.953006,50.99928 29.028571,50.99928 12.996614,50.99928 9.999999e-7,63.842723 9.999999e-7,79.686226 9.999999e-7,95.529727 12.996614,108.37357 29.028571,108.37357 h 9.787713 c 3.092085,-8.722021 10.471905,-15.311253 19.419452,-17.820101 0.598083,-18.762133 16.648021,-32.979948 35.30037,-32.979948 15.609104,0 29.334824,9.90742 33.799794,24.139548 1.79222,0.954363 3.49627,2.057653 5.0907,3.294463 1.95749,-4.574709 3.04006,-9.604205 3.04006,-14.884018 0,-16.74212 -10.88489,-30.971986 -26.04289,-36.155347 C 107.26987,14.858766 90.870237,4.999999e-7 70.958729,4.999999e-7 Z M 93.536106,67.73353 c -13.894096,0 -25.157852,10.703208 -25.157852,23.905789 0,2.919985 0.551168,5.717889 1.559715,8.304615 -1.182621,-0.220132 -2.404975,-0.335754 -3.656006,-0.335754 -10.420742,0 -18.868591,8.02691 -18.868591,17.92885 0,9.9026 8.447849,17.92963 18.868591,17.92963 h 44.026447 c 13.89477,0 25.15825,-10.70321 25.15825,-23.90578 0,-10.46412 -7.07541,-19.358287 -16.92787,-22.597294 C 117.13874,77.020168 106.47855,67.73353 93.536106,67.73353 Z" style="stroke-width:8.81948;fill:#fff;fill-opacity:1;stroke:none"/></svg>