<svg xmlns="http://www.w3.org/2000/svg" xml:space="preserve" width="512" height="512" viewBox="0 0 135.46666 135.46667"><path fill="#fffff8" d="M27.902658 135.0039c-.600388-.25451-1.427537-.87962-1.838106-1.3891-.740007-.9183-.744959-.97117-.570111-6.08738.54814-16.03918 6.277547-29.858256 17.769261-42.858677 5.141265-5.816242 9.003387-9.401431 23.683344-21.985131 9.182579-7.871332 11.45129-9.912434 11.45129-10.302427 0-.197069-3.272769-.284317-10.665005-.284317-6.871263 0-10.665004.09376-10.665004.263571 0 .144964.928679 1.117426 2.063728 2.161027l2.063726 1.897458-3.337293 2.801508-3.337292 2.801509-1.715215-1.588012c-18.56472-17.187937-26.633959-32.709996-27.31154-52.5367155-.174848-5.1162044-.169896-5.1690845.570111-6.0873777C27.449152.09164878 29.8558-.47464731 31.967949.42073701c1.852066.78513019 2.436262 1.83647839 2.688491 4.83835569l.221667 2.6381208h65.710453l.22166-2.6381208c.25223-3.0018773.83643-4.0532255 2.6885-4.83835569 2.11214-.89538432 4.51879-.32908823 5.90339 1.38909879.74001.9182932.74496.9711733.57011 6.0873777-.53712 15.7166405-6.03025 29.2560105-17.046943 42.0169395-5.251025 6.08241-9.091725 9.678238-24.139501 22.600475-5.890737 5.058651-11.017197 9.561055-11.392135 10.005341l-.681709.807794h11.038449c10.46531 0 11.01642-.02405 10.614195-.463171-.23334-.254743-1.252869-1.224682-2.265619-2.15542l-1.841364-1.692251 3.343937-2.807116 3.343938-2.807115 1.715218 1.588011C101.2254 92.178639 109.29463 107.7007 109.97222 127.52742c.17485 5.11621.1699 5.16908-.57011 6.08738-1.91405 2.37519-5.82504 2.40451-7.68262.0576-.53777-.67943-.73591-1.44359-.90927-3.50686l-.22166-2.63812H34.878107l-.221667 2.63812c-.173364 2.06327-.371497 2.82743-.909271 3.50686-.798984 1.00946-2.466275 1.79426-3.811866 1.79426-.517566 0-1.432256-.20824-2.032645-.46276zm71.820765-15.87971c-.007-.65411-1.13884-5.10651-1.91761-7.54305l-.65561-2.05118H38.31646l-.700298 2.18351c-.796963 2.48492-1.867569 6.71926-1.87372 7.41072-.0039.43811 1.726998.46317 31.990889.46317 30.264192 0 31.994742-.025 31.990092-.46317zm-7.826071-20.107878c-.88315-1.415471-2.4818-3.737937-3.55255-5.161038l-1.946816-2.587454H49.068681l-1.946818 2.587454c-1.07075 1.423101-2.6694 3.745567-3.552553 5.161038l-1.605734 2.573588h51.539507ZM88.141444 41.84096c1.079342-1.419285 2.728625-3.801302 3.665067-5.293372l1.702622-2.712853H41.957525l1.702625 2.712853c.936444 1.49207 2.585726 3.874087 3.665071 5.293372l1.962448 2.580519H86.178994zm9.664369-17.997464c.77877-2.436537 1.91067-6.888941 1.91761-7.543055.005-.438114-1.7259-.46317-31.990092-.46317-30.263891 0-31.994787.02506-31.990889.46317.0062.691468 1.076757 4.925799 1.87372 7.410721l.700298 2.183515h58.833743z"/></svg>