<svg xmlns="http://www.w3.org/2000/svg" xml:space="preserve" id="svg1" width="512" height="512" version="1.1" viewBox="0 0 135.46666 135.46667"><style id="style1" type="text/css">.st0{fill:#000}</style><path id="path1" d="M 25.400002,6.7480089e-8 C 20.723999,6.2086683e-8 16.933335,3.7906648 16.933335,8.4666667 l -2e-6,67.7333353 c 0,4.676001 3.790664,8.466666 8.466667,8.466666 l 16.933331,0 c 4.676011,0 8.466666,-3.790656 8.466666,-8.466666 1e-6,-4.676011 -3.790655,-8.466667 -8.466666,-8.466667 l -8.466665,0 2e-6,-50.800002 H 101.6 v 50.800002 l -8.46667,0 c -4.67601,0 -8.466666,3.790656 -8.466666,8.466667 10e-7,4.67601 3.790656,8.466666 8.466666,8.466666 l 16.93334,0 c 4.676,0 8.46666,-3.790664 8.46666,-8.466666 V 8.4666668 C 118.53333,3.7906645 114.74267,1.7052992e-7 110.06667,1.6513652e-7 Z" style="fill:#fff;fill-opacity:1;stroke-width:4.23333;stroke-miterlimit:128"/><path id="rect5" d="m 67.733332,33.866667 c -4.676006,0 -8.466666,3.79066 -8.466666,8.466667 l 0,64.226056 -3.506763,-3.50677 c -1.587885,-1.58795 -3.741578,-2.48002 -5.987231,-2.47995 -2.245475,6e-5 -4.398957,0.89213 -5.986715,2.47995 -3.306623,3.30647 -3.306623,8.66748 0,11.97395 l 17.960661,17.96014 c 3.306411,3.30628 8.667018,3.30628 11.973429,0 l 17.960661,-17.96014 c 3.306623,-3.30647 3.306623,-8.66748 0,-11.97395 -1.587758,-1.58782 -3.74124,-2.47989 -5.986715,-2.47995 -2.245653,-7e-5 -4.399346,0.892 -5.987231,2.47995 l -3.506763,3.50677 0,-64.226056 c 0,-4.676007 -3.79066,-8.466667 -8.466667,-8.466667 z" style="fill:#fff;fill-opacity:1;stroke-width:4.23333;stroke-miterlimit:128"/></svg>