<svg xmlns="http://www.w3.org/2000/svg" xml:space="preserve" id="svg1" width="512" height="512" version="1.1" viewBox="0 0 135.46666 135.46667"><style id="style1" type="text/css">.st0{fill:#000}</style><path id="path6" d="m 58.899755,-6.0050723e-5 c 5.760486,0 10.672894,3.692435950723 12.496394,8.834602750723 h 22.84305 c 7.307501,0 13.251901,5.9449083 13.251901,13.2524213 0,7.307511 -5.9444,13.251904 -13.251901,13.251904 H 58.900271 c -5.760486,0 -10.672376,-3.692435 -12.495878,-8.834603 H 6.07559 V 13.252361 c 0,-7.3075123 5.9444,-13.252421050723 13.2519,-13.252421050723 z M 38.09586,39.204325 43.530671,73.623412 H 55.954202 V 51.536389 c 0,-3.635105 4.162119,-5.714831 7.068819,-3.534668 L 91.293129,69.205594 V 51.535872 c 0,-3.642777 4.172701,-5.710609 7.06882,-3.534151 l 35.338931,26.504325 c 1.10992,0.835287 1.76578,2.14402 1.76578,3.534668 v 53.008646 c 0,2.43999 -1.97865,4.4173 -4.4173,4.4173 H 4.4173 C 1.97864,135.46666 0,133.48961 0,131.04936 V 78.040714 C 1.7e-4,77.645028 3.58918,54.921258 6.07559,39.204325 Z m 73.81152,52.088293 H 94.237653 c -2.438656,0 -4.417819,1.977057 -4.417819,4.417301 v 17.669721 h 5.17e-4 c 0,2.44025 1.978647,4.41782 4.417302,4.41782 h 17.669727 c 2.43865,0 4.4173,-1.97757 4.4173,-4.41782 V 95.709919 c 0,-2.440244 -1.97865,-4.417301 -4.4173,-4.417301 z m -35.338933,0 H 58.898725 c -2.438656,0 -4.417302,1.977057 -4.417302,4.417301 v 17.669721 c 0,2.44025 1.978646,4.41782 4.417302,4.41782 h 17.669722 c 2.438656,0 4.417301,-1.97757 4.417301,-4.41782 V 95.709919 c 0,-2.440244 -1.978645,-4.417301 -4.417301,-4.417301 z m -35.338928,0 H 23.5598 c -2.43867,0 -4.4173,1.977057 -4.4173,4.417301 v 17.669721 c 0,2.44025 1.97863,4.41782 4.4173,4.41782 h 17.669719 c 2.438656,0 4.417302,-1.97757 4.417302,-4.41782 V 95.709919 c 0,-2.440244 -1.978646,-4.417301 -4.417302,-4.417301 z" style="fill:#fff;fill-opacity:1;stroke-width:.264583"/></svg>