<svg xmlns="http://www.w3.org/2000/svg" xml:space="preserve" id="svg1" width="512" height="512" version="1.1" viewBox="0 0 135.46666 135.46667"><style id="style1" type="text/css">.st0{fill:#000}</style><path id="rect13" d="M 55.036877,0.10424271 A 8.4666745,8.4666745 0 0 0 50.374625,2.4798106 L 20.439989,32.41393 a 8.4666745,8.4666745 0 0 0 0,11.973441 l 5.987237,5.987237 41.90756,-41.9080769 -5.98672,-5.9867205 A 8.4666745,8.4666745 0 0 0 55.036877,0.10424271 Z M 68.334786,20.439972 38.400667,50.374608 62.348066,74.322007 92.282185,44.387371 Z m 35.921354,23.947399 -41.908074,41.908077 5.98672,5.98672 a 8.4666745,8.4666745 0 0 0 11.973958,0 L 110.24286,62.348049 a 8.4666745,8.4666745 0 0 0 0,-11.973441 z M 38.400667,62.348049 2.4798278,98.269406 c -3.30643298,3.306434 -3.30643698,8.667024 0,11.973444 3.3064374,3.30644 8.6670102,3.30643 11.9734402,0 L 50.374625,74.322007 Z m 37.79928,47.718591 c -4.676002,0 -8.466675,3.79067 -8.466675,8.46667 h 59.266718 c 0,-4.676 -3.79068,-8.46667 -8.46667,-8.46667 z m -8.466675,16.93334 c -4.676002,0 -8.466677,3.79068 -8.466675,8.46667 h 76.200063 c 0,-4.67599 -3.79066,-8.46667 -8.46667,-8.46667 z" style="fill:#fff;fill-opacity:1;stroke:none;stroke-width:13.2292;stroke-linecap:round;stroke-linejoin:round;stroke-miterlimit:128;stroke-dasharray:none;stroke-opacity:1"/></svg>