<svg xmlns="http://www.w3.org/2000/svg" xml:space="preserve" width="512" height="512" viewBox="0 0 135.46666 135.46667"><path d="M 111.30225 0 C 108.12894 0 104.9864 0.62529547 102.05423 1.839681 C 99.122743 3.0540664 96.458921 4.8337443 94.21492 7.0776041 L 90.705573 10.587467 L 124.8792 44.761092 L 128.38906 41.251228 C 130.63306 39.007369 132.41305 36.34367 133.6275 33.411914 C 134.84129 30.48009 135.46666 27.337709 135.46666 24.164416 C 135.46666 20.991124 134.84129 17.849192 133.6275 14.917436 C 132.41305 11.98561 130.63306 9.3214636 128.38906 7.0776041 C 126.14505 4.8337443 123.48123 3.0540664 120.54975 1.839681 C 117.61758 0.62529547 114.47556 -1.5666465e-16 111.30225 0 z M 81.12683 20.166211 L 20.785811 80.506713 L 20.785811 80.50723 L 54.959435 114.68085 L 115.30045 54.340352 L 81.12683 20.166211 z M 11.207068 90.085973 C 10.373543 90.919089 9.772105 91.955787 9.4619546 93.093025 L 0.23874511 126.91111 C -0.40079179 129.25603 0.26512821 131.7639 1.9838582 133.48229 C 3.7025883 135.20136 6.2105589 135.86732 8.55555 135.22792 L 42.37364 126.00471 C 43.510519 125.69459 44.546854 125.09298 45.380175 124.2596 L 11.207068 90.085973 z" style="fill:#fff;fill-opacity:1;stroke:none;stroke-width:8.81941"/></svg>