<svg xmlns="http://www.w3.org/2000/svg" xml:space="preserve" width="512" height="512" viewBox="0 0 135.46666 135.46667"><path d="M 76.200001,88.899995 H 88.900002 V 29.633332 H 76.200001 Z M 127,4.233332 97.366664,23.990299 V 94.543028 L 127,114.29999 c 4.6736,0 8.46666,-3.79306 8.46666,-8.46666 V 12.699999 c 0,-4.6736 -3.79306,-8.466667 -8.46666,-8.466667 z M 0,59.266666 C 0,75.069699 10.841566,85.2932 25.480433,88.095664 l -0.08043,0.804331 v 33.866665 c 0,4.6736 3.793066,8.46667 8.466666,8.46667 h 12.699997 c 4.673601,0 8.466667,-3.79307 8.466667,-8.46667 V 88.899995 H 67.733332 V 29.633332 H 33.866666 C 15.163799,29.633332 0,40.563799 0,59.266666 Z" style="fill:#fff;fill-opacity:1;fill-rule:evenodd;stroke:none;stroke-width:6.61459"/></svg>