<svg xmlns="http://www.w3.org/2000/svg" xml:space="preserve" width="512" height="512" viewBox="0 0 135.46666 135.46667"><path fill="#fff" d="M20.106345 113.63859V91.810505h95.249815v43.656155H20.106345Zm.17711-29.941236c-.09741-.09741-.17711-7.241472-.17711-15.87569V52.123082H41.14519l5.752421 5.756883c3.163831 3.166285 5.752421 5.845186 5.752421 5.953113 0 .107928-2.860677.196232-6.357061.196232H39.93591l.07322 3.902596.07322 3.902597h55.562392l.07322-3.902597.07322-3.902596h-6.357061c-3.496384 0-6.357061-.09031-6.357061-.200693 0-.110381 2.590597-2.789281 5.756882-5.953113l5.756882-5.752422h20.769496l-.0682 15.808824-.0682 15.808824-47.381649.06687c-26.059963.036772-47.461407-.012837-47.558816-.110246Zm31.7704-32.038147L39.685853 39.289106l19.645879-19.644552L78.977612.00000186 93.065758 14.089994l14.088152 14.089992-17.926122 17.924662L71.301672 64.02931h-6.879816zm25.706614-10.670588 9.632341-9.808126-2.88548-2.751392-2.885479-2.751391-6.926704 7.071136-6.926705 7.071136-2.767111-2.74389c-1.521912-1.50914-2.885058-2.699763-3.029216-2.645828-.144158.05393-1.425372 1.324368-2.847141 2.823189l-2.585037 2.725127 5.529513 5.396997c3.041231 2.968349 5.648574 5.402436 5.794095 5.409083.145519.0066 4.599136-4.401571 9.896924-9.796041z"/></svg>