<svg xmlns="http://www.w3.org/2000/svg" xml:space="preserve" width="512" height="512" viewBox="0 0 135.46666 135.46667"><path d="M 38.911836 0.0056844075 C 38.125411 -0.024923562 37.304149 0.071879647 36.473225 0.3141927 C 34.389255 0.9219192 32.515484 2.4847092 32.001147 4.043164 C 31.797085 4.6613489 31.71263 5.8867782 31.80426 6.8972533 L 31.964457 8.6676879 L 28.253055 11.973946 C 24.343211 15.456943 24.154081 15.753394 24.154081 18.391125 L 24.154081 19.563663 L 26.575122 19.563663 L 28.996163 19.563663 L 28.996163 18.693432 C 28.996163 17.843165 29.639564 17.174957 34.938952 12.5243 C 35.504042 12.028387 35.74545 11.999891 36.850463 12.29744 C 40.770828 13.353085 45.185721 10.107581 45.126961 6.2130574 C 45.073551 2.6724128 42.319678 0.13832047 38.911836 0.0056844075 z M 67.733332 24.708569 C 23.696966 24.708573 22.90272 24.719001 21.750093 25.306982 C 20.250079 26.072234 19.271769 27.452145 19.098059 29.048356 C 18.906009 30.812987 24.576109 63.786179 25.362276 65.476623 C 25.728916 66.264994 26.441778 67.074371 27.227795 67.59484 C 28.438642 68.396599 28.701038 68.442352 32.664156 68.541552 L 34.711059 68.645422 L 34.806661 57.335518 L 34.902779 46.025097 C 34.924819 43.432041 37.592701 41.623183 40.130367 40.761336 C 40.905279 40.546122 54.319254 40.43837 67.733332 40.438358 C 81.147411 40.43837 94.561386 40.546122 95.336298 40.761336 C 97.974713 41.514707 100.54215 43.466268 100.56389 46.025097 L 100.66 57.335518 L 100.75561 68.645422 L 102.80251 68.541552 C 106.76564 68.442352 107.02802 68.396599 108.23887 67.59484 C 109.02489 67.074371 109.73775 66.264994 110.10439 65.476623 C 110.89056 63.786179 116.56066 30.812987 116.36861 29.048356 C 116.1949 27.452145 115.21659 26.072234 113.71657 25.306982 C 112.56394 24.718998 111.76971 24.708573 67.733332 24.708569 z M 41.751456 46.972326 L 40.954089 47.599161 L 40.954089 124.72572 L 94.512576 124.72572 L 94.512576 47.599161 L 93.715209 46.972326 L 41.751456 46.972326 z M 28.751733 130.03806 C 28.159676 130.03806 27.561066 130.99466 27.302726 131.61832 C 26.699449 133.07478 27.22387 135.46711 28.751733 135.46666 L 67.733332 135.4553 L 106.71493 135.46666 C 108.2428 135.46711 108.76722 133.07478 108.16394 131.61832 C 107.9056 130.99466 107.30699 130.03806 106.71493 130.03806 L 67.733332 130.03806 L 28.751733 130.03806 z" style="display:inline;fill:#fff;fill-opacity:1;stroke-width:1.14376"/></svg>