<svg xmlns="http://www.w3.org/2000/svg" xml:space="preserve" width="512" height="512" viewBox="0 0 135.46666 135.46667"><path fill="#fff" d="M40.578909 135.09974c-1.324004-.57641-1.800791-1.4605-3.53733-6.55922-3.034593-8.90996-5.612778-13.23906-11.248645-18.8879-5.613919-5.62685-10.055499-8.26507-18.9747318-11.270645-3.8531077-1.298407-5.0318509-1.809193-5.6975049-2.468906-.99406962-.985196-1.33933175-2.412365-.92119298-3.807825.52109983-1.739073 1.35487288-2.236604 6.92149078-4.130206 5.6179499-1.911063 9.8450349-3.948153 13.3656779-6.441099 2.83227-2.005515 8.073337-7.288771 10.150548-10.23226 2.296679-3.254482 4.763791-8.405962 6.522072-13.618483.808189-2.395924 1.651773-4.634476 1.87463-4.974558.92568-1.412602 3.26681-2.08813 4.694669-1.354638 1.555399.79901 1.996053 1.5734 3.506534 6.162254 2.792946 8.484997 6.051075 14.030898 11.36358 19.34278 5.278778 5.278162 10.560154 8.397494 19.044263 11.24809 4.772371 1.60348 5.657973 2.087556 6.388906 3.492223.804267 1.545597.194713 3.857079-1.26968 4.814732-.334475.218734-2.573288 1.065205-4.975139 1.881048-5.268883 1.789693-10.408481 4.248993-13.630345 6.522113-2.963339 2.09074-8.23006 7.32152-10.273136 10.20304-2.392807 3.37478-4.686431 8.13137-6.380156 13.23138-.831464 2.50364-1.774145 4.94491-2.094847 5.42504-1.065354 1.59497-3.074761 2.18703-4.829663 1.42304zm72.277101-.0407c-1.26223-.65807-1.67447-1.1484-2.2431-2.66801-1.33968-3.58019-3.27772-6.53809-5.87627-8.96854-2.25657-2.1106-4.22657-3.38126-7.29977-4.70837-3.096857-1.33733-3.769801-2.10611-3.769801-4.30666 0-1.95339.89336-2.93855 3.685069-4.06376 5.751772-2.31828 10.397302-6.92014 12.854252-12.733414.5878-1.390744 1.28508-2.549571 1.85735-3.086752.79865-.749691 1.09852-.860067 2.33665-.860067 2.21231 0 2.98104.668841 4.31306 3.752683 2.78756 6.45364 7.31265 10.80699 13.72803 13.20701 3.03206 1.1343 3.95527 4.17559 1.958 6.45009-.43679.49742-1.23484 1.04535-1.77344 1.21761-1.81306.57989-5.18251 2.47319-7.06879 3.97198-2.96508 2.35596-5.8768 6.44676-7.14324 10.03581-.92852 2.63139-3.42614 3.87184-5.558 2.76039zm-12.70402-68.01145c-1.329847-.693364-1.678081-1.159223-2.534366-3.390457-4.677051-12.18708-13.621147-21.121433-25.853446-25.825287-2.414744-.928573-3.413916-1.885898-3.680092-3.525953-.186649-1.150047.267724-2.578188 1.055789-3.318449.330439-.310395 1.76581-1.038327 3.189712-1.617625 5.969781-2.428739 10.195621-5.124021 14.539277-9.273296 4.584215-4.379067 8.39393-10.1620146 10.759466-16.3323038 1.218794-3.17911384 2.86455-4.27877193 5.3081-3.54675153 1.33104.39874318 2.15904 1.42833543 3.04578 3.78734963 1.12148 2.9835005 3.43331 7.3662787 5.23777 9.9298047 2.0321 2.886922 7.28901 8.179489 10.10477 10.173316 2.45996 1.741876 7.35893 4.340999 10.13669 5.377957 2.35679.879807 3.38849 1.707989 3.78779 3.040594.73184 2.442357-.36731 4.087655-3.54716 5.309721-5.73497 2.204034-10.67387 5.315443-15.06976 9.493643-4.51599 4.29235-8.45387 10.244618-10.64261 16.086702-.85249 2.275419-1.52446 3.192643-2.69823 3.683018-1.14018.476341-2.1584.459469-3.13948-.05202zM18.768743 41.21384c-.721991-.490564-1.164096-1.183796-2.022766-3.171752C13.954145 31.578555 9.4447643 27.239376 3.0228202 24.8369c-3.03705138-1.136174-3.96174255-4.175597-1.9628799-6.45191.4367965-.497426 1.2348476-1.043817 1.773447-1.214204 1.7268452-.546292 5.3695058-2.599893 7.0958376-4.00038C13.06223 10.628757 15.990757 6.4439106 17.158125 2.8403566c.174459-.5385364.72423-1.3364942 1.221714-1.7732397 2.276579-1.99862894 5.316357-1.0740459 6.452664 1.9626504C27.23526 9.4509605 31.574946 13.959814 38.039236 16.751319c3.084202 1.331867 3.753122 2.100494 3.753122 4.312553 0 1.237982-.110389 1.53782-.860168 2.336384-.537244.5722-1.696207 1.2694-3.087113 1.857121-5.800875 2.45113-10.416862 7.1029-12.721912 12.820531-1.110347 2.754194-1.927274 3.518622-3.908389 3.65722-1.273391.08909-1.673074.0039-2.446033-.521288z"/></svg>