<svg xmlns="http://www.w3.org/2000/svg" xml:space="preserve" id="svg1" width="512" height="512" version="1.1" viewBox="0 0 135.46666 135.46667"><style id="style1" type="text/css">.st0{fill:#000}</style><path id="path1" d="m 102.79058,5.1487325 c -2.55928,0 -4.345455,1.6665573 -4.345455,4.2855265 V 29.670642 L 74.87579,8.1247337 C 72.79265,6.1604418 70.232935,5.2081358 67.733069,5.2081358 c -2.499869,0 -4.999375,0.952306 -7.142191,2.9165979 L 3.3999998e-6,63.358699 7.5590782,72.018326 65.650239,19.105864 c 0.654681,-0.654681 1.368706,-0.892642 2.142233,-0.892642 0.71436,0 1.369255,0.237961 2.08336,0.892642 l 58.032278,52.912462 7.55855,-8.659627 -20.59439,-18.748648 V 9.434259 c 0,-2.6189692 -1.66629,-4.2855265 -4.28447,-4.2855265 z M 67.614263,31.575261 c -0.654936,0 -1.309325,0.297643 -2.023427,0.952575 L 15.23696,78.298108 v 38.925622 c 2.1e-5,8.27313 5.000036,13.0942 13.39227,13.0942 H 52.734257 V 96.570468 c 0,-8.273121 4.940385,-13.094192 13.332866,-13.094192 h 3.690433 c 8.273142,0 13.094193,4.94037 13.094193,13.332867 v 33.508787 h 24.045081 c 8.39249,0 13.33287,-4.82107 13.33287,-13.0942 V 78.000561 L 69.697622,32.467902 C 69.042687,31.87265 68.328364,31.575261 67.614263,31.575261 Z" style="fill:#fff;fill-opacity:1;stroke-width:3.77976"/></svg>