<svg xmlns="http://www.w3.org/2000/svg" xml:space="preserve" id="svg1" width="512" height="512" version="1.1" viewBox="0 0 135.46666 135.46667"><style id="style1" type="text/css">.st0{fill:#fd6a7e}.st1{fill:#17b978}.st2{fill:#8797ee}.st3{fill:#41a6f9}.st4{fill:#37e0ff}.st5{fill:#2fd9b9}.st6{fill:#f498bd}.st7{fill:#ffdf1d}.st8{fill:#c6c9cc}</style><path id="path2" d="M 99.184126 67.819632 A 33.866665 33.866665 0 0 0 77.652624 77.652624 A 33.866665 33.866665 0 0 0 72.470511 118.75606 L 118.75606 72.470511 A 33.866665 33.866665 0 0 0 99.184126 67.819632 z M 130.76928 84.402599 L 84.442907 130.72897 A 33.866665 33.866665 0 0 0 125.54737 125.54737 A 33.866665 33.866665 0 0 0 130.76928 84.402599 z" style="fill:#fff;fill-opacity:1;stroke:none;stroke-width:1.00012;stroke-linecap:round;stroke-miterlimit:128;paint-order:stroke fill markers"/><path id="path1" d="M 99.184126 0.086299641 A 33.866665 33.866665 0 0 0 77.652624 9.9192911 L 49.772155 37.799759 L 72.247269 60.274873 A 50.8 50.8 0 0 1 101.62015 50.781913 A 50.8 50.8 0 0 1 126.10393 57.218212 A 33.866665 33.866665 0 0 0 125.54737 9.9192911 A 33.866665 33.866665 0 0 0 99.184126 0.086299641 z M 37.799759 49.772155 L 9.9192911 77.652624 A 33.866665 33.866665 0 0 0 9.9192911 125.54737 A 33.866665 33.866665 0 0 0 57.233715 126.02331 A 50.8 50.8 0 0 1 50.820153 101.58191 A 50.8 50.8 0 0 1 60.280041 72.252436 L 37.799759 49.772155 z" style="fill:#fff;fill-opacity:1;stroke:none;stroke-width:1.00012;stroke-linecap:round;stroke-miterlimit:128;paint-order:stroke fill markers"/></svg>