<svg xmlns="http://www.w3.org/2000/svg" xml:space="preserve" width="512" height="512" viewBox="0 0 135.46666 135.46667"><path d="m 67.733332,4.2333333 c -5.935386,0 -11.607358,4.4118909 -13.115478,10.2019607 -1.697688,6.517882 2.092444,13.755096 8.371065,15.985071 0.713064,0.253258 1.296562,0.561944 1.296562,0.685746 0,1.063626 -2.459825,9.396129 -3.759977,12.737207 -2.576075,6.619892 -5.351858,11.169089 -9.092468,14.900899 -3.621019,3.6125 -6.999947,5.166093 -11.234973,5.166093 -6.54269,0 -13.251155,-4.740512 -18.954399,-13.394014 -1.518656,-2.304253 -4.965071,-8.847408 -4.965071,-9.426298 0,-0.155657 0.715716,-0.945458 1.5906,-1.755449 1.138134,-1.053711 1.873767,-2.045577 2.585889,-3.486608 0.923063,-1.867902 0.994005,-2.178982 0.978235,-4.282426 -0.02101,-2.802781 -0.567036,-4.527308 -2.088762,-6.59443 -4.984664,-6.771199 -15.6897134,-5.322381 -18.73735693,2.535763 -0.44895311,1.157597 -0.59532149,2.101191 -0.60616454,3.912422 -0.01292213,2.158522 0.06969773,2.568074 0.86144611,4.276225 1.42847226,3.081845 4.29308786,5.459781 7.42486966,6.163448 0.6251668,0.140466 1.1912225,0.285151 1.2004436,0.345199 L 23.44198,105.5057 h 88.58271 l 13.95418,-63.301558 c 0.009,-0.06005 0.57529,-0.204733 1.20045,-0.345199 3.13178,-0.703667 5.9964,-3.081603 7.42487,-6.163448 0.79174,-1.708151 0.87434,-2.117703 0.86144,-4.276225 -0.0108,-1.811231 -0.15721,-2.754825 -0.60616,-3.912422 -3.04765,-7.858144 -13.7527,-9.306962 -18.73736,-2.535763 -1.52173,2.067122 -2.06776,3.791649 -2.08876,6.59443 -0.0158,2.103444 0.0552,2.414524 0.97823,4.282426 0.71213,1.441031 1.44776,2.432897 2.58589,3.486608 0.87489,0.809991 1.5906,1.599792 1.5906,1.755449 0,0.57889 -3.44641,7.122045 -4.96507,9.426298 -5.70324,8.653502 -12.41171,13.394014 -18.954398,13.394014 -4.235026,0 -7.613954,-1.553593 -11.234973,-5.166093 -3.74061,-3.73181 -6.516393,-8.281007 -9.092468,-14.900899 -1.300152,-3.341078 -3.759977,-11.673581 -3.759977,-12.737207 0,-0.123802 0.583498,-0.432488 1.296562,-0.685746 C 78.756367,28.19039 82.546499,20.953176 80.848811,14.435294 79.340691,8.6452242 73.668719,4.2333333 67.733332,4.2333333 Z M 21.981087,115.25756 l -1.291911,0.65991 c -1.648939,0.84214 -3.446446,2.83767 -3.988387,4.42815 -0.633991,1.86069 -0.547789,4.4462 0.202055,6.05183 1.11528,2.38813 2.667038,3.78362 5.031734,4.52634 1.494873,0.46954 90.105272,0.46871 91.597512,0 2.36469,-0.74272 3.91645,-2.13821 5.03173,-4.52634 0.74985,-1.60563 0.83605,-4.19114 0.20206,-6.05183 -0.54195,-1.59048 -2.33945,-3.58601 -3.98839,-4.42815 l -1.29191,-0.65991 z" style="fill:#fff;fill-opacity:1;stroke:none"/></svg>