<svg xmlns="http://www.w3.org/2000/svg" xml:space="preserve" width="512" height="512" viewBox="0 0 135.46666 135.46667"><path d="m 26.245943,0 c -0.995819,0 -1.876426,0.65480176 -2.163176,1.6097208 l -2.880444,9.6025142 c -2.429281,8.098572 -3.703214,16.46984 -3.904154,24.911658 H 35.195784 C 34.994574,27.682345 33.721424,19.310807 31.292146,11.212235 L 28.408602,1.6097208 C 28.121862,0.65453176 27.243912,0 26.245943,0 Z M 67.732816,0 C 66.736997,0 65.85639,0.65480176 65.56964,1.6097208 l -2.880444,9.6025142 c -2.429278,8.098572 -3.703215,16.469839 -3.904154,24.911658 H 76.682657 C 76.481447,27.682344 75.208297,19.310807 72.779019,11.212235 L 69.895474,1.6097208 C 69.608735,0.65453176 68.730785,0 67.732816,0 Z m 41.486354,0 c -0.99582,0 -1.87642,0.65480176 -2.16317,1.6097208 l -2.88045,9.6025142 c -2.42928,8.098572 -3.70321,16.46984 -3.90415,24.911658 h 17.89761 C 117.9678,27.682345 116.69466,19.310807 114.26538,11.212235 L 111.38235,1.6097208 C 111.09561,0.65453176 110.21714,0 109.21917,0 Z m -92.0042,43.814999 v 7.581346 l -3.653007,7.306014 H 38.93044 l -3.653524,-7.306014 v -7.581346 z m 41.486873,0 v 7.581346 l -3.653007,7.306014 h 25.368477 l -3.653524,-7.306014 v -7.581346 z m 41.486357,0 v 7.581346 l -3.652492,7.306014 h 25.367962 l -3.65301,-7.306014 V 43.814999 Z M 12.7,66.392953 V 109.71371 H 39.793436 V 66.392953 Z m 41.486873,0 V 109.71371 H 81.279792 V 66.392953 Z m 41.486356,0 V 109.71371 H 122.76667 V 66.392953 Z m -82.478169,51.011767 1.315682,5.27616 c 0.0498,0.19421 0.12246,0.37717 0.19482,0.56224 -1.21477,1.02056 -2.005045,2.53302 -2.005045,4.24005 v 2.42001 c 0,3.06841 2.494831,5.56348 5.562967,5.56348 h 15.966984 c 3.065987,0 5.562968,-2.49534 5.562968,-5.56348 v -2.42001 c 5.4e-4,-1.70703 -0.789407,-3.21976 -2.006596,-4.24005 0.0699,-0.18507 0.14438,-0.36803 0.19172,-0.56224 l 1.318782,-5.27616 z m 41.486356,0 1.316199,5.27616 c 0.0498,0.19421 0.121943,0.37717 0.194303,0.56224 -1.214769,1.02056 -2.004529,2.53302 -2.004529,4.24005 v 2.42001 c 0,3.06841 2.494315,5.56348 5.562452,5.56348 h 15.9675 c 3.065987,0 5.562451,-2.49534 5.562451,-5.56348 v -2.42001 c 5.4e-4,-1.70703 -0.78889,-3.21976 -2.006079,-4.24005 0.0699,-0.18507 0.14438,-0.36803 0.19172,-0.56224 l 1.318782,-5.27616 z m 41.486873,0 1.316199,5.27616 c 0.0498,0.19421 0.121943,0.37717 0.194303,0.56224 -1.214759,1.02056 -2.005045,2.53302 -2.005045,4.24005 v 2.42001 c 0,3.06841 2.494828,5.56348 5.562964,5.56348 h 15.96699 c 3.06598,0 5.56297,-2.49534 5.56297,-5.56348 v -2.42001 c 5.4e-4,-1.70703 -0.78941,-3.21976 -2.0066,-4.24005 0.0699,-0.18507 0.14438,-0.36803 0.19172,-0.56224 l 1.31878,-5.27616 z" style="fill:#fff;fill-opacity:1;stroke:none;stroke-width:.264583"/></svg>