<svg xmlns="http://www.w3.org/2000/svg" xml:space="preserve" id="svg1" width="512" height="512" version="1.1" viewBox="0 0 135.46666 135.46667"><style id="style1" type="text/css">.st0{fill:#000}</style><path id="rect3" d="M 67.733332,0 C 63.057326,1.1045684e-7 59.266666,3.7906605 59.266666,8.4666666 V 18.636939 l -31.34227,-8.011456 c -0.03425,-0.01057 -0.06946,-0.01777 -0.10387,-0.02791 l -0.228927,-0.0615 -0.0026,0.0093 c -0.705324,-0.186507 -1.436352,-0.300328 -2.189014,-0.297656 -3.443842,-0.01223 -6.552033,2.062557 -7.861536,5.247741 L 0.6046164,57.827253 C 0.2070679,58.828194 0.0041399,59.895801 0.00672,60.972797 H 0 c 2.8e-6,14.027993 11.372011,25.4 25.4,25.4 14.027988,0 25.399997,-11.372007 25.4,-25.4 h -0.0067 c 0.0026,-1.076996 -0.200347,-2.144603 -0.597897,-3.145544 l -10.62054,-26.5498 19.691819,4.890198 v 82.365679 h -8.466667 c -4.676007,0 -8.466668,3.79066 -8.466666,8.46667 3e-6,4.676 3.790663,8.46666 8.466666,8.46666 h 33.866667 c 4.676003,0 8.466663,-3.79066 8.466666,-8.46666 2e-6,-4.67601 -3.790659,-8.46667 -8.466666,-8.46667 H 76.199999 V 40.704842 L 98.643333,46.33023 85.278258,79.740077 c -0.39755,1.000941 -0.600477,2.068548 -0.597897,3.145544 h -0.0067 c 3e-6,14.028003 11.372001,25.399989 25.399999,25.399989 14.02797,0 25.39999,-11.371986 25.4,-25.399989 h -0.007 c 0.003,-1.076996 -0.20035,-2.144603 -0.5979,-3.145544 L 117.93518,37.408294 c -1.02331,-2.489049 -3.15061,-4.283224 -5.67252,-4.950085 l 0.002,-0.0088 -36.064731,-9.274778 V 8.4666666 C 76.199999,3.7906601 72.409339,-4.4182741e-7 67.733332,0 Z m -42.333847,41.437039 5.17e-4,5.17e-4 5.17e-4,-5.17e-4 7.81451,19.535758 H 17.584975 Z m 84.673645,21.912824 5.2e-4,10e-4 5.1e-4,-10e-4 7.81451,19.535758 h -15.63005 z" style="fill:#fff;fill-opacity:1;stroke:none;stroke-width:2.11667;stroke-linejoin:miter;stroke-miterlimit:128;stroke-dasharray:none;stroke-opacity:1"/></svg>