<svg xmlns="http://www.w3.org/2000/svg" xml:space="preserve" id="svg1" width="512" height="512" version="1.1" viewBox="0 0 135.46666 135.46667"><style id="style1" type="text/css">.st0{stroke-linecap:round;stroke-linejoin:round}.st0,.st1,.st2{fill:none;stroke:#000;stroke-width:2;stroke-miterlimit:10}.st1{stroke-linejoin:round}.st2{stroke-linecap:round}</style><path id="path1" d="m 54.902369,125.27908 c 9.082043,-9.08053 12.32705,-20.76075 8.962764,-31.748231 L 93.532018,63.865426 c 10.987452,3.359706 22.664582,0.119279 31.748152,-8.961256 7.88161,-7.883152 11.13579,-17.301645 9.94911,-28.793768 -0.16974,-1.648504 -1.27231,-3.050802 -2.83364,-3.602852 -1.55981,-0.556638 -3.29853,-0.160569 -4.46839,1.009288 L 110.30604,41.135033 97.182268,38.2815 94.331801,25.157696 111.94995,7.5395002 c 1.17292,-1.171386 1.5644,-2.910114 1.01082,-4.471452 -0.55205,-1.562867 -1.95435,-2.66238 -3.59979,-2.830595 -11.496679,-1.186678 -20.912093,2.065983 -28.795225,9.9491348 -9.082043,9.080535 -12.323992,20.759222 -8.961235,31.7467 L 41.937632,71.601772 C 30.947127,68.240537 19.271527,71.479434 10.187947,80.563027 2.3063469,88.444651 -0.94936313,97.863144 0.23730687,109.35832 c 0.16975,1.64545 1.26925003,3.04928 2.83518003,3.5998 1.5598,0.55663 3.29853,0.1621 4.46838,-1.00776 L 25.162087,94.330636 38.284328,97.181111 41.136321,110.30798 23.516637,127.9277 c -1.17138,1.16986 -1.56286,2.91011 -1.00775,4.46992 0.21562,0.61322 0.56581,1.15609 1.00775,1.59652 0.68357,0.68509 1.59345,1.13315 2.59203,1.23561 11.495157,1.18514 20.915156,-2.06752 28.793702,-9.95067 z" style="fill:#fff;fill-opacity:1;stroke-width:2.38939"/></svg>