<svg xmlns="http://www.w3.org/2000/svg" xml:space="preserve" id="svg1" width="512" height="512" version="1.1" viewBox="0 0 135.46666 135.46667"><style id="style1" type="text/css">.st0{fill:#000}</style><path id="path12" d="m 107.4106,16.434866 a 56.112131,56.112131 0 0 0 -79.354538,0 56.112131,56.112131 0 0 0 1e-6,79.354539 L 67.733331,135.46666 107.4106,95.789405 a 56.112131,56.112131 0 0 0 0,-79.354539 z M 87.571965,36.273502 a 28.056065,28.056065 0 0 1 2e-6,39.67727 28.056065,28.056065 0 0 1 -39.677272,0 28.056065,28.056065 0 0 1 1e-6,-39.67727 28.056065,28.056065 0 0 1 39.677269,0 z" style="fill:#fff;fill-opacity:1;stroke:none;stroke-width:135.467;stroke-linecap:round;stroke-linejoin:round;stroke-miterlimit:128"/></svg>