<svg xmlns="http://www.w3.org/2000/svg" xml:space="preserve" id="svg1" width="512" height="512" version="1.1" viewBox="0 0 135.46666 135.46667"><style id="style1" type="text/css">.st0{fill:#000}</style><path id="path1" d="M 47.118653,4.9999991e-7 C 44.679197,4.9999991e-7 42.701104,1.9778295 42.701104,4.4175495 v 4.41755 h 72.150886 c 2.43945,0 4.41755,1.9774975 4.41755,4.4172185 v 86.875602 h 4.41755 c 2.43945,0 4.41754,-1.97782 4.41754,-4.417544 V 4.4175495 C 128.10437,1.9778295 126.12648,4.9999991e-7 123.68675,4.9999991e-7 Z M 29.449117,17.669537 c -2.439456,0 -4.41755,1.977828 -4.41755,4.417549 v 4.417549 h 72.150884 c 2.439456,0 4.417549,1.97783 4.417549,4.417551 v 86.875274 h 4.41722 c 2.43945,0 4.41755,-1.97783 4.41755,-4.41755 V 22.086755 c -2.7e-4,-2.439456 -1.9781,-4.417218 -4.41755,-4.417218 z M 11.77958,35.339073 c -2.4386625,0 -4.4175495,1.978888 -4.4175495,4.41755 v 91.292497 c 0,2.43866 1.978887,4.41754 4.4175495,4.41754 h 76.568101 c 2.438668,0 4.417548,-1.97888 4.417548,-4.41754 V 39.756623 c 0,-2.438662 -1.97888,-4.41755 -4.417548,-4.41755 z m 17.669537,20.614349 h 41.229028 c 2.438662,0 4.417219,1.978888 4.417219,4.417549 0,2.438663 -1.978293,4.41755 -4.417219,4.41755 H 29.449117 c -2.438662,0 -4.41755,-1.978887 -4.41755,-4.41755 0,-2.438661 1.978888,-4.417549 4.41755,-4.417549 z m 30.182674,17.669536 h 11.046354 c 2.438662,0 4.417219,1.978887 4.417219,4.41755 0,2.438926 -1.978293,4.417549 -4.417219,4.417549 H 59.631791 c -2.438663,0 -4.41755,-1.978887 -4.41755,-4.417549 0,-2.438663 1.978887,-4.41755 4.41755,-4.41755 z m -30.182344,3.31e-4 h 12.512807 c 2.438662,0 4.41755,1.978888 4.41755,4.41755 0,2.438661 -1.978888,4.417218 -4.41755,4.417218 H 29.449447 c -2.438926,-2.65e-4 -4.417549,-1.978557 -4.417549,-4.417218 0,-2.438662 1.978887,-4.41755 4.417549,-4.41755 z m -3.3e-4,17.669205 h 41.229028 c 2.438662,0 4.417219,1.978886 4.417219,4.417549 0,2.438662 -1.978293,4.417547 -4.417219,4.417547 H 29.449117 c -2.438662,0 -4.41755,-1.978885 -4.41755,-4.417547 0,-2.438663 1.978888,-4.417549 4.41755,-4.417549 z m 20.614348,17.669536 h 20.61468 c 2.438662,0 4.417219,1.97889 4.417219,4.41755 0,2.43866 -1.978293,4.41755 -4.417219,4.41755 h -20.61468 c -2.438662,0 -4.41755,-1.97889 -4.41755,-4.41755 0,-2.43866 1.978888,-4.41755 4.41755,-4.41755 z" style="fill:#fff;fill-opacity:1;stroke-width:.413411"/></svg>