<svg xmlns="http://www.w3.org/2000/svg" xml:space="preserve" width="512" height="512" viewBox="0 0 135.46666 135.46667"><path fill="#fff" d="M45.800938 121.27421c-4.559571-.85508-8.639103-1.69925-9.06563-1.87592-1.073027-.44446-2.770371-2.35424-3.17085-3.5677-.392871-1.19041-.219633-3.45194.348598-4.55077.974929-1.8853 3.147112-3.25313 5.182339-3.26331.639247-.003 4.811173.65303 9.270947 1.45829 8.97056 1.61973 10.331594 2.06584 11.502052 3.77015 2.70441 3.93794.284998 9.12749-4.420486 9.48178-.909563.0685-4.089658-.41034-9.64697-1.45252zM37.46942 96.784115c-2.569932-.707683-4.171764-2.906301-4.171764-5.726013 0-1.973563.610986-3.283158 2.143917-4.595288 1.669828-1.42931 2.70183-1.547837 12.625551-1.45006 8.29504.08173 8.718933.110353 9.732322.657182 2.168297 1.170023 3.311053 3.02966 3.311053 5.388166 0 2.358503-1.142756 4.218142-3.311053 5.388163-1.019581.55017-1.399171.573855-10.065601.628049-6.748733.0422-9.321466-.03054-10.264425-.290199zM7.8383275 80.362177c-5.0273738-1.796586-6.8206362-8.43226-3.3372655-12.349003.8475789-.953029 3.8199147-3.42123 5.4227814-4.503032.7555036-.509902 1.3388786-1.046292 1.2963896-1.19198-.042491-.145684-2.4492715-2.320436-5.3484035-4.832779-2.8991322-2.512345-5.43456944-4.879795-5.634305-5.261004-.47312753-.902997-.21726769-2.239104.57050164-2.979174.35150786-.330224 2.91918656-1.372939 6.02206066-2.445511 5.2363642-1.810058 5.4727762-1.86568 7.3959052-1.740091 1.845668.120532 2.287352.281986 6.224779 2.275399 4.476216 2.26619 10.849492 5.662048 11.52857 6.142743.370301.262122 4.234463-1.004483 18.857733-6.181234l.719268-.254628-1.620839-1.413584c-1.48652-1.296438-1.666861-1.383676-2.176135-1.052675-1.13108.735144-6.116198 2.328741-7.232034 2.311874-2.227276-.03367-3.786958-1.659924-3.785194-3.946752.0014-1.785.729295-2.876359 2.454086-3.679377.76216-.354843 1.534742-.646332 1.71685-.647756.182108-.0014.331107-.112497.331107-.246831 0-.270414-2.101936-2.139715-2.406003-2.139715-.105363 0-1.365285.407325-2.799827.905168-3.786693 1.314133-4.348329 1.380522-5.787016.684065-3.276661-1.586204-2.895263-6.044934.638935-7.469468l.903667-.364243-4.513301-3.896254c-4.553518-3.930971-5.32115-4.867481-5.009045-6.111012.357831-1.425707.964856-1.74826 7.850994-4.171756 3.713052-1.306768 7.466192-2.5626 8.340311-2.790743 1.747989-.456222 4.12746-.345549 5.876207.27331.555931.196736 11.058714 4.853235 23.339518 10.347776l22.328737 9.990071 8.132948-2.828072c11.665842-4.056566 13.647442-4.490393 20.450062-4.477065 7.10028.01391 11.05616.969318 13.58569 3.281148 1.74338 1.593358 2.70314 3.322333 3.12988 5.638412.76401 4.146402-1.2542 8.452837-4.81207 10.267924-1.17532.599609-76.778231 27.103587-83.344316 29.217872-6.934834 2.233024-15.425673 4.120416-22.72552 5.051559-7.672066.978623-14.7845082 1.230095-16.5857065.586418z"/></svg>