<svg xmlns="http://www.w3.org/2000/svg" xml:space="preserve" id="svg1" width="512" height="512" version="1.1" viewBox="0 0 135.46666 135.46667"><style id="style1" type="text/css">.st0{fill:#000}</style><path id="path1" d="M 51.082669 0 C 22.870489 0.00010714136 2.2089578e-06 22.870362 0 51.082153 C 0 79.293945 22.870488 102.1642 51.082669 102.16431 C 61.995698 102.11785 72.607047 98.57771 81.361958 92.062597 L 87.265473 97.967146 C 84.311845 100.92255 84.312342 105.71243 87.266507 108.66727 L 109.51218 130.91552 C 115.40358 136.93767 125.07827 136.99045 131.03489 131.03283 C 136.99151 125.07519 136.93728 115.40032 130.91397 109.51011 L 108.6683 87.264957 C 107.24925 85.846267 105.32484 85.049218 103.31824 85.049071 C 101.31146 85.049081 99.386843 85.846141 97.967662 87.264957 L 92.06363 81.361441 C 98.579053 72.606583 102.11938 61.995216 102.16586 51.082153 C 102.16586 22.870158 79.295054 -0.00018114753 51.082669 0 z M 51.082669 17.216003 A 33.866665 33.866199 0 0 1 84.949336 51.082153 A 33.866665 33.866199 0 0 1 51.082669 84.948302 A 33.866665 33.866199 0 0 1 17.216003 51.082153 A 33.866665 33.866199 0 0 1 51.082669 17.216003 z" style="fill:#fff;fill-opacity:1;stroke-width:5.8796"/></svg>