<svg xmlns="http://www.w3.org/2000/svg" xml:space="preserve" width="512" height="512" viewBox="0 0 135.46666 135.46667"><path fill="#fff" d="M52.73062 134.93202c-.671944-.33262-1.297047-.92125-1.655367-1.55879l-.575726-1.02437V86.235215l-2.317513-.688097c-4.67627-1.38844-7.925801-2.590542-9.8194-3.632499-6.633694-3.650204-11.439712-9.918686-13.5718-17.70168-.598884-2.186169-.617372-2.596317-.713267-15.823546-.08441-11.643401-.04033-13.779096.309187-14.981409.499726-1.719 1.677726-3.392808 3.001842-4.265284 1.004076-.6616 30.084128-11.381148 31.694299-11.683218 2.165948-.406334 5.028713 1.45849 5.713425 3.721763.47802 1.58006.63749 5.15695.300062 6.730322-.702249 3.274471-3.212766 6.666161-6.044019 8.165425-.843734.446791-4.868273 2.025632-8.94342 3.508535-4.075147 1.482902-7.63106 2.814837-7.902029 2.959855-.461057.246751-.486848.623451-.40193 5.870563.07585 4.68687.165592 5.744302.54691 6.444297.673299 1.235997 1.569107 1.823462 3.532637 2.316685 3.741083.93973 7.257243 3.126365 9.562941 5.947014 1.59334 1.949195 3.127068 5.145709 3.684339 7.6787.694892 3.158528 1.846746 4.320599 4.282611 4.320599 1.357016 0 2.246706-.531092 3.175286-1.895459.744954-1.094565.766425-2.42964.08211-5.105319-1.903141-7.441213-6.759551-13.418073-13.636882-16.783129-1.300476-.63632-2.522137-1.156945-2.7148-1.156945-.230874 0-.350298-.353712-.350298-1.037528 0-.979345.06313-1.060661 1.12565-1.450019.619107-.22687 1.781174-.65382 2.582372-.948778.801197-.294957 1.593728-.536347 1.76118-.53642.167451-.000074.942163.433258 1.72158.962961 5.030027 3.418467 11.163322 3.929564 16.674107 1.389479l1.826397-.841841 1.826397.841841c4.626588 2.132532 9.895204 2.123136 14.301864-.02551l1.784994-.870344 1.737167.867724c4.270415 2.133091 9.717914 2.1577 14.191804.06412.93958-.439674 1.75451-.799408 1.81101-.799408.22848 0 .0734 16.421342-.17141 18.142816-.93658 6.587547-3.75009 12.424483-8.34131 17.304983l-1.97894 2.103628V108.7357c0 23.07173-.007 23.40075-.54564 24.51275-.396156.81834-.854441 1.27662-1.672779 1.67277-1.110165.53743-1.455895.54564-22.960564.54544-21.364016-.00021-21.85664-.0117-22.913068-.53464zm12.397498-92.855255c-.213538-.09686.150728-.539845.999853-1.215929 1.77688-1.414772 4.038017-4.345819 5.173082-6.705715 2.679103-5.570083 2.704364-12.70933.0626-17.689488-2.556166-4.818767-8.46166-7.789006-13.602837-6.841707-1.315055.2423085-11.460502 3.749702-17.547003 6.066194-.288447.109782-.337197-.713206-.264858-4.471213.08338-4.3316382.130398-4.694793.789992-6.1016717.893128-1.9049941 2.519225-3.5310909 4.424219-4.42421867C46.420997.10330146 47.01738-.006943 48.910375.00032554c1.927875.007403 2.460573.1146776 3.708021.74672359 2.508037 1.27075037 3.928375 2.95938267 4.765845 5.66608877l.456626 1.4758195.191892-1.022874c.454526-2.4228327 2.399923-4.8700349 4.838187-6.08617264 1.320065-.65841143 1.847198-.76656717 3.784957-.77658767 1.896855-.009809 2.486813.0987757 3.747209.68969354 2.98326 1.39865687 4.858013 4.12739007 5.176121 7.53392927l.167908 1.7980931.353541-1.2124716c.799272-2.7411217 3.233319-5.1001656 6.131686-5.9427433 4.239074-1.2323323 9.07756 1.2051491 10.6303 5.3552204.418068 1.1173867.548103 2.1104765.56188 4.2911415.01395 2.208715.07826 2.690602.290252 2.175148 1.371827-3.335523 2.579523-4.8022611 4.912058-5.9656648 1.320065-.6584115 1.847192-.7665673 3.784962-.7765877 1.89685-.00981 2.48681.098776 3.7472.6896935 1.905.8931277 3.53109 2.519225 4.42422 4.424219l.70134 1.495911v20.92383l-.70134 1.495911c-.89477 1.908502-2.52261 3.534238-4.42422 4.418485-1.24602.579405-1.87197.695442-3.7472.694644-1.93931-.000824-2.453182-.103513-3.708026-.740989-2.507546-1.273863-3.908419-2.938981-4.788952-5.692283-.263853-.825033-.486143-1.295956-.493977-1.046494-.03076.979658-1.126556 3.353312-2.041514 4.422235-3.372229 3.939691-9.425209 4.19826-13.065347.558122-1.089941-1.08994-2.380376-3.41208-2.385463-4.292644-.0014-.246329-.121774-.521532-.267446-.611562-.147154-.09095-.266008.108088-.267446.447871-.0043 1.025509-1.213503 3.284376-2.385463 4.456335-1.50051 1.500512-3.504438 2.380327-5.74564 2.522599-.989179.0628-1.949672.04561-2.134428-.0382z"/></svg>