<svg xmlns="http://www.w3.org/2000/svg" xml:space="preserve" width="512" height="512" viewBox="0 0 135.46666 135.46667"><path d="m 135.46663,125.10499 v 4.80108 H -8.9499985e-6 v -4.7913 A 4.6544048,4.6544048 0 0 1 4.6446178,120.46037 h 4.0188243 a 4.8597462,4.8597462 0 0 1 -0.019556,-0.46935 v -4.33173 a 4.6544048,4.6544048 0 0 1 4.6446269,-4.64462 h 4.009045 V 75.647051 h -3.001895 a 5.4171015,5.4171015 0 1 1 0,-10.834203 H 121.49364 a 5.4171015,5.4171015 0 1 1 0,10.834203 h -2.85522 v 35.367619 h 3.53969 a 4.6544048,4.6544048 0 0 1 4.64463,4.64462 v 4.33173 a 3.5592508,3.5592508 0 0 1 -0.0293,0.46935 h 4.0286 a 4.6544048,4.6544048 0 0 1 4.64463,4.64462 z M 118.6482,56.2374 a 50.670434,50.670434 0 1 0 -101.340863,0 z M 28.806454,111.01467 H 39.650435 V 81.073931 a 5.4219905,5.4219905 0 1 0 -10.843981,0 z M 51.237556,81.161934 V 111.01467 H 62.081538 V 81.161934 a 5.421991,5.421991 0 1 0 -10.843982,0 z m 22.431103,0.07822 V 111.01467 H 84.51264 V 81.240159 a 5.4219905,5.4219905 0 1 0 -10.843981,0 z m 22.431102,0.07822 V 111.01466 H 106.94374 V 81.318384 a 5.4219921,5.4219921 0 0 0 -10.843979,0 z" style="fill:#fff;stroke-width:11.1404;fill-opacity:1"/></svg>