<svg xmlns="http://www.w3.org/2000/svg" xml:space="preserve" width="512" height="512" viewBox="0 0 135.46666 135.46667"><path d="M 30.167667 0 C 13.50666 0 2.5066343e-15 12.996723 0 29.028719 C 0 45.060716 13.50666 58.056921 30.167667 58.056921 C 34.825186 58.056921 39.236231 57.041595 43.174625 55.227636 L 56.170214 67.733332 L 43.174108 80.239029 C 39.235782 78.42507 34.82512 77.409744 30.167667 77.409744 C 13.50666 77.409744 2.5066343e-15 90.405823 0 106.43795 C 0 122.47006 13.50666 135.46666 30.167667 135.46666 C 46.828678 135.46666 60.334818 122.47006 60.334818 106.43795 C 60.334818 101.95659 59.279922 97.712786 57.395462 93.922948 L 77.465555 74.610432 C 77.477625 74.598832 77.490175 74.587419 77.502245 74.575809 C 77.514315 74.563549 77.526349 74.551772 77.538419 74.540152 L 133.50348 20.688659 C 136.12134 18.169501 136.12134 14.084861 133.50348 11.565702 L 128.7632 7.0042235 C 126.14533 4.4850647 121.89998 4.4850647 119.28212 7.0042235 L 70.391568 54.048897 L 57.395462 41.5432 C 59.279922 37.753817 60.334818 33.510011 60.334818 29.028719 C 60.334818 12.996723 46.828678 -2.5066343e-15 30.167667 0 z M 30.167667 18.445386 A 10.583333 10.583333 0 0 1 40.750484 29.028719 A 10.583333 10.583333 0 0 1 30.167667 39.612052 A 10.583333 10.583333 0 0 1 19.584334 29.028719 A 10.583333 10.583333 0 0 1 30.167667 18.445386 z M 90.501968 76.073909 C 88.786278 76.073909 87.07044 76.703167 85.761172 77.962682 L 81.02141 82.524161 C 78.403546 85.043189 78.403546 89.128091 81.02141 91.647118 L 119.28109 128.46244 C 121.89965 130.98211 126.14363 130.98211 128.76216 128.46244 L 133.50244 123.90096 C 136.1203 121.38193 136.1203 117.29704 133.50244 114.77801 L 95.242764 77.962682 C 93.933501 76.703167 92.217659 76.073909 90.501968 76.073909 z M 30.167667 95.854613 A 10.583333 10.583333 0 0 1 40.750484 106.43795 A 10.583333 10.583333 0 0 1 30.167667 117.02128 A 10.583333 10.583333 0 0 1 19.584334 106.43795 A 10.583333 10.583333 0 0 1 30.167667 95.854613 z" style="stroke-width:8.81944;stroke:none;fill:#fff;fill-opacity:1"/></svg>