<svg xmlns="http://www.w3.org/2000/svg" xml:space="preserve" width="512" height="512" viewBox="0 0 135.46666 135.46667"><path fill="#fff" d="M10.712579 123.02683c-5.0698791-1.00801-9.3714548-6.13425-9.3963817-11.1978-.0036972-.75102 1.5023515-12.043328 3.3467748-25.094018 3.7072217-26.231397 3.5989543-24.673684 1.8097717-26.03836-.5031878-.3838-1.4730128-.754554-2.3450197-.896477-3.1273901-.508996-4.12772137-1.87682-4.12772137-5.644127v-2.297715H125.95181l-3.70647 7.383389c-3.63506 7.241135-3.72852 7.394065-4.85111 7.9375-1.13419.549052-1.34918.55411-23.550684.55411H71.437499v6.313887c0 3.472638-.121528 6.9547-.270062 7.737916-.90116 4.751798-4.738836 8.589475-9.490634 9.490635-.783219.148534-5.24861.270061-9.923127.270061h-8.499098l-1.294444 10.252599c-.711944 5.63894-1.444288 10.97525-1.627431 11.85847-.511957 2.46897-1.382913 4.05353-3.276987 5.96192-3.399756 3.42546-4.529415 3.67615-16.418214 3.64343-4.874948-.0134-9.341163-.11936-9.924923-.23542zm38.087798-41.381273c-.498772-1.079526-1.084577-2.716636-1.30179-3.638021-.635978-2.697732-.498394-7.229147.299111-9.851337.139996-.460308.04696-.488635-1.092141-.332504-5.844981.801144-8.877954 7.324585-5.662473 12.179075 1.519976 2.294745 4.033311 3.581119 7.027721 3.596924l1.63643.0086zm13.344659.818682c1.241875-1.135896 1.354963-1.845716 1.354963-8.5047v-6.226207h-7.078586l-.559556 1.300724c-.307756.715398-.677607 2.13309-.821891 3.150427-.512306 3.612225.598231 6.77152 3.351147 9.533463 1.4753 1.480138 1.76272 1.659965 2.400252 1.501741.398343-.09886 1.007495-.438813 1.353671-.755448zM.00000273 37.658035c0-5.790352.0417077-6.356286.5450703-7.396095.59407627-1.227198 2.17079797-2.216105 3.53337447-2.216105 1.0526263 0 2.4584861-.735302 3.0831582-1.612573.2951294-.414471.6439162-1.412967.7750819-2.21888.3162711-1.943244.9504261-2.947877 2.2613824-3.582501.991798-.480121 1.646643-.523546 7.894963-.523546 6.369059 0 6.803798.0302 6.665314.463021-.08148.254661-1.855733 5.582708-3.942783 11.840103l-3.794635 11.377083-8.5104633.069811-8.51046297.069811ZM25.510144 43.465201c.08277-.258725 1.857963-5.590096 3.944871-11.847492l3.794379-11.377082 3.768394-.07353c3.50965-.06848 3.758062-.04123 3.617903.396875-.08277.258725-1.857962 5.590096-3.944871 11.847491l-3.794379 11.377083-3.768394.07353c-3.509649.06848-3.758061.04123-3.617903-.396875zm15.877344-.0074c.08148-.254662 1.855769-5.582708 3.942863-11.840104l3.794716-11.377082 35.233298-.06711 35.233295-.06711v-2.296749c0-2.969483.57951-4.301485 2.21611-5.093749 1.41481-.6849 2.09047-.6849 3.50529 0 1.63678.792352 2.2161 2.124189 2.2161 5.094715v2.297714h2.29772c2.97052 0 4.30236.579324 5.09471 2.216106.52158 1.077427.54507 1.567179.54507 11.361179v10.235223H88.353002c-44.750201 0-47.106229-.02323-46.965514-.463021z"/></svg>