<svg xmlns="http://www.w3.org/2000/svg" xml:space="preserve" id="svg1" width="512" height="512" version="1.1" viewBox="0 0 135.46666 135.46667"><style id="style1" type="text/css">.st0{fill:#000}</style><path id="形状" d="M 19.382279 0 L 18.495512 0.036690266 C 11.218094 0.64568666 6.8395616 8.6878741 10.561112 15.200622 L 26.522412 43.133284 L 28.096993 41.736987 C 38.754611 32.607943 52.59998 27.093436 67.733332 27.093436 C 69.769394 27.093436 71.782327 27.19292 73.767589 27.387992 L 62.017919 6.8254231 L 61.42519 5.8807779 C 58.913139 2.2195456 54.743249 0 50.255847 0 L 19.382279 0 z M 85.210302 0 C 80.989842 0 77.049946 1.9637598 74.506562 5.2436075 C 74.892642 5.741447 75.246033 6.2691976 75.564379 6.8254231 L 89.413146 31.061153 C 96.694471 33.832528 103.30749 37.95903 108.94425 43.132767 L 124.90555 15.200622 C 128.77583 8.4273633 123.88471 0 116.08387 0 L 85.210302 0 z M 67.733332 40.639896 C 41.54772 40.639896 20.320206 61.867859 20.320206 88.053539 C 20.320206 114.23922 41.54772 135.46666 67.733332 135.46666 C 93.919012 135.46666 115.14646 114.23922 115.14646 88.053539 C 115.14646 61.867859 93.919012 40.639896 67.733332 40.639896 z M 67.728165 62.473189 C 68.815604 62.473189 69.903061 63.03935 70.461331 64.164041 L 76.660436 76.736917 L 90.532457 78.758499 C 93.019538 79.116899 94.016914 82.184593 92.212458 83.941645 L 82.176895 93.720893 L 84.550394 107.5371 C 84.973727 110.01347 82.364835 111.90539 80.144978 110.73588 L 67.733332 104.21379 L 55.324271 110.73588 C 53.101769 111.91303 50.495522 110.01091 50.918855 107.5371 L 53.292354 93.720893 L 43.256791 83.941645 C 41.45233 82.184636 42.449707 79.118307 44.936791 78.758499 L 58.808813 76.736917 L 65.007917 64.164041 C 65.566189 63.03167 66.646018 62.473189 67.728165 62.473189 z" style="display:inline;fill:#fff;fill-opacity:1;fill-rule:nonzero;stroke:none;stroke-width:8.8194"/></svg>