<svg xmlns="http://www.w3.org/2000/svg" xml:space="preserve" width="512" height="512" viewBox="0 0 135.46666 135.46667"><path d="M 67.733332 16.933333 C 33.8667 16.933333 0 50.800015 0 67.733332 C 1.0026537e-14 84.66665 33.8667 118.53333 67.733332 118.53333 C 101.59997 118.53333 135.46666 84.66665 135.46666 67.733332 C 135.46666 50.800015 101.59997 16.933333 67.733332 16.933333 z M 67.733332 33.866666 A 33.866666 33.866666 0 0 1 101.6 67.733332 A 33.866666 33.866666 0 0 1 67.733332 101.6 A 33.866666 33.866666 0 0 1 33.866666 67.733332 A 33.866666 33.866666 0 0 1 67.733332 33.866666 z M 67.733332 50.799999 A 16.933333 16.933333 0 0 0 50.799999 67.733332 A 16.933333 16.933333 0 0 0 67.733332 84.666666 A 16.933333 16.933333 0 0 0 84.666666 67.733332 A 16.933333 16.933333 0 0 0 67.733332 50.799999 z" style="fill:#fff;fill-opacity:1;stroke-width:8.46667;stroke-linejoin:bevel;stroke-miterlimit:128"/></svg>