<svg xmlns="http://www.w3.org/2000/svg" xml:space="preserve" width="512" height="512" viewBox="0 0 135.46666 135.46667"><path d="M 67.700776 5.4797688 C 58.717859 5.4797688 49.735007 5.5652323 48.096805 5.7360839 C 41.623724 6.4111762 36.026608 8.9581012 31.376896 13.344405 C 28.808265 15.767521 27.115739 18.092318 25.444441 21.492228 C 22.938251 26.590561 22.316081 30.434931 22.450309 40.001692 L 22.4932 43.028898 C 31.049459 45.037496 38.026086 51.485639 41.013517 59.834073 C 41.330665 60.720352 41.948432 63.280902 42.050663 65.763427 C 42.152894 68.24595 42.1652 71.988726 42.205175 79.554833 L 42.216544 81.935566 C 43.810249 81.897333 45.474246 81.860554 47.656005 81.833764 C 53.232208 81.765289 60.464478 81.730411 67.701293 81.730411 C 74.938108 81.730411 82.169861 81.765284 87.746064 81.833764 C 89.913538 81.860384 91.56075 81.895599 93.148318 81.933499 L 93.148318 80.419896 C 93.15082 72.271498 93.119982 68.163815 93.437706 64.763488 C 93.755431 61.363161 94.959856 58.263847 95.925927 56.30664 C 99.344888 49.379944 105.65702 44.566796 112.9869 42.930196 C 112.99622 42.108556 112.99822 41.068107 112.99724 39.713854 C 112.99008 30.293012 112.4165 26.613815 110.2341 21.989355 C 107.33224 15.840394 103.07025 11.507294 96.974441 8.5085245 C 93.695282 6.8953779 90.99438 6.120884 87.304747 5.7360839 C 85.666547 5.5652323 76.683694 5.4797688 67.700776 5.4797688 z M 56.249279 28.261324 C 57.092795 28.243996 57.955342 28.374922 58.632079 28.657682 C 63.106628 30.527267 63.106628 37.094445 58.632079 38.964029 C 57.377474 39.488236 55.081132 39.473442 54.057165 38.934574 C 49.708215 36.64591 49.665737 30.972787 53.980684 28.753283 C 54.581414 28.444285 55.405763 28.278651 56.249279 28.261324 z M 79.152274 28.261324 C 79.995789 28.278651 80.820139 28.444283 81.420869 28.753283 C 85.705751 30.957323 85.705751 36.664388 81.420869 38.868428 C 80.228128 39.481948 78.022334 39.521224 76.710045 38.952144 C 72.289251 37.035042 72.326895 30.51391 76.769473 28.657682 C 77.446213 28.37492 78.308756 28.243996 79.152274 28.261324 z M 56.249279 45.216361 C 57.092795 45.199034 57.955342 45.329445 58.632079 45.612202 C 63.106628 47.48179 63.106628 54.049482 58.632079 55.919067 C 57.377474 56.443271 55.081132 56.428483 54.057165 55.889611 C 49.708215 53.600947 49.665737 47.927308 53.980684 45.707804 C 54.581414 45.398804 55.405763 45.233688 56.249279 45.216361 z M 79.152274 45.216361 C 79.995789 45.233688 80.820139 45.398802 81.420869 45.707804 C 85.705751 47.911844 85.705751 53.619429 81.420869 55.823465 C 80.228128 56.436989 78.022334 56.476264 76.710045 55.907181 C 72.289251 53.99008 72.326895 47.468432 76.769473 45.612202 C 77.446213 45.329443 78.308756 45.199034 79.152274 45.216361 z" style="fill:#fff;fill-opacity:1;stroke-width:1.00127"/><path d="m 22.575982,129.80018 c -0.09713,-0.0971 -0.176614,-2.66023 -0.176614,-5.69577 v -5.51917 l -3.112809,-0.001 c -3.659424,-0.002 -4.774415,-0.25894 -6.075757,-1.40153 -1.989298,-1.74662 -1.924654,-1.14054 -1.941277,-18.201064 L 11.254683,83.748269 9.1060826,82.708481 C 5.2928717,80.863125 2.1998637,77.222905 0.64807757,72.754093 c -0.86409479,-2.488409 -0.86409479,-7.57855 0,-10.066959 C 3.5647196,54.287829 11.647733,49.472445 20.02733,51.142117 c 6.110832,1.21761 10.811452,5.387337 13.014936,11.545017 0.613799,1.715274 0.616512,1.781143 0.69646,16.912506 l 0.08026,15.190525 0.671065,-1.346651 c 0.763072,-1.531285 1.716647,-2.31182 3.468423,-2.839028 1.802049,-0.542337 57.682355,-0.542337 59.484404,0 1.759288,0.529469 2.705892,1.30883 3.482452,2.867184 l 0.6851,1.374808 0.005,-14.423923 c 0.005,-16.2874 0.0323,-16.577713 1.90296,-20.367568 2.73926,-5.549643 8.788,-9.28005 15.04731,-9.28005 8.38075,0 15.6374,6.378171 16.75434,14.72609 0.96173,7.187915 -2.88027,14.301409 -9.39756,17.399645 l -1.78296,0.847597 -0.011,15.232896 c -0.0124,17.061505 0.0523,16.454025 -1.9375,18.201065 -1.30098,1.14228 -2.41636,1.3998 -6.07048,1.40153 l -3.10755,0.001 -0.0715,5.62956 -0.0715,5.62954 -5.62956,0.0715 -5.62954,0.0715 v -5.70105 -5.70105 H 67.700676 33.790926 v 5.69578 5.69578 H 28.27176 c -3.035541,0 -5.598641,-0.0795 -5.695778,-0.17662 z" style="color:#000;fill:#fff;stroke-linecap:round;stroke-linejoin:round;-inkscape-stroke:none;paint-order:stroke fill markers"/></svg>