<svg xmlns="http://www.w3.org/2000/svg" xml:space="preserve" width="512" height="512" viewBox="0 0 135.46666 135.46667"><path fill="#fff" d="M83.015736 9.4176225c-.03313.05975-.02741.04732-.06157.10898-.678362 1.2245915-6.873773 12.2394155-8.211174 14.5996415-.57602 1.01655-1.268331 2.25997-1.556794 2.794818l.949224 1.664139c.862981 1.509713 5.613102 9.829772 10.55917 18.496258 4.557317 7.98532 9.024981 15.809978 12.379154 21.680137 1.67708 2.935079 3.075754 5.381714 4.067714 7.11537.49598.866828.89147 1.555164 1.16773 2.036855.27625.481692.51187.885128.43647.760143.20102.33318.45572.797541.83426 1.476692l.68167 1.225492a2.2321542 2.2321542 0 0 1-1.96057 3.317382l-15.411009-.071928c-8.48053-.04029-16.687942-.102552-18.455389-.143855l-1.694655-.03923-1.678852 2.837866c-1.290306 2.181363-4.12723 6.974032-6.307822 10.653979-.785843 1.32618-1.401461 2.371238-2.018328 3.420368.640622-.005 1.136437-.002 1.863575-.012 3.192593-.0417 12.082377-.10656 19.793677-.14441 7.703717-.0379 20.988309-.12322 29.514783-.18744 8.53344-.0643 18.98097-.11835 23.24511-.12152 1.66668-.001 3.0353-.0132 4.31456-.0267-.48421-.84148-1.03071-1.792008-1.21896-2.127318-.21967-.39129-1.41268-2.4721-2.59483-4.524887-1.18505-2.057839-2.49659-4.346961-2.93487-5.119928-.41963-.740067-1.29073-2.256978-1.92133-3.346806-.63627-1.099623-1.45779-2.526869-1.83524-3.187695-.37028-.648231-.76809-1.338446-.76832-1.338832-.46907-.792316-1.89102-3.276155-2.28151-3.98707-.19151-.348672-.91035-1.61014-1.53881-2.697825-2.79041-4.829312-5.28817-9.167266-5.71497-9.935254-.3587-.645514-.81572-1.44315-5.406-9.44048-1.19978-2.090319-3.25674-5.676786-4.5723-7.972506-2.64337-4.612848-6.083334-10.61023-9.467184-16.502449-1.220676-2.125533-3.310387-5.76926-4.644226-8.100013-1.332749-2.328857-2.547479-4.449331-2.634071-4.598999-.151362-.261626-1.553452-2.706448-3.18388-5.549858-.648227-1.130458-1.210681-2.1032-1.734433-3.0111175Zm-29.86461.447367c-.83124 1.4351285-1.667414 2.8781395-2.951207 5.1008555-1.821499 3.153685-3.645599 6.321302-3.708624 6.433694-.176618.314954-.430015.738144-.634813 1.062565-.07007.11099-.133408.216494-.170557.280625-.0079.0173-.02079.04695-.0267.0594-.02692.05644-.04216.08363-.05776.11334-.03119.05943-.06079.113814-.09699.179274-.0724.130929-.166995.299327-.283896.504583-.233803.410511-.552674.962376-.902363 1.562787-1.24159 2.131795-2.260875 3.894022-5.925297 10.252388-1.028644 1.784865-3.229809 5.593972-4.897062 8.47273-1.66588 2.876386-3.32717 5.750428-3.668301 6.345418-1.374534 2.397415-8.48271 14.704958-10.148857 17.573188-.59511 1.024469-1.535522 2.650709-2.08644 3.606183-.552917.958937-1.943767 3.370248-3.089067 5.356961-2.523696 4.377768-2.684655 4.656667-4.329271 7.48209-.7156818 1.229531-1.4639648 2.525296-1.6042008 2.774113-.200761.356204-.912008 1.589234-1.627086 2.825333-.7125777 1.231773-1.9578903 3.389077-2.767573 4.792439-.8108649 1.405416-1.8947233 3.283616-2.4117497 4.176696-.88341075 1.525928-1.24527835 2.162318-1.76331275 3.066728 1.59819665-.006 3.43521055-.016 5.53841495-.0349 4.9212963-.0442 10.4383373-.118 12.6924733-.18527l1.865754-.0556 1.135038-1.970928c2.678884-4.651141 3.99757-6.935119 5.541684-9.597409.773401-1.333461 2.006088-3.46402 2.735423-4.728686.732131-1.269512 1.757253-3.045194 2.283698-3.952197.523092-.901223 1.067451-1.841828 1.182444-2.042848.36203-.632878 1.80306-3.127101 3.158814-5.468123 1.81849-3.140037 2.334412-4.034722 5.391836-9.335313 3.071122-5.324342 5.914412-10.240472 7.352404-12.71536.495083-.852074 1.362488-2.352534 1.923515-3.3261.299657-.520008.582275-.982534.823895-1.349185.120811-.183325.224621-.334841.358548-.506217.06696-.08569.126812-.169712.296429-.331847.08481-.08107.177187-.18683.475702-.354188.149258-.08368.356566-.194108.732897-.257196.188165-.03153.695229-.0083.696389-.0082.0011.000164.851879.310043.852776.310596.501871.310173.488786.403918.561797.490414.07301.0865.11519.142716.154753.197801.07912.110171.141259.204614.208154.310596.133794.211964.277247.45678.423936.72091.476183.857415 4.826725 8.530436 5.50899 9.714567.256239.444726.694125 1.201419.970477 1.680487.285377.494713.661622 1.161169.866944 1.534452.17207.312824.539278.963903.786842 1.392233.577911.999891 2.891616 5.057555 3.282508 5.758557.383098.687022 2.931259 5.17083 4.378312 7.702232l.783029 1.367712.327487.01635c1.218638.06039 7.143827.1376 12.564421.172734 2.490648.01611 4.801655.02378 6.678901.02289-.696975-1.186875-1.396354-2.380454-2.20523-3.764749-1.16378-1.991667-2.102968-3.593319-2.345816-4.030662.04287.07721-.590527-1.014124-1.175906-2.003617-1.349238-2.280676-4.734035-8.047981-5.565115-9.484072-.326835-.56477-1.282652-2.198194-2.106603-3.599643-.830112-1.411932-4.095368-6.983343-7.264129-12.396044-5.52392-9.435654-7.561974-12.906568-8.843264-15.058997-.347433-.583651-1.498988-2.553375-2.597017-4.440431-1.094387-1.880794-2.650022-4.544227-3.45143-5.908406-.808534-1.376306-1.765195-3.021188-2.152374-3.69936-.172952-.302939-.352707-.603846-.48987-.825531-.137164-.221685-.480574-.604865-.08065-.162926-.12724-.140594-.228565-.269015-.339475-.438649-.05546-.08482-.114395-.175411-.187448-.329123-.0028-.006-.0057-.03333-.0087-.03923-.000106-.000105-.0016-.002-.0016-.0022-.0031-.0059-.02342-.04302-.05177-.09481-.05816-.106278-.150489-.275262-.263734-.475702-.06758-.119617-.17329-.299713-.25338-.4402825zm.350373.04904c0-.000263.03931.4183325.03923.4179415-.000029-.000158.01159.04763.01907.0801-.02738-.129503-.05831-.245438-.05831-.4980425zm.185268 48.4022805c-.000949.0016-.0013.0028-.0022.0044-1.050655 1.853781-2.646691 4.654663-3.552236 6.235894-.901059 1.573396-1.802668 3.155485-1.940407 3.402387-.30354.544106-1.0006 1.773006-4.316193 7.613958-.721406 1.270873-2.442483 4.297123-3.829048 6.730122-1.385522 2.431172-3.460481 6.074303-4.608806 8.09402-1.1494 2.021612-2.521386 4.430863-3.050379 5.358596-.525547.921695-1.104518 1.945125-1.260366 2.224305-.193398.34645-.787883 1.39025-1.358993 2.387228-.565029.98636-1.394673 2.44657-1.830881 3.22311-.224812.40022-.439441.7767-.607568 1.06856-.08407.14593-.156752.27049-.216328.37108-.05671.0958-.0034.0485-.213602.33512.171827-.2318.02528-.0327-.04414.0888-.07417.12988-.171919.30702-.267548.48387-.276094.51065-1.337396 2.38443-2.488037 4.40338-4.567227 8.01373-8.27046 14.52673-8.55283 15.03611-.06628.11956-.24177.41669-.346014.59939 1.257867.0156 2.205306.0319 4.79026.0414 7.688188.0277 22.205888.031 49.438146.031 15.967254 0 30.476669-.0103 40.989943-.0272 5.25665-.008 9.51441-.0172 12.4538-.0283.29395-.001.40787-.003.67514-.004-1.01092-1.70551-2.72606-4.60096-3.9086-6.59881-2.18862-3.69763-3.83126-6.46965-4.94719-8.35121-.82702-1.39441-1.07177-1.80376-1.30778-2.19924H81.139628c-9.214621 0-17.590788-.007-23.665226-.0169-3.03722-.005-5.497572-.01-7.20201-.0163-.852219-.003-1.515147-.007-1.969288-.0104-.227068-.002-.400316-.004-.526923-.007-.0633-.001-.114355-.00007-.166741-.002-.02619-.001-.04714-.003-.100807-.006-.02684-.002-.05365-.00094-.14658-.0125-.04646-.006-.267089-.0495-.267548-.0496-.000459-.00011-1.69084-2.16643-1.69084-2.16654 0-.00024.03101-.36585.03106-.36617.000052-.00032.02808-.14628.04087-.19563.02559-.0987.0461-.1533.06212-.1978.03205-.0891.05007-.13084.06539-.16511.03065-.0685.04833-.0999.0643-.13132.03192-.0628.0577-.10922.08827-.16511.06117-.11189.136627-.24791.228861-.40976.184477-.32368.431209-.74932.704017-1.21296.532352-.90472 2.137343-3.64471 3.558775-6.075688 1.423549-2.434591 2.836574-4.841678 3.194234-5.438699.48805-.814668 2.345501-3.986476 6.403178-10.940059.564373-.967158 1.713756-2.923332 2.562144-4.360331l.883291-1.499033c-.225348-.400868-.423446-.755659-.743252-1.322584-.483996-.85799-.999926-1.775084-1.161738-2.065191-.764146-1.370007-2.446677-4.369081-3.974537-7.087035-1.527859-2.717953-2.995759-5.316147-3.040025-5.391836-.116208-.198697-.447707-.793861-.683856-1.212414Z" color="#000" style="-inkscape-stroke:none"/></svg>