<svg xmlns="http://www.w3.org/2000/svg" xml:space="preserve" width="512" height="512" viewBox="0 0 135.46666 135.46667"><path d="m 131.23311,46.163205 c 0,-1.612122 -0.61487,-3.22473 -1.84485,-4.455025 L 93.75822,6.0783141 c -2.460582,-2.459956 -6.449067,-2.459956 -8.909017,0 L 70.84489,20.082627 115.38395,64.62151 129.38826,50.617197 c 1.22998,-1.229979 1.84485,-2.841868 1.84485,-4.453992 z M 107.96058,75.158256 60.308191,27.506385 23.989473,34.769508 c -2.40532,0.481278 -4.31255,2.315091 -4.88807,4.699454 L 0.09584312,118.2073 c -0.74643,3.0923 3.03965998,5.21561 5.28908998,2.96623 L 43.716956,82.841508 c -0.904584,-2.0978 -1.375328,-4.35695 -1.383895,-6.641455 0,-9.352022 7.581311,-16.933333 16.933333,-16.933333 9.352022,0 16.933333,7.581311 16.933333,16.933333 0,9.352022 -7.581311,16.933333 -16.933333,16.933333 -2.284121,-0.0085 -4.542905,-0.479108 -6.640422,-1.383378 L 14.294463,130.08203 c -2.24943,2.24936 -0.12607,6.035 2.96623,5.28857 l 78.736792,-19.00556 c 2.384356,-0.57553 4.218175,-2.48281 4.699455,-4.88807 z" style="fill:#fff;fill-opacity:1;stroke-width:8.81945"/></svg>