<svg xmlns="http://www.w3.org/2000/svg" xml:space="preserve" width="512" height="512" viewBox="0 0 135.46666 135.46667"><path d="M -1.5000001e-6,4.9999991e-7 V 25.4 L 30.359613,55.759615 55.759612,30.359615 25.399998,4.9999991e-7 Z m 110.0666715000001,0 L 31.386858,78.679808 18.686857,65.979807 6.7131395,77.953526 26.126279,97.36667 13.406766,110.08618 c -0.234018,-0.0127 -0.469532,-0.0195 -0.706768,-0.0195 -7.0140085,0 -12.6999995000001,5.68622 -12.6999995000001,12.69999 0,7.01378 5.6859910000001,12.7 12.6999995000001,12.7 7.014034,0 12.7,-5.68622 12.7,-12.7 0,-0.23706 -0.0066,-0.47341 -0.01951,-0.7071 l 12.71951,-12.71916 19.413141,19.41314 11.973718,-11.97372 -12.7,-12.7 L 135.46667,25.4 V 4.9999991e-7 Z M 116.77981,65.979807 85.392946,97.36667 l 24.693234,24.6929 c -0.0127,0.23368 -0.0195,0.47003 -0.0195,0.70709 0,7.01378 5.68622,12.7 12.7,12.7 7.01379,0 12.7,-5.68622 12.7,-12.7 0,-7.01377 -5.68621,-12.69999 -12.7,-12.69999 -0.23706,0 -0.47342,0.007 -0.7071,0.0195 L 109.34005,97.366683 128.75352,77.953539 Z" style="stroke-width:13.2292;fill:#fff;fill-opacity:1"/></svg>