<svg xmlns="http://www.w3.org/2000/svg" xml:space="preserve" width="512" height="512" viewBox="0 0 135.46666 135.46667"><path d="m 46.490696,118.31242 c -11.257022,-0.94344 -21.206294,-7.72644 -26.355513,-17.9681 -1.029934,-2.048505 -2.564849,-6.6032 -2.819578,-8.366789 -0.183336,-1.269295 -0.173893,-1.293527 0.444863,-1.141676 2.425448,0.595234 15.124396,2.025578 23.958861,2.698601 19.47454,1.483602 41.982505,1.189955 61.630171,-0.804048 4.44511,-0.451127 13.9475,-1.672057 14.67986,-1.886167 0.45601,-0.133321 0.48252,-0.0364 0.31232,1.142215 -0.29595,2.04951 -1.91997,6.632077 -3.23266,9.121734 -3.73946,7.09231 -10.24767,12.74565 -17.791624,15.45462 -1.057884,0.37988 -3.085715,0.94982 -4.506293,1.26653 -2.513646,0.56039 -3.133435,0.57756 -23.126257,0.64054 -11.298864,0.0356 -21.736231,-0.0353 -23.19415,-0.15746 z m 6.6269,-32.081183 C 42.61389,85.751158 29.375871,84.527088 20.645788,83.228691 l -3.843602,-0.571646 -0.07164,-5.493193 -0.07164,-5.493193 h 51.170423 51.170421 l -0.0716,5.500327 -0.0716,5.500327 -3.04838,0.456742 c -7.69213,1.152523 -18.018529,2.191665 -28.495666,2.867507 -5.868659,0.378567 -27.766423,0.529489 -34.194803,0.235675 z M 7.9221391,56.914161 C 4.3502401,53.180792 1.1065272,49.743976 0.71388831,49.27679 L -7.0029508e-7,48.427361 1.2508989,46.324237 C 11.675893,28.7968 33.848967,18.163818 62.191367,17.100554 c 19.59608,-0.735146 35.595793,2.111655 48.977873,8.714548 10.32468,5.094333 18.04988,11.902858 23.17031,20.42091 1.28166,2.132085 1.30973,2.221789 0.87285,2.789011 -0.24827,0.32234 -3.49314,3.757377 -7.21083,7.633415 l -6.75945,7.047342 -20.74219,0.0063 c -11.408208,0.0035 -20.742196,-0.06475 -20.742196,-0.151588 0,-0.08684 0.244924,-0.501852 0.544277,-0.922253 0.928212,-1.303554 2.093962,-4.135747 2.640315,-6.414648 0.44196,-1.843472 0.521447,-3.102307 0.514277,-8.144695 l -0.0085,-5.96421 -1.165923,-0.857399 c -6.670608,-4.90548 -15.143266,-6.175293 -22.568264,-3.382364 -2.309822,0.868843 -4.94584,2.306746 -6.397496,3.489722 l -1.126573,0.91806 0.0019,5.880194 c 0.0016,4.934187 0.08596,6.230992 0.524615,8.06068 0.546353,2.278901 1.712104,5.111094 2.640316,6.414648 0.299352,0.420401 0.544276,0.835416 0.544276,0.922253 0,0.08684 -9.333988,0.154226 -20.742196,0.149749 l -20.742196,-0.0081 z M 66.04437,62.376511 C 63.268418,60.562702 61.401231,57.95494 60.527202,54.67108 60.29109,53.783974 60.147218,51.932126 60.145257,49.754888 l -0.0031,-3.492989 2.186878,-0.851185 c 3.816978,-1.485659 7.945763,-1.377013 11.872976,0.312429 l 1.314554,0.565505 -0.0031,3.479615 c -0.0044,4.909549 -0.822546,7.558741 -3.176556,10.286309 -0.929864,1.077423 -3.985332,3.398731 -4.473649,3.398731 -0.09394,0 -0.912404,-0.484557 -1.818796,-1.076792 z" style="fill:#fff;stroke-width:1.00186;fill-opacity:1"/></svg>