<svg xmlns="http://www.w3.org/2000/svg" xml:space="preserve" width="512" height="512" viewBox="0 0 135.46666 135.46667"><path d="m 60.72479,36.68112 v -7.047789 h 11.850031 v 6.898989 c 5.42328,0.292937 10.812499,1.039556 16.111158,2.232028 v 12.648145 c -2.84076,-0.216436 -6.037741,-0.392294 -9.59094,-0.527575 -3.553208,-0.13528 -6.781757,-0.20292 -9.685646,-0.20292 -1.552735,-0.01299 -3.104107,0.09556 -4.639903,0.324655 -6.222617,1.001044 -6.290256,9.171616 1.758569,9.171616 h 6.060283 c 3.727751,-0.127347 7.433661,0.618468 10.821945,2.177917 2.694085,1.284218 4.948424,3.336179 6.479643,5.897949 1.487532,2.575617 2.245146,5.507876 2.191438,8.481707 v 2.705481 c 0,5.176495 -1.023579,9.135523 -3.070733,11.877082 -2.15721,2.814924 -5.244989,4.771159 -8.711657,5.519189 -2.51038,0.72298 -5.090643,1.17645 -7.697104,1.35274 v 7.642996 H 60.72479 v -7.697106 c -5.439118,-0.23689 -10.843123,-0.99335 -16.138224,-2.25908 V 83.25606 c 7.02074,0.554629 14.190269,0.744004 21.22453,0.744004 1.709708,0.03148 3.418249,-0.109012 5.09985,-0.419349 6.276724,-1.258046 5.262172,-8.346414 -0.744004,-8.346414 h -4.910463 c -7.169537,0 -12.607563,-1.393326 -16.314078,-4.179979 -3.706515,-2.786654 -5.559773,-7.458125 -5.559773,-14.014415 v -2.705492 c 0,-6.006177 2.03813,-10.515319 6.114389,-13.527424 3.27473,-2.422029 7.166429,-3.870866 11.227773,-4.179978 z" style="fill:#fff;fill-opacity:1;stroke:none;stroke-width:.264583"/><path d="M 19.838631,19.838635 A 67.73333,67.73333 0 0 0 3.5977276,89.111868 L 19.567499,83.788612 a 50.799999,50.799999 0 0 1 12.244807,-51.976297 50.799999,50.799999 0 0 1 71.842044,0 l -5.98683,5.986829 23.94735,3e-6 V 13.851795 l -5.98684,5.98684 a 67.73333,67.73333 0 0 0 -95.789399,0 z m -5.986837,77.828886 v 23.947349 l 5.986837,-5.98684 a 67.73333,67.73333 0 0 0 95.789399,0 67.73333,67.73333 0 0 0 16.24091,-69.27323 l -15.96978,5.32326 a 50.799999,50.799999 0 0 1 -12.24481,51.9763 50.799999,50.799999 0 0 1 -71.842044,0 l 5.986837,-5.986839 z" style="fill:#fff;fill-opacity:1;stroke:none;stroke-width:16.9333;paint-order:stroke fill markers"/></svg>