<svg xmlns="http://www.w3.org/2000/svg" xml:space="preserve" width="512" height="512" viewBox="0 0 135.46666 135.46667"><path d="M 110.06667 0 A 25.4 25.4 0 0 0 85.547232 19.051033 L 71.966666 19.051033 C 66.146741 19.051033 61.382816 23.812892 61.382816 29.632816 L 61.382816 61.382816 L 49.918916 61.382816 A 25.4 25.4 0 0 0 25.4 42.333333 A 25.4 25.4 0 0 0 0 67.733332 A 25.4 25.4 0 0 0 25.4 93.133332 A 25.4 25.4 0 0 0 49.918916 74.083849 L 61.382816 74.083849 L 61.382816 105.83385 C 61.382814 111.65377 66.146739 116.41615 71.966666 116.41615 L 85.547232 116.41615 A 25.4 25.4 0 0 0 110.06667 135.46666 A 25.4 25.4 0 0 0 135.46666 110.06667 A 25.4 25.4 0 0 0 110.06667 84.666666 A 25.4 25.4 0 0 0 85.547749 103.71667 L 74.083849 103.71667 L 74.083849 31.75 L 85.547749 31.75 A 25.4 25.4 0 0 0 110.06667 50.799999 A 25.4 25.4 0 0 0 135.46666 25.4 A 25.4 25.4 0 0 0 110.06667 0 z M 110.06667 12.7 A 12.7 12.7 0 0 1 122.76667 25.4 A 12.7 12.7 0 0 1 110.06667 38.1 A 12.7 12.7 0 0 1 97.366665 25.4 A 12.7 12.7 0 0 1 110.06667 12.7 z M 25.4 55.033333 A 12.7 12.7 0 0 1 38.1 67.733332 A 12.7 12.7 0 0 1 25.4 80.433332 A 12.7 12.7 0 0 1 12.7 67.733332 A 12.7 12.7 0 0 1 25.4 55.033333 z M 110.06667 97.366665 A 12.7 12.7 0 0 1 122.76667 110.06667 A 12.7 12.7 0 0 1 110.06667 122.76667 A 12.7 12.7 0 0 1 97.366665 110.06667 A 12.7 12.7 0 0 1 110.06667 97.366665 z" style="color:#000;fill:#fff;stroke-linecap:round;stroke-linejoin:round;-inkscape-stroke:none"/></svg>