<svg xmlns="http://www.w3.org/2000/svg" xml:space="preserve" width="512" height="512" viewBox="0 0 135.46666 135.46667"><path d="M 24.722522 0 C 21.466654 0 18.832442 2.6347081 18.832442 5.8952473 L 18.832442 8.7586384 C 23.489687 7.0863275 28.576525 6.2642769 32.846057 5.8952473 C 32.846057 2.6347081 30.206677 1.2533172e-15 26.950809 0 L 24.722522 0 z M 114.60282 12.607499 C 113.87298 12.674475 113.10491 13.082885 112.51458 13.653947 C 111.63638 14.499445 101.31729 24.650175 83.323595 24.650175 C 69.571406 24.650175 61.046402 19.983793 61.046402 19.983793 C 52.124296 15.625507 47.621231 14.910718 39.838911 14.910718 C 31.958496 14.910718 23.433366 16.185899 18.537886 19.072737 L 18.537886 90.809443 C 23.433366 88.497169 32.196471 87.17504 39.306127 87.17504 C 53.011604 87.17504 56.898286 90.379426 69.108959 95.251549 C 73.607383 96.984587 79.40441 99.021393 85.691926 99.128832 C 101.44341 99.395094 114.57443 91.154881 116.69985 82.690559 L 116.90087 16.17679 C 116.90587 16.11139 116.92878 16.031925 116.92878 15.952514 C 116.92878 13.33369 115.81922 12.495872 114.60282 12.607499 z M 32.846057 96.905195 C 28.385003 97.409691 24.475202 98.339335 22.531958 99.259573 L 18.832442 101.00675 L 18.832442 128.45986 C 18.832442 132.32766 21.971446 135.46666 25.839249 135.46666 C 29.707052 135.46666 32.846057 132.32766 32.846057 128.45986 L 32.846057 96.905195 z" style="fill:#fff;fill-opacity:1;stroke-width:7.29885;stroke:none"/></svg>