<svg xmlns="http://www.w3.org/2000/svg" xml:space="preserve" width="512" height="512" viewBox="0 0 135.46666 135.46667"><path fill="#fff" d="M56.609775 134.25257c-2.498545-2.57186-6.718025-5.00033-10.572276-6.08475-1.59219-.44797-3.363886-.49018-23.878646-.56898l-22.15885414-.0851V31.808135H7.9374989v87.792495l17.2640621.002c19.017073.002 20.378149.0888 24.859692 1.58935 3.056899 1.02358 6.349016 2.73391 9.156294 4.75689l2.199841 1.58526H74.054741l2.461691-1.74561c2.966369-2.10347 5.780895-3.55582 8.942295-4.61439 4.422461-1.48083 5.826581-1.56978 24.806383-1.5715l17.26406-.002V39.741192h7.9375v87.772548l-22.15885.085c-20.514769.0788-22.286464.12101-23.878654.56898-3.854251 1.08442-8.073731 3.51289-10.572277 6.08475l-1.179567 1.21417h-19.88798zm15.090008-58.055013c-.0013-23.759705-.07633-43.815316-.166809-44.568026l-.164509-1.368561 2.614204-1.303957c3.461692-1.72668 5.614839-2.562557 8.74984-3.396792 5.473708-1.456574 5.77496-1.478713 21.844061-1.605331l15.0151-.118313V111.75043l-9.85573-.15156c-15.506713-.23846-21.539224.21985-27.099021 2.05879-3.694446 1.22195-5.316876 2.06139-10.339524 5.34962l-.595313.38974zM53.202384 113.878c-5.547998-1.99394-5.851102-2.02284-22.444572-2.14039l-14.882813-.10543V15.942022h7.937499v79.811836l7.739064.118633c6.289714.09642 8.034577.204228 9.317021.575689 6.875314 1.991443 12.106265 7.04754 14.104259 13.63278.46597 1.53581 1.0255 4.81225.807133 4.72632-.04685-.0185-1.206768-.43661-2.577591-.92928zm10.230345-2.53088c-.282183-2.13573-1.393552-5.53794-2.606811-7.98016-3.580236-7.206797-10.191079-12.540929-18.095711-14.600996-2.105421-.548704-3.496982-.717909-6.813021-.828421l-4.167187-.138877V.00002657l2.447396.18350266C45.552015 1.0348843 54.573822 7.1723168 59.677638 17.517449c2.093819 4.244046 3.291313 8.597961 3.821393 13.894033.334788 3.344893.269155 82.474588-.0663 79.935638z"/></svg>