<svg xmlns="http://www.w3.org/2000/svg" xml:space="preserve" width="128" height="128" viewBox="0 0 33.866663 33.866663"><path d="M 14.536557,3.106532 V 6.9249897 H 9.5258465 c -2.10887,0 -3.81846,1.7095886 -3.81846,3.8184583 v 4.038544 c -0.35809,0.09379 -0.71088,0.205584 -1.05273,0.354173 -0.92681,0.403013 -1.73294,0.953783 -2.418,1.652319 -0.68507,0.685097 -1.22908,1.49112 -1.63212,2.417922 -0.4029,0.926953 -0.60456,1.914525 -0.60456,2.962194 0,1.047821 0.20166,2.035243 0.60456,2.962196 0.40304,0.926802 0.94705,1.739595 1.63212,2.438042 l 0.95461,0.954615 c 0.68507,0.685216 1.4912,1.229155 2.418,1.632197 0.92695,0.403042 1.91429,0.604481 2.96196,0.604481 1.04782,0 2.0352405,-0.201439 2.9622005,-0.604481 0.92695,-0.403042 1.73301,-0.946981 2.41807,-1.632197 0.6986,-0.698448 1.24928,-1.511241 1.65232,-2.438044 0.403049,-0.926952 0.604479,-1.914369 0.604479,-2.962038 0,-1.047821 -0.20143,-2.035398 -0.60448,-2.962351 -0.40304,-0.926801 -0.95372,-1.732854 -1.65232,-2.417921 l -0.95461,-0.954615 c -0.68507,-0.698536 -1.49112,-1.249306 -2.41808,-1.652319 -0.0326,-0.0142 -0.0655,-0.02778 -0.0983,-0.04133 v -3.396773 h 12.885271 v 3.08393 c -0.358251,0.09381 -0.71096,0.205569 -1.05281,0.354173 -0.926961,0.403013 -1.73286,0.953783 -2.41792,1.652319 -0.68522,0.685097 -1.22916,1.49112 -1.6322,2.417922 -0.40305,0.926953 -0.60464,1.914525 -0.60464,2.962194 0,1.047821 0.20159,2.035243 0.60464,2.962196 0.40304,0.926802 0.94698,1.739595 1.6322,2.438042 l 0.95461,0.954615 c 0.68507,0.685216 1.49097,1.229155 2.417919,1.632197 0.926951,0.403042 1.91422,0.604481 2.96204,0.604481 1.04782,0 2.03516,-0.201439 2.96196,-0.604481 0.926951,-0.403042 1.73294,-0.946981 2.41816,-1.632197 0.698441,-0.698448 1.24927,-1.511241 1.65232,-2.438044 0.40289,-0.926952 0.60463,-1.914369 0.60463,-2.962038 0,-1.047821 -0.20174,-2.035398 -0.60463,-2.962351 -0.40305,-0.926801 -0.953879,-1.732854 -1.65232,-2.417921 l -0.954619,-0.954615 c -0.685211,-0.698536 -1.4912,-1.249306 -2.418151,-1.652319 -0.0326,-0.01417 -0.0653,-0.02774 -0.0981,-0.04125 v -3.396853 c 0,-1.298341 -0.64859,-2.444613 -1.6388,-3.1345039 0.430779,0.6182179 0.68418,1.3692561 0.68418,2.1798889 v 4.038545 l 0.95462,0.954614 c 0.358239,0.09381 0.71103,0.20557 1.05273,0.354174 0.71284,0.30992 1.353839,0.707572 1.92368,1.192258 0.4846,0.569771 0.88227,1.210712 1.192179,1.923368 0.40289,0.926953 0.604641,1.914529 0.604641,2.96235 0,1.04767 -0.20175,2.035087 -0.604641,2.96204 -0.40304,0.926802 -0.953869,1.739595 -1.65232,2.438042 -0.68521,0.685216 -1.491199,1.229156 -2.41815,1.632198 -0.9268,0.403042 -1.91414,0.60448 -2.96196,0.60448 -1.04782,0 -2.03509,-0.201438 -2.96204,-0.60448 -0.70116,-0.304866 -1.332979,-0.690426 -1.89571,-1.156678 -0.48554,-0.583725 -0.88564,-1.236545 -1.1998,-1.958949 -0.40304,-0.926952 -0.60463,-1.914369 -0.60463,-2.962038 0,-1.047821 0.20159,-2.035398 0.60463,-2.962351 0.40304,-0.926801 0.94698,-1.732854 1.6322,-2.417921 0.68507,-0.698537 1.490971,-1.249307 2.41792,-1.652319 0.34186,-0.148604 0.69457,-0.260366 1.05281,-0.354174 v -4.038544 l -0.95468,-0.954615 H 9.5258465 v 4.038545 l 0.9546105,0.954614 c 0.35839,0.09381 0.71126,0.20557 1.05297,0.354174 0.7129,0.309948 1.35398,0.707668 1.92383,1.192413 0.48457,0.569737 0.88206,1.210616 1.19195,1.923213 0.40304,0.926953 0.60448,1.914529 0.60448,2.96235 0,1.04767 -0.20144,2.035087 -0.60448,2.96204 -0.40304,0.926802 -0.95372,1.739595 -1.65232,2.438042 -0.68507,0.685216 -1.49112,1.229156 -2.41808,1.632198 -0.9269505,0.403042 -1.9143705,0.60448 -2.9621905,0.60448 -1.04767,0 -2.03501,-0.201438 -2.96196,-0.60448 -0.70099,-0.304842 -1.33282,-0.690398 -1.89556,-1.1566 -0.48554,-0.583752 -0.88577,-1.236581 -1.19995,-1.959027 -0.40289,-0.926952 -0.60456,-1.914369 -0.60456,-2.962038 0,-1.047821 0.20167,-2.035398 0.60456,-2.962351 0.40304,-0.926801 0.94705,-1.732854 1.63212,-2.417921 0.68507,-0.698537 1.4912,-1.249307 2.418,-1.652319 0.34186,-0.148589 0.69464,-0.260381 1.05273,-0.354174 v -4.038544 c 0,-2.1088693 1.70959,-3.8184579 3.8184605,-3.8184579 h 5.01072 V 4.0611464 h 2.86384 v 2.8638433 l 0.954609,0.9546144 h 5.01071 c 0.81053,0 1.56149,0.2532692 2.179661,0.683954 C 25.810087,7.573477 24.663956,6.9249897 23.365726,6.9249897 h -4.0561 V 4.0611464 L 18.355017,3.106532 Z" style="fill:#a0a0a0;fill-opacity:1;stroke:none;stroke-width:1px;stroke-linejoin:round;stroke-opacity:.6"/><path d="M 14.536567,3.106532 V 6.9249902 H 9.5259265 c -2.10888,0 -3.81846,1.709586 -3.81846,3.8184578 v 4.038545 c -0.3582,0.0938 -0.71105,0.205581 -1.05281,0.354174 -0.92691,0.403002 -1.7329,0.953782 -2.418,1.652319 -0.68511,0.685104 -1.22912,1.491094 -1.63212,2.417999 -0.403,0.926905 -0.60448,1.91439 -0.60448,2.962195 0,1.047807 0.20148,2.035134 0.60448,2.962041 0.403,0.926904 0.94701,1.739661 1.63212,2.438197 0.6851,0.685105 1.49109,1.229121 2.418,1.632121 0.9269,0.403003 1.91423,0.60448 2.96204,0.60448 1.0478,0 2.03521,-0.201477 2.9621105,-0.60448 0.92691,-0.403 1.73298,-0.947016 2.41808,-1.632121 0.69854,-0.698536 1.24932,-1.511293 1.65232,-2.438197 0.403,-0.926907 0.60448,-1.914234 0.60448,-2.96204 0,-1.047806 -0.20148,-2.035291 -0.60448,-2.962196 -0.403,-0.926905 -0.95378,-1.732895 -1.65232,-2.417999 -0.6851,-0.698537 -1.49117,-1.249317 -2.41808,-1.652319 -0.34179,-0.148608 -0.6946305,-0.26037 -1.0528805,-0.354174 V 10.743448 H 23.365717 v 4.038545 c -0.35821,0.0938 -0.71102,0.205571 -1.05281,0.354174 -0.9269,0.403002 -1.73289,0.953782 -2.418,1.652319 -0.6851,0.685104 -1.22911,1.491094 -1.63212,2.417999 -0.403,0.926905 -0.60463,1.91439 -0.60463,2.962195 0,1.047807 0.20163,2.035134 0.60463,2.962041 0.40301,0.926904 0.94702,1.739661 1.63212,2.438197 0.68511,0.685105 1.4911,1.229121 2.418,1.632121 0.92691,0.403003 1.91424,0.60448 2.96204,0.60448 1.04781,0 2.03514,-0.201477 2.96204,-0.60448 0.92691,-0.403 1.7329,-0.947016 2.418,-1.632121 0.69854,-0.698536 1.24932,-1.511293 1.65232,-2.438197 0.403,-0.926907 0.60464,-1.914234 0.60464,-2.96204 0,-1.047806 -0.20164,-2.035291 -0.60464,-2.962196 -0.403,-0.926905 -0.95378,-1.732895 -1.65232,-2.417999 -0.6851,-0.698537 -1.49109,-1.249317 -2.418,-1.652319 -0.34178,-0.148603 -0.69459,-0.260371 -1.05281,-0.354174 v -4.038545 c 0,-2.1088718 -1.70958,-3.8184578 -3.81846,-3.8184578 H 18.355026 V 3.106532 Z" style="font-size:101.6px;line-height:1;font-family:Heavitas;-inkscape-font-specification:Heavitas;text-align:center;letter-spacing:0;word-spacing:0;text-orientation:upright;text-anchor:middle;display:inline;fill:#fff;stroke-width:101.6;stroke-linecap:square;stroke-miterlimit:128;paint-order:stroke fill markers"/><path d="m 25.285047,17.723757 a 4.4548678,4.4548678 0 0 0 -4.45486,4.454867 4.4548678,4.4548678 0 0 0 4.45486,4.454868 4.4548678,4.4548678 0 0 0 4.45487,-4.454868 4.4548678,4.4548678 0 0 0 -4.45487,-4.454867 z m 1.5274,2.418387 1.01824,1.01824 -3.0548,3.054798 -2.036471,-2.036558 1.01823,-1.01824 1.01824,1.01824 z" style="fill:#22c322;fill-opacity:1;stroke:none;stroke-width:101.6;stroke-linecap:square;stroke-miterlimit:128;paint-order:stroke fill markers"/><path d="m 7.6267965,17.723748 a 4.4548678,4.4548678 0 0 0 -4.45487,4.454867 4.4548678,4.4548678 0 0 0 4.45487,4.454868 4.4548678,4.4548678 0 0 0 4.4548605,-4.454868 4.4548678,4.4548678 0 0 0 -4.4548605,-4.454867 z m -1.27282,1.909306 1.27282,1.272741 1.27281,-1.272741 1.2728205,1.272741 -1.2728205,1.272898 1.2728205,1.272819 -1.2728205,1.272742 -1.27281,-1.272742 -1.27282,1.272742 -1.27282,-1.272742 1.27282,-1.272819 -1.27282,-1.272898 z" style="fill:#c32222;fill-opacity:1;stroke:none;stroke-width:101.6;stroke-linecap:square;stroke-miterlimit:128;paint-order:stroke fill markers"/></svg>