<svg xmlns="http://www.w3.org/2000/svg" width="1536" height="1536" viewBox="0 0 406.3998 406.40025"><g style="display:inline"><path d="M 67.733,67.733 V 101.6 L 83.17,86.164 267.94,270.934 83.17,455.704 67.733,440.267 v 33.866 H 101.6 l -15.436,-15.435 184.77,-184.77 184.769,184.77 -15.436,15.435 h 33.866 V 440.267 L 458.697,455.703 273.928,270.933 458.698,86.164 474.133,101.6 V 67.733 H 440.267 L 455.703,83.17 270.933,267.94 86.164,83.17 101.6,67.733 H 70.727 Z" style="color:#000;display:inline;fill:#000;fill-rule:evenodd;stroke-linecap:round;stroke-linejoin:round;-inkscape-stroke:none;paint-order:markers fill stroke" transform="translate(-67.7333,-67.733)"/><path d="M 186.76487,67.733371 67.733,186.76525 V 355.10176 L 186.76487,474.13363 H 355.10138 L 474.13325,355.10176 V 186.76525 L 355.10138,67.733371 Z" style="display:inline;fill:#000;fill-opacity:1;stroke:none;stroke-width:17.9211;stroke-linecap:round;stroke-linejoin:round;paint-order:stroke markers fill" transform="translate(-67.7333,-67.733)"/><path d="M 187.64048,69.849526 69.849218,187.64041 v 83.29109 h 67.732342 l 0.002,-55.23439 78.11517,-78.11311 h 55.23439 V 69.849526 Z" style="color:#000;display:inline;fill:#952b40;fill-opacity:1;fill-rule:evenodd;stroke:none;stroke-linecap:square;-inkscape-stroke:none;paint-order:stroke fill markers" transform="translate(-67.7333,-67.733)"/><path d="m 188.51692,71.967228 -56.77797,56.777932 44.90116,44.90065 -2.99516,2.99413 -44.90013,-44.90219 -56.779001,56.78003 v 80.29799 h 63.500041 l 0.001,-53.99467 79.3549,-79.35335 53.99518,-0.001 V 71.967228 Z" style="color:#000;fill:#e04060;fill-rule:evenodd;stroke:none;stroke-linecap:square;-inkscape-stroke:none;paint-order:stroke fill markers" transform="translate(-67.7333,-67.733)"/><path d="m 190.955,71.967228 7.3887,7.388184 -11.22671,11.224645 -8.6062,-8.606716 -0.74827,0.748276 8.60671,8.606715 -11.22464,11.224648 -8.60672,-8.606719 -0.74982,0.749826 8.60671,8.606713 -11.22464,11.22465 -8.60672,-8.60672 -0.74776,0.74776 8.6062,8.60672 -11.22671,11.22464 -8.60516,-8.60568 -0.74931,0.74931 8.60671,8.60671 -10.10171,10.10172 0.74776,0.74776 10.10171,-10.10172 11.22671,11.22465 -10.10275,10.10274 0.74931,0.74931 10.10172,-10.10171 11.22464,11.22464 -10.10171,10.1012 0.74776,0.74828 10.10171,-10.10172 11.22671,11.22465 -10.10275,10.10274 0.37362,0.37311 -2.99516,2.99413 -0.37259,-0.3731 -10.10223,10.10223 -11.22465,-11.22464 10.10172,-10.10275 -0.74879,-0.74879 -10.10327,10.10171 -11.22464,-11.22464 10.10378,-10.10172 -0.74879,-0.74931 -10.10275,10.10275 -11.22671,-11.22619 10.10378,-10.10224 -0.74776,-0.74776 -10.10223,10.10379 -8.60775,-8.60827 -0.74931,0.74879 8.60723,8.60724 -11.22464,11.22464 -8.60723,-8.60723 -0.74776,0.74827 8.60723,8.60724 -11.22671,11.22671 -8.607235,-8.60723 -0.747759,0.74827 8.606714,8.60672 -11.224643,11.22464 -8.606715,-8.60671 -0.748276,0.74775 8.607232,8.60724 -11.226712,11.22619 -7.387667,-7.38767 v 1.49604 l 6.639392,6.63991 -6.639392,6.6399 v 1.49552 l 7.387667,-7.38715 11.226712,11.22413 -11.226712,11.22671 -7.387667,-7.38922 v 1.49655 l 6.639392,6.64095 -6.639392,6.63991 v 1.49758 l 7.389735,-7.38974 11.224644,11.22465 -11.226712,11.22671 -7.387667,-7.38767 v 1.49604 l 6.639392,6.63991 -6.639392,6.63939 v 1.49603 l 7.387667,-7.38767 11.224645,11.22672 -9.854701,9.8547 h 1.497583 l 9.106944,-9.10694 9.106943,9.10694 h 1.49603 l -9.854698,-9.8547 11.226708,-11.22672 11.22465,11.22465 -9.85677,9.85677 h 1.49552 l 9.10901,-9.10901 9.10901,9.10901 h 1.49551 l -9.85625,-9.85677 11.22465,-11.22465 8.21759,8.21811 5.2e-4,-1.49603 -7.47035,-7.47035 7.47035,-7.46983 v -1.49655 l -8.21811,8.21862 -11.22465,-11.22464 11.2262,-11.22672 8.21656,8.21656 v -1.49603 l -7.46829,-7.46828 7.4688,-7.4688 v -0.74931 l 79.3549,-79.35335 h 0.74724 l 7.46983,-7.46983 7.46932,7.46932 h 1.49603 l -8.21707,-8.21708 11.22464,-11.22671 11.22671,11.22671 -8.21862,8.21708 h 1.49552 l 7.47086,-7.46932 7.46932,7.46932 1.49758,-5.2e-4 -8.21862,-8.21862 11.22464,-11.22465 9.8578,9.85832 v -1.49655 l -9.11004,-9.11004 9.11004,-9.1085 v -1.49913 l -9.8578,9.85987 -11.22464,-11.22465 11.22464,-11.22671 9.8578,9.8578 v -1.49758 l -9.10797,-9.107978 9.10797,-9.107977 v -1.498101 l -9.8578,9.857803 -11.22464,-11.226712 7.38611,-7.386117 h -1.49603 l -6.63836,6.638358 -6.63836,-6.638358 h -1.49758 l 7.38818,7.388184 -11.22671,11.224645 -11.22464,-11.224645 7.38663,-7.388184 h -1.49655 l -6.63836,6.638358 -6.63939,-6.638358 h -1.49707 l 7.38664,7.388184 -11.22465,11.224645 -11.22464,-11.226712 7.38611,-7.386117 h -1.49551 l -6.63836,6.638358 -6.63836,-6.638358 z m 71.84217,0 6.01979,6.021341 v -1.499134 l -4.52272,-4.522207 z m -63.70726,8.134392 11.22671,11.226712 -11.22671,11.226198 -11.22464,-11.226198 z m 47.89426,0 11.22672,11.226712 -11.22672,11.226198 -11.22464,-11.226198 z m -23.94532,0.0021 11.22465,11.224645 -11.22465,11.224645 -11.22464,-11.224645 z m -35.92186,11.972403 11.22671,11.224637 -11.22671,11.22672 -11.22464,-11.22672 z m 23.94739,0 11.22465,11.224637 -11.22465,11.22672 -11.22464,-11.22465 z m 23.94739,0 11.22671,11.224637 -11.22671,11.22672 -11.22464,-11.22672 z m -59.86925,11.974467 11.22671,11.22465 -11.22464,11.22464 -11.22671,-11.22464 z m 23.94946,0 11.22464,11.22465 -11.22464,11.22464 -11.22465,-11.22464 z m 23.94687,0 11.22465,11.22465 -11.22465,11.22464 -11.22619,-11.22464 z m 23.94739,0 11.22465,11.22465 -11.22465,11.22464 -11.22464,-11.22464 z m -83.81612,11.97292 11.22464,11.22671 -11.22464,11.22465 -11.22465,-11.22465 z m 47.89426,0 11.22465,11.22671 -11.22465,11.22465 -11.22464,-11.22671 z m -23.94739,0.002 11.22465,11.22464 -11.22465,11.22465 -11.22464,-11.22465 z m -11.9724,11.9724 11.22464,11.22465 -11.22464,11.22671 -11.22671,-11.22671 z m 23.94532,0 11.22671,11.22465 -11.22671,11.22671 -11.22464,-11.22671 z m 69.72705,0.62063 -6.84816,6.84817 h 1.49603 l 5.35213,-5.35213 z m -81.69997,11.35229 11.22671,11.22465 -11.22671,11.22619 -11.22619,-11.22619 z m -59.86873,11.97447 11.22619,11.22465 -11.22464,11.22464 -11.2262,-11.22464 z m -11.97292,11.97292 11.22464,11.2262 -11.22464,11.22464 -11.22671,-11.22464 z m 23.94739,0.002 11.22464,11.22464 -11.22464,11.22465 -11.22465,-11.22465 z m -35.92186,11.97292 11.22671,11.22464 -11.22671,11.22671 -11.224648,-11.22671 z m 23.94894,0 11.22464,11.22464 -11.22619,11.22671 -11.22465,-11.22464 z m 23.94532,0 11.22671,11.22464 -11.22671,11.22671 -11.22464,-11.22671 z m -59.867183,11.97188 11.224643,11.22672 -11.224643,11.22464 -11.226195,-11.22464 z m 47.894783,0 11.22464,11.22672 -11.22464,11.22464 -11.22671,-11.22464 z m -23.94739,0.002 11.22464,11.22465 -11.22464,11.22464 -11.22465,-11.22464 z m -11.97241,11.97292 11.22465,11.22413 -11.22671,11.22671 -11.224648,-11.22464 z m 23.94533,0 11.22619,11.22413 -11.22464,11.22464 -11.2262,-11.22464 z m -11.97292,11.9724 11.22464,11.22672 -11.22464,11.22464 -11.22671,-11.22464 z m -23.947393,0.002 11.224643,11.22465 -11.224643,11.22464 -11.224645,-11.22464 z m 11.972923,11.9724 11.22671,11.22465 -11.22671,11.22671 -11.224648,-11.22671 z m -11.972923,11.97292 11.224643,11.2262 -11.224643,11.22464 -11.226195,-11.22464 z m 23.947393,0.002 11.22464,11.22464 -11.22464,11.22413 -11.22465,-11.22413 z m 20.19051,26.20823 -6.8461,6.8461 h 1.49603 l 5.35007,-5.35007 z m -63.500041,0.82682 v 1.49604 l 4.522208,4.52324 h 1.495516 z" style="color:#000;display:inline;fill:#c73955;fill-opacity:1;fill-rule:evenodd;stroke:none;stroke-linecap:square;-inkscape-stroke:none;paint-order:stroke fill markers" transform="translate(-67.7333,-67.733)"/><path d="M 69.849326,354.22596 187.64021,472.01722 h 83.29109 v -67.73234 l -55.23439,-0.002 -78.11311,-78.11517 V 270.93332 H 69.849326 Z" style="color:#000;display:inline;fill:#aa552b;fill-opacity:1;fill-rule:evenodd;stroke:none;stroke-linecap:square;-inkscape-stroke:none;paint-order:stroke fill markers" transform="translate(-67.7333,-67.733)"/><path d="M 135.46586,273.05017 H 71.965819 v 80.29799 l 56.780031,56.77796 44.90013,-44.90013 2.99413,2.99414 -44.90116,44.90064 56.779,56.779 h 80.29799 v -63.49952 h -53.99415 l -79.3549,-79.35541 z" style="color:#000;fill:#ff8040;fill-rule:evenodd;stroke:none;stroke-width:8.46667;stroke-linecap:round;stroke-linejoin:round;stroke-dasharray:none;stroke-opacity:1;-inkscape-stroke:none;paint-order:markers fill stroke" transform="translate(-67.7333,-67.733)"/><path d="m 76.488533,273.05017 -4.522724,4.52324 v 1.49758 l 6.021342,-6.02082 z m 4.235403,0 9.856252,9.85625 -11.226712,11.2262 -7.387667,-7.38767 v 1.49603 l 6.639392,6.63991 -6.639392,6.63991 v 1.49552 l 7.387667,-7.38715 11.226712,11.22619 -11.224644,11.22465 -7.389735,-7.38974 v 1.49603 l 6.641459,6.64198 -6.641459,6.64146 v 1.49603 l 7.389735,-7.38973 11.224644,11.22464 -11.226712,11.22672 -7.387667,-7.38767 v 1.49603 l 6.639392,6.63939 -6.639392,6.63991 v 1.49604 l 7.387667,-7.38767 11.226712,11.22671 -8.606198,8.6062 0.747758,0.74776 8.606199,-8.6062 11.224643,11.22464 -8.60568,8.60569 0.748275,0.74827 8.605685,-8.60568 11.22671,11.22619 -8.60568,8.60569 0.74776,0.74827 8.60568,-8.60568 11.22464,11.22464 -8.60516,8.60517 0.74879,0.74931 8.6062,-8.6062 10.1012,10.10275 0.74775,-0.74776 -10.10068,-10.10275 11.22465,-11.22464 10.10275,10.10068 0.74775,-0.74776 -10.10274,-10.10068 11.22464,-11.22465 10.10275,10.10068 0.74827,-0.74827 -10.10068,-10.10275 11.22465,-11.22464 10.10223,10.10119 0.37362,-0.37362 2.99413,2.99414 -0.37362,0.3731 10.10275,10.10275 -11.22671,11.2262 -10.10223,-10.10224 -0.74828,0.74776 10.10275,10.10275 -11.22464,11.22465 -10.10275,-10.10275 -0.74828,0.74827 10.10275,10.10275 -11.22671,11.2262 -10.10223,-10.10224 -0.74776,0.74776 10.10223,10.10223 -8.6062,8.60569 0.74931,0.7493 8.60465,-8.60516 11.22671,11.22464 -8.6062,8.60569 0.74828,0.74827 8.6062,-8.60568 11.22464,11.22413 -8.6062,8.6062 0.7488,0.74879 8.60723,-8.60672 11.22464,11.22672 -8.60568,8.60619 0.74724,0.74725 8.6062,-8.60569 11.22465,11.22465 -7.38819,7.38818 h 1.4981 l 6.63836,-6.63784 6.63888,6.63784 h 1.49758 l -7.38663,-7.38767 11.22464,-11.22464 11.22671,11.22464 -7.38818,7.38767 h 1.49655 l 6.63939,-6.63991 6.63888,6.63991 h 1.49603 l -7.38663,-7.38767 11.22464,-11.22464 11.22671,11.22464 -7.38818,7.38767 h 1.4981 l 6.63784,-6.63784 6.63784,6.63784 h 1.49655 l -7.38611,-7.38611 11.22619,-11.2262 9.85522,9.85522 v -1.49655 l -9.10694,-9.10694 9.10694,-9.10695 v -1.4981 l -9.85677,9.85677 -11.22464,-11.2262 11.22464,-11.22464 9.85677,9.85832 v -1.49862 l -9.10901,-9.10746 9.10901,-9.10901 v -1.49603 l -9.85677,9.85728 -11.22464,-11.22671 8.21759,-8.21759 h -1.4981 l -7.46984,7.46932 -7.46931,-7.46932 h -1.49604 l 8.2176,8.21759 -11.22465,11.22465 -11.22464,-11.22465 8.21759,-8.21759 h -1.49655 l -7.46932,7.46932 -7.47035,-7.46932 h -0.74672 l -79.3549,-79.35541 v -0.74776 l -7.4688,-7.4688 7.46829,-7.46828 v -1.49655 l -8.21656,8.21656 -11.2262,-11.22672 11.22465,-11.22412 8.21811,8.2181 v -1.49603 l -7.47035,-7.47035 7.47035,-7.47035 -5.2e-4,-1.49552 -8.21759,8.2176 -11.22465,-11.22465 9.8578,-9.8578 h -1.49603 l -9.11004,9.11004 -9.11005,-9.11004 h -1.49603 l 9.85832,9.8578 -11.22465,11.22465 -11.226708,-11.2262 9.856248,-9.85625 h -1.49655 l -9.107973,9.10797 -9.107977,-9.10797 z m 47.894264,0 6.84765,6.84765 v -1.49655 l -5.3511,-5.3511 z M 91.327947,283.65418 102.55466,294.88089 91.327947,306.1076 80.101752,294.88089 Z m 23.947393,0.002 11.22464,11.22464 -11.22464,11.22464 -11.22465,-11.22464 z m -11.97241,11.97292 11.22465,11.22412 -11.22671,11.22672 -11.224648,-11.22465 z m 11.97241,11.9724 11.22671,11.22671 -11.22671,11.2262 -11.22671,-11.2262 z m -23.947393,0.002 11.224643,11.22464 -11.224643,11.22465 -11.224645,-11.22465 z m 11.972923,11.9724 11.22671,11.22671 -11.22465,11.22465 -11.226708,-11.22672 z m 23.94894,0 11.22464,11.22464 -11.22619,11.22672 -11.22465,-11.22465 z m -35.921863,11.97292 11.226713,11.22619 -11.226713,11.22672 -11.226195,-11.22672 z m 47.894783,0 11.22671,11.22619 -11.22671,11.22672 -11.22671,-11.22672 z m -23.94739,0.002 11.22464,11.22412 -11.22464,11.22465 -11.22465,-11.22465 z m -11.97241,11.9724 11.22465,11.22464 -11.22671,11.22672 -11.224648,-11.22465 z m 23.94533,0 11.22619,11.22671 -11.22464,11.22465 -11.2262,-11.22672 z m 23.94894,0 11.22464,11.22464 -11.22671,11.22672 -11.22464,-11.22465 z m -35.92186,11.97292 11.22671,11.22619 -11.22671,11.22672 -11.22671,-11.22672 z m 23.94739,0.002 11.22464,11.22464 -11.22464,11.22465 -11.22465,-11.22465 z m -11.97292,11.97292 11.22464,11.22464 -11.22619,11.2262 -11.22465,-11.22465 z m 59.86718,11.97447 11.22671,11.22464 -11.22671,11.22672 -11.22464,-11.22672 z m -11.9724,11.97292 11.22464,11.22619 -11.22464,11.22465 -11.22671,-11.22465 z m 23.94739,0 11.22464,11.22464 -11.22671,11.2262 -11.22464,-11.22465 z m -35.92186,11.97447 11.22619,11.22464 -11.22619,11.22672 -11.22465,-11.22672 z m 23.94687,0 11.22465,11.22464 -11.22465,11.22465 -11.22464,-11.22465 z m 23.94739,0 11.22671,11.22464 -11.22671,11.22672 -11.22464,-11.22672 z m 50.90235,3.00757 6.8492,6.84817 v -1.49604 l -5.35316,-5.35213 z m -86.82214,8.96483 11.22464,11.22465 -11.22671,11.22671 -11.22464,-11.22465 z m 47.89426,0 11.22465,11.22465 -11.2262,11.22671 -11.22464,-11.22465 z m -23.94894,0.002 11.22671,11.22464 -11.22464,11.22465 -11.22671,-11.22465 z m 47.89426,0 11.22672,11.22464 -11.22465,11.22465 -11.22671,-11.22465 z m -59.86718,11.97292 11.22671,11.22464 -11.22671,11.2262 -11.22464,-11.2262 z m 23.94739,0 11.22465,11.22464 -11.22465,11.22465 -11.22464,-11.22465 z m 23.94739,0 11.22671,11.22464 -11.22671,11.2262 -11.22464,-11.2262 z m -35.91979,11.9724 11.22464,11.22465 -11.22671,11.22671 -11.22464,-11.22464 z m 23.94687,0 11.22465,11.22672 -11.22465,11.22464 -11.22619,-11.22464 z m 23.94739,0 11.22465,11.22672 -11.22465,11.22464 -11.22671,-11.22464 z m 21.82969,24.56906 -6.01824,6.01824 h 1.49603 l 4.52221,-4.52221 z" style="color:#000;display:inline;fill:#e37239;fill-opacity:1;fill-rule:evenodd;stroke:none;stroke-linecap:square;-inkscape-stroke:none;paint-order:stroke fill markers" transform="translate(-67.7333,-67.733)"/><path d="M 187.64048,69.849526 69.849218,187.64041 v 83.29109 h 67.732342 l 0.002,-55.23439 78.11517,-78.11311 h 55.23439 V 69.849526 Z" style="color:#000;display:inline;fill:#aa952b;fill-opacity:1;fill-rule:evenodd;stroke:none;stroke-linecap:square;-inkscape-stroke:none;paint-order:stroke fill markers" transform="translate(-67.7333,-67.733) rotate(180,270.93312,270.93332)"/><path d="m 406.39988,273.0512 v 53.99364 l -38.18013,38.18115 44.90117,44.90117 56.77899,-56.78004 V 273.0512 Z m -41.17374,95.16893 -38.18013,38.18012 h -53.99622 v 63.49952 h 80.29799 l 56.77797,-56.779 z" style="color:#000;fill:#ffe040;fill-rule:evenodd;stroke:none;stroke-width:8.46667;stroke-linecap:round;stroke-linejoin:round;stroke-dasharray:none;stroke-opacity:1;-inkscape-stroke:none;paint-order:markers fill stroke" transform="translate(-67.7333,-67.733)"/><path d="m 411.75148,273.0512 -5.35162,5.35162 v 1.49655 l 6.84765,-6.84817 z m 4.23489,0 9.85728,9.85522 -11.22671,11.2262 -8.21708,-8.21863 v 1.49758 l 7.46932,7.46932 -7.46932,7.46932 v 1.49758 l 8.21708,-8.21862 11.22671,11.22619 -11.22671,11.22465 -8.21708,-8.2176 v 1.49655 l 7.46932,7.46932 -7.46932,7.46932 v 0.74724 l -38.18012,38.18115 0.37362,0.37362 10.10172,-10.10119 11.22671,11.22464 -10.10223,10.10275 0.74879,0.74879 10.10172,-10.10326 11.22464,11.22619 -10.10171,10.10172 0.74827,0.74827 10.1012,-10.10171 11.22671,11.22464 -10.10275,10.10223 0.74879,0.7488 10.10172,-10.10327 8.60671,8.6062 0.74776,-0.74828 -8.6062,-8.6062 11.22672,-11.22464 8.60516,8.60516 0.74828,-0.74775 -8.60568,-8.60569 11.22464,-11.22619 8.6062,8.6062 0.74827,-0.74828 -8.6062,-8.6062 11.2262,-11.22464 8.60516,8.60516 0.74828,-0.74775 -8.60516,-8.60517 11.22464,-11.22671 7.38818,7.38818 v -1.49603 l -6.6399,-6.64043 6.6399,-6.63887 v -1.49707 l -7.38818,7.38819 -11.22464,-11.22672 11.22464,-11.22464 7.38818,7.38663 v -1.49345 l -6.6399,-6.64094 6.6399,-6.64146 v -1.49345 l -7.38818,7.38664 -11.22464,-11.22465 11.22464,-11.22619 7.38818,7.38766 v -1.49706 l -6.6399,-6.63888 6.6399,-6.63888 v -1.49706 l -7.38818,7.38767 -11.22464,-11.2262 9.85521,-9.85522 h -1.49655 l -9.10694,9.10694 -9.10798,-9.10694 h -1.49706 l 9.85521,9.85522 -11.22464,11.2262 -11.22464,-11.22465 9.85521,-9.85677 h -1.49603 l -9.10901,9.10901 -9.10746,-9.10901 z m 47.89478,0 6.01875,6.01721 v -1.49603 l -4.52169,-4.52118 z m -37.28922,10.60505 11.22464,11.22464 -11.22464,11.22464 -11.22672,-11.22464 z m 23.94687,0 11.22464,11.22464 -11.22464,11.22464 -11.2262,-11.22464 z m -11.97447,11.97292 11.22464,11.22619 -11.22464,11.22465 -11.22464,-11.22672 z m -11.97447,11.9724 11.22671,11.22671 -11.22671,11.2262 -11.22465,-11.2262 z m 23.94894,0.002 11.22464,11.22464 -11.22464,11.22465 -11.2262,-11.22465 z m -35.92186,11.9724 11.22671,11.22464 -11.22671,11.22672 -11.22413,-11.22672 z m 23.94739,0 11.22464,11.22464 -11.22464,11.22672 -11.22464,-11.22465 z m -35.92186,11.97499 11.22671,11.22464 -11.22464,11.22413 -11.22672,-11.22465 z m 23.94946,0 11.22464,11.22464 -11.22464,11.22413 -11.22672,-11.22465 z m 23.94687,0 11.22464,11.22464 -11.22464,11.22413 -11.2262,-11.22465 z m -59.86873,11.9724 11.22464,11.22671 -11.22464,11.22465 -11.22465,-11.22465 z m 23.94687,0 11.22464,11.22671 -11.22464,11.22465 -11.22413,-11.22465 z m 23.94739,0 11.22464,11.22671 -11.22464,11.22465 -11.22464,-11.22672 z m -35.91979,11.97499 11.22464,11.22464 -11.22464,11.22671 -11.22672,-11.22671 z m 23.94532,0 11.22671,11.22464 -11.22671,11.22671 -11.22465,-11.22671 z m -11.97292,11.97292 11.22671,11.22464 -11.22671,11.2262 -11.2262,-11.2262 z m -49.39081,0.74879 -38.18013,38.18012 h -0.74879 l -7.46931,7.46932 -7.4688,-7.46932 h -1.4981 l 8.21914,8.21759 -11.22671,11.22671 -11.22465,-11.22671 8.21759,-8.21759 h -1.49603 l -7.46932,7.46932 -7.47086,-7.46932 h -1.49655 l 8.21914,8.21759 -11.22672,11.22671 -9.85625,-9.85832 v 1.49604 l 9.1085,9.11004 -9.1085,9.1085 v 1.49551 l 9.85625,-9.85625 11.22672,11.22464 -11.22672,11.2262 -9.85625,-9.8578 v 1.49758 l 9.1085,9.1085 -9.1085,9.10849 v 1.49603 l 9.85625,-9.85625 11.22672,11.22464 -7.38819,7.38767 h 1.49759 l 6.63887,-6.63784 6.63784,6.63784 h 1.49655 l -7.38663,-7.38767 11.22465,-11.22464 11.22671,11.22464 -7.38819,7.38767 h 1.49655 l 6.6394,-6.63991 6.63887,6.63991 h 1.49603 l -7.38663,-7.38767 11.22465,-11.22464 11.22671,11.22464 -7.38819,7.38767 h 1.49604 l 6.63991,-6.63991 6.64042,6.63991 h 1.49552 l -7.38767,-7.38818 11.22465,-11.22465 8.60568,8.6062 0.74931,-0.74879 -8.60517,-8.60516 11.22465,-11.22672 8.60619,8.6062 0.74776,-0.74827 -8.6062,-8.6062 11.22465,-11.22413 8.6062,8.60568 0.74879,-0.74931 -8.60465,-8.60465 11.22465,-11.22671 8.60568,8.6062 0.74827,-0.74827 -8.6062,-8.60569 10.10224,-10.10223 -0.74776,-0.74776 -10.10223,10.10224 -11.22465,-11.22465 10.10172,-10.10326 -0.74828,-0.74828 -10.10378,10.10172 -11.22465,-11.22465 10.10275,-10.10275 -0.74776,-0.74827 -10.10274,10.10275 -11.22672,-11.2262 10.10379,-10.10223 z m -10.47792,11.22568 11.22619,11.22464 -11.22464,11.22465 -11.2262,-11.22465 z m -11.97292,11.97292 11.22464,11.22619 -11.22464,11.22465 -11.22672,-11.22465 z m 23.94739,0 11.22464,11.22619 -11.22464,11.22465 -11.22465,-11.22465 z m -35.92186,11.97447 11.22671,11.22464 -11.22671,11.22671 -11.22465,-11.22671 z m 23.94739,0 11.22619,11.22464 -11.22619,11.22671 -11.22465,-11.22671 z m 23.94687,0 11.22671,11.22464 -11.22671,11.22671 -11.22465,-11.22671 z m -100.29213,3.00705 -5.35317,5.35316 v 1.49604 l 6.8492,-6.8492 z m 16.47807,8.96535 11.22465,11.22671 -11.22465,11.22465 -11.22671,-11.22465 z m 23.94688,0 11.22464,11.22671 -11.22464,11.22465 -11.2262,-11.22465 z m 23.94739,0 11.22464,11.22671 -11.22464,11.22465 -11.22465,-11.22465 z m 23.94739,0 11.22464,11.22671 -11.22464,11.22465 -11.22672,-11.22465 z m -59.86925,11.97447 11.22671,11.22464 -11.22671,11.2262 -11.22465,-11.2262 z m 23.94739,0 11.22671,11.22464 -11.22671,11.2262 -11.22465,-11.2262 z m 23.94739,0 11.22619,11.22464 -11.22464,11.22465 -11.2262,-11.22465 z m -59.86719,11.9724 11.22465,11.22672 -11.22465,11.22464 -11.22671,-11.22464 z m 23.94688,0 11.22464,11.22672 -11.22464,11.22464 -11.2262,-11.22464 z m 23.94739,0 11.22464,11.22672 -11.22464,11.22464 -11.22672,-11.22464 z m -69.72551,24.56803 v 1.49603 l 4.52273,4.52324 h 1.49551 z" style="color:#000;display:inline;fill:#e3c739;fill-opacity:1;fill-rule:evenodd;stroke:none;stroke-linecap:square;-inkscape-stroke:none;paint-order:stroke fill markers" transform="translate(-67.7333,-67.733)"/><path d="M 472.01691,187.64068 354.22603,69.849418 h -83.29109 v 67.732342 l 55.23439,0.002 78.11311,78.11517 v 55.23439 h 67.73447 z" style="color:#000;display:inline;fill:#554080;fill-opacity:1;fill-rule:evenodd;stroke:none;stroke-linecap:square;-inkscape-stroke:none;paint-order:stroke fill markers" transform="translate(-67.7333,-67.733)"/><path d="m 273.05083,71.967228 v 63.499522 h 53.99518 l 38.18013,38.18012 44.90064,-44.90064 -56.78003,-56.778972 z m 140.07009,59.773652 -44.90065,44.89961 38.17961,38.1796 v 53.99674 h 63.50003 l 0.001,-80.29902 z" style="color:#000;fill:#8060c0;fill-rule:evenodd;stroke:none;stroke-width:8.46667;stroke-linecap:round;stroke-linejoin:round;stroke-dasharray:none;stroke-opacity:1;-inkscape-stroke:none;paint-order:markers fill stroke" transform="translate(-67.7333,-67.733)"/><path d="m 277.57199,71.967228 -4.52117,4.521174 v 1.495516 l 6.01669,-6.01669 z m 9.17257,0 7.38819,7.388184 -11.22672,11.224645 -9.85521,-9.857286 v 1.498101 l 9.10746,9.10746 -9.10746,9.107458 v 1.49759 l 9.85521,-9.85729 11.22672,11.22671 -11.22672,11.22465 -9.85521,-9.85522 v 1.49552 l 9.10746,9.10746 -9.10746,9.10901 v 1.49655 l 9.85521,-9.85729 11.22672,11.22671 -8.21811,8.21656 h 1.49603 l 7.47035,-7.4688 7.4688,7.4688 h 1.49552 l -8.21656,-8.21656 11.22465,-11.22671 11.22671,11.22671 -8.21811,8.21656 h 1.49758 l 7.46829,-7.4688 7.46879,7.4688 h 0.74931 l 38.18013,38.18012 0.37413,-0.37465 -10.10223,-10.10223 11.22465,-11.22465 10.10274,10.10275 0.74776,-0.74828 -10.10275,-10.10223 11.22465,-11.22464 10.10326,10.10171 0.74983,-0.74931 -10.10275,-10.10274 11.22465,-11.22465 10.10223,10.10223 0.74827,-0.74724 -10.10275,-10.10275 8.6062,-8.6062 -0.74827,-0.74827 -8.60568,8.6062 -11.22465,-11.22671 8.60517,-8.60517 -0.74931,-0.74879 -8.6062,8.6062 -11.22465,-11.22465 8.6062,-8.606196 -0.74879,-0.748792 -8.60516,8.605168 -11.22465,-11.224648 8.60517,-8.605165 -0.74931,-0.749309 -8.60568,8.606199 -11.22465,-11.224645 7.38818,-7.388184 h -1.4981 l -6.63835,6.638358 -6.6394,-6.638358 h -1.49603 l 7.38767,7.386117 -11.22671,11.226712 -11.22465,-11.226712 7.38612,-7.386117 h -1.49604 l -6.63835,6.638358 -6.63785,-6.638358 h -1.4981 l 7.38819,7.388184 -11.22671,11.224645 -11.22465,-11.224645 7.38663,-7.388184 h -1.49603 l -6.63836,6.638358 -6.63939,-6.638358 z m 8.13646,8.136459 11.22465,11.224645 -11.22465,11.224648 -11.22464,-11.224648 z m 23.94688,0 11.22464,11.224645 -11.22464,11.224648 -11.2262,-11.224648 z m 23.94739,0 11.22464,11.224645 -11.22464,11.224648 -11.22465,-11.224648 z m -35.92186,11.972403 11.22464,11.22464 -11.22464,11.22672 -11.22465,-11.22672 z m 23.94739,0 11.22671,11.22671 -11.22671,11.22465 -11.22465,-11.22465 z m 23.94894,0 11.22464,11.22464 -11.22619,11.22672 -11.22465,-11.22465 z m -59.86874,11.97447 11.22465,11.22465 -11.22465,11.22464 -11.22671,-11.22464 z m 23.94688,0 11.22464,11.22465 -11.22464,11.22464 -11.22413,-11.22464 z m 23.94739,0 11.22464,11.22465 -11.22464,11.22464 -11.22465,-11.22464 z m 23.94739,0 11.22464,11.22465 -11.22464,11.22464 -11.22465,-11.22464 z m -35.92186,11.97292 11.22671,11.22671 -11.22671,11.22465 -11.22465,-11.22465 z m 23.94739,0 11.22619,11.22671 -11.22619,11.22465 -11.22465,-11.22465 z m 23.94894,0 11.22464,11.22671 -11.22464,11.22465 -11.22672,-11.22465 z m -35.92186,11.97447 11.22464,11.22465 -11.22464,11.22464 -11.22465,-11.22464 z m 23.94739,0 11.22464,11.22465 -11.22464,11.22671 -11.22465,-11.22671 z m -93.67186,0.62167 v 1.49552 l 5.35161,5.35161 h 1.49552 z m 81.69894,11.35332 11.22464,11.22464 -11.22464,11.22413 -11.2262,-11.22413 z m 49.76598,0.3731 -0.74827,0.74776 10.10171,10.10327 -11.22464,11.22464 -10.10327,-10.10171 -0.74827,0.74827 10.10171,10.10172 -11.22464,11.22671 -10.10172,-10.10378 -0.74931,0.7493 10.10275,10.10224 -11.22464,11.22464 -10.10379,-10.10171 -0.3731,0.3731 38.1796,38.1796 v 0.74828 l 7.46932,7.47087 -7.46932,7.46931 v 1.49604 l 8.21708,-8.2176 11.22464,11.22465 -11.22464,11.22671 -8.21708,-8.21914 v 1.4981 l 7.46932,7.46932 -7.46932,7.46776 v 1.49759 l 8.21708,-8.2176 11.22671,11.22672 -9.8578,9.85573 h 1.49552 l 9.10849,-9.11004 9.11004,9.11004 h 1.49552 l -9.85573,-9.8578 11.22464,-11.22465 11.22464,11.22672 -9.85573,9.85573 h 1.49655 l 9.10901,-9.10797 9.10798,9.10797 h 1.49603 l -9.85573,-9.8578 11.22464,-11.22465 7.38818,7.38819 v -1.49707 l -6.6399,-6.63887 6.64042,-6.6394 v -1.49758 l -7.3887,7.3887 -11.22464,-11.22671 11.22464,-11.22465 7.3887,7.38716 v -1.49552 l -6.64042,-6.63939 6.64042,-6.64095 v -1.49603 l -7.3887,7.3887 -11.22464,-11.22671 11.22464,-11.22413 7.38922,7.38715 v -1.49552 l -6.64094,-6.6399 6.64094,-6.64146 v -1.49552 l -7.38922,7.3887 -11.22464,-11.22619 8.60619,-8.60672 -0.74827,-0.74827 -8.6062,8.60671 -11.2262,-11.22464 8.60672,-8.60672 -0.74776,-0.74827 -8.60723,8.60723 -11.22464,-11.22671 8.60568,-8.60569 -0.74776,-0.74827 -8.60568,8.60568 -11.22672,-11.22464 8.6062,-8.6062 -0.74776,-0.74828 -8.60671,8.60672 z m 10.1012,11.5993 11.22671,11.22465 -11.22671,11.22671 -11.22413,-11.22671 z m -11.9724,11.97292 11.22464,11.2262 -11.22464,11.22464 -11.22672,-11.22464 z m 23.94739,0 11.22464,11.2262 -11.22464,11.22464 -11.22672,-11.22464 z m -35.92186,11.97499 11.22464,11.22464 -11.22464,11.22671 -11.22465,-11.22671 z m 23.94687,0 11.22464,11.22464 -11.22464,11.22671 -11.22413,-11.22671 z m 23.94739,0 11.22671,11.22464 -11.22671,11.22671 -11.22464,-11.22671 z m 11.97447,11.97188 11.22464,11.22672 -11.22464,11.22464 -11.2262,-11.22464 z m -47.89426,0.002 11.22464,11.22465 -11.22464,11.22464 -11.22672,-11.22464 z m 23.94532,0 11.22671,11.22465 -11.22464,11.22464 -11.22672,-11.22464 z m -11.97292,11.97292 11.22671,11.2262 -11.22671,11.22464 -11.22413,-11.22671 z m 23.94739,0 11.22464,11.22413 -11.22464,11.22671 -11.22464,-11.22671 z m -11.97447,11.9724 11.22671,11.22672 -11.22464,11.22464 -11.22672,-11.22464 z m 23.94894,0 11.22464,11.22672 -11.22464,11.22464 -11.2262,-11.22464 z m -11.97447,11.97447 11.22464,11.22465 -11.22464,11.22671 -11.22464,-11.22671 z m -11.97447,11.97499 11.22671,11.22465 -11.22464,11.22412 -11.22672,-11.22412 z m 23.94894,0 11.22464,11.22465 -11.22464,11.22412 -11.2262,-11.22412 z m -44.13894,26.20772 v 1.49293 l 5.35317,5.3542 h 1.495 z m 63.50004,0.82889 -6.01927,6.01824 h 1.49552 l 4.52375,-4.52479 z" style="color:#000;display:inline;fill:#7255ab;fill-opacity:1;fill-rule:evenodd;stroke:none;stroke-linecap:square;-inkscape-stroke:none;paint-order:stroke fill markers" transform="translate(-67.7333,-67.733)"/><path d="m 215.69925,137.58187 -78.11724,78.11362 v 55.23594 h 67.73441 v -27.17768 l 38.43747,-38.43747 h 27.17768 v -67.73235 z" style="color:#000;fill:#955555;fill-opacity:1;fill-rule:evenodd;stroke:none;stroke-linecap:square;-inkscape-stroke:none;paint-order:stroke fill markers" transform="translate(-67.7333,-67.733)"/><path d="m 216.5762,139.69905 -36.94195,36.93989 44.90064,44.9022 -2.99413,2.99361 -44.90168,-44.90168 -36.94092,36.93989 0.001,52.24284 h 63.50004 l 5.2e-4,-25.939 39.67719,-39.67668 h 25.939 v -63.50003 z" style="color:#000;fill:#e08080;fill-rule:evenodd;stroke:none;stroke-linecap:square;-inkscape-stroke:none;paint-order:stroke fill markers" transform="translate(-67.7333,-67.733)"/><path d="m 233.78652,139.69957 -10.74767,10.74767 -8.60568,-8.60568 -0.74983,0.75034 8.60569,8.60568 -11.22465,11.22413 -8.6062,-8.60568 -0.74776,0.74776 8.6062,8.6062 -11.22671,11.22464 -8.60516,-8.60516 -0.74931,0.7493 8.6062,8.6062 -10.10069,10.10068 0.74828,0.74828 10.10068,-10.10068 11.22671,11.22671 -10.1012,10.1012 0.74776,0.74724 10.1012,-10.1012 11.22465,11.22465 -10.10172,10.10171 0.74828,0.74776 10.10171,-10.1012 11.2262,11.2262 -10.10172,10.10171 0.3731,0.37311 -2.99413,2.99361 -0.37259,-0.37258 -10.10378,10.10171 -11.22464,-11.22464 10.10171,-10.10379 -0.74827,-0.74827 -10.10327,10.10171 -11.22464,-11.22464 10.10378,-10.1012 -0.74828,-0.74827 -10.10378,10.10171 -11.22464,-11.22464 10.10171,-10.10379 -0.74724,-0.74724 -10.10223,10.10378 -8.60878,-8.60878 -0.74828,0.74879 8.60723,8.60724 -11.22464,11.22464 -8.60775,-8.60775 -0.74828,0.74828 8.60775,8.60723 -11.22671,11.22671 -8.60723,-8.60723 -0.74828,0.74776 8.60775,8.60775 -10.7487,10.7487 v 2.44791 l 10.75077,10.75026 -10.75026,10.75025 v 2.44895 l 8.63049,8.63049 h 1.49552 l -9.8547,-9.8547 11.22671,-11.22672 11.22464,11.22465 -9.85677,9.85677 h 1.49604 l 9.10901,-9.10901 9.10849,9.10901 h 1.49603 l -9.85676,-9.85677 11.22464,-11.22465 11.22671,11.22672 -9.8547,9.8547 h 1.49552 l 9.10694,-9.10694 9.10694,9.10694 h 1.49604 l -9.8547,-9.8547 11.22671,-11.22672 4.10776,4.10777 v -1.49604 l -3.36,-3.35948 3.36,-3.36001 v -0.74982 l 39.67719,-39.67668 h 0.74982 l 3.35949,-3.36 3.36001,3.36 h 1.49655 l -4.10828,-4.10827 11.22464,-11.22465 9.85677,9.85677 v -1.49913 l -9.10694,-9.10695 9.10694,-9.10694 v -1.49707 l -9.85522,9.85522 -11.22619,-11.22619 11.22464,-11.22465 9.85677,9.85677 V 172.279 l -9.10901,-9.10901 9.10901,-9.10746 v -1.49914 l -9.85677,9.85832 -11.22464,-11.22464 11.22464,-11.2262 9.85677,9.85677 v -1.4981 l -8.62945,-8.62945 h -2.45257 l -10.74767,10.74922 -10.74974,-10.74974 z m 1.22525,0.2713 11.22671,11.2262 -11.22464,11.22464 -11.22671,-11.22619 z m -11.97447,11.97447 11.2262,11.22671 -11.22465,11.22465 -11.22619,-11.22671 z m 23.94894,0 11.22465,11.22465 -11.22465,11.22464 -11.22464,-11.22464 z m -35.92186,11.97292 11.22671,11.2262 -11.22671,11.22464 -11.22464,-11.22464 z m 23.94739,0.002 11.22465,11.22464 -11.22465,11.22465 -11.22464,-11.22465 z m -11.97292,11.97292 11.22465,11.22464 -11.22465,11.22671 -11.22619,-11.22671 z m 23.94532,0 11.22672,11.22671 -11.22465,11.22464 -11.22671,-11.22671 z m -11.9724,11.97188 11.22671,11.22672 -11.22671,11.22464 -11.22464,-11.22464 z m -59.86925,11.97499 11.22671,11.2262 -11.22464,11.22464 -11.22671,-11.22671 z m 93.67341,0.6196 -2.7404,2.7404 h 1.49758 l 1.24282,-1.24281 z m -105.64581,11.3528 11.22619,11.22672 -11.22619,11.22619 -11.22671,-11.22619 z m 23.94687,0.002 11.22465,11.22465 -11.22465,11.22464 -11.22464,-11.22464 z m -35.92186,11.9724 11.22671,11.22672 -11.22464,11.22464 -11.22671,-11.22671 z m 23.94946,0 11.22464,11.22465 -11.22671,11.22671 -11.22464,-11.22464 z m 23.94532,0 11.22671,11.22672 -11.22464,11.22464 -11.22671,-11.22671 z m -11.97292,11.97292 11.22671,11.2262 -11.22671,11.22671 -11.22619,-11.22671 z m -23.94687,0.002 11.22464,11.22465 -11.22464,11.22412 -11.22465,-11.22412 z m 40.0291,30.31445 -2.73937,2.73937 h 1.49552 l 1.24385,-1.24385 z" style="color:#000;display:inline;fill:#c77272;fill-opacity:1;fill-rule:evenodd;stroke:none;stroke-linecap:square;-inkscape-stroke:none;paint-order:stroke fill markers" transform="translate(-67.7333,-67.733)"/><path d="m 137.58167,326.16719 78.11362,78.11724 h 55.23594 v -67.73441 h -27.17768 l -38.43747,-38.43747 v -27.17768 h -67.73235 z" style="color:#000;display:inline;fill:#aa6b55;fill-opacity:1;fill-rule:evenodd;stroke:none;stroke-linecap:square;-inkscape-stroke:none;paint-order:stroke fill markers" transform="translate(-67.7333,-67.733)"/><path d="m 203.19923,273.05017 h -63.50004 v 52.2418 l 36.94092,36.93989 44.90065,-44.89961 2.9931,2.99258 -44.90064,44.90116 36.94092,36.93989 h 52.2418 v -63.499 h -25.939 L 203.19975,298.9902 Z" style="color:#000;fill:#ffa080;fill-rule:evenodd;stroke:none;stroke-width:8.46667;stroke-linecap:round;stroke-linejoin:round;stroke-dasharray:none;stroke-opacity:1;-inkscape-stroke:none;paint-order:markers fill stroke" transform="translate(-67.7333,-67.733)"/><path d="m 148.3307,273.05017 -8.63152,8.63152 v 2.44895 l 10.75026,10.75025 -10.75026,10.75026 v 2.44894 l 10.74819,10.74819 -8.60568,8.60568 0.74776,0.74776 8.60568,-8.60568 11.22671,11.22671 -8.60568,8.60568 0.74828,0.74828 8.60568,-8.60568 11.22464,11.22464 -8.60568,8.60517 0.74879,0.7493 8.60672,-8.60671 10.1012,10.10275 0.74775,-0.74776 -10.10119,-10.10275 11.22464,-11.22464 10.10327,10.10119 0.74827,-0.74827 -10.10326,-10.1012 11.22671,-11.22671 10.1012,10.10326 0.74827,-0.74775 -10.10171,-10.10327 11.22464,-11.22464 10.10327,10.10171 0.3731,-0.3731 2.9931,2.99258 -0.3731,0.3731 10.10275,10.10275 -11.2262,11.22672 -10.10275,-10.10275 -0.74827,0.74827 10.10275,10.10275 -11.22465,11.22413 -10.10275,-10.10275 -0.74776,0.74828 10.10275,10.10274 -11.22671,11.22672 -10.10275,-10.10275 -0.74827,0.74827 10.10275,10.10275 -8.60569,8.60568 0.74931,0.74931 8.60465,-8.60465 11.22671,11.22465 -8.60568,8.60516 0.74828,0.74776 8.60516,-8.60516 11.22465,11.22464 -8.60517,8.60517 0.74879,0.7493 8.6062,-8.60619 10.74561,10.74715 h 2.45411 l 10.74767,-10.74715 10.74716,10.74715 h 2.45256 l 8.62997,-8.62945 v -1.4981 l -9.85677,9.85677 -11.22464,-11.22465 11.22464,-11.22464 9.85677,9.85677 v -1.49759 l -9.10901,-9.10746 9.10901,-9.10849 v -1.49655 l -9.85677,9.85728 -11.22464,-11.22671 11.22464,-11.22464 9.85677,9.85521 v -1.49603 l -9.10901,-9.10746 9.10901,-9.10901 v -1.49758 l -9.85677,9.85625 -11.22464,-11.22465 4.10828,-4.10827 h -1.49604 l -3.36052,3.36052 -3.36,-3.36052 h -0.74931 L 203.19974,298.9902 v -0.74931 l -3.36,-3.36 3.36,-3.36 v -1.49604 l -4.10776,4.10777 -11.22671,-11.2262 9.85625,-9.85625 h -1.49655 l -9.10798,9.10797 -9.10798,-9.10797 h -1.49603 l 9.85625,9.85625 -11.22671,11.2262 -11.22464,-11.22465 9.85831,-9.8578 h -1.49655 l -9.10952,9.11004 -9.11005,-9.11004 h -1.49655 l 9.85832,9.8578 -11.22464,11.22465 -11.22671,-11.2262 9.85625,-9.85625 z m 52.1276,0 2.74092,2.74092 v -1.49604 l -1.24488,-1.24488 z m -13.34131,10.60401 11.22671,11.22671 -11.22671,11.22671 -11.22619,-11.22671 z m -23.94687,0.002 11.22464,11.22464 -11.22464,11.22464 -11.22465,-11.22464 z m -11.97292,11.97292 11.22464,11.22412 -11.22671,11.22672 -11.22464,-11.22465 z m 23.94532,0 11.22671,11.22619 -11.22464,11.22465 -11.22671,-11.22672 z m 23.94946,0 11.22464,11.22412 -11.22671,11.22672 -11.22464,-11.22465 z m -35.92186,11.9724 11.22619,11.22671 -11.22619,11.2262 -11.22671,-11.2262 z m 23.94687,0.002 11.22465,11.22464 -11.22465,11.22465 -11.22464,-11.22465 z m -11.9724,11.9724 11.22464,11.22464 -11.22671,11.22672 -11.22464,-11.22465 z m 59.86718,11.97499 11.22671,11.22464 -11.22671,11.2262 -11.22464,-11.2262 z m 31.06324,7.11585 2.74092,2.74091 v -1.49758 l -1.24334,-1.24333 z M 223.03885,343.52329 234.2635,354.75 223.03885,365.97465 211.81266,354.75 Z m 23.94739,0 11.22465,11.22464 -11.22672,11.22672 L 235.75953,354.75 Z m -35.92186,11.97499 11.22671,11.22464 -11.22671,11.22671 -11.22464,-11.22671 z m 23.94739,0 11.22465,11.22464 -11.22465,11.22465 -11.22464,-11.22465 z m -11.97292,11.97292 11.22465,11.22464 -11.2262,11.2262 -11.22464,-11.22465 z m 23.94739,0 11.22465,11.22619 -11.22465,11.22465 -11.22671,-11.22465 z m -11.97447,11.97447 11.22671,11.22464 -11.22671,11.22671 -11.22464,-11.22671 z" style="color:#000;display:inline;fill:#e38e72;fill-opacity:1;fill-rule:evenodd;stroke:none;stroke-linecap:square;-inkscape-stroke:none;paint-order:stroke fill markers" transform="translate(-67.7333,-67.733)"/><path d="m 215.69925,137.58187 -78.11724,78.11362 v 55.23594 h 67.73441 v -27.17768 l 38.43747,-38.43747 h 27.17768 v -67.73235 z" style="color:#000;display:inline;fill:#aa9555;fill-opacity:1;fill-rule:evenodd;stroke:none;stroke-linecap:square;-inkscape-stroke:none;paint-order:stroke fill markers" transform="translate(-67.7333,-67.733) rotate(180,270.93312,270.93332)"/><path d="m 338.66702,273.0512 v 25.93797 l -18.34308,18.34308 44.9022,44.90064 36.93988,-36.94195 V 273.0512 Z m -21.33515,47.2726 -18.34308,18.34308 h -25.939 v 63.499 h 52.24336 l 36.93988,-36.94092 z" style="color:#000;fill:#ffe080;fill-rule:evenodd;stroke:none;stroke-width:8.46667;stroke-linecap:round;stroke-linejoin:round;stroke-dasharray:none;stroke-opacity:1;-inkscape-stroke:none;paint-order:markers fill stroke" transform="translate(-67.7333,-67.733)"/><path d="m 339.90931,273.0512 -1.2423,1.2423 v 1.49655 l 2.73885,-2.73885 z m 4.2354,0 9.85522,9.85677 -11.22464,11.22465 -4.10828,-4.1088 v 1.49707 l 3.36052,3.36 -3.36052,3.36 v 0.74828 l -18.34308,18.34308 0.37414,0.37413 10.10275,-10.10274 11.22671,11.22464 -10.1043,10.10275 0.74827,0.74879 10.10379,-10.10378 11.22464,11.22671 -10.10223,10.10223 0.74776,0.74828 10.10275,-10.10223 11.22619,11.22464 -10.10326,10.10275 0.7493,0.74931 10.10224,-10.1043 8.60516,8.60671 0.74879,-0.74879 -8.6062,-8.6062 11.22672,-11.22412 8.60464,8.60464 0.74828,-0.74827 -8.60465,-8.60465 11.22465,-11.22671 8.60464,8.6062 0.74931,-0.74931 -8.6062,-8.60465 10.74819,-10.74612 v -2.45515 l -10.74819,-10.74612 10.74819,-10.74612 v -2.45515 l -8.62997,-8.62842 h -1.49655 l 9.85522,9.85522 -11.22464,11.2262 -11.22465,-11.2262 9.85522,-9.85522 h -1.49707 l -9.10849,9.10694 -9.10694,-9.10694 h -1.49604 l 9.85522,9.85522 -11.22464,11.2262 -11.22465,-11.2262 9.85522,-9.85522 h -1.49655 l -9.10694,9.10694 -9.10798,-9.10694 z m 10.6035,10.60505 11.22619,11.22464 -11.22619,11.22464 -11.22465,-11.22464 z m 23.94687,0 11.22671,11.22464 -11.22464,11.22464 -11.22672,-11.22464 z m -35.91979,11.97292 11.22464,11.22412 -11.22464,11.22672 -11.22465,-11.22465 z m 23.94739,0 11.22464,11.22619 -11.22464,11.22465 -11.22672,-11.22465 z m 23.94739,0 11.22464,11.22619 -11.22464,11.22465 -11.22465,-11.22672 z m -35.92031,11.9724 11.22464,11.22671 -11.22464,11.2262 -11.2262,-11.2262 z m 23.94532,0.002 11.22671,11.22464 -11.22671,11.2262 -11.22465,-11.2262 z m -11.9724,11.9724 11.22671,11.22464 -11.22671,11.22672 -11.22672,-11.22672 z m -49.39082,0.74776 -18.34308,18.34308 h -0.74724 l -3.36052,3.36052 -3.36,-3.36052 h -1.49759 l 4.10932,4.10879 -11.22672,11.2262 -9.85625,-9.85781 v 1.49604 l 9.1085,9.11004 -9.1085,9.10849 v 1.49604 l 9.85625,-9.85625 11.22672,11.22464 -11.22672,11.22465 -9.85625,-9.85626 v 1.49655 l 9.1085,9.10953 -9.1085,9.10849 v 1.49604 l 9.85625,-9.85625 11.22672,11.22464 -11.22672,11.22671 -9.85625,-9.85832 v 1.49655 l 8.62946,8.63049 h 2.45411 l 10.74767,-10.74715 10.74561,10.74715 h 2.45618 l 10.74509,-10.74715 8.60568,8.60671 0.74776,-0.74827 -8.60517,-8.60672 11.22465,-11.22464 8.60671,8.60516 0.74828,-0.74827 -8.60517,-8.60517 11.22465,-11.22619 8.60516,8.60619 0.74879,-0.74827 -8.60568,-8.6062 10.10378,-10.10378 -0.74827,-0.74828 -10.10378,10.10379 -11.22465,-11.22465 10.10275,-10.10481 -0.74776,-0.74776 -10.10481,10.10223 -11.22465,-11.22465 10.10378,-10.10326 -0.74827,-0.74828 -10.10378,10.10379 -11.2262,-11.22672 10.1043,-10.10275 z m -10.47843,11.22723 11.22671,11.22464 -11.22671,11.22413 -11.22465,-11.22465 z m -32.55928,7.11585 -1.24437,1.24436 v 1.49604 l 2.74041,-2.7404 z m 20.58687,4.85655 11.22465,11.22671 -11.22465,11.22465 -11.22671,-11.22465 z m 23.94688,0 11.22464,11.22671 -11.22464,11.22465 -11.2262,-11.22465 z m -11.97447,11.97499 11.22671,11.22464 -11.22671,11.22671 -11.22465,-11.22671 z m 23.94739,0 11.22671,11.22464 -11.22671,11.22671 -11.22465,-11.22671 z m -35.9198,11.97292 11.22465,11.22619 -11.22465,11.22465 -11.22464,-11.2262 z m 23.94688,0 11.22464,11.22619 -11.22464,11.22465 -11.2262,-11.22465 z m -11.97447,11.97447 11.22671,11.22464 -11.22465,11.22465 -11.22671,-11.22465 z" style="color:#000;display:inline;fill:#e3c772;fill-opacity:1;fill-rule:evenodd;stroke:none;stroke-linecap:square;-inkscape-stroke:none;paint-order:stroke fill markers" transform="translate(-67.7333,-67.733)"/><path d="m 404.28457,215.69945 -78.11362,-78.11724 h -55.23594 v 67.73441 h 27.17768 l 38.43747,38.43747 v 27.17768 h 67.73235 z" style="color:#000;display:inline;fill:#806b80;fill-opacity:1;fill-rule:evenodd;stroke:none;stroke-linecap:square;-inkscape-stroke:none;paint-order:stroke fill markers" transform="translate(-67.7333,-67.733)"/><path d="m 325.29315,139.69905 -52.24232,0.001 v 63.50003 h 25.93796 l 18.34308,18.34205 44.90116,-44.90116 z m 39.93195,39.93506 -44.90013,44.90064 18.34205,18.34205 v 25.94003 h 63.499 v -52.24284 z" style="color:#000;fill:#c0a0c0;fill-rule:evenodd;stroke:none;stroke-width:8.46667;stroke-linecap:round;stroke-linejoin:round;stroke-dasharray:none;stroke-opacity:1;-inkscape-stroke:none;paint-order:markers fill stroke" transform="translate(-67.7333,-67.733)"/><path d="m 305.62869,139.69957 -10.74767,10.74974 -10.74922,-10.74922 h -2.45101 l -8.62997,8.62997 v 1.49758 l 9.85521,-9.85677 11.22672,11.2262 -11.22672,11.22464 -9.85521,-9.85522 v 1.49604 l 9.10746,9.10746 -9.10746,9.10901 v 1.49603 l 9.85521,-9.85677 11.22672,11.2262 -11.22672,11.22464 -9.85521,-9.85522 v 1.49655 l 9.10746,9.10746 -9.10746,9.10746 v 1.49707 l 9.85521,-9.85729 11.22672,11.22672 -4.1088,4.10827 h 1.49707 l 3.36,-3.36 3.36001,3.36 h 0.74775 l 18.34308,18.34205 0.37362,-0.37362 -10.10378,-10.10223 11.2262,-11.2262 10.10326,10.10275 0.74776,-0.74828 -10.10275,-10.10274 11.22465,-11.22465 10.10378,10.10223 0.74827,-0.74827 -10.10223,-10.10327 11.22465,-11.22464 10.10274,10.10275 0.7488,-0.74828 -10.10327,-10.10326 8.60672,-8.60672 -0.7488,-0.74879 -8.60619,8.60775 -11.22465,-11.22671 8.6062,-8.6062 -0.74828,-0.74828 -8.60774,8.6062 -11.22465,-11.22464 8.60672,-8.60775 -0.74828,-0.74879 -8.60671,8.60671 -10.74716,-10.74767 z m 1.2268,0.27337 11.22258,11.22258 -11.22464,11.22619 -11.22465,-11.22413 z m -11.97447,11.9724 11.22465,11.22465 -11.22465,11.22464 -11.22464,-11.22464 z m 23.94688,0 11.22464,11.22465 -11.22464,11.22671 -11.2262,-11.22671 z m -11.97447,11.97292 11.22671,11.2262 -11.22671,11.22464 -11.22465,-11.22464 z m 23.94739,0 11.22671,11.2262 -11.22671,11.22464 -11.22465,-11.22464 z m -35.9198,11.97499 11.22465,11.22464 -11.22465,11.22671 -11.22671,-11.22671 z m 23.94688,0 11.22464,11.22464 -11.22464,11.22671 -11.22413,-11.22671 z m -11.97241,11.97395 11.22465,11.22465 -11.22671,11.22464 -11.22465,-11.22464 z m 49.76392,0.37259 -0.74827,0.74879 10.10326,10.10327 -11.22619,11.22464 -10.10275,-10.10275 -0.74828,0.74828 10.10275,10.10223 -11.22464,11.22671 -10.10224,-10.1043 -0.74931,0.74879 10.10379,10.10379 -11.22671,11.22464 -10.10275,-10.10275 -0.37311,0.37362 18.34205,18.34205 v 0.74982 l 3.36052,3.36001 -3.36052,3.36052 v 1.49551 l 4.10828,-4.10828 11.22464,11.22465 -9.85573,9.8578 h 1.49603 l 9.10953,-9.11004 9.10849,9.11004 h 1.49552 l -9.85781,-9.85573 11.22672,-11.22672 11.22671,11.22672 -9.8578,9.85573 h 1.495 l 9.10849,-9.11004 9.11004,9.11004 h 1.49604 l -9.85574,-9.8578 11.22465,-11.22465 11.22464,11.22465 -9.85573,9.8578 h 1.49551 l 8.63152,-8.63152 v -2.45101 l -10.74819,-10.74767 10.74819,-10.74612 v -2.45515 l -10.74819,-10.74612 8.60672,-8.60672 -0.74879,-0.74879 -8.60568,8.60723 -11.22465,-11.22671 8.60568,-8.60517 -0.74827,-0.74827 -8.60568,8.60568 -11.22672,-11.22464 8.6062,-8.6062 -0.74827,-0.74828 -8.60568,8.60723 z m 10.10327,11.60033 11.22671,11.2262 -11.22671,11.22464 -11.22672,-11.22464 z m -93.67186,0.62115 v 1.49604 l 1.24282,1.24281 h 1.49603 z m 81.69894,11.35125 11.22464,11.22672 -11.22464,11.22464 -11.2262,-11.22464 z m 23.94532,0 11.22671,11.22672 -11.22671,11.22464 -11.22465,-11.22464 z m -35.91979,11.97447 11.22464,11.22465 -11.22464,11.22671 -11.22465,-11.22671 z m 23.94739,0 11.22464,11.22465 -11.22464,11.22671 -11.22465,-11.22671 z m 23.94739,0 11.22464,11.22465 -11.22464,11.22671 -11.22465,-11.22671 z m -35.92031,11.97499 11.22464,11.22465 -11.22619,11.22412 -11.22465,-11.22412 z m 23.94532,0 11.22671,11.22465 -11.22464,11.22412 -11.22672,-11.22412 z m -40.02807,30.31497 v 1.49655 l 1.24333,1.24333 h 1.49604 z" style="color:#000;display:inline;fill:#ab8eab;fill-opacity:1;fill-rule:evenodd;stroke:none;stroke-linecap:square;-inkscape-stroke:none;paint-order:stroke fill markers" transform="translate(-67.7333,-67.733)"/><path d="m 243.75389,205.31628 -38.43747,38.43747 v 54.3595 l 38.43747,38.43747 h 54.3595 l 38.43748,-38.43747 v -54.3595 l -38.43748,-38.43747 z" style="color:#000;display:inline;fill:#959595;fill-opacity:1;fill-rule:evenodd;stroke-width:1.00013;stroke-linecap:square;stroke-dasharray:none;paint-order:stroke fill markers" transform="translate(-67.7333,-67.733)"/><path d="m 244.631,207.434 -37.197,37.197 v 52.605 l 37.197,37.198 h 52.605 l 37.198,-37.198 v -52.605 l -37.198,-37.197 z" style="color:#000;fill:#e0e0e0;fill-rule:evenodd;stroke:none;stroke-linecap:square;-inkscape-stroke:none;paint-order:stroke fill markers" transform="translate(-67.7333,-67.733)"/><path d="m 254.58061,207.43398 3.63028,3.63027 -11.22672,11.22464 -8.60413,-8.60413 -0.74879,0.74931 8.60517,8.60517 -11.22465,11.22464 -8.60516,-8.60516 -0.74828,0.74775 8.60517,8.60517 -11.22465,11.22671 -8.60568,-8.6062 -0.74931,0.74931 8.60517,8.60517 -11.22465,11.22412 -3.63027,-3.63027 v 1.49604 l 2.88251,2.88251 -2.88251,2.88251 v 1.49552 l 3.63027,-3.63027 11.22671,11.22671 -11.22671,11.22671 -3.63027,-3.63027 v 1.49552 l 2.88251,2.88251 -2.88251,2.88251 v 1.49604 l 3.63027,-3.63027 11.22465,11.22464 -8.60517,8.60517 0.74931,0.74879 8.60568,-8.60568 11.22465,11.22619 -8.60517,8.60517 0.74828,0.74827 8.60516,-8.60516 11.22465,11.22464 -8.60569,8.60568 0.7488,0.74879 8.60671,-8.60671 11.22465,11.22671 -3.63131,3.63131 h 1.49655 l 2.88303,-2.88303 2.88303,2.88303 h 1.49655 l -3.63182,-3.63131 11.22671,-11.22671 11.22465,11.22671 -3.63131,3.63131 h 1.49604 l 2.88302,-2.88303 2.88355,2.88303 h 1.49965 l -3.63285,-3.63338 11.22464,-11.22464 8.60568,8.60723 0.7488,-0.74879 -8.60672,-8.6062 11.22465,-11.22464 8.60723,8.60568 0.74827,-0.74828 -8.60723,-8.60568 11.2262,-11.22619 8.60568,8.60723 0.74879,-0.74879 -8.6062,-8.60672 11.22465,-11.22464 3.63337,3.63285 v -1.49862 l -2.88355,-2.88406 2.88355,-2.88355 v -1.49758 l -3.63337,3.63285 -11.22465,-11.22464 11.22465,-11.22464 3.63337,3.63285 v -1.49862 l -2.88355,-2.88406 2.88355,-2.88355 v -1.49603 l -3.63131,3.6313 -11.22671,-11.22412 8.60672,-8.60672 -0.74931,-0.74879 -8.60568,8.60723 -11.22413,-11.22671 8.60516,-8.60517 -0.74827,-0.74827 -8.60723,8.60568 -11.22465,-11.22464 8.6062,-8.6062 -0.74879,-0.74879 -8.60517,8.60671 -11.22464,-11.22671 3.63027,-3.63027 h -1.49759 l -2.88303,2.88251 -2.88251,-2.88251 H 278.528 l 3.63028,3.63027 -11.22465,11.22671 -11.22671,-11.22671 3.63131,-3.63027 h -1.49656 l -2.88251,2.88251 -2.88251,-2.88251 z m 4.37855,4.37854 11.2262,11.22672 -11.2262,11.22464 -11.22464,-11.22464 z m 23.94687,0.002 11.22672,11.22465 -11.22672,11.22464 -11.22464,-11.22464 z m -35.92186,11.9724 11.22672,11.22672 -11.22465,11.22464 -11.22671,-11.22671 z m 23.94946,0 11.22465,11.22465 -11.22465,11.22671 -11.22671,-11.22671 z m 23.94739,0 11.22465,11.22465 -11.22465,11.22671 -11.22464,-11.22671 z m -59.86925,11.97292 11.22671,11.2262 -11.22671,11.22464 -11.22464,-11.22464 z m 23.94739,0.002 11.22465,11.22465 -11.22465,11.22412 -11.22464,-11.22412 z m 23.94687,0 11.22672,11.22465 -11.22672,11.22412 -11.22464,-11.22412 z m 23.9474,0 11.22671,11.22465 -11.22671,11.22412 -11.22465,-11.22412 z m -83.81613,11.9724 11.2262,11.22672 -11.22465,11.22464 -11.22619,-11.22671 z m 23.94894,0 11.22465,11.22465 -11.22465,11.22671 -11.22464,-11.22464 z m 23.94739,0 11.22465,11.22465 -11.22465,11.22671 -11.22671,-11.22464 z m 23.94739,0 11.22465,11.22465 -11.22465,11.22671 -11.22464,-11.22464 z m 23.94688,0 11.22464,11.22672 -11.22464,11.22464 -11.2262,-11.22464 z m -11.97241,11.97241 11.22465,11.22671 -11.22465,11.22671 -11.22671,-11.22671 z m -71.84372,0.002 11.22465,11.22464 -11.22465,11.22464 -11.22464,-11.22464 z m 23.94739,0 11.2262,11.22464 -11.2262,11.22464 -11.22464,-11.22464 z m 23.94687,0 11.22672,11.22464 -11.22672,11.22464 -11.22464,-11.22464 z m -59.86718,11.97292 11.22465,11.22464 -11.2262,11.2262 -11.22464,-11.22465 z m 23.94739,0 11.22465,11.22619 -11.22465,11.22465 -11.22464,-11.2262 z m 23.94739,0 11.22465,11.22619 -11.22465,11.22465 -11.22671,-11.2262 z m 23.94739,0 11.22465,11.22619 -11.22465,11.22465 -11.22464,-11.2262 z m 23.94688,0 11.22464,11.22464 -11.22464,11.2262 -11.2262,-11.2262 z m -83.81613,11.97447 11.22671,11.22464 -11.22671,11.22671 -11.22464,-11.22671 z m 23.94739,0 11.22465,11.22464 -11.22465,11.22464 -11.22464,-11.22464 z m 23.94687,0 11.22672,11.22464 -11.22672,11.22464 -11.22464,-11.22464 z m 23.9474,0 11.22671,11.22464 -11.22671,11.22464 -11.22465,-11.22464 z m -59.86719,11.97292 11.22465,11.22412 -11.22672,11.22672 -11.22464,-11.22465 z m 23.94739,0 11.22465,11.22619 -11.22465,11.22465 -11.22671,-11.22465 z m 23.94739,0 11.22465,11.22619 -11.22465,11.22465 -11.22464,-11.22465 z m -35.92186,11.97447 11.2262,11.22464 -11.2262,11.2262 -11.22464,-11.2262 z m 23.94687,0 11.22672,11.22464 -11.22672,11.22465 -11.22464,-11.22465 z" style="color:#000;display:inline;fill:#c7c7c7;fill-opacity:1;stroke:none;-inkscape-stroke:none;paint-order:stroke markers fill" transform="translate(-67.7333,-67.733)"/></g></svg>