<svg xmlns="http://www.w3.org/2000/svg" xml:space="preserve" width="3436.4272" height="695.24023" viewBox="0 0 909.22127 183.94896"><path d="m 371.985,0 v 25.399997 h -75.6641 c -14.02799,0 -25.4,11.372011 -25.4,25.399997 v 26.86399 c -2.382,0.6239 -4.72868,1.367529 -7.00267,2.355928 -6.165,2.680798 -11.5273,6.344464 -16.08429,10.99106 -4.557,4.557195 -8.1757,9.918778 -10.8567,16.083768 -2.68,6.166 -4.02146,12.73523 -4.02146,19.70422 0,6.97 1.34146,13.53823 4.02146,19.70423 2.681,6.16499 6.2997,11.57161 10.8567,16.21761 l 6.35,6.35 c 4.55699,4.55799 9.91929,8.17622 16.08429,10.85721 6.16599,2.681 12.73367,4.02095 19.70267,4.02095 6.96999,0 13.53822,-1.33995 19.70422,-4.02095 6.16599,-2.68099 11.52781,-6.29922 16.0848,-10.85721 4.647,-4.646 8.31006,-10.05262 10.99106,-16.21762 2.681,-6.16599 4.02094,-12.73419 4.02094,-19.70318 0,-6.97 -1.33994,-13.53926 -4.02094,-19.70526 -2.681,-6.16499 -6.34406,-11.52677 -10.99106,-16.083769 l -6.35,-6.349999 c -4.55699,-4.646596 -9.91881,-8.310262 -16.0848,-10.99106 -0.21721,-0.09446 -0.43568,-0.184825 -0.65422,-0.274918 V 57.149993 h 170.37821 v 20.513991 c -2.383,0.624 -4.7292,1.367429 -7.00319,2.355928 -6.166,2.680798 -11.52678,6.344464 -16.08377,10.99106 -4.558,4.557195 -8.17622,9.918778 -10.85722,16.083768 -2.681,6.166 -4.02198,12.73523 -4.02198,19.70422 0,6.97 1.34098,13.53823 4.02198,19.70423 2.681,6.16499 6.29922,11.57161 10.85722,16.21761 l 6.35,6.35 c 4.55699,4.55799 9.91777,8.17622 16.08377,10.85721 6.16599,2.681 12.73319,4.02095 19.70318,4.02095 6.97,0 13.53768,-1.33995 19.70267,-4.02095 6.166,-2.68099 11.52733,-6.29922 16.08533,-10.85721 4.64599,-4.646 8.31006,-10.05262 10.99106,-16.21762 2.67999,-6.16599 4.02197,-12.73419 4.02197,-19.70318 0,-6.97 -1.34198,-13.53926 -4.02197,-19.70526 -2.681,-6.16499 -6.34507,-11.52677 -10.99106,-16.083769 l -6.35,-6.349999 c -4.558,-4.646596 -9.91933,-8.310262 -16.08532,-10.99106 -0.21671,-0.09424 -0.43466,-0.184505 -0.65268,-0.274401 V 57.149993 c 0,-8.636435 -4.31432,-16.261319 -10.90114,-20.850404 2.86555,4.112323 4.55114,9.108154 4.55114,14.500405 v 26.86399 l 6.35,6.349999 c 2.383,0.624 4.72968,1.36743 7.00267,2.355929 4.74171,2.061558 9.00562,4.706697 12.79612,7.930781 3.2235,3.79006 5.86874,8.053537 7.93027,12.794047 2.67999,6.166 4.02197,12.73526 4.02197,19.70526 0,6.96899 -1.34198,13.53719 -4.02197,19.70319 -2.681,6.16499 -6.34507,11.57161 -10.99106,16.21761 -4.558,4.55799 -9.91933,8.17622 -16.08532,10.85722 -6.165,2.68099 -12.73268,4.02094 -19.70268,4.02094 -6.96999,0 -13.53719,-1.33995 -19.70318,-4.02094 -4.66403,-2.02794 -8.8668,-4.59265 -12.61008,-7.69411 -3.22971,-3.88288 -5.89119,-8.22537 -7.98091,-13.03073 -2.681,-6.16599 -4.02198,-12.73419 -4.02198,-19.70318 0,-6.97 1.34098,-13.53926 4.02198,-19.70526 2.681,-6.16499 6.29922,-11.52677 10.85722,-16.083769 4.55699,-4.646596 9.91777,-8.310262 16.08377,-10.991059 2.27399,-0.988499 4.62019,-1.731929 7.00319,-2.355929 v -26.86399 l -6.35,-6.349999 H 296.3209 v 26.86399 l 6.35,6.349999 c 2.38399,0.624 4.73122,1.36743 7.00422,2.355929 4.74213,2.061743 9.00657,4.707337 12.79715,7.931814 3.22332,3.789828 5.86736,8.052894 7.92871,12.793014 2.681,6.166 4.02095,12.73526 4.02095,19.70526 0,6.96899 -1.33995,13.53719 -4.02095,19.70319 -2.68099,6.16499 -6.34406,11.57161 -10.99106,16.21761 -4.55699,4.55799 -9.91881,8.17622 -16.0848,10.85722 -6.16599,2.68099 -12.73423,4.02094 -19.70422,4.02094 -6.969,0 -13.53668,-1.33995 -19.70267,-4.02094 -4.66291,-2.02778 -8.86575,-4.59246 -12.60905,-7.69359 -3.22975,-3.88306 -5.89209,-8.22561 -7.98194,-13.03125 -2.68,-6.16599 -4.02146,-12.73419 -4.02146,-19.70318 0,-6.97 1.34146,-13.53926 4.02146,-19.70526 2.681,-6.16499 6.2997,-11.52677 10.8567,-16.083769 4.55699,-4.646596 9.91929,-8.310262 16.08429,-10.991059 2.27399,-0.988399 4.62067,-1.732029 7.00267,-2.355929 v -26.86399 c 0,-14.027986 11.37201,-25.399997 25.4,-25.399997 H 378.335 V 6.3499993 h 19.05 V 25.399997 l 6.35,6.349999 h 75.66411 c 5.39155,0 10.38683,1.684721 14.49885,4.549593 -4.58921,-6.58592 -12.21312,-10.899592 -20.84885,-10.899592 H 403.735 V 6.3499993 L 397.385,0 Z m 11.76207,76.401012 c -4.28899,0 -8.71196,0.491847 -13.26895,1.474846 -4.558,0.893499 -8.71291,2.546272 -12.46591,4.958869 -3.66299,2.323298 -6.70217,5.495635 -9.11417,9.516731 -2.413,4.021096 -3.6189,9.115722 -3.6189,15.280722 0,4.19999 0.62486,7.86303 1.87586,10.99002 1.34,3.038 3.0831,5.67457 5.2281,7.90856 0.28359,0.2955 0.57207,0.58367 0.86506,0.86507 l 5.48494,5.48493 c 2.144,2.234 4.55677,4.06527 7.23677,5.49527 2.77099,1.43 5.54112,2.6369 8.31112,3.6189 2.76999,0.894 5.45088,1.60809 8.04188,2.14509 2.681,0.446 5.00412,0.84916 6.97012,1.20716 2.055,0.446 4.06619,0.80377 6.03219,1.07177 1.29254,0.1762 2.46634,0.3915 3.52691,0.64492 -0.37228,1.50926 -1.34037,2.7078 -2.90731,3.59307 -2.055,1.073 -5.04885,1.6092 -8.98085,1.6092 -4.10999,0 -8.53399,-0.89397 -13.26999,-2.68097 -4.73499,-1.787 -9.51573,-4.24416 -14.34072,-7.37216 -0.715,-0.447 -1.51929,-0.58004 -2.41329,-0.40204 -0.894,0.179 -1.60809,0.62597 -2.14509,1.33997 l -10.32082,14.87919 c -0.536,0.714 -0.75924,1.5631 -0.67024,2.5461 0.09,0.894 0.49216,1.60857 1.20716,2.14457 l 5.69681,5.69681 c 0.17691,0.24113 0.39419,0.45903 0.65319,0.65319 2.502,2.056 5.22725,4.02131 8.17625,5.89731 3.03799,1.787 6.2989,3.35171 9.78389,4.6917 3.485,1.341 7.23775,2.36802 11.25875,3.08302 4.02099,0.804 8.35631,1.20613 13.0023,1.20613 5.719,0 10.90193,-0.58105 15.54892,-1.74305 4.736,-1.251 8.7558,-3.12711 12.0618,-5.62911 3.39599,-2.502 6.03204,-5.67474 7.90804,-9.51673 1.877,-3.932 2.81636,-8.57824 2.81636,-13.94024 0,-5.71899 -1.16206,-10.45388 -3.48505,-14.20688 -2.1464,-3.69133 -4.8306,-6.67994 -8.04964,-8.96999 0.59934,0.83046 1.16648,1.70307 1.69964,2.61999 2.32299,3.753 3.48506,8.48789 3.48506,14.20689 0,5.36199 -0.93937,10.00823 -2.81637,13.94023 -1.876,3.84199 -4.51205,7.01473 -7.90804,9.51673 -3.306,2.502 -7.3258,4.37811 -12.0618,5.62911 -4.64699,1.162 -9.82992,1.74305 -15.54892,1.74305 -4.64599,0 -8.98131,-0.40213 -13.0023,-1.20613 -4.021,-0.715 -7.77375,-1.74202 -11.25875,-3.08302 -3.48499,-1.33999 -6.7459,-2.9047 -9.78389,-4.6917 -1.04555,-0.66512 -2.0617,-1.34226 -3.05098,-2.02985 -0.0145,-0.84103 0.21419,-1.57723 0.68781,-2.20813 l 10.32082,-14.8792 c 0.537,-0.71399 1.25109,-1.16093 2.14509,-1.33893 0.894,-0.179 1.69829,-0.046 2.41329,0.40101 4.82499,3.12799 9.60576,5.58516 14.34175,7.37216 4.735,1.78699 9.15896,2.68097 13.26896,2.68097 3.932,0 6.92585,-0.53621 8.98085,-1.6092 2.05499,-1.161 3.08301,-2.85872 3.08301,-5.09272 0,-1.161 -0.447,-2.05545 -1.341,-2.68045 l -5.53093,-5.53093 c -0.20975,-0.31096 -0.48292,-0.58407 -0.81907,-0.81907 -0.893,-0.715 -2.0999,-1.29553 -3.6189,-1.74253 -1.43,-0.447 -3.12671,-0.80429 -5.09271,-1.07229 -1.966,-0.268 -3.97719,-0.62577 -6.03219,-1.07177 -1.966,-0.358 -4.28912,-0.76116 -6.97012,-1.20716 -2.59099,-0.537 -5.27189,-1.25109 -8.04188,-2.14509 -2.77,-0.98199 -5.54013,-2.1889 -8.31112,-3.6189 -1.14646,-0.61173 -2.24373,-1.29755 -3.29231,-2.0562 -1.08318,-1.52394 -2.02483,-3.18903 -2.82256,-4.99763 -1.251,-3.12699 -1.87586,-6.79003 -1.87586,-10.99002 0,-6.165 1.2059,-11.25923 3.6189,-15.280723 2.412,-4.021096 5.45118,-7.193433 9.11417,-9.51673 3.753,-2.412598 7.90791,-4.065371 12.46591,-4.95887 4.55699,-0.982999 8.97996,-1.474845 13.26895,-1.474845 7.506,0 14.20776,1.117318 20.10575,3.351216 4.13832,1.482385 8.14834,3.45633 12.03027,5.920568 -0.0194,0.705827 -0.24807,1.351529 -0.68729,1.937349 l -10.45466,14.877645 c -0.536,0.715 -1.25109,1.16197 -2.14509,1.33997 -0.893,0.179 -1.69726,10e-4 -2.41226,-0.53589 -4.55699,-2.85899 -8.80259,-4.86967 -12.73358,-6.03167 -3.932,-1.251 -7.55122,-1.87637 -10.85722,-1.87637 -0.983,0 -2.14506,0.0444 -3.48506,0.13436 -1.251,0 -2.4579,0.17892 -3.6189,0.53692 -1.162,0.268 -2.14517,0.75881 -2.94917,1.47381 -0.715,0.715 -1.07177,1.69817 -1.07177,2.94917 0,1.251 0.93778,2.36667 2.81378,3.34967 l 3.61735,3.61735 c 0.26167,1.00376 1.171,1.91436 2.73265,2.73265 1.877,0.983 4.02123,1.83313 6.43423,2.54713 2.413,0.715 4.73612,1.29604 6.97012,1.74304 2.23399,0.357 3.66362,0.58125 4.28862,0.67025 3.217,0.626 6.74702,1.56281 10.58902,2.81481 3.843,1.161 7.41738,2.94892 10.72337,5.36091 0.13318,0.0911 0.26394,0.18559 0.39533,0.27906 -1.91197,-2.64926 -4.15981,-4.8597 -6.74532,-6.62905 -3.306,-2.412 -6.88038,-4.19995 -10.72338,-5.36195 -3.842,-1.251 -7.37202,-2.18778 -10.58902,-2.81378 -0.625,-0.089 -2.05462,-0.31325 -4.28862,-0.67025 -2.234,-0.44699 -4.55712,-1.02804 -6.97012,-1.74304 -0.95183,-0.28165 -1.86027,-0.58521 -2.72851,-0.90899 0.17099,-0.62627 0.471,-1.15572 0.90227,-1.58698 0.804,-0.715 1.78717,-1.20581 2.94917,-1.47381 1.161,-0.358 2.3679,-0.53692 3.6189,-0.53692 1.34,-0.09 2.50206,-0.13436 3.48506,-0.13436 3.30599,0 6.92522,0.62537 10.85722,1.87637 3.93099,1.162 8.17659,3.17268 12.73358,6.03167 0.715,0.537 1.51926,0.71489 2.41226,0.53589 0.894,-0.178 1.60909,-0.62497 2.14509,-1.33997 l 10.45466,-14.87765 c 0.53599,-0.714695 0.75924,-1.519169 0.67024,-2.412768 -0.089,-0.893599 -0.49216,-1.653431 -1.20716,-2.27893 L 421.398,89.657566 c -0.11746,-0.134962 -0.24698,-0.264774 -0.38912,-0.389124 -5.451,-4.199895 -11.16906,-7.371616 -17.15606,-9.516213 -5.89799,-2.233898 -12.59975,-3.351217 -20.10575,-3.351217 z M 47.985179,77.741499 c -0.893599,0 -1.653431,0.312428 -2.27893,0.937927 -0.6255,0.625499 -0.937927,1.385848 -0.937927,2.279447 v 91.681217 c 0,0.894 0.312427,1.65293 0.937927,2.27893 l 6.349999,6.35 c 0.625499,0.625 1.385331,0.93689 2.27893,0.93689 h 36.592078 c 6.969893,0 13.313954,-1.02702 19.032944,-3.08301 5.80799,-2.055 10.94657,-5.09266 15.41456,-9.11366 4.825,-4.46799 8.48906,-9.78548 10.99106,-15.95148 2.502,-6.25499 3.75326,-13.2238 3.75326,-20.9088 0,-7.68399 -1.25126,-14.60999 -3.75326,-20.77599 -2.502,-6.16599 -6.16606,-11.48203 -10.99106,-15.949926 l -3.93723,-3.937227 c -0.76969,-0.829354 -1.57268,-1.634874 -2.41277,-2.412773 C 110.08877,81.852053 98.606342,77.741499 84.577256,77.741499 Z m 100.795901,0 c -0.893,0 -1.65393,0.312428 -2.27893,0.937927 -0.626,0.625499 -0.93793,1.385848 -0.93793,2.279447 v 91.681217 c 0,0.894 0.31193,1.65293 0.93793,2.27893 l 6.35,6.35 c 0.625,0.625 1.38593,0.93689 2.27893,0.93689 h 68.22374 c 0.89399,0 1.65293,-0.31189 2.27893,-0.93689 0.625,-0.626 0.93947,-1.38493 0.93947,-2.27893 v -18.49706 c 0,-0.894 -0.31447,-1.65393 -0.93947,-2.27893 l -6.35,-6.35 c -0.626,-0.626 -1.38493,-0.93793 -2.27893,-0.93793 h -38.55165 v -1.96112 c 0,-0.893 0.31296,-1.6529 0.93896,-2.2779 0.625,-0.626 1.3839,-0.93792 2.2779,-0.93792 h 36.32387 c 0.894,0 1.6529,-0.31448 2.2779,-0.93948 0.626,-0.626 0.93896,-1.38493 0.93896,-2.27893 v -18.49706 c 0,-0.893 -0.31296,-1.6529 -0.93896,-2.2779 l -6.35,-6.35 c -0.625,-0.626 -1.3839,-0.93793 -2.2779,-0.93793 h -33.19073 v -2.497 c 0,-0.893 0.31296,-1.6529 0.93896,-2.2779 0.625,-0.626 1.3839,-0.93792 2.2779,-0.93792 h 41.68479 c 0.89399,0 1.65293,-0.31297 2.27893,-0.93896 0.625,-0.625 0.93947,-1.38494 0.93947,-2.27894 V 87.308872 c 0,-0.893599 -0.31447,-1.653947 -0.93947,-2.279447 l -6.35,-6.349999 c -0.626,-0.625499 -1.38493,-0.937927 -2.27893,-0.937927 z m 404.92511,0 c -0.894,0 -1.65345,0.312428 -2.27945,0.937927 -0.625,0.625499 -0.93793,1.385848 -0.93793,2.279447 v 91.681217 c 0,0.894 0.31293,1.65293 0.93793,2.27893 l 6.35052,6.35 c 0.626,0.625 1.38493,0.93689 2.27893,0.93689 h 19.9719 c 0.893,0 1.6529,-0.31189 2.2779,-0.93689 0.626,-0.626 0.93793,-1.38493 0.93793,-2.27893 v -21.71392 c 0,-0.894 0.31293,-1.65293 0.93792,-2.27893 0.626,-0.625 1.38494,-0.93948 2.27893,-0.93948 h 2.94918 c 0.53105,0 1.07836,0.098 1.64124,0.28784 1.80389,2.54025 3.60766,5.06897 5.41156,7.57163 2.85999,3.842 5.71932,7.63959 8.57932,11.39258 0.30285,0.40399 0.67958,0.7783 1.12499,1.125 l 5.22501,5.225 c 0.536,0.715 1.29489,1.34038 2.27789,1.87637 1.072,0.447 2.05618,0.66973 2.94918,0.66973 h 24.93181 c 0.89299,0 1.47401,-0.40113 1.74201,-1.20613 0.268,-0.893 0.13392,-1.69774 -0.40308,-2.41174 -2.94799,-3.93199 -6.30013,-8.26579 -10.05313,-13.00178 -3.753,-4.736 -7.32583,-9.3384 -10.72182,-13.8064 -0.536,-0.71499 -0.71489,-1.43008 -0.53589,-2.14508 0.268,-0.804 0.75881,-1.4737 1.47381,-2.0097 2.145,-1.34 4.06596,-2.99287 5.76296,-4.95887 1.698,-2.056 3.17302,-4.33428 4.42402,-6.83627 1.251,-2.502 2.18933,-5.13805 2.81533,-7.90805 0.715,-2.85999 1.07177,-5.7188 1.07177,-8.5788 0,-5.183 -0.89294,-9.91789 -2.67994,-14.20688 -1.698,-4.289 -4.11084,-7.998442 -7.23884,-11.125939 l -0.58756,-0.587561 -5.76244,-5.762438 c -3.03799,-3.127497 -6.7469,-5.540519 -11.1249,-7.238317 -4.37899,-1.787198 -9.15928,-2.680456 -14.34227,-2.680456 z m 86.58799,0 c -0.894,0 -1.65294,0.312428 -2.27894,0.937927 -0.62499,0.625499 -0.93947,1.385848 -0.93947,2.279447 v 18.228343 c 0,0.893794 0.31448,1.653934 0.93947,2.278934 l 6.35,6.35 c 0.626,0.62599 1.38494,0.93896 2.27893,0.93896 h 15.89981 v 63.88498 c 0,0.894 0.31193,1.65293 0.93792,2.27893 l 6.35,6.35 c 0.625,0.625 1.3849,0.93689 2.2779,0.93689 h 20.10626 c 0.983,0 1.74194,-0.31189 2.27893,-0.93689 0.625,-0.626 0.93793,-1.38493 0.93793,-2.27893 v -67.01916 c 0,-0.893 0.31193,-1.6529 0.93793,-2.2779 0.625,-0.626 1.38493,-0.93792 2.27893,-0.93792 h 18.76526 c 0.983,0 1.74193,-0.31297 2.27893,-0.93896 0.625,-0.625 0.93689,-1.38494 0.93689,-2.27894 V 87.308872 c 0,-0.893599 -0.31189,-1.653947 -0.93689,-2.279447 -0.0856,-0.09968 -0.17754,-0.190619 -0.2744,-0.274402 l -6.0756,-6.075597 c -0.537,-0.625499 -1.29593,-0.937927 -2.27893,-0.937927 z m 87.39103,0 c -0.893,0 -1.65341,0.312428 -2.27841,0.937927 -0.626,0.625499 -0.93793,1.385848 -0.93793,2.279447 v 91.681217 c 0,0.894 0.31193,1.65293 0.93793,2.27893 l 6.35,6.35 c 0.625,0.625 1.38541,0.93689 2.27841,0.93689 h 68.2258 c 0.893,0 1.6519,-0.31189 2.2779,-0.93689 0.626,-0.626 0.93793,-1.38493 0.93793,-2.27893 v -18.49706 c 0,-0.894 -0.31193,-1.65393 -0.93793,-2.27893 l -6.35,-6.35 c -0.626,-0.626 -1.3849,-0.93793 -2.2779,-0.93793 h -38.55319 v -1.96112 c 0,-0.893 0.31192,-1.6529 0.93792,-2.2779 0.625,-0.626 1.38645,-0.93792 2.27945,-0.93792 h 36.32388 c 0.893,0 1.65293,-0.31448 2.27893,-0.93948 0.625,-0.626 0.93793,-1.38493 0.93793,-2.27893 v -18.49706 c 0,-0.893 -0.31293,-1.6529 -0.93793,-2.2779 l -6.35,-6.35 c -0.626,-0.626 -1.38593,-0.93793 -2.27893,-0.93793 h -33.19125 v -2.497 c 0,-0.893 0.31192,-1.6529 0.93792,-2.2779 0.625,-0.626 1.38645,-0.93792 2.27945,-0.93792 h 41.68582 c 0.893,0 1.6519,-0.31297 2.2779,-0.93896 0.626,-0.625 0.93793,-1.38494 0.93793,-2.27894 V 87.308872 c 0,-0.893599 -0.31193,-1.653947 -0.93793,-2.279447 l -6.35,-6.349999 c -0.626,-0.625499 -1.3849,-0.937927 -2.2779,-0.937927 z m 91.81558,0 c -0.894,0 -1.65393,0.312428 -2.27893,0.937927 -0.626,0.625499 -0.93896,1.385848 -0.93896,2.279447 v 91.681217 c 0,0.894 0.31296,1.65293 0.93896,2.27893 l 6.35,6.35 c 0.62499,0.625 1.38493,0.93689 2.27893,0.93689 h 19.97138 c 0.893,0 1.65394,-0.31189 2.27893,-0.93689 0.626,-0.626 0.93793,-1.38493 0.93793,-2.27893 v -21.71392 c 0,-0.894 0.31293,-1.65293 0.93793,-2.27893 0.626,-0.625 1.38596,-0.93948 2.27996,-0.93948 h 2.94814 c 0.5309,0 1.07826,0.0976 1.64125,0.28732 1.80395,2.54035 3.6076,5.0694 5.41155,7.57215 2.86,3.842 5.72032,7.63959 8.57932,11.39258 0.30255,0.4036 0.67885,0.77755 1.12396,1.12397 l 5.22604,5.22603 c 0.536,0.715 1.29593,1.34038 2.27893,1.87637 1.072,0.447 2.05414,0.66973 2.94814,0.66973 h 24.93078 c 0.893,0 1.47401,-0.40113 1.74201,-1.20613 0.268,-0.893 0.13499,-1.69774 -0.40101,-2.41174 -2.949,-3.93199 -6.30014,-8.26579 -10.05313,-13.00178 -3.753,-4.736 -7.32786,-9.3384 -10.72286,-13.8064 -0.537,-0.71499 -0.71488,-1.43008 -0.53588,-2.14508 0.26799,-0.804 0.75984,-1.4737 1.47484,-2.0097 2.144,-1.34 4.06496,-2.99287 5.76296,-4.95887 1.69799,-2.056 3.17198,-4.33428 4.42298,-6.83627 1.251,-2.502 2.18882,-5.13805 2.81482,-7.90805 0.71499,-2.85999 1.07228,-5.7188 1.07228,-8.5788 0,-5.183 -0.89397,-9.91789 -2.68097,-14.20688 -1.698,-4.289 -4.11132,-7.998442 -7.23832,-11.125939 -0.19599,-0.201768 -0.39477,-0.400525 -0.59634,-0.596346 l -5.75366,-5.753653 c -3.03799,-3.127497 -6.7469,-5.540519 -11.1249,-7.238317 -4.37899,-1.787198 -9.15876,-2.680456 -14.34176,-2.680456 z M 3.2163408,77.875858 c -0.982919,0 -1.7862295,0.312427 -2.41173884,0.937927 C 0.26845249,79.439284 0,80.198599 0,81.092198 v 91.547892 c 0,0.894 0.26845249,1.65293 0.80460196,2.27893 l 6.34999924,6.35 c 0.6255094,0.625 1.4288198,0.93689 2.4117388,0.93689 h 20.239589 c 0.893599,0 1.653948,-0.31189 2.279447,-0.93689 0.6255,-0.626 0.937927,-1.38493 0.937927,-2.27893 V 87.442198 c 0,-0.8936 -0.312427,-1.652915 -0.937927,-2.278414 l -6.349999,-6.349999 c -0.625499,-0.6255 -1.385848,-0.937927 -2.279447,-0.937927 z m 51.1188372,6.21564 h 36.592078 c 12.971934,0 23.765364,3.517599 32.383034,10.546642 2.77041,3.403884 5.00649,7.19788 6.70553,11.38483 2.502,6.166 3.75326,13.092 3.75326,20.77599 0,7.685 -1.25126,14.65381 -3.75326,20.9088 -2.502,6.166 -6.16606,11.48349 -10.99106,15.95148 -4.46799,4.021 -9.60656,7.05866 -15.41456,9.11366 -5.718693,2.05599 -12.06305,3.08301 -19.032944,3.08301 H 51.118321 V 87.308872 c 0,-0.893599 0.312428,-1.653947 0.937927,-2.279447 0.625499,-0.625499 1.385331,-0.937927 2.27893,-0.937927 z m 100.795902,0 h 65.09214 v 15.095718 c 0,0.893794 -0.31447,1.653934 -0.93947,2.278934 -0.626,0.626 -1.38493,0.93896 -2.27893,0.93896 h -41.68479 c -0.894,0 -1.6529,0.31192 -2.2779,0.93792 -0.626,0.625 -0.93896,1.3849 -0.93896,2.2779 v 5.63015 c 0,0.893 0.31296,1.65189 0.93896,2.27789 l 6.35,6.35 c 0.625,0.625 1.3839,0.93896 2.2779,0.93896 h 33.19073 v 15.36289 c 0,0.894 -0.31296,1.65293 -0.93896,2.27893 -0.625,0.625 -1.3839,0.93948 -2.2779,0.93948 h -36.32387 c -0.894,0 -1.6529,0.31192 -2.2779,0.93792 -0.626,0.625 -0.93896,1.3839 -0.93896,2.2779 v 5.09271 c 0,0.894 0.31296,1.65448 0.93896,2.28048 l 6.35,6.35 c 0.625,0.625 1.3839,0.93793 2.2779,0.93793 h 38.55319 v 15.36392 c 0,0.894 -0.31447,1.65293 -0.93947,2.27893 -0.626,0.625 -1.38493,0.93689 -2.27893,0.93689 h -65.0906 V 87.308872 c 0,-0.893599 0.31193,-1.653947 0.93793,-2.279447 0.625,-0.625499 1.38593,-0.937927 2.27893,-0.937927 z m 404.92511,0 h 41.68479 c 5.18299,0 9.96328,0.893258 14.34227,2.680456 2.82882,1.097025 5.37638,2.494343 7.64605,4.188375 1.77519,2.349052 3.23209,4.956817 4.36769,7.825361 1.787,4.2893 2.67994,9.0244 2.67994,14.2074 0,2.86 -0.35677,5.71881 -1.07177,8.5788 -0.626,2.77 -1.56433,5.40605 -2.81533,7.90805 -1.251,2.50199 -2.72602,4.78027 -4.42402,6.83627 -1.697,1.966 -3.61796,3.61887 -5.76296,4.95887 -0.715,0.536 -1.20581,1.2057 -1.47381,2.0097 -0.179,0.715 -1.1e-4,1.43009 0.53589,2.14509 3.39599,4.46799 6.96882,9.07039 10.72182,13.80639 3.753,4.73599 7.10514,9.06979 10.05313,13.00179 0.537,0.71399 0.67108,1.51874 0.40308,2.41173 -0.268,0.805 -0.84905,1.20613 -1.74305,1.20613 h -24.93077 c -0.62514,0 -1.29588,-0.11182 -2.00918,-0.33073 -1.81559,-2.40364 -3.63133,-4.81858 -5.44721,-7.25795 -2.77,-3.843 -5.53958,-7.73034 -8.30957,-11.66234 -0.26661,-0.35515 -0.58902,-0.67713 -0.96635,-0.96635 l -5.38365,-5.38365 c -0.536,-0.714 -1.29593,-1.29501 -2.27893,-1.74201 -0.983,-0.536 -1.92134,-0.80512 -2.81533,-0.80512 h -2.94814 c -0.894,0 -1.65294,0.31448 -2.27893,0.93948 -0.625,0.626 -0.93793,1.38493 -0.93793,2.27893 v 21.71392 c 0,0.894 -0.31193,1.65293 -0.93793,2.27893 -0.625,0.625 -1.3849,0.93689 -2.2779,0.93689 H 556.83881 V 87.308872 c 0,-0.893599 0.31345,-1.653947 0.93845,-2.279447 0.626,-0.625499 1.38493,-0.937927 2.27893,-0.937927 z m 86.58798,0 h 67.63669 v 15.095718 c 0,0.893794 -0.31189,1.653934 -0.93689,2.278934 -0.537,0.626 -1.29593,0.93896 -2.27893,0.93896 h -18.76526 c -0.894,0 -1.65393,0.31192 -2.27893,0.93792 -0.626,0.625 -0.93793,1.3849 -0.93793,2.2779 v 67.01916 c 0,0.894 -0.31293,1.65293 -0.93792,2.27893 -0.537,0.625 -1.29594,0.93689 -2.27893,0.93689 h -16.97209 v -63.88498 c 0,-0.893 -0.31293,-1.6529 -0.93793,-2.2779 -0.0856,-0.0998 -0.17754,-0.19058 -0.2744,-0.2744 l -6.0756,-6.0756 c -0.537,-0.626 -1.29593,-0.93792 -2.27893,-0.93792 H 643.42577 V 87.308872 c 0,-0.893599 0.31447,-1.653947 0.93947,-2.279447 0.626,-0.625499 1.38494,-0.937927 2.27893,-0.937927 z m 87.39104,0 h 65.09163 v 15.095718 c 0,0.893794 -0.31293,1.653934 -0.93793,2.278934 -0.626,0.626 -1.3849,0.93896 -2.2779,0.93896 h -41.68582 c -0.893,0 -1.65445,0.31192 -2.27945,0.93792 -0.62599,0.625 -0.93792,1.3849 -0.93792,2.2779 v 5.63015 c 0,0.893 0.31193,1.65189 0.93792,2.27789 l 6.35,6.35 c 0.625,0.625 1.38645,0.93896 2.27945,0.93896 h 33.1897 v 15.36289 c 0,0.894 -0.31189,1.65293 -0.93689,2.27893 -0.626,0.625 -1.38593,0.93948 -2.27893,0.93948 h -36.32388 c -0.893,0 -1.65445,0.31192 -2.27945,0.93792 -0.62599,0.625 -0.93792,1.3839 -0.93792,2.2779 v 5.09271 c 0,0.894 0.31193,1.65448 0.93792,2.28048 l 6.35,6.35 c 0.625,0.625 1.38645,0.93793 2.27945,0.93793 h 38.55165 v 15.36392 c 0,0.894 -0.31293,1.65293 -0.93793,2.27893 -0.626,0.625 -1.3849,0.93689 -2.2779,0.93689 H 730.81887 V 87.308872 c 0,-0.893599 0.31193,-1.653947 0.93793,-2.279447 0.625,-0.625499 1.38541,-0.937927 2.27841,-0.937927 z m 91.81558,0 h 41.6853 c 5.183,0 9.96276,0.893258 14.34176,2.680456 2.8282,1.096784 5.37572,2.493811 7.64501,4.187341 1.77526,2.349333 3.23244,4.957411 4.36821,7.826395 1.787,4.2893 2.68097,9.0244 2.68097,14.2074 0,2.86 -0.35728,5.71881 -1.07228,8.5788 -0.626,2.77 -1.56382,5.40605 -2.81482,7.90805 -1.251,2.50199 -2.72499,4.78027 -4.42298,6.83627 -1.698,1.966 -3.61896,3.61887 -5.76296,4.95887 -0.715,0.536 -1.20684,1.2057 -1.47484,2.0097 -0.179,0.715 -0.001,1.43009 0.53588,2.14509 3.395,4.46799 6.96986,9.07039 10.72286,13.80639 3.753,4.73599 7.10413,9.06979 10.05313,13.00179 0.536,0.71399 0.66901,1.51874 0.40101,2.41173 -0.268,0.805 -0.84901,1.20613 -1.74201,1.20613 h -24.93078 c -0.62578,0 -1.29596,-0.11186 -2.00866,-0.33073 -1.81564,-2.40366 -3.63183,-4.81855 -5.44773,-7.25795 -2.77,-3.843 -5.54009,-7.73034 -8.31009,-11.66234 -0.26799,-0.357 -0.59137,-0.68062 -0.971,-0.971 l -5.37899,-5.379 c -0.536,-0.714 -1.2949,-1.29501 -2.2779,-1.74201 -0.983,-0.536 -1.92182,-0.80512 -2.81482,-0.80512 h -2.94917 c -0.893,0 -1.65293,0.31448 -2.27893,0.93948 -0.625,0.626 -0.93793,1.38493 -0.93793,2.27893 v 21.71392 c 0,0.894 -0.31193,1.65293 -0.93792,2.27893 -0.625,0.625 -1.38594,0.93689 -2.27893,0.93689 H 822.63393 V 87.308872 c 0,-0.893599 0.31193,-1.653947 0.93793,-2.279447 0.62499,-0.625499 1.38493,-0.937927 2.27893,-0.937927 z M 9.56634,84.225857 h 17.106964 v 88.414233 c 0,0.894 -0.312428,1.65293 -0.937927,2.27893 -0.625499,0.625 -1.385848,0.93689 -2.279447,0.93689 H 6.3499993 V 87.442198 c 0,-0.8936 0.2684524,-1.652915 0.8046019,-2.278414 C 7.7801106,84.538285 8.583421,84.225857 9.56634,84.225857 Z m 570.54444,18.179253 c -0.894,0 -1.65294,0.31192 -2.27893,0.93792 -0.625,0.625 -0.93793,1.3849 -0.93793,2.2779 v 14.20792 c 0,0.894 0.31293,1.65293 0.93793,2.27893 l 6.34999,6.35 c 0.626,0.625 1.38494,0.93844 2.27893,0.93844 h 14.20844 c 1.072,0 2.1887,-0.1794 3.3507,-0.5364 1.162,-0.447 2.23386,-1.07189 3.21686,-1.87689 0.98299,-0.893 1.78725,-1.96482 2.41225,-3.21582 0.626,-1.251 0.93896,-2.72602 0.93896,-4.42402 0,-0.893 -0.17888,-1.92098 -0.53588,-3.08198 -0.268,-1.251 -0.80421,-2.41306 -1.60921,-3.48506 -0.59486,-0.96811 -1.40842,-1.78066 -2.43861,-2.43861 l -3.91139,-3.91139 c -0.714,-1.162 -1.74201,-2.10085 -3.08301,-2.81585 -1.251,-0.804 -2.81467,-1.20509 -4.69067,-1.20509 z m 265.79511,0 c -0.893,0 -1.65293,0.31192 -2.27893,0.93792 -0.625,0.625 -0.93793,1.3849 -0.93793,2.2779 v 14.20792 c 0,0.894 0.31293,1.65293 0.93793,2.27893 l 6.35,6.35 c 0.626,0.625 1.38596,0.93844 2.27996,0.93844 h 14.20689 c 1.07199,0 2.18921,-0.1794 3.35121,-0.5364 1.161,-0.447 2.23386,-1.07189 3.21686,-1.87689 0.983,-0.893 1.78729,-1.96482 2.41329,-3.21582 0.625,-1.251 0.93793,-2.72602 0.93793,-4.42402 0,-0.893 -0.17889,-1.92098 -0.53589,-3.08198 -0.268,-1.251 -0.8052,-2.41306 -1.6092,-3.48506 -0.59551,-0.9678 -1.40892,-1.78025 -2.4381,-2.4381 l -3.9119,-3.9119 c -0.715,-1.162 -1.74302,-2.10085 -3.08302,-2.81585 -1.251,-0.804 -2.81519,-1.20509 -4.69118,-1.20509 z m -771.381249,0.26665 c -0.893499,0 -1.652914,0.31344 -2.278413,0.93844 -0.6255,0.626 -0.938961,1.38597 -0.938961,2.27996 V 147.977 c 0,0.894 0.313461,1.65289 0.938961,2.27789 l 6.349999,6.35 c 0.625499,0.626 1.384814,0.93793 2.278414,0.93793 h 10.052615 c 2.501997,0 5.093404,-0.31193 7.774201,-0.93793 2.680493,-0.625 5.093803,-1.78706 7.237803,-3.48506 2.145,-1.78699 3.88655,-4.24361 5.22655,-7.3706 1.43,-3.217 2.14509,-7.37343 2.14509,-12.46643 0,-5.09399 -0.71509,-9.20406 -2.14509,-12.33206 -1.34,-3.21699 -3.12691,-5.67361 -5.36091,-7.37061 l -3.6375,-3.63802 c -0.81593,-1.0538 -1.71976,-1.95813 -2.711984,-2.71198 -2.144597,-1.78799 -4.557619,-2.99393 -7.238317,-3.61993 -2.591397,-0.625 -5.137845,-0.93844 -7.639843,-0.93844 z m 511.936129,6.08335 h 14.20844 c 1.03704,0 1.97793,0.12304 2.82412,0.36845 0.0814,0.25846 0.15166,0.52099 0.20877,0.78755 0.357,1.161 0.53588,2.18898 0.53588,3.08198 0,1.698 -0.31296,3.17302 -0.93896,4.42402 -0.625,1.251 -1.42925,2.32282 -2.41225,3.21582 -0.983,0.805 -2.05486,1.42989 -3.21686,1.87689 -1.162,0.357 -2.2787,0.5364 -3.3507,0.5364 h -11.07529 v -11.07529 c 0,-0.893 0.31293,-1.6529 0.93792,-2.2779 0.626,-0.626 1.38494,-0.93792 2.27893,-0.93792 z m 265.79615,0 h 14.20689 c 1.03703,0 1.97844,0.12304 2.82463,0.36845 0.0815,0.25844 0.15167,0.52101 0.20877,0.78755 0.357,1.161 0.53589,2.18898 0.53589,3.08198 0,1.698 -0.31293,3.17302 -0.93793,4.42402 -0.626,1.251 -1.43029,2.32282 -2.41329,3.21582 -0.983,0.805 -2.05586,1.42989 -3.21686,1.87689 -1.162,0.357 -2.27921,0.5364 -3.35121,0.5364 h -11.07478 v -11.07529 c 0,-0.893 0.31293,-1.6529 0.93793,-2.2779 0.626,-0.626 1.38596,-0.93792 2.27996,-0.93792 z m -771.382279,0.26665 h 10.052615 c 2.501997,0 5.048445,0.31344 7.639843,0.93844 1.764381,0.41199 3.411891,1.07662 4.943881,1.99161 0.4736,0.81737 0.90917,1.69905 1.30483,2.64893 1.43,3.128 2.14509,7.23807 2.14509,12.33207 0,5.09299 -0.71509,9.24942 -2.14509,12.46642 -1.34,3.12699 -3.08185,5.58361 -5.226552,7.37061 -2.144598,1.69799 -4.557103,2.86005 -7.2378,3.48505 -2.680797,0.626 -5.272204,0.93793 -7.774202,0.93793 h -6.91999 v -38.95266 c 0,-0.89399 0.313462,-1.65396 0.938961,-2.27996 0.625499,-0.625 1.384814,-0.93844 2.278414,-0.93844 z" style="fill:#a0a0a0;fill-opacity:1;stroke:none;stroke-width:1px;stroke-linejoin:round;stroke-opacity:.6"/><path d="m 371.98504,0 v 25.4 h -75.66359 c -14.02801,0 -25.4,11.371994 -25.4,25.4 v 26.863993 c -2.38268,0.623951 -4.72982,1.367503 -7.00319,2.355928 -6.16569,2.680732 -11.52705,6.344461 -16.08429,10.991061 -4.55725,4.557243 -8.17598,9.918608 -10.8567,16.084288 -2.68074,6.16568 -4.02095,12.73433 -4.02095,19.70422 0,6.96991 1.34021,13.53751 4.02095,19.7032 2.68072,6.16567 6.29945,11.57205 10.8567,16.21864 4.55724,4.55725 9.9186,8.17599 16.08429,10.85671 6.16567,2.68073 12.73327,4.02094 19.70319,4.02094 6.96989,0 13.53802,-1.34021 19.7037,-4.02094 6.16568,-2.68072 11.52756,-6.29946 16.08481,-10.85671 4.64661,-4.64659 8.31033,-10.05297 10.99106,-16.21864 2.68073,-6.16569 4.02094,-12.73329 4.02094,-19.70319 0,-6.9699 -1.34021,-13.53855 -4.02094,-19.70423 -2.68073,-6.16568 -6.34445,-11.527045 -10.99106,-16.084288 -4.55725,-4.6466 -9.91913,-8.310329 -16.08481,-10.991061 -2.27361,-0.988527 -4.62066,-1.731951 -7.0037,-2.355928 V 50.8 h 176.72771 v 26.863993 c -2.38284,0.623968 -4.72966,1.367436 -7.00319,2.355928 -6.16567,2.680732 -11.52704,6.344461 -16.08429,10.991061 -4.55725,4.557243 -8.17596,9.918608 -10.8567,16.084288 -2.68074,6.16568 -4.02198,12.73433 -4.02198,19.70422 0,6.96991 1.34124,13.53751 4.02198,19.7032 2.68074,6.16567 6.29945,11.57205 10.8567,16.21864 4.55725,4.55725 9.91862,8.17599 16.08429,10.85671 6.16568,2.68073 12.73328,4.02094 19.70319,4.02094 6.96989,0 13.53752,-1.34021 19.70319,-4.02094 6.16569,-2.68072 11.52705,-6.29946 16.08429,-10.85671 4.64659,-4.64659 8.31033,-10.05297 10.99106,-16.21864 2.68073,-6.16569 4.02198,-12.73329 4.02198,-19.70319 0,-6.9699 -1.34125,-13.53855 -4.02198,-19.70423 -2.68073,-6.16568 -6.34447,-11.527045 -10.99106,-16.084288 -4.55724,-4.6466 -9.9186,-8.310329 -16.08429,-10.991061 -2.27353,-0.988492 -4.62035,-1.73196 -7.00319,-2.355928 V 50.8 c 0,-14.028006 -11.37199,-25.4 -25.4,-25.4 H 397.38504 V 0 Z m 11.76208,76.401021 c -4.28918,0 -8.71223,0.491911 -13.26948,1.474845 -4.55723,0.893578 -8.71237,2.546213 -12.46539,4.95887 -3.66367,2.323301 -6.70204,5.495636 -9.11468,9.516732 -2.41266,4.021097 -3.61891,9.115042 -3.61891,15.280722 0,4.19981 0.62537,7.86251 1.87638,10.99003 1.34036,3.03816 3.083,5.67462 5.22758,7.90856 2.14457,2.23394 4.55708,4.06555 7.2378,5.49527 2.77009,1.42973 5.54052,2.63649 8.31061,3.61942 2.77009,0.89358 5.45053,1.6079 8.04189,2.14405 2.68073,0.44678 5.00424,0.84973 6.97011,1.20716 2.05524,0.44679 4.06581,0.80422 6.03168,1.07229 1.96587,0.26808 3.66351,0.6255 5.09322,1.07229 1.51909,0.44679 2.72585,1.02766 3.61942,1.74253 0.89358,0.62549 1.34049,1.5188 1.34049,2.68045 0,2.23395 -1.02779,3.93157 -3.08302,5.09323 -2.05522,1.0723 -5.04911,1.60869 -8.98084,1.60869 -4.11046,0 -8.53352,-0.89383 -13.26948,-2.68098 -4.73597,-1.78715 -9.51643,-4.24464 -14.34176,-7.37216 -0.71485,-0.44678 -1.51919,-0.58024 -2.41277,-0.40152 -0.89358,0.17871 -1.60843,0.62511 -2.14457,1.33997 l -10.32134,14.87816 c -0.53614,0.71486 -0.75908,1.56368 -0.66972,2.54662 0.0893,0.89356 0.49179,1.60894 1.20664,2.14508 2.50202,2.05524 5.22692,4.02028 8.17573,5.8968 3.03816,1.78716 6.29946,3.35186 9.78441,4.69222 3.48496,1.34036 7.23818,2.36764 11.25927,3.0825 4.02109,0.80422 8.35519,1.20613 13.00179,1.20613 5.71889,0 10.9018,-0.58089 15.5484,-1.74253 4.73595,-1.25102 8.75659,-3.12711 12.06283,-5.62911 3.39559,-2.50203 6.03154,-5.67488 7.90804,-9.51725 1.87652,-3.93175 2.81534,-8.57826 2.81534,-13.93972 0,-5.71889 -1.16175,-10.45438 -3.48506,-14.2074 -2.23394,-3.84238 -5.04886,-6.92523 -8.44445,-9.24853 -3.30623,-2.41266 -6.88048,-4.2003 -10.72286,-5.36195 -3.84237,-1.25101 -7.37214,-2.18879 -10.58901,-2.8143 -0.6255,-0.0893 -2.05521,-0.31281 -4.28915,-0.67024 -2.23396,-0.44679 -4.55746,-1.02767 -6.97012,-1.74253 -2.41265,-0.71486 -4.5572,-1.5642 -6.43371,-2.54713 -1.87652,-0.98294 -2.81482,-2.0997 -2.81482,-3.3507 0,-1.25101 0.35744,-2.2338 1.07229,-2.94866 0.80423,-0.71486 1.78702,-1.20625 2.94866,-1.47433 1.16165,-0.35743 2.36841,-0.53692 3.61941,-0.53692 1.34037,-0.0893 2.50212,-0.13332 3.48506,-0.13332 3.30624,0 6.92498,0.62484 10.8567,1.87585 3.93175,1.16165 8.17686,3.17275 12.73411,6.03219 0.71486,0.53615 1.51869,0.7146 2.41226,0.53589 0.89359,-0.17872 1.60843,-0.62563 2.14457,-1.34049 l 10.45517,-14.877644 c 0.53615,-0.714862 0.7596,-1.519196 0.67025,-2.412773 -0.0893,-0.893577 -0.49231,-1.653427 -1.20716,-2.278931 -5.45083,-4.199813 -11.16909,-7.371631 -17.15606,-9.516215 -5.89762,-2.233943 -12.59971,-3.351216 -20.10575,-3.351216 z M 47.985185,77.741507 c -0.893577,0 -1.653428,0.312425 -2.278931,0.937928 -0.625504,0.625504 -0.937927,1.385871 -0.937927,2.279447 v 91.681228 c 0,0.89357 0.312423,1.65291 0.937927,2.27841 0.625503,0.6255 1.385354,0.93793 2.278931,0.93793 h 36.592081 c 6.969901,0 13.314054,-1.02779 19.032944,-3.08302 5.80825,-2.05522 10.94668,-5.09307 15.41457,-9.11417 4.82531,-4.46788 8.48904,-9.78528 10.99106,-15.95096 2.50201,-6.25504 3.75326,-13.22404 3.75326,-20.90881 0,-7.68476 -1.25125,-14.61082 -3.75326,-20.77651 C 127.51382,99.857303 123.85009,94.540939 119.02478,90.073054 110.08901,81.852146 98.606424,77.741507 84.577266,77.741507 Z m 100.795915,0 c -0.89358,0 -1.65394,0.312425 -2.27945,0.937928 -0.6255,0.625504 -0.93793,1.385871 -0.93793,2.279447 v 91.681228 c 0,0.89357 0.31243,1.65291 0.93793,2.27841 0.62551,0.6255 1.38587,0.93793 2.27945,0.93793 h 68.22426 c 0.89358,0 1.65291,-0.31243 2.27841,-0.93793 0.62551,-0.6255 0.93896,-1.38484 0.93896,-2.27841 v -18.49706 c 0,-0.89358 -0.31345,-1.65394 -0.93896,-2.27945 -0.6255,-0.6255 -1.38483,-0.93793 -2.27841,-0.93793 h -41.68531 c -0.89358,0 -1.65291,-0.31243 -2.27842,-0.93793 -0.6255,-0.62552 -0.93896,-1.38585 -0.93896,-2.27944 v -5.09323 c 0,-0.89358 0.31346,-1.65292 0.93896,-2.27842 0.62551,-0.6255 1.38484,-0.93792 2.27842,-0.93792 h 36.32388 c 0.89358,0 1.6529,-0.31345 2.27841,-0.93896 0.6255,-0.6255 0.93845,-1.38485 0.93845,-2.27842 v -18.49706 c 0,-0.89358 -0.31295,-1.65291 -0.93845,-2.27842 -0.62551,-0.6255 -1.38483,-0.93792 -2.27841,-0.93792 h -36.32388 c -0.89358,0 -1.65291,-0.31346 -2.27842,-0.93896 -0.6255,-0.62551 -0.93896,-1.38484 -0.93896,-2.27842 v -5.62911 c 0,-0.89358 0.31346,-1.65343 0.93896,-2.27893 0.62551,-0.62551 1.38484,-0.93793 2.27842,-0.93793 h 41.68531 c 0.89358,0 1.65291,-0.31294 2.27841,-0.93844 0.62551,-0.62551 0.93896,-1.38536 0.93896,-2.278933 V 80.958882 c 0,-0.893576 -0.31345,-1.653943 -0.93896,-2.279447 -0.6255,-0.625503 -1.38483,-0.937928 -2.27841,-0.937928 z m 404.92463,0 c -0.89357,0 -1.65291,0.312425 -2.27841,0.937928 -0.62551,0.625504 -0.93793,1.385871 -0.93793,2.279447 v 91.681228 c 0,0.89357 0.31242,1.65291 0.93793,2.27841 0.6255,0.6255 1.38484,0.93793 2.27841,0.93793 h 19.97191 c 0.89359,0 1.65292,-0.31243 2.27842,-0.93793 0.6255,-0.6255 0.93792,-1.38484 0.93792,-2.27841 v -21.71444 c 0,-0.89357 0.31295,-1.65291 0.93845,-2.27841 0.62551,-0.6255 1.38483,-0.93896 2.27841,-0.93896 h 2.94866 c 0.89359,0 1.83188,0.26845 2.81481,0.8046 0.98294,0.44678 1.74227,1.02766 2.27842,1.74253 2.77008,3.93172 5.54051,7.81893 8.3106,11.6613 2.85944,3.84239 5.71885,7.64061 8.57829,11.39362 0.53615,0.71486 1.29547,1.33971 2.27841,1.87586 1.0723,0.44679 2.05561,0.67024 2.94918,0.67024 h 24.93129 c 0.89357,0 1.47446,-0.40191 1.74253,-1.20613 0.26808,-0.89357 0.13358,-1.6979 -0.40256,-2.41277 -2.94881,-3.93174 -6.30011,-8.2653 -10.05313,-13.00127 -3.75303,-4.73595 -7.32676,-9.33851 -10.72234,-13.8064 -0.53615,-0.71486 -0.71513,-1.4297 -0.53641,-2.14457 0.26807,-0.80422 0.75947,-1.47406 1.47433,-2.01021 2.14459,-1.34036 4.06569,-2.99352 5.76348,-4.95939 1.69779,-2.05523 3.17248,-4.33374 4.4235,-6.83576 1.25101,-2.50201 2.18931,-5.13796 2.81481,-7.90804 0.71486,-2.85945 1.07229,-5.71936 1.07229,-8.57881 0,-5.18274 -0.89329,-9.91823 -2.68046,-14.207399 -1.69779,-4.28917 -4.1108,-7.9979 -7.23832,-11.125419 -3.03817,-3.127519 -6.74688,-5.540522 -11.12541,-7.238318 -4.37853,-1.787153 -9.15901,-2.680457 -14.34176,-2.680457 z m 86.588,0 c -0.89358,0 -1.65291,0.312425 -2.27841,0.937928 -0.62551,0.625504 -0.93896,1.385871 -0.93896,2.279447 v 18.228345 c 0,0.893573 0.31345,1.653423 0.93896,2.278933 0.6255,0.6255 1.38483,0.93844 2.27841,0.93844 h 19.03295 c 0.98294,0 1.74278,0.31242 2.27893,0.93793 0.62551,0.6255 0.93793,1.38535 0.93793,2.27893 v 67.01865 c 0,0.89357 0.31293,1.65291 0.93844,2.27841 0.6255,0.6255 1.38483,0.93793 2.27841,0.93793 h 20.10575 c 0.98293,0 1.74228,-0.31243 2.27842,-0.93793 0.62552,-0.6255 0.93844,-1.38484 0.93844,-2.27841 v -67.01865 c 0,-0.89358 0.31242,-1.65343 0.93793,-2.27893 0.6255,-0.62551 1.38536,-0.93793 2.27893,-0.93793 h 18.76526 c 0.98295,0 1.74227,-0.31294 2.27842,-0.93844 0.62549,-0.62551 0.93792,-1.38536 0.93792,-2.278933 V 80.958882 c 0,-0.893576 -0.31243,-1.653943 -0.93792,-2.279447 -0.53615,-0.625503 -1.29547,-0.937928 -2.27842,-0.937928 z m 87.39157,0 c -0.89358,0 -1.65291,0.312425 -2.27842,0.937928 -0.6255,0.625504 -0.93793,1.385871 -0.93793,2.279447 v 91.681228 c 0,0.89357 0.31243,1.65291 0.93793,2.27841 0.62551,0.6255 1.38484,0.93793 2.27842,0.93793 h 68.22529 c 0.89358,0 1.6529,-0.31243 2.27841,-0.93793 0.6255,-0.6255 0.93793,-1.38484 0.93793,-2.27841 v -18.49706 c 0,-0.89358 -0.31243,-1.65394 -0.93793,-2.27945 -0.62551,-0.6255 -1.38483,-0.93793 -2.27841,-0.93793 h -41.68531 c -0.89359,0 -1.65394,-0.31243 -2.27945,-0.93793 -0.6255,-0.62552 -0.93793,-1.38585 -0.93793,-2.27944 v -5.09323 c 0,-0.89358 0.31243,-1.65292 0.93793,-2.27842 0.62551,-0.6255 1.38586,-0.93792 2.27945,-0.93792 h 36.32336 c 0.89357,0 1.65343,-0.31345 2.27893,-0.93896 0.6255,-0.6255 0.93793,-1.38485 0.93793,-2.27842 v -18.49706 c 0,-0.89358 -0.31243,-1.65291 -0.93793,-2.27842 -0.6255,-0.6255 -1.38536,-0.93792 -2.27893,-0.93792 h -36.32336 c -0.89359,0 -1.65394,-0.31346 -2.27945,-0.93896 -0.6255,-0.62551 -0.93793,-1.38484 -0.93793,-2.27842 v -5.62911 c 0,-0.89358 0.31243,-1.65343 0.93793,-2.27893 0.62551,-0.62551 1.38586,-0.93793 2.27945,-0.93793 h 41.68531 c 0.89358,0 1.6529,-0.31294 2.27841,-0.93844 0.6255,-0.62551 0.93793,-1.38536 0.93793,-2.278933 V 80.958882 c 0,-0.893576 -0.31243,-1.653943 -0.93793,-2.279447 -0.62551,-0.625503 -1.38483,-0.937928 -2.27841,-0.937928 z m 91.81558,0 c -0.89359,0 -1.65341,0.312425 -2.27893,0.937928 -0.6255,0.625504 -0.93845,1.385871 -0.93845,2.279447 v 91.681228 c 0,0.89357 0.31295,1.65291 0.93845,2.27841 0.62552,0.6255 1.38534,0.93793 2.27893,0.93793 h 19.97087 c 0.89357,0 1.65395,-0.31243 2.27945,-0.93793 0.62552,-0.6255 0.93793,-1.38484 0.93793,-2.27841 v -21.71444 c 0,-0.89357 0.31243,-1.65291 0.93793,-2.27841 0.6255,-0.6255 1.38586,-0.93896 2.27944,-0.93896 h 2.94814 c 0.89357,0 1.8324,0.26845 2.81534,0.8046 0.98292,0.44678 1.74226,1.02766 2.27841,1.74253 2.77009,3.93172 5.54,7.81893 8.31009,11.6613 2.85945,3.84239 5.71935,7.64061 8.5788,11.39362 0.53615,0.71486 1.29549,1.33971 2.27841,1.87586 1.0723,0.44679 2.05458,0.67024 2.94814,0.67024 h 24.93078 c 0.89359,0 1.47445,-0.40191 1.74253,-1.20613 0.26807,-0.89357 0.13462,-1.6979 -0.40152,-2.41277 -2.94881,-3.93174 -6.29959,-8.2653 -10.05262,-13.00127 -3.75303,-4.73595 -7.32779,-9.33851 -10.72338,-13.8064 -0.53614,-0.71486 -0.7146,-1.4297 -0.53588,-2.14457 0.26807,-0.80422 0.75998,-1.47406 1.47484,-2.01021 2.14459,-1.34036 4.06568,-2.99352 5.76348,-4.95939 1.69779,-2.05523 3.17197,-4.33374 4.42298,-6.83576 1.25101,-2.50201 2.18932,-5.13796 2.81482,-7.90804 0.71486,-2.85945 1.07177,-5.71936 1.07177,-8.57881 0,-5.18274 -0.89331,-9.91823 -2.68046,-14.207399 -1.69779,-4.28917 -4.11079,-7.9979 -7.23832,-11.125419 -3.03815,-3.127519 -6.74636,-5.540522 -11.1249,-7.238318 -4.37853,-1.787153 -9.15902,-2.680457 -14.34176,-2.680457 z M 3.21634,77.875866 c -0.98292,0 -1.78623,0.312423 -2.41174,0.937927 C 0.26845,79.439298 0,80.198631 0,81.092207 v 91.547903 c 0,0.89357 0.26845,1.65291 0.8046,2.27841 0.62551,0.6255 1.42882,0.93793 2.41174,0.93793 h 20.239593 c 0.893576,0 1.653943,-0.31243 2.279447,-0.93793 0.625503,-0.6255 0.937927,-1.38484 0.937927,-2.27841 V 81.092207 c 0,-0.893576 -0.312424,-1.652909 -0.937927,-2.278414 -0.625504,-0.625504 -1.385871,-0.937927 -2.279447,-0.937927 z m 576.8945,24.528734 h 14.20792 c 1.87651,0 3.44069,0.40139 4.6917,1.20561 1.34037,0.71486 2.36816,1.65368 3.08302,2.81533 0.80423,1.0723 1.3401,2.23405 1.60817,3.48506 0.35744,1.16165 0.53588,2.18893 0.53588,3.0825 0,1.6978 -0.31293,3.1725 -0.93844,4.42351 -0.6255,1.251 -1.42932,2.32328 -2.41226,3.21685 -0.98291,0.80422 -2.0552,1.42959 -3.21685,1.87637 -1.16165,0.35744 -2.27893,0.53641 -3.35122,0.53641 h -14.20792 c -0.89358,0 -1.6529,-0.31294 -2.27841,-0.93845 -0.6255,-0.6255 -0.93845,-1.38483 -0.93845,-2.27841 v -14.20792 c 0,-0.89358 0.31295,-1.65343 0.93845,-2.27893 0.62551,-0.62551 1.38483,-0.93793 2.27841,-0.93793 z m 265.79566,0 h 14.2074 c 1.87651,0 3.44018,0.40139 4.69119,1.20561 1.34036,0.71486 2.36764,1.65368 3.0825,2.81533 0.80422,1.0723 1.34113,2.23405 1.6092,3.48506 0.35743,1.16165 0.53589,2.18893 0.53589,3.0825 0,1.6978 -0.31243,3.1725 -0.93793,4.42351 -0.62551,1.251 -1.42984,2.32328 -2.41277,3.21685 -0.98294,0.80422 -2.05574,1.42959 -3.21738,1.87637 -1.16165,0.35744 -2.27841,0.53641 -3.3507,0.53641 h -14.2074 c -0.89358,0 -1.65394,-0.31294 -2.27944,-0.93845 -0.6255,-0.6255 -0.93793,-1.38483 -0.93793,-2.27841 v -14.20792 c 0,-0.89358 0.31243,-1.65343 0.93793,-2.27893 0.6255,-0.62551 1.38586,-0.93793 2.27944,-0.93793 z m -771.38185,0.26769 h 10.052616 c 2.502016,0 5.04847,0.31242 7.639844,0.93792 2.68073,0.62551 5.093732,1.83227 7.238318,3.61942 2.233942,1.6978 4.020552,4.15477 5.360912,7.37164 1.42973,3.12752 2.14509,7.23816 2.14509,12.33155 0,5.09339 -0.71536,9.24903 -2.14509,12.46591 -1.34036,3.12751 -3.08248,5.58449 -5.22707,7.37164 -2.144585,1.6978 -4.55707,2.85954 -7.237801,3.48506 -2.68073,0.6255 -5.272187,0.93793 -7.774203,0.93793 H 74.52465 c -0.893576,0 -1.652909,-0.31243 -2.278414,-0.93793 -0.625504,-0.62552 -0.938961,-1.38484 -0.938961,-2.27842 v -42.08735 c 0,-0.89358 0.313457,-1.65394 0.938961,-2.27945 0.625505,-0.6255 1.384838,-0.93793 2.278414,-0.93792 z" style="font-size:101.6px;line-height:1;font-family:Heavitas;-inkscape-font-specification:Heavitas;text-align:center;letter-spacing:0;word-spacing:0;text-orientation:upright;text-anchor:middle;display:inline;fill:#fff;stroke-width:101.6;stroke-linecap:square;stroke-miterlimit:128;paint-order:stroke fill markers"/><path d="m 485.81634,97.232308 a 29.633333,29.633333 0 0 0 -29.63333,29.633332 29.633333,29.633333 0 0 0 29.63333,29.63333 29.633333,29.633333 0 0 0 29.63333,-29.63333 29.633333,29.633333 0 0 0 -29.63333,-29.633332 z m 10.1601,16.086872 6.77323,6.77323 -20.3202,20.32021 -13.54646,-13.54698 6.77323,-6.77323 6.77323,6.77323 z" style="fill:#22c322;fill-opacity:1;stroke:none;stroke-width:101.6;stroke-linecap:square;stroke-miterlimit:128;paint-order:stroke fill markers"/><path d="m 283.68863,97.232308 a 29.633333,29.633333 0 0 0 -29.63334,29.633332 29.633333,29.633333 0 0 0 29.63334,29.63333 29.633333,29.633333 0 0 0 29.63333,-29.63333 29.633333,29.633333 0 0 0 -29.63333,-29.633332 z m -8.46667,12.700512 8.46667,8.46615 8.46666,-8.46615 8.46667,8.46615 -8.46667,8.46719 8.46667,8.46666 -8.46667,8.46615 -8.46666,-8.46615 -8.46667,8.46615 -8.46667,-8.46615 8.46667,-8.46666 -8.46667,-8.46719 z" style="fill:#c32222;fill-opacity:1;stroke:none;stroke-width:101.6;stroke-linecap:square;stroke-miterlimit:128;paint-order:stroke fill markers"/></svg>