<svg xmlns="http://www.w3.org/2000/svg" xml:space="preserve" id="svg2" width="64" height="64" version="1.1"><style id="style1">path{fill:#000}@media (prefers-color-scheme:dark){path{fill:#fff}}</style><path id="path2" d="M 32 0 A 32 32 0 0 0 0 32 A 32 32 0 0 0 32 64 A 32 32 0 0 0 64 32 A 32 32 0 0 0 32 0 z" style="fill:#fff;fill-opacity:1;stroke-width:.999999"/><path id="path4" d="m 15.124998,14 a 1.125,1.125 0 0 0 -1.125,1.125 v 7.3125 a 1.125,1.125 0 0 0 1.125,1.125 h 10.125 c 1.242673,0 2.25,1.007326 2.25,2.25 v 5.90625 a 1.96875,1.96875 0 0 1 -3.9375,0 V 27.5 a 1.125,1.125 0 0 0 -1.125,-1.125 h -7.3125 a 1.125,1.125 0 0 0 -1.125,1.125 v 20.25 c 0,1.242674 1.007326,2.25 2.25,2.25 h 31.500004 c 1.24267,0 2.25,-1.007326 2.25,-2.25 V 27.5 a 1.125,1.125 0 0 0 -1.125,-1.125 h -7.3125 a 1.125,1.125 0 0 0 -1.125,1.125 v 4.21875 a 1.96875,1.96875 0 0 1 -3.9375,0 V 25.8125 c 0,-1.242674 1.00732,-2.25 2.25,-2.25 h 10.125 a 1.125,1.125 0 0 0 1.125,-1.125 V 15.125 A 1.125,1.125 0 0 0 48.875002,14 Z" style="stroke-width:.999999;stroke:none;stroke-opacity:1;fill:#000;fill-opacity:1"/></svg>